<svg width="1274" height="940" viewBox="0 0 1274 940" fill="none" xmlns="http://www.w3.org/2000/svg">
<g style="mix-blend-mode:darken">
<path d="M1273.63 448.738V490.668C1273.23 492.943 1272.73 495.175 1272.47 497.44C1270.3 515.679 1268.89 534.034 1265.9 552.138C1256.11 610.976 1234.94 665.664 1203.49 716.232C1155.73 793.006 1091.17 851.551 1010.04 891.532C963.21 914.716 912.72 929.616 860.807 935.569C849.277 936.9 837.756 938.095 826.225 939.364H378.788C376.534 938.944 374.291 938.274 372.016 938.137C326.899 935.296 283.491 925.013 242.116 906.91C152.039 867.495 84.8773 803.614 40.9135 715.687C21.4866 676.903 8.91436 635.051 3.75276 591.982C2.48437 581.51 1.24743 571.048 0 560.587V519.904C0.429785 517.65 1.09019 515.396 1.22646 513.132C3.56407 474.043 11.5832 436.085 25.7033 399.606C63.7026 301.447 129.942 228.646 224.075 181.527C272.914 157.071 324.97 144.219 379.417 141.368C406.074 139.984 432.71 141.473 459.21 145.026C461.61 145.351 465.07 144.282 466.736 142.573C504.84 103.652 548.228 72.0362 597.15 48.073C644.604 24.8332 694.543 9.85361 747.114 3.85758C759.483 2.44244 771.884 1.27887 784.274 0H822.42C824.915 0.387855 827.42 0.828123 829.915 1.12163C848.815 3.32297 867.82 4.70667 886.542 7.84096C944.951 17.6422 999.324 38.6073 1049.64 69.751C1126.79 117.51 1185.59 182.156 1225.76 263.542C1248.99 310.392 1263.9 360.921 1269.84 412.877C1271.2 424.837 1272.36 436.798 1273.63 448.738ZM561.499 177.417C562.264 178.424 562.453 178.895 562.778 179.053C588.973 191.965 614.01 207.105 637.613 224.306C639.101 225.386 642.791 224.935 644.594 223.803C709.46 182.701 779.777 168.518 855.315 181.914C929.332 195.039 989.565 232.021 1035.58 291.09C1087.69 357.938 1107.56 433.527 1093.17 517.629C1083.53 573.994 1060.95 624.562 1022.57 666.922C952.551 744.147 864.864 776.087 761.642 762.565C698.097 754.242 643.242 726.83 597.842 680.947C539.569 622.088 480.919 563.616 422.479 504.914C414.69 497.094 406.021 490.804 394.805 489.431C375.213 487.03 357.435 496.811 348.975 514.411C341.428 530.124 342.403 547.84 358.776 563.941C423.925 627.895 488.498 692.436 553.574 756.453C564.712 767.466 576.657 777.631 589.309 786.863C636.847 821.382 690.445 840.471 748.487 848.155C794.044 854.172 839.245 852.883 884.1 842.798C969.658 823.584 1040.53 779.913 1096.35 712.531C1142.44 656.848 1170.32 592.862 1180.03 521.025C1185.66 480.061 1184.49 438.447 1176.55 397.866C1163.61 331.511 1135.53 272.138 1090.55 221.601C1004.73 125.235 896.763 82.2148 768.278 91.8168C718.853 95.5067 672.1 110.025 628.105 133.055C604.364 145.39 582.031 160.265 561.499 177.417ZM530.062 850.147C528.293 848.508 526.532 846.863 524.778 845.209C498.142 820.062 471.359 795.071 445.037 769.599C439.943 764.672 435.257 762.271 428.045 762.439C401.388 763.089 374.71 763.204 348.441 757.271C217.828 727.731 141.986 585.724 190.122 460.772C228.09 362.246 333.199 302.244 436.85 320.746C483.309 329.037 524.086 348.703 557.557 383.222C598.376 425.362 640.411 466.296 681.671 508.006C691.063 517.503 701.85 521.833 714.859 519.977C731.673 517.577 745.059 509.568 751.139 493.079C757.093 476.852 754.21 461.484 741.925 449.042C698.621 405.172 656.345 360.202 611.291 318.198C523.908 236.696 420.865 212.461 306.898 247.116C153.612 293.69 63.9017 451.977 98.924 608.167C130.843 750.478 255.303 850.356 400.937 850.482C441.599 850.524 482.271 850.503 522.933 850.482C524.946 850.482 526.959 850.304 530.062 850.147Z" fill="#E8BA40"/>
</g>
</svg>
