<svg id="Layer_1" data-name="Layer 1" xmlns="http://www.w3.org/2000/svg" viewBox="0 0 792 226.99"><text transform="translate(10.93 136.24)" font-size="55" fill="#fff" font-family="Colus-Regular, Colus">@<tspan x="44.44" y="0" xml:space="preserve" font-family="Koulen-Regular, Koulen">             all rights reserved 2023</tspan></text><path d="M110.18,110.9h0Z" fill="#fff"/><polygon points="131.8 105.55 131.79 105.55 131.79 105.55 131.8 105.55" fill="#fff"/><path d="M105.64,106.06a7.73,7.73,0,0,0-1.32-1.16.67.67,0,0,0-.14-.09l.13.08a8.56,8.56,0,0,1,1.31,1.16c1.43,1.22,2.73,2.57,4.22,3.75a1.89,1.89,0,0,1,.52,1,.09.09,0,0,1,0,.07s0,0-.06,0h0a.08.08,0,0,0,.07,0,.08.08,0,0,0,0-.08,1.79,1.79,0,0,0-.52-1C108.36,108.63,107.06,107.29,105.64,106.06Z" fill="#fff"/><path d="M112.3,114.55a.27.27,0,0,1-.07-.14h0a.23.23,0,0,0,.07.14l.82.78h0Z" fill="#fff"/><path d="M108,109l-.32-.11a2,2,0,0,0,.34.12h0Z" fill="#fff"/><path d="M132.56,101.86a.44.44,0,0,0,.06-.25.4.4,0,0,0-.08-.23.27.27,0,0,1,0-.34l.38-.52s.09-.11.17-.09h0a.17.17,0,0,0-.16.09,6.55,6.55,0,0,0-.39.53.25.25,0,0,0-.06.16.27.27,0,0,0,.06.17.5.5,0,0,1,.09.24.42.42,0,0,1-.07.24,7,7,0,0,0-.42,1.8h0A7,7,0,0,1,132.56,101.86Z" fill="#fff"/><path d="M132.23,103.93a.32.32,0,0,0,.32-.24,3.16,3.16,0,0,0,.26-1.13,1.43,1.43,0,0,0-.09-.5.47.47,0,0,1,0-.2.44.44,0,0,1,.1-.19c.3-.34.26-.73.38-1.09h0c-.12.36-.08.75-.38,1.09a.36.36,0,0,0-.1.18.38.38,0,0,0,0,.21,1.43,1.43,0,0,1,.09.5,3.5,3.5,0,0,1-.26,1.13.32.32,0,0,1-.32.23c-.09,0-.11-.08-.1-.16C132.12,103.84,132.13,103.91,132.23,103.93Z" fill="#fff"/><path d="M131.89,105.55a.05.05,0,0,0,0,0,1.08,1.08,0,0,0,.29-.27,1,1,0,0,0,.14-.35c0-.18-.09-.27-.27-.27h0a.24.24,0,0,1,.26.27.85.85,0,0,1-.14.34,1,1,0,0,1-.29.28h0a.11.11,0,0,1-.08,0h0Z" fill="#fff"/><path d="M116.64,116c.06.29.11.58.16.85l-1.7-1.26c-.3-.23-.57-.5-.88-.71a16.51,16.51,0,0,1-3.17-3.19l-.33-.41a.18.18,0,0,1,0-.07.22.22,0,0,0,0,.08l.33.41a16.23,16.23,0,0,0,3.17,3.19c.31.22.58.48.88.71h0c.56.44,1.13.85,1.7,1.28,0-.27-.1-.57-.16-.87Z" fill="#fff"/><path d="M200.76,100.49c.07,0,.13-.19.24,0h0c-.11-.14-.16,0-.24,0s-.08.15,0,.21a7.86,7.86,0,0,1,1.41,2.6h0a8,8,0,0,0-1.41-2.59C200.68,100.63,200.55,100.56,200.76,100.49Z" fill="#fff"/><path d="M202.15,103.29v-.06s0,0,0,.06Z" fill="#fff"/><path d="M186.78,111.16c.11,0,.11-.1.11-.16S186.88,111.15,186.78,111.16Z" fill="#fff"/><path d="M186.71,111c.22-1.63.46-3.28.77-4.93a.5.5,0,0,0,0-.13c0-.11.08-.26.22-.24-.14,0-.19.13-.22.24a.65.65,0,0,0,0,.13c-.31,1.65-.55,3.3-.77,4.93,0,.09-.05.18.06.18h0C186.67,111.16,186.69,111.07,186.71,111Z" fill="#fff"/><path d="M187.76,105.92c0-.09.12-.23,0-.24C187.86,105.69,187.77,105.83,187.76,105.92Z" fill="#fff"/><path d="M204.55,101.87A9.67,9.67,0,0,0,200.2,96a8.61,8.61,0,0,0-5.81-1.2,38.28,38.28,0,0,0-4.12.76c-.38.09-.42.06-.36-.29.18-1,.34-2,.51-2.93.06-.38.12-.75.17-1.13a.16.16,0,0,1,.06.08c0,.06,0,.17.12.17s.13-.12.16-.2c.14-.29.26-.59.4-.89a.52.52,0,0,0,.06-.45,3.33,3.33,0,0,1,.15-2.08c0-.08,0-.16.14-.18s.27-.19.28-.34c.06-.47.09-.94.16-1.41a6.77,6.77,0,0,1,.15-1c.1,0,.12.17.23.14s.09-.17.13-.25a.36.36,0,0,0,0-.1,20.09,20.09,0,0,0,.28-4.38,19.8,19.8,0,0,0-.88-4.86,5.71,5.71,0,0,1-.41-1.89,1,1,0,0,1,.19-.64,1.32,1.32,0,0,1,.58-.42c.21-.08.21-.18.13-.32a1.83,1.83,0,0,0-.8-.78l-.4,0a1.5,1.5,0,0,0-.57.45,1.1,1.1,0,0,0-.23.62c-.07.63-.15,1.26-.24,1.92a12.33,12.33,0,0,1-.59-1.22c-.06-.11-.07-.32-.21-.31s-.16.24-.23.37,0,0-.06.06-.08-.18-.13-.27-.05-.21-.17-.25a.1.1,0,0,0-.07.11c0,.28-.05.55-.09.82s-.11.27-.34.18-.53-.21-.81-.3c-.06,0-.15,0-.2,0s0,.1.07.14c.3.26.3.36,0,.68-.05.06-.1.14-.19.12s-.08-.09-.09-.16c0-.25-.07-.49-.11-.74,0-.05,0-.12-.06-.12s-.11.06-.14.12-.09.27-.13.4a.25.25,0,0,1-.27.21c-.19,0-.47.16-.55,0s-.25-.09-.35.08l-.36-.43c-.11-.13-.22-.13-.35,0a5.79,5.79,0,0,0-1.09,1.73,2.43,2.43,0,0,1-.27.62c-.11-.78,0-1.54-.23-2.26a5.18,5.18,0,0,0-.44,1,.84.84,0,0,0-.08.38.85.85,0,0,0,.12.37,2.34,2.34,0,0,1,.26,1.53,1,1,0,0,1-.23.57l-.46-.68c0-.06-.06-.17-.16-.13s-.08.15-.07.23c0,.27.07.54.13.81a23.25,23.25,0,0,1,.55,4.76c0,3,0,6.07-.32,9.13-.13,1.4-.25,2.79-.38,4.18-.18,1.75-.36,3.49-.51,5.23s-.38,3.68-.63,5.52c-.28,2.08-.59,4.17-1,6.26,0,.11-.05.23,0,.31s.08-.17.2-.23c-.1.52-.18,1-.29,1.52-.32,1.56-.65,3.12-1,4.67-.19.84-.32,1.71-.55,2.55a.82.82,0,0,1-.2.38,1.12,1.12,0,0,1-.37.26l-1.23.6a.41.41,0,0,0-.21.15.32.32,0,0,0-.06.23l.09.59c0,.2.18.26.41.17l.58-.22a1.17,1.17,0,0,1,.9,0l.1,0a.31.31,0,0,1,.07.09.3.3,0,0,1,0,.1.18.18,0,0,1,0,.1v0a1.31,1.31,0,0,0,0,.83,7.15,7.15,0,0,0,.37,1c0,.06,0,.18.16.16s.1-.13.13-.2c.14-.47.24-.93.34-1.4,0-.07,0-.18.11-.2s.1.11.11.18c0,.25.07.51.11.77,0,.06,0,.15.1.15s.11-.08.15-.14a.34.34,0,0,0,.06-.12c.09-.15.17-.31.25-.46s.11-.2.22-.07.15.1.2,0,.13-.16.24-.09a.25.25,0,0,1,.08.1.36.36,0,0,1,0,.11c0,.37.09.75.14,1.12,0,.14,0,.32.25.31s.28-.18.33-.33c.13-.44.27-.88.39-1.32.06-.21.16-.28.37-.2.43.16.55,0,.49-.38,0,0,0-.08,0-.12a2.61,2.61,0,0,1,.28-1.45,3,3,0,0,1,1-1.16.54.54,0,0,1,.3-.15.67.67,0,0,1,.34,0c.24.12.34,0,.39-.2s0-.25.07-.38,0-.14.08-.13c.29,0,.34-.23.47-.38a3,3,0,0,1,.55-.51c.89-.59,1.78-1.18,2.69-1.74a15.52,15.52,0,0,1,1.9-1c.12-.06.27-.14.39-.08s.39,0,.57-.15l7.4-5.57a.58.58,0,0,1,.31-.16,16.63,16.63,0,0,0-1.14,1.28,10.45,10.45,0,0,0,1.41-.73,2.32,2.32,0,0,0-.06.27c0,.07,0,.15,0,.18s.15-.06.21-.12l1.24-1.21a5,5,0,0,0,.91-1.1,13.3,13.3,0,0,0,2-5.3A7.87,7.87,0,0,0,204.55,101.87Zm-17.78,9.29c-.11,0-.08-.09-.06-.18.22-1.63.46-3.28.77-4.93a.65.65,0,0,1,0-.13c0-.11.08-.26.22-.24s0,.15,0,.24c0-.09.1-.23,0-.24s-.19.13-.22.24a.5.5,0,0,1,0,.13c-.31,1.65-.55,3.3-.77,4.93,0,.09,0,.18.06.18Zm0,0c.1,0,.1-.1.11-.16S186.89,111.15,186.78,111.16Zm9.13-4.78h0a3.6,3.6,0,0,0-.15.63,4.76,4.76,0,0,1-1.41,2.26c-.68.66-1.4,1.29-2,2l-.16.17c0,.06-.08.09,0,.14s.11,0,.16,0a2,2,0,0,1,.49-.17l-4.95,4.08c-.08.06-.17.13-.12.21s.25,0,.37,0-.09.14-.13.21-.09.15,0,.17c.33.14,0,.26-.08.35a2.4,2.4,0,0,1-.66.47,5.75,5.75,0,0,1,.33-.77c.1-.21.13-.35-.23-.32a.61.61,0,0,0,.26-.15.58.58,0,0,0,.12-.25s0-.11,0-.12c-.27-.17-.09-.44-.12-.67,0-.07,0-.15-.07-.18-.33-.1-.22-.37-.22-.59a.83.83,0,0,1,.1-.34,1,1,0,0,1,.27-.26,1.18,1.18,0,0,0,.35-.39,1.05,1.05,0,0,0,.13-.49c0-.11.07-.27-.1-.3s-.17.16-.31.29a2.67,2.67,0,0,0,.07-1.4,3.08,3.08,0,0,1,.19-1.35c.26-1.35.55-2.7.81-4.06a.82.82,0,0,1,.63-.73,5.75,5.75,0,0,0,.77-.33s.12,0,.12-.1-.07-.07-.12-.08a4.4,4.4,0,0,0-1-.08c-.06,0-.15,0-.18,0s.06-.12.12-.17a2.38,2.38,0,0,1,.86-.38,10.9,10.9,0,0,1,2.9-.39,1.76,1.76,0,0,1,.85.21c.11.07.17.13,0,.21s-.19.18-.06.29a2.7,2.7,0,0,1,.64.57c0,.06.05.14.15.12s.1-.11.12-.18a2.21,2.21,0,0,0,.05-.25,4,4,0,0,1,.46.89c.07.17.12.34.19.51s0,.16.11.14.09-.11.11-.18.09-.31.15-.53C195.91,105.49,196.16,105.85,195.91,106.38Zm6.22-3.09a7.86,7.86,0,0,0-1.41-2.6c-.05-.06-.18-.13,0-.21s.13-.19.24,0h0c-.11-.14-.17,0-.24,0s-.08.14,0,.21a8,8,0,0,1,1.41,2.59Zm0,0h0s0,0,0-.06Z" fill="#fff"/><path d="M81.56,137.72c-2,.21-4.09.43-6.14.66a5.73,5.73,0,0,0-3.75,1.92,5.61,5.61,0,0,0-1.07,1.94l0,2.79.09.31c.63,2.12,2.71,3.37,5.31,3.13,1.83-.16,3.66-.37,5.5-.58a3.87,3.87,0,0,0,2-.82,3,3,0,0,0,1.07-1.68,5.74,5.74,0,0,0,.1-1.09c0-1.4,0-2.79,0-4.19A2.58,2.58,0,0,0,81.56,137.72Z" fill="#fff"/><path d="M227.55,126.66a2.25,2.25,0,0,0-1.57-.52l-17.7-1c-1.43-.08-2.85-.21-4.31-.23-.43,0-.82.26-.82.53l-.17,8.4c0,.43.62.68,1.27.5h0l1.7-.47,19.89-5.53a3.13,3.13,0,0,0,1.71-.91C227.56,127.13,227.56,126.92,227.55,126.66Z" fill="#fff"/><path d="M200.28,125.46a1.33,1.33,0,0,0-.41-.25,1.19,1.19,0,0,0-.49-.1,1.33,1.33,0,0,0-.2,0l-24,2.56-.23,0c-.11,0-.2,0-.17-.13s0-.17-.12-.18a.18.18,0,0,0-.2.14c-.12.28-.35.31-.62.31s-.16-.23-.17-.34a4.31,4.31,0,0,1,0-1.39c.24-1,.5-2.1.79-3.15.41-1.48.85-3,1.12-4.43.17-1,.29-1.92.51-2.88a11,11,0,0,0,.35-2.2c0-.71,0-1.41-.07-2.11a9.41,9.41,0,0,0-.21-2.06c-.34-1.17-.44-2.41-.82-3.58-.9-2.77-3-4.27-6.36-4.55a14.44,14.44,0,0,0-4.22.38,8,8,0,0,0-2.85,1.08c-1.42.94-2.83,1.88-4.22,2.86a.94.94,0,0,0-.29.27c-.25.38-.32.4-.72.23a5.42,5.42,0,0,0-.69-.32c-.1.08,0,.16-.08.23l-1-.32c-.19-.06-.39-.15-.54.11a.1.1,0,0,1-.06,0,.09.09,0,0,1-.07,0,3.17,3.17,0,0,0-1.53.39,35.5,35.5,0,0,1-3.54,1.38l-.08,0a25.9,25.9,0,0,0-3.9,2.45c-.44.33-.89.65-1.34,1-.72.48-.78.6-.83.21,0-.17-.06-.34-.08-.51a4.21,4.21,0,0,1,.07-1.9.49.49,0,0,1,.49-.4c.22,0,.31-.13.25-.32a2,2,0,0,1-.05-.24c0-.2-.19-.24-.41-.19a1.08,1.08,0,0,0-.44.22.86.86,0,0,0-.26.37,2.73,2.73,0,0,0-.18,1.49c.09.63.21,1.28.31,1.92,0,.14,0,.31-.16.35a.25.25,0,0,0-.24.21c-.05.18-.24.18-.38.21s-.11-.11-.13-.17a4.74,4.74,0,0,1-.14-2.15l-.79-1.49a.28.28,0,0,0-.11-.13.3.3,0,0,0-.18,0,.85.85,0,0,0-.51.2.68.68,0,0,0-.25.43c0,.24,0,.49-.08.74s-.08.57-.11.84a.45.45,0,0,1,0-.3,2.88,2.88,0,0,0-.38-1.53c0-.07-.1-.1-.17-.14a1,1,0,0,1-.36-.47.83.83,0,0,1,0-.56c0-.07.08-.15,0-.21s-.35,0-.5,0l-.55.8c0,.06-.08.17-.15.15-.34-.08-.18.14-.18.21s.06.26.07.39.12.32,0,.52c-.2-.08-.06-.34-.28-.41a1.17,1.17,0,0,0,0,.9.17.17,0,0,1,0,.14.2.2,0,0,1-.09.13,1,1,0,0,0-.37.47.9.9,0,0,0,0,.56c0,.13,0,.26.07.39-.39-.63-1-1.11-1.34-1.74,0,0,0-.1-.12-.08s-.07.09-.07.14v.28c0,1,0,1.91,0,2.86a10.71,10.71,0,0,0,.12,1.38,22,22,0,0,1,.34,4c0,1.48,0,3,0,4.45a19.64,19.64,0,0,1-.32,3.67c-.27,1.69-.6,3.36-.9,5a.51.51,0,0,1,0,.13.44.44,0,0,1-.08.11.35.35,0,0,1-.13.08.33.33,0,0,1-.15,0l-1.8.18c-.35,0-.38,0-.25-.3a1.17,1.17,0,0,0,.2-.7,8.56,8.56,0,0,1-.14-1.24,3.32,3.32,0,0,0-.44-1.56,2.4,2.4,0,0,1-.24-1.49c0-.19,0-.37,0-.56,0-.44-.2-.88.11-1.35a.56.56,0,0,0,0-.42,5.28,5.28,0,0,1-.12-1.77,15.75,15.75,0,0,0,.05-3.82,2.86,2.86,0,0,1,.14-1.39l.4.61c0,.07.06.19.17.16s.1-.14.11-.23c.12-1.17.24-2.35.35-3.52.1-1,.25-1.94.3-2.91a10.35,10.35,0,0,0,.16-2.71.85.85,0,0,1,0-.23.42.42,0,0,0,0-.27.49.49,0,0,0-.12-.25c-.17-.17-.14-.33,0-.55a1.46,1.46,0,0,0,.2-1.61.17.17,0,0,1,0-.1.16.16,0,0,1,0-.09c.15-.25.06-.54.31-.77,0,0,0-.11,0-.17a20.4,20.4,0,0,1,.54-3.09,5.27,5.27,0,0,0,.18-2c0-.21-.12-.3-.37-.21s-.27,0-.27-.17a2.31,2.31,0,0,1,.09-.74c.07-.22,0-.27-.24-.23s-.44,0-.49-.2a.76.76,0,0,1,.11-.65,3.72,3.72,0,0,0,.21-.39.61.61,0,0,0,.09-.45c-.06-.14-.27-.06-.45-.13a1.23,1.23,0,0,0,.35-.33,1,1,0,0,0,.14-.43c.22-1.21.45-2.42.65-3.63a6.43,6.43,0,0,0,.33-1.29.52.52,0,0,1,.11-.19,1.34,1.34,0,0,0,.05-1.83c-.09-.09-.09-.14,0-.23a2,2,0,0,0,.63-1.13,3.21,3.21,0,0,1,.42-1.23c.08-.1.05-.18-.06-.23a.57.57,0,0,1-.23-.2.47.47,0,0,1-.05-.28,4.8,4.8,0,0,0-.09-.75.23.23,0,0,0-.21-.21c-.24,0-.26.23-.34.37a1.57,1.57,0,0,0-.23.61,1.43,1.43,0,0,1-.62.91.41.41,0,0,0-.19.2.34.34,0,0,0,0,.26.63.63,0,0,1,.06.33.75.75,0,0,1-.1.33,10.34,10.34,0,0,1-1,1.51c-.07.08-.13.19-.29.21a2.65,2.65,0,0,1,.26-.5,3.1,3.1,0,0,0,.17-1.37,1.22,1.22,0,0,1,.27-.87c.13-.16.15-.34,0-.46-.33-.22-.27-.51-.11-.85.31-.66.6-1.32.87-2a.59.59,0,0,0-.22-.82.78.78,0,0,1-.31-.56.74.74,0,0,1,0-.39,5.55,5.55,0,0,1,1.41-2.44.75.75,0,0,0,.27-.39.69.69,0,0,0,0-.45.84.84,0,0,0-1.11.44,10.34,10.34,0,0,1-1.58,2.24,7.47,7.47,0,0,0-1.5,2.11q-.15.28-.33.57c0,.07-.08.17-.19.14s-.06-.12,0-.18c0-.26.1-.53.12-.79s0-.32-.36-.24c-.07,0-.16.08-.22,0s0-.14.05-.21a2.84,2.84,0,0,0,.31-.93c0-.29-.19-.3-.6,0a.37.37,0,0,0-.13.15c-.95,1.63-2,3.24-2.88,4.89a2.44,2.44,0,0,1-.35.51s-.07.1-.14.09-.05-.07-.06-.12a2.82,2.82,0,0,0,0-.58c0-.06,0-.18-.1-.17s-.12.11-.15.18c-.12.31-.23.61-.34.91a6.58,6.58,0,0,1-.73,1.71A3.38,3.38,0,0,0,124,91a4.94,4.94,0,0,1-.82,2.46,4.73,4.73,0,0,0-.5,1.16c-.15.53-.33,1.06-.49,1.59a1,1,0,0,1-.08-.45,1,1,0,0,1,.13-.44,7.81,7.81,0,0,0,.51-2.08.11.11,0,0,0,0-.08c0-.11-.06-.12-.16,0l-.11.13c-.22.21-.35.21-.45,0s-.13-.11-.21,0-.35.43-.54.64a1.11,1.11,0,0,0-.3.6,2.51,2.51,0,0,1-.34.87,1.23,1.23,0,0,0-.23.8,3.58,3.58,0,0,1-.66,2.47,4,4,0,0,0-.53,1.27,16,16,0,0,1-.46,1.78,10.91,10.91,0,0,0-.52,2.65c0,.56,0,1.11-.12,1.68a14.9,14.9,0,0,0-.37,2.38,1.9,1.9,0,0,1-.17.65,2.82,2.82,0,0,0-.18,1.86,2.32,2.32,0,0,1,0,1.33c-.06.24-.14.22-.29.1-1-.81-2-1.63-3-2.48L112,108c-.05,0-.13-.19-.22,0s-.18.08-.25,0c-.42-.34-.84-.68-1.26-1a.6.6,0,0,1-.19-.23.58.58,0,0,1-.07-.28,2.06,2.06,0,0,0-.71-1.43.89.89,0,0,1-.92-.43c-.14-.16-.25-.36-.53-.38a.9.9,0,0,1-.54-.27c-.3-.28-.58-.59-.9-.85a15.55,15.55,0,0,1-2.44-2.35,6.33,6.33,0,0,1-1.25-1.77,1.24,1.24,0,0,0-.55-.69c-.19-.11-.37-.23-.55-.35a2.28,2.28,0,0,1-.87-.93,6.24,6.24,0,0,0-.37-.73,3.45,3.45,0,0,0-1-1.27,2,2,0,0,0-.68.77c-.11.2-.22.35-.52.24.16.29,0,.75.53.78,0,0,0,.05,0,.07a1.33,1.33,0,0,0,.52.88c.1.09.19.22,0,.36a.82.82,0,0,0-.15,1c.34.84.66,1.67,1,2.5a.42.42,0,0,1,0,.27.45.45,0,0,1-.16.25.6.6,0,0,0-.16.25.45.45,0,0,0,0,.28.8.8,0,0,1,0,.15c0,.19-.16.21-.32.26s-.17-.08-.17-.18a1.15,1.15,0,0,1,.09-.63c.1-.21,0-.31-.19-.41s-.34,0-.53.2a2.25,2.25,0,0,0-.77-.11.7.7,0,0,1-.32,0,.61.61,0,0,1-.26-.15.71.71,0,0,0-.4-.21.78.78,0,0,0-.45.06c-.11,0-.2,0-.25,0s-.24-.14-.42,0c-.37.21-.39.21-.48-.15-.19-.71-.34-1.44-.49-2.18,0-.07,0-.16-.12-.17s-.16.06-.22.12c-.31.32-.61.63-.91,1a.21.21,0,0,0-.06.1c-.14.61-.29,1.2-.42,1.81a11,11,0,0,1-1.11,3.34,4.69,4.69,0,0,1-.49.76.94.94,0,0,1,.19-.68,1.4,1.4,0,0,0,.27-.67,1.43,1.43,0,0,0-.07-.71,1.74,1.74,0,0,1,0-1.48,1.11,1.11,0,0,0,0-.25.19.19,0,0,0,0-.13.2.2,0,0,0-.12-.08.11.11,0,0,0-.08,0,.34.34,0,0,0-.22,0,.29.29,0,0,0-.13.16,1.24,1.24,0,0,0,0,.33,1.44,1.44,0,0,1-.24.84,1.82,1.82,0,0,0-.2.36,21.92,21.92,0,0,0-.72,3,6,6,0,0,1-.21,1.38,12.24,12.24,0,0,0-.82,3.77.37.37,0,0,1,0,.23.52.52,0,0,1-.17.19.51.51,0,0,0-.31.62,5.7,5.7,0,0,1-.05,2.29c-.4,1.53-.54,3.06-.91,4.59a.79.79,0,0,0,.07.62.6.6,0,0,1,.06.23.48.48,0,0,1,0,.23,9.19,9.19,0,0,0-.52,2.19c-.07.69-.06,1.39-.12,2.08-.11,1.53-.19,3-.26,4.58-.05.91-.06,1.83,0,2.73.07,1.66,0,3.32,0,5,0,1.14,0,2.28,0,3.42,0,.92,0,1.85,0,2.77,0,.24,0,.48.24.61.08,0,.08.15.1.24.11.73.21,1.47.35,2.19a5,5,0,0,1,0,2.62,8.08,8.08,0,0,1-.2.85c.3.05.61.06.91.13a.65.65,0,0,1,.37.25.5.5,0,0,1,.07.41.85.85,0,0,0,0,.5.92.92,0,0,0,.29.44.63.63,0,0,1,.21.28.73.73,0,0,1,0,.33,11.26,11.26,0,0,0,.1,2.09c.09.63.12,1.08.78,1.16.34,0,.53,0,.68-.32a2.64,2.64,0,0,0,.22-.91.72.72,0,0,1,.22-.51c.15-.12.23-.23.11-.37a.29.29,0,0,1,0-.09.22.22,0,0,1,0-.08l0,0h.11l0,0a.87.87,0,0,1,.33.52,7.85,7.85,0,0,0,.16,1,.57.57,0,0,1,0,.29.94.94,0,0,1-.14.26c-.18.25-.35.49-.54.73a1,1,0,0,0-.22.59,5.21,5.21,0,0,1-.21,1.1,1.29,1.29,0,0,0,.34,1.51,2.46,2.46,0,0,1,.82.94l.69-.07a5.64,5.64,0,0,1,.59-1.52,2.64,2.64,0,0,0,.35-1.39,1.85,1.85,0,0,1,.29-1.18l0-.06a.17.17,0,0,0,0-.07.15.15,0,0,0,0-.07.1.1,0,0,0,0-.06l-.08-.05a.48.48,0,0,1-.2-.14.47.47,0,0,1-.12-.2,13.79,13.79,0,0,1-.58-1.86,1.1,1.1,0,0,1,0-.31.22.22,0,0,1,.32-.19,5.29,5.29,0,0,1,.68.32,1.44,1.44,0,0,0,1.55-.27,2.34,2.34,0,0,0,.5-.68.9.9,0,0,1,.24-.31,1.07,1.07,0,0,1,.36-.21c.61-.18.61-.18.61-.72,0-.18,0-.36,0-.54a5,5,0,0,0,1.18-1.42c0-.08.15-.15.2,0,.16.36.53.26.88.22s.48-.11.5-.48.06-.83.07-1.25a13.76,13.76,0,0,0,0-3.27,2.23,2.23,0,0,1,.1-1.17,5.83,5.83,0,0,0,.26-1.36c.1-1.13.17-2.25.24-3.37l.15-1.76a.54.54,0,0,1,.05-.22.64.64,0,0,1,.16-.17c.06.27.11.51.16.76a17.05,17.05,0,0,0,.59,2.52,1.45,1.45,0,0,0,.44.66c.25.21.38.13.62-.3a2.34,2.34,0,0,1,.2-.27.55.55,0,0,0,.23-.35.56.56,0,0,0-.07-.4,9.39,9.39,0,0,1-1-2.61,27,27,0,0,1-.55-6.43c0-1.62,0-3.24,0-4.85a2.89,2.89,0,0,0,0-.29.1.1,0,0,0,0,0l-.05,0s-.08.05-.1.09a1,1,0,0,1-.23.37c-.09-.08,0-.17,0-.25a12.08,12.08,0,0,1,.63-3.94c.56-1.75,1.35-3.46,2-5.2,0,0,0-.11.09-.12s.12.06.16.11a21.13,21.13,0,0,0,1.56,1.58,11.32,11.32,0,0,0,2.08,1.82,3.49,3.49,0,0,1,1.4,1.4,5.92,5.92,0,0,1,1.29,1.09,3.49,3.49,0,0,0,1.11.85,1.29,1.29,0,0,1,.46.33,13.2,13.2,0,0,0,2.6,2.33,1.94,1.94,0,0,0,.69.82c.84.69,1.71,1.35,2.49,2.09a.85.85,0,0,1,.32.64c0,.65,0,1.28,0,1.93a8.56,8.56,0,0,0,.26,2.77l-9.42,1a3.37,3.37,0,0,0-1.92.89,2.59,2.59,0,0,0-.82,1.75l-.13,6.47a1.25,1.25,0,0,0,.13.65,1.44,1.44,0,0,0,.43.53,1.84,1.84,0,0,0,1.42.37c13-1.37,84.93-8.92,91.59-9.64a1,1,0,0,0,.59-.27.8.8,0,0,0,.25-.53l.17-8.55a1.09,1.09,0,0,0-.08-.43A1.07,1.07,0,0,0,200.28,125.46Zm-67.73-23.61a.42.42,0,0,0,.07-.24.5.5,0,0,0-.09-.24.27.27,0,0,1-.06-.17.25.25,0,0,1,.06-.16,6.55,6.55,0,0,1,.39-.53.17.17,0,0,1,.16-.09h0c-.08,0-.13,0-.17.09l-.38.52a.27.27,0,0,0,0,.34.4.4,0,0,1,.08.23.44.44,0,0,1-.06.25,7,7,0,0,0-.42,1.79h0A7,7,0,0,1,132.55,101.85Zm-.32,2.07a.32.32,0,0,0,.32-.23,3.5,3.5,0,0,0,.26-1.13,1.43,1.43,0,0,0-.09-.5.38.38,0,0,1,0-.21.36.36,0,0,1,.1-.18c.3-.34.26-.73.38-1.09h0c-.12.36-.08.75-.38,1.09a.44.44,0,0,0-.1.19.47.47,0,0,0,0,.2,1.43,1.43,0,0,1,.09.5,3.16,3.16,0,0,1-.26,1.13.32.32,0,0,1-.32.24c-.1,0-.11-.09-.1-.17C132.12,103.84,132.14,103.91,132.23,103.92Zm-.31,1.61h0a1,1,0,0,0,.29-.28.85.85,0,0,0,.14-.34.24.24,0,0,0-.26-.27h0c.18,0,.28.09.27.27a1,1,0,0,1-.14.35,1.08,1.08,0,0,1-.29.27.05.05,0,0,1,0,0h0A.11.11,0,0,0,131.92,105.53Zm-.12,0h0ZM108,109a2,2,0,0,1-.34-.12l.32.11h0Zm2.18,1.94h0Zm.18-.05a.08.08,0,0,1-.07,0h0s0,0,.06,0a.09.09,0,0,0,0-.07,1.89,1.89,0,0,0-.52-1c-1.49-1.18-2.79-2.53-4.22-3.75a8.56,8.56,0,0,0-1.31-1.16l-.13-.08a.67.67,0,0,1,.14.09,7.73,7.73,0,0,1,1.32,1.16c1.42,1.23,2.72,2.57,4.21,3.74a1.79,1.79,0,0,1,.52,1A.08.08,0,0,1,110.36,110.85Zm1.94,3.7a.23.23,0,0,1-.07-.14h0a.27.27,0,0,0,.07.14l.81.77h0Zm2.81,1h0c-.3-.23-.57-.49-.88-.71a16.23,16.23,0,0,1-3.17-3.19l-.33-.41a.22.22,0,0,1,0-.08.18.18,0,0,0,0,.07l.33.41a16.51,16.51,0,0,0,3.17,3.19c.31.21.58.48.88.71l1.7,1.26c0-.27-.1-.56-.16-.85h0c.06.3.12.6.16.87C116.24,116.4,115.67,116,115.11,115.55Zm38.05,3.31h0c-.6,2.48-1.38,4.94-2.17,7.39a.34.34,0,0,1-.07.15c-.42.41-.35.88-.41,1.33,0,.25-.06.49-.08.74a.28.28,0,0,1,0,.18.32.32,0,0,1-.14.14c-.16.08-.18-.09-.28-.14l-.09-.05c-.1.11,0,.19,0,.27a2.29,2.29,0,0,1,.11.86.84.84,0,0,1-.19.47c-.07.08-.14.13-.23,0s-.24-.09-.37,0a1.36,1.36,0,0,1-.71.26l-7.8.82c-.25,0-.28,0-.24-.23a49.86,49.86,0,0,0,.95-6c.16-1.31.35-2.63.52-3.94a.57.57,0,0,1,.07-.22c.06-.13.12-.29.27-.31s.13.14.19.22,0,.11.11.09.07-.08.09-.13a5.05,5.05,0,0,1,.43-.79c.11.21,0,.42.16.61.15-.18.11-.36.15-.53.11-.42.2-.84.29-1.25a2.22,2.22,0,0,1,.62-1.14c.36-.36.68-.75,1-1.13a.49.49,0,0,1,.58-.22c.17.07.32,0,.48-.12a24.14,24.14,0,0,0,4.16-2.86c.68-.51.73-.49.89.19a15.19,15.19,0,0,1,.32,3.86c0,.28-.07.59.2.79.07.06,0,.18,0,.27-.09.75-.18,1.5-.26,2.25,0,.12-.11.34,0,.35s.14-.21.16-.33c.27-1.2.52-2.41.72-3.62.07-.42,0-.84,0-1.26,0-.61,0-1.23,0-1.83,0-.16.06-.23.24-.21s.15.06,0,.12-.15.23-.12.36c.19.61.38,1.23.55,1.85A5.68,5.68,0,0,1,153.16,118.86Zm13.22-2h0l-2.43,8.8a.83.83,0,0,0,0,.15s0,.11,0,.13.09,0,.13-.07l0,0c.1-.08.17-.27.31-.21s0,.26,0,.39a1.73,1.73,0,0,1-.14.31,1.69,1.69,0,0,0-.3,1.16.91.91,0,0,1-.13.48.89.89,0,0,0-.11.36.74.74,0,0,0,0,.36c.09.19,0,.24-.22.27-1.73.17-3.47.36-5.21.55-.25,0-.35-.05-.33-.27a1.54,1.54,0,0,1,.06-.43c.11-.31.08-.36-.28-.37a.93.93,0,0,0,.26-.5.89.89,0,0,0-.12-.55c-.14-.24,0-.52.21-.75s.47-.64.7-1,.15-.29-.14-.33-.22-.08-.12-.21c.25-.33.37-.72.78-1a.16.16,0,0,0,.07-.07.14.14,0,0,0,0-.09c-.09-.26.09-.46.29-.65l.12-.12a.18.18,0,0,0,0-.14.14.14,0,0,0-.08-.12c-.11-.08-.18,0-.24.1a1.58,1.58,0,0,1-.5.53,2.35,2.35,0,0,1,.08-.95c.16-1,.48-2.07.69-3.11.08-.4.12-.8.18-1.2a1.13,1.13,0,0,1,.06-.36,2.55,2.55,0,0,0,.14-1.3c0-.16,0-.29-.25-.32s-.14-.12-.06-.21c.3-.39.43-.84.73-1.23a.31.31,0,0,0,.06-.13.26.26,0,0,0,0-.15c-.08-.19,0-.29.22-.39l.92-.55c.07,0,.18-.08.17-.18s-.13-.1-.21-.11l-.39-.07a2.19,2.19,0,0,1,.44-.35,7.62,7.62,0,0,1,2.66-1.36,4.39,4.39,0,0,1,.81-.11c.26,0,.33.1.24.32a3.6,3.6,0,0,1-.56.89c-.17.24-.13.31.16.31s.58-.11.7-.49c0-.15.06-.4.24-.4s.14.25.14.4a27.17,27.17,0,0,1-.27,3.37q0,.35-.06.69s0,.13.08.13.11-.06.14-.11.25-.4.35-.59h.09C166.52,116.29,166.45,116.56,166.38,116.82Z" fill="#fff"/></svg>