<svg width="822" height="103" viewBox="0 0 822 103" fill="none" xmlns="http://www.w3.org/2000/svg">
<path d="M6.52689 23H0.792511C0.709178 23 0.667511 22.9479 0.667511 22.8438L0.730011 0.859375C0.730011 0.776042 0.771678 0.734375 0.855011 0.734375H7.01126C8.20918 0.734375 9.29772 1.02604 10.2769 1.60938C11.2352 2.19271 11.9904 2.96875 12.5425 3.9375C13.0946 4.89583 13.3706 5.9375 13.3706 7.0625C13.3706 7.97917 13.1623 8.83333 12.7456 9.625C12.329 10.4167 11.8342 11.0573 11.2613 11.5469C11.8758 12.1615 12.355 12.875 12.6988 13.6875C13.0425 14.5 13.2144 15.3542 13.2144 16.25C13.2144 17.4896 12.9175 18.6198 12.3238 19.6406C11.7196 20.6615 10.9123 21.4792 9.90189 22.0938C8.89147 22.6979 7.76647 23 6.52689 23ZM7.01126 4.53125H4.57376V9.5625H7.01126C7.75084 9.5625 8.3498 9.30208 8.80814 8.78125C9.26647 8.25 9.49564 7.67708 9.49564 7.0625C9.49564 6.38542 9.25084 5.79688 8.76126 5.29688C8.27168 4.78646 7.68834 4.53125 7.01126 4.53125ZM6.52689 13.4375H4.57376L4.54251 19.0938H6.52689C7.29772 19.0938 7.95918 18.8125 8.51126 18.25C9.06334 17.6875 9.33939 17.0208 9.33939 16.25C9.33939 15.4792 9.06334 14.8177 8.51126 14.2656C7.95918 13.7135 7.29772 13.4375 6.52689 13.4375ZM18.7369 22.8438L22.7056 0.859375C22.7265 0.776042 22.7786 0.734375 22.8619 0.734375H27.5025C27.5858 0.734375 27.6379 0.776042 27.6588 0.859375L31.4713 22.8438C31.4817 22.9479 31.44 23 31.3463 23H27.7994C27.6952 23 27.6379 22.9479 27.6275 22.8438L27.2838 20.5H22.9244L22.5806 22.8438C22.5702 22.9479 22.5181 23 22.4244 23H18.8619C18.7786 23 18.7369 22.9479 18.7369 22.8438ZM25.0025 8.09375L23.565 17.0781H26.6431L25.3306 8.09375L25.1431 6.90625L25.0025 8.09375ZM43.8688 23.3125C42.7333 23.3125 41.6865 23.0208 40.7281 22.4375C39.7802 21.8542 39.0198 21.0781 38.4469 20.1094C37.8844 19.1302 37.6031 18.0573 37.6031 16.8906V15.4219C37.6031 15.3073 37.6552 15.25 37.7594 15.25H41.3531C41.4365 15.25 41.4781 15.3073 41.4781 15.4219V16.8906C41.4781 17.5885 41.7125 18.1927 42.1813 18.7031C42.65 19.2031 43.2125 19.4531 43.8688 19.4531C44.5354 19.4531 45.1031 19.1979 45.5719 18.6875C46.0406 18.1667 46.275 17.5677 46.275 16.8906C46.275 16.1094 45.7646 15.4271 44.7438 14.8438C44.5771 14.7396 44.3583 14.6146 44.0875 14.4688C43.8271 14.3125 43.5146 14.1354 43.15 13.9375C42.7854 13.7396 42.4313 13.5469 42.0875 13.3594C41.7438 13.1615 41.4104 12.974 41.0875 12.7969C39.9208 12.1094 39.0511 11.25 38.4781 10.2188C37.9156 9.17708 37.6344 8.01042 37.6344 6.71875C37.6344 5.53125 37.9261 4.45833 38.5094 3.5C39.0927 2.55208 39.8531 1.80208 40.7906 1.25C41.7386 0.6875 42.7646 0.40625 43.8688 0.40625C45.0042 0.40625 46.0458 0.6875 46.9938 1.25C47.9417 1.82292 48.6969 2.58333 49.2594 3.53125C49.8323 4.47917 50.1188 5.54167 50.1188 6.71875V9.34375C50.1188 9.42708 50.0771 9.46875 49.9938 9.46875H46.4C46.3167 9.46875 46.275 9.42708 46.275 9.34375L46.2438 6.71875C46.2438 5.96875 46.0094 5.35938 45.5406 4.89062C45.0719 4.42188 44.5146 4.1875 43.8688 4.1875C43.2125 4.1875 42.65 4.4375 42.1813 4.9375C41.7125 5.4375 41.4781 6.03125 41.4781 6.71875C41.4781 7.41667 41.624 8 41.9156 8.46875C42.2177 8.9375 42.7646 9.38542 43.5563 9.8125C43.6396 9.85417 43.8323 9.95833 44.1344 10.125C44.4365 10.2917 44.7698 10.4792 45.1344 10.6875C45.5094 10.8854 45.8479 11.0677 46.15 11.2344C46.4521 11.3906 46.6344 11.4844 46.6969 11.5156C47.7594 12.1094 48.5979 12.8385 49.2125 13.7031C49.8375 14.5677 50.15 15.6302 50.15 16.8906C50.15 18.1094 49.8688 19.2031 49.3063 20.1719C48.7333 21.1406 47.9729 21.9062 47.025 22.4688C46.0771 23.0312 45.025 23.3125 43.8688 23.3125ZM67.7975 23H57.4538C57.3704 23 57.3288 22.9479 57.3288 22.8438L57.36 0.859375C57.36 0.776042 57.4017 0.734375 57.485 0.734375H67.7663C67.8496 0.734375 67.8913 0.786458 67.8913 0.890625V4.46875C67.8913 4.55208 67.8496 4.59375 67.7663 4.59375H61.2038V9.59375H67.7663C67.8496 9.59375 67.8913 9.63542 67.8913 9.71875L67.9225 13.3438C67.9225 13.4271 67.8808 13.4688 67.7975 13.4688H61.2038V19.0625H67.7975C67.8808 19.0625 67.9225 19.1146 67.9225 19.2188V22.875C67.9225 22.9583 67.8808 23 67.7975 23ZM81.6169 22.9688L75.8825 23C75.7783 23 75.7263 22.9479 75.7263 22.8438L75.7888 0.859375C75.7888 0.776042 75.8304 0.734375 75.9138 0.734375L81.8981 0.703125C83.0856 0.671875 84.1585 0.942708 85.1169 1.51562C86.0856 2.08854 86.8565 2.86458 87.4294 3.84375C88.0127 4.8125 88.3044 5.88542 88.3044 7.0625V16.25C88.3044 17.4792 88.0075 18.6042 87.4138 19.625C86.8096 20.6354 86.0075 21.4427 85.0075 22.0469C84.0075 22.6406 82.8773 22.9479 81.6169 22.9688ZM81.8981 4.53125L79.6638 4.5625L79.6325 19.0625H81.6169C82.4085 19.0625 83.0752 18.7865 83.6169 18.2344C84.1585 17.6823 84.4294 17.0208 84.4294 16.25V7.03125C84.4294 6.35417 84.1794 5.76562 83.6794 5.26562C83.1794 4.75521 82.5856 4.51042 81.8981 4.53125ZM112.834 23H109.209C109.105 23 109.053 22.9479 109.053 22.8438L109.084 0.859375C109.084 0.776042 109.125 0.734375 109.209 0.734375H112.803C112.886 0.734375 112.928 0.776042 112.928 0.859375L112.959 22.8438C112.959 22.9479 112.917 23 112.834 23ZM124.216 23H121.013C120.846 23 120.763 22.9271 120.763 22.7812L120.731 0.984375C120.731 0.817708 120.815 0.734375 120.981 0.734375H123.872L129.278 13.3438L129.122 0.984375C129.122 0.817708 129.216 0.734375 129.403 0.734375H132.575C132.7 0.734375 132.763 0.817708 132.763 0.984375L132.794 22.8125C132.794 22.9375 132.742 23 132.638 23H129.825L124.278 11.2188L124.513 22.75C124.513 22.9167 124.414 23 124.216 23ZM159.245 23.3125C158.11 23.3125 157.063 23.0208 156.104 22.4375C155.156 21.8542 154.396 21.0781 153.823 20.1094C153.261 19.1302 152.979 18.0573 152.979 16.8906V15.4219C152.979 15.3073 153.031 15.25 153.136 15.25H156.729C156.813 15.25 156.854 15.3073 156.854 15.4219V16.8906C156.854 17.5885 157.089 18.1927 157.558 18.7031C158.026 19.2031 158.589 19.4531 159.245 19.4531C159.912 19.4531 160.479 19.1979 160.948 18.6875C161.417 18.1667 161.651 17.5677 161.651 16.8906C161.651 16.1094 161.141 15.4271 160.12 14.8438C159.953 14.7396 159.735 14.6146 159.464 14.4688C159.203 14.3125 158.891 14.1354 158.526 13.9375C158.162 13.7396 157.808 13.5469 157.464 13.3594C157.12 13.1615 156.787 12.974 156.464 12.7969C155.297 12.1094 154.427 11.25 153.854 10.2188C153.292 9.17708 153.011 8.01042 153.011 6.71875C153.011 5.53125 153.302 4.45833 153.886 3.5C154.469 2.55208 155.229 1.80208 156.167 1.25C157.115 0.6875 158.141 0.40625 159.245 0.40625C160.38 0.40625 161.422 0.6875 162.37 1.25C163.318 1.82292 164.073 2.58333 164.636 3.53125C165.209 4.47917 165.495 5.54167 165.495 6.71875V9.34375C165.495 9.42708 165.453 9.46875 165.37 9.46875H161.776C161.693 9.46875 161.651 9.42708 161.651 9.34375L161.62 6.71875C161.62 5.96875 161.386 5.35938 160.917 4.89062C160.448 4.42188 159.891 4.1875 159.245 4.1875C158.589 4.1875 158.026 4.4375 157.558 4.9375C157.089 5.4375 156.854 6.03125 156.854 6.71875C156.854 7.41667 157 8 157.292 8.46875C157.594 8.9375 158.141 9.38542 158.933 9.8125C159.016 9.85417 159.209 9.95833 159.511 10.125C159.813 10.2917 160.146 10.4792 160.511 10.6875C160.886 10.8854 161.224 11.0677 161.526 11.2344C161.828 11.3906 162.011 11.4844 162.073 11.5156C163.136 12.1094 163.974 12.8385 164.589 13.7031C165.214 14.5677 165.526 15.6302 165.526 16.8906C165.526 18.1094 165.245 19.2031 164.683 20.1719C164.11 21.1406 163.349 21.9062 162.401 22.4688C161.453 23.0312 160.401 23.3125 159.245 23.3125ZM183.174 23H172.83C172.747 23 172.705 22.9479 172.705 22.8438L172.736 0.859375C172.736 0.776042 172.778 0.734375 172.861 0.734375H183.143C183.226 0.734375 183.268 0.786458 183.268 0.890625V4.46875C183.268 4.55208 183.226 4.59375 183.143 4.59375H176.58V9.59375H183.143C183.226 9.59375 183.268 9.63542 183.268 9.71875L183.299 13.3438C183.299 13.4271 183.257 13.4688 183.174 13.4688H176.58V19.0625H183.174C183.257 19.0625 183.299 19.1146 183.299 19.2188V22.875C183.299 22.9583 183.257 23 183.174 23ZM190.024 22.8438L193.993 0.859375C194.014 0.776042 194.066 0.734375 194.149 0.734375H198.79C198.873 0.734375 198.925 0.776042 198.946 0.859375L202.759 22.8438C202.769 22.9479 202.728 23 202.634 23H199.087C198.983 23 198.925 22.9479 198.915 22.8438L198.571 20.5H194.212L193.868 22.8438C193.858 22.9479 193.806 23 193.712 23H190.149C190.066 23 190.024 22.9479 190.024 22.8438ZM196.29 8.09375L194.853 17.0781H197.931L196.618 8.09375L196.431 6.90625L196.29 8.09375ZM214.609 23H211C210.906 23 210.859 22.9479 210.859 22.8438V4.59375H206.703C206.599 4.59375 206.547 4.54167 206.547 4.4375L206.578 0.859375C206.578 0.776042 206.62 0.734375 206.703 0.734375H218.859C218.974 0.734375 219.031 0.776042 219.031 0.859375V4.4375C219.031 4.54167 218.99 4.59375 218.906 4.59375H214.703L214.734 22.8438C214.734 22.9479 214.693 23 214.609 23ZM232.382 23H228.773C228.679 23 228.632 22.9479 228.632 22.8438V4.59375H224.476C224.371 4.59375 224.319 4.54167 224.319 4.4375L224.351 0.859375C224.351 0.776042 224.392 0.734375 224.476 0.734375H236.632C236.746 0.734375 236.804 0.776042 236.804 0.859375V4.4375C236.804 4.54167 236.762 4.59375 236.679 4.59375H232.476L232.507 22.8438C232.507 22.9479 232.465 23 232.382 23ZM253.795 23H243.451C243.368 23 243.326 22.9479 243.326 22.8438L243.358 0.890625C243.358 0.786458 243.41 0.734375 243.514 0.734375H247.076C247.18 0.734375 247.233 0.786458 247.233 0.890625L247.201 19.0625H253.795C253.899 19.0625 253.951 19.1146 253.951 19.2188V22.8438C253.951 22.9479 253.899 23 253.795 23ZM271.474 23H261.13C261.047 23 261.005 22.9479 261.005 22.8438L261.036 0.859375C261.036 0.776042 261.078 0.734375 261.161 0.734375H271.443C271.526 0.734375 271.568 0.786458 271.568 0.890625V4.46875C271.568 4.55208 271.526 4.59375 271.443 4.59375H264.88V9.59375H271.443C271.526 9.59375 271.568 9.63542 271.568 9.71875L271.599 13.3438C271.599 13.4271 271.557 13.4688 271.474 13.4688H264.88V19.0625H271.474C271.557 19.0625 271.599 19.1146 271.599 19.2188V22.875C271.599 22.9583 271.557 23 271.474 23ZM292.675 27.0312V25.0469C293.206 25.0469 293.659 24.8438 294.034 24.4375C294.409 24.0312 294.597 23.5521 294.597 23H292.8C292.717 23 292.675 22.9583 292.675 22.875V19.2812C292.675 19.1979 292.717 19.1562 292.8 19.1562H296.425C296.508 19.1562 296.55 19.1979 296.55 19.2812V23C296.55 23.75 296.368 24.4323 296.003 25.0469C295.639 25.6615 295.165 26.1458 294.581 26.5C293.998 26.8542 293.363 27.0312 292.675 27.0312ZM324.236 23H320.361C320.267 23 320.215 22.9479 320.204 22.8438L316.423 0.859375C316.402 0.776042 316.434 0.734375 316.517 0.734375H320.111C320.194 0.734375 320.246 0.776042 320.267 0.859375L322.314 15.3125L324.423 0.859375C324.444 0.776042 324.506 0.734375 324.611 0.734375H327.501C327.585 0.734375 327.637 0.776042 327.658 0.859375L329.736 15.3125L331.814 0.859375C331.835 0.776042 331.887 0.734375 331.97 0.734375H335.533C335.637 0.734375 335.678 0.776042 335.658 0.859375L331.845 22.8438C331.835 22.8854 331.803 22.9219 331.751 22.9531L331.689 23H327.814C327.751 23 327.699 22.9479 327.658 22.8438L326.017 11.3594L324.392 22.8438C324.381 22.9479 324.329 23 324.236 23ZM339.477 22.8438L343.446 0.859375C343.466 0.776042 343.519 0.734375 343.602 0.734375H348.243C348.326 0.734375 348.378 0.776042 348.399 0.859375L352.211 22.8438C352.222 22.9479 352.18 23 352.086 23H348.539C348.435 23 348.378 22.9479 348.368 22.8438L348.024 20.5H343.664L343.321 22.8438C343.31 22.9479 343.258 23 343.164 23H339.602C339.519 23 339.477 22.9479 339.477 22.8438ZM345.743 8.09375L344.305 17.0781H347.383L346.071 8.09375L345.883 6.90625L345.743 8.09375ZM362.921 23H359.296C359.213 23 359.171 22.9583 359.171 22.875V19.25C359.171 19.1667 359.213 19.125 359.296 19.125H362.921C363.005 19.125 363.046 19.1667 363.046 19.25V22.875C363.046 22.9583 363.005 23 362.921 23ZM387.685 23H384.06C383.956 23 383.904 22.9479 383.904 22.8438L383.935 0.859375C383.935 0.776042 383.977 0.734375 384.06 0.734375H387.654C387.737 0.734375 387.779 0.776042 387.779 0.859375L387.81 22.8438C387.81 22.9479 387.768 23 387.685 23ZM414.293 23.3125C413.157 23.3125 412.11 23.0208 411.152 22.4375C410.204 21.8542 409.444 21.0781 408.871 20.1094C408.308 19.1302 408.027 18.0573 408.027 16.8906V15.4219C408.027 15.3073 408.079 15.25 408.183 15.25H411.777C411.86 15.25 411.902 15.3073 411.902 15.4219V16.8906C411.902 17.5885 412.136 18.1927 412.605 18.7031C413.074 19.2031 413.636 19.4531 414.293 19.4531C414.959 19.4531 415.527 19.1979 415.996 18.6875C416.464 18.1667 416.699 17.5677 416.699 16.8906C416.699 16.1094 416.188 15.4271 415.168 14.8438C415.001 14.7396 414.782 14.6146 414.511 14.4688C414.251 14.3125 413.938 14.1354 413.574 13.9375C413.209 13.7396 412.855 13.5469 412.511 13.3594C412.168 13.1615 411.834 12.974 411.511 12.7969C410.345 12.1094 409.475 11.25 408.902 10.2188C408.339 9.17708 408.058 8.01042 408.058 6.71875C408.058 5.53125 408.35 4.45833 408.933 3.5C409.516 2.55208 410.277 1.80208 411.214 1.25C412.162 0.6875 413.188 0.40625 414.293 0.40625C415.428 0.40625 416.47 0.6875 417.418 1.25C418.365 1.82292 419.121 2.58333 419.683 3.53125C420.256 4.47917 420.543 5.54167 420.543 6.71875V9.34375C420.543 9.42708 420.501 9.46875 420.418 9.46875H416.824C416.74 9.46875 416.699 9.42708 416.699 9.34375L416.668 6.71875C416.668 5.96875 416.433 5.35938 415.964 4.89062C415.496 4.42188 414.938 4.1875 414.293 4.1875C413.636 4.1875 413.074 4.4375 412.605 4.9375C412.136 5.4375 411.902 6.03125 411.902 6.71875C411.902 7.41667 412.048 8 412.339 8.46875C412.641 8.9375 413.188 9.38542 413.98 9.8125C414.063 9.85417 414.256 9.95833 414.558 10.125C414.86 10.2917 415.194 10.4792 415.558 10.6875C415.933 10.8854 416.272 11.0677 416.574 11.2344C416.876 11.3906 417.058 11.4844 417.121 11.5156C418.183 12.1094 419.022 12.8385 419.636 13.7031C420.261 14.5677 420.574 15.6302 420.574 16.8906C420.574 18.1094 420.293 19.2031 419.73 20.1719C419.157 21.1406 418.397 21.9062 417.449 22.4688C416.501 23.0312 415.449 23.3125 414.293 23.3125ZM433.924 23H430.315C430.221 23 430.174 22.9479 430.174 22.8438V4.59375H426.018C425.914 4.59375 425.862 4.54167 425.862 4.4375L425.893 0.859375C425.893 0.776042 425.935 0.734375 426.018 0.734375H438.174C438.289 0.734375 438.346 0.776042 438.346 0.859375V4.4375C438.346 4.54167 438.305 4.59375 438.221 4.59375H434.018L434.049 22.8438C434.049 22.9479 434.008 23 433.924 23ZM448.619 23H444.994C444.91 23 444.869 22.9479 444.869 22.8438L444.931 0.859375C444.931 0.776042 444.973 0.734375 445.056 0.734375H451.525C452.681 0.734375 453.744 1.01562 454.713 1.57812C455.681 2.14062 456.452 2.89583 457.025 3.84375C457.608 4.79167 457.9 5.86458 457.9 7.0625C457.9 7.84375 457.78 8.55208 457.541 9.1875C457.301 9.82292 457.02 10.3594 456.697 10.7969C456.384 11.2344 456.098 11.5573 455.838 11.7656C456.994 13.0469 457.572 14.5521 457.572 16.2812L457.603 22.8438C457.603 22.9479 457.551 23 457.447 23H453.822C453.739 23 453.697 22.9688 453.697 22.9062V16.2812C453.697 15.5104 453.426 14.8438 452.884 14.2812C452.343 13.7188 451.676 13.4375 450.884 13.4375H448.775L448.744 22.8438C448.744 22.9479 448.702 23 448.619 23ZM451.525 4.5625H448.775V9.59375H451.525C452.181 9.59375 452.765 9.34896 453.275 8.85938C453.796 8.36979 454.056 7.77083 454.056 7.0625C454.056 6.38542 453.806 5.80208 453.306 5.3125C452.806 4.8125 452.213 4.5625 451.525 4.5625ZM469.048 23H465.423C465.318 23 465.266 22.9479 465.266 22.8438L465.298 0.859375C465.298 0.776042 465.339 0.734375 465.423 0.734375H469.016C469.1 0.734375 469.141 0.776042 469.141 0.859375L469.173 22.8438C469.173 22.9479 469.131 23 469.048 23ZM484.414 23H480.539C480.445 23 480.393 22.9479 480.383 22.8438L475.961 0.859375C475.94 0.776042 475.981 0.734375 476.086 0.734375H479.711C479.794 0.734375 479.846 0.776042 479.867 0.859375L482.492 15.5156L485.054 0.859375C485.075 0.776042 485.127 0.734375 485.211 0.734375H488.789C488.903 0.734375 488.945 0.776042 488.914 0.859375L484.57 22.8438C484.56 22.9479 484.508 23 484.414 23ZM506.217 23H495.874C495.79 23 495.749 22.9479 495.749 22.8438L495.78 0.859375C495.78 0.776042 495.822 0.734375 495.905 0.734375H506.186C506.27 0.734375 506.311 0.786458 506.311 0.890625V4.46875C506.311 4.55208 506.27 4.59375 506.186 4.59375H499.624V9.59375H506.186C506.27 9.59375 506.311 9.63542 506.311 9.71875L506.342 13.3438C506.342 13.4271 506.301 13.4688 506.217 13.4688H499.624V19.0625H506.217C506.301 19.0625 506.342 19.1146 506.342 19.2188V22.875C506.342 22.9583 506.301 23 506.217 23ZM534.247 23H530.637C530.544 23 530.497 22.9479 530.497 22.8438V4.59375H526.341C526.236 4.59375 526.184 4.54167 526.184 4.4375L526.216 0.859375C526.216 0.776042 526.257 0.734375 526.341 0.734375H538.497C538.611 0.734375 538.669 0.776042 538.669 0.859375V4.4375C538.669 4.54167 538.627 4.59375 538.544 4.59375H534.341L534.372 22.8438C534.372 22.9479 534.33 23 534.247 23ZM550.457 23.3125C549.321 23.3125 548.275 23.0208 547.316 22.4375C546.368 21.8542 545.603 21.0781 545.019 20.1094C544.446 19.1302 544.16 18.0573 544.16 16.8906L544.191 6.75C544.191 5.5625 544.478 4.49479 545.051 3.54688C545.613 2.58854 546.374 1.82292 547.332 1.25C548.29 0.666667 549.332 0.375 550.457 0.375C551.624 0.375 552.67 0.661458 553.598 1.23438C554.535 1.80729 555.285 2.57812 555.848 3.54688C556.42 4.50521 556.707 5.57292 556.707 6.75L556.738 16.8906C556.738 18.0573 556.457 19.125 555.894 20.0938C555.321 21.0729 554.561 21.8542 553.613 22.4375C552.665 23.0208 551.613 23.3125 550.457 23.3125ZM550.457 19.4531C551.103 19.4531 551.665 19.1927 552.144 18.6719C552.624 18.1406 552.863 17.5469 552.863 16.8906L552.832 6.75C552.832 6.04167 552.608 5.44271 552.16 4.95312C551.712 4.46354 551.144 4.21875 550.457 4.21875C549.801 4.21875 549.238 4.45833 548.769 4.9375C548.301 5.41667 548.066 6.02083 548.066 6.75V16.8906C548.066 17.5885 548.301 18.1927 548.769 18.7031C549.238 19.2031 549.801 19.4531 550.457 19.4531ZM583.283 23.3125C582.127 23.3125 581.07 23.0208 580.111 22.4375C579.163 21.8542 578.408 21.0729 577.846 20.0938C577.293 19.1042 577.017 18.0052 577.017 16.7969L577.049 6.8125C577.049 5.625 577.32 4.55208 577.861 3.59375C578.403 2.625 579.148 1.84896 580.096 1.26562C581.054 0.671875 582.116 0.375 583.283 0.375C584.471 0.375 585.528 0.661458 586.455 1.23438C587.392 1.80729 588.137 2.58333 588.689 3.5625C589.252 4.53125 589.533 5.61458 589.533 6.8125V8.28125C589.533 8.36458 589.491 8.40625 589.408 8.40625H585.814C585.731 8.40625 585.689 8.36458 585.689 8.28125V6.8125C585.689 6.10417 585.46 5.49479 585.002 4.98438C584.543 4.47396 583.971 4.21875 583.283 4.21875C582.523 4.21875 581.939 4.47917 581.533 5C581.127 5.52083 580.924 6.125 580.924 6.8125V16.7969C580.924 17.5781 581.153 18.2188 581.611 18.7188C582.07 19.2083 582.627 19.4531 583.283 19.4531C583.971 19.4531 584.543 19.1823 585.002 18.6406C585.46 18.0885 585.689 17.474 585.689 16.7969V15.3125C585.689 15.2292 585.731 15.1875 585.814 15.1875H589.439C589.523 15.1875 589.564 15.2292 589.564 15.3125V16.7969C589.564 17.9948 589.283 19.0885 588.721 20.0781C588.148 21.0573 587.392 21.8438 586.455 22.4375C585.517 23.0208 584.46 23.3125 583.283 23.3125ZM600.603 23H596.978C596.894 23 596.853 22.9479 596.853 22.8438L596.915 0.859375C596.915 0.776042 596.957 0.734375 597.04 0.734375H603.509C604.665 0.734375 605.728 1.01562 606.696 1.57812C607.665 2.14062 608.436 2.89583 609.009 3.84375C609.592 4.79167 609.884 5.86458 609.884 7.0625C609.884 7.84375 609.764 8.55208 609.524 9.1875C609.285 9.82292 609.004 10.3594 608.681 10.7969C608.368 11.2344 608.082 11.5573 607.821 11.7656C608.978 13.0469 609.556 14.5521 609.556 16.2812L609.587 22.8438C609.587 22.9479 609.535 23 609.431 23H605.806C605.722 23 605.681 22.9688 605.681 22.9062V16.2812C605.681 15.5104 605.41 14.8438 604.868 14.2812C604.326 13.7188 603.66 13.4375 602.868 13.4375H600.759L600.728 22.8438C600.728 22.9479 600.686 23 600.603 23ZM603.509 4.5625H600.759V9.59375H603.509C604.165 9.59375 604.748 9.34896 605.259 8.85938C605.78 8.36979 606.04 7.77083 606.04 7.0625C606.04 6.38542 605.79 5.80208 605.29 5.3125C604.79 4.8125 604.196 4.5625 603.509 4.5625ZM627.719 23H617.375C617.292 23 617.25 22.9479 617.25 22.8438L617.281 0.859375C617.281 0.776042 617.323 0.734375 617.406 0.734375H627.688C627.771 0.734375 627.812 0.786458 627.812 0.890625V4.46875C627.812 4.55208 627.771 4.59375 627.688 4.59375H621.125V9.59375H627.688C627.771 9.59375 627.812 9.63542 627.812 9.71875L627.844 13.3438C627.844 13.4271 627.802 13.4688 627.719 13.4688H621.125V19.0625H627.719C627.802 19.0625 627.844 19.1146 627.844 19.2188V22.875C627.844 22.9583 627.802 23 627.719 23ZM634.569 22.8438L638.538 0.859375C638.559 0.776042 638.611 0.734375 638.694 0.734375H643.335C643.418 0.734375 643.47 0.776042 643.491 0.859375L647.304 22.8438C647.314 22.9479 647.272 23 647.179 23H643.632C643.528 23 643.47 22.9479 643.46 22.8438L643.116 20.5H638.757L638.413 22.8438C638.403 22.9479 638.351 23 638.257 23H634.694C634.611 23 634.569 22.9479 634.569 22.8438ZM640.835 8.09375L639.397 17.0781H642.476L641.163 8.09375L640.976 6.90625L640.835 8.09375ZM659.154 23H655.545C655.451 23 655.404 22.9479 655.404 22.8438V4.59375H651.248C651.144 4.59375 651.092 4.54167 651.092 4.4375L651.123 0.859375C651.123 0.776042 651.165 0.734375 651.248 0.734375H663.404C663.519 0.734375 663.576 0.776042 663.576 0.859375V4.4375C663.576 4.54167 663.535 4.59375 663.451 4.59375H659.248L659.279 22.8438C659.279 22.9479 659.238 23 659.154 23ZM680.568 23H670.224C670.14 23 670.099 22.9479 670.099 22.8438L670.13 0.859375C670.13 0.776042 670.172 0.734375 670.255 0.734375H680.536C680.62 0.734375 680.661 0.786458 680.661 0.890625V4.46875C680.661 4.55208 680.62 4.59375 680.536 4.59375H673.974V9.59375H680.536C680.62 9.59375 680.661 9.63542 680.661 9.71875L680.693 13.3438C680.693 13.4271 680.651 13.4688 680.568 13.4688H673.974V19.0625H680.568C680.651 19.0625 680.693 19.1146 680.693 19.2188V22.875C680.693 22.9583 680.651 23 680.568 23ZM707.659 22.9688L701.925 23C701.821 23 701.769 22.9479 701.769 22.8438L701.831 0.859375C701.831 0.776042 701.873 0.734375 701.956 0.734375L707.941 0.703125C709.128 0.671875 710.201 0.942708 711.159 1.51562C712.128 2.08854 712.899 2.86458 713.472 3.84375C714.055 4.8125 714.347 5.88542 714.347 7.0625V16.25C714.347 17.4792 714.05 18.6042 713.456 19.625C712.852 20.6354 712.05 21.4427 711.05 22.0469C710.05 22.6406 708.92 22.9479 707.659 22.9688ZM707.941 4.53125L705.706 4.5625L705.675 19.0625H707.659C708.451 19.0625 709.118 18.7865 709.659 18.2344C710.201 17.6823 710.472 17.0208 710.472 16.25V7.03125C710.472 6.35417 710.222 5.76562 709.722 5.26562C709.222 4.75521 708.628 4.51042 707.941 4.53125ZM732.291 23H721.948C721.864 23 721.823 22.9479 721.823 22.8438L721.854 0.859375C721.854 0.776042 721.895 0.734375 721.979 0.734375H732.26C732.343 0.734375 732.385 0.786458 732.385 0.890625V4.46875C732.385 4.55208 732.343 4.59375 732.26 4.59375H725.698V9.59375H732.26C732.343 9.59375 732.385 9.63542 732.385 9.71875L732.416 13.3438C732.416 13.4271 732.375 13.4688 732.291 13.4688H725.698V19.0625H732.291C732.375 19.0625 732.416 19.1146 732.416 19.2188V22.875C732.416 22.9583 732.375 23 732.291 23ZM745.657 23.3125C744.522 23.3125 743.475 23.0208 742.517 22.4375C741.569 21.8542 740.809 21.0781 740.236 20.1094C739.673 19.1302 739.392 18.0573 739.392 16.8906V15.4219C739.392 15.3073 739.444 15.25 739.548 15.25H743.142C743.225 15.25 743.267 15.3073 743.267 15.4219V16.8906C743.267 17.5885 743.501 18.1927 743.97 18.7031C744.439 19.2031 745.001 19.4531 745.657 19.4531C746.324 19.4531 746.892 19.1979 747.361 18.6875C747.829 18.1667 748.064 17.5677 748.064 16.8906C748.064 16.1094 747.553 15.4271 746.532 14.8438C746.366 14.7396 746.147 14.6146 745.876 14.4688C745.616 14.3125 745.303 14.1354 744.939 13.9375C744.574 13.7396 744.22 13.5469 743.876 13.3594C743.532 13.1615 743.199 12.974 742.876 12.7969C741.71 12.1094 740.84 11.25 740.267 10.2188C739.704 9.17708 739.423 8.01042 739.423 6.71875C739.423 5.53125 739.715 4.45833 740.298 3.5C740.881 2.55208 741.642 1.80208 742.579 1.25C743.527 0.6875 744.553 0.40625 745.657 0.40625C746.793 0.40625 747.835 0.6875 748.782 1.25C749.73 1.82292 750.486 2.58333 751.048 3.53125C751.621 4.47917 751.907 5.54167 751.907 6.71875V9.34375C751.907 9.42708 751.866 9.46875 751.782 9.46875H748.189C748.105 9.46875 748.064 9.42708 748.064 9.34375L748.032 6.71875C748.032 5.96875 747.798 5.35938 747.329 4.89062C746.861 4.42188 746.303 4.1875 745.657 4.1875C745.001 4.1875 744.439 4.4375 743.97 4.9375C743.501 5.4375 743.267 6.03125 743.267 6.71875C743.267 7.41667 743.413 8 743.704 8.46875C744.006 8.9375 744.553 9.38542 745.345 9.8125C745.428 9.85417 745.621 9.95833 745.923 10.125C746.225 10.2917 746.559 10.4792 746.923 10.6875C747.298 10.8854 747.637 11.0677 747.939 11.2344C748.241 11.3906 748.423 11.4844 748.486 11.5156C749.548 12.1094 750.387 12.8385 751.001 13.7031C751.626 14.5677 751.939 15.6302 751.939 16.8906C751.939 18.1094 751.657 19.2031 751.095 20.1719C750.522 21.1406 749.762 21.9062 748.814 22.4688C747.866 23.0312 746.814 23.3125 745.657 23.3125ZM762.899 23H759.274C759.17 23 759.118 22.9479 759.118 22.8438L759.149 0.859375C759.149 0.776042 759.19 0.734375 759.274 0.734375H762.868C762.951 0.734375 762.993 0.776042 762.993 0.859375L763.024 22.8438C763.024 22.9479 762.982 23 762.899 23ZM776.656 23.3125C775.499 23.3125 774.458 23.026 773.531 22.4531C772.593 21.8802 771.838 21.1094 771.265 20.1406C770.703 19.1719 770.421 18.0885 770.421 16.8906V6.75C770.421 5.58333 770.708 4.52083 771.281 3.5625C771.843 2.59375 772.598 1.82292 773.546 1.25C774.494 0.666667 775.531 0.375 776.656 0.375C777.833 0.375 778.895 0.65625 779.843 1.21875C780.791 1.79167 781.541 2.55729 782.093 3.51562C782.656 4.47396 782.937 5.55208 782.937 6.75V8.21875C782.937 8.30208 782.885 8.34375 782.781 8.34375H779.187C779.104 8.34375 779.062 8.30208 779.062 8.21875V7C779.062 6.1875 778.833 5.51562 778.374 4.98438C777.916 4.45312 777.343 4.1875 776.656 4.1875C776.041 4.1875 775.494 4.44271 775.015 4.95312C774.536 5.46354 774.296 6.0625 774.296 6.75V16.8906C774.296 17.5885 774.531 18.1927 774.999 18.7031C775.468 19.2031 776.02 19.4531 776.656 19.4531C777.343 19.4531 777.916 19.2083 778.374 18.7188C778.833 18.2188 779.062 17.6094 779.062 16.8906V15.3125H776.828C776.713 15.3125 776.656 15.2604 776.656 15.1562V11.5781C776.656 11.474 776.713 11.4219 776.828 11.4219H782.812C782.895 11.4219 782.937 11.474 782.937 11.5781V16.8906C782.937 18.0885 782.656 19.1719 782.093 20.1406C781.52 21.1094 780.765 21.8802 779.828 22.4531C778.89 23.026 777.833 23.3125 776.656 23.3125ZM793.647 23H790.444C790.277 23 790.194 22.9271 790.194 22.7812L790.162 0.984375C790.162 0.817708 790.246 0.734375 790.412 0.734375H793.303L798.709 13.3438L798.553 0.984375C798.553 0.817708 798.647 0.734375 798.834 0.734375H802.006C802.131 0.734375 802.194 0.817708 802.194 0.984375L802.225 22.8125C802.225 22.9375 802.173 23 802.069 23H799.256L793.709 11.2188L793.944 22.75C793.944 22.9167 793.845 23 793.647 23ZM815.404 23.3125C814.268 23.3125 813.222 23.0208 812.263 22.4375C811.315 21.8542 810.555 21.0781 809.982 20.1094C809.419 19.1302 809.138 18.0573 809.138 16.8906V15.4219C809.138 15.3073 809.19 15.25 809.294 15.25H812.888C812.972 15.25 813.013 15.3073 813.013 15.4219V16.8906C813.013 17.5885 813.248 18.1927 813.716 18.7031C814.185 19.2031 814.748 19.4531 815.404 19.4531C816.07 19.4531 816.638 19.1979 817.107 18.6875C817.576 18.1667 817.81 17.5677 817.81 16.8906C817.81 16.1094 817.3 15.4271 816.279 14.8438C816.112 14.7396 815.893 14.6146 815.623 14.4688C815.362 14.3125 815.05 14.1354 814.685 13.9375C814.32 13.7396 813.966 13.5469 813.623 13.3594C813.279 13.1615 812.945 12.974 812.623 12.7969C811.456 12.1094 810.586 11.25 810.013 10.2188C809.451 9.17708 809.169 8.01042 809.169 6.71875C809.169 5.53125 809.461 4.45833 810.044 3.5C810.628 2.55208 811.388 1.80208 812.326 1.25C813.274 0.6875 814.3 0.40625 815.404 0.40625C816.539 0.40625 817.581 0.6875 818.529 1.25C819.477 1.82292 820.232 2.58333 820.794 3.53125C821.367 4.47917 821.654 5.54167 821.654 6.71875V9.34375C821.654 9.42708 821.612 9.46875 821.529 9.46875H817.935C817.852 9.46875 817.81 9.42708 817.81 9.34375L817.779 6.71875C817.779 5.96875 817.544 5.35938 817.076 4.89062C816.607 4.42188 816.05 4.1875 815.404 4.1875C814.748 4.1875 814.185 4.4375 813.716 4.9375C813.248 5.4375 813.013 6.03125 813.013 6.71875C813.013 7.41667 813.159 8 813.451 8.46875C813.753 8.9375 814.3 9.38542 815.091 9.8125C815.175 9.85417 815.367 9.95833 815.669 10.125C815.972 10.2917 816.305 10.4792 816.669 10.6875C817.044 10.8854 817.383 11.0677 817.685 11.2344C817.987 11.3906 818.169 11.4844 818.232 11.5156C819.294 12.1094 820.133 12.8385 820.748 13.7031C821.373 14.5677 821.685 15.6302 821.685 16.8906C821.685 18.1094 821.404 19.2031 820.841 20.1719C820.268 21.1406 819.508 21.9062 818.56 22.4688C817.612 23.0312 816.56 23.3125 815.404 23.3125ZM37.6624 62H34.9553C34.885 62 34.8499 61.9609 34.8499 61.8828V48.1953H31.7327C31.6545 48.1953 31.6155 48.1562 31.6155 48.0781L31.6389 45.3945C31.6389 45.332 31.6702 45.3008 31.7327 45.3008H40.8499C40.9358 45.3008 40.9788 45.332 40.9788 45.3945V48.0781C40.9788 48.1562 40.9475 48.1953 40.885 48.1953H37.7327L37.7561 61.8828C37.7561 61.9609 37.7249 62 37.6624 62ZM48.6831 62H45.9644C45.9019 62 45.8706 61.9609 45.8706 61.8828L45.8941 45.3945C45.8941 45.332 45.9331 45.3008 46.0113 45.3008H48.6831C48.7613 45.3008 48.8003 45.332 48.8003 45.3945L48.7769 51.9219H52.3745V45.3945C52.3745 45.332 52.4058 45.3008 52.4683 45.3008H55.1402C55.2183 45.3008 55.2574 45.332 55.2574 45.3945L55.3042 61.8828C55.3042 61.9609 55.2652 62 55.187 62H52.4917C52.4136 62 52.3745 61.9609 52.3745 61.8828V54.8281H48.7769V61.8828C48.7769 61.9609 48.7456 62 48.6831 62ZM60.1727 61.8828L63.1492 45.3945C63.1649 45.332 63.2039 45.3008 63.2664 45.3008H66.7469C66.8094 45.3008 66.8484 45.332 66.8641 45.3945L69.7234 61.8828C69.7313 61.9609 69.7 62 69.6297 62H66.9695C66.8914 62 66.8484 61.9609 66.8406 61.8828L66.5828 60.125H63.3133L63.0555 61.8828C63.0477 61.9609 63.0086 62 62.9383 62H60.2664C60.2039 62 60.1727 61.9609 60.1727 61.8828ZM64.8719 50.8203L63.7938 57.5586H66.1024L65.118 50.8203L64.9774 49.9297L64.8719 50.8203ZM78.6114 62H75.9044C75.8341 62 75.7989 61.9609 75.7989 61.8828V48.1953H72.6817C72.6036 48.1953 72.5645 48.1562 72.5645 48.0781L72.588 45.3945C72.588 45.332 72.6192 45.3008 72.6817 45.3008H81.7989C81.8849 45.3008 81.9278 45.332 81.9278 45.3945V48.0781C81.9278 48.1562 81.8966 48.1953 81.8341 48.1953H78.6817L78.7052 61.8828C78.7052 61.9609 78.6739 62 78.6114 62ZM99.3874 62H96.985C96.86 62 96.7975 61.9453 96.7975 61.8359L96.7741 45.4883C96.7741 45.3633 96.8366 45.3008 96.9616 45.3008H99.1295L103.184 54.7578L103.067 45.4883C103.067 45.3633 103.137 45.3008 103.278 45.3008H105.657C105.751 45.3008 105.798 45.3633 105.798 45.4883L105.821 61.8594C105.821 61.9531 105.782 62 105.704 62H103.594L99.4342 53.1641L99.61 61.8125C99.61 61.9375 99.5358 62 99.3874 62ZM116.068 62.2344C115.217 62.2344 114.432 62.0156 113.713 61.5781C113.002 61.1406 112.428 60.5586 111.99 59.832C111.56 59.0977 111.346 58.293 111.346 57.418L111.369 49.8125C111.369 48.9219 111.584 48.1211 112.014 47.4102C112.435 46.6914 113.006 46.1172 113.725 45.6875C114.443 45.25 115.225 45.0312 116.068 45.0312C116.943 45.0312 117.728 45.2461 118.424 45.6758C119.127 46.1055 119.689 46.6836 120.111 47.4102C120.541 48.1289 120.756 48.9297 120.756 49.8125L120.779 57.418C120.779 58.293 120.568 59.0938 120.146 59.8203C119.717 60.5547 119.146 61.1406 118.435 61.5781C117.725 62.0156 116.935 62.2344 116.068 62.2344ZM116.068 59.3398C116.553 59.3398 116.975 59.1445 117.334 58.7539C117.693 58.3555 117.873 57.9102 117.873 57.418L117.85 49.8125C117.85 49.2812 117.682 48.832 117.346 48.4648C117.01 48.0977 116.584 47.9141 116.068 47.9141C115.576 47.9141 115.154 48.0938 114.803 48.4531C114.451 48.8125 114.275 49.2656 114.275 49.8125V57.418C114.275 57.9414 114.451 58.3945 114.803 58.7773C115.154 59.1523 115.576 59.3398 116.068 59.3398ZM130.945 62H128.238C128.167 62 128.132 61.9609 128.132 61.8828V48.1953H125.015C124.937 48.1953 124.898 48.1562 124.898 48.0781L124.921 45.3945C124.921 45.332 124.952 45.3008 125.015 45.3008H134.132C134.218 45.3008 134.261 45.332 134.261 45.3945V48.0781C134.261 48.1562 134.23 48.1953 134.167 48.1953H131.015L131.038 61.8828C131.038 61.9609 131.007 62 130.945 62ZM153.549 62.2344C152.697 62.2344 151.912 62.0156 151.193 61.5781C150.482 61.1406 149.908 60.5586 149.47 59.832C149.041 59.0977 148.826 58.293 148.826 57.418L148.849 49.8125C148.849 48.9219 149.064 48.1211 149.494 47.4102C149.916 46.6914 150.486 46.1172 151.205 45.6875C151.924 45.25 152.705 45.0312 153.549 45.0312C154.424 45.0312 155.209 45.2461 155.904 45.6758C156.607 46.1055 157.17 46.6836 157.592 47.4102C158.021 48.1289 158.236 48.9297 158.236 49.8125L158.26 57.418C158.26 58.293 158.049 59.0938 157.627 59.8203C157.197 60.5547 156.627 61.1406 155.916 61.5781C155.205 62.0156 154.416 62.2344 153.549 62.2344ZM153.549 59.3398C154.033 59.3398 154.455 59.1445 154.814 58.7539C155.174 58.3555 155.353 57.9102 155.353 57.418L155.33 49.8125C155.33 49.2812 155.162 48.832 154.826 48.4648C154.49 48.0977 154.064 47.9141 153.549 47.9141C153.056 47.9141 152.635 48.0938 152.283 48.4531C151.931 48.8125 151.756 49.2656 151.756 49.8125V57.418C151.756 57.9414 151.931 58.3945 152.283 58.7773C152.635 59.1523 153.056 59.3398 153.549 59.3398ZM166.409 62H164.007C163.882 62 163.819 61.9453 163.819 61.8359L163.796 45.4883C163.796 45.3633 163.858 45.3008 163.983 45.3008H166.151L170.206 54.7578L170.089 45.4883C170.089 45.3633 170.159 45.3008 170.3 45.3008H172.679C172.773 45.3008 172.819 45.3633 172.819 45.4883L172.843 61.8594C172.843 61.9531 172.804 62 172.726 62H170.616L166.456 53.1641L166.632 61.8125C166.632 61.9375 166.558 62 166.409 62ZM186.5 62H178.743C178.68 62 178.649 61.9609 178.649 61.8828L178.672 45.418C178.672 45.3398 178.711 45.3008 178.789 45.3008H181.461C181.539 45.3008 181.578 45.3398 181.578 45.418L181.555 59.0469H186.5C186.578 59.0469 186.618 59.0859 186.618 59.1641V61.8828C186.618 61.9609 186.578 62 186.5 62ZM195.459 62H192.705C192.65 62 192.623 61.9688 192.623 61.9062L192.646 55.0859L189.435 45.3945C189.42 45.332 189.443 45.3008 189.505 45.3008H192.177C192.255 45.3008 192.302 45.332 192.318 45.3945L194.088 51.8516L195.892 45.3945C195.908 45.332 195.947 45.3008 196.009 45.3008H198.705C198.767 45.3008 198.791 45.332 198.775 45.3945L195.529 54.9922L195.552 61.9062C195.552 61.9688 195.521 62 195.459 62ZM218.18 62.2344C217.313 62.2344 216.52 62.0156 215.801 61.5781C215.09 61.1406 214.524 60.5547 214.102 59.8203C213.688 59.0781 213.481 58.2539 213.481 57.3477L213.504 49.8594C213.504 48.9688 213.707 48.1641 214.113 47.4453C214.52 46.7188 215.078 46.1367 215.789 45.6992C216.508 45.2539 217.305 45.0312 218.18 45.0312C219.07 45.0312 219.863 45.2461 220.559 45.6758C221.262 46.1055 221.82 46.6875 222.235 47.4219C222.656 48.1484 222.867 48.9609 222.867 49.8594V50.9609C222.867 51.0234 222.836 51.0547 222.774 51.0547H220.078C220.016 51.0547 219.985 51.0234 219.985 50.9609V49.8594C219.985 49.3281 219.813 48.8711 219.469 48.4883C219.125 48.1055 218.695 47.9141 218.18 47.9141C217.61 47.9141 217.172 48.1094 216.867 48.5C216.563 48.8906 216.41 49.3438 216.41 49.8594V57.3477C216.41 57.9336 216.582 58.4141 216.926 58.7891C217.27 59.1562 217.688 59.3398 218.18 59.3398C218.695 59.3398 219.125 59.1367 219.469 58.7305C219.813 58.3164 219.985 57.8555 219.985 57.3477V56.2344C219.985 56.1719 220.016 56.1406 220.078 56.1406H222.797C222.86 56.1406 222.891 56.1719 222.891 56.2344V57.3477C222.891 58.2461 222.68 59.0664 222.258 59.8086C221.828 60.543 221.262 61.1328 220.559 61.5781C219.856 62.0156 219.063 62.2344 218.18 62.2344ZM231.169 62H228.451C228.388 62 228.357 61.9609 228.357 61.8828L228.404 45.3945C228.404 45.332 228.435 45.3008 228.498 45.3008H233.349C234.216 45.3008 235.013 45.5117 235.74 45.9336C236.466 46.3555 237.044 46.9219 237.474 47.6328C237.912 48.3438 238.13 49.1484 238.13 50.0469C238.13 50.6328 238.04 51.1641 237.861 51.6406C237.681 52.1172 237.47 52.5195 237.228 52.8477C236.994 53.1758 236.779 53.418 236.583 53.5742C237.451 54.5352 237.884 55.6641 237.884 56.9609L237.908 61.8828C237.908 61.9609 237.869 62 237.79 62H235.072C235.009 62 234.978 61.9766 234.978 61.9297V56.9609C234.978 56.3828 234.775 55.8828 234.369 55.4609C233.962 55.0391 233.462 54.8281 232.869 54.8281H231.287L231.263 61.8828C231.263 61.9609 231.232 62 231.169 62ZM233.349 48.1719H231.287V51.9453H233.349C233.841 51.9453 234.279 51.7617 234.662 51.3945C235.052 51.0273 235.248 50.5781 235.248 50.0469C235.248 49.5391 235.06 49.1016 234.685 48.7344C234.31 48.3594 233.865 48.1719 233.349 48.1719ZM251.507 62H243.749C243.686 62 243.655 61.9609 243.655 61.8828L243.678 45.3945C243.678 45.332 243.71 45.3008 243.772 45.3008H251.483C251.546 45.3008 251.577 45.3398 251.577 45.418V48.1016C251.577 48.1641 251.546 48.1953 251.483 48.1953H246.561V51.9453H251.483C251.546 51.9453 251.577 51.9766 251.577 52.0391L251.6 54.7578C251.6 54.8203 251.569 54.8516 251.507 54.8516H246.561V59.0469H251.507C251.569 59.0469 251.6 59.0859 251.6 59.1641V61.9062C251.6 61.9688 251.569 62 251.507 62ZM256.645 61.8828L259.621 45.3945C259.637 45.332 259.676 45.3008 259.738 45.3008H263.219C263.281 45.3008 263.32 45.332 263.336 45.3945L266.195 61.8828C266.203 61.9609 266.172 62 266.102 62H263.441C263.363 62 263.32 61.9609 263.312 61.8828L263.055 60.125H259.785L259.527 61.8828C259.52 61.9609 259.48 62 259.41 62H256.738C256.676 62 256.645 61.9609 256.645 61.8828ZM261.344 50.8203L260.266 57.5586H262.574L261.59 50.8203L261.449 49.9297L261.344 50.8203ZM275.083 62H272.376C272.306 62 272.271 61.9609 272.271 61.8828V48.1953H269.154C269.076 48.1953 269.036 48.1562 269.036 48.0781L269.06 45.3945C269.06 45.332 269.091 45.3008 269.154 45.3008H278.271C278.357 45.3008 278.4 45.332 278.4 45.3945V48.0781C278.4 48.1562 278.368 48.1953 278.306 48.1953H275.154L275.177 61.8828C275.177 61.9609 275.146 62 275.083 62ZM286.128 62H283.409C283.331 62 283.292 61.9609 283.292 61.8828L283.315 45.3945C283.315 45.332 283.346 45.3008 283.409 45.3008H286.104C286.167 45.3008 286.198 45.332 286.198 45.3945L286.221 61.8828C286.221 61.9609 286.19 62 286.128 62ZM297.652 62H294.746C294.676 62 294.637 61.9609 294.629 61.8828L291.312 45.3945C291.297 45.332 291.328 45.3008 291.406 45.3008H294.125C294.187 45.3008 294.226 45.332 294.242 45.3945L296.211 56.3867L298.133 45.3945C298.148 45.332 298.187 45.3008 298.25 45.3008H300.933C301.019 45.3008 301.051 45.332 301.027 45.3945L297.769 61.8828C297.762 61.9609 297.723 62 297.652 62ZM314.005 62H306.247C306.185 62 306.153 61.9609 306.153 61.8828L306.177 45.3945C306.177 45.332 306.208 45.3008 306.271 45.3008H313.982C314.044 45.3008 314.075 45.3398 314.075 45.418V48.1016C314.075 48.1641 314.044 48.1953 313.982 48.1953H309.06V51.9453H313.982C314.044 51.9453 314.075 51.9766 314.075 52.0391L314.099 54.7578C314.099 54.8203 314.068 54.8516 314.005 54.8516H309.06V59.0469H314.005C314.068 59.0469 314.099 59.0859 314.099 59.1641V61.9062C314.099 61.9688 314.068 62 314.005 62ZM319.952 65.0234V63.5352C320.35 63.5352 320.69 63.3828 320.971 63.0781C321.252 62.7734 321.393 62.4141 321.393 62H320.045C319.983 62 319.952 61.9688 319.952 61.9062V59.2109C319.952 59.1484 319.983 59.1172 320.045 59.1172H322.764C322.827 59.1172 322.858 59.1484 322.858 59.2109V62C322.858 62.5625 322.721 63.0742 322.448 63.5352C322.174 63.9961 321.819 64.3594 321.381 64.625C320.944 64.8906 320.467 65.0234 319.952 65.0234ZM342.895 62H338.595C338.532 62 338.501 61.9609 338.501 61.8828L338.548 45.3945C338.548 45.332 338.579 45.3008 338.642 45.3008H343.259C344.157 45.3008 344.974 45.5195 345.708 45.957C346.427 46.3945 346.993 46.9766 347.407 47.7031C347.821 48.4219 348.028 49.2031 348.028 50.0469C348.028 50.7344 347.872 51.375 347.56 51.9688C347.247 52.5625 346.876 53.043 346.446 53.4102C346.907 53.8711 347.267 54.4062 347.524 55.0156C347.782 55.625 347.911 56.2656 347.911 56.9375C347.911 57.8672 347.688 58.7148 347.243 59.4805C346.79 60.2461 346.185 60.8594 345.427 61.3203C344.669 61.7734 343.825 62 342.895 62ZM343.259 48.1484H341.431V51.9219H343.259C343.813 51.9219 344.263 51.7266 344.606 51.3359C344.95 50.9375 345.122 50.5078 345.122 50.0469C345.122 49.5391 344.938 49.0977 344.571 48.7227C344.204 48.3398 343.767 48.1484 343.259 48.1484ZM342.895 54.8281H341.431L341.407 59.0703H342.895C343.474 59.0703 343.97 58.8594 344.384 58.4375C344.798 58.0156 345.005 57.5156 345.005 56.9375C345.005 56.3594 344.798 55.8633 344.384 55.4492C343.97 55.0352 343.474 54.8281 342.895 54.8281ZM357.772 62.2344C356.928 62.2344 356.147 62.0156 355.428 61.5781C354.709 61.1406 354.135 60.5547 353.705 59.8203C353.283 59.0781 353.073 58.2695 353.073 57.3945L353.119 45.3945C353.119 45.332 353.151 45.3008 353.213 45.3008H355.908C355.971 45.3008 356.002 45.332 356.002 45.3945V57.3945C356.002 57.9336 356.174 58.3945 356.518 58.7773C356.862 59.1523 357.28 59.3398 357.772 59.3398C358.287 59.3398 358.717 59.1523 359.061 58.7773C359.405 58.3945 359.576 57.9336 359.576 57.3945V45.3945C359.576 45.332 359.608 45.3008 359.67 45.3008H362.365C362.428 45.3008 362.459 45.332 362.459 45.3945L362.506 57.3945C362.506 58.2773 362.295 59.0898 361.873 59.832C361.444 60.5664 360.873 61.1523 360.162 61.5898C359.451 62.0195 358.655 62.2344 357.772 62.2344ZM373.234 62H370.527C370.457 62 370.421 61.9609 370.421 61.8828V48.1953H367.304C367.226 48.1953 367.187 48.1562 367.187 48.0781L367.21 45.3945C367.21 45.332 367.242 45.3008 367.304 45.3008H376.421C376.507 45.3008 376.55 45.332 376.55 45.3945V48.0781C376.55 48.1562 376.519 48.1953 376.457 48.1953H373.304L373.328 61.8828C373.328 61.9609 373.296 62 373.234 62ZM390.588 61.8828L393.565 45.3945C393.58 45.332 393.619 45.3008 393.682 45.3008H397.162C397.225 45.3008 397.264 45.332 397.279 45.3945L400.139 61.8828C400.147 61.9609 400.115 62 400.045 62H397.385C397.307 62 397.264 61.9609 397.256 61.8828L396.998 60.125H393.729L393.471 61.8828C393.463 61.9609 393.424 62 393.354 62H390.682C390.619 62 390.588 61.9609 390.588 61.8828ZM395.287 50.8203L394.209 57.5586H396.518L395.533 50.8203L395.393 49.9297L395.287 50.8203ZM413.21 62H405.453C405.39 62 405.359 61.9609 405.359 61.8828L405.382 45.418C405.382 45.3398 405.421 45.3008 405.499 45.3008H408.171C408.249 45.3008 408.288 45.3398 408.288 45.418L408.265 59.0469H413.21C413.288 59.0469 413.328 59.0859 413.328 59.1641V61.8828C413.328 61.9609 413.288 62 413.21 62ZM422.696 62.2344C421.844 62.2344 421.059 62.0156 420.34 61.5781C419.63 61.1406 419.059 60.5586 418.63 59.832C418.208 59.0977 417.997 58.293 417.997 57.418V56.3164C417.997 56.2305 418.036 56.1875 418.114 56.1875H420.809C420.872 56.1875 420.903 56.2305 420.903 56.3164V57.418C420.903 57.9414 421.079 58.3945 421.43 58.7773C421.782 59.1523 422.204 59.3398 422.696 59.3398C423.196 59.3398 423.622 59.1484 423.973 58.7656C424.325 58.375 424.501 57.9258 424.501 57.418C424.501 56.832 424.118 56.3203 423.352 55.8828C423.227 55.8047 423.063 55.7109 422.86 55.6016C422.665 55.4844 422.43 55.3516 422.157 55.2031C421.883 55.0547 421.618 54.9102 421.36 54.7695C421.102 54.6211 420.852 54.4805 420.61 54.3477C419.735 53.832 419.083 53.1875 418.653 52.4141C418.231 51.6328 418.02 50.7578 418.02 49.7891C418.02 48.8984 418.239 48.0938 418.676 47.375C419.114 46.6641 419.684 46.1016 420.387 45.6875C421.098 45.2656 421.868 45.0547 422.696 45.0547C423.548 45.0547 424.329 45.2656 425.04 45.6875C425.751 46.1172 426.317 46.6875 426.739 47.3984C427.169 48.1094 427.383 48.9062 427.383 49.7891V51.7578C427.383 51.8203 427.352 51.8516 427.29 51.8516H424.594C424.532 51.8516 424.501 51.8203 424.501 51.7578L424.477 49.7891C424.477 49.2266 424.301 48.7695 423.95 48.418C423.598 48.0664 423.18 47.8906 422.696 47.8906C422.204 47.8906 421.782 48.0781 421.43 48.4531C421.079 48.8281 420.903 49.2734 420.903 49.7891C420.903 50.3125 421.012 50.75 421.231 51.1016C421.458 51.4531 421.868 51.7891 422.462 52.1094C422.524 52.1406 422.669 52.2188 422.895 52.3438C423.122 52.4688 423.372 52.6094 423.645 52.7656C423.926 52.9141 424.18 53.0508 424.407 53.1758C424.633 53.293 424.77 53.3633 424.817 53.3867C425.614 53.832 426.243 54.3789 426.704 55.0273C427.173 55.6758 427.407 56.4727 427.407 57.418C427.407 58.332 427.196 59.1523 426.774 59.8789C426.344 60.6055 425.774 61.1797 425.063 61.6016C424.352 62.0234 423.563 62.2344 422.696 62.2344ZM437.232 62.2344C436.381 62.2344 435.596 62.0156 434.877 61.5781C434.166 61.1406 433.592 60.5586 433.154 59.832C432.725 59.0977 432.51 58.293 432.51 57.418L432.533 49.8125C432.533 48.9219 432.748 48.1211 433.178 47.4102C433.6 46.6914 434.17 46.1172 434.889 45.6875C435.607 45.25 436.389 45.0312 437.232 45.0312C438.107 45.0312 438.893 45.2461 439.588 45.6758C440.291 46.1055 440.853 46.6836 441.275 47.4102C441.705 48.1289 441.92 48.9297 441.92 49.8125L441.943 57.418C441.943 58.293 441.732 59.0938 441.31 59.8203C440.881 60.5547 440.31 61.1406 439.6 61.5781C438.889 62.0156 438.1 62.2344 437.232 62.2344ZM437.232 59.3398C437.717 59.3398 438.139 59.1445 438.498 58.7539C438.857 58.3555 439.037 57.9102 439.037 57.418L439.014 49.8125C439.014 49.2812 438.846 48.832 438.51 48.4648C438.174 48.0977 437.748 47.9141 437.232 47.9141C436.74 47.9141 436.318 48.0938 435.967 48.4531C435.615 48.8125 435.439 49.2656 435.439 49.8125V57.418C435.439 57.9414 435.615 58.3945 435.967 58.7773C436.318 59.1523 436.74 59.3398 437.232 59.3398ZM460.247 62H457.528C457.465 62 457.434 61.9609 457.434 61.8828L457.458 45.3945C457.458 45.332 457.497 45.3008 457.575 45.3008H460.247C460.325 45.3008 460.364 45.332 460.364 45.3945L460.34 51.9219H463.938V45.3945C463.938 45.332 463.969 45.3008 464.032 45.3008H466.704C466.782 45.3008 466.821 45.332 466.821 45.3945L466.868 61.8828C466.868 61.9609 466.829 62 466.75 62H464.055C463.977 62 463.938 61.9609 463.938 61.8828V54.8281H460.34V61.8828C460.34 61.9609 460.309 62 460.247 62ZM480.396 62H472.638C472.576 62 472.545 61.9609 472.545 61.8828L472.568 45.3945C472.568 45.332 472.599 45.3008 472.662 45.3008H480.373C480.435 45.3008 480.467 45.3398 480.467 45.418V48.1016C480.467 48.1641 480.435 48.1953 480.373 48.1953H475.451V51.9453H480.373C480.435 51.9453 480.467 51.9766 480.467 52.0391L480.49 54.7578C480.49 54.8203 480.459 54.8516 480.396 54.8516H475.451V59.0469H480.396C480.459 59.0469 480.49 59.0859 480.49 59.1641V61.9062C480.49 61.9688 480.459 62 480.396 62ZM494.194 62H486.437C486.374 62 486.343 61.9609 486.343 61.8828L486.366 45.418C486.366 45.3398 486.405 45.3008 486.483 45.3008H489.155C489.233 45.3008 489.273 45.3398 489.273 45.418L489.249 59.0469H494.194C494.273 59.0469 494.312 59.0859 494.312 59.1641V61.8828C494.312 61.9609 494.273 62 494.194 62ZM502.414 62H499.719C499.641 62 499.602 61.9609 499.602 61.8828L499.649 45.3945C499.649 45.332 499.68 45.3008 499.743 45.3008H504.36C505.828 45.3008 506.989 45.75 507.84 46.6484C508.7 47.5391 509.129 48.7539 509.129 50.293C509.129 51.418 508.907 52.3984 508.461 53.2344C508.008 54.0625 507.422 54.7031 506.703 55.1562C505.985 55.6094 505.203 55.8359 504.36 55.8359H502.532V61.8828C502.532 61.9609 502.493 62 502.414 62ZM504.36 48.1484L502.532 48.1719V52.9297H504.36C504.868 52.9297 505.309 52.6875 505.684 52.2031C506.059 51.7109 506.246 51.0742 506.246 50.293C506.246 49.668 506.078 49.1562 505.743 48.7578C505.407 48.3516 504.946 48.1484 504.36 48.1484ZM528.663 62.2344C527.796 62.2344 527.003 62.0156 526.284 61.5781C525.573 61.1406 525.007 60.5547 524.585 59.8203C524.171 59.0781 523.964 58.2539 523.964 57.3477L523.987 49.8594C523.987 48.9688 524.19 48.1641 524.597 47.4453C525.003 46.7188 525.561 46.1367 526.272 45.6992C526.991 45.2539 527.788 45.0312 528.663 45.0312C529.554 45.0312 530.347 45.2461 531.042 45.6758C531.745 46.1055 532.304 46.6875 532.718 47.4219C533.14 48.1484 533.35 48.9609 533.35 49.8594V50.9609C533.35 51.0234 533.319 51.0547 533.257 51.0547H530.561C530.499 51.0547 530.468 51.0234 530.468 50.9609V49.8594C530.468 49.3281 530.296 48.8711 529.952 48.4883C529.608 48.1055 529.179 47.9141 528.663 47.9141C528.093 47.9141 527.655 48.1094 527.35 48.5C527.046 48.8906 526.893 49.3438 526.893 49.8594V57.3477C526.893 57.9336 527.065 58.4141 527.409 58.7891C527.753 59.1562 528.171 59.3398 528.663 59.3398C529.179 59.3398 529.608 59.1367 529.952 58.7305C530.296 58.3164 530.468 57.8555 530.468 57.3477V56.2344C530.468 56.1719 530.499 56.1406 530.561 56.1406H533.28C533.343 56.1406 533.374 56.1719 533.374 56.2344V57.3477C533.374 58.2461 533.163 59.0664 532.741 59.8086C532.311 60.543 531.745 61.1328 531.042 61.5781C530.339 62.0156 529.546 62.2344 528.663 62.2344ZM546.692 62H538.934C538.871 62 538.84 61.9609 538.84 61.8828L538.863 45.418C538.863 45.3398 538.902 45.3008 538.981 45.3008H541.652C541.731 45.3008 541.77 45.3398 541.77 45.418L541.746 59.0469H546.692C546.77 59.0469 546.809 59.0859 546.809 59.1641V61.8828C546.809 61.9609 546.77 62 546.692 62ZM554.935 62H552.216C552.138 62 552.099 61.9609 552.099 61.8828L552.122 45.3945C552.122 45.332 552.154 45.3008 552.216 45.3008H554.912C554.974 45.3008 555.005 45.332 555.005 45.3945L555.029 61.8828C555.029 61.9609 554.997 62 554.935 62ZM568.71 62H560.952C560.889 62 560.858 61.9609 560.858 61.8828L560.882 45.3945C560.882 45.332 560.913 45.3008 560.975 45.3008H568.686C568.749 45.3008 568.78 45.3398 568.78 45.418V48.1016C568.78 48.1641 568.749 48.1953 568.686 48.1953H563.764V51.9453H568.686C568.749 51.9453 568.78 51.9766 568.78 52.0391L568.803 54.7578C568.803 54.8203 568.772 54.8516 568.71 54.8516H563.764V59.0469H568.71C568.772 59.0469 568.803 59.0859 568.803 59.1641V61.9062C568.803 61.9688 568.772 62 568.71 62ZM577.27 62H574.867C574.742 62 574.68 61.9453 574.68 61.8359L574.656 45.4883C574.656 45.3633 574.719 45.3008 574.844 45.3008H577.012L581.066 54.7578L580.949 45.4883C580.949 45.3633 581.02 45.3008 581.16 45.3008H583.539C583.633 45.3008 583.68 45.3633 583.68 45.4883L583.703 61.8594C583.703 61.9531 583.664 62 583.586 62H581.477L577.316 53.1641L577.492 61.8125C577.492 61.9375 577.418 62 577.27 62ZM594.63 62H591.923C591.853 62 591.818 61.9609 591.818 61.8828V48.1953H588.701C588.622 48.1953 588.583 48.1562 588.583 48.0781L588.607 45.3945C588.607 45.332 588.638 45.3008 588.701 45.3008H597.818C597.904 45.3008 597.947 45.332 597.947 45.3945V48.0781C597.947 48.1562 597.915 48.1953 597.853 48.1953H594.701L594.724 61.8828C594.724 61.9609 594.693 62 594.63 62ZM606.917 62.2344C606.065 62.2344 605.28 62.0156 604.561 61.5781C603.85 61.1406 603.28 60.5586 602.85 59.832C602.428 59.0977 602.217 58.293 602.217 57.418V56.3164C602.217 56.2305 602.256 56.1875 602.335 56.1875H605.03C605.092 56.1875 605.124 56.2305 605.124 56.3164V57.418C605.124 57.9414 605.299 58.3945 605.651 58.7773C606.003 59.1523 606.424 59.3398 606.917 59.3398C607.417 59.3398 607.842 59.1484 608.194 58.7656C608.545 58.375 608.721 57.9258 608.721 57.418C608.721 56.832 608.338 56.3203 607.573 55.8828C607.448 55.8047 607.284 55.7109 607.081 55.6016C606.885 55.4844 606.651 55.3516 606.378 55.2031C606.104 55.0547 605.838 54.9102 605.581 54.7695C605.323 54.6211 605.073 54.4805 604.831 54.3477C603.956 53.832 603.303 53.1875 602.874 52.4141C602.452 51.6328 602.241 50.7578 602.241 49.7891C602.241 48.8984 602.46 48.0938 602.897 47.375C603.335 46.6641 603.905 46.1016 604.608 45.6875C605.319 45.2656 606.088 45.0547 606.917 45.0547C607.768 45.0547 608.549 45.2656 609.26 45.6875C609.971 46.1172 610.538 46.6875 610.96 47.3984C611.389 48.1094 611.604 48.9062 611.604 49.7891V51.7578C611.604 51.8203 611.573 51.8516 611.51 51.8516H608.815C608.753 51.8516 608.721 51.8203 608.721 51.7578L608.698 49.7891C608.698 49.2266 608.522 48.7695 608.17 48.418C607.819 48.0664 607.401 47.8906 606.917 47.8906C606.424 47.8906 606.003 48.0781 605.651 48.4531C605.299 48.8281 605.124 49.2734 605.124 49.7891C605.124 50.3125 605.233 50.75 605.452 51.1016C605.678 51.4531 606.088 51.7891 606.682 52.1094C606.745 52.1406 606.889 52.2188 607.116 52.3438C607.342 52.4688 607.592 52.6094 607.866 52.7656C608.147 52.9141 608.401 53.0508 608.628 53.1758C608.854 53.293 608.991 53.3633 609.038 53.3867C609.835 53.832 610.463 54.3789 610.924 55.0273C611.393 55.6758 611.628 56.4727 611.628 57.418C611.628 58.332 611.417 59.1523 610.995 59.8789C610.565 60.6055 609.995 61.1797 609.284 61.6016C608.573 62.0234 607.784 62.2344 606.917 62.2344ZM626.157 61.8828L629.134 45.3945C629.15 45.332 629.189 45.3008 629.251 45.3008H632.732C632.794 45.3008 632.833 45.332 632.849 45.3945L635.708 61.8828C635.716 61.9609 635.685 62 635.614 62H632.954C632.876 62 632.833 61.9609 632.825 61.8828L632.568 60.125H629.298L629.04 61.8828C629.032 61.9609 628.993 62 628.923 62H626.251C626.189 62 626.157 61.9609 626.157 61.8828ZM630.857 50.8203L629.778 57.5586H632.087L631.103 50.8203L630.962 49.9297L630.857 50.8203ZM644.854 62.2344C643.987 62.2344 643.194 62.0156 642.475 61.5781C641.764 61.1406 641.198 60.5547 640.776 59.8203C640.362 59.0781 640.155 58.2539 640.155 57.3477L640.178 49.8594C640.178 48.9688 640.381 48.1641 640.788 47.4453C641.194 46.7188 641.752 46.1367 642.463 45.6992C643.182 45.2539 643.979 45.0312 644.854 45.0312C645.745 45.0312 646.538 45.2461 647.233 45.6758C647.936 46.1055 648.495 46.6875 648.909 47.4219C649.331 48.1484 649.541 48.9609 649.541 49.8594V50.9609C649.541 51.0234 649.51 51.0547 649.448 51.0547H646.752C646.69 51.0547 646.659 51.0234 646.659 50.9609V49.8594C646.659 49.3281 646.487 48.8711 646.143 48.4883C645.799 48.1055 645.37 47.9141 644.854 47.9141C644.284 47.9141 643.846 48.1094 643.541 48.5C643.237 48.8906 643.084 49.3438 643.084 49.8594V57.3477C643.084 57.9336 643.256 58.4141 643.6 58.7891C643.944 59.1562 644.362 59.3398 644.854 59.3398C645.37 59.3398 645.799 59.1367 646.143 58.7305C646.487 58.3164 646.659 57.8555 646.659 57.3477V56.2344C646.659 56.1719 646.69 56.1406 646.752 56.1406H649.471C649.534 56.1406 649.565 56.1719 649.565 56.2344V57.3477C649.565 58.2461 649.354 59.0664 648.932 59.8086C648.502 60.543 647.936 61.1328 647.233 61.5781C646.53 62.0156 645.737 62.2344 644.854 62.2344ZM657.843 62H655.125C655.062 62 655.031 61.9609 655.031 61.8828L655.054 45.3945C655.054 45.332 655.093 45.3008 655.172 45.3008H657.843C657.922 45.3008 657.961 45.332 657.961 45.3945L657.937 51.9219H661.535V45.3945C661.535 45.332 661.566 45.3008 661.629 45.3008H664.3C664.379 45.3008 664.418 45.332 664.418 45.3945L664.465 61.8828C664.465 61.9609 664.425 62 664.347 62H661.652C661.574 62 661.535 61.9609 661.535 61.8828V54.8281H657.937V61.8828C657.937 61.9609 657.906 62 657.843 62ZM672.978 62H670.259C670.181 62 670.142 61.9609 670.142 61.8828L670.165 45.3945C670.165 45.332 670.196 45.3008 670.259 45.3008H672.954C673.017 45.3008 673.048 45.332 673.048 45.3945L673.071 61.8828C673.071 61.9609 673.04 62 672.978 62ZM686.752 62H678.994C678.932 62 678.901 61.9609 678.901 61.8828L678.924 45.3945C678.924 45.332 678.955 45.3008 679.018 45.3008H686.729C686.791 45.3008 686.823 45.3398 686.823 45.418V48.1016C686.823 48.1641 686.791 48.1953 686.729 48.1953H681.807V51.9453H686.729C686.791 51.9453 686.823 51.9766 686.823 52.0391L686.846 54.7578C686.846 54.8203 686.815 54.8516 686.752 54.8516H681.807V59.0469H686.752C686.815 59.0469 686.846 59.0859 686.846 59.1641V61.9062C686.846 61.9688 686.815 62 686.752 62ZM697.808 62H694.902C694.832 62 694.793 61.9609 694.785 61.8828L691.468 45.3945C691.453 45.332 691.484 45.3008 691.562 45.3008H694.281C694.343 45.3008 694.382 45.332 694.398 45.3945L696.367 56.3867L698.289 45.3945C698.304 45.332 698.343 45.3008 698.406 45.3008H701.089C701.175 45.3008 701.207 45.332 701.183 45.3945L697.925 61.8828C697.918 61.9609 697.878 62 697.808 62ZM714.161 62H706.403C706.341 62 706.309 61.9609 706.309 61.8828L706.333 45.3945C706.333 45.332 706.364 45.3008 706.427 45.3008H714.138C714.2 45.3008 714.231 45.3398 714.231 45.418V48.1016C714.231 48.1641 714.2 48.1953 714.138 48.1953H709.216V51.9453H714.138C714.2 51.9453 714.231 51.9766 714.231 52.0391L714.255 54.7578C714.255 54.8203 714.223 54.8516 714.161 54.8516H709.216V59.0469H714.161C714.223 59.0469 714.255 59.0859 714.255 59.1641V61.9062C714.255 61.9688 714.223 62 714.161 62ZM735.183 62H732.476C732.406 62 732.37 61.9609 732.37 61.8828V48.1953H729.253C729.175 48.1953 729.136 48.1562 729.136 48.0781L729.16 45.3945C729.16 45.332 729.191 45.3008 729.253 45.3008H738.37C738.456 45.3008 738.499 45.332 738.499 45.3945V48.0781C738.499 48.1562 738.468 48.1953 738.406 48.1953H735.253L735.277 61.8828C735.277 61.9609 735.245 62 735.183 62ZM746.204 62H743.485C743.422 62 743.391 61.9609 743.391 61.8828L743.415 45.3945C743.415 45.332 743.454 45.3008 743.532 45.3008H746.204C746.282 45.3008 746.321 45.332 746.321 45.3945L746.297 51.9219H749.895V45.3945C749.895 45.332 749.926 45.3008 749.989 45.3008H752.661C752.739 45.3008 752.778 45.332 752.778 45.3945L752.825 61.8828C752.825 61.9609 752.786 62 752.708 62H750.012C749.934 62 749.895 61.9609 749.895 61.8828V54.8281H746.297V61.8828C746.297 61.9609 746.266 62 746.204 62ZM766.353 62H758.596C758.533 62 758.502 61.9609 758.502 61.8828L758.525 45.3945C758.525 45.332 758.557 45.3008 758.619 45.3008H766.33C766.393 45.3008 766.424 45.3398 766.424 45.418V48.1016C766.424 48.1641 766.393 48.1953 766.33 48.1953H761.408V51.9453H766.33C766.393 51.9453 766.424 51.9766 766.424 52.0391L766.447 54.7578C766.447 54.8203 766.416 54.8516 766.353 54.8516H761.408V59.0469H766.353C766.416 59.0469 766.447 59.0859 766.447 59.1641V61.9062C766.447 61.9688 766.416 62 766.353 62ZM775.136 62H772.417C772.339 62 772.3 61.9609 772.3 61.8828L772.323 45.3945C772.323 45.332 772.355 45.3008 772.417 45.3008H775.112C775.175 45.3008 775.206 45.332 775.206 45.3945L775.23 61.8828C775.23 61.9609 775.198 62 775.136 62ZM783.872 62H781.153C781.09 62 781.059 61.9609 781.059 61.8828L781.106 45.3945C781.106 45.332 781.137 45.3008 781.2 45.3008H786.051C786.918 45.3008 787.715 45.5117 788.442 45.9336C789.168 46.3555 789.747 46.9219 790.176 47.6328C790.614 48.3438 790.833 49.1484 790.833 50.0469C790.833 50.6328 790.743 51.1641 790.563 51.6406C790.383 52.1172 790.172 52.5195 789.93 52.8477C789.696 53.1758 789.481 53.418 789.286 53.5742C790.153 54.5352 790.586 55.6641 790.586 56.9609L790.61 61.8828C790.61 61.9609 790.571 62 790.493 62H787.774C787.711 62 787.68 61.9766 787.68 61.9297V56.9609C787.68 56.3828 787.477 55.8828 787.071 55.4609C786.665 55.0391 786.165 54.8281 785.571 54.8281H783.989L783.965 61.8828C783.965 61.9609 783.934 62 783.872 62ZM786.051 48.1719H783.989V51.9453H786.051C786.543 51.9453 786.981 51.7617 787.364 51.3945C787.754 51.0273 787.95 50.5781 787.95 50.0469C787.95 49.5391 787.762 49.1016 787.387 48.7344C787.012 48.3594 786.567 48.1719 786.051 48.1719ZM179.739 100.234C178.887 100.234 178.102 100.016 177.383 99.5781C176.672 99.1406 176.098 98.5586 175.661 97.832C175.231 97.0977 175.016 96.293 175.016 95.418L175.039 87.8125C175.039 86.9219 175.254 86.1211 175.684 85.4102C176.106 84.6914 176.676 84.1172 177.395 83.6875C178.114 83.25 178.895 83.0312 179.739 83.0312C180.614 83.0312 181.399 83.2461 182.094 83.6758C182.797 84.1055 183.36 84.6836 183.782 85.4102C184.211 86.1289 184.426 86.9297 184.426 87.8125L184.45 95.418C184.45 96.293 184.239 97.0938 183.817 97.8203C183.387 98.5547 182.817 99.1406 182.106 99.5781C181.395 100.016 180.606 100.234 179.739 100.234ZM179.739 97.3398C180.223 97.3398 180.645 97.1445 181.004 96.7539C181.364 96.3555 181.543 95.9102 181.543 95.418L181.52 87.8125C181.52 87.2812 181.352 86.832 181.016 86.4648C180.68 86.0977 180.254 85.9141 179.739 85.9141C179.246 85.9141 178.825 86.0938 178.473 86.4531C178.121 86.8125 177.946 87.2656 177.946 87.8125V95.418C177.946 95.9414 178.121 96.3945 178.473 96.7773C178.825 97.1523 179.246 97.3398 179.739 97.3398ZM194.381 100H190.08C190.017 100 189.986 99.9609 189.986 99.8828L190.033 83.3945C190.033 83.332 190.064 83.3008 190.127 83.3008H194.744C195.642 83.3008 196.459 83.5195 197.193 83.957C197.912 84.3945 198.478 84.9766 198.892 85.7031C199.306 86.4219 199.513 87.2031 199.513 88.0469C199.513 88.7344 199.357 89.375 199.045 89.9688C198.732 90.5625 198.361 91.043 197.931 91.4102C198.392 91.8711 198.752 92.4062 199.009 93.0156C199.267 93.625 199.396 94.2656 199.396 94.9375C199.396 95.8672 199.174 96.7148 198.728 97.4805C198.275 98.2461 197.67 98.8594 196.912 99.3203C196.154 99.7734 195.31 100 194.381 100ZM194.744 86.1484H192.916V89.9219H194.744C195.299 89.9219 195.748 89.7266 196.091 89.3359C196.435 88.9375 196.607 88.5078 196.607 88.0469C196.607 87.5391 196.424 87.0977 196.056 86.7227C195.689 86.3398 195.252 86.1484 194.744 86.1484ZM194.381 92.8281H192.916L192.892 97.0703H194.381C194.959 97.0703 195.455 96.8594 195.869 96.4375C196.283 96.0156 196.49 95.5156 196.49 94.9375C196.49 94.3594 196.283 93.8633 195.869 93.4492C195.455 93.0352 194.959 92.8281 194.381 92.8281ZM208.776 100.234C207.894 100.234 207.093 100.023 206.374 99.6016C205.663 99.1797 205.101 98.5977 204.686 97.8555C204.28 97.1055 204.077 96.2695 204.077 95.3477V94.2344C204.077 94.1719 204.108 94.1406 204.171 94.1406H206.89C206.952 94.1406 206.983 94.1836 206.983 94.2695V95.3477C206.983 95.9336 207.151 96.4141 207.487 96.7891C207.823 97.1562 208.253 97.3398 208.776 97.3398C209.261 97.3398 209.679 97.1406 210.03 96.7422C210.382 96.3359 210.558 95.8711 210.558 95.3477V83.418C210.558 83.3555 210.589 83.3242 210.651 83.3242H213.347C213.409 83.3242 213.44 83.3633 213.44 83.4414L213.464 95.3477C213.464 96.2227 213.253 97.0312 212.831 97.7734C212.401 98.5234 211.835 99.1211 211.132 99.5664C210.429 100.012 209.644 100.234 208.776 100.234ZM226.84 100H219.082C219.02 100 218.989 99.9609 218.989 99.8828L219.012 83.3945C219.012 83.332 219.043 83.3008 219.106 83.3008H226.817C226.879 83.3008 226.91 83.3398 226.91 83.418V86.1016C226.91 86.1641 226.879 86.1953 226.817 86.1953H221.895V89.9453H226.817C226.879 89.9453 226.91 89.9766 226.91 90.0391L226.934 92.7578C226.934 92.8203 226.903 92.8516 226.84 92.8516H221.895V97.0469H226.84C226.903 97.0469 226.934 97.0859 226.934 97.1641V99.9062C226.934 99.9688 226.903 100 226.84 100ZM237.205 100.234C236.337 100.234 235.544 100.016 234.826 99.5781C234.115 99.1406 233.548 98.5547 233.126 97.8203C232.712 97.0781 232.505 96.2539 232.505 95.3477L232.529 87.8594C232.529 86.9688 232.732 86.1641 233.138 85.4453C233.544 84.7188 234.103 84.1367 234.814 83.6992C235.533 83.2539 236.33 83.0312 237.205 83.0312C238.095 83.0312 238.888 83.2461 239.584 83.6758C240.287 84.1055 240.845 84.6875 241.259 85.4219C241.681 86.1484 241.892 86.9609 241.892 87.8594V88.9609C241.892 89.0234 241.861 89.0547 241.798 89.0547H239.103C239.041 89.0547 239.009 89.0234 239.009 88.9609V87.8594C239.009 87.3281 238.837 86.8711 238.494 86.4883C238.15 86.1055 237.72 85.9141 237.205 85.9141C236.634 85.9141 236.197 86.1094 235.892 86.5C235.587 86.8906 235.435 87.3438 235.435 87.8594V95.3477C235.435 95.9336 235.607 96.4141 235.951 96.7891C236.294 97.1562 236.712 97.3398 237.205 97.3398C237.72 97.3398 238.15 97.1367 238.494 96.7305C238.837 96.3164 239.009 95.8555 239.009 95.3477V94.2344C239.009 94.1719 239.041 94.1406 239.103 94.1406H241.822C241.884 94.1406 241.916 94.1719 241.916 94.2344V95.3477C241.916 96.2461 241.705 97.0664 241.283 97.8086C240.853 98.543 240.287 99.1328 239.584 99.5781C238.88 100.016 238.087 100.234 237.205 100.234ZM252.503 100H249.796C249.725 100 249.69 99.9609 249.69 99.8828V86.1953H246.573C246.495 86.1953 246.456 86.1562 246.456 86.0781L246.479 83.3945C246.479 83.332 246.511 83.3008 246.573 83.3008H255.69C255.776 83.3008 255.819 83.332 255.819 83.3945V86.0781C255.819 86.1562 255.788 86.1953 255.725 86.1953H252.573L252.596 99.8828C252.596 99.9609 252.565 100 252.503 100ZM263.547 100H260.828C260.75 100 260.711 99.9609 260.711 99.8828L260.734 83.3945C260.734 83.332 260.766 83.3008 260.828 83.3008H263.524C263.586 83.3008 263.617 83.332 263.617 83.3945L263.641 99.8828C263.641 99.9609 263.609 100 263.547 100ZM275.072 100H272.165C272.095 100 272.056 99.9609 272.048 99.8828L268.732 83.3945C268.716 83.332 268.747 83.3008 268.826 83.3008H271.544C271.607 83.3008 271.646 83.332 271.661 83.3945L273.63 94.3867L275.552 83.3945C275.568 83.332 275.607 83.3008 275.669 83.3008H278.353C278.439 83.3008 278.47 83.332 278.447 83.3945L275.189 99.8828C275.181 99.9609 275.142 100 275.072 100ZM291.424 100H283.667C283.604 100 283.573 99.9609 283.573 99.8828L283.596 83.3945C283.596 83.332 283.628 83.3008 283.69 83.3008H291.401C291.464 83.3008 291.495 83.3398 291.495 83.418V86.1016C291.495 86.1641 291.464 86.1953 291.401 86.1953H286.479V89.9453H291.401C291.464 89.9453 291.495 89.9766 291.495 90.0391L291.518 92.7578C291.518 92.8203 291.487 92.8516 291.424 92.8516H286.479V97.0469H291.424C291.487 97.0469 291.518 97.0859 291.518 97.1641V99.9062C291.518 99.9688 291.487 100 291.424 100ZM301.449 100.234C300.598 100.234 299.812 100.016 299.094 99.5781C298.383 99.1406 297.812 98.5586 297.383 97.832C296.961 97.0977 296.75 96.293 296.75 95.418V94.3164C296.75 94.2305 296.789 94.1875 296.867 94.1875H299.562C299.625 94.1875 299.656 94.2305 299.656 94.3164V95.418C299.656 95.9414 299.832 96.3945 300.184 96.7773C300.535 97.1523 300.957 97.3398 301.449 97.3398C301.949 97.3398 302.375 97.1484 302.727 96.7656C303.078 96.375 303.254 95.9258 303.254 95.418C303.254 94.832 302.871 94.3203 302.105 93.8828C301.98 93.8047 301.816 93.7109 301.613 93.6016C301.418 93.4844 301.184 93.3516 300.91 93.2031C300.637 93.0547 300.371 92.9102 300.113 92.7695C299.855 92.6211 299.605 92.4805 299.363 92.3477C298.488 91.832 297.836 91.1875 297.406 90.4141C296.984 89.6328 296.773 88.7578 296.773 87.7891C296.773 86.8984 296.992 86.0938 297.43 85.375C297.867 84.6641 298.437 84.1016 299.141 83.6875C299.852 83.2656 300.621 83.0547 301.449 83.0547C302.301 83.0547 303.082 83.2656 303.793 83.6875C304.504 84.1172 305.07 84.6875 305.492 85.3984C305.922 86.1094 306.137 86.9062 306.137 87.7891V89.7578C306.137 89.8203 306.105 89.8516 306.043 89.8516H303.348C303.285 89.8516 303.254 89.8203 303.254 89.7578L303.23 87.7891C303.23 87.2266 303.055 86.7695 302.703 86.418C302.352 86.0664 301.934 85.8906 301.449 85.8906C300.957 85.8906 300.535 86.0781 300.184 86.4531C299.832 86.8281 299.656 87.2734 299.656 87.7891C299.656 88.3125 299.766 88.75 299.984 89.1016C300.211 89.4531 300.621 89.7891 301.215 90.1094C301.277 90.1406 301.422 90.2188 301.648 90.3438C301.875 90.4688 302.125 90.6094 302.398 90.7656C302.68 90.9141 302.934 91.0508 303.16 91.1758C303.387 91.293 303.523 91.3633 303.57 91.3867C304.367 91.832 304.996 92.3789 305.457 93.0273C305.926 93.6758 306.16 94.4727 306.16 95.418C306.16 96.332 305.949 97.1523 305.527 97.8789C305.098 98.6055 304.527 99.1797 303.816 99.6016C303.105 100.023 302.316 100.234 301.449 100.234ZM311.386 102.52V101.279C311.718 101.279 312.001 101.152 312.236 100.898C312.47 100.645 312.587 100.345 312.587 100H311.464C311.412 100 311.386 99.974 311.386 99.9219V97.6758C311.386 97.6237 311.412 97.5977 311.464 97.5977H313.73C313.782 97.5977 313.808 97.6237 313.808 97.6758V100C313.808 100.469 313.694 100.895 313.466 101.279C313.238 101.663 312.942 101.966 312.577 102.188C312.213 102.409 311.816 102.52 311.386 102.52ZM330.525 100.195C329.822 100.195 329.171 100.013 328.572 99.6484C327.973 99.2839 327.495 98.7956 327.137 98.1836C326.785 97.5651 326.609 96.8913 326.609 96.1621L326.648 86.1621C326.648 86.11 326.674 86.084 326.727 86.084H328.973C329.025 86.084 329.051 86.11 329.051 86.1621V96.1621C329.051 96.6113 329.194 96.9954 329.48 97.3145C329.767 97.627 330.115 97.7832 330.525 97.7832C330.955 97.7832 331.313 97.627 331.6 97.3145C331.886 96.9954 332.029 96.6113 332.029 96.1621V86.1621C332.029 86.11 332.055 86.084 332.107 86.084H334.354C334.406 86.084 334.432 86.11 334.432 86.1621L334.471 96.1621C334.471 96.8978 334.295 97.5749 333.943 98.1934C333.585 98.8053 333.11 99.2936 332.518 99.6582C331.925 100.016 331.261 100.195 330.525 100.195ZM345.686 100H339.221C339.169 100 339.143 99.9674 339.143 99.9023L339.163 86.1816C339.163 86.1165 339.195 86.084 339.26 86.084H341.487C341.552 86.084 341.584 86.1165 341.584 86.1816L341.565 97.5391H345.686C345.751 97.5391 345.784 97.5716 345.784 97.6367V99.9023C345.784 99.9674 345.751 100 345.686 100ZM353.054 100H350.798C350.739 100 350.71 99.9674 350.71 99.9023V88.4961H348.112C348.047 88.4961 348.014 88.4635 348.014 88.3984L348.034 86.1621C348.034 86.11 348.06 86.084 348.112 86.084H355.71C355.781 86.084 355.817 86.11 355.817 86.1621V88.3984C355.817 88.4635 355.791 88.4961 355.739 88.4961H353.112L353.132 99.9023C353.132 99.9674 353.106 100 353.054 100ZM362.257 100H359.991C359.926 100 359.894 99.9674 359.894 99.9023L359.913 86.1621C359.913 86.11 359.939 86.084 359.991 86.084H362.237C362.29 86.084 362.316 86.11 362.316 86.1621L362.335 99.9023C362.335 99.9674 362.309 100 362.257 100ZM369.537 100H367.271C367.219 100 367.193 99.9674 367.193 99.9023L367.232 86.1621C367.232 86.11 367.258 86.084 367.31 86.084H369.752C369.804 86.084 369.849 86.11 369.888 86.1621L371.714 88.7988L373.531 86.1621C373.57 86.11 373.619 86.084 373.677 86.084H376.129C376.187 86.084 376.216 86.11 376.216 86.1621L376.255 99.9023C376.255 99.9674 376.229 100 376.177 100H373.912C373.86 100 373.834 99.9674 373.834 99.9023L373.814 89.6973L371.714 92.7441L369.634 89.6973L369.615 99.9023C369.615 99.9674 369.589 100 369.537 100ZM380.361 99.9023L382.842 86.1621C382.855 86.11 382.887 86.084 382.939 86.084H385.84C385.892 86.084 385.924 86.11 385.938 86.1621L388.32 99.9023C388.327 99.9674 388.301 100 388.242 100H386.025C385.96 100 385.924 99.9674 385.918 99.9023L385.703 98.4375H382.979L382.764 99.9023C382.757 99.9674 382.725 100 382.666 100H380.439C380.387 100 380.361 99.9674 380.361 99.9023ZM384.277 90.6836L383.379 96.2988H385.303L384.482 90.6836L384.365 89.9414L384.277 90.6836ZM395.727 100H393.471C393.413 100 393.383 99.9674 393.383 99.9023V88.4961H390.786C390.72 88.4961 390.688 88.4635 390.688 88.3984L390.707 86.1621C390.707 86.11 390.733 86.084 390.786 86.084H398.383C398.455 86.084 398.491 86.11 398.491 86.1621V88.3984C398.491 88.4635 398.465 88.4961 398.413 88.4961H395.786L395.805 99.9023C395.805 99.9674 395.779 100 395.727 100ZM409.11 100H402.645C402.593 100 402.567 99.9674 402.567 99.9023L402.587 86.1816C402.587 86.1165 402.619 86.084 402.684 86.084H404.911C404.976 86.084 405.009 86.1165 405.009 86.1816L404.989 97.5391H409.11C409.175 97.5391 409.208 97.5716 409.208 97.6367V99.9023C409.208 99.9674 409.175 100 409.11 100ZM416.575 100H414.28C414.235 100 414.212 99.974 414.212 99.9219L414.232 94.2383L411.556 86.1621C411.543 86.11 411.562 86.084 411.614 86.084H413.841C413.906 86.084 413.945 86.11 413.958 86.1621L415.433 91.543L416.937 86.1621C416.95 86.11 416.982 86.084 417.034 86.084H419.28C419.333 86.084 419.352 86.11 419.339 86.1621L416.634 94.1602L416.654 99.9219C416.654 99.974 416.627 100 416.575 100ZM435.51 99.9805L431.926 100C431.861 100 431.828 99.9674 431.828 99.9023L431.867 86.1621C431.867 86.11 431.893 86.084 431.945 86.084L435.686 86.0645C436.428 86.0449 437.098 86.2142 437.697 86.5723C438.303 86.9303 438.785 87.4154 439.143 88.0273C439.507 88.6328 439.689 89.3034 439.689 90.0391V95.7812C439.689 96.5495 439.504 97.2526 439.133 97.8906C438.755 98.5221 438.254 99.0267 437.629 99.4043C437.004 99.7754 436.298 99.9674 435.51 99.9805ZM435.686 88.457L434.289 88.4766L434.27 97.5391H435.51C436.005 97.5391 436.421 97.3665 436.76 97.0215C437.098 96.6764 437.268 96.263 437.268 95.7812V90.0195C437.268 89.5964 437.111 89.2285 436.799 88.916C436.486 88.597 436.115 88.444 435.686 88.457ZM450.905 100H444.44C444.388 100 444.362 99.9674 444.362 99.9023L444.381 86.1621C444.381 86.11 444.407 86.084 444.459 86.084H450.885C450.937 86.084 450.963 86.1165 450.963 86.1816V88.418C450.963 88.4701 450.937 88.4961 450.885 88.4961H446.784V91.6211H450.885C450.937 91.6211 450.963 91.6471 450.963 91.6992L450.983 93.9648C450.983 94.0169 450.957 94.043 450.905 94.043H446.784V97.5391H450.905C450.957 97.5391 450.983 97.5716 450.983 97.6367V99.9219C450.983 99.974 450.957 100 450.905 100ZM462.403 100H455.938C455.886 100 455.86 99.9674 455.86 99.9023L455.88 86.1816C455.88 86.1165 455.912 86.084 455.977 86.084H458.204C458.269 86.084 458.302 86.1165 458.302 86.1816L458.282 97.5391H462.403C462.468 97.5391 462.501 97.5716 462.501 97.6367V99.9023C462.501 99.9674 462.468 100 462.403 100ZM469.273 100H467.007C466.942 100 466.909 99.9674 466.909 99.9023L466.929 86.1621C466.929 86.11 466.955 86.084 467.007 86.084H469.253C469.305 86.084 469.331 86.11 469.331 86.1621L469.351 99.9023C469.351 99.9674 469.325 100 469.273 100ZM478.877 100H476.455C476.396 100 476.364 99.9674 476.357 99.9023L473.593 86.1621C473.58 86.11 473.606 86.084 473.671 86.084H475.937C475.989 86.084 476.022 86.11 476.035 86.1621L477.675 95.3223L479.277 86.1621C479.29 86.11 479.323 86.084 479.375 86.084H481.611C481.683 86.084 481.709 86.11 481.689 86.1621L478.974 99.9023C478.968 99.9674 478.935 100 478.877 100ZM492.504 100H486.039C485.987 100 485.961 99.9674 485.961 99.9023L485.98 86.1621C485.98 86.11 486.007 86.084 486.059 86.084H492.484C492.536 86.084 492.562 86.1165 492.562 86.1816V88.418C492.562 88.4701 492.536 88.4961 492.484 88.4961H488.383V91.6211H492.484C492.536 91.6211 492.562 91.6471 492.562 91.6992L492.582 93.9648C492.582 94.0169 492.556 94.043 492.504 94.043H488.383V97.5391H492.504C492.556 97.5391 492.582 97.5716 492.582 97.6367V99.9219C492.582 99.974 492.556 100 492.504 100ZM499.803 100H497.538C497.485 100 497.459 99.9674 497.459 99.9023L497.498 86.1621C497.498 86.11 497.524 86.084 497.577 86.084H501.62C502.342 86.084 503.006 86.2598 503.612 86.6113C504.217 86.9629 504.699 87.4349 505.057 88.0273C505.422 88.6198 505.604 89.2904 505.604 90.0391C505.604 90.5273 505.529 90.9701 505.379 91.3672C505.23 91.7643 505.054 92.0996 504.852 92.373C504.657 92.6465 504.478 92.8483 504.315 92.9785C505.038 93.7793 505.399 94.7201 505.399 95.8008L505.418 99.9023C505.418 99.9674 505.386 100 505.321 100H503.055C503.003 100 502.977 99.9805 502.977 99.9414V95.8008C502.977 95.319 502.808 94.9023 502.469 94.5508C502.131 94.1992 501.714 94.0234 501.219 94.0234H499.901L499.881 99.9023C499.881 99.9674 499.855 100 499.803 100ZM501.62 88.4766H499.901V91.6211H501.62C502.03 91.6211 502.394 91.4681 502.713 91.1621C503.039 90.8561 503.202 90.4818 503.202 90.0391C503.202 89.6159 503.045 89.2513 502.733 88.9453C502.42 88.6328 502.049 88.4766 501.62 88.4766ZM512.571 100H510.305C510.24 100 510.208 99.9674 510.208 99.9023L510.227 86.1621C510.227 86.11 510.253 86.084 510.305 86.084H512.552C512.604 86.084 512.63 86.11 512.63 86.1621L512.649 99.9023C512.649 99.9674 512.623 100 512.571 100ZM519.685 100H517.683C517.579 100 517.527 99.9544 517.527 99.8633L517.507 86.2402C517.507 86.1361 517.559 86.084 517.663 86.084H519.47L522.849 93.9648L522.751 86.2402C522.751 86.1361 522.81 86.084 522.927 86.084H524.909C524.988 86.084 525.027 86.1361 525.027 86.2402L525.046 99.8828C525.046 99.9609 525.014 100 524.948 100H523.191L519.724 92.6367L519.87 99.8438C519.87 99.9479 519.809 100 519.685 100ZM533.547 100.195C532.824 100.195 532.173 100.016 531.593 99.6582C531.007 99.3001 530.535 98.8184 530.177 98.2129C529.826 97.6074 529.65 96.9303 529.65 96.1816V89.8438C529.65 89.1146 529.829 88.4505 530.187 87.8516C530.539 87.2461 531.011 86.7643 531.603 86.4062C532.196 86.0417 532.843 85.8594 533.547 85.8594C534.282 85.8594 534.946 86.0352 535.539 86.3867C536.131 86.7448 536.6 87.2233 536.945 87.8223C537.297 88.4212 537.472 89.0951 537.472 89.8438V90.7617C537.472 90.8138 537.44 90.8398 537.375 90.8398H535.129C535.076 90.8398 535.05 90.8138 535.05 90.7617V90C535.05 89.4922 534.907 89.0723 534.621 88.7402C534.334 88.4082 533.976 88.2422 533.547 88.2422C533.162 88.2422 532.821 88.4017 532.521 88.7207C532.222 89.0397 532.072 89.4141 532.072 89.8438V96.1816C532.072 96.6178 532.218 96.9954 532.511 97.3145C532.804 97.627 533.149 97.7832 533.547 97.7832C533.976 97.7832 534.334 97.6302 534.621 97.3242C534.907 97.0117 535.05 96.6309 535.05 96.1816V95.1953H533.654C533.582 95.1953 533.547 95.1628 533.547 95.0977V92.8613C533.547 92.7962 533.582 92.7637 533.654 92.7637H537.394C537.446 92.7637 537.472 92.7962 537.472 92.8613V96.1816C537.472 96.9303 537.297 97.6074 536.945 98.2129C536.587 98.8184 536.115 99.3001 535.529 99.6582C534.943 100.016 534.282 100.195 533.547 100.195ZM554.551 100H552.129C552.071 100 552.038 99.9674 552.032 99.9023L549.668 86.1621C549.655 86.11 549.675 86.084 549.727 86.084H551.973C552.025 86.084 552.058 86.11 552.071 86.1621L553.35 95.1953L554.668 86.1621C554.681 86.11 554.72 86.084 554.786 86.084H556.592C556.644 86.084 556.677 86.11 556.69 86.1621L557.989 95.1953L559.287 86.1621C559.3 86.11 559.333 86.084 559.385 86.084H561.612C561.677 86.084 561.703 86.11 561.69 86.1621L559.307 99.9023C559.3 99.9284 559.281 99.9512 559.248 99.9707L559.209 100H556.787C556.748 100 556.716 99.9674 556.69 99.9023L555.664 92.7246L554.649 99.9023C554.642 99.9674 554.61 100 554.551 100ZM569.253 100.195C568.543 100.195 567.889 100.013 567.29 99.6484C566.697 99.2839 566.219 98.7988 565.854 98.1934C565.496 97.5814 565.317 96.9108 565.317 96.1816L565.337 89.8438C565.337 89.1016 565.516 88.4342 565.874 87.8418C566.225 87.2428 566.701 86.7643 567.3 86.4062C567.899 86.0417 568.55 85.8594 569.253 85.8594C569.982 85.8594 570.636 86.0384 571.216 86.3965C571.802 86.7546 572.27 87.2363 572.622 87.8418C572.98 88.4408 573.159 89.1081 573.159 89.8438L573.179 96.1816C573.179 96.9108 573.003 97.5781 572.651 98.1836C572.293 98.7956 571.818 99.2839 571.225 99.6484C570.633 100.013 569.975 100.195 569.253 100.195ZM569.253 97.7832C569.656 97.7832 570.008 97.6204 570.307 97.2949C570.607 96.9629 570.757 96.5918 570.757 96.1816L570.737 89.8438C570.737 89.401 570.597 89.0267 570.317 88.7207C570.037 88.4147 569.682 88.2617 569.253 88.2617C568.843 88.2617 568.491 88.4115 568.198 88.7109C567.905 89.0104 567.759 89.388 567.759 89.8438V96.1816C567.759 96.6178 567.905 96.9954 568.198 97.3145C568.491 97.627 568.843 97.7832 569.253 97.7832ZM580.136 100H577.87C577.818 100 577.792 99.9674 577.792 99.9023L577.831 86.1621C577.831 86.11 577.857 86.084 577.909 86.084H581.952C582.675 86.084 583.339 86.2598 583.945 86.6113C584.55 86.9629 585.032 87.4349 585.39 88.0273C585.754 88.6198 585.937 89.2904 585.937 90.0391C585.937 90.5273 585.862 90.9701 585.712 91.3672C585.562 91.7643 585.387 92.0996 585.185 92.373C584.99 92.6465 584.81 92.8483 584.648 92.9785C585.37 93.7793 585.732 94.7201 585.732 95.8008L585.751 99.9023C585.751 99.9674 585.719 100 585.654 100H583.388C583.336 100 583.31 99.9805 583.31 99.9414V95.8008C583.31 95.319 583.141 94.9023 582.802 94.5508C582.463 94.1992 582.047 94.0234 581.552 94.0234H580.234L580.214 99.9023C580.214 99.9674 580.188 100 580.136 100ZM581.952 88.4766H580.234V91.6211H581.952C582.363 91.6211 582.727 91.4681 583.046 91.1621C583.372 90.8561 583.534 90.4818 583.534 90.0391C583.534 89.6159 583.378 89.2513 583.066 88.9453C582.753 88.6328 582.382 88.4766 581.952 88.4766ZM592.884 100H590.619C590.567 100 590.541 99.9674 590.541 99.9023L590.58 86.1816C590.58 86.1165 590.606 86.084 590.658 86.084H592.904C592.956 86.084 592.982 86.1165 592.982 86.1816V90.918L596.117 86.1621C596.169 86.11 596.218 86.084 596.263 86.084H598.558C598.617 86.084 598.63 86.11 598.597 86.1621L595.14 91.6797L599.017 99.9219C599.05 99.974 599.017 100 598.92 100H596.478C596.413 100 596.374 99.974 596.361 99.9219L593.656 94.043L592.963 95.1367V99.9023C592.963 99.9674 592.936 100 592.884 100ZM615.578 100H613.323C613.264 100 613.235 99.9674 613.235 99.9023V88.4961H610.637C610.572 88.4961 610.539 88.4635 610.539 88.3984L610.559 86.1621C610.559 86.11 610.585 86.084 610.637 86.084H618.235C618.306 86.084 618.342 86.11 618.342 86.1621V88.3984C618.342 88.4635 618.316 88.4961 618.264 88.4961H615.637L615.657 99.9023C615.657 99.9674 615.631 100 615.578 100ZM624.763 100H622.497C622.445 100 622.419 99.9674 622.419 99.9023L622.438 86.1621C622.438 86.11 622.471 86.084 622.536 86.084H624.763C624.828 86.084 624.86 86.11 624.86 86.1621L624.841 91.6016H627.839V86.1621C627.839 86.11 627.865 86.084 627.917 86.084H630.143C630.208 86.084 630.241 86.11 630.241 86.1621L630.28 99.9023C630.28 99.9674 630.248 100 630.182 100H627.936C627.871 100 627.839 99.9674 627.839 99.9023V94.0234H624.841V99.9023C624.841 99.9674 624.815 100 624.763 100ZM634.337 99.9023L636.818 86.1621C636.831 86.11 636.863 86.084 636.915 86.084H639.816C639.868 86.084 639.9 86.11 639.913 86.1621L642.296 99.9023C642.303 99.9674 642.277 100 642.218 100H640.001C639.936 100 639.9 99.9674 639.894 99.9023L639.679 98.4375H636.954L636.74 99.9023C636.733 99.9674 636.7 100 636.642 100H634.415C634.363 100 634.337 99.9674 634.337 99.9023ZM638.253 90.6836L637.355 96.2988H639.279L638.458 90.6836L638.341 89.9414L638.253 90.6836ZM649.703 100H647.447C647.388 100 647.359 99.9674 647.359 99.9023V88.4961H644.761C644.696 88.4961 644.664 88.4635 644.664 88.3984L644.683 86.1621C644.683 86.11 644.709 86.084 644.761 86.084H652.359C652.431 86.084 652.466 86.11 652.466 86.1621V88.3984C652.466 88.4635 652.44 88.4961 652.388 88.4961H649.761L649.781 99.9023C649.781 99.9674 649.755 100 649.703 100Z" fill="#394548"/>
</svg>
