<svg width="297" height="235" viewBox="0 0 297 235" fill="none" xmlns="http://www.w3.org/2000/svg">
<path d="M31.9857 28.5939H55.3923M31.9857 84.2061H66.5516M73.5862 84.2061H113.593M120.374 84.2061H182.446M90.8439 65.7284H212.786M62.1486 65.7284H84.1382M31.8845 65.7284H55.2911M31.8845 47.1995H84.9479M91.5271 47.1995H113.593M120.374 47.1995H182.446M90.8439 28.6707H143.781M62.1486 28.6707H84.1382M219.466 142.787L197.78 131.219V124.616L219.466 113.049M221.997 155.097L235.256 99.5871M239.178 113.049L260.864 124.693V131.219L239.178 142.736M9.9709 2.13139H287.054C288.076 2.10075 289.094 2.27577 290.049 2.64631C291.003 3.01684 291.875 3.57549 292.615 4.28981C293.354 5.00413 293.945 5.85988 294.355 6.80737C294.764 7.75486 294.984 8.77519 295 9.8091V184.221C294.98 185.254 294.759 186.273 294.348 187.219C293.937 188.164 293.346 189.019 292.607 189.732C291.869 190.446 290.998 191.005 290.045 191.377C289.092 191.748 288.076 191.926 287.054 191.899H9.9709C8.94856 191.926 7.93097 191.749 6.97651 191.377C6.02206 191.006 5.14951 190.447 4.40894 189.734C3.66837 189.021 3.07436 188.166 2.66097 187.22C2.24758 186.274 2.02296 185.255 2 184.221V9.68114C2.01962 8.64604 2.24198 7.62515 2.65421 6.67752C3.06645 5.72989 3.66037 4.87434 4.40163 4.16035C5.14288 3.44636 6.01676 2.8881 6.97271 2.51787C7.92866 2.14764 8.9477 1.97279 9.9709 2.00343V2.13139ZM112.378 202.136H184.647C184.825 214.01 189.987 224.631 203.929 233H93.0959C104.255 225.322 112.429 216.007 112.378 202.136ZM148.513 166.306C150.391 166.406 152.199 167.061 153.713 168.19C155.226 169.319 156.38 170.872 157.03 172.657C157.68 174.442 157.798 176.38 157.37 178.232C156.941 180.085 155.985 181.769 154.62 183.077C153.255 184.386 151.54 185.26 149.689 185.593C147.837 185.926 145.929 185.702 144.202 184.949C142.475 184.197 141.004 182.948 139.971 181.359C138.938 179.769 138.389 177.908 138.391 176.006C138.477 173.367 139.588 170.87 141.482 169.054C143.377 167.238 145.903 166.251 148.513 166.306ZM25.938 16.3607H271.011C272.818 16.2983 274.575 16.9596 275.902 18.2009C277.229 19.4421 278.018 21.1629 278.097 22.9892V153.51C278.037 155.339 277.263 157.068 275.945 158.321C274.626 159.573 272.87 160.245 271.062 160.19H25.938C24.1386 160.231 22.3958 159.553 21.0881 158.302C19.7804 157.052 19.0135 155.329 18.954 153.51V22.9892C19.0265 21.1789 19.7991 19.4698 21.1053 18.2301C22.4116 16.9903 24.1471 16.319 25.938 16.3607Z" stroke="#FFE9AD" stroke-width="3.01972" stroke-miterlimit="10"/>
</svg>
