<svg width="255" height="235" viewBox="0 0 255 235" fill="none" xmlns="http://www.w3.org/2000/svg">
<path d="M27.6875 28.5939H47.7388M27.6875 84.2061H57.2985M63.3247 84.2061H97.5963M103.406 84.2061H156.58M78.1086 65.7284H182.571M53.5266 65.7284H72.3641M27.6007 65.7284H47.6521M27.6007 47.1995H73.0578M78.6938 47.1995H97.5963M103.406 47.1995H156.58M78.1086 28.6707H123.457M53.5266 28.6707H72.3641M188.294 142.787L169.716 131.219V124.616L188.294 113.049M190.461 155.097L201.82 99.5871M205.18 113.049L223.757 124.693V131.219L205.18 142.736M8.82831 2.13139H246.193C247.069 2.10075 247.941 2.27577 248.758 2.64631C249.576 3.01684 250.323 3.57549 250.957 4.28981C251.59 5.00413 252.097 5.85988 252.447 6.80737C252.798 7.75486 252.986 8.77519 253 9.8091V184.221C252.983 185.254 252.793 186.273 252.442 187.219C252.09 188.164 251.583 189.019 250.95 189.732C250.318 190.446 249.572 191.005 248.755 191.377C247.939 191.748 247.068 191.926 246.193 191.899H8.82831C7.95252 191.926 7.0808 191.749 6.26316 191.377C5.44552 191.006 4.69805 190.447 4.06363 189.734C3.42922 189.021 2.92035 188.166 2.56622 187.22C2.21209 186.274 2.01967 185.255 2 184.221V9.68114C2.01681 8.64604 2.2073 7.62515 2.56044 6.67752C2.91358 5.72989 3.42236 4.87434 4.05737 4.16035C4.69237 3.44636 5.44098 2.8881 6.2599 2.51787C7.07882 2.14764 7.95179 1.97279 8.82831 2.00343V2.13139ZM96.5558 202.136H158.466C158.618 214.01 163.04 224.631 174.984 233H80.0378C89.5975 225.322 96.5992 216.007 96.5558 202.136ZM127.511 166.306C129.12 166.406 130.669 167.061 131.965 168.19C133.262 169.319 134.25 170.872 134.807 172.657C135.364 174.442 135.465 176.38 135.098 178.232C134.731 180.085 133.912 181.769 132.743 183.077C131.573 184.386 130.104 185.26 128.518 185.593C126.932 185.926 125.298 185.702 123.818 184.949C122.338 184.197 121.078 182.948 120.193 181.359C119.308 179.769 118.838 177.908 118.84 176.006C118.914 173.367 119.865 170.87 121.488 169.054C123.111 167.238 125.275 166.251 127.511 166.306ZM22.5066 16.3607H232.45C233.997 16.2983 235.503 16.9596 236.64 18.2009C237.776 19.4421 238.452 21.1629 238.52 22.9892V153.51C238.469 155.339 237.806 157.068 236.676 158.321C235.546 159.573 234.042 160.245 232.493 160.19H22.5066C20.9652 160.231 19.4722 159.553 18.3519 158.302C17.2317 157.052 16.5747 155.329 16.5237 153.51V22.9892C16.5858 21.1789 17.2477 19.4698 18.3667 18.2301C19.4857 16.9903 20.9724 16.319 22.5066 16.3607Z" stroke="#FFE9AD" stroke-width="3.01972" stroke-miterlimit="10"/>
</svg>
