<svg width="1349" height="994" viewBox="0 0 1349 994" fill="none" xmlns="http://www.w3.org/2000/svg">
<g style="mix-blend-mode:darken">
<path d="M1348.61 474.829V519.195C1348.19 521.602 1347.66 523.964 1347.38 526.36C1345.08 545.659 1343.6 565.08 1340.43 584.235C1330.07 646.492 1307.67 704.356 1274.4 757.861C1223.87 839.095 1155.55 901.041 1069.71 943.344C1020.16 967.875 966.736 983.64 911.808 989.939C899.607 991.348 887.417 992.612 875.217 993.954H401.788C399.404 993.511 397.03 992.801 394.623 992.657C346.886 989.651 300.956 978.77 257.178 959.615C161.869 917.911 90.8057 850.32 44.2881 757.284C23.7327 716.248 10.4302 671.965 4.96879 626.394C3.62673 615.314 2.31793 604.244 0.998047 593.175V550.129C1.4528 547.744 2.15156 545.36 2.29575 542.964C4.76915 501.604 13.2541 461.442 28.1943 422.843C68.4009 318.983 138.488 241.953 238.089 192.096C289.765 166.22 344.845 152.622 402.454 149.605C430.66 148.141 458.843 149.716 486.882 153.476C489.422 153.82 493.082 152.688 494.846 150.88C535.163 109.698 581.071 76.246 632.835 50.8909C683.046 26.3011 735.886 10.4514 791.51 4.10705C804.597 2.6097 817.719 1.37855 830.829 0.0253906H871.191C873.83 0.435775 876.481 0.901617 879.121 1.21218C899.119 3.54139 919.228 5.00546 939.037 8.32181C1000.84 18.6923 1058.37 40.8753 1111.61 73.828C1193.24 124.361 1255.45 192.762 1297.96 278.876C1322.54 328.447 1338.32 381.912 1344.6 436.885C1346.04 449.54 1347.27 462.196 1348.61 474.829ZM595.113 187.749C595.922 188.813 596.122 189.312 596.466 189.479C624.183 203.141 650.675 219.161 675.648 237.361C677.223 238.503 681.127 238.026 683.035 236.828C751.669 193.339 826.071 178.332 905.996 192.507C984.313 206.393 1048.04 245.524 1096.74 308.024C1151.87 378.755 1172.89 458.735 1157.67 547.722C1147.47 607.361 1123.58 660.866 1082.97 705.687C1008.88 787.398 916.1 821.194 806.882 806.886C739.646 798.079 681.604 769.075 633.567 720.527C571.909 658.249 509.853 596.38 448.018 534.268C439.777 525.994 430.604 519.339 418.736 517.886C398.006 515.346 379.195 525.695 370.244 544.317C362.258 560.943 363.29 579.688 380.615 596.724C449.548 664.393 517.872 732.684 586.728 800.419C598.512 812.071 611.151 822.826 624.538 832.595C674.838 869.12 731.549 889.317 792.962 897.447C841.166 903.814 888.992 902.45 936.453 891.78C1026.98 871.449 1101.97 825.242 1161.03 753.946C1209.8 695.028 1239.29 627.326 1249.58 551.316C1255.53 507.972 1254.29 463.941 1245.89 421.002C1232.2 350.793 1202.49 287.971 1154.9 234.499C1064.09 132.535 949.851 87.0158 813.903 97.1756C761.607 101.08 712.139 116.441 665.588 140.809C640.468 153.861 616.838 169.599 595.113 187.749ZM561.849 899.555C559.979 897.821 558.115 896.08 556.259 894.331C528.076 867.722 499.737 841.28 471.887 814.328C466.496 809.115 461.538 806.575 453.907 806.752C425.702 807.44 397.474 807.562 369.679 801.284C231.479 770.029 151.232 619.772 202.164 487.562C242.337 383.313 353.552 319.826 463.224 339.402C512.381 348.176 555.527 368.983 590.942 405.507C634.133 450.095 678.609 493.407 722.265 537.54C732.203 547.589 743.617 552.17 757.381 550.207C775.172 547.667 789.336 539.193 795.769 521.746C802.069 504.576 799.018 488.316 786.019 475.151C740.2 428.733 695.468 381.151 647.797 336.707C555.339 250.471 446.31 224.827 325.723 261.496C163.532 310.775 68.6117 478.256 105.668 643.519C139.442 794.097 271.131 899.777 425.225 899.91C468.249 899.954 511.283 899.932 554.307 899.91C556.437 899.91 558.566 899.721 561.849 899.555Z" fill="#CBAD5E"/>
</g>
</svg>
