<svg id="Capa_1" data-name="Capa 1" xmlns="http://www.w3.org/2000/svg" viewBox="0 0 800 800"><path d="M635.79,220a2.41,2.41,0,0,1-.16.45h0a2.75,2.75,0,0,1-.15.36c-.27.6-.64,1.15-1,1.72a1.82,1.82,0,0,0-.15.27l0,.06q-8.24,17.46-16.39,35-5.88,12.58-11.79,25.18Q596,304.51,586,326c-3.93,8.4-7.9,16.78-11.82,25.18-6.93,14.84-14,29.63-20.87,44.49-4.22,9.05-8.53,18.06-12.76,27.11-6.78,14.48-13.6,28.93-20.33,43.42-3.91,8.41-7.92,16.76-11.84,25.16-7.24,15.5-14.55,31-21.8,46.44-5.33,11.36-10.72,22.69-16,34.06-3,6.52-6.2,13-9.14,19.55-.1.21-.19.42-.3.62s-.21.43-.32.64q-.39.75-.84,1.47l-.08.13-.14.2c-6.29,9.23-15.06,14.28-26.15,15.43l-.71.11-.42.09a8.33,8.33,0,0,1-1,.16c-12.82-.83-25.65-1.28-38.47-1.77-7.33-.29-14.65-.81-22-.91a12.38,12.38,0,0,1-3.52-.6c-3.13-.88-6.33-.21-9.48-.44a5.72,5.72,0,0,1-1.3-.17c-3.27-.65-6.59-.09-9.88-.35a5.34,5.34,0,0,1-.89-.15,5.12,5.12,0,0,0-1.65-.25c-5.6.27-11.17-.37-16.75-.58-11.08-.41-22.15-1-33.23-1.44q-10-.42-20.07-.93c-7.57-.37-15.14-.68-22.71-1-6.61-.27-13.22-.62-19.83-.92-11.15-.51-22.3-1.06-33.46-1.48-6.75-.26-13.51-.51-20.25-.95H178c-3.38-.22-6.77-.35-10.15-.47-3.06-.11-6.11-.23-9.16-.42-1.77-.1-3.53-.23-5.29-.4-3.72-.36-7.49-.27-11.23-.4-5.35-.19-10.7-.45-16-.71-3.61-.18-7.23-.3-10.84-.43-2.82-.11-5.64-.23-8.46-.39h0c-2.15-.13-4.3-.28-6.45-.47-3.81-.34-7.65-.26-11.47-.4q-8-.29-16-.73c-1.22-.07-2.45-.1-3.68-.13h-.08c-2.69-.06-5.37-.07-8.05-.28-1.08-.08-2.15-.2-3.23-.36a11.84,11.84,0,0,0-3.31,0,8.63,8.63,0,0,0-1,.19A5.87,5.87,0,0,1,51,593l-.16,0-.34-.08a33.47,33.47,0,0,1-8.21-2.92c-.26-.13-.52-.28-.78-.44l-.29-.17a11.12,11.12,0,0,1-3.53-6.8,9,9,0,0,0-.5-2.51v-2.4a9.35,9.35,0,0,0,2-4,15.71,15.71,0,0,1,1.2-3.37l67.47-143.69L237.52,150.53q11.46-24.39,22.89-48.8c4.87-10.36,13-16.69,24-19.55a22.33,22.33,0,0,1,6.91-.55c16.69.91,33.39,1.5,50.08,2.24q29.47,1.3,59,2.66c12.7.56,25.4,1.07,38.11,1.64,15.89.71,31.79,1.47,47.68,2.19,12.31.55,24.61,1.06,36.91,1.61q19.89.9,39.78,1.83c2.56.12,5.12.12,7.66.42a7.11,7.11,0,0,1,5.93,3.87c3.19,6,6.77,11.75,9.81,17.82.85,2.83,2.54,5.27,3.86,7.87l.36.7.06.12c9.72,19.12,19.19,38.36,28.83,57.52,5.18,10.28,10.5,20.49,15.67,30.78A8.58,8.58,0,0,1,635.79,220Z" fill="#093348"/><path d="M684.24,306l-.51.47a1.3,1.3,0,0,1-.35,0s0,0,0,0a1.25,1.25,0,0,1,.16-.22A.56.56,0,0,1,684.24,306Z" fill="#020b10"/><path d="M684.24,302.62c-1.13.06-1.14-1-1.46-1.61-6.84-13.64-13.5-27.37-20.52-40.92-11.82-22.86-23-46-34.73-68.93-4.82-9.36-10.17-18.46-15.32-27.66-6.67-11.92-13.28-23.87-20-35.78-.58-1-1.15-2.08-1.72-3.12,9.72,19.12,19.19,38.36,28.83,57.52,5.18,10.28,10.5,20.49,15.67,30.78a8.58,8.58,0,0,1,.75,7.13,2.41,2.41,0,0,1-.16.45h0a2.75,2.75,0,0,1-.15.36,4.59,4.59,0,0,1-.11-.84,4.14,4.14,0,0,1,.08-1.18,5.67,5.67,0,0,0-.55-4.81c-3.43-6.67-6.73-13.4-10.2-20.05-4.54-8.68-8.82-17.51-13.21-26.27Q599.12,143,586.78,118.24c-.26-.54-.9-1.06-.81-1.72a1.25,1.25,0,0,1,.29-.61c3.84,6.81,7.7,13.62,11.51,20.45,9,16,18,32,26.82,48.12,6.93,12.59,13.07,25.59,19.54,38.42q19.26,38.17,38.44,76.36Z" fill="#020b10"/><path d="M134.22,421.37a7.76,7.76,0,0,1,1.1-2.85l58.09-123.69,88.77-189c1.86-3.95,1.86-4,6.12-3.81q26.71,1.18,53.44,2.4L394,106.78l53.45,2.41,53,2.38q22.65,1,45.3,2c2,.08,2,.2,1.11,2.14l-18.86,40.14Q514.21,185,500.51,214.23a16.49,16.49,0,0,0-1.61,4.24c-.67,3.79,1.08,6.67,4.75,7.72a13.85,13.85,0,0,0,3.07.49c8.63.4,17.26.73,25.88,1.12q23.73,1.08,47.45,2.2,11.51.54,23,1c.56,0,1.12,0,1.68.07,1.86.13,2,.31,1.22,2-2.25,4.86-4.54,9.7-6.81,14.55Q555,341.69,510.77,435.77c-1.43,3-.73,2.86-4.43,2.7-13.42-.59-26.84-1.22-40.26-1.81-9.19-.41-18.38-.77-27.56-1.19-15.58-.7-31.16-1.45-46.73-2.16l-24-1.08-40-1.81c-9.27-.41-18.54-.77-27.8-1.19q-23.49-1.07-47-2.18c-8.95-.41-17.9-.75-26.84-1.16q-23.85-1.08-47.69-2.19c-9.19-.41-18.38-.77-27.57-1.18-5.11-.23-10.22-.5-15.33-.76A1.89,1.89,0,0,1,134.22,421.37Z" fill="#fcc651"/><path d="M682.83,308.08a4.71,4.71,0,0,1-.31.73,2.51,2.51,0,0,1-.26.45,47.33,47.33,0,0,0-2.52,4.91c-6.66,14.53-13.54,29-20.31,43.45-3.79,8.11-7.63,16.2-11.4,24.32q-10,21.63-20.24,43.21-6.16,13.14-12.33,26.27-10.31,22.05-20.66,44.07-6,12.81-12,25.62-10.44,22.25-20.89,44.5-6.14,13-12.24,26-11.88,25.41-23.83,50.8c-5.56,11.87-11.1,23.75-16.72,35.6,0,0,0,0,0,.05a2,2,0,0,1-.08.26,1.67,1.67,0,0,0,.5,0c.37-.71.76-1.4,1.1-2.12q12.35-26.22,24.67-52.47,63.45-135.22,126.89-270.47l20.64-44A1,1,0,0,0,682.83,308.08ZM540.58,422.8c4.23-9.05,8.54-18.06,12.76-27.11,6.91-14.86,13.94-29.65,20.87-44.49,3.92-8.4,7.89-16.78,11.82-25.18q10.05-21.5,20.12-43,5.91-12.58,11.79-25.18,8.19-17.48,16.39-35l0-.06a1.82,1.82,0,0,1,.15-.27,1.85,1.85,0,0,0-.63,0h0c-2,4-3.81,8.08-5.69,12.12-4.95,10.64-10,21.25-14.95,31.87l-10.56,22.55q-7,15.07-14.11,30.14l-10.35,22.12q-7.38,15.72-14.75,31.43-5.34,11.37-10.68,22.76-6,12.68-11.94,25.34c-3.39,7.23-6.75,14.46-10.14,21.69-4.91,10.48-9.78,21-14.76,31.42-3.61,7.57-7.14,15.17-10.67,22.77-5.09,10.93-10.26,21.81-15.38,32.72-3.53,7.51-7,15-10.57,22.55q-6.69,14.18-13.44,28.35-2.19,4.65-4.4,9.31a4,4,0,0,0-.48,1.83,2,2,0,0,0-.16,1.17c.11-.21.22-.42.32-.64s.2-.41.3-.62c2.94-6.57,6.1-13,9.14-19.55,5.29-11.37,10.68-22.7,16-34.06,7.25-15.48,14.56-30.94,21.8-46.44,3.92-8.4,7.93-16.75,11.84-25.16C527,451.73,533.8,437.28,540.58,422.8Z" fill="#020b10"/><path d="M684.24,302.62V306a.56.56,0,0,0-.68.19,1.25,1.25,0,0,0-.16.22s0,0,0,0c-.22.54-.36,1.11-.55,1.65a4.71,4.71,0,0,1-.31.73,2.51,2.51,0,0,1-.26.45,47.33,47.33,0,0,0-2.52,4.91c-6.66,14.53-13.54,29-20.31,43.45-3.79,8.11-7.63,16.2-11.4,24.32q-10,21.63-20.24,43.21-6.16,13.14-12.33,26.27-10.31,22.05-20.66,44.07-6,12.81-12,25.62-10.44,22.25-20.89,44.5-6.14,13-12.24,26-11.88,25.41-23.83,50.8c-5.56,11.87-11.1,23.75-16.72,35.6,0,0,0,0,0,.05a2,2,0,0,1-.08.26,9,9,0,0,1-1,2l-.34.52-.53.72c-6.53,9-15.12,14.05-26.25,14.25h-.9c-10.43-.87-20.89-1.06-31.34-1.49-4.87-.19-9.75-.35-14.61-.62-12.43-.71-24.88-1.12-37.33-1.7-9.41-.43-18.82-.92-28.24-1.15-3.83-.09-7.67-.21-11.49-.47-12.27-.85-24.56-1.17-36.84-1.74-9.25-.43-18.51-.94-27.77-1.17-3.74-.09-7.5-.22-11.25-.45-10-.61-19.94-1-29.91-1.37-4.39-.17-8.78-.31-13.16-.58-12.2-.77-24.41-1.11-36.61-1.72-9.09-.45-18.19-.87-27.29-1.16-3.75-.13-7.51-.17-11.25-.46-8.68-.68-17.39-.92-26.08-1.27-8.94-.37-17.87-.84-26.81-1.19-3.81-.15-7.68.07-11.47-.74l-.25,0a.92.92,0,0,1-.62.33,11.81,11.81,0,0,1-9.69-6.14q-23.13-41.44-46.23-82.88a1.75,1.75,0,0,1-.17-.43c0-.08-.05-.16-.07-.24.19-.31.48-.44.78-.22a17.67,17.67,0,0,0,7.39,2.89,1.3,1.3,0,0,1,1,.56l.25.45.16,0a5.87,5.87,0,0,0,2.47-.07,8.63,8.63,0,0,1,1-.19,57.27,57.27,0,0,0,6.54.41c2.68.21,5.36.22,8.05.28h.08c6.3.42,12.63.61,18.94.91s12.46.55,18.69.82h0c2.82.16,5.64.28,8.46.39l15.59.71c7.41.35,14.83.53,22.23,1,1.85.12,3.71.17,5.57.21,3.05.19,6.1.31,9.16.42,3.38.18,6.77.33,10.15.47H178c6.74.44,13.5.69,20.25.95,11.16.42,22.31,1,33.46,1.48,6.61.3,13.22.65,19.83.92,7.57.32,15.14.63,22.71,1q10,.49,20.07.93c11.08.46,22.15,1,33.23,1.44,5.58.21,11.15.85,16.75.58a5.12,5.12,0,0,1,1.65.25,5.34,5.34,0,0,0,.89.15c3.29.26,6.61-.3,9.88.35a5.72,5.72,0,0,0,1.3.17c3.15.23,6.35-.44,9.48.44a12.38,12.38,0,0,0,3.52.6c7.34.1,14.66.62,22,.91,12.82.49,25.65.94,38.47,1.77a8.33,8.33,0,0,0,1-.16l.42-.09.71-.11c11.09-1.15,19.86-6.2,26.15-15.43l.14-.2.08-.13q.45-.72.84-1.47c.11-.21.22-.42.32-.64s.2-.41.3-.62c2.94-6.57,6.1-13,9.14-19.55,5.29-11.37,10.68-22.7,16-34.06,7.25-15.48,14.56-30.94,21.8-46.44,3.92-8.4,7.93-16.75,11.84-25.16,6.73-14.49,13.55-28.94,20.33-43.42,4.23-9.05,8.54-18.06,12.76-27.11,6.91-14.86,13.94-29.65,20.87-44.49,3.92-8.4,7.89-16.78,11.82-25.18q10.05-21.5,20.12-43,5.91-12.58,11.79-25.18,8.19-17.48,16.39-35l0-.06a1.82,1.82,0,0,1,.15-.27c.32-.57.69-1.12,1-1.72a2.75,2.75,0,0,0,.15-.36h0a2.41,2.41,0,0,0,.16-.45,8.58,8.58,0,0,0-.75-7.13c-5.17-10.29-10.49-20.5-15.67-30.78-9.64-19.16-19.11-38.4-28.83-57.52.57,1,1.14,2.08,1.72,3.12,6.67,11.91,13.28,23.86,20,35.78,5.15,9.2,10.5,18.3,15.32,27.66,11.78,22.88,22.91,46.07,34.73,68.93,7,13.55,13.68,27.28,20.52,40.92C683.1,301.65,683.11,302.68,684.24,302.62Z" fill="#031b23"/><path d="M480.83,695.91a1.37,1.37,0,0,1-.12.67c-1.21.46-2.35-.17-3.53-.21-4.8-.16-9.59-.44-14.38-.64q-30.9-1.31-61.81-2.59l-54.87-2.4L292,688.34l-64.44-2.88L173.64,683l-42.17-1.9q-15.09-.67-30.18-1.36a10.35,10.35,0,0,1-3.68-.85,2.2,2.2,0,0,0,0-.45,6.64,6.64,0,0,0-1-2.44q-10.84-19.45-21.7-38.9C67,623,59.16,608.8,51.15,594.71a3.13,3.13,0,0,1-.64-1.87,2.83,2.83,0,0,1,.09-.37H53a119.93,119.93,0,0,1,12.86.37c5.73.26,11.46.48,17.19.81,9.8.57,19.6.89,29.39,1.36,6.22.31,12.44.53,18.65.83,15.21.73,30.43,1.32,45.64,2.07,8.6.43,17.22.68,25.82,1.1,12.58.61,25.17,1.06,37.75,1.77,6.44.37,12.91.58,19.36.8,9.89.34,19.76.9,29.64,1.26,7.81.28,15.62.68,23.42,1,3.33.15,6.68.09,10,.38,7.91.7,15.86.66,23.77,1.19l.19,0c2.51.56,5.05.1,7.57.26.94.06,1.91-.24,2.81.25l.66,0c2.34.55,4.72.1,7.07.26.93.07,1.9-.25,2.8.25a22.54,22.54,0,0,0,6.4.46c5.26,0,10.5.45,15.75.63,3.32.11,6.69,0,10,.39,4.05.46,8.14.08,12.15.53,3.27.37,6.52.18,9.77.39,3.56.24,7.11.61,10.66.92a1.94,1.94,0,0,1,.63.3l-.42.09a8.33,8.33,0,0,1-1,.16c-12.82-.83-25.65-1.28-38.47-1.77-7.33-.29-14.65-.81-22-.91a12.38,12.38,0,0,1-3.52-.6c-3.13-.88-6.33-.21-9.48-.44a5.72,5.72,0,0,1-1.3-.17c-3.27-.65-6.59-.09-9.88-.35a5.34,5.34,0,0,1-.89-.15,5.12,5.12,0,0,0-1.65-.25c-5.6.27-11.17-.37-16.75-.58-11.08-.41-22.15-1-33.23-1.44q-10-.42-20.07-.93c-7.57-.37-15.14-.68-22.71-1-6.61-.27-13.22-.62-19.83-.92-11.15-.51-22.3-1.06-33.46-1.48-6.75-.26-13.51-.51-20.25-.95H178c-3.38-.14-6.77-.29-10.15-.47-3.06-.11-6.11-.23-9.16-.42-1.86,0-3.72-.09-5.57-.21-7.4-.49-14.82-.67-22.23-1l-15.59-.71c-2.82-.11-5.64-.23-8.46-.39h0c-6.23-.27-12.46-.53-18.69-.82s-12.64-.49-18.94-.91h-.08c-2.69-.06-5.37-.07-8.05-.28a57.27,57.27,0,0,1-6.54-.41,8.63,8.63,0,0,0-1,.19A5.87,5.87,0,0,1,51,593l-.16,0q6.56,11.67,13.09,23.33c2.68,4.81,5.3,9.65,8,14.46,3.57,6.4,7.2,12.77,10.77,19.18,3.46,6.2,6.87,12.43,10.3,18.64l5,9c.21.39.45.79.25,1.08l.25,0c3.79.81,7.66.59,11.47.74,8.94.35,17.87.82,26.81,1.19,8.69.35,17.4.59,26.08,1.27,3.74.29,7.5.33,11.25.46,9.1.29,18.2.71,27.29,1.16,12.2.61,24.41.95,36.61,1.72,4.38.27,8.77.41,13.16.58,10,.39,20,.76,29.91,1.37,3.75.23,7.51.36,11.25.45,9.26.23,18.52.74,27.77,1.17,12.28.57,24.57.89,36.84,1.74,3.82.26,7.66.38,11.49.47,9.42.23,18.83.72,28.24,1.15,12.45.58,24.9,1,37.33,1.7,4.86.27,9.74.43,14.61.62,10.45.43,20.91.62,31.34,1.49h.9Z" fill="#202628"/><path d="M424.12,458.54c11.85,0,22,1.15,31.68,4.8,1.72.65,3.4,1.39,5.06,2.18,1.51.72,1.55.93.48,2.29-2.51,3.21-5.06,6.39-7.6,9.58s-5,6.23-7.48,9.38c-.74,1-1.36,1.29-2.58.64-9.34-5-19.43-6.64-29.9-6.23a30,30,0,0,0-12.66,3.29,17.52,17.52,0,0,0-7.1,6.28c-2.69,4.3-2.1,8,1.79,11.25a35,35,0,0,0,7.12,4.39c3.52,1.72,7.09,3.33,10.63,5a48.87,48.87,0,0,1,12.43,8,21,21,0,0,1,7,12.27,22.92,22.92,0,0,1-1,10.87,50,50,0,0,1-16.55,23.62,73.91,73.91,0,0,1-32.56,15,104.24,104.24,0,0,1-49.12-1.66,49.88,49.88,0,0,1-10.91-4.28c-2-1.13-2.07-1.17-.73-3q7.14-9.48,14.32-18.93c1.3-1.71,1.34-1.7,3.32-.62a66.36,66.36,0,0,0,33.9,8,34.76,34.76,0,0,0,13.05-2.79,20.7,20.7,0,0,0,8.9-7.07,13.57,13.57,0,0,0,2.31-5.22,7.3,7.3,0,0,0-1.8-6.66,22,22,0,0,0-5.44-4.29,77.43,77.43,0,0,0-9.49-4.58,56.67,56.67,0,0,1-14.48-8.36c-4.28-3.58-7.53-7.82-8.54-13.48a23,23,0,0,1,1.53-12.91c4-9.78,10.7-17.37,19.32-23.28,9.86-6.77,20.89-10.62,32.62-12.54A71,71,0,0,1,424.12,458.54Z" fill="#fcc751"/><path d="M251.32,578.17a94.55,94.55,0,0,1-32.14-4.95,43.28,43.28,0,0,1-7.66-3.38c-1-.58-1.13-1.15-.41-2.08q7.59-9.9,15.11-19.84a1.43,1.43,0,0,1,2.2-.48,63.87,63.87,0,0,0,24,7.85c7,.87,13.87,1,20.65-1.18a23.17,23.17,0,0,0,11-7,14.47,14.47,0,0,0,2.78-4.73,8.32,8.32,0,0,0-2-9.25A26.51,26.51,0,0,0,279,529c-3.22-1.8-6.63-3.18-10-4.67-5.66-2.5-11-5.52-15.38-10-6-6.09-7.76-13.26-5.37-21.39,2-6.9,6-12.68,10.85-17.88,7-7.47,15.55-12.42,25-16a87.06,87.06,0,0,1,34.58-5.4,84,84,0,0,1,25.4,4.35c2,.72,4,1.6,6,2.48,1.72.77,1.73.87.54,2.37-4.23,5.33-8.47,10.63-12.71,15.95-.85,1.06-1.73,2.1-2.53,3.19a1.34,1.34,0,0,1-2,.41c-7.65-4.24-16-5.89-24.61-6.38A36.18,36.18,0,0,0,292,478.68a20.3,20.3,0,0,0-7,4.88,12.24,12.24,0,0,0-3.07,5.61,6.89,6.89,0,0,0,1.56,6.25,16.74,16.74,0,0,0,4,3.36,94.13,94.13,0,0,0,12.38,6.3,73.61,73.61,0,0,1,10.17,5.36,38.7,38.7,0,0,1,6,4.78c6.06,5.94,7.79,13,5.53,21.09-2.78,9.88-8.53,17.81-16.28,24.35-9.62,8.13-20.87,12.87-33.09,15.48A92.12,92.12,0,0,1,251.32,578.17Z" fill="#fcc751"/><path d="M198.78,549.38a4.13,4.13,0,0,1-.32,2.56c-1.3,5.36-2.71,10.69-3.93,16.06a3.83,3.83,0,0,1-3.26,3.26,113.4,113.4,0,0,1-15.86,2.45,139.94,139.94,0,0,1-24,.08c-8.56-.78-16.95-2.28-24.85-5.84a40.4,40.4,0,0,1-11.87-8c-7.09-7-9.79-15.58-9.12-25.31,1.06-15.34,7.33-28.65,16.36-40.81,16.49-22.22,38.56-35.79,65.35-42a112.61,112.61,0,0,1,50.87,0,43,43,0,0,1,8.4,2.81c2.76,1.25,2.76,1.25,1,3.57q-5.92,7.69-11.88,15.38c-.92,1.19-1.59,3-2.93,3.36s-2.77-.91-4.19-1.41a66.63,66.63,0,0,0-28.07-3.66c-10.27.86-20,3.51-28.81,8.94-14.83,9.17-24.84,22.12-29.56,39a29.67,29.67,0,0,0-.92,12.34c1,6.79,4.61,11.61,10.54,14.82a40.32,40.32,0,0,0,14.17,4.22c10.35,1.35,20.58.33,30.75-1.68A3.8,3.8,0,0,1,198.78,549.38Z" fill="#fcc751"/><path d="M460,594.16l-.08.13-.14.2c-6.29,9.23-15.06,14.28-26.15,15.43l-.71.11-.42.09-.21-.39a1.28,1.28,0,0,1,1.28-.45,24.51,24.51,0,0,0,9.9-2.31,36,36,0,0,0,11.4-7.27,59.69,59.69,0,0,0,4.65-5.69A1.23,1.23,0,0,1,460,594.16Z" fill="#020d12"/><path d="M508,680.42a2.87,2.87,0,0,1-.33,1.33,20.8,20.8,0,0,1-5.33,6.38,37.23,37.23,0,0,1-17.05,8.24,18.09,18.09,0,0,1-4.53.21l-.37-.66h.49c11.13-.2,19.72-5.28,26.25-14.25l.53-.72Z" fill="#020d12"/><path d="M461.16,592.05c-.1.22-.21.43-.32.64q-.39.75-.84,1.47l-.08.13-.14.2c-.08-.16-.17-.32-.26-.48a12.22,12.22,0,0,1,1.48-2.49C461.05,591.7,461.11,591.87,461.16,592.05Z" fill="#25292b"/><path d="M509.49,678.37a7,7,0,0,1-1.87,3.38,5.46,5.46,0,0,0,0-.81l.34-.52a9,9,0,0,0,1-2,2,2,0,0,0,.08-.26A1.75,1.75,0,0,0,509.49,678.37Z" fill="#25292b"/><path d="M635.37,220l.26.47h0a2.75,2.75,0,0,1-.15.36c-.27.6-.64,1.15-1,1.72a1.82,1.82,0,0,0-.15.27,1.43,1.43,0,0,0-.48-.29h0Z" fill="#232527"/><path d="M682.79,309.3l-.27-.49a4.71,4.71,0,0,0,.31-.73c.19-.54.33-1.11.55-1.65,0,0,0,0,0,0a1.25,1.25,0,0,1,.16-.22l.17.28A3.49,3.49,0,0,1,682.79,309.3Z" fill="#232527"/><path d="M449.85,218.59a1.53,1.53,0,0,1,.15-1.31c1.42-3,2.88-6.06,4.26-9.12a2.26,2.26,0,0,1,2.41-1.51c5.68.22,11.34.55,16.8,2.33a21.52,21.52,0,0,1,8.49,4.79,14.21,14.21,0,0,1,4.3,11.74c-.34,5.14-2.33,9.76-4.65,14.25-3.16,6.12-6.94,11.86-10.63,17.66-2.87,4.53-5.7,9.07-8.15,13.84a33.33,33.33,0,0,0-2.93,7.32c-1.21,5,.55,8.42,5.38,10.25a23.7,23.7,0,0,0,7,1.42c1.86.11,2,.31,1.19,2-1.19,2.61-2.5,5.18-3.65,7.81a2.35,2.35,0,0,1-2.6,1.58,32.48,32.48,0,0,0-8.33.84,24.4,24.4,0,0,0-16.3,12,62.46,62.46,0,0,0-5.11,12.38c-2.11,6.54-4.07,13.12-6.31,19.62a53.86,53.86,0,0,1-12.56,20.74c-7.37,7.44-16.41,11.49-26.63,13.13a73,73,0,0,1-17,.54c-1.56-.12-1.68-.29-1-1.75,1.34-3,2.78-5.93,4.11-8.93a2.41,2.41,0,0,1,2.7-1.44,47.65,47.65,0,0,0,9.09-.3,26.46,26.46,0,0,0,18.23-11.27,51.81,51.81,0,0,0,6.33-12.86c2.18-6,3.7-12.23,5.74-18.28a55.61,55.61,0,0,1,8.72-17,35.74,35.74,0,0,1,20.77-13.29c.7-.15,1.39-.35,2.07-.53.16-.76-.46-.73-.85-.92-.79-.39-1.6-.74-2.36-1.18-4.75-2.77-6.57-7-6-12.33a34.2,34.2,0,0,1,3.64-11.36c3-6,6.81-11.56,10.4-17.23a120.42,120.42,0,0,0,8.44-14.76,22.21,22.21,0,0,0,2.31-9,8,8,0,0,0-4.95-7.79,19.68,19.68,0,0,0-7-1.64C453.56,218.92,451.67,218.75,449.85,218.59Z" fill="#093348"/><path d="M289.63,293.48a1.58,1.58,0,0,1,.16-1.56c1.21-2.61,2.49-5.19,3.64-7.82a2.53,2.53,0,0,1,2.77-1.75,32.4,32.4,0,0,0,8.09-.74A23.25,23.25,0,0,0,321,269.15a92.49,92.49,0,0,0,6.14-15.59c2.25-7.07,4.19-14.25,7.11-21.1,4.82-11.29,12.57-19.75,23.91-24.69a55.66,55.66,0,0,1,21-4.42,67.89,67.89,0,0,1,9.35.28c1,.11,1.29.49.87,1.39-1.49,3.18-3,6.35-4.49,9.54-.49,1.07-1.36,1.19-2.38,1.16-2.32-.05-4.65-.17-7-.05a25.37,25.37,0,0,0-21.33,12.65,73.44,73.44,0,0,0-7.82,19,115.82,115.82,0,0,1-7.13,19.56C335.76,274,331,280,324,284a40.71,40.71,0,0,1-11.17,4.22,2.47,2.47,0,0,0-1.48.6,4.3,4.3,0,0,0,1.79,1c6.16,2.7,8.64,7.45,7.53,14.12a37.74,37.74,0,0,1-3.35,9.71A127.55,127.55,0,0,1,307.87,330,130.28,130.28,0,0,0,299,345a34.49,34.49,0,0,0-2.83,7.88c-1.31,6.19,1.21,10.29,7.37,11.86a26.26,26.26,0,0,0,5.93.76c1,0,1.92.06,2.88.13s1.32.52.9,1.43q-2.3,4.89-4.6,9.76a1.85,1.85,0,0,1-2,1c-6.07-.33-12.14-.6-17.95-2.69a19.94,19.94,0,0,1-7.74-4.65,13.28,13.28,0,0,1-3.82-8.56,27.93,27.93,0,0,1,2.2-12.41c2.4-6.13,5.82-11.73,9.33-17.27,3.84-6.07,7.85-12.05,11.3-18.38a30.21,30.21,0,0,0,3.39-8.66c1-5-.93-8.45-5.66-10.22a21.08,21.08,0,0,0-4.9-1.1C291.69,293.8,290.6,293.62,289.63,293.48Z" fill="#093348"/></svg>