<svg width="112" height="112" viewBox="0 0 112 112" fill="none" xmlns="http://www.w3.org/2000/svg">
<path fill-rule="evenodd" clip-rule="evenodd" d="M56 112C86.928 112 112 86.9279 112 56C112 25.072 86.928 0 56 0C25.072 0 0 25.072 0 56C0 86.9279 25.072 112 56 112ZM69.6594 41.6811C72.9311 41.6811 75.5832 39.0289 75.5832 35.7572C75.5832 32.4856 72.9311 29.8334 69.6594 29.8334C66.3878 29.8334 63.7356 32.4856 63.7356 35.7572C63.7356 39.0289 66.3878 41.6811 69.6594 41.6811ZM48.7316 45.5656H75.8486V73.2801H80.4585V82.167H58.9302V73.2801H63.5313V54.5186H48.7272V73.2801H54.1263V82.1757H31.8794V73.2889H36.487V54.5274H31.5487V45.6406H36.487V44.1171C36.487 32.135 46.9546 30.5564 52.6162 30.5564C54.0687 30.5516 55.5201 30.6392 56.9615 30.8188V40.4309C56.9615 40.4309 56.0378 40.2325 53.9984 40.2325C52.2215 40.2325 48.7316 40.2987 48.7316 43.7886V45.5656Z" fill="white"/>
</svg>
