<svg width="66" height="64" viewBox="0 0 66 64" fill="none" xmlns="http://www.w3.org/2000/svg">
<path fill-rule="evenodd" clip-rule="evenodd" d="M33 64C51.2254 64 66 49.6731 66 32C66 14.3269 51.2254 0 33 0C14.7746 0 0 14.3269 0 32C0 49.6731 14.7746 64 33 64ZM41.0493 23.8178C42.9773 23.8178 44.5401 22.3022 44.5401 20.4327C44.5401 18.5632 42.9773 17.0476 41.0493 17.0476C39.1214 17.0476 37.5585 18.5632 37.5585 20.4327C37.5585 22.3022 39.1214 23.8178 41.0493 23.8178ZM28.7168 26.0375H44.6965V41.8743H47.413V46.9526H34.7267V41.8743H37.4381V31.1535H28.7142V41.8743H31.8958V46.9576H18.7861V41.8794H21.5013V31.1585H18.5912V26.0803H21.5013V25.2098C21.5013 18.3628 27.6697 17.4608 31.006 17.4608C31.8619 17.458 32.7172 17.5081 33.5666 17.6107V23.1034C33.5666 23.1034 33.0223 22.99 31.8205 22.99C30.7734 22.99 28.7168 23.0278 28.7168 25.0221V26.0375Z" fill="#FFDA77"/>
</svg>
