<svg width="125" height="122" viewBox="0 0 125 122" fill="none" xmlns="http://www.w3.org/2000/svg">
<path fill-rule="evenodd" clip-rule="evenodd" d="M102.865 5H22.1354C12.6621 5 5 12.6626 5 22.1581V99.8419C5 109.337 12.6621 117 22.1354 117H102.865C112.338 117 120 109.337 120 99.8419V22.1581C120 12.6626 112.338 5 102.865 5ZM102.865 0H22.1354C9.89583 0 0 9.90598 0 22.1581V99.8419C0 112.094 9.89583 122 22.1354 122H102.865C115.104 122 125 112.094 125 99.8419V22.1581C125 9.90598 115.104 0 102.865 0Z" fill="#FFF8E4"/>
<path fill-rule="evenodd" clip-rule="evenodd" d="M76.9268 85.1394C77.0831 85.7129 76.9268 85.9736 76.406 85.9736H65.5206C65.156 86.0257 64.7914 85.7651 64.6873 85.4001L60.4164 72.9916H41.0414L37.0831 85.2437C36.9789 85.7129 36.5623 86.0257 36.0935 85.9736H26.3018C25.7289 85.9736 25.5727 85.6608 25.7289 85.0351L42.4998 36.7044C42.5453 36.5524 42.5909 36.396 42.6377 36.2352C42.7515 35.8442 42.873 35.4271 43.0206 34.9839C43.2289 33.889 43.3331 32.742 43.3331 31.595C43.281 31.3343 43.4893 31.0736 43.7498 31.0215H57.2393C57.656 31.0215 57.8643 31.1779 57.9164 31.4386L76.9268 85.1394ZM59.8321 30.8568L78.837 84.542L78.8565 84.6137C78.9603 84.9947 79.1726 85.9321 78.6213 86.8235C77.9813 87.8585 76.8954 87.9736 76.406 87.9736H65.6196C64.2619 88.0764 63.1405 87.148 62.7846 86.0175L58.9897 74.9916H42.4971L39.0073 85.7935C38.6618 87.0981 37.4528 88.0665 36.0119 87.9736H26.3018C25.7204 87.9736 24.6327 87.8077 24.0139 86.746C23.5048 85.8723 23.6867 84.9581 23.7885 84.5505L23.8102 84.4639L40.596 36.09C40.6302 35.9752 40.6669 35.849 40.7061 35.7143C40.8124 35.3496 40.9369 34.9221 41.0789 34.4861C41.2402 33.5971 41.3256 32.6626 41.3326 31.7209C41.1992 30.3135 42.289 29.2742 43.3571 29.0604L43.5515 29.0215H57.2393C57.6686 29.0215 58.2523 29.0976 58.8019 29.4536C59.3488 29.8079 59.6819 30.3221 59.8321 30.8568ZM54.1996 59.2967L54.196 59.2858C53.7204 57.8577 53.2472 56.3314 52.7773 54.764C52.5161 53.953 52.2682 53.1563 52.0237 52.3705L52.0224 52.3661C51.7745 51.5696 51.5301 50.784 51.2732 49.987C51.0577 49.3181 50.8498 48.6634 50.6501 48.0166C50.3612 48.9423 50.0688 49.8939 49.772 50.8593C49.2845 52.4459 48.7854 54.0698 48.2716 55.6779C47.8159 57.3375 47.34 58.9181 46.8559 60.4078H54.576C54.4568 60.0483 54.3322 59.6804 54.2033 59.3076L54.1996 59.2967ZM56.6802 60.4078C56.9103 61.1213 57.1171 61.797 57.2914 62.4078H44.0623C44.2922 61.7633 44.5222 61.0962 44.7508 60.4078C45.2989 58.7575 45.8394 56.985 46.3539 55.1087C46.8699 53.4947 47.3658 51.8808 47.8542 50.2917C48.1546 49.314 48.4522 48.3456 48.7498 47.3924C49.0669 46.4174 49.3544 45.4424 49.6167 44.4674C49.9547 43.2113 50.2506 41.9552 50.5138 40.6991C50.5161 40.6883 50.5183 40.6775 50.5206 40.6668H50.6248C50.627 40.6745 50.6293 40.6822 50.6315 40.69C50.8325 41.3805 51.0336 42.1027 51.2435 42.8566C51.3873 43.3729 51.5352 43.9041 51.69 44.4502C51.7167 44.5442 51.7435 44.6386 51.7706 44.7334C52.1873 46.2454 52.656 47.7574 53.1768 49.3736C53.4373 50.1817 53.6847 50.9768 53.932 51.7719C54.1794 52.567 54.4268 53.3621 54.6873 54.1702C55.156 55.7343 55.6248 57.2463 56.0935 58.654C56.3008 59.2533 56.4978 59.8424 56.6802 60.4078ZM82.4761 39.7203L82.4335 39.674C80.8869 37.9913 80.0829 35.784 80.1345 33.5238C80.0828 31.2193 80.9735 29.0255 82.6256 27.4406C84.2715 25.8617 86.4443 25.0591 88.6456 25.0591C91.123 25.0591 93.244 25.8412 94.8312 27.5022L94.8458 27.5175L94.8602 27.5332C96.3443 29.1538 97.1563 31.3043 97.1046 33.5247C97.1561 35.7889 96.3478 38.0122 94.7245 39.7049C93.1271 41.3728 90.818 42.2568 88.513 42.1467C86.259 42.1903 84.1151 41.2927 82.5215 39.7639L82.4761 39.7203ZM88.5414 40.1454C90.3123 40.2497 92.0831 39.5719 93.281 38.3206C94.531 37.0172 95.156 35.2967 95.1039 33.524C95.156 31.8035 94.531 30.1352 93.3852 28.8839C92.2393 27.6847 90.6768 27.0591 88.6456 27.0591C86.9268 27.0591 85.2602 27.6847 84.0102 28.8839C82.7602 30.083 82.0831 31.7514 82.1352 33.524C82.0831 35.2967 82.7081 37.0172 83.906 38.3206C85.156 39.5198 86.8227 40.1975 88.5414 40.1454ZM80.7081 85.4001V45.2548C80.7081 44.7945 80.7883 43.9872 81.4161 43.3218C82.071 42.6277 82.9017 42.5249 83.3852 42.5249H93.6977C94.2988 42.5249 95.0962 42.702 95.7032 43.3811C96.2716 44.017 96.3748 44.7668 96.3748 45.2548V85.4001C96.3748 85.8587 96.3049 86.6249 95.7671 87.2899C95.1519 88.0506 94.3047 88.2343 93.6977 88.2343H83.4893C82.8202 88.2343 82.0252 88.0206 81.4229 87.3573C80.8496 86.7261 80.7081 85.9681 80.7081 85.4001ZM82.7081 45.2548V85.4001C82.7081 85.9215 82.9685 86.2343 83.4893 86.2343H93.6977C94.1664 86.2343 94.3748 85.9736 94.3748 85.4001V45.2548C94.3748 44.7856 94.1664 44.5249 93.6977 44.5249H83.3852C82.9164 44.5249 82.7081 44.7334 82.7081 45.2548Z" fill="#FFF8E4"/>
</svg>
