<svg width="98" height="96" viewBox="0 0 98 96" fill="none" xmlns="http://www.w3.org/2000/svg">
<path fill-rule="evenodd" clip-rule="evenodd" d="M48.8557 0C21.8629 0 0 21.8629 0 48.8557C0 70.4744 13.9849 88.7342 33.4051 95.2076C35.8479 95.6351 36.7639 94.1694 36.7639 92.8869C36.7639 91.7266 36.7029 87.8792 36.7029 83.7876C24.4279 86.0471 21.2522 80.7951 20.2751 78.047C19.7255 76.6424 17.3438 72.3065 15.2674 71.1461C13.5575 70.2301 11.1147 67.9705 15.2063 67.9095C19.0537 67.8484 21.8019 71.4515 22.7179 72.9172C27.1149 80.3066 34.1379 78.2302 36.9471 76.9478C37.3746 73.7721 38.6571 71.6347 40.0617 70.4133C29.1913 69.1919 17.8323 64.9781 17.8323 46.2908C17.8323 40.9777 19.7255 36.5807 22.84 33.1608C22.3515 31.9394 20.6415 26.9317 23.3286 20.2141C23.3286 20.2141 27.4203 18.9316 36.7639 25.2218C40.6724 24.1225 44.8251 23.5729 48.9779 23.5729C53.1306 23.5729 57.2833 24.1225 61.1918 25.2218C70.5354 18.8705 74.6271 20.2141 74.6271 20.2141C77.3142 26.9317 75.6042 31.9394 75.1157 33.1608C78.2302 36.5807 80.1234 40.9167 80.1234 46.2908C80.1234 65.0392 68.7034 69.1919 57.833 70.4133C59.604 71.94 61.1307 74.8714 61.1307 79.4516C61.1307 85.9861 61.0697 91.2381 61.0697 92.8869C61.0697 94.1694 61.9857 95.6961 64.4285 95.2076C83.7265 88.7342 97.7114 70.4133 97.7114 48.8557C97.7114 21.8629 75.8485 0 48.8557 0Z" fill="#FFE9AE"/>
</svg>
