<svg width="840" height="154" viewBox="0 0 840 154" fill="none" xmlns="http://www.w3.org/2000/svg">
<path d="M34.0824 109.203H33.6239V108.439H34.0824V109.203ZM33.6239 111.19H33.3182V110.426H33.6239V111.19ZM11.7684 103.243H11.4627V102.479H11.7684V103.243ZM66.3307 11.8472C65.8213 13.4774 64.7005 14.2925 62.9684 14.2925C62.7646 14.2925 62.357 13.9869 61.7457 13.3755C61.1343 12.7642 60.6758 12.3566 60.3701 12.1528C60.2683 11.032 60.1154 10.4716 59.9116 10.4716C59.7079 10.4716 59.5041 10.5226 59.3003 10.6245C59.1984 10.7264 59.0456 10.7773 58.8418 10.7773C58.1286 10.7773 57.1097 10.2679 55.7851 9.24895C55.6832 8.63761 56.0907 7.51681 57.0078 5.88656C57.2115 5.27522 57.6191 4.3582 58.2304 3.13552C58.638 2.72796 59.0456 2.52418 59.4531 2.52418C60.2683 2.52418 61.2362 2.88079 62.357 3.59402C63.4778 4.20536 64.0892 5.07144 64.191 6.19223C63.9873 6.4979 63.9873 6.90547 64.191 7.41492C64.3948 8.12815 64.4967 8.53571 64.4967 8.6376C64.4967 8.7395 64.3439 9.04517 64.0382 9.55459C63.7325 10.0641 63.5797 10.4207 63.5797 10.6245V11.3887C63.7835 11.3887 64.0382 11.2868 64.3439 11.083C64.6496 10.8792 64.8533 10.7773 64.9552 10.7773C65.2609 10.7773 65.7194 11.1339 66.3307 11.8472ZM46.4621 10.4716C45.4432 11.5924 44.6281 12.1528 44.0167 12.1528C43.4054 12.1528 43.0997 12.1528 43.0997 12.1528C42.9978 11.2358 42.794 10.7773 42.4884 10.7773C42.2846 10.7773 42.1317 10.7773 42.0298 10.7773C41.928 10.7773 41.877 10.7773 41.877 10.7773C42.4884 10.4716 42.8959 9.96219 43.0997 9.24895L43.711 9.70749C43.6092 9.70749 44.0167 9.40179 44.9337 8.79045H45.8507C45.8507 8.99423 46.0545 9.55459 46.4621 10.4716ZM46.9206 12.7642L46.6149 13.6812C46.6149 13.6812 46.3602 13.2227 45.8507 12.3057C46.2583 12.3057 46.6149 12.4585 46.9206 12.7642ZM47.5319 18.8776C47.5319 18.8776 47.0734 19.0305 46.1564 19.3361C46.1564 18.9286 46.4621 18.6229 47.0734 18.4191C47.0734 18.4191 47.2263 18.5719 47.5319 18.8776ZM41.4185 16.8908H41.1128V16.2794H41.4185V16.8908ZM29.4973 13.9869L28.886 14.1397V13.834L29.4973 13.6812V13.9869ZM49.0603 54.4884L48.9075 54.6412L48.6018 54.3355L48.7546 54.1827L49.0603 54.4884ZM4.43223 30.1875H3.97374V29.5761H4.43223V30.1875ZM57.7719 15.3624C56.8549 17.4002 55.9889 19.6418 55.1737 22.0872V22.5457C55.3775 22.4438 55.887 21.9853 56.7021 21.1702C56.9059 21.3739 57.0078 21.6287 57.0078 21.9343C57.0078 22.0362 56.4983 24.1759 55.4794 28.3534C54.8681 29.5761 54.0529 31.3592 53.034 33.7027C52.6265 35.5367 51.8113 38.2368 50.5887 41.803C50.283 42.3124 49.9264 43.0257 49.5188 43.9427C48.0923 49.0372 47.0734 53.1128 46.4621 56.1696C46.564 56.2715 46.7678 56.3224 47.0734 56.3224C47.481 56.3224 47.7357 56.1696 47.8376 55.8639C48.1433 55.0488 49.6716 50.7694 52.4227 43.0257C52.7284 42.72 52.9321 42.6181 53.034 42.72C52.7284 44.4521 52.3717 46.0315 51.9642 47.4579C48.4999 57.9526 46.3093 67.7851 45.3922 76.9552C45.2903 77.0571 45.1375 77.21 44.9337 77.4137C45.0356 76.1911 45.2903 74.4589 45.6979 72.2173L45.5451 70.5361C44.2205 75.325 43.0488 82.4064 42.0298 91.7803C42.0298 92.086 41.7751 92.4426 41.2657 92.8502C41.0619 93.5634 41.0619 94.1747 41.2657 94.6842C41.0619 92.1369 41.0619 89.0293 41.2657 85.3612C41.3676 83.8329 41.3676 83.0177 41.2657 82.9158C41.5713 82.2026 41.5713 81.6422 41.2657 81.2346C41.2657 81.1327 41.4695 80.878 41.877 80.4705C41.877 80.2667 41.6732 80.1648 41.2657 80.1648C41.2657 80.0629 41.3676 80.012 41.5713 80.012C41.7751 79.9101 41.928 79.8082 42.0298 79.7063C41.928 79.6044 41.7242 79.2478 41.4185 78.6364V77.8723C41.5204 77.8723 41.6732 78.0251 41.877 78.3308C42.5902 77.6175 42.5902 76.8533 41.877 76.0382C41.877 75.7325 42.0299 75.3759 42.3355 74.9684C42.4374 74.6627 42.3355 74.4589 42.0298 74.357C42.2336 71.8098 42.5393 69.2116 42.9469 66.5624C42.845 66.4605 42.7431 66.4096 42.6412 66.4096C42.3355 67.9379 42.0299 69.2625 41.7242 70.3833C41.5204 70.4852 41.2657 70.7909 40.96 71.3003C40.8581 72.523 40.7053 73.491 40.5015 74.2042L40.8072 74.5099C41.2147 74.1023 41.4185 73.8985 41.4185 73.8985C41.2147 76.242 40.8072 79.5025 40.1958 83.68C40.3996 84.8008 40.3996 85.6669 40.1958 86.2782C40.0939 86.3801 39.7883 86.5329 39.2788 86.7367C39.5845 87.2462 39.9411 87.5009 40.3487 87.5009C40.3487 88.0104 40.3996 88.316 40.5015 88.4179C40.5015 88.4179 40.3487 88.4179 40.043 88.4179C39.8392 88.316 39.6864 88.2651 39.5845 88.2651C39.1769 88.7745 39.075 89.8953 39.2788 91.6275C38.9731 92.1369 38.8203 92.6973 38.8203 93.3087C38.8203 94.3276 39.0241 95.1936 39.4316 95.9069C39.8392 95.6012 40.2977 95.5503 40.8072 95.754V97.4352C40.2977 97.3333 39.8901 96.9767 39.5845 96.3654C39.4826 96.4673 39.4316 96.6201 39.4316 96.8239C39.4316 96.9258 39.3807 97.0277 39.2788 97.1296L41.877 113.024C41.877 113.432 41.6732 113.941 41.2657 114.553C40.8581 114.043 40.6034 113.33 40.5015 112.413C40.2977 112.209 39.992 111.903 39.5845 111.496C39.2788 111.088 39.075 110.528 38.9731 109.815C38.9731 109.815 38.8712 109.713 38.6675 109.509C38.6675 109.509 38.6675 109.56 38.6675 109.662C38.6675 109.866 38.5656 109.967 38.3618 109.967C37.9542 109.967 37.6995 109.967 37.5976 109.967C37.6995 110.477 37.8014 111.241 37.9033 112.26C38.1071 113.279 38.2599 114.043 38.3618 114.553C37.9542 114.349 37.6486 113.992 37.4448 113.483C37.3429 113.177 37.3429 112.922 37.4448 112.719C37.4448 112.515 37.2919 112.107 36.9863 111.496C36.7825 110.986 36.6806 110.528 36.6806 110.12C36.6806 109.713 36.6297 109.05 36.5278 108.133C36.1202 106.707 35.6617 104.567 35.1522 101.714C35.0503 101.511 35.0503 101.103 35.1522 100.492C35.2541 99.7783 35.3051 99.3713 35.3051 99.2693C35.3051 98.4541 35.2541 97.3843 35.1522 96.0597C34.6428 91.6784 34.3881 88.9783 34.3881 87.9594C34.3881 85.9216 34.3881 84.0876 34.3881 82.4573C34.4899 80.8271 34.5409 79.961 34.5409 79.8591C33.8277 81.5913 33.522 82.8649 33.6239 83.68C33.6239 83.0687 33.471 82.2026 33.1654 81.0818C32.8597 81.1837 32.7069 81.5403 32.7069 82.1517C32.9106 83.1706 33.1654 83.8328 33.471 84.1385C33.471 84.1385 33.3692 84.1895 33.1654 84.2914C32.9616 84.3932 32.8088 84.4442 32.7069 84.4442C32.7069 83.6291 32.554 82.3554 32.2484 80.6233C31.8408 81.7441 31.637 83.0177 31.637 84.4442C31.637 84.5461 31.7389 85.3612 31.9427 86.8896C32.1465 88.316 32.2484 89.3349 32.2484 89.9463C32.2484 91.8822 32.1465 92.4935 31.9427 91.7803C32.0446 92.1879 32.2993 93.6143 32.7069 96.0597C32.4012 95.8559 32.2484 95.8559 32.2484 96.0597C32.2484 95.6522 32.5031 96.2126 33.0125 97.7409C32.7069 97.4352 32.554 97.5881 32.554 98.1994C32.554 98.3013 32.8088 99.2693 33.3182 101.103C33.9296 102.937 34.2352 103.956 34.2352 104.16C34.2352 104.363 34.1843 104.618 34.0824 104.924C33.9805 105.23 33.9295 105.484 33.9295 105.688C33.6239 105.688 33.2163 105.586 32.7069 105.382C33.1144 105.382 33.471 105.281 33.7767 105.077C33.2673 104.669 32.7578 103.752 32.2484 102.326C32.2484 102.224 32.2484 103.039 32.2484 104.771C32.0446 104.465 31.3313 102.173 30.1087 97.8937C29.7011 96.6711 29.2935 95.4484 28.886 94.2257C29.2935 94.0219 29.4973 93.8691 29.4973 93.7672C29.2935 93.4615 29.1407 93.3087 29.0388 93.3087C28.835 93.3087 28.7331 93.4615 28.7331 93.7672C28.7331 93.6653 28.7841 93.5634 28.886 93.4615C28.886 93.3596 28.886 93.2068 28.886 93.003C28.886 92.9011 28.7841 92.6464 28.5803 92.2388C28.4784 91.8313 28.4784 91.4746 28.5803 91.169C27.7652 90.252 27.3576 89.3859 27.3576 88.5708C27.3576 89.0802 27.6633 88.4689 28.2746 86.7367L27.969 86.4311C27.5614 86.4311 27.3576 86.482 27.3576 86.5839C27.3576 85.7688 27.5104 84.5461 27.8161 82.9158C27.6123 83.6291 27.5104 82.763 27.5104 80.3176C27.5104 78.6874 27.5614 76.1401 27.6633 72.6758C27.6633 69.2116 27.6633 66.6643 27.6633 65.034C27.4595 65.2378 27.3576 65.4925 27.3576 65.7982C27.2557 65.3907 27.4595 64.6774 27.969 63.6585C27.7652 63.6585 27.4595 63.5566 27.0519 63.3528C27.5614 61.6207 27.6123 60.4999 27.2048 59.9905C27.2048 60.0923 27.4086 59.9395 27.8161 59.532C27.7142 59.532 27.5614 59.532 27.3576 59.532C27.2557 59.4301 27.1538 59.3282 27.0519 59.2263C27.0519 59.3282 27.001 59.481 26.8991 59.6848C26.7972 59.8886 26.7463 60.0414 26.7463 60.1433C26.2368 59.8376 25.7783 59.8886 25.3707 60.2961C25.3707 59.8886 25.3198 59.6848 25.2179 59.6848C25.4217 59.6848 25.2689 59.7867 24.7594 59.9905C23.7405 60.0923 22.6706 60.2452 21.5498 60.449C20.8366 60.3471 19.8177 60.5509 18.4931 61.0603C18.4931 61.2641 18.2384 61.5698 17.729 61.9773C17.6271 62.3849 17.678 62.7924 17.8818 63.2C17.8818 64.7284 17.729 66.919 17.4233 69.772C17.2195 71.4022 16.9648 73.7966 16.6591 76.9552C16.4553 78.2798 16.3534 83.2215 16.3534 91.7803C16.3534 91.7803 16.5063 93.003 16.8119 95.4484C16.9138 96.4673 17.0667 98.0466 17.2704 100.186C17.4742 102.326 17.5252 104.109 17.4233 105.535C17.4233 107.777 17.678 109.152 18.1875 109.662C18.1875 109.662 18.0856 109.611 17.8818 109.509C17.678 109.407 17.4233 109.662 17.1176 110.273C16.9138 110.171 16.761 110.12 16.6591 110.12C16.5572 108.388 16.3534 105.892 16.0478 102.631C16.0478 102.529 15.9968 102.479 15.8949 102.479C15.9968 101.46 15.793 100.084 15.2836 98.3523L14.9779 98.0466C14.0609 101.103 13.6024 102.326 13.6024 101.714C13.6024 101.918 13.7552 103.192 14.0609 105.535C14.3666 107.879 14.5194 109.152 14.5194 109.356V110.12C14.1118 110.12 13.8571 110.171 13.7552 110.273C13.2458 108.643 12.8382 105.23 12.5325 100.033C12.4306 99.8293 12.2778 99.5753 12.074 99.2693C11.4627 99.6773 11.3098 100.441 11.6155 101.562C11.208 100.848 11.0042 99.6263 11.0042 97.8937C11.0042 96.1616 10.8513 94.837 10.5457 93.92C10.24 93.92 10.0362 94.0728 9.93431 94.3785C9.93431 94.5823 9.93431 94.7351 9.93431 94.837C9.73055 94.0219 9.62866 93.003 9.62866 91.7803C9.32299 91.5765 9.17016 91.4746 9.17016 91.4746C8.96637 92.5954 8.96637 93.92 9.17016 95.4484C9.27205 96.773 9.32299 97.2824 9.32299 96.9767C9.32299 96.9767 9.62866 96.9767 10.24 96.9767C10.7494 99.7273 10.9532 102.173 10.8513 104.313V107.064C10.4438 107.064 10.1891 107.013 10.0872 106.911C9.9853 106.401 9.7815 103.243 9.47583 97.4352C9.17016 97.9447 8.81354 98.1994 8.40598 98.1994C8.2022 98.1994 7.79462 97.9956 7.18328 97.5881C7.08139 95.2446 6.82666 93.2068 6.41911 91.4746L6.11343 91.3218C6.01154 91.9331 6.06248 92.3917 6.26626 92.6973C5.9606 93.6143 5.8587 95.754 5.96059 99.1164C5.45114 97.9956 5.34926 96.4163 5.65492 94.3785C5.34926 94.1747 5.19641 94.0729 5.19641 94.0729L4.73792 93.92C5.04358 91.8822 4.78886 87.2462 3.97374 80.012C3.66807 80.3176 3.41334 80.4705 3.20956 80.4705C3.20956 79.961 3.26049 79.1968 3.36239 78.1779C3.26049 77.5666 3.10767 76.6496 2.90389 75.4269C2.7001 75.5288 2.59821 75.7325 2.59821 76.0382C2.70011 79.9101 3.05672 86.5839 3.66807 96.0597L3.36239 97.4352L2.29254 85.0555C1.78309 86.0744 1.52836 86.482 1.52836 86.2782C1.52836 86.482 1.63024 86.6348 1.83403 86.7367C1.83403 88.7745 1.98687 91.5765 2.29254 95.1427C2.08876 94.2257 1.52836 88.5198 0.611344 78.0251C0.713234 76.3948 0.713234 73.8985 0.611344 70.5361L0 63.9642C0 63.9642 0.101891 62.3339 0.305672 59.0734C0.407563 55.2016 0.967965 48.7316 1.98686 39.6633C2.49632 36.7085 3.26049 33.7536 4.2794 30.7988L1.68119 50.209H1.98686C2.19064 49.6995 2.49632 48.8844 2.90389 47.7636C2.90389 48.3749 2.90389 48.6806 2.90389 48.6806C3.00578 48.6806 3.15861 48.4768 3.36239 48.0693C3.56617 47.0504 3.66807 46.2862 3.66807 45.7767C3.76996 45.5729 3.87185 45.2163 3.97374 44.7069C4.68696 41.0388 5.65492 35.5367 6.87761 28.2006C7.59085 23.5136 8.1003 19.9984 8.40598 17.6549C8.40598 17.8587 8.55881 18.1134 8.86448 18.4191C9.06826 17.7059 9.42488 16.7379 9.93431 15.5152C9.93431 15.1077 9.9853 14.4963 10.0872 13.6812C11.7174 9.80939 14.876 6.39601 19.563 3.44119C19.6649 3.54308 19.7158 3.74686 19.7158 4.05253C19.7158 4.3582 19.0026 5.17332 17.5761 6.4979C16.1496 7.72059 15.4364 8.58666 15.4364 9.09611C15.5383 8.99423 15.6402 8.94328 15.7421 8.94328C15.844 8.94328 15.9459 8.89234 16.0478 8.79045C15.844 8.99423 15.5893 9.2999 15.2836 9.70749C15.3855 9.80939 15.4874 9.91119 15.5893 10.0131C15.6911 10.0131 15.793 10.0131 15.8949 10.0131C16.71 9.40179 17.9837 8.43383 19.7158 7.10925H20.3272C20.5309 7.51681 20.48 8.12815 20.1743 8.94328L20.48 9.24895C20.7857 9.04517 21.0404 8.63761 21.2442 8.02626C21.3461 7.82248 21.6517 7.72059 22.1612 7.72059C22.5688 7.72059 23.1292 7.87343 23.8424 8.1791C23.8424 8.58667 23.8424 8.79045 23.8424 8.79045C23.5367 8.48477 23.1801 8.33194 22.7725 8.33194C22.5688 8.33194 22.0084 8.79044 21.0913 9.70749C21.397 9.91119 22.0084 9.91119 22.9254 9.70749C22.5178 9.80939 21.9574 10.3188 21.2442 11.2358C21.2442 11.2358 21.2951 11.2358 21.397 11.2358C21.4989 11.3377 21.6517 11.3887 21.8555 11.3887C22.1612 11.3887 22.6706 11.1339 23.3839 10.6245C23.3839 10.3188 23.4858 10.0131 23.6895 9.70749C24.0971 10.2169 24.8103 11.1339 25.8293 12.4585C26.033 12.3566 26.6444 12.3057 27.6633 12.3057C27.6633 14.0378 28.0708 14.8529 28.886 14.7511C28.5803 15.2605 28.0708 16.0247 27.3576 17.0436C27.5614 17.2474 27.7142 17.3493 27.8161 17.3493C27.918 17.3493 27.8671 17.5021 27.6633 17.8078C27.4595 18.1134 27.3576 18.3172 27.3576 18.4191C27.5614 18.6229 27.8671 18.9286 28.2746 19.3361C27.3576 19.438 26.7972 20.0494 26.5934 21.1702C26.3896 22.1891 26.1349 23.1061 25.8293 23.9212C25.6255 24.7363 25.2689 27.0798 24.7594 30.9516C24.5556 31.6649 24.2499 32.7347 23.8424 34.1612C23.5367 34.8744 23.3329 35.4858 23.231 35.9952C23.4348 36.4028 23.5367 36.5556 23.5367 36.4537C23.1292 37.0651 22.9254 37.2689 22.9254 37.0651C22.9254 37.7783 23.0782 38.1349 23.3839 38.1349C23.4858 38.1349 24.0462 38.1349 25.0651 38.1349C26.084 38.1349 26.8482 38.1349 27.3576 38.1349C27.2557 38.3387 26.5934 38.4916 25.3707 38.5934C24.1481 38.6953 23.282 39.0519 22.7725 39.6633C22.7725 39.969 22.9254 40.1218 23.231 40.1218C23.3329 40.1218 23.5877 40.0709 23.9952 39.969C24.5047 39.8671 24.8103 39.8161 24.9122 39.8161C25.116 39.8161 25.167 39.8671 25.0651 39.969C24.9632 40.0709 25.0141 40.1218 25.2179 40.1218C25.3198 40.1218 25.6764 40.1218 26.2878 40.1218C26.7972 40.0199 27.1538 39.969 27.3576 39.969H27.969C28.2746 39.5614 28.6312 39.3576 29.0388 39.3576C29.2426 39.3576 29.3954 39.4086 29.4973 39.5105C29.5992 39.5105 29.752 39.5105 29.9558 39.5105C29.9558 39.6123 29.9558 39.8161 29.9558 40.1218C30.0577 40.3256 30.1087 40.4784 30.1087 40.5803C28.0708 40.6822 25.4726 41.2426 22.314 42.2615C22.314 42.4653 22.5178 42.771 22.9254 43.1785H28.2746C28.4784 43.1785 28.6822 43.1276 28.886 43.0257C29.1916 42.9238 29.4464 42.8728 29.6501 42.8728C30.3634 42.8728 31.2295 42.6181 32.2484 42.1087C33.7767 36.4028 35.1522 32.0215 36.3749 28.9648C37.2919 26.5194 38.7184 23.157 40.6543 18.8776C41.0619 18.2663 41.6223 17.4002 42.3355 16.2794C42.0299 15.2605 42.1827 14.5473 42.794 14.1397C42.8959 14.2416 42.9978 14.3435 43.0997 14.4454C43.3035 14.5473 43.4054 14.6492 43.4054 14.7511C43.6092 14.7511 43.711 14.5982 43.711 14.2925C44.3224 14.5982 44.7809 14.7511 45.0866 14.7511C45.1885 14.6492 45.2394 14.4963 45.2394 14.2925C45.3413 14.0888 45.4432 13.9359 45.5451 13.834C45.5451 14.0378 45.596 14.2925 45.6979 14.5982C46.8187 15.4133 47.3791 15.8719 47.3791 15.9737C47.3791 16.1775 47.2263 16.4832 46.9206 16.8908C47.0225 17.1964 47.2772 17.7568 47.6848 18.5719C48.8056 17.9606 49.315 17.6549 49.2131 17.6549C49.7226 17.6549 50.0792 17.8587 50.283 18.2663C49.9773 18.9795 50.0283 19.9475 50.4358 21.1702C51.3528 19.7437 51.8113 18.8776 51.8113 18.5719C51.8113 17.2474 51.3528 16.5851 50.4358 16.5851C50.232 16.5851 50.1301 16.636 50.1301 16.7379C50.232 16.8398 50.1811 16.8908 49.9773 16.8908C50.283 16.8908 49.6207 16.2794 47.9904 15.0567C48.1942 14.7511 48.2452 14.1397 48.1433 13.2227C48.7546 13.2227 49.0094 13.4265 48.9075 13.834C48.8056 13.9359 48.8056 14.0888 48.9075 14.2925C49.2131 14.0888 49.366 13.7321 49.366 13.2227C49.366 13.2227 49.4169 13.4774 49.5188 13.9869C49.8245 14.0888 50.1811 14.3435 50.5887 14.7511C51.9132 13.4265 52.9321 12.7642 53.6454 12.7642C53.8492 12.7642 54.2058 13.0189 54.7152 13.5284C55.3266 14.0378 55.6322 14.4454 55.6322 14.7511C55.6322 14.9548 55.5813 15.3114 55.4794 15.8209C55.3775 16.3304 55.3266 16.687 55.3266 16.8908L55.0209 16.7379C54.8171 16.7379 54.6133 17.0436 54.4096 17.6549C54.2058 17.7568 54.002 18.0115 53.7982 18.4191C53.6963 18.7248 53.5435 19.2342 53.3397 19.9475L53.4925 21.1702C53.5944 21.0683 54.0529 19.9475 54.8681 17.8078C55.0718 17.604 55.4285 17.2983 55.9379 16.8908C56.1417 16.4832 56.4474 15.9228 56.8549 15.2096C57.0587 15.2096 57.2115 15.2605 57.3134 15.3624C57.5172 15.3624 57.6701 15.3624 57.7719 15.3624ZM34.2352 64.117L33.471 64.5755L33.3182 64.2699L34.0824 63.8114L34.2352 64.117ZM1.98686 52.8072L1.83403 53.2657H1.52836L1.68119 52.6543L1.98686 52.8072ZM33.6239 87.8066C33.6239 87.7047 33.5729 87.45 33.471 87.0424C33.3692 86.6348 33.3182 86.3801 33.3182 86.2782C33.4201 86.0744 33.3182 85.9726 33.0125 85.9726C32.7069 85.9726 32.554 86.0235 32.554 86.1254C32.6559 86.0235 32.8088 85.8197 33.0125 85.514C33.2163 85.1065 33.3692 84.8518 33.471 84.7499C33.5729 85.2593 33.6239 86.2782 33.6239 87.8066ZM40.8072 94.5314C40.5015 94.5314 40.0939 94.6332 39.5845 94.837C39.3807 94.7351 39.2788 94.3276 39.2788 93.6143C39.3807 93.8181 39.5845 94.1747 39.8901 94.6842C39.8901 94.5823 39.9411 94.4804 40.043 94.3785C40.1449 94.1747 40.1958 94.0729 40.1958 94.0729L40.8072 94.5314ZM33.0125 88.4179H32.7069L32.4012 87.8066L32.7069 87.6537L33.0125 88.4179ZM33.7767 90.0991H33.471V88.1123H33.7767V90.0991ZM41.877 98.1994H41.5713L41.2657 97.7409L41.5713 97.5881L41.877 98.1994ZM33.1654 91.6275H32.8597V90.8633H33.1654V91.6275ZM26.4406 86.1254H25.9821V85.2084H26.4406V86.1254ZM34.2352 93.92H33.9295V93.4615H34.2352V93.92ZM26.5934 89.3349H26.2878V88.7236H26.5934V89.3349ZM26.8991 90.8633H26.4406V90.252H26.8991V90.8633ZM32.0955 102.173H31.7898V101.714H32.0955V102.173ZM6.57194 76.8024C6.57194 78.7383 6.47006 80.2157 6.26626 81.2346C6.26626 81.0309 6.21532 80.6742 6.11343 80.1648C6.01154 79.5534 5.96059 79.1459 5.96059 78.9421C5.96059 78.6364 6.16437 77.9232 6.57194 76.8024ZM3.97374 79.5534H3.51523V78.9421H3.97374V79.5534ZM3.97374 80.6233L3.66807 82.1517H3.36239L3.66807 80.6233H3.97374ZM1.68119 79.5534H1.22268V78.9421H1.68119V79.5534ZM3.97374 82.9158H3.51523V82.4573H3.97374V82.9158ZM10.0872 95.6012H9.7815V95.1427H10.0872V95.6012ZM12.074 99.2693H11.6155V98.0466H12.074V99.2693ZM48.2961 17.9606L47.9904 16.8908H47.6848L47.8376 17.9606H48.2961ZM54.4096 39.8161L54.1039 39.6633L53.7982 40.2746L54.1039 40.4275L54.4096 39.8161ZM27.0519 13.0699H26.7463L26.4406 13.5284L26.7463 13.6812L27.0519 13.0699ZM53.7982 40.7331C53.7982 40.5294 53.5435 40.7331 53.034 41.3445V42.2615C53.5435 41.8539 53.7982 41.3445 53.7982 40.7331ZM46.4621 67.6323L46.1564 67.3266L46.0036 67.4794L46.3093 67.7851L46.4621 67.6323ZM43.2525 63.8114C42.845 63.8114 42.6412 63.9642 42.6412 64.2699V65.1869C42.7431 65.1869 42.9469 64.7284 43.2525 63.8114ZM34.3881 68.7021C33.1654 68.0908 32.7069 67.7851 33.0125 67.7851C32.7069 67.9889 32.554 68.2945 32.554 68.7021C32.554 68.4983 32.6559 68.3964 32.8597 68.3964C32.9616 68.3964 33.1144 68.6002 33.3182 69.0078C33.6239 69.4153 33.8786 69.772 34.0824 70.0776C33.8786 69.5682 33.9805 69.1097 34.3881 68.7021ZM27.2048 64.2699V63.8114H26.8991V64.2699H27.2048ZM20.48 61.8245V60.9075H20.1743V61.8245H20.48ZM33.7767 75.274V74.357H33.471V75.274H33.7767ZM34.6937 79.2478C34.5918 79.7572 34.5409 78.2289 34.5409 74.6627C34.439 75.1722 34.2352 75.8344 33.9295 76.6496C33.8277 76.5477 33.7258 76.4967 33.6239 76.4967C33.522 76.4967 33.471 76.4458 33.471 76.3439C33.5729 76.1401 33.471 75.8854 33.1654 75.5797C33.0635 76.5986 32.8597 78.0251 32.554 79.8591C32.4521 79.6553 32.2993 79.5534 32.0955 79.5534V80.4705C32.5031 80.3686 32.9106 80.1648 33.3182 79.8591C33.2163 79.8591 33.1144 79.8082 33.0125 79.7063C33.2163 77.8723 33.3692 77.0571 33.471 77.2609C33.5729 77.3628 33.7258 77.3628 33.9295 77.2609C34.0314 77.4647 34.2352 77.7704 34.5409 78.1779C34.3371 78.4836 34.2352 78.6364 34.2352 78.6364C34.439 78.8402 34.5918 79.044 34.6937 79.2478ZM26.1349 72.9815V72.3702H25.8293V72.9815H26.1349ZM2.90389 52.043V50.9731H2.59821V52.043H2.90389ZM42.0298 95.6012C41.6223 95.6012 41.3676 95.4993 41.2657 95.2955C41.2657 95.3974 41.1638 95.6012 40.96 95.9069C41.1638 95.9069 41.3676 96.1107 41.5713 96.5182C41.7751 96.6201 41.928 96.3144 42.0298 95.6012ZM3.97374 99.8803L3.51523 97.5881H3.20956L3.66807 99.8803H3.97374ZM71.9705 119.054C70.3535 119.054 69.5451 118.764 69.5451 118.184C69.5451 117.935 69.2549 117.645 68.6744 117.313C68.094 116.981 67.3892 116.712 66.56 116.505C65.0675 116.132 64.3212 115.821 64.3212 115.572C64.3212 115.365 64.798 115.012 65.7516 114.515C67.1197 113.81 68.0111 113.188 68.4257 112.649C68.8403 112.151 69.5865 111.675 70.6645 111.219C70.9547 111.094 71.0998 110.991 71.0998 110.908C71.0998 110.7 70.4987 110.576 69.2963 110.535C67.3477 110.41 66.3734 110.099 66.3734 109.602C66.3734 109.063 67.5136 108.296 69.7938 107.301C71.6181 106.596 72.5302 106.119 72.5302 105.87C72.5302 105.663 71.9705 105.414 70.8511 105.124C69.2341 104.668 68.4257 104.253 68.4257 103.88V103.321C68.4257 102.657 69.1927 102.118 70.7267 101.704C71.4315 101.621 72.0326 101.185 72.5302 100.398C73.0691 99.5693 73.6496 98.0141 74.2715 95.7338C74.8933 93.4121 75.7225 89.9503 76.759 85.3483C81.4025 64.4942 83.7242 51.5589 83.7242 46.5423C83.7242 44.8839 83.5376 43.8682 83.1645 43.495C82.8328 43.0804 81.9414 42.8731 80.4904 42.8731C79.6197 42.8731 78.8113 42.7695 78.065 42.5622C77.3187 42.3134 76.8212 42.0232 76.5724 41.6916C76.3652 41.3599 75.9713 41.0075 75.3909 40.6343C74.8104 40.2197 74.1471 39.8673 73.4008 39.5771C72.696 39.2455 71.9497 38.9345 71.162 38.6443C71.9912 38.3955 72.7789 38.1675 73.5252 37.9602C74.3129 37.7115 74.9348 37.442 75.3909 37.1518C75.8469 36.8201 76.0749 36.5506 76.0749 36.3433C76.0749 36.0945 76.2615 35.8458 76.6346 35.597C77.0078 35.3068 77.4431 35.0995 77.9406 34.9751C78.4381 34.8093 78.6869 34.6849 78.6869 34.602C78.6869 34.4362 78.0857 34.3325 76.8834 34.2911C76.0542 34.2496 75.3494 34.1252 74.769 33.9179C74.1885 33.7106 73.8983 33.4826 73.8983 33.2338C73.8983 32.9022 74.5617 32.4668 75.8884 31.9279C79.371 30.5183 82.2731 29.8134 84.5948 29.8134C85.2167 29.8134 85.8179 29.6891 86.3983 29.4403C87.3519 29.0257 87.8287 28.6111 87.8287 28.1965C87.8287 27.8234 87.3104 27.6368 86.2739 27.6368C85.6106 27.6368 84.7192 27.7197 83.5998 27.8856C82.5219 28.01 81.5061 28.0722 80.5525 28.0722C78.3137 28.0722 76.8005 27.8649 76.0127 27.4503C75.5567 27.2015 75.3287 26.9942 75.3287 26.8284C75.3287 26.1236 77.6504 25.5639 82.2938 25.1493C86.9373 24.6932 91.3527 24.4652 95.5401 24.4652C97.8204 24.4652 99.458 24.5688 100.453 24.7761C102.319 25.3151 103.252 25.8541 103.252 26.393C103.252 27.1808 101.738 27.6161 98.7118 27.699C96.6388 27.7819 95.6023 27.9685 95.6023 28.2587C95.6023 28.5489 96.2864 28.8599 97.6545 29.1916C99.0227 29.4818 100.826 29.6683 103.065 29.7513H103.376C106.237 29.7513 107.667 30.311 107.667 31.4304C107.667 32.5498 106.485 33.1509 104.122 33.2338C102.754 33.2753 102.07 33.3997 102.07 33.607C102.07 33.6484 102.215 33.7314 102.505 33.8557C103.459 34.063 103.936 34.4362 103.936 34.9751C103.936 35.0995 103.894 35.2239 103.811 35.3483C103.728 35.4726 103.687 35.597 103.687 35.7214C103.687 36.136 104.101 36.3433 104.931 36.3433C106.05 36.3433 106.61 36.6128 106.61 37.1518C106.61 38.1053 105.594 38.9552 103.562 39.7015C102.609 39.9917 101.904 40.3856 101.448 40.8831C100.619 41.7952 99.8519 44.9254 99.1471 50.2736C98.0277 57.529 95.8925 68.5987 92.7416 83.4826C91.3734 89.7844 90.337 94.2413 89.6322 96.8532C89.5492 97.1435 89.5078 97.4337 89.5078 97.7239C89.5078 98.7189 90.4821 99.5893 92.4307 100.336C94.3792 101.082 95.3535 101.683 95.3535 102.139C95.3535 102.637 94.0476 102.947 91.4356 103.072C89.1968 103.155 88.0774 103.404 88.0774 103.818C88.0774 104.481 89.9846 104.938 93.7988 105.186C96.9912 105.435 98.6703 105.746 98.8361 106.119C99.0434 106.492 99.1471 106.72 99.1471 106.803C99.1471 107.384 97.924 107.923 95.4779 108.42C94.0268 108.71 93.3013 108.938 93.3013 109.104C93.3013 109.146 93.4464 109.187 93.7366 109.229C94.6902 109.311 95.167 109.664 95.167 110.286C95.167 110.493 95.1048 110.742 94.9804 111.032C94.856 111.322 94.7938 111.571 94.7938 111.778C94.7938 112.069 94.939 112.214 95.2292 112.214C95.4365 112.214 95.7059 112.131 96.0376 111.965C96.4108 111.841 96.7217 111.778 96.9705 111.778C97.5924 111.778 97.9033 112.172 97.9033 112.96C97.9033 113.499 97.7582 113.934 97.468 114.266C97.2192 114.598 96.6595 114.909 95.7889 115.199C94.9182 115.489 93.5708 115.8 91.7466 116.132C89.9224 116.505 87.4763 116.961 84.4083 117.5C78.9356 118.453 75.5567 118.951 74.2715 118.992C73.0277 119.034 72.2607 119.054 71.9705 119.054ZM93.9854 57.9229C94.3171 57.9229 94.4829 57.612 94.4829 56.9901C94.4829 56.5755 94.4207 56.1609 94.2963 55.7463C94.1305 55.4146 94.0061 55.2488 93.9232 55.2488C93.7159 55.2488 93.6123 55.767 93.6123 56.8035C93.6123 57.5498 93.7366 57.9229 93.9854 57.9229ZM91.3734 29.8134C91.9539 29.8134 92.4928 29.461 92.9904 28.7562L93.0525 28.4453C93.0525 27.9063 92.4928 27.6368 91.3734 27.6368C90.2126 27.6368 89.6322 27.9063 89.6322 28.4453C89.6322 28.777 89.9224 29.1294 90.5028 29.5025C90.793 29.7098 91.0832 29.8134 91.3734 29.8134ZM113.866 118.433C113.617 118.433 113.493 118.35 113.493 118.184C113.493 117.976 113.617 117.686 113.866 117.313C113.99 117.064 114.053 116.878 114.053 116.753C114.053 116.588 113.97 116.505 113.804 116.505C113.555 116.505 113.182 116.608 112.684 116.816C112.187 117.064 111.834 117.189 111.627 117.189C111.503 117.189 111.441 117.127 111.441 117.002C111.441 116.836 111.689 116.484 112.187 115.945C112.684 115.24 112.933 114.805 112.933 114.639C112.933 114.473 112.85 114.39 112.684 114.39C112.56 114.39 112.498 114.328 112.498 114.204C112.498 113.872 112.954 113.209 113.866 112.214C114.985 110.928 115.545 110.12 115.545 109.788C115.545 109.042 115.628 108.42 115.794 107.923C116.125 106.969 116.664 105.02 117.411 102.077C117.991 99.7553 118.53 98.5945 119.028 98.5945C119.152 98.5945 119.276 98.6775 119.401 98.8433C119.691 99.3408 119.919 99.5893 120.085 99.5893C120.334 99.5893 120.562 99.3201 120.769 98.7811C120.852 98.5738 120.935 98.4702 121.018 98.4702C121.391 98.4702 121.743 99.3201 122.075 101.02C122.448 102.678 122.759 103.507 123.008 103.507C123.174 103.507 123.381 103.155 123.63 102.45C123.837 101.994 124.003 101.766 124.127 101.766C124.376 101.766 124.5 102.968 124.5 105.373C124.5 107.736 124.148 109.975 123.443 112.089C122.78 114.245 121.059 115.841 118.281 116.878C115.918 117.831 114.446 118.35 113.866 118.433ZM120.396 114.39C120.686 114.39 120.935 114.287 121.142 114.079C121.349 113.872 121.453 113.623 121.453 113.333C121.453 112.67 121.308 112.338 121.018 112.338C120.893 112.338 120.727 112.421 120.52 112.587C120.313 112.794 120.126 113.001 119.96 113.209C119.836 113.457 119.774 113.665 119.774 113.831C119.774 114.204 119.981 114.39 120.396 114.39ZM175.891 119.054C174.274 119.054 173.465 118.764 173.465 118.184C173.465 117.935 173.175 117.645 172.595 117.313C172.014 116.981 171.31 116.712 170.48 116.505C168.988 116.132 168.242 115.821 168.242 115.572C168.242 115.365 168.718 115.012 169.672 114.515C171.04 113.81 171.931 113.188 172.346 112.649C172.761 112.151 173.507 111.675 174.585 111.219C174.875 111.094 175.02 110.991 175.02 110.908C175.02 110.7 174.419 110.576 173.217 110.535C171.268 110.41 170.294 110.099 170.294 109.602C170.294 109.063 171.434 108.296 173.714 107.301C175.538 106.596 176.451 106.119 176.451 105.87C176.451 105.663 175.891 105.414 174.771 105.124C173.155 104.668 172.346 104.253 172.346 103.88V103.321C172.346 102.657 173.113 102.118 174.647 101.704C175.352 101.621 175.953 101.185 176.451 100.398C176.99 99.5693 177.57 98.0141 178.192 95.7338C178.814 93.4121 179.643 89.9503 180.679 85.3483C185.323 64.4942 187.645 51.5589 187.645 46.5423C187.645 44.8839 187.458 43.8682 187.085 43.495C186.753 43.0804 185.862 42.8731 184.411 42.8731C183.54 42.8731 182.732 42.7695 181.985 42.5622C181.239 42.3134 180.742 42.0232 180.493 41.6916C180.286 41.3599 179.892 41.0075 179.311 40.6343C178.731 40.2197 178.067 39.8673 177.321 39.5771C176.616 39.2455 175.87 38.9345 175.082 38.6443C175.912 38.3955 176.699 38.1675 177.446 37.9602C178.233 37.7115 178.855 37.442 179.311 37.1518C179.767 36.8201 179.995 36.5506 179.995 36.3433C179.995 36.0945 180.182 35.8458 180.555 35.597C180.928 35.3068 181.364 35.0995 181.861 34.9751C182.359 34.8093 182.607 34.6849 182.607 34.602C182.607 34.4362 182.006 34.3325 180.804 34.2911C179.975 34.2496 179.27 34.1252 178.689 33.9179C178.109 33.7106 177.819 33.4826 177.819 33.2338C177.819 32.9022 178.482 32.4668 179.809 31.9279C183.291 30.5183 186.194 29.8134 188.515 29.8134C189.137 29.8134 189.738 29.6891 190.319 29.4403C191.272 29.0257 191.749 28.6111 191.749 28.1965C191.749 27.8234 191.231 27.6368 190.194 27.6368C189.531 27.6368 188.64 27.7197 187.52 27.8856C186.442 28.01 185.427 28.0722 184.473 28.0722C182.234 28.0722 180.721 27.8649 179.933 27.4503C179.477 27.2015 179.249 26.9942 179.249 26.8284C179.249 26.1236 181.571 25.5639 186.214 25.1493C190.858 24.6932 195.273 24.4652 199.461 24.4652C201.741 24.4652 203.378 24.5688 204.373 24.7761C206.239 25.3151 207.172 25.8541 207.172 26.393C207.172 27.1808 205.659 27.6161 202.632 27.699C200.559 27.7819 199.523 27.9685 199.523 28.2587C199.523 28.5489 200.207 28.8599 201.575 29.1916C202.943 29.4818 204.747 29.6683 206.985 29.7513H207.296C210.157 29.7513 211.587 30.311 211.587 31.4304C211.587 32.5498 210.406 33.1509 208.043 33.2338C206.674 33.2753 205.99 33.3997 205.99 33.607C205.99 33.6484 206.135 33.7314 206.426 33.8557C207.379 34.063 207.856 34.4362 207.856 34.9751C207.856 35.0995 207.815 35.2239 207.732 35.3483C207.649 35.4726 207.607 35.597 207.607 35.7214C207.607 36.136 208.022 36.3433 208.851 36.3433C209.97 36.3433 210.53 36.6128 210.53 37.1518C210.53 38.1053 209.514 38.9552 207.483 39.7015C206.529 39.9917 205.825 40.3856 205.368 40.8831C204.539 41.7952 203.772 44.9254 203.067 50.2736C201.948 57.529 199.813 68.5987 196.662 83.4826C195.294 89.7844 194.257 94.2413 193.553 96.8532C193.47 97.1435 193.428 97.4337 193.428 97.7239C193.428 98.7189 194.402 99.5893 196.351 100.336C198.3 101.082 199.274 101.683 199.274 102.139C199.274 102.637 197.968 102.947 195.356 103.072C193.117 103.155 191.998 103.404 191.998 103.818C191.998 104.481 193.905 104.938 197.719 105.186C200.912 105.435 202.591 105.746 202.757 106.119C202.964 106.492 203.067 106.72 203.067 106.803C203.067 107.384 201.844 107.923 199.398 108.42C197.947 108.71 197.222 108.938 197.222 109.104C197.222 109.146 197.367 109.187 197.657 109.229C198.611 109.311 199.087 109.664 199.087 110.286C199.087 110.493 199.025 110.742 198.901 111.032C198.776 111.322 198.714 111.571 198.714 111.778C198.714 112.069 198.859 112.214 199.15 112.214C199.357 112.214 199.626 112.131 199.958 111.965C200.331 111.841 200.642 111.778 200.891 111.778C201.513 111.778 201.824 112.172 201.824 112.96C201.824 113.499 201.679 113.934 201.388 114.266C201.14 114.598 200.58 114.909 199.709 115.199C198.839 115.489 197.491 115.8 195.667 116.132C193.843 116.505 191.397 116.961 188.329 117.5C182.856 118.453 179.477 118.951 178.192 118.992C176.948 119.034 176.181 119.054 175.891 119.054ZM197.906 57.9229C198.237 57.9229 198.403 57.612 198.403 56.9901C198.403 56.5755 198.341 56.1609 198.217 55.7463C198.051 55.4146 197.927 55.2488 197.844 55.2488C197.636 55.2488 197.533 55.767 197.533 56.8035C197.533 57.5498 197.657 57.9229 197.906 57.9229ZM195.294 29.8134C195.874 29.8134 196.413 29.461 196.911 28.7562L196.973 28.4453C196.973 27.9063 196.413 27.6368 195.294 27.6368C194.133 27.6368 193.553 27.9063 193.553 28.4453C193.553 28.777 193.843 29.1294 194.423 29.5025C194.713 29.7098 195.004 29.8134 195.294 29.8134ZM216.605 31.4926C216.439 31.4926 216.335 31.3682 216.294 31.1194C216.252 30.5804 216.024 30.311 215.61 30.311C215.444 30.311 215.278 30.3524 215.112 30.4353C214.946 30.5183 214.822 30.5597 214.739 30.5597C214.49 30.5597 214.366 30.228 214.366 29.5647C214.366 28.4867 214.635 26.9942 215.174 25.0871C215.713 23.1799 216.418 21.2521 217.289 19.3035C218.16 17.3134 218.74 16.3184 219.03 16.3184C219.196 16.3184 219.279 16.5464 219.279 17.0025C219.32 17.8731 219.424 18.3085 219.59 18.3085C219.797 18.3085 220.253 17.6866 220.958 16.4428L222.575 13.893C222.077 16.1319 221.829 17.5 221.829 17.9975C221.829 18.4121 221.87 18.7853 221.953 19.1169C222.202 19.9047 222.513 20.2985 222.886 20.2985C223.218 20.2985 223.528 19.9668 223.819 19.3035C223.902 19.1377 223.985 19.0547 224.067 19.0547C224.233 19.0547 224.337 19.573 224.378 20.6095C224.378 22.2678 223.757 24.4859 222.513 27.2637C221.642 29.1708 221.041 30.1244 220.709 30.1244C220.585 30.1244 220.502 29.9171 220.461 29.5025C220.461 28.7148 220.336 28.3209 220.087 28.3209C219.88 28.3209 219.3 28.9013 218.346 30.0622C217.517 31.0158 216.936 31.4926 216.605 31.4926ZM237.978 119.179C237.729 119.179 237.439 118.806 237.107 118.059C236.776 117.313 236.506 116.38 236.299 115.261L235.553 111.405L233.003 117.624L232.257 114.826C232.091 114.079 232.008 113.188 232.008 112.151C232.008 103.321 238.061 83.5241 250.167 52.7612C253.94 43.1426 256.51 36.9445 257.878 34.1667C259.081 31.762 260.117 30.5597 260.988 30.5597L261.921 30.6219C262.999 30.6219 263.911 30.3939 264.657 29.9378C264.947 29.772 265.237 29.6891 265.528 29.6891C266.025 29.6891 266.46 29.9171 266.834 30.3731C267.497 31.1194 267.849 32.1974 267.891 33.607V33.7314C267.891 34.5605 268.264 34.9751 269.01 34.9751C269.259 34.9751 269.57 34.9129 269.943 34.7886C270.772 34.6227 271.353 34.5398 271.684 34.5398C271.933 34.5398 272.078 34.6227 272.12 34.7886C272.161 34.9129 272.348 36.5506 272.679 39.7015C273.011 42.8524 273.426 46.7496 273.923 51.393C274.421 55.995 274.918 59.83 275.416 62.898C275.955 65.9246 276.369 67.4793 276.66 67.5622C277.447 67.3134 280.619 61.9237 286.174 51.393C293.761 36.8408 298.55 28.4246 300.54 26.1443C301.618 24.942 302.53 24.3408 303.276 24.3408L304.271 24.403C305.432 24.403 306.344 24.1957 307.008 23.7811C307.381 23.5738 307.713 23.4702 308.003 23.4702C308.542 23.4702 308.977 23.7811 309.309 24.403C309.682 24.9834 309.868 25.709 309.868 26.5796C309.868 27.0771 309.786 27.6576 309.62 28.3209C309.454 28.9843 309.371 29.4818 309.371 29.8134C309.371 30.0207 309.433 30.1244 309.558 30.1244C309.765 30.1244 310.117 29.8964 310.615 29.4403C311.32 28.8184 311.921 28.5075 312.418 28.5075C313.662 28.5075 314.284 30.3731 314.284 34.1045C314.284 38.1675 313.621 44.7388 312.294 53.8184C306.158 94.6144 301.452 115.012 298.177 115.012C298.011 115.012 297.928 114.784 297.928 114.328C297.928 113.292 298.426 110.555 299.421 106.119L299.483 105.684C299.483 105.559 299.441 105.497 299.359 105.497C299.151 105.497 298.509 106.741 297.431 109.229C295.358 114.204 293.948 116.691 293.202 116.691C292.787 116.691 292.559 115.986 292.518 114.577C292.518 113.167 292.414 112.462 292.207 112.462C292.165 112.462 292.103 112.545 292.02 112.711C291.647 113.582 291.15 114.017 290.528 114.017C289.906 114.017 289.595 112.649 289.595 109.913C289.595 104.523 290.445 96.7911 292.145 86.7164C293.72 77.7197 294.591 72.2886 294.757 70.4229C294.757 70.34 294.736 70.2985 294.694 70.2985C294.28 70.2985 293.036 72.1435 290.963 75.8333C285.325 86.0738 281.096 91.4428 278.276 91.9403C276.369 92.3549 274.628 92.8731 273.053 93.495C272.431 93.7023 271.788 93.806 271.125 93.806C269.881 93.806 268.554 93.4743 267.145 92.811C264.989 91.8574 263.538 90.5307 262.791 88.8309C262.169 87.131 261.444 83.6899 260.615 78.5075L259.309 70.4229L255.826 79.0672C251.597 89.5149 248.737 99.0921 247.244 107.798C246.705 110.991 246.27 113.333 245.938 114.826C245.606 116.36 245.337 117.21 245.13 117.375C244.964 117.541 244.839 117.624 244.757 117.624C243.72 117.624 243.098 114.867 242.891 109.353C242.103 112.877 241.668 114.66 241.585 114.701C241.502 114.784 241.44 114.826 241.398 114.826C241.15 114.826 240.776 114.37 240.279 113.457C239.823 112.711 239.512 112.338 239.346 112.338C239.139 112.338 239.035 113.312 239.035 115.261C239.035 116.38 238.931 117.313 238.724 118.059C238.517 118.806 238.268 119.179 237.978 119.179ZM243.637 108.358C243.886 108.358 244.01 107.798 244.01 106.679C244.01 106.057 243.948 105.497 243.824 105C243.741 104.668 243.658 104.502 243.575 104.502C243.451 104.502 243.368 105.083 243.326 106.243C243.326 107.653 243.43 108.358 243.637 108.358ZM300.354 102.45C300.644 102.45 300.789 102.222 300.789 101.766V101.268C300.789 100.978 300.727 100.688 300.602 100.398C300.478 100.066 300.374 99.9003 300.291 99.9003C300.126 99.9003 300.022 100.273 299.98 101.02C299.98 101.973 300.105 102.45 300.354 102.45ZM244.57 101.455C244.902 101.455 245.067 101.144 245.067 100.522C245.067 100.149 245.005 99.7553 244.881 99.3408C244.715 99.0091 244.591 98.8433 244.508 98.8433C244.342 98.8433 244.259 99.3408 244.259 100.336C244.259 101.082 244.363 101.455 244.57 101.455ZM301.349 97.2886C301.68 97.2886 301.846 96.9776 301.846 96.3557C301.846 95.9826 301.784 95.6095 301.66 95.2363C301.494 94.9047 301.369 94.7388 301.286 94.7388C301.121 94.7388 301.038 95.2363 301.038 96.2314C301.038 96.9362 301.141 97.2886 301.349 97.2886ZM270.938 91.3184C271.228 91.3184 271.477 91.2148 271.684 91.0075C271.933 90.8002 272.058 90.5514 272.058 90.2612C272.058 89.5564 271.892 89.204 271.56 89.204C271.436 89.204 271.27 89.3076 271.062 89.5149C270.855 89.7222 270.669 89.9503 270.503 90.199C270.378 90.4478 270.316 90.6343 270.316 90.7587C270.316 91.1319 270.524 91.3184 270.938 91.3184ZM302.406 91.1319C302.696 91.1319 302.862 90.8209 302.903 90.199C302.903 89.8259 302.82 89.432 302.655 89.0174C302.53 88.6858 302.427 88.5199 302.344 88.5199C302.178 88.5199 302.074 88.8931 302.033 89.6393C302.033 90.6343 302.157 91.1319 302.406 91.1319ZM277.406 89.204C277.696 89.204 278.484 88.5199 279.769 87.1518C280.723 86.1153 281.199 85.4519 281.199 85.1617C281.199 85.1202 281.179 85.0995 281.137 85.0995C280.805 85.0995 279.997 85.7836 278.712 87.1518C277.8 88.2297 277.344 88.8931 277.344 89.1418C277.344 89.1833 277.364 89.204 277.406 89.204ZM303.401 84.913C303.732 84.913 303.898 84.602 303.898 83.9801C303.898 83.607 303.836 83.2338 303.712 82.8607C303.587 82.529 303.484 82.3632 303.401 82.3632C303.193 82.3632 303.09 82.8607 303.09 83.8557C303.09 84.5605 303.193 84.913 303.401 84.913ZM304.458 78.7562C304.748 78.7562 304.914 78.4246 304.956 77.7612C304.956 77.3881 304.893 77.0149 304.769 76.6418C304.603 76.3101 304.479 76.1443 304.396 76.1443C304.23 76.1443 304.126 76.5174 304.085 77.2637C304.085 78.2587 304.209 78.7562 304.458 78.7562ZM306.51 66.3184C306.842 66.3184 307.008 66.0075 307.008 65.3856C307.008 65.0125 306.946 64.6393 306.821 64.2662C306.655 63.9345 306.531 63.7687 306.448 63.7687C306.282 63.7687 306.199 64.2662 306.199 65.2612C306.199 65.966 306.303 66.3184 306.51 66.3184ZM307.567 60.1617C307.858 60.1617 308.024 59.8508 308.065 59.2289C308.065 58.8557 307.982 58.4619 307.816 58.0473C307.692 57.7156 307.588 57.5498 307.505 57.5498C307.339 57.5498 307.236 57.9229 307.194 58.6692C307.194 59.6642 307.319 60.1617 307.567 60.1617ZM403.68 126.642C403.233 126.642 402.859 126.02 402.561 124.776C402.213 123.383 401.516 122.686 400.471 122.686C400.223 122.686 399.924 122.736 399.576 122.836C399.277 122.935 398.979 122.985 398.68 122.985C398.034 122.985 397.461 122.214 396.964 120.671C396.516 119.129 395.546 113.159 394.054 102.761C392.909 95.0498 391.541 86.6169 389.949 77.4627C387.71 64.5274 386.367 58.0597 385.919 58.0597C384.974 58.0597 383.68 62.2139 382.039 70.5224C381.143 75.0995 380.422 80.0746 379.874 85.4478C378.083 101.666 376.516 109.776 375.173 109.776C374.178 109.776 373.556 106.194 373.307 99.0299L371.591 107.686C370.049 104.353 369.228 102.686 369.128 102.686C368.879 102.686 368.755 104.054 368.755 106.791C368.656 110.074 368.407 111.741 368.009 111.791L367.486 111.865C366.79 111.865 366.143 110.373 365.546 107.388L364.651 102.761L361.591 109.925L360.77 106.791C360.471 105.348 360.322 103.507 360.322 101.268C360.322 97.3383 360.795 92.1891 361.74 85.8209C363.233 75.8209 365.471 64.9005 368.457 53.0597C371.491 41.1692 374.874 30.3234 378.606 20.5224C380.944 14.3532 382.611 10.597 383.606 9.25373C384.601 7.8607 385.447 7.16418 386.143 7.16418C386.69 7.16418 387.213 7.41294 387.71 7.91045C388.407 8.50746 388.929 8.80597 389.277 8.80597C389.576 8.80597 389.725 8.58209 389.725 8.13433C389.725 7.1393 390.049 6.61692 390.695 6.56716C391.342 6.56716 392.014 6.91542 392.71 7.61194C393.457 8.25871 393.954 9.15423 394.203 10.2985C394.601 12.3881 395.322 13.4328 396.367 13.4328C396.616 13.4328 396.889 13.3831 397.188 13.2836C397.486 13.1841 397.76 13.1343 398.009 13.1343C399.103 13.1343 399.8 14.3781 400.098 16.8657C400.297 18.1592 400.695 20.7712 401.292 24.7015C401.939 28.5821 402.611 32.8856 403.307 37.612C405.049 48.5075 406.019 54.1791 406.218 54.6269C406.466 54.6269 407.337 51.5672 408.83 45.4478C410.621 37.6866 412.636 30.2488 414.874 23.1343C417.959 13.2836 420.198 8.35821 421.591 8.35821C421.74 8.35821 421.815 8.58209 421.815 9.02985C421.815 9.52739 421.516 12.2886 420.919 17.3134C423.108 12.2388 424.501 9.22886 425.098 8.28358C425.745 7.28856 426.168 6.79104 426.367 6.79104C426.665 6.79104 426.815 8.25871 426.815 11.194C426.815 12.8856 426.516 18.6319 425.919 28.4328C428.158 19.1791 429.402 14.2786 429.651 13.7314C429.949 13.1841 430.173 12.9105 430.322 12.9105C430.521 12.9105 430.72 13.3333 430.919 14.1791C431.118 14.9751 431.218 16.0199 431.218 17.3134C431.218 19.3035 430.994 21.9403 430.546 25.2239C429.899 30.597 428.879 36.0199 427.486 41.4925C423.705 56.3184 420.82 73.0348 418.83 91.6418C417.337 105.87 416.118 114.925 415.173 118.806C414.228 122.686 413.382 124.627 412.636 124.627C412.188 124.627 411.715 123.98 411.218 122.686C410.77 121.393 409.924 120.746 408.68 120.746C407.586 120.746 407.039 121.318 407.039 122.462C407.039 122.91 406.864 123.457 406.516 124.104C406.168 124.751 405.695 125.323 405.098 125.821C404.501 126.368 404.029 126.642 403.68 126.642ZM413.755 90.8209C414.153 90.8209 414.352 90.4229 414.352 89.6269C414.352 89.1791 414.277 88.7314 414.128 88.2836C413.929 87.8856 413.78 87.6866 413.68 87.6866C413.481 87.6866 413.382 88.2836 413.382 89.4776C413.382 90.3731 413.506 90.8209 413.755 90.8209ZM375.397 82.0896C375.745 82.0896 375.919 81.8159 375.919 81.2687V80.6717C375.919 80.3234 375.845 79.9751 375.695 79.6269C375.546 79.2289 375.422 79.0299 375.322 79.0299C375.123 79.0299 374.999 79.4776 374.949 80.3731C374.949 81.5174 375.098 82.0896 375.397 82.0896ZM415.024 81.7911C415.372 81.7911 415.546 81.1443 415.546 79.8508C415.546 78.5572 415.372 77.9105 415.024 77.9105C414.825 77.9105 414.725 78.5572 414.725 79.8508C414.725 81.1443 414.825 81.7911 415.024 81.7911ZM416.218 74.7015C416.616 74.7015 416.815 74.4279 416.815 73.8806V73.2836C416.815 72.9353 416.74 72.5622 416.591 72.1642C416.442 71.7662 416.317 71.5672 416.218 71.5672C415.969 71.5672 415.845 72.1642 415.845 73.3582C415.845 74.2537 415.969 74.7015 416.218 74.7015ZM377.859 68.5075C378.208 68.5075 378.407 68.1343 378.457 67.3881C378.457 66.9403 378.357 66.4677 378.158 65.9702C378.009 65.5722 377.884 65.3731 377.785 65.3731C377.586 65.3731 377.461 65.8209 377.412 66.7164C377.412 67.9105 377.561 68.5075 377.859 68.5075ZM417.486 67.2388C417.835 67.2388 418.034 66.8657 418.083 66.1194C418.083 65.6717 418.009 65.2239 417.859 64.7761C417.66 64.3781 417.511 64.1791 417.412 64.1791C417.213 64.1791 417.113 64.7761 417.113 65.9702C417.113 66.8159 417.238 67.2388 417.486 67.2388ZM418.755 61.0448C419.103 61.0448 419.277 60.7712 419.277 60.2239V59.6269C419.277 59.2786 419.203 58.9304 419.054 58.5821C418.904 58.1841 418.78 57.9851 418.68 57.9851C418.481 57.9851 418.357 58.4328 418.307 59.3284C418.307 60.4726 418.457 61.0448 418.755 61.0448ZM486.194 153.582L485.373 150.149C484.875 148.358 484.278 147.462 483.582 147.462L483.134 147.537C482.587 147.537 482.313 143.059 482.313 134.104C482.313 130.622 482.512 117.537 482.91 94.8508C475.348 94.1045 470.647 93.7065 468.806 93.6567L463.507 93.5821C462.313 93.5821 457.288 93.7562 448.433 94.1045C445.796 101.368 444.154 106.194 443.507 108.582C442.91 110.572 442.612 111.94 442.612 112.686V113.209C442.612 114.005 442.512 114.403 442.313 114.403C442.114 114.403 441.816 114.005 441.418 113.209C441.02 112.462 440.821 111.418 440.821 110.074C440.821 108.582 441.02 106.741 441.418 104.552C442.015 101.517 442.313 99.4033 442.313 98.209C442.313 97.7115 442.214 97.4627 442.015 97.4627C441.666 97.4627 441.069 98.7314 440.224 101.268C439.378 103.806 438.955 105.845 438.955 107.388C438.955 108.681 438.582 109.328 437.836 109.328C437.637 109.328 437.413 109.278 437.164 109.179C436.965 109.079 436.791 109.03 436.642 109.03C435.696 109.03 435 110.124 434.552 112.313C434.204 114.154 433.781 115.074 433.283 115.074C433.084 115.074 432.836 114.826 432.537 114.328C432.288 113.88 432.04 113.209 431.791 112.313C431.592 111.418 431.492 110.522 431.492 109.627C431.443 108.283 431.219 107.612 430.821 107.612C430.074 107.612 429.353 108.88 428.657 111.418C428.557 111.816 428.458 112.015 428.358 112.015C428.109 112.015 427.96 110.995 427.91 108.955C427.91 102.239 430.423 93.0348 435.448 81.3433C440.472 69.6518 446.94 57.4627 454.851 44.7761C462.811 32.0896 471.169 20.8955 479.925 11.194C481.816 9.10448 483.308 7.56219 484.403 6.56716C485.547 5.57214 486.617 4.95025 487.612 4.70149C488.657 4.40298 490.025 4.25373 491.716 4.25373C494.055 4.25373 495.647 4.45274 496.492 4.85075C497.388 5.24876 498.084 6.09453 498.582 7.38806C499.03 8.23383 499.552 8.95522 500.149 9.55219C500.746 10.1493 501.268 10.4478 501.716 10.4478C503.159 10.4478 504.204 11.9901 504.851 15.0746C505.497 18.1095 505.821 22.9851 505.821 29.7015C505.821 38.7562 505.174 51.9901 503.88 69.403C501.99 94.0796 499.577 114.378 496.642 130.298C494.005 144.378 492.288 151.418 491.492 151.418L491.418 150.97C491.418 149.179 491.89 144.875 492.836 138.059C493.93 129.552 494.477 124.129 494.477 121.791C494.477 120.995 494.428 120.572 494.328 120.522C494.03 120.522 493.333 123.905 492.239 130.671C491.592 134.701 490.87 138.457 490.074 141.94C489.328 145.472 488.657 147.935 488.06 149.328C487.462 150.721 486.841 152.139 486.194 153.582ZM495.298 114.627C495.597 114.627 495.746 113.706 495.746 111.865C495.746 110.97 495.671 110.099 495.522 109.253C495.423 108.806 495.348 108.582 495.298 108.582C495.149 108.582 495.05 109.527 495 111.418C495 113.557 495.099 114.627 495.298 114.627ZM479.104 79.403C481.393 79.403 482.537 79.2786 482.537 79.0299C482.537 78.5821 480.348 78.209 475.97 77.9105C473.283 77.7612 470.423 77.6866 467.388 77.6866C462.413 77.6866 459.925 77.7861 459.925 77.9851C459.925 78.1343 460.97 78.3085 463.06 78.5075C468.234 79.1045 473.582 79.403 479.104 79.403ZM472.836 73.6567C480.696 73.6567 484.801 73.1095 485.149 72.0149C485.547 70.5722 486.045 63.9552 486.642 52.1642C486.99 45.2488 487.164 40.2239 487.164 37.0896C487.164 35.0498 487.114 34.0299 487.015 34.0299C486.169 34.0299 481.642 40.1741 473.433 52.4627C465.273 64.7513 461.194 71.4926 461.194 72.6866C461.194 72.9353 462.338 73.1592 464.627 73.3582C466.915 73.5572 469.652 73.6567 472.836 73.6567ZM501.567 18.7314C501.666 18.7314 501.766 18.6816 501.865 18.5821C501.965 18.4328 502.015 18.0846 502.015 17.5373C501.965 17.0398 501.816 16.5174 501.567 15.9702C501.368 15.3731 501.144 14.9503 500.895 14.7015C500.696 14.4527 500.522 14.3284 500.373 14.3284C500.124 14.3284 500 14.602 500 15.1493C500 15.8458 500.124 16.5174 500.373 17.1642C500.821 18.209 501.219 18.7314 501.567 18.7314ZM495.224 9.99999C495.671 9.99999 495.895 9.82589 495.895 9.47759C495.895 8.9801 495.597 8.45771 495 7.91045C494.403 7.31343 493.98 7.01493 493.731 7.01493C493.532 7.01493 493.433 7.18905 493.433 7.53731C493.433 8.38308 493.706 9.0796 494.254 9.62689C494.502 9.87559 494.826 9.99999 495.224 9.99999ZM518.633 121.194L517.364 117.985C516.866 116.542 516.493 115.821 516.245 115.821C516.095 115.821 515.946 117.239 515.797 120.074L514.677 117.462C513.931 115.572 513.558 112.413 513.558 107.985C513.558 107.239 513.583 105.273 513.633 102.089C513.682 98.8557 514.23 93.6319 515.274 86.4179C516.468 78.9552 517.065 74.3532 517.065 72.612C517.065 72.4627 517.041 72.1144 516.991 71.5672C516.991 70.9702 516.792 70.5722 516.394 70.3731C515.996 70.1741 515.424 70.0746 514.677 70.0746C513.931 70.0746 513.309 69.9503 512.812 69.7015C512.314 69.4528 512.065 69.1542 512.065 68.806C512.065 68.4577 512.215 68.1592 512.513 67.9105C512.861 67.612 513.259 67.4627 513.707 67.4627C514.205 67.4627 514.752 67.3134 515.349 67.0149C515.996 66.7164 516.543 66.3433 516.991 65.8955C517.488 65.4478 517.737 65.0249 517.737 64.6269C517.737 64.5274 517.662 64.3532 517.513 64.1045C517.414 63.8557 515.822 62.8856 512.737 61.194C513.931 60.8955 515.125 60.597 516.319 60.2985C517.563 59.9503 518.459 59.4776 519.006 58.8806C519.603 58.2338 519.901 57.6368 519.901 57.0896C519.901 56.9403 519.852 56.6916 519.752 56.3433C519.653 55.995 519.006 55.8209 517.812 55.8209C516.618 55.8209 516.021 55.5224 516.021 54.9254C516.021 54.8259 516.046 54.5771 516.095 54.1791C516.195 53.7811 517.016 53.3582 518.558 52.9105C520.15 52.4129 521.444 50.2985 522.439 46.5672C530.349 15.5224 535.772 0 538.707 0C539.006 0 539.155 0.248757 539.155 0.746271C539.155 1.59204 538.483 4.32836 537.14 8.95522C536.891 9.90049 536.767 10.597 536.767 11.0448C536.767 11.393 536.866 11.5672 537.065 11.5672C537.414 11.5672 537.911 10.995 538.558 9.85079C539.255 8.70647 539.926 7.16418 540.573 5.22388C541.767 1.8408 542.737 0.149254 543.483 0.149254C543.981 0.149254 544.23 0.820891 544.23 2.16418C544.23 3.0597 544.13 4.22886 543.931 5.67164C543.732 7.11443 543.633 8.28358 543.633 9.1791C543.633 9.62689 543.682 10.1493 543.782 10.7463C543.931 11.7413 544.528 12.2388 545.573 12.2388C546.518 12.2388 547.215 11.3682 547.662 9.62689C547.911 8.73134 548.235 7.98507 548.633 7.38806C549.08 6.79104 549.503 6.49254 549.901 6.49254C550.399 6.49254 550.648 7.06468 550.648 8.20896C550.648 10.8458 548.782 18.6816 545.051 31.7164C542.065 42.3632 540.573 48.0846 540.573 48.8806C540.573 49.6766 541.891 50.0746 544.528 50.0746C545.971 50.0746 547.812 49.9503 550.051 49.7015C556.021 49.2537 559.304 48.8806 559.901 48.5821C560.2 48.2338 561.319 43.4328 563.26 34.1791C566.742 17.4627 569.255 9.10448 570.797 9.10448C571.394 9.10448 571.692 10.1493 571.692 12.2388L571.543 14.2537C571.394 15.8955 571.319 17.4129 571.319 18.806C571.319 19.2537 571.344 19.4776 571.394 19.4776C571.643 19.4776 572.463 17.7861 573.857 14.403C575.25 10.9702 576.319 9.25373 577.065 9.25373C577.563 9.25373 577.812 9.90049 577.812 11.194C577.812 11.9403 577.737 12.8358 577.588 13.8806C577.439 14.8756 577.364 15.8955 577.364 16.9403C577.364 19.3284 577.563 21.2189 577.961 22.612C578.359 23.9552 578.732 25.2736 579.08 26.5672L580.051 21.7911C580.498 19.5522 581.12 17.8358 581.916 16.6418C582.463 15.8955 582.961 15.5224 583.409 15.5224C583.906 15.5224 584.155 15.7463 584.155 16.194C584.155 17.6368 583.21 23.9304 581.319 35.0746C579.23 46.8657 578.11 53.7811 577.961 55.8209C577.812 57.2139 577.389 58.3831 576.692 59.3284C576.245 59.9254 576.021 60.5224 576.021 61.1194C576.021 61.5174 576.07 61.8408 576.17 62.0896C576.319 62.3383 576.394 62.612 576.394 62.9105C576.394 63.209 576.319 63.6816 576.17 64.3284C576.021 64.9254 575.672 65.6965 575.125 66.6418C574.628 67.5373 573.732 70.199 572.439 74.6269C571.145 79.005 569.802 84.0796 568.409 89.8508C565.225 103.084 562.563 111.542 560.424 115.224L557.289 120.074C557.837 116.691 558.309 114.005 558.707 112.015C559.354 108.383 559.677 106.492 559.677 106.343C559.677 106.243 559.653 106.194 559.603 106.194C559.454 106.194 559.006 107.214 558.26 109.253C557.712 110.597 557.041 112.04 556.245 113.582C555.498 115.174 554.752 116.492 554.006 117.537C553.309 118.632 552.588 119.776 551.842 120.97L550.648 117.91C550.1 116.418 549.702 115.671 549.454 115.671C549.205 115.671 548.881 116.268 548.483 117.462C548.185 118.308 547.911 118.731 547.662 118.731C547.364 118.731 547.016 117.612 546.618 115.373C546.518 114.577 546.468 113.632 546.468 112.537C546.468 106.318 548.359 95.7712 552.14 80.8955C553.533 75.4229 554.23 72.2388 554.23 71.3433C554.23 71.2438 554.18 71.1692 554.08 71.1194C554.031 71.0697 553.608 71.0448 552.812 71.0448C550.424 71.0448 544.852 71.3682 536.095 72.0149L535.051 79.1791C532.662 95.8955 530.15 107.537 527.513 114.104C525.971 117.388 525.001 119.03 524.603 119.03C524.404 119.03 524.304 118.781 524.304 118.283C524.304 117.388 524.553 115.796 525.051 113.507C525.797 110.224 526.17 108.035 526.17 106.94C526.17 106.492 526.12 106.268 526.021 106.268C525.772 106.268 525.25 107.462 524.454 109.85C524.006 111.393 523.409 112.935 522.662 114.477C521.966 116.069 521.294 117.338 520.648 118.283C520.001 119.229 519.329 120.199 518.633 121.194ZM526.916 103.209C527.264 103.209 527.439 102.562 527.439 101.268C527.439 99.9253 527.264 99.2537 526.916 99.2537C526.667 99.2537 526.543 99.9253 526.543 101.268C526.543 102.562 526.667 103.209 526.916 103.209ZM561.916 98.4329C562.314 98.4329 562.513 98.0348 562.513 97.2388C562.513 96.7413 562.439 96.2687 562.289 95.8209C562.09 95.4229 561.941 95.2239 561.842 95.2239C561.643 95.2239 561.518 95.6717 561.468 96.5672C561.468 97.811 561.618 98.4329 561.916 98.4329ZM528.185 93.209C528.533 93.209 528.732 92.811 528.782 92.0149C528.782 91.5672 528.682 91.0945 528.483 90.597C528.334 90.199 528.21 90 528.11 90C527.861 90 527.737 90.6219 527.737 91.8657C527.737 92.7612 527.886 93.209 528.185 93.209ZM543.036 56.194C544.379 56.194 545.871 56.1443 547.513 56.0448C552.687 55.6965 556.021 55.1493 557.513 54.403C558.11 54.1045 558.409 53.8557 558.409 53.6567C558.409 53.408 557.787 53.2836 556.543 53.2836C554.255 53.2836 551.817 53.408 549.23 53.6567C542.613 54.403 539.304 55.0995 539.304 55.7463C539.304 56.0448 540.548 56.194 543.036 56.194ZM576.17 38.7314C576.568 38.7314 576.767 38.2338 576.767 37.2388C576.767 36.8408 576.692 36.4677 576.543 36.1194C576.344 35.7214 576.195 35.5224 576.095 35.5224C575.896 35.5224 575.772 35.9702 575.722 36.8657C575.722 38.1095 575.871 38.7314 576.17 38.7314ZM577.513 30.8955C577.861 30.8955 578.06 30.4975 578.11 29.7015C578.11 29.2537 578.011 28.7811 577.812 28.2836C577.662 27.8856 577.538 27.6866 577.439 27.6866C577.19 27.6866 577.065 28.3085 577.065 29.5522C577.065 30.4478 577.215 30.8955 577.513 30.8955ZM610.848 115.895C609.803 115.895 607.813 115.398 604.877 114.403C601.793 113.258 598.833 111.517 595.997 109.179C593.211 106.791 591.121 104.278 589.728 101.642C588.186 98.4577 587.091 95.0995 586.445 91.5672C585.798 88.0348 585.474 85.0746 585.474 82.6866C585.474 81.4428 585.549 80.2488 585.698 79.1045C586.892 70.6468 588.957 62.4129 591.892 54.403C594.877 46.3433 598.111 40.1741 601.594 35.8955C603.285 34.005 604.504 33.0597 605.251 33.0597C605.698 33.0597 605.922 33.2836 605.922 33.7314C605.922 34.3284 605.549 35.2985 604.803 36.6418C604.256 37.5373 603.982 38.0597 603.982 38.209V38.2836C604.181 38.2836 605.027 37.4378 606.519 35.7463C608.957 32.811 611.569 28.4577 614.355 22.6866C616.892 17.4129 619.504 13.209 622.191 10.0746C624.927 6.89055 627.34 5.24876 629.43 5.14925C631.221 5.14925 632.962 4.92537 634.654 4.47761C634.952 4.37811 635.275 4.32836 635.624 4.32836C637.067 4.32836 639.28 5.97015 642.266 9.25373C646.047 13.0846 648.509 17.1891 649.654 21.5672C650.798 25.8955 651.37 32.5124 651.37 41.4179C651.37 68.5324 647.241 88.408 638.982 101.044C636.544 104.776 633.957 107.562 631.221 109.403C627.937 111.642 623.907 113.234 619.131 114.179C614.952 115.323 612.191 115.895 610.848 115.895ZM630.773 105.746C630.972 105.746 631.246 105.597 631.594 105.298C632.39 104.701 633.186 103.681 633.982 102.239C634.579 101.243 634.877 100.646 634.877 100.447C634.877 100.348 634.853 100.298 634.803 100.298C634.604 100.298 633.957 100.845 632.863 101.94C631.221 103.333 630.4 104.378 630.4 105.074C630.4 105.522 630.524 105.746 630.773 105.746ZM616.594 101.343C617.39 101.343 617.788 101.219 617.788 100.97L617.639 100.746C617.44 100.547 617.141 100.447 616.743 100.447C616.345 100.447 615.947 100.522 615.549 100.671C615.151 100.821 614.952 100.945 614.952 101.044C614.952 101.243 615.499 101.343 616.594 101.343ZM596.892 97.6866C597.34 97.6866 597.564 97.5125 597.564 97.1642C597.564 96.7164 597.266 96.1692 596.668 95.5224C596.171 95.0746 595.823 94.8508 595.624 94.8508C595.425 94.8508 595.325 95.0249 595.325 95.3731C595.325 95.8707 595.425 96.3433 595.624 96.7911C595.872 97.1891 596.096 97.4378 596.295 97.5373C596.544 97.6368 596.743 97.6866 596.892 97.6866ZM612.564 96.7911C614.106 96.7911 615.823 96.2935 617.713 95.2985C620.101 94.005 622.465 92.0398 624.803 89.403C627.141 86.7662 628.957 83.9552 630.251 80.9702C631.544 77.9353 632.639 73.3333 633.534 67.1642C634.479 60.995 634.952 55.0995 634.952 49.4776C634.952 46.8408 634.753 43.8309 634.355 40.4478C634.007 37.0647 633.584 34.1542 633.086 31.7164C632.589 29.2289 632.141 27.9353 631.743 27.8358C631.146 27.9353 630.002 29.5274 628.31 32.612C624.678 38.8806 621.121 44.1045 617.639 48.2836C616.096 50.1244 615.101 51.0448 614.654 51.0448L614.28 50.9702C612.639 50.9702 609.902 55.0249 606.071 63.1343C604.181 67.1144 603.236 71.5672 603.236 76.4926C603.335 90.0249 606.445 96.7911 612.564 96.7911ZM599.206 71.4926C599.504 71.4926 599.654 70.8955 599.654 69.7015C599.654 68.5572 599.504 67.9851 599.206 67.9851C599.007 67.9851 598.907 68.5572 598.907 69.7015C598.907 70.8955 599.007 71.4926 599.206 71.4926ZM637.639 10.4478C638.086 10.4478 638.31 10.2736 638.31 9.92539C638.31 9.37809 638.012 8.83085 637.415 8.28358C636.917 7.83582 636.569 7.61194 636.37 7.61194C636.171 7.61194 636.071 7.78607 636.071 8.13433C636.071 8.63184 636.196 9.10448 636.445 9.55219C636.693 9.95029 636.917 10.199 637.116 10.2985C637.365 10.398 637.539 10.4478 637.639 10.4478ZM660.077 120.746C659.779 120.746 659.431 120.298 659.033 119.403C658.635 118.507 658.311 117.388 658.062 116.044L657.167 111.418L654.107 118.88L653.212 115.522C653.013 114.627 652.913 113.557 652.913 112.313C652.913 101.716 660.177 77.9602 674.704 41.0448C679.232 29.5025 682.316 22.0647 683.958 18.7314C685.401 15.8458 686.645 14.403 687.689 14.403L688.809 14.4776C690.102 14.4776 691.197 14.204 692.092 13.6567C692.441 13.4577 692.789 13.3582 693.137 13.3582C693.734 13.3582 694.257 13.6319 694.704 14.1791C695.5 15.0746 695.923 16.3682 695.973 18.0597V18.209C695.973 19.204 696.421 19.7015 697.316 19.7015C697.615 19.7015 697.988 19.6269 698.436 19.4776C699.431 19.2786 700.127 19.1791 700.525 19.1791C700.824 19.1791 700.998 19.2786 701.048 19.4776C701.097 19.6269 701.321 21.5921 701.719 25.3731C702.117 29.1542 702.615 33.8309 703.212 39.403C703.809 44.9254 704.406 49.5274 705.003 53.209C705.65 56.8408 706.147 58.7065 706.495 58.806C707.441 58.5075 711.247 52.0398 717.913 39.403C727.018 21.9403 732.764 11.8408 735.152 9.10448C736.446 7.66169 737.54 6.9403 738.436 6.9403L739.63 7.01493C741.023 7.01493 742.117 6.76617 742.913 6.26866C743.361 6.0199 743.759 5.89552 744.107 5.89552C744.754 5.89552 745.276 6.26866 745.674 7.01493C746.122 7.71144 746.346 8.58209 746.346 9.62689C746.346 10.2239 746.247 10.9204 746.048 11.7164C745.849 12.5124 745.749 13.1095 745.749 13.5075C745.749 13.7562 745.824 13.8806 745.973 13.8806C746.222 13.8806 746.645 13.607 747.242 13.0597C748.087 12.3134 748.809 11.9403 749.406 11.9403C750.898 11.9403 751.645 14.1791 751.645 18.6567C751.645 23.5323 750.849 31.4179 749.257 42.3134C741.893 91.2687 736.247 115.746 732.316 115.746C732.117 115.746 732.018 115.472 732.018 114.925C732.018 113.681 732.615 110.398 733.809 105.074L733.883 104.552C733.883 104.403 733.834 104.328 733.734 104.328C733.485 104.328 732.714 105.821 731.421 108.806C728.933 114.776 727.242 117.761 726.346 117.761C725.849 117.761 725.575 116.915 725.525 115.224C725.525 113.532 725.401 112.686 725.152 112.686C725.102 112.686 725.028 112.786 724.928 112.985C724.48 114.03 723.883 114.552 723.137 114.552C722.391 114.552 722.018 112.91 722.018 109.627C722.018 103.159 723.038 93.8806 725.077 81.7911C726.968 70.995 728.013 64.4776 728.212 62.2388C728.212 62.1393 728.187 62.0896 728.137 62.0896C727.64 62.0896 726.147 64.3035 723.66 68.7314C716.893 81.0199 711.819 87.4627 708.436 88.0597C706.147 88.5572 704.058 89.1791 702.167 89.9254C701.421 90.1741 700.65 90.2985 699.854 90.2985C698.361 90.2985 696.769 89.9005 695.077 89.1045C692.49 87.9602 690.749 86.3682 689.854 84.3284C689.107 82.2886 688.237 78.1592 687.242 71.9403L685.674 62.2388L681.495 72.612C676.421 85.1493 672.988 96.6418 671.197 107.089C670.55 110.92 670.028 113.731 669.63 115.522C669.232 117.363 668.908 118.383 668.66 118.582C668.461 118.781 668.311 118.88 668.212 118.88C666.968 118.88 666.222 115.572 665.973 108.955C665.028 113.184 664.505 115.323 664.406 115.373C664.306 115.472 664.232 115.522 664.182 115.522C663.883 115.522 663.436 114.975 662.839 113.88C662.291 112.985 661.918 112.537 661.719 112.537C661.47 112.537 661.346 113.706 661.346 116.044C661.346 117.388 661.222 118.507 660.973 119.403C660.724 120.298 660.426 120.746 660.077 120.746ZM666.868 107.761C667.167 107.761 667.316 107.089 667.316 105.746C667.316 105 667.242 104.328 667.092 103.731C666.993 103.333 666.893 103.134 666.794 103.134C666.645 103.134 666.545 103.831 666.495 105.224C666.495 106.915 666.62 107.761 666.868 107.761ZM734.928 100.671C735.276 100.671 735.451 100.398 735.451 99.8503V99.2537C735.451 98.9055 735.376 98.5572 735.227 98.209C735.077 97.811 734.953 97.612 734.854 97.612C734.655 97.612 734.53 98.0597 734.48 98.9552C734.48 100.099 734.63 100.671 734.928 100.671ZM667.988 99.4773C668.386 99.4773 668.585 99.1045 668.585 98.3582C668.585 97.9105 668.51 97.4378 668.361 96.9403C668.162 96.5423 668.013 96.3433 667.913 96.3433C667.714 96.3433 667.615 96.9403 667.615 98.1343C667.615 99.0299 667.739 99.4773 667.988 99.4773ZM736.122 94.4776C736.52 94.4776 736.719 94.1045 736.719 93.3582C736.719 92.9105 736.645 92.4627 736.495 92.0149C736.296 91.6169 736.147 91.4179 736.048 91.4179C735.849 91.4179 735.749 92.0149 735.749 93.209C735.749 94.0547 735.873 94.4776 736.122 94.4776ZM699.63 87.3134C699.978 87.3134 700.276 87.1891 700.525 86.9403C700.824 86.6916 700.973 86.393 700.973 86.0448C700.973 85.199 700.774 84.7761 700.376 84.7761C700.227 84.7761 700.028 84.9005 699.779 85.1493C699.53 85.398 699.306 85.6717 699.107 85.9702C698.958 86.2687 698.883 86.4926 698.883 86.6418C698.883 87.0896 699.132 87.3134 699.63 87.3134ZM737.391 87.0896C737.739 87.0896 737.938 86.7164 737.988 85.9702C737.988 85.5224 737.888 85.0498 737.689 84.5523C737.54 84.1542 737.416 83.9552 737.316 83.9552C737.117 83.9552 736.993 84.403 736.943 85.2985C736.943 86.4926 737.092 87.0896 737.391 87.0896ZM707.391 84.7761C707.739 84.7761 708.684 83.9552 710.227 82.3134C711.371 81.0697 711.943 80.2736 711.943 79.9254C711.943 79.8756 711.918 79.8508 711.868 79.8508C711.47 79.8508 710.5 80.6717 708.958 82.3134C707.863 83.607 707.316 84.403 707.316 84.7015C707.316 84.7513 707.341 84.7761 707.391 84.7761ZM738.585 79.6269C738.983 79.6269 739.182 79.2537 739.182 78.5075C739.182 78.0597 739.107 77.612 738.958 77.1642C738.809 76.7662 738.684 76.5672 738.585 76.5672C738.336 76.5672 738.212 77.1642 738.212 78.3582C738.212 79.204 738.336 79.6269 738.585 79.6269ZM739.854 72.2388C740.202 72.2388 740.401 71.8408 740.451 71.0448C740.451 70.597 740.376 70.1493 740.227 69.7015C740.028 69.3035 739.878 69.1045 739.779 69.1045C739.58 69.1045 739.456 69.5523 739.406 70.4478C739.406 71.6418 739.555 72.2388 739.854 72.2388ZM742.316 57.3134C742.714 57.3134 742.913 56.9403 742.913 56.194C742.913 55.7463 742.839 55.2985 742.689 54.8508C742.49 54.4527 742.341 54.2537 742.242 54.2537C742.043 54.2537 741.943 54.8508 741.943 56.0448C741.943 56.8906 742.067 57.3134 742.316 57.3134ZM743.585 49.9254C743.933 49.9254 744.132 49.5523 744.182 48.806C744.182 48.3582 744.082 47.8856 743.883 47.3881C743.734 46.9901 743.61 46.7911 743.51 46.7911C743.311 46.7911 743.187 47.2388 743.137 48.1343C743.137 49.3284 743.286 49.9254 743.585 49.9254ZM777.889 114.104H774.83C771.098 114.104 767.79 113.234 764.904 111.492C758.287 107.811 754.979 102.214 754.979 94.7015C754.979 93.4577 755.054 92.1891 755.203 90.8955C756.397 81.3433 758.735 69.7264 762.218 56.0448C765.75 42.3632 769.183 31.4925 772.516 23.4328C773.71 20.5473 774.531 18.8806 774.979 18.4328C775.476 17.9851 775.874 17.7612 776.173 17.7612C776.621 17.7612 777.093 18.01 777.591 18.5075C778.437 19.1542 779.133 19.4776 779.68 19.4776C780.078 19.4776 780.402 19.3035 780.651 18.9552C780.949 18.5572 781.447 18.2338 782.143 17.9851C782.84 17.6866 783.611 17.5373 784.457 17.5373C785.352 17.4876 787.74 17.1642 791.621 16.5672C795.551 15.9702 800.078 15.2239 805.203 14.3284C814.407 12.7861 822.417 12.0149 829.233 12.0149C836.049 12.0149 839.457 12.7861 839.457 14.3284C839.457 14.6766 839.183 14.9751 838.636 15.2239C838.088 15.4726 837.417 15.597 836.621 15.597C835.874 15.597 835.228 15.796 834.68 16.194C834.133 16.5921 833.86 17.0647 833.86 17.612C833.86 18.1592 833.685 18.7065 833.337 19.2537C833.039 19.7513 832.641 20.1244 832.143 20.3731C831.894 20.4726 831.77 20.5721 831.77 20.6717C831.77 20.7214 831.869 20.7463 832.068 20.7463C832.466 20.7463 833.188 20.6468 834.233 20.4478C835.029 20.3483 835.675 20.2985 836.173 20.2985C837.367 20.2985 837.964 20.5721 837.964 21.1194C837.964 23.9055 827.019 26.9901 805.128 30.3731L789.606 32.7612C787.964 38.2338 786.919 41.8657 786.471 43.6567C786.521 43.806 787.218 43.8806 788.561 43.8806C789.904 43.8806 791.596 43.8309 793.636 43.7314L796.546 43.6567C800.476 43.6567 802.442 44.1294 802.442 45.0746C802.442 45.7214 800.999 46.3433 798.113 46.9403C793.437 47.7363 791.098 48.4328 791.098 49.0299C791.098 49.5274 792.616 49.7761 795.651 49.7761L799.755 49.7015C804.879 49.7015 807.442 50.0249 807.442 50.6717C807.442 51.5672 806.148 53.1841 803.561 55.5224C801.72 57.1642 800.8 58.1343 800.8 58.4328C800.8 58.4826 800.899 58.5075 801.098 58.5075C801.397 58.5075 801.994 58.3831 802.889 58.1343C803.536 57.9353 804.108 57.8358 804.606 57.8358C805.551 57.8358 806.024 58.1343 806.024 58.7314C806.024 59.7264 804.73 60.9702 802.143 62.4627C799.606 63.9552 795.203 66.0697 788.934 68.806C781.571 71.9403 777.765 74.4279 777.516 76.2687C776.471 80.7463 775.949 84.1294 775.949 86.4179C775.949 87.811 776.148 88.8309 776.546 89.4776C776.944 90.0746 777.69 90.3731 778.785 90.3731C780.327 90.3731 782.516 89.7264 785.352 88.4329C790.277 86.4926 794.506 85.0746 798.039 84.1791C801.571 83.2836 804.059 82.8358 805.501 82.8358C806.447 82.8358 806.919 82.9851 806.919 83.2836C806.919 83.7811 805.85 84.6269 803.71 85.8209C802.019 86.7164 801.173 87.3383 801.173 87.6866C801.173 87.9353 801.546 88.0597 802.292 88.0597C803.437 88.1095 804.009 88.408 804.009 88.9552C804.009 89.1542 803.909 89.4279 803.71 89.7761C803.561 90.0746 803.486 90.2985 803.486 90.4478C803.486 90.6468 803.611 90.7463 803.86 90.7463C804.108 90.7463 804.506 90.6468 805.054 90.4478C808.039 89.1542 809.705 88.5075 810.054 88.5075C810.203 88.5075 810.277 88.5821 810.277 88.7314C810.277 89.4279 808.884 91.2438 806.098 94.1791C802.864 97.612 801.248 99.7013 801.248 100.447C801.248 100.597 801.322 100.671 801.471 100.671C802.516 100.671 803.312 100.224 803.86 99.3284C804.457 98.3831 805.7 97.3881 807.591 96.3433C808.636 95.7463 809.282 95.4478 809.531 95.4478C809.68 95.4478 809.755 95.5224 809.755 95.6717C809.755 95.9702 809.481 96.5921 808.934 97.5373C807.442 100.224 804.929 102.86 801.397 105.447C797.864 107.985 794.183 109.875 790.352 111.119C784.034 113.059 779.879 114.054 777.889 114.104ZM760.874 102.91C761.173 102.91 761.322 102.711 761.322 102.313C761.322 101.716 760.949 101.044 760.203 100.298C759.606 99.7013 759.233 99.4033 759.083 99.4033C758.984 99.4033 758.934 99.4523 758.934 99.5523C758.934 99.8013 759.083 100.298 759.382 101.044C759.68 101.741 759.954 102.239 760.203 102.537C760.452 102.786 760.675 102.91 760.874 102.91ZM781.994 96.3433C782.939 96.3433 783.412 96.1692 783.412 95.8209L783.337 95.597C783.088 95.398 782.715 95.2736 782.218 95.2239C781.72 95.2239 781.223 95.3234 780.725 95.5224C780.228 95.7214 779.979 95.8707 779.979 95.9702C779.979 96.2189 780.651 96.3433 781.994 96.3433ZM776.098 27.6866C776.795 27.6866 777.342 27.1144 777.74 25.9702C777.989 25.1741 778.113 24.1791 778.113 22.9851C778.113 21.9901 777.989 21.4925 777.74 21.4925C777.491 21.4925 777.168 21.8657 776.77 22.612C775.874 24.005 775.427 25.2985 775.427 26.4925C775.427 27.2886 775.651 27.6866 776.098 27.6866ZM782.815 15.1493C781.72 15.1493 781.173 14.8756 781.173 14.3284C781.173 13.1841 783.661 11.9901 788.636 10.7463C793.063 9.65179 798.287 8.65672 804.307 7.76119C812.466 6.61692 819.332 6.04478 824.904 6.04478C827.989 6.04478 830.253 6.26866 831.695 6.71642C833.238 7.31343 834.009 7.8607 834.009 8.35821C834.009 9.45269 831.073 10.0249 825.203 10.0746C819.581 10.0746 812.715 10.7214 804.606 12.0149C792.218 14.1045 784.954 15.1493 782.815 15.1493Z" fill="#F7E9C5"/>
</svg>
