<svg width="840" height="155" viewBox="0 0 840 155" fill="none" xmlns="http://www.w3.org/2000/svg">
<path d="M34.2084 109.86H33.7499V109.096H34.2084V109.86ZM33.7499 111.847H33.4442V111.083H33.7499V111.847ZM11.8944 103.9H11.5887V103.136H11.8944V103.9ZM66.4567 12.5039C65.9473 14.1341 64.8265 14.9492 63.0944 14.9492C62.8906 14.9492 62.483 14.6436 61.8717 14.0322C61.2603 13.4209 60.8018 13.0133 60.4961 12.8095C60.3943 11.6887 60.2414 11.1283 60.0376 11.1283C59.8339 11.1283 59.6301 11.1793 59.4263 11.2812C59.3244 11.3831 59.1716 11.434 58.9678 11.434C58.2546 11.434 57.2357 10.9246 55.9111 9.90566C55.8092 9.29432 56.2167 8.17352 57.1338 6.54327C57.3375 5.93193 57.7451 5.01491 58.3564 3.79223C58.764 3.38467 59.1716 3.18089 59.5791 3.18089C60.3943 3.18089 61.3622 3.5375 62.483 4.25073C63.6038 4.86207 64.2152 5.72815 64.317 6.84894C64.1133 7.15461 64.1133 7.56218 64.317 8.07163C64.5208 8.78486 64.6227 9.19242 64.6227 9.29431C64.6227 9.39621 64.4699 9.70188 64.1642 10.2113C63.8585 10.7208 63.7057 11.0774 63.7057 11.2812V12.0454C63.9095 12.0454 64.1642 11.9435 64.4699 11.7397C64.7756 11.5359 64.9793 11.434 65.0812 11.434C65.3869 11.434 65.8454 11.7906 66.4567 12.5039ZM46.5881 11.1283C45.5692 12.2491 44.7541 12.8095 44.1427 12.8095C43.5314 12.8095 43.2257 12.8095 43.2257 12.8095C43.1238 11.8925 42.92 11.434 42.6144 11.434C42.4106 11.434 42.2577 11.434 42.1558 11.434C42.054 11.434 42.003 11.434 42.003 11.434C42.6144 11.1283 43.0219 10.6189 43.2257 9.90566L43.837 10.3642C43.7352 10.3642 44.1427 10.0585 45.0597 9.44716H45.9767C45.9767 9.65094 46.1805 10.2113 46.5881 11.1283ZM47.0466 13.4209L46.7409 14.3379C46.7409 14.3379 46.4862 13.8794 45.9767 12.9624C46.3843 12.9624 46.7409 13.1152 47.0466 13.4209ZM47.6579 19.5343C47.6579 19.5343 47.1994 19.6872 46.2824 19.9928C46.2824 19.5853 46.5881 19.2796 47.1994 19.0758C47.1994 19.0758 47.3523 19.2286 47.6579 19.5343ZM41.5445 17.5475H41.2388V16.9361H41.5445V17.5475ZM29.6233 14.6436L29.012 14.7964V14.4907L29.6233 14.3379V14.6436ZM49.1863 55.1451L49.0335 55.2979L48.7278 54.9922L48.8806 54.8394L49.1863 55.1451ZM4.55823 30.8442H4.09973V30.2328H4.55823V30.8442ZM57.8979 16.0191C56.9809 18.0569 56.1149 20.2985 55.2997 22.7439V23.2024C55.5035 23.1005 56.013 22.642 56.8281 21.8269C57.0319 22.0306 57.1338 22.2854 57.1338 22.591C57.1338 22.6929 56.6243 24.8326 55.6054 29.0101C54.9941 30.2328 54.1789 32.0159 53.16 34.3594C52.7525 36.1934 51.9373 38.8935 50.7147 42.4597C50.409 42.9691 50.0524 43.6824 49.6448 44.5994C48.2183 49.6939 47.1994 53.7695 46.5881 56.8263C46.69 56.9282 46.8938 56.9791 47.1994 56.9791C47.607 56.9791 47.8617 56.8263 47.9636 56.5206C48.2693 55.7055 49.7976 51.4261 52.5487 43.6824C52.8544 43.3767 53.0581 43.2748 53.16 43.3767C52.8544 45.1088 52.4977 46.6882 52.0902 48.1146C48.6259 58.6093 46.4353 68.4418 45.5182 77.6119C45.4163 77.7138 45.2635 77.8667 45.0597 78.0704C45.1616 76.8478 45.4163 75.1156 45.8239 72.874L45.6711 71.1928C44.3465 75.9817 43.1748 83.0631 42.1558 92.437C42.1558 92.7427 41.9011 93.0993 41.3917 93.5069C41.1879 94.2201 41.1879 94.8314 41.3917 95.3409C41.1879 92.7936 41.1879 89.686 41.3917 86.0179C41.4936 84.4896 41.4936 83.6744 41.3917 83.5725C41.6973 82.8593 41.6973 82.2989 41.3917 81.8913C41.3917 81.7894 41.5955 81.5347 42.003 81.1272C42.003 80.9234 41.7992 80.8215 41.3917 80.8215C41.3917 80.7196 41.4936 80.6687 41.6973 80.6687C41.9011 80.5668 42.054 80.4649 42.1558 80.363C42.054 80.2611 41.8502 79.9045 41.5445 79.2931V78.529C41.6464 78.529 41.7992 78.6818 42.003 78.9875C42.7162 78.2742 42.7162 77.51 42.003 76.6949C42.003 76.3892 42.1559 76.0326 42.4615 75.6251C42.5634 75.3194 42.4615 75.1156 42.1558 75.0137C42.3596 72.4665 42.6653 69.8683 43.0729 67.2191C42.971 67.1172 42.8691 67.0663 42.7672 67.0663C42.4615 68.5946 42.1559 69.9192 41.8502 71.04C41.6464 71.1419 41.3917 71.4476 41.086 71.957C40.9841 73.1797 40.8313 74.1477 40.6275 74.8609L40.9332 75.1666C41.3407 74.759 41.5445 74.5552 41.5445 74.5552C41.3407 76.8987 40.9332 80.1592 40.3218 84.3367C40.5256 85.4575 40.5256 86.3236 40.3218 86.9349C40.2199 87.0368 39.9143 87.1896 39.4048 87.3934C39.7105 87.9029 40.0671 88.1576 40.4747 88.1576C40.4747 88.6671 40.5256 88.9727 40.6275 89.0746C40.6275 89.0746 40.4747 89.0746 40.169 89.0746C39.9652 88.9727 39.8124 88.9218 39.7105 88.9218C39.3029 89.4312 39.201 90.552 39.4048 92.2842C39.0991 92.7936 38.9463 93.354 38.9463 93.9654C38.9463 94.9843 39.1501 95.8503 39.5576 96.5636C39.9652 96.2579 40.4237 96.207 40.9332 96.4107V98.0919C40.4237 97.99 40.0161 97.6334 39.7105 97.0221C39.6086 97.124 39.5576 97.2768 39.5576 97.4806C39.5576 97.5825 39.5067 97.6844 39.4048 97.7863L42.003 113.681C42.003 114.089 41.7992 114.598 41.3917 115.21C40.9841 114.7 40.7294 113.987 40.6275 113.07C40.4237 112.866 40.118 112.56 39.7105 112.153C39.4048 111.745 39.201 111.185 39.0991 110.472C39.0991 110.472 38.9972 110.37 38.7935 110.166C38.7935 110.166 38.7935 110.217 38.7935 110.319C38.7935 110.523 38.6916 110.624 38.4878 110.624C38.0802 110.624 37.8255 110.624 37.7236 110.624C37.8255 111.134 37.9274 111.898 38.0293 112.917C38.2331 113.936 38.3859 114.7 38.4878 115.21C38.0802 115.006 37.7746 114.649 37.5708 114.14C37.4689 113.834 37.4689 113.579 37.5708 113.376C37.5708 113.172 37.4179 112.764 37.1123 112.153C36.9085 111.643 36.8066 111.185 36.8066 110.777C36.8066 110.37 36.7557 109.707 36.6538 108.79C36.2462 107.364 35.7877 105.224 35.2782 102.371C35.1763 102.168 35.1763 101.76 35.2782 101.149C35.3801 100.435 35.4311 100.028 35.4311 99.926C35.4311 99.1108 35.3801 98.041 35.2782 96.7164C34.7688 92.3351 34.5141 89.635 34.5141 88.6161C34.5141 86.5783 34.5141 84.7443 34.5141 83.114C34.6159 81.4838 34.6669 80.6177 34.6669 80.5158C33.9537 82.248 33.648 83.5216 33.7499 84.3367C33.7499 83.7254 33.597 82.8593 33.2914 81.7385C32.9857 81.8404 32.8329 82.197 32.8329 82.8084C33.0366 83.8273 33.2914 84.4895 33.597 84.7952C33.597 84.7952 33.4952 84.8462 33.2914 84.9481C33.0876 85.0499 32.9348 85.1009 32.8329 85.1009C32.8329 84.2858 32.68 83.0121 32.3744 81.28C31.9668 82.4008 31.763 83.6744 31.763 85.1009C31.763 85.2028 31.8649 86.0179 32.0687 87.5463C32.2725 88.9727 32.3744 89.9916 32.3744 90.603C32.3744 92.5389 32.2725 93.1502 32.0687 92.437C32.1706 92.8446 32.4253 94.271 32.8329 96.7164C32.5272 96.5126 32.3744 96.5126 32.3744 96.7164C32.3744 96.3089 32.6291 96.8693 33.1385 98.3976C32.8329 98.0919 32.68 98.2448 32.68 98.8561C32.68 98.958 32.9348 99.926 33.4442 101.76C34.0556 103.594 34.3612 104.613 34.3612 104.817C34.3612 105.02 34.3103 105.275 34.2084 105.581C34.1065 105.887 34.0555 106.141 34.0555 106.345C33.7499 106.345 33.3423 106.243 32.8329 106.039C33.2404 106.039 33.597 105.938 33.9027 105.734C33.3933 105.326 32.8838 104.409 32.3744 102.983C32.3744 102.881 32.3744 103.696 32.3744 105.428C32.1706 105.122 31.4573 102.83 30.2347 98.5504C29.8271 97.3278 29.4195 96.1051 29.012 94.8824C29.4195 94.6786 29.6233 94.5258 29.6233 94.4239C29.4195 94.1182 29.2667 93.9654 29.1648 93.9654C28.961 93.9654 28.8591 94.1182 28.8591 94.4239C28.8591 94.322 28.9101 94.2201 29.012 94.1182C29.012 94.0163 29.012 93.8635 29.012 93.6597C29.012 93.5578 28.9101 93.3031 28.7063 92.8955C28.6044 92.488 28.6044 92.1313 28.7063 91.8257C27.8912 90.9087 27.4836 90.0426 27.4836 89.2275C27.4836 89.7369 27.7893 89.1256 28.4006 87.3934L28.095 87.0878C27.6874 87.0878 27.4836 87.1387 27.4836 87.2406C27.4836 86.4255 27.6364 85.2028 27.9421 83.5725C27.7383 84.2858 27.6364 83.4197 27.6364 80.9743C27.6364 79.3441 27.6874 76.7968 27.7893 73.3325C27.7893 69.8683 27.7893 67.321 27.7893 65.6907C27.5855 65.8945 27.4836 66.1492 27.4836 66.4549C27.3817 66.0474 27.5855 65.3341 28.095 64.3152C27.8912 64.3152 27.5855 64.2133 27.1779 64.0095C27.6874 62.2774 27.7383 61.1566 27.3308 60.6472C27.3308 60.749 27.5346 60.5962 27.9421 60.1887C27.8402 60.1887 27.6874 60.1887 27.4836 60.1887C27.3817 60.0868 27.2798 59.9849 27.1779 59.883C27.1779 59.9849 27.127 60.1377 27.0251 60.3415C26.9232 60.5453 26.8723 60.6981 26.8723 60.8C26.3628 60.4943 25.9043 60.5453 25.4967 60.9528C25.4967 60.5453 25.4458 60.3415 25.3439 60.3415C25.5477 60.3415 25.3949 60.4434 24.8854 60.6472C23.8665 60.749 22.7966 60.9019 21.6758 61.1057C20.9626 61.0038 19.9437 61.2076 18.6191 61.717C18.6191 61.9208 18.3644 62.2265 17.855 62.634C17.7531 63.0416 17.804 63.4491 18.0078 63.8567C18.0078 65.3851 17.855 67.5757 17.5493 70.4287C17.3455 72.0589 17.0908 74.4533 16.7851 77.6119C16.5813 78.9365 16.4794 83.8782 16.4794 92.437C16.4794 92.437 16.6323 93.6597 16.9379 96.1051C17.0398 97.124 17.1927 98.7033 17.3964 100.843C17.6002 102.983 17.6512 104.766 17.5493 106.192C17.5493 108.434 17.804 109.809 18.3135 110.319C18.3135 110.319 18.2116 110.268 18.0078 110.166C17.804 110.064 17.5493 110.319 17.2436 110.93C17.0398 110.828 16.887 110.777 16.7851 110.777C16.6832 109.045 16.4794 106.549 16.1738 103.288C16.1738 103.186 16.1228 103.136 16.0209 103.136C16.1228 102.117 15.919 100.741 15.4096 99.009L15.1039 98.7033C14.1869 101.76 13.7284 102.983 13.7284 102.371C13.7284 102.575 13.8812 103.849 14.1869 106.192C14.4926 108.536 14.6454 109.809 14.6454 110.013V110.777C14.2378 110.777 13.9831 110.828 13.8812 110.93C13.3718 109.3 12.9642 105.887 12.6585 100.69C12.5566 100.486 12.4038 100.232 12.2 99.926C11.5887 100.334 11.4358 101.098 11.7415 102.219C11.334 101.505 11.1302 100.283 11.1302 98.5504C11.1302 96.8183 10.9773 95.4937 10.6717 94.5767C10.366 94.5767 10.1622 94.7295 10.0603 95.0352C10.0603 95.239 10.0603 95.3918 10.0603 95.4937C9.85654 94.6786 9.75465 93.6597 9.75465 92.437C9.44898 92.2332 9.29615 92.1313 9.29615 92.1313C9.09236 93.2521 9.09236 94.5767 9.29615 96.1051C9.39804 97.4297 9.44898 97.9391 9.44898 97.6334C9.44898 97.6334 9.75465 97.6334 10.366 97.6334C10.8754 100.384 11.0792 102.83 10.9773 104.97V107.721C10.5698 107.721 10.3151 107.67 10.2132 107.568C10.1113 107.058 9.90749 103.9 9.60182 98.0919C9.29615 98.6014 8.93953 98.8561 8.53197 98.8561C8.32819 98.8561 7.92062 98.6523 7.30928 98.2448C7.20739 95.9013 6.95266 93.8635 6.5451 92.1313L6.23943 91.9785C6.13754 92.5898 6.18848 93.0484 6.39226 93.354C6.08659 94.271 5.9847 96.4107 6.08659 99.7731C5.57714 98.6523 5.47525 97.073 5.78092 95.0352C5.47525 94.8314 5.32241 94.7296 5.32241 94.7296L4.86391 94.5767C5.16958 92.5389 4.91485 87.9029 4.09973 80.6687C3.79406 80.9743 3.53933 81.1272 3.33555 81.1272C3.33555 80.6177 3.38649 79.8535 3.48838 78.8346C3.38649 78.2233 3.23366 77.3063 3.02988 76.0836C2.82609 76.1855 2.7242 76.3892 2.7242 76.6949C2.8261 80.5668 3.18271 87.2406 3.79406 96.7164L3.48838 98.0919L2.41853 85.7122C1.90908 86.7311 1.65435 87.1387 1.65435 86.9349C1.65435 87.1387 1.75624 87.2915 1.96003 87.3934C1.96003 89.4312 2.11286 92.2332 2.41853 95.7994C2.21475 94.8824 1.65435 89.1765 0.737339 78.6818C0.839229 77.0515 0.839229 74.5552 0.737339 71.1928L0.125995 64.6209C0.125995 64.6209 0.227886 62.9906 0.431667 59.7301C0.533558 55.8583 1.09396 49.3883 2.11286 40.32C2.62231 37.3652 3.38649 34.4103 4.4054 31.4555L1.80719 50.8657H2.11286C2.31664 50.3562 2.62231 49.5411 3.02988 48.4203C3.02988 49.0316 3.02988 49.3373 3.02988 49.3373C3.13177 49.3373 3.2846 49.1335 3.48838 48.726C3.69217 47.7071 3.79406 46.9429 3.79406 46.4334C3.89595 46.2296 3.99784 45.873 4.09973 45.3636C4.81296 41.6955 5.78092 36.1934 7.00361 28.8573C7.71684 24.1703 8.22629 20.6551 8.53197 18.3116C8.53197 18.5154 8.6848 18.7701 8.99047 19.0758C9.19425 18.3626 9.55087 17.3946 10.0603 16.1719C10.0603 15.7644 10.1113 15.153 10.2132 14.3379C11.8434 10.4661 15.002 7.05272 19.689 4.0979C19.7909 4.19979 19.8418 4.40357 19.8418 4.70924C19.8418 5.01491 19.1286 5.83003 17.7021 7.15461C16.2756 8.3773 15.5624 9.24337 15.5624 9.75282C15.6643 9.65094 15.7662 9.59999 15.8681 9.59999C15.97 9.59999 16.0719 9.54905 16.1738 9.44716C15.97 9.65094 15.7153 9.95661 15.4096 10.3642C15.5115 10.4661 15.6134 10.5679 15.7153 10.6698C15.8171 10.6698 15.919 10.6698 16.0209 10.6698C16.836 10.0585 18.1097 9.09054 19.8418 7.76596H20.4532C20.6569 8.17352 20.606 8.78486 20.3003 9.59999L20.606 9.90566C20.9117 9.70188 21.1664 9.29432 21.3702 8.68297C21.4721 8.47919 21.7777 8.3773 22.2872 8.3773C22.6948 8.3773 23.2552 8.53014 23.9684 8.83581C23.9684 9.24338 23.9684 9.44716 23.9684 9.44716C23.6627 9.14148 23.3061 8.98865 22.8985 8.98865C22.6948 8.98865 22.1344 9.44715 21.2173 10.3642C21.523 10.5679 22.1344 10.5679 23.0514 10.3642C22.6438 10.4661 22.0834 10.9755 21.3702 11.8925C21.3702 11.8925 21.4211 11.8925 21.523 11.8925C21.6249 11.9944 21.7777 12.0454 21.9815 12.0454C22.2872 12.0454 22.7966 11.7906 23.5099 11.2812C23.5099 10.9755 23.6118 10.6698 23.8155 10.3642C24.2231 10.8736 24.9363 11.7906 25.9553 13.1152C26.159 13.0133 26.7704 12.9624 27.7893 12.9624C27.7893 14.6945 28.1968 15.5096 29.012 15.4078C28.7063 15.9172 28.1968 16.6814 27.4836 17.7003C27.6874 17.9041 27.8402 18.006 27.9421 18.006C28.044 18.006 27.9931 18.1588 27.7893 18.4645C27.5855 18.7701 27.4836 18.9739 27.4836 19.0758C27.6874 19.2796 27.9931 19.5853 28.4006 19.9928C27.4836 20.0947 26.9232 20.7061 26.7194 21.8269C26.5156 22.8458 26.2609 23.7628 25.9553 24.5779C25.7515 25.393 25.3949 27.7365 24.8854 31.6083C24.6816 32.3216 24.3759 33.3914 23.9684 34.8179C23.6627 35.5311 23.4589 36.1425 23.357 36.6519C23.5608 37.0595 23.6627 37.2123 23.6627 37.1104C23.2552 37.7218 23.0514 37.9256 23.0514 37.7218C23.0514 38.435 23.2042 38.7916 23.5099 38.7916C23.6118 38.7916 24.1722 38.7916 25.1911 38.7916C26.21 38.7916 26.9742 38.7916 27.4836 38.7916C27.3817 38.9954 26.7194 39.1483 25.4967 39.2501C24.2741 39.352 23.408 39.7086 22.8985 40.32C22.8985 40.6257 23.0514 40.7785 23.357 40.7785C23.4589 40.7785 23.7137 40.7276 24.1212 40.6257C24.6307 40.5238 24.9363 40.4728 25.0382 40.4728C25.242 40.4728 25.293 40.5238 25.1911 40.6257C25.0892 40.7276 25.1401 40.7785 25.3439 40.7785C25.4458 40.7785 25.8024 40.7785 26.4138 40.7785C26.9232 40.6766 27.2798 40.6257 27.4836 40.6257H28.095C28.4006 40.2181 28.7572 40.0143 29.1648 40.0143C29.3686 40.0143 29.5214 40.0653 29.6233 40.1672C29.7252 40.1672 29.878 40.1672 30.0818 40.1672C30.0818 40.269 30.0818 40.4728 30.0818 40.7785C30.1837 40.9823 30.2347 41.1351 30.2347 41.237C28.1968 41.3389 25.5986 41.8993 22.44 42.9182C22.44 43.122 22.6438 43.4277 23.0514 43.8352H28.4006C28.6044 43.8352 28.8082 43.7843 29.012 43.6824C29.3176 43.5805 29.5724 43.5295 29.7761 43.5295C30.4894 43.5295 31.3555 43.2748 32.3744 42.7654C33.9027 37.0595 35.2782 32.6782 36.5009 29.6215C37.4179 27.1761 38.8444 23.8137 40.7803 19.5343C41.1879 18.923 41.7483 18.0569 42.4615 16.9361C42.1559 15.9172 42.3087 15.204 42.92 14.7964C43.0219 14.8983 43.1238 15.0002 43.2257 15.1021C43.4295 15.204 43.5314 15.3059 43.5314 15.4078C43.7352 15.4078 43.837 15.2549 43.837 14.9492C44.4484 15.2549 44.9069 15.4078 45.2126 15.4078C45.3145 15.3059 45.3654 15.153 45.3654 14.9492C45.4673 14.7455 45.5692 14.5926 45.6711 14.4907C45.6711 14.6945 45.722 14.9492 45.8239 15.2549C46.9447 16.07 47.5051 16.5286 47.5051 16.6304C47.5051 16.8342 47.3523 17.1399 47.0466 17.5475C47.1485 17.8531 47.4032 18.4135 47.8108 19.2286C48.9316 18.6173 49.441 18.3116 49.3391 18.3116C49.8486 18.3116 50.2052 18.5154 50.409 18.923C50.1033 19.6362 50.1543 20.6042 50.5618 21.8269C51.4788 20.4004 51.9373 19.5343 51.9373 19.2286C51.9373 17.9041 51.4788 17.2418 50.5618 17.2418C50.358 17.2418 50.2561 17.2927 50.2561 17.3946C50.358 17.4965 50.3071 17.5475 50.1033 17.5475C50.409 17.5475 49.7467 16.9361 48.1164 15.7134C48.3202 15.4078 48.3712 14.7964 48.2693 13.8794C48.8806 13.8794 49.1354 14.0832 49.0335 14.4907C48.9316 14.5926 48.9316 14.7455 49.0335 14.9492C49.3391 14.7455 49.492 14.3888 49.492 13.8794C49.492 13.8794 49.5429 14.1341 49.6448 14.6436C49.9505 14.7455 50.3071 15.0002 50.7147 15.4078C52.0392 14.0832 53.0581 13.4209 53.7714 13.4209C53.9752 13.4209 54.3318 13.6756 54.8412 14.1851C55.4526 14.6945 55.7582 15.1021 55.7582 15.4078C55.7582 15.6115 55.7073 15.9681 55.6054 16.4776C55.5035 16.9871 55.4526 17.3437 55.4526 17.5475L55.1469 17.3946C54.9431 17.3946 54.7393 17.7003 54.5356 18.3116C54.3318 18.4135 54.128 18.6682 53.9242 19.0758C53.8223 19.3815 53.6695 19.8909 53.4657 20.6042L53.6185 21.8269C53.7204 21.725 54.1789 20.6042 54.9941 18.4645C55.1978 18.2607 55.5545 17.955 56.0639 17.5475C56.2677 17.1399 56.5734 16.5795 56.9809 15.8663C57.1847 15.8663 57.3375 15.9172 57.4394 16.0191C57.6432 16.0191 57.7961 16.0191 57.8979 16.0191ZM34.3612 64.7737L33.597 65.2322L33.4442 64.9266L34.2084 64.4681L34.3612 64.7737ZM2.11286 53.4639L1.96003 53.9224H1.65435L1.80719 53.311L2.11286 53.4639ZM33.7499 88.4633C33.7499 88.3614 33.6989 88.1067 33.597 87.6991C33.4952 87.2915 33.4442 87.0368 33.4442 86.9349C33.5461 86.7311 33.4442 86.6293 33.1385 86.6293C32.8329 86.6293 32.68 86.6802 32.68 86.7821C32.7819 86.6802 32.9348 86.4764 33.1385 86.1707C33.3423 85.7632 33.4952 85.5085 33.597 85.4066C33.6989 85.916 33.7499 86.9349 33.7499 88.4633ZM40.9332 95.1881C40.6275 95.1881 40.2199 95.2899 39.7105 95.4937C39.5067 95.3918 39.4048 94.9843 39.4048 94.271C39.5067 94.4748 39.7105 94.8314 40.0161 95.3409C40.0161 95.239 40.0671 95.1371 40.169 95.0352C40.2709 94.8314 40.3218 94.7296 40.3218 94.7296L40.9332 95.1881ZM33.1385 89.0746H32.8329L32.5272 88.4633L32.8329 88.3104L33.1385 89.0746ZM33.9027 90.7558H33.597V88.769H33.9027V90.7558ZM42.003 98.8561H41.6973L41.3917 98.3976L41.6973 98.2448L42.003 98.8561ZM33.2914 92.2842H32.9857V91.52H33.2914V92.2842ZM26.5666 86.7821H26.1081V85.8651H26.5666V86.7821ZM34.3612 94.5767H34.0555V94.1182H34.3612V94.5767ZM26.7194 89.9916H26.4138V89.3803H26.7194V89.9916ZM27.0251 91.52H26.5666V90.9087H27.0251V91.52ZM32.2215 102.83H31.9158V102.371H32.2215V102.83ZM6.69794 77.4591C6.69794 79.395 6.59605 80.8724 6.39226 81.8913C6.39226 81.6876 6.34132 81.3309 6.23943 80.8215C6.13754 80.2101 6.08659 79.8026 6.08659 79.5988C6.08659 79.2931 6.29037 78.5799 6.69794 77.4591ZM4.09973 80.2101H3.64122V79.5988H4.09973V80.2101ZM4.09973 81.28L3.79406 82.8084H3.48838L3.79406 81.28H4.09973ZM1.80719 80.2101H1.34868V79.5988H1.80719V80.2101ZM4.09973 83.5725H3.64122V83.114H4.09973V83.5725ZM10.2132 96.2579H9.90749V95.7994H10.2132V96.2579ZM12.2 99.926H11.7415V98.7033H12.2V99.926ZM48.4221 18.6173L48.1164 17.5475H47.8108L47.9636 18.6173H48.4221ZM54.5356 40.4728L54.2299 40.32L53.9242 40.9313L54.2299 41.0842L54.5356 40.4728ZM27.1779 13.7266H26.8723L26.5666 14.1851L26.8723 14.3379L27.1779 13.7266ZM53.9242 41.3898C53.9242 41.1861 53.6695 41.3898 53.16 42.0012V42.9182C53.6695 42.5106 53.9242 42.0012 53.9242 41.3898ZM46.5881 68.289L46.2824 67.9833L46.1296 68.1361L46.4353 68.4418L46.5881 68.289ZM43.3785 64.4681C42.971 64.4681 42.7672 64.6209 42.7672 64.9266V65.8436C42.8691 65.8436 43.0729 65.3851 43.3785 64.4681ZM34.5141 69.3588C33.2914 68.7475 32.8329 68.4418 33.1385 68.4418C32.8329 68.6456 32.68 68.9512 32.68 69.3588C32.68 69.155 32.7819 69.0531 32.9857 69.0531C33.0876 69.0531 33.2404 69.2569 33.4442 69.6645C33.7499 70.072 34.0046 70.4287 34.2084 70.7343C34.0046 70.2249 34.1065 69.7664 34.5141 69.3588ZM27.3308 64.9266V64.4681H27.0251V64.9266H27.3308ZM20.606 62.4812V61.5642H20.3003V62.4812H20.606ZM33.9027 75.9307V75.0137H33.597V75.9307H33.9027ZM34.8197 79.9045C34.7178 80.4139 34.6669 78.8856 34.6669 75.3194C34.565 75.8289 34.3612 76.4911 34.0555 77.3063C33.9537 77.2044 33.8518 77.1534 33.7499 77.1534C33.648 77.1534 33.597 77.1025 33.597 77.0006C33.6989 76.7968 33.597 76.5421 33.2914 76.2364C33.1895 77.2553 32.9857 78.6818 32.68 80.5158C32.5781 80.312 32.4253 80.2101 32.2215 80.2101V81.1272C32.6291 81.0253 33.0366 80.8215 33.4442 80.5158C33.3423 80.5158 33.2404 80.4649 33.1385 80.363C33.3423 78.529 33.4952 77.7138 33.597 77.9176C33.6989 78.0195 33.8518 78.0195 34.0555 77.9176C34.1574 78.1214 34.3612 78.4271 34.6669 78.8346C34.4631 79.1403 34.3612 79.2931 34.3612 79.2931C34.565 79.4969 34.7178 79.7007 34.8197 79.9045ZM26.2609 73.6382V73.0269H25.9553V73.6382H26.2609ZM3.02988 52.6997V51.6298H2.7242V52.6997H3.02988ZM42.1558 96.2579C41.7483 96.2579 41.4936 96.156 41.3917 95.9522C41.3917 96.0541 41.2898 96.2579 41.086 96.5636C41.2898 96.5636 41.4936 96.7674 41.6973 97.1749C41.9011 97.2768 42.054 96.9711 42.1558 96.2579ZM4.09973 100.537L3.64122 98.2448H3.33555L3.79406 100.537H4.09973ZM72.0965 119.711C70.4795 119.711 69.6711 119.421 69.6711 118.841C69.6711 118.592 69.3809 118.302 68.8004 117.97C68.22 117.638 67.5152 117.369 66.686 117.162C65.1935 116.789 64.4472 116.478 64.4472 116.229C64.4472 116.022 64.924 115.669 65.8776 115.172C67.2457 114.467 68.1371 113.845 68.5517 113.306C68.9663 112.808 69.7125 112.332 70.7905 111.876C71.0807 111.751 71.2258 111.648 71.2258 111.565C71.2258 111.357 70.6247 111.233 69.4223 111.192C67.4737 111.067 66.4994 110.756 66.4994 110.259C66.4994 109.72 67.6396 108.953 69.9198 107.958C71.7441 107.253 72.6562 106.776 72.6562 106.527C72.6562 106.32 72.0965 106.071 70.9771 105.781C69.3601 105.325 68.5517 104.91 68.5517 104.537V103.978C68.5517 103.314 69.3187 102.775 70.8527 102.361C71.5575 102.278 72.1586 101.842 72.6562 101.055C73.1951 100.226 73.7756 98.6708 74.3975 96.3905C75.0193 94.0688 75.8485 90.607 76.885 86.005C81.5285 65.1509 83.8502 52.2156 83.8502 47.199C83.8502 45.5406 83.6636 44.5249 83.2905 44.1517C82.9588 43.7371 82.0674 43.5298 80.6164 43.5298C79.7457 43.5298 78.9373 43.4262 78.191 43.2189C77.4447 42.9701 76.9472 42.6799 76.6984 42.3483C76.4912 42.0166 76.0973 41.6642 75.5169 41.291C74.9364 40.8764 74.2731 40.524 73.5268 40.2338C72.822 39.9022 72.0757 39.5912 71.288 39.301C72.1172 39.0522 72.9049 38.8242 73.6512 38.6169C74.4389 38.3682 75.0608 38.0987 75.5169 37.8085C75.9729 37.4768 76.2009 37.2073 76.2009 37C76.2009 36.7512 76.3875 36.5025 76.7606 36.2537C77.1338 35.9635 77.5691 35.7562 78.0666 35.6318C78.5641 35.466 78.8129 35.3416 78.8129 35.2587C78.8129 35.0929 78.2117 34.9892 77.0094 34.9478C76.1802 34.9063 75.4754 34.7819 74.895 34.5746C74.3145 34.3673 74.0243 34.1393 74.0243 33.8905C74.0243 33.5589 74.6877 33.1235 76.0144 32.5846C79.497 31.175 82.3991 30.4701 84.7208 30.4701C85.3427 30.4701 85.9439 30.3458 86.5243 30.097C87.4779 29.6824 87.9547 29.2678 87.9547 28.8532C87.9547 28.4801 87.4364 28.2935 86.3999 28.2935C85.7366 28.2935 84.8452 28.3764 83.7258 28.5423C82.6479 28.6667 81.6321 28.7289 80.6785 28.7289C78.4397 28.7289 76.9265 28.5216 76.1387 28.107C75.6827 27.8582 75.4547 27.6509 75.4547 27.4851C75.4547 26.7803 77.7764 26.2206 82.4198 25.806C87.0633 25.3499 91.4787 25.1219 95.6661 25.1219C97.9464 25.1219 99.584 25.2255 100.579 25.4328C102.445 25.9718 103.378 26.5108 103.378 27.0497C103.378 27.8375 101.864 28.2728 98.8378 28.3557C96.7648 28.4386 95.7283 28.6252 95.7283 28.9154C95.7283 29.2056 96.4124 29.5166 97.7805 29.8483C99.1487 30.1385 100.952 30.325 103.191 30.408H103.502C106.363 30.408 107.793 30.9677 107.793 32.0871C107.793 33.2065 106.611 33.8076 104.248 33.8905C102.88 33.932 102.196 34.0564 102.196 34.2637C102.196 34.3051 102.341 34.3881 102.631 34.5124C103.585 34.7197 104.062 35.0929 104.062 35.6318C104.062 35.7562 104.02 35.8806 103.937 36.005C103.854 36.1293 103.813 36.2537 103.813 36.3781C103.813 36.7927 104.227 37 105.057 37C106.176 37 106.736 37.2695 106.736 37.8085C106.736 38.762 105.72 39.6119 103.688 40.3582C102.735 40.6484 102.03 41.0423 101.574 41.5398C100.745 42.4519 99.9779 45.5821 99.2731 50.9303C98.1537 58.1857 96.0185 69.2554 92.8676 84.1393C91.4994 90.4411 90.463 94.898 89.7582 97.5099C89.6752 97.8002 89.6338 98.0904 89.6338 98.3806C89.6338 99.3756 90.6081 100.246 92.5567 100.993C94.5052 101.739 95.4795 102.34 95.4795 102.796C95.4795 103.294 94.1736 103.604 91.5616 103.729C89.3228 103.812 88.2034 104.061 88.2034 104.475C88.2034 105.138 90.1106 105.595 93.9248 105.843C97.1172 106.092 98.7963 106.403 98.9621 106.776C99.1694 107.149 99.2731 107.377 99.2731 107.46C99.2731 108.041 98.05 108.58 95.6039 109.077C94.1528 109.367 93.4273 109.595 93.4273 109.761C93.4273 109.803 93.5724 109.844 93.8626 109.886C94.8162 109.968 95.293 110.321 95.293 110.943C95.293 111.15 95.2308 111.399 95.1064 111.689C94.982 111.979 94.9198 112.228 94.9198 112.435C94.9198 112.726 95.065 112.871 95.3552 112.871C95.5625 112.871 95.8319 112.788 96.1636 112.622C96.5368 112.498 96.8477 112.435 97.0965 112.435C97.7184 112.435 98.0293 112.829 98.0293 113.617C98.0293 114.156 97.8842 114.591 97.594 114.923C97.3452 115.255 96.7855 115.566 95.9149 115.856C95.0442 116.146 93.6968 116.457 91.8726 116.789C90.0484 117.162 87.6023 117.618 84.5343 118.157C79.0616 119.11 75.6827 119.608 74.3975 119.649C73.1537 119.691 72.3867 119.711 72.0965 119.711ZM94.1114 58.5796C94.4431 58.5796 94.6089 58.2687 94.6089 57.6468C94.6089 57.2322 94.5467 56.8176 94.4223 56.403C94.2565 56.0713 94.1321 55.9055 94.0492 55.9055C93.8419 55.9055 93.7383 56.4237 93.7383 57.4602C93.7383 58.2065 93.8626 58.5796 94.1114 58.5796ZM91.4994 30.4701C92.0799 30.4701 92.6188 30.1177 93.1164 29.4129L93.1785 29.102C93.1785 28.563 92.6188 28.2935 91.4994 28.2935C90.3386 28.2935 89.7582 28.563 89.7582 29.102C89.7582 29.4337 90.0484 29.7861 90.6288 30.1592C90.919 30.3665 91.2092 30.4701 91.4994 30.4701ZM113.992 119.09C113.743 119.09 113.619 119.007 113.619 118.841C113.619 118.633 113.743 118.343 113.992 117.97C114.116 117.721 114.179 117.535 114.179 117.41C114.179 117.245 114.096 117.162 113.93 117.162C113.681 117.162 113.308 117.265 112.81 117.473C112.313 117.721 111.96 117.846 111.753 117.846C111.629 117.846 111.567 117.784 111.567 117.659C111.567 117.493 111.815 117.141 112.313 116.602C112.81 115.897 113.059 115.462 113.059 115.296C113.059 115.13 112.976 115.047 112.81 115.047C112.686 115.047 112.624 114.985 112.624 114.861C112.624 114.529 113.08 113.866 113.992 112.871C115.111 111.585 115.671 110.777 115.671 110.445C115.671 109.699 115.754 109.077 115.92 108.58C116.251 107.626 116.79 105.677 117.537 102.734C118.117 100.412 118.656 99.2512 119.154 99.2512C119.278 99.2512 119.402 99.3342 119.527 99.5C119.817 99.9975 120.045 100.246 120.211 100.246C120.46 100.246 120.688 99.9768 120.895 99.4378C120.978 99.2305 121.061 99.1269 121.144 99.1269C121.517 99.1269 121.869 99.9768 122.201 101.677C122.574 103.335 122.885 104.164 123.134 104.164C123.3 104.164 123.507 103.812 123.756 103.107C123.963 102.651 124.129 102.423 124.253 102.423C124.502 102.423 124.626 103.625 124.626 106.03C124.626 108.393 124.274 110.632 123.569 112.746C122.906 114.902 121.185 116.498 118.407 117.535C116.044 118.488 114.572 119.007 113.992 119.09ZM120.522 115.047C120.812 115.047 121.061 114.944 121.268 114.736C121.475 114.529 121.579 114.28 121.579 113.99C121.579 113.327 121.434 112.995 121.144 112.995C121.019 112.995 120.853 113.078 120.646 113.244C120.439 113.451 120.252 113.658 120.086 113.866C119.962 114.114 119.9 114.322 119.9 114.488C119.9 114.861 120.107 115.047 120.522 115.047ZM176.017 119.711C174.4 119.711 173.591 119.421 173.591 118.841C173.591 118.592 173.301 118.302 172.721 117.97C172.14 117.638 171.436 117.369 170.606 117.162C169.114 116.789 168.368 116.478 168.368 116.229C168.368 116.022 168.844 115.669 169.798 115.172C171.166 114.467 172.057 113.845 172.472 113.306C172.887 112.808 173.633 112.332 174.711 111.876C175.001 111.751 175.146 111.648 175.146 111.565C175.146 111.357 174.545 111.233 173.343 111.192C171.394 111.067 170.42 110.756 170.42 110.259C170.42 109.72 171.56 108.953 173.84 107.958C175.664 107.253 176.577 106.776 176.577 106.527C176.577 106.32 176.017 106.071 174.897 105.781C173.281 105.325 172.472 104.91 172.472 104.537V103.978C172.472 103.314 173.239 102.775 174.773 102.361C175.478 102.278 176.079 101.842 176.577 101.055C177.116 100.226 177.696 98.6708 178.318 96.3905C178.94 94.0688 179.769 90.607 180.805 86.005C185.449 65.1509 187.771 52.2156 187.771 47.199C187.771 45.5406 187.584 44.5249 187.211 44.1517C186.879 43.7371 185.988 43.5298 184.537 43.5298C183.666 43.5298 182.858 43.4262 182.111 43.2189C181.365 42.9701 180.868 42.6799 180.619 42.3483C180.412 42.0166 180.018 41.6642 179.437 41.291C178.857 40.8764 178.193 40.524 177.447 40.2338C176.742 39.9022 175.996 39.5912 175.208 39.301C176.038 39.0522 176.825 38.8242 177.572 38.6169C178.359 38.3682 178.981 38.0987 179.437 37.8085C179.893 37.4768 180.121 37.2073 180.121 37C180.121 36.7512 180.308 36.5025 180.681 36.2537C181.054 35.9635 181.49 35.7562 181.987 35.6318C182.485 35.466 182.733 35.3416 182.733 35.2587C182.733 35.0929 182.132 34.9892 180.93 34.9478C180.101 34.9063 179.396 34.7819 178.815 34.5746C178.235 34.3673 177.945 34.1393 177.945 33.8905C177.945 33.5589 178.608 33.1235 179.935 32.5846C183.417 31.175 186.32 30.4701 188.641 30.4701C189.263 30.4701 189.864 30.3458 190.445 30.097C191.398 29.6824 191.875 29.2678 191.875 28.8532C191.875 28.4801 191.357 28.2935 190.32 28.2935C189.657 28.2935 188.766 28.3764 187.646 28.5423C186.568 28.6667 185.553 28.7289 184.599 28.7289C182.36 28.7289 180.847 28.5216 180.059 28.107C179.603 27.8582 179.375 27.6509 179.375 27.4851C179.375 26.7803 181.697 26.2206 186.34 25.806C190.984 25.3499 195.399 25.1219 199.587 25.1219C201.867 25.1219 203.504 25.2255 204.499 25.4328C206.365 25.9718 207.298 26.5108 207.298 27.0497C207.298 27.8375 205.785 28.2728 202.758 28.3557C200.685 28.4386 199.649 28.6252 199.649 28.9154C199.649 29.2056 200.333 29.5166 201.701 29.8483C203.069 30.1385 204.873 30.325 207.111 30.408H207.422C210.283 30.408 211.713 30.9677 211.713 32.0871C211.713 33.2065 210.532 33.8076 208.169 33.8905C206.8 33.932 206.116 34.0564 206.116 34.2637C206.116 34.3051 206.261 34.3881 206.552 34.5124C207.505 34.7197 207.982 35.0929 207.982 35.6318C207.982 35.7562 207.941 35.8806 207.858 36.005C207.775 36.1293 207.733 36.2537 207.733 36.3781C207.733 36.7927 208.148 37 208.977 37C210.096 37 210.656 37.2695 210.656 37.8085C210.656 38.762 209.64 39.6119 207.609 40.3582C206.655 40.6484 205.951 41.0423 205.494 41.5398C204.665 42.4519 203.898 45.5821 203.193 50.9303C202.074 58.1857 199.939 69.2554 196.788 84.1393C195.42 90.4411 194.383 94.898 193.679 97.5099C193.596 97.8002 193.554 98.0904 193.554 98.3806C193.554 99.3756 194.528 100.246 196.477 100.993C198.426 101.739 199.4 102.34 199.4 102.796C199.4 103.294 198.094 103.604 195.482 103.729C193.243 103.812 192.124 104.061 192.124 104.475C192.124 105.138 194.031 105.595 197.845 105.843C201.038 106.092 202.717 106.403 202.883 106.776C203.09 107.149 203.193 107.377 203.193 107.46C203.193 108.041 201.97 108.58 199.524 109.077C198.073 109.367 197.348 109.595 197.348 109.761C197.348 109.803 197.493 109.844 197.783 109.886C198.737 109.968 199.213 110.321 199.213 110.943C199.213 111.15 199.151 111.399 199.027 111.689C198.902 111.979 198.84 112.228 198.84 112.435C198.84 112.726 198.985 112.871 199.276 112.871C199.483 112.871 199.752 112.788 200.084 112.622C200.457 112.498 200.768 112.435 201.017 112.435C201.639 112.435 201.95 112.829 201.95 113.617C201.95 114.156 201.805 114.591 201.514 114.923C201.266 115.255 200.706 115.566 199.835 115.856C198.965 116.146 197.617 116.457 195.793 116.789C193.969 117.162 191.523 117.618 188.455 118.157C182.982 119.11 179.603 119.608 178.318 119.649C177.074 119.691 176.307 119.711 176.017 119.711ZM198.032 58.5796C198.363 58.5796 198.529 58.2687 198.529 57.6468C198.529 57.2322 198.467 56.8176 198.343 56.403C198.177 56.0713 198.053 55.9055 197.97 55.9055C197.762 55.9055 197.659 56.4237 197.659 57.4602C197.659 58.2065 197.783 58.5796 198.032 58.5796ZM195.42 30.4701C196 30.4701 196.539 30.1177 197.037 29.4129L197.099 29.102C197.099 28.563 196.539 28.2935 195.42 28.2935C194.259 28.2935 193.679 28.563 193.679 29.102C193.679 29.4337 193.969 29.7861 194.549 30.1592C194.839 30.3665 195.13 30.4701 195.42 30.4701ZM216.731 32.1493C216.565 32.1493 216.461 32.0249 216.42 31.7761C216.378 31.2371 216.15 30.9677 215.736 30.9677C215.57 30.9677 215.404 31.0091 215.238 31.092C215.072 31.175 214.948 31.2164 214.865 31.2164C214.616 31.2164 214.492 30.8847 214.492 30.2214C214.492 29.1434 214.761 27.6509 215.3 25.7438C215.839 23.8366 216.544 21.9088 217.415 19.9602C218.286 17.9701 218.866 16.9751 219.156 16.9751C219.322 16.9751 219.405 17.2031 219.405 17.6592C219.446 18.5298 219.55 18.9652 219.716 18.9652C219.923 18.9652 220.379 18.3433 221.084 17.0995L222.701 14.5497C222.203 16.7886 221.955 18.1567 221.955 18.6542C221.955 19.0688 221.996 19.442 222.079 19.7736C222.328 20.5614 222.639 20.9552 223.012 20.9552C223.344 20.9552 223.654 20.6235 223.945 19.9602C224.028 19.7944 224.111 19.7114 224.193 19.7114C224.359 19.7114 224.463 20.2297 224.504 21.2662C224.504 22.9245 223.883 25.1426 222.639 27.9204C221.768 29.8275 221.167 30.7811 220.835 30.7811C220.711 30.7811 220.628 30.5738 220.587 30.1592C220.587 29.3715 220.462 28.9776 220.213 28.9776C220.006 28.9776 219.426 29.558 218.472 30.7189C217.643 31.6725 217.062 32.1493 216.731 32.1493ZM238.104 119.836C237.855 119.836 237.565 119.463 237.233 118.716C236.902 117.97 236.632 117.037 236.425 115.918L235.679 112.062L233.129 118.281L232.383 115.483C232.217 114.736 232.134 113.845 232.134 112.808C232.134 103.978 238.187 84.1808 250.293 53.4179C254.066 43.7993 256.636 37.6012 258.004 34.8234C259.207 32.4187 260.243 31.2164 261.114 31.2164L262.047 31.2786C263.125 31.2786 264.037 31.0506 264.783 30.5945C265.073 30.4287 265.363 30.3458 265.654 30.3458C266.151 30.3458 266.586 30.5738 266.96 31.0298C267.623 31.7761 267.975 32.8541 268.017 34.2637V34.3881C268.017 35.2172 268.39 35.6318 269.136 35.6318C269.385 35.6318 269.696 35.5696 270.069 35.4453C270.898 35.2794 271.479 35.1965 271.81 35.1965C272.059 35.1965 272.204 35.2794 272.246 35.4453C272.287 35.5696 272.474 37.2073 272.805 40.3582C273.137 43.5091 273.552 47.4063 274.049 52.0497C274.547 56.6517 275.044 60.4867 275.542 63.5547C276.081 66.5813 276.495 68.136 276.786 68.2189C277.573 67.9701 280.745 62.5804 286.3 52.0497C293.887 37.4975 298.676 29.0813 300.666 26.801C301.744 25.5987 302.656 24.9975 303.402 24.9975L304.397 25.0597C305.558 25.0597 306.47 24.8524 307.134 24.4378C307.507 24.2305 307.839 24.1269 308.129 24.1269C308.668 24.1269 309.103 24.4378 309.435 25.0597C309.808 25.6401 309.994 26.3657 309.994 27.2363C309.994 27.7338 309.912 28.3143 309.746 28.9776C309.58 29.641 309.497 30.1385 309.497 30.4701C309.497 30.6774 309.559 30.7811 309.684 30.7811C309.891 30.7811 310.243 30.5531 310.741 30.097C311.446 29.4751 312.047 29.1642 312.544 29.1642C313.788 29.1642 314.41 31.0298 314.41 34.7612C314.41 38.8242 313.747 45.3955 312.42 54.4751C306.284 95.2711 301.578 115.669 298.303 115.669C298.137 115.669 298.054 115.441 298.054 114.985C298.054 113.949 298.552 111.212 299.547 106.776L299.609 106.341C299.609 106.216 299.567 106.154 299.485 106.154C299.277 106.154 298.635 107.398 297.557 109.886C295.484 114.861 294.074 117.348 293.328 117.348C292.913 117.348 292.685 116.643 292.644 115.234C292.644 113.824 292.54 113.119 292.333 113.119C292.291 113.119 292.229 113.202 292.146 113.368C291.773 114.239 291.276 114.674 290.654 114.674C290.032 114.674 289.721 113.306 289.721 110.57C289.721 105.18 290.571 97.4478 292.271 87.3731C293.846 78.3764 294.717 72.9453 294.883 71.0796C294.883 70.9967 294.862 70.9552 294.82 70.9552C294.406 70.9552 293.162 72.8002 291.089 76.49C285.451 86.7305 281.222 92.0995 278.402 92.597C276.495 93.0116 274.754 93.5298 273.179 94.1517C272.557 94.359 271.914 94.4627 271.251 94.4627C270.007 94.4627 268.68 94.131 267.271 93.4677C265.115 92.5141 263.664 91.1874 262.917 89.4876C262.295 87.7877 261.57 84.3466 260.741 79.1642L259.435 71.0796L255.952 79.7239C251.723 90.1716 248.863 99.7488 247.37 108.455C246.831 111.648 246.396 113.99 246.064 115.483C245.732 117.017 245.463 117.867 245.256 118.032C245.09 118.198 244.965 118.281 244.883 118.281C243.846 118.281 243.224 115.524 243.017 110.01C242.229 113.534 241.794 115.317 241.711 115.358C241.628 115.441 241.566 115.483 241.524 115.483C241.276 115.483 240.902 115.027 240.405 114.114C239.949 113.368 239.638 112.995 239.472 112.995C239.265 112.995 239.161 113.969 239.161 115.918C239.161 117.037 239.057 117.97 238.85 118.716C238.643 119.463 238.394 119.836 238.104 119.836ZM243.763 109.015C244.012 109.015 244.136 108.455 244.136 107.336C244.136 106.714 244.074 106.154 243.95 105.657C243.867 105.325 243.784 105.159 243.701 105.159C243.577 105.159 243.494 105.74 243.452 106.9C243.452 108.31 243.556 109.015 243.763 109.015ZM300.48 103.107C300.77 103.107 300.915 102.879 300.915 102.423V101.925C300.915 101.635 300.853 101.345 300.728 101.055C300.604 100.723 300.5 100.557 300.417 100.557C300.252 100.557 300.148 100.93 300.106 101.677C300.106 102.63 300.231 103.107 300.48 103.107ZM244.696 102.112C245.028 102.112 245.193 101.801 245.193 101.179C245.193 100.806 245.131 100.412 245.007 99.9975C244.841 99.6658 244.717 99.5 244.634 99.5C244.468 99.5 244.385 99.9975 244.385 100.993C244.385 101.739 244.489 102.112 244.696 102.112ZM301.475 97.9453C301.806 97.9453 301.972 97.6343 301.972 97.0124C301.972 96.6393 301.91 96.2662 301.786 95.893C301.62 95.5614 301.495 95.3955 301.412 95.3955C301.247 95.3955 301.164 95.893 301.164 96.8881C301.164 97.5929 301.267 97.9453 301.475 97.9453ZM271.064 91.9751C271.354 91.9751 271.603 91.8715 271.81 91.6642C272.059 91.4569 272.184 91.2081 272.184 90.9179C272.184 90.2131 272.018 89.8607 271.686 89.8607C271.562 89.8607 271.396 89.9643 271.188 90.1716C270.981 90.3789 270.795 90.607 270.629 90.8557C270.504 91.1045 270.442 91.291 270.442 91.4154C270.442 91.7886 270.65 91.9751 271.064 91.9751ZM302.532 91.7886C302.822 91.7886 302.988 91.4776 303.029 90.8557C303.029 90.4826 302.946 90.0887 302.781 89.6741C302.656 89.3425 302.553 89.1766 302.47 89.1766C302.304 89.1766 302.2 89.5498 302.159 90.296C302.159 91.291 302.283 91.7886 302.532 91.7886ZM277.532 89.8607C277.822 89.8607 278.61 89.1766 279.895 87.8085C280.849 86.772 281.325 86.1086 281.325 85.8184C281.325 85.7769 281.305 85.7562 281.263 85.7562C280.931 85.7562 280.123 86.4403 278.838 87.8085C277.926 88.8864 277.47 89.5498 277.47 89.7985C277.47 89.84 277.49 89.8607 277.532 89.8607ZM303.527 85.5697C303.858 85.5697 304.024 85.2587 304.024 84.6368C304.024 84.2637 303.962 83.8905 303.838 83.5174C303.713 83.1857 303.61 83.0199 303.527 83.0199C303.319 83.0199 303.216 83.5174 303.216 84.5124C303.216 85.2172 303.319 85.5697 303.527 85.5697ZM304.584 79.4129C304.874 79.4129 305.04 79.0813 305.082 78.4179C305.082 78.0448 305.019 77.6716 304.895 77.2985C304.729 76.9668 304.605 76.801 304.522 76.801C304.356 76.801 304.252 77.1741 304.211 77.9204C304.211 78.9154 304.335 79.4129 304.584 79.4129ZM306.636 66.9751C306.968 66.9751 307.134 66.6642 307.134 66.0423C307.134 65.6692 307.072 65.296 306.947 64.9229C306.781 64.5912 306.657 64.4254 306.574 64.4254C306.408 64.4254 306.325 64.9229 306.325 65.9179C306.325 66.6227 306.429 66.9751 306.636 66.9751ZM307.693 60.8184C307.984 60.8184 308.15 60.5075 308.191 59.8856C308.191 59.5124 308.108 59.1186 307.942 58.704C307.818 58.3723 307.714 58.2065 307.631 58.2065C307.465 58.2065 307.362 58.5796 307.32 59.3259C307.32 60.3209 307.445 60.8184 307.693 60.8184ZM403.806 127.299C403.359 127.299 402.985 126.677 402.687 125.433C402.339 124.04 401.642 123.343 400.597 123.343C400.349 123.343 400.05 123.393 399.702 123.493C399.403 123.592 399.105 123.642 398.806 123.642C398.16 123.642 397.587 122.871 397.09 121.328C396.642 119.786 395.672 113.816 394.18 103.418C393.035 95.7065 391.667 87.2736 390.075 78.1194C387.836 65.1841 386.493 58.7164 386.045 58.7164C385.1 58.7164 383.806 62.8706 382.165 71.1791C381.269 75.7562 380.548 80.7313 380 86.1045C378.209 102.323 376.642 110.433 375.299 110.433C374.304 110.433 373.682 106.851 373.433 99.6866L371.717 108.343C370.175 105.01 369.354 103.343 369.254 103.343C369.005 103.343 368.881 104.711 368.881 107.448C368.782 110.731 368.533 112.398 368.135 112.448L367.612 112.522C366.916 112.522 366.269 111.03 365.672 108.045L364.777 103.418L361.717 110.582L360.896 107.448C360.597 106.005 360.448 104.164 360.448 101.925C360.448 97.995 360.921 92.8458 361.866 86.4776C363.359 76.4776 365.597 65.5572 368.583 53.7164C371.617 41.8259 375 30.9801 378.732 21.1791C381.07 15.0099 382.737 11.2537 383.732 9.91044C384.727 8.51741 385.573 7.82089 386.269 7.82089C386.816 7.82089 387.339 8.06965 387.836 8.56716C388.533 9.16417 389.055 9.46268 389.403 9.46268C389.702 9.46268 389.851 9.2388 389.851 8.79104C389.851 7.79601 390.175 7.27363 390.821 7.22387C391.468 7.22387 392.14 7.57213 392.836 8.26865C393.583 8.91542 394.08 9.81094 394.329 10.9552C394.727 13.0448 395.448 14.0895 396.493 14.0895C396.742 14.0895 397.015 14.0398 397.314 13.9403C397.612 13.8408 397.886 13.791 398.135 13.791C399.229 13.791 399.926 15.0348 400.224 17.5224C400.423 18.8159 400.821 21.4279 401.418 25.3582C402.065 29.2388 402.737 33.5423 403.433 38.2687C405.175 49.1642 406.145 54.8358 406.344 55.2836C406.592 55.2836 407.463 52.2239 408.956 46.1045C410.747 38.3433 412.762 30.9055 415 23.791C418.085 13.9403 420.324 9.01492 421.717 9.01492C421.866 9.01492 421.941 9.2388 421.941 9.68656C421.941 10.1841 421.642 12.9453 421.045 17.9701C423.234 12.8955 424.627 9.88557 425.224 8.94029C425.871 7.94527 426.294 7.44775 426.493 7.44775C426.791 7.44775 426.941 8.91542 426.941 11.8507C426.941 13.5423 426.642 19.2886 426.045 29.0895C428.284 19.8358 429.528 14.9353 429.777 14.3881C430.075 13.8408 430.299 13.5672 430.448 13.5672C430.647 13.5672 430.846 13.99 431.045 14.8358C431.244 15.6318 431.344 16.6766 431.344 17.9701C431.344 19.9602 431.12 22.597 430.672 25.8806C430.025 31.2537 429.005 36.6766 427.612 42.1492C423.831 56.9751 420.946 73.6915 418.956 92.2985C417.463 106.527 416.244 115.582 415.299 119.463C414.354 123.343 413.508 125.284 412.762 125.284C412.314 125.284 411.841 124.637 411.344 123.343C410.896 122.05 410.05 121.403 408.806 121.403C407.712 121.403 407.165 121.975 407.165 123.119C407.165 123.567 406.99 124.114 406.642 124.761C406.294 125.408 405.821 125.98 405.224 126.478C404.627 127.025 404.155 127.299 403.806 127.299ZM413.881 91.4776C414.279 91.4776 414.478 91.0796 414.478 90.2836C414.478 89.8358 414.403 89.3881 414.254 88.9403C414.055 88.5423 413.906 88.3433 413.806 88.3433C413.607 88.3433 413.508 88.9403 413.508 90.1343C413.508 91.0298 413.632 91.4776 413.881 91.4776ZM375.523 82.7463C375.871 82.7463 376.045 82.4726 376.045 81.9254V81.3284C376.045 80.9801 375.971 80.6318 375.821 80.2836C375.672 79.8856 375.548 79.6866 375.448 79.6866C375.249 79.6866 375.125 80.1343 375.075 81.0298C375.075 82.1741 375.224 82.7463 375.523 82.7463ZM415.15 82.4478C415.498 82.4478 415.672 81.801 415.672 80.5075C415.672 79.2139 415.498 78.5672 415.15 78.5672C414.951 78.5672 414.851 79.2139 414.851 80.5075C414.851 81.801 414.951 82.4478 415.15 82.4478ZM416.344 75.3582C416.742 75.3582 416.941 75.0846 416.941 74.5373V73.9403C416.941 73.592 416.866 73.2189 416.717 72.8209C416.568 72.4229 416.443 72.2239 416.344 72.2239C416.095 72.2239 415.971 72.8209 415.971 74.0149C415.971 74.9104 416.095 75.3582 416.344 75.3582ZM377.985 69.1642C378.334 69.1642 378.533 68.791 378.583 68.0448C378.583 67.597 378.483 67.1244 378.284 66.6269C378.135 66.2289 378.01 66.0298 377.911 66.0298C377.712 66.0298 377.587 66.4776 377.538 67.3731C377.538 68.5672 377.687 69.1642 377.985 69.1642ZM417.612 67.8955C417.961 67.8955 418.16 67.5224 418.209 66.7761C418.209 66.3284 418.135 65.8806 417.985 65.4328C417.786 65.0348 417.637 64.8358 417.538 64.8358C417.339 64.8358 417.239 65.4328 417.239 66.6269C417.239 67.4726 417.364 67.8955 417.612 67.8955ZM418.881 61.7015C419.229 61.7015 419.403 61.4279 419.403 60.8806V60.2836C419.403 59.9353 419.329 59.5871 419.18 59.2388C419.03 58.8408 418.906 58.6418 418.806 58.6418C418.607 58.6418 418.483 59.0895 418.433 59.9851C418.433 61.1293 418.583 61.7015 418.881 61.7015ZM486.32 154.239L485.499 150.806C485.001 149.015 484.404 148.119 483.708 148.119L483.26 148.194C482.713 148.194 482.439 143.716 482.439 134.761C482.439 131.279 482.638 118.194 483.036 95.5075C475.474 94.7612 470.773 94.3632 468.932 94.3134L463.633 94.2388C462.439 94.2388 457.414 94.4129 448.559 94.7612C445.922 102.025 444.28 106.851 443.633 109.239C443.036 111.229 442.738 112.597 442.738 113.343V113.866C442.738 114.662 442.638 115.06 442.439 115.06C442.24 115.06 441.942 114.662 441.544 113.866C441.146 113.119 440.947 112.075 440.947 110.731C440.947 109.239 441.146 107.398 441.544 105.209C442.141 102.174 442.439 100.06 442.439 98.8657C442.439 98.3682 442.34 98.1194 442.141 98.1194C441.792 98.1194 441.195 99.3881 440.35 101.925C439.504 104.463 439.081 106.502 439.081 108.045C439.081 109.338 438.708 109.985 437.962 109.985C437.763 109.985 437.539 109.935 437.29 109.836C437.091 109.736 436.917 109.687 436.768 109.687C435.822 109.687 435.126 110.781 434.678 112.97C434.33 114.811 433.907 115.731 433.409 115.731C433.21 115.731 432.962 115.483 432.663 114.985C432.414 114.537 432.166 113.866 431.917 112.97C431.718 112.075 431.618 111.179 431.618 110.284C431.569 108.94 431.345 108.269 430.947 108.269C430.2 108.269 429.479 109.537 428.783 112.075C428.683 112.473 428.584 112.672 428.484 112.672C428.235 112.672 428.086 111.652 428.036 109.612C428.036 102.896 430.549 93.6915 435.574 82C440.598 70.3085 447.066 58.1194 454.977 45.4328C462.937 32.7463 471.295 21.5522 480.051 11.8507C481.942 9.76119 483.434 8.2189 484.529 7.22387C485.673 6.22885 486.743 5.60696 487.738 5.3582C488.783 5.05969 490.151 4.91044 491.842 4.91044C494.181 4.91044 495.773 5.10945 496.618 5.50746C497.514 5.90547 498.21 6.75124 498.708 8.04477C499.156 8.89054 499.678 9.61193 500.275 10.2089C500.872 10.806 501.394 11.1045 501.842 11.1045C503.285 11.1045 504.33 12.6468 504.977 15.7313C505.623 18.7662 505.947 23.6418 505.947 30.3582C505.947 39.4129 505.3 52.6468 504.006 70.0597C502.116 94.7363 499.703 115.035 496.768 130.955C494.131 145.035 492.414 152.075 491.618 152.075L491.544 151.627C491.544 149.836 492.016 145.532 492.962 138.716C494.056 130.209 494.603 124.786 494.603 122.448C494.603 121.652 494.554 121.229 494.454 121.179C494.156 121.179 493.459 124.562 492.365 131.328C491.718 135.358 490.996 139.114 490.2 142.597C489.454 146.129 488.783 148.592 488.186 149.985C487.588 151.378 486.967 152.796 486.32 154.239ZM495.424 115.284C495.723 115.284 495.872 114.363 495.872 112.522C495.872 111.627 495.797 110.756 495.648 109.91C495.549 109.463 495.474 109.239 495.424 109.239C495.275 109.239 495.176 110.184 495.126 112.075C495.126 114.214 495.225 115.284 495.424 115.284ZM479.23 80.0597C481.519 80.0597 482.663 79.9353 482.663 79.6866C482.663 79.2388 480.474 78.8657 476.096 78.5672C473.409 78.4179 470.549 78.3433 467.514 78.3433C462.539 78.3433 460.051 78.4428 460.051 78.6418C460.051 78.791 461.096 78.9652 463.186 79.1642C468.36 79.7612 473.708 80.0597 479.23 80.0597ZM472.962 74.3134C480.822 74.3134 484.927 73.7662 485.275 72.6716C485.673 71.2289 486.171 64.6119 486.768 52.8209C487.116 45.9055 487.29 40.8806 487.29 37.7463C487.29 35.7065 487.24 34.6866 487.141 34.6866C486.295 34.6866 481.768 40.8308 473.559 53.1194C465.399 65.408 461.32 72.1493 461.32 73.3433C461.32 73.592 462.464 73.8159 464.753 74.0149C467.041 74.2139 469.778 74.3134 472.962 74.3134ZM501.693 19.3881C501.792 19.3881 501.892 19.3383 501.991 19.2388C502.091 19.0895 502.141 18.7413 502.141 18.194C502.091 17.6965 501.942 17.1741 501.693 16.6269C501.494 16.0298 501.27 15.607 501.021 15.3582C500.822 15.1094 500.648 14.9851 500.499 14.9851C500.25 14.9851 500.126 15.2587 500.126 15.806C500.126 16.5025 500.25 17.1741 500.499 17.8209C500.947 18.8657 501.345 19.3881 501.693 19.3881ZM495.35 10.6567C495.797 10.6567 496.021 10.4826 496.021 10.1343C496.021 9.63681 495.723 9.11442 495.126 8.56716C494.529 7.97014 494.106 7.67164 493.857 7.67164C493.658 7.67164 493.559 7.84576 493.559 8.19402C493.559 9.03979 493.832 9.73631 494.38 10.2836C494.628 10.5323 494.952 10.6567 495.35 10.6567ZM518.759 121.851L517.49 118.642C516.992 117.199 516.619 116.478 516.371 116.478C516.221 116.478 516.072 117.896 515.923 120.731L514.803 118.119C514.057 116.229 513.684 113.07 513.684 108.642C513.684 107.896 513.709 105.93 513.759 102.746C513.808 99.5124 514.356 94.2886 515.4 87.0746C516.594 79.6119 517.191 75.0099 517.191 73.2687C517.191 73.1194 517.167 72.7711 517.117 72.2239C517.117 71.6269 516.918 71.2289 516.52 71.0298C516.122 70.8308 515.55 70.7313 514.803 70.7313C514.057 70.7313 513.435 70.607 512.938 70.3582C512.44 70.1095 512.191 69.8109 512.191 69.4627C512.191 69.1144 512.341 68.8159 512.639 68.5672C512.987 68.2687 513.385 68.1194 513.833 68.1194C514.331 68.1194 514.878 67.9701 515.475 67.6716C516.122 67.3731 516.669 67 517.117 66.5522C517.614 66.1045 517.863 65.6816 517.863 65.2836C517.863 65.1841 517.788 65.0099 517.639 64.7612C517.54 64.5124 515.948 63.5423 512.863 61.8507C514.057 61.5522 515.251 61.2537 516.445 60.9552C517.689 60.607 518.585 60.1343 519.132 59.5373C519.729 58.8905 520.027 58.2935 520.027 57.7463C520.027 57.597 519.978 57.3483 519.878 57C519.779 56.6517 519.132 56.4776 517.938 56.4776C516.744 56.4776 516.147 56.1791 516.147 55.5821C516.147 55.4826 516.172 55.2338 516.221 54.8358C516.321 54.4378 517.142 54.0149 518.684 53.5672C520.276 53.0696 521.57 50.9552 522.565 47.2239C530.475 16.1791 535.898 0.656709 538.833 0.656709C539.132 0.656709 539.281 0.905466 539.281 1.40298C539.281 2.24875 538.609 4.98507 537.266 9.61193C537.017 10.5572 536.893 11.2537 536.893 11.7015C536.893 12.0497 536.992 12.2239 537.191 12.2239C537.54 12.2239 538.037 11.6517 538.684 10.5075C539.381 9.36318 540.052 7.82089 540.699 5.88059C541.893 2.49751 542.863 0.805963 543.609 0.805963C544.107 0.805963 544.356 1.4776 544.356 2.82089C544.356 3.71641 544.256 4.88557 544.057 6.32835C543.858 7.77114 543.759 8.94029 543.759 9.83581C543.759 10.2836 543.808 10.806 543.908 11.403C544.057 12.398 544.654 12.8955 545.699 12.8955C546.644 12.8955 547.341 12.0249 547.788 10.2836C548.037 9.38805 548.361 8.64178 548.759 8.04477C549.206 7.44775 549.629 7.14925 550.027 7.14925C550.525 7.14925 550.774 7.72139 550.774 8.86567C550.774 11.5025 548.908 19.3383 545.177 32.3731C542.191 43.0199 540.699 48.7413 540.699 49.5373C540.699 50.3333 542.017 50.7313 544.654 50.7313C546.097 50.7313 547.938 50.607 550.177 50.3582C556.147 49.9104 559.43 49.5373 560.027 49.2388C560.326 48.8905 561.445 44.0895 563.386 34.8358C566.868 18.1194 569.381 9.76119 570.923 9.76119C571.52 9.76119 571.818 10.806 571.818 12.8955L571.669 14.9104C571.52 16.5522 571.445 18.0696 571.445 19.4627C571.445 19.9104 571.47 20.1343 571.52 20.1343C571.769 20.1343 572.589 18.4428 573.983 15.0597C575.376 11.6269 576.445 9.91044 577.191 9.91044C577.689 9.91044 577.938 10.5572 577.938 11.8507C577.938 12.597 577.863 13.4925 577.714 14.5373C577.565 15.5323 577.49 16.5522 577.49 17.597C577.49 19.9851 577.689 21.8756 578.087 23.2687C578.485 24.6119 578.858 25.9303 579.206 27.2239L580.177 22.4478C580.624 20.2089 581.246 18.4925 582.042 17.2985C582.589 16.5522 583.087 16.1791 583.535 16.1791C584.032 16.1791 584.281 16.403 584.281 16.8507C584.281 18.2935 583.336 24.5871 581.445 35.7313C579.356 47.5224 578.236 54.4378 578.087 56.4776C577.938 57.8706 577.515 59.0398 576.818 59.9851C576.371 60.5821 576.147 61.1791 576.147 61.7761C576.147 62.1741 576.196 62.4975 576.296 62.7463C576.445 62.995 576.52 63.2687 576.52 63.5672C576.52 63.8657 576.445 64.3383 576.296 64.9851C576.147 65.5821 575.798 66.3532 575.251 67.2985C574.754 68.194 573.858 70.8557 572.565 75.2836C571.271 79.6617 569.928 84.7363 568.535 90.5075C565.351 103.741 562.689 112.199 560.55 115.881L557.415 120.731C557.963 117.348 558.435 114.662 558.833 112.672C559.48 109.04 559.803 107.149 559.803 107C559.803 106.9 559.779 106.851 559.729 106.851C559.58 106.851 559.132 107.871 558.386 109.91C557.838 111.254 557.167 112.697 556.371 114.239C555.624 115.831 554.878 117.149 554.132 118.194C553.435 119.289 552.714 120.433 551.968 121.627L550.774 118.567C550.226 117.075 549.828 116.328 549.58 116.328C549.331 116.328 549.007 116.925 548.609 118.119C548.311 118.965 548.037 119.388 547.788 119.388C547.49 119.388 547.142 118.269 546.744 116.03C546.644 115.234 546.594 114.289 546.594 113.194C546.594 106.975 548.485 96.4279 552.266 81.5522C553.659 76.0796 554.356 72.8955 554.356 72C554.356 71.9005 554.306 71.8259 554.206 71.7761C554.157 71.7264 553.734 71.7015 552.938 71.7015C550.55 71.7015 544.978 72.0249 536.221 72.6716L535.177 79.8358C532.788 96.5522 530.276 108.194 527.639 114.761C526.097 118.045 525.127 119.687 524.729 119.687C524.53 119.687 524.43 119.438 524.43 118.94C524.43 118.045 524.679 116.453 525.177 114.164C525.923 110.881 526.296 108.692 526.296 107.597C526.296 107.149 526.246 106.925 526.147 106.925C525.898 106.925 525.376 108.119 524.58 110.507C524.132 112.05 523.535 113.592 522.788 115.134C522.092 116.726 521.42 117.995 520.774 118.94C520.127 119.886 519.455 120.856 518.759 121.851ZM527.042 103.866C527.39 103.866 527.565 103.219 527.565 101.925C527.565 100.582 527.39 99.9104 527.042 99.9104C526.793 99.9104 526.669 100.582 526.669 101.925C526.669 103.219 526.793 103.866 527.042 103.866ZM562.042 99.0896C562.44 99.0896 562.639 98.6915 562.639 97.8955C562.639 97.398 562.565 96.9254 562.415 96.4776C562.216 96.0796 562.067 95.8806 561.968 95.8806C561.769 95.8806 561.644 96.3284 561.594 97.2239C561.594 98.4677 561.744 99.0896 562.042 99.0896ZM528.311 93.8657C528.659 93.8657 528.858 93.4677 528.908 92.6716C528.908 92.2239 528.808 91.7512 528.609 91.2537C528.46 90.8557 528.336 90.6567 528.236 90.6567C527.987 90.6567 527.863 91.2786 527.863 92.5224C527.863 93.4179 528.012 93.8657 528.311 93.8657ZM543.162 56.8507C544.505 56.8507 545.997 56.801 547.639 56.7015C552.813 56.3532 556.147 55.806 557.639 55.0597C558.236 54.7612 558.535 54.5124 558.535 54.3134C558.535 54.0647 557.913 53.9403 556.669 53.9403C554.381 53.9403 551.943 54.0647 549.356 54.3134C542.739 55.0597 539.43 55.7562 539.43 56.403C539.43 56.7015 540.674 56.8507 543.162 56.8507ZM576.296 39.3881C576.694 39.3881 576.893 38.8905 576.893 37.8955C576.893 37.4975 576.818 37.1244 576.669 36.7761C576.47 36.3781 576.321 36.1791 576.221 36.1791C576.022 36.1791 575.898 36.6269 575.848 37.5224C575.848 38.7662 575.997 39.3881 576.296 39.3881ZM577.639 31.5522C577.987 31.5522 578.186 31.1542 578.236 30.3582C578.236 29.9104 578.137 29.4378 577.938 28.9403C577.788 28.5423 577.664 28.3433 577.565 28.3433C577.316 28.3433 577.191 28.9652 577.191 30.2089C577.191 31.1045 577.341 31.5522 577.639 31.5522ZM610.974 116.552C609.929 116.552 607.939 116.055 605.003 115.06C601.919 113.915 598.959 112.174 596.123 109.836C593.337 107.448 591.247 104.935 589.854 102.299C588.312 99.1144 587.217 95.7562 586.571 92.2239C585.924 88.6915 585.6 85.7313 585.6 83.3433C585.6 82.0995 585.675 80.9055 585.824 79.7612C587.018 71.3035 589.083 63.0696 592.018 55.0597C595.003 47 598.237 40.8308 601.72 36.5522C603.411 34.6617 604.63 33.7164 605.377 33.7164C605.824 33.7164 606.048 33.9403 606.048 34.3881C606.048 34.9851 605.675 35.9552 604.929 37.2985C604.382 38.194 604.108 38.7164 604.108 38.8657V38.9403C604.307 38.9403 605.153 38.0945 606.645 36.403C609.083 33.4677 611.695 29.1144 614.481 23.3433C617.018 18.0696 619.63 13.8657 622.317 10.7313C625.053 7.54726 627.466 5.90547 629.556 5.80596C631.347 5.80596 633.088 5.58208 634.78 5.13432C635.078 5.03482 635.401 4.98507 635.75 4.98507C637.193 4.98507 639.406 6.62686 642.392 9.91044C646.173 13.7413 648.635 17.8458 649.78 22.2239C650.924 26.5522 651.496 33.1691 651.496 42.0746C651.496 69.1891 647.367 89.0647 639.108 101.701C636.67 105.433 634.083 108.219 631.347 110.06C628.063 112.299 624.033 113.891 619.257 114.836C615.078 115.98 612.317 116.552 610.974 116.552ZM630.899 106.403C631.098 106.403 631.372 106.254 631.72 105.955C632.516 105.358 633.312 104.338 634.108 102.896C634.705 101.9 635.003 101.303 635.003 101.104C635.003 101.005 634.979 100.955 634.929 100.955C634.73 100.955 634.083 101.502 632.989 102.597C631.347 103.99 630.526 105.035 630.526 105.731C630.526 106.179 630.65 106.403 630.899 106.403ZM616.72 102C617.516 102 617.914 101.876 617.914 101.627L617.765 101.403C617.566 101.204 617.267 101.104 616.869 101.104C616.471 101.104 616.073 101.179 615.675 101.328C615.277 101.478 615.078 101.602 615.078 101.701C615.078 101.9 615.625 102 616.72 102ZM597.018 98.3433C597.466 98.3433 597.69 98.1692 597.69 97.8209C597.69 97.3731 597.392 96.8259 596.794 96.1791C596.297 95.7313 595.949 95.5075 595.75 95.5075C595.551 95.5075 595.451 95.6816 595.451 96.0298C595.451 96.5274 595.551 97 595.75 97.4478C595.998 97.8458 596.222 98.0945 596.421 98.194C596.67 98.2935 596.869 98.3433 597.018 98.3433ZM612.69 97.4478C614.232 97.4478 615.949 96.9502 617.839 95.9552C620.227 94.6617 622.591 92.6965 624.929 90.0597C627.267 87.4229 629.083 84.6119 630.377 81.6269C631.67 78.592 632.765 73.99 633.66 67.8209C634.605 61.6517 635.078 55.7562 635.078 50.1343C635.078 47.4975 634.879 44.4876 634.481 41.1045C634.133 37.7214 633.71 34.8109 633.212 32.3731C632.715 29.8856 632.267 28.592 631.869 28.4925C631.272 28.592 630.128 30.1841 628.436 33.2687C624.804 39.5373 621.247 44.7612 617.765 48.9403C616.222 50.7811 615.227 51.7015 614.78 51.7015L614.406 51.6269C612.765 51.6269 610.028 55.6816 606.197 63.791C604.307 67.7711 603.362 72.2239 603.362 77.1493C603.461 90.6816 606.571 97.4478 612.69 97.4478ZM599.332 72.1493C599.63 72.1493 599.78 71.5522 599.78 70.3582C599.78 69.2139 599.63 68.6418 599.332 68.6418C599.133 68.6418 599.033 69.2139 599.033 70.3582C599.033 71.5522 599.133 72.1493 599.332 72.1493ZM637.765 11.1045C638.212 11.1045 638.436 10.9303 638.436 10.5821C638.436 10.0348 638.138 9.48756 637.541 8.94029C637.043 8.49253 636.695 8.26865 636.496 8.26865C636.297 8.26865 636.197 8.44278 636.197 8.79104C636.197 9.28855 636.322 9.76119 636.571 10.2089C636.819 10.607 637.043 10.8557 637.242 10.9552C637.491 11.0547 637.665 11.1045 637.765 11.1045ZM660.203 121.403C659.905 121.403 659.557 120.955 659.159 120.06C658.761 119.164 658.437 118.045 658.188 116.701L657.293 112.075L654.233 119.537L653.338 116.179C653.139 115.284 653.039 114.214 653.039 112.97C653.039 102.373 660.303 78.6169 674.83 41.7015C679.358 30.1592 682.442 22.7214 684.084 19.3881C685.527 16.5025 686.771 15.0597 687.815 15.0597L688.935 15.1343C690.228 15.1343 691.323 14.8607 692.218 14.3134C692.567 14.1144 692.915 14.0149 693.263 14.0149C693.86 14.0149 694.383 14.2886 694.83 14.8358C695.626 15.7313 696.049 17.0249 696.099 18.7164V18.8657C696.099 19.8607 696.547 20.3582 697.442 20.3582C697.741 20.3582 698.114 20.2836 698.562 20.1343C699.557 19.9353 700.253 19.8358 700.651 19.8358C700.95 19.8358 701.124 19.9353 701.174 20.1343C701.223 20.2836 701.447 22.2488 701.845 26.0298C702.243 29.8109 702.741 34.4876 703.338 40.0597C703.935 45.5821 704.532 50.1841 705.129 53.8657C705.776 57.4975 706.273 59.3632 706.621 59.4627C707.567 59.1642 711.373 52.6965 718.039 40.0597C727.144 22.597 732.89 12.4975 735.278 9.76119C736.572 8.3184 737.666 7.59701 738.562 7.59701L739.756 7.67164C741.149 7.67164 742.243 7.42288 743.039 6.92537C743.487 6.67661 743.885 6.55223 744.233 6.55223C744.88 6.55223 745.402 6.92537 745.8 7.67164C746.248 8.36815 746.472 9.2388 746.472 10.2836C746.472 10.8806 746.373 11.5771 746.174 12.3731C745.975 13.1691 745.875 13.7662 745.875 14.1642C745.875 14.4129 745.95 14.5373 746.099 14.5373C746.348 14.5373 746.771 14.2637 747.368 13.7164C748.213 12.9701 748.935 12.597 749.532 12.597C751.024 12.597 751.771 14.8358 751.771 19.3134C751.771 24.189 750.975 32.0746 749.383 42.9701C742.019 91.9254 736.373 116.403 732.442 116.403C732.243 116.403 732.144 116.129 732.144 115.582C732.144 114.338 732.741 111.055 733.935 105.731L734.009 105.209C734.009 105.06 733.96 104.985 733.86 104.985C733.611 104.985 732.84 106.478 731.547 109.463C729.059 115.433 727.368 118.418 726.472 118.418C725.975 118.418 725.701 117.572 725.651 115.881C725.651 114.189 725.527 113.343 725.278 113.343C725.228 113.343 725.154 113.443 725.054 113.642C724.606 114.687 724.009 115.209 723.263 115.209C722.517 115.209 722.144 113.567 722.144 110.284C722.144 103.816 723.164 94.5373 725.203 82.4478C727.094 71.6517 728.139 65.1343 728.338 62.8955C728.338 62.796 728.313 62.7463 728.263 62.7463C727.766 62.7463 726.273 64.9602 723.786 69.3881C717.019 81.6766 711.945 88.1194 708.562 88.7164C706.273 89.2139 704.184 89.8358 702.293 90.5821C701.547 90.8308 700.776 90.9552 699.98 90.9552C698.487 90.9552 696.895 90.5572 695.203 89.7612C692.616 88.6169 690.875 87.0249 689.98 84.9851C689.233 82.9453 688.363 78.8159 687.368 72.597L685.8 62.8955L681.621 73.2687C676.547 85.806 673.114 97.2985 671.323 107.746C670.676 111.577 670.154 114.388 669.756 116.179C669.358 118.02 669.034 119.04 668.786 119.239C668.587 119.438 668.437 119.537 668.338 119.537C667.094 119.537 666.348 116.229 666.099 109.612C665.154 113.841 664.631 115.98 664.532 116.03C664.432 116.129 664.358 116.179 664.308 116.179C664.009 116.179 663.562 115.632 662.965 114.537C662.417 113.642 662.044 113.194 661.845 113.194C661.596 113.194 661.472 114.363 661.472 116.701C661.472 118.045 661.348 119.164 661.099 120.06C660.85 120.955 660.552 121.403 660.203 121.403ZM666.994 108.418C667.293 108.418 667.442 107.746 667.442 106.403C667.442 105.657 667.368 104.985 667.218 104.388C667.119 103.99 667.019 103.791 666.92 103.791C666.771 103.791 666.671 104.488 666.621 105.881C666.621 107.572 666.746 108.418 666.994 108.418ZM735.054 101.328C735.402 101.328 735.577 101.055 735.577 100.507V99.9104C735.577 99.5622 735.502 99.2139 735.353 98.8657C735.203 98.4677 735.079 98.2687 734.98 98.2687C734.781 98.2687 734.656 98.7164 734.606 99.6119C734.606 100.756 734.756 101.328 735.054 101.328ZM668.114 100.134C668.512 100.134 668.711 99.7612 668.711 99.0149C668.711 98.5672 668.636 98.0945 668.487 97.597C668.288 97.199 668.139 97 668.039 97C667.84 97 667.741 97.597 667.741 98.791C667.741 99.6866 667.865 100.134 668.114 100.134ZM736.248 95.1343C736.646 95.1343 736.845 94.7612 736.845 94.0149C736.845 93.5672 736.771 93.1194 736.621 92.6716C736.422 92.2736 736.273 92.0746 736.174 92.0746C735.975 92.0746 735.875 92.6716 735.875 93.8657C735.875 94.7114 735.999 95.1343 736.248 95.1343ZM699.756 87.9701C700.104 87.9701 700.402 87.8458 700.651 87.597C700.95 87.3483 701.099 87.0497 701.099 86.7015C701.099 85.8557 700.9 85.4328 700.502 85.4328C700.353 85.4328 700.154 85.5572 699.905 85.806C699.656 86.0547 699.432 86.3284 699.233 86.6269C699.084 86.9254 699.009 87.1493 699.009 87.2985C699.009 87.7463 699.258 87.9701 699.756 87.9701ZM737.517 87.7463C737.865 87.7463 738.064 87.3731 738.114 86.6269C738.114 86.1791 738.014 85.7065 737.815 85.209C737.666 84.8109 737.542 84.6119 737.442 84.6119C737.243 84.6119 737.119 85.0597 737.069 85.9552C737.069 87.1493 737.218 87.7463 737.517 87.7463ZM707.517 85.4328C707.865 85.4328 708.81 84.6119 710.353 82.9701C711.497 81.7264 712.069 80.9303 712.069 80.5821C712.069 80.5323 712.044 80.5075 711.994 80.5075C711.596 80.5075 710.626 81.3284 709.084 82.9701C707.989 84.2637 707.442 85.0597 707.442 85.3582C707.442 85.408 707.467 85.4328 707.517 85.4328ZM738.711 80.2836C739.109 80.2836 739.308 79.9104 739.308 79.1642C739.308 78.7164 739.233 78.2687 739.084 77.8209C738.935 77.4229 738.81 77.2239 738.711 77.2239C738.462 77.2239 738.338 77.8209 738.338 79.0149C738.338 79.8607 738.462 80.2836 738.711 80.2836ZM739.98 72.8955C740.328 72.8955 740.527 72.4975 740.577 71.7015C740.577 71.2537 740.502 70.806 740.353 70.3582C740.154 69.9602 740.004 69.7612 739.905 69.7612C739.706 69.7612 739.582 70.209 739.532 71.1045C739.532 72.2985 739.681 72.8955 739.98 72.8955ZM742.442 57.9701C742.84 57.9701 743.039 57.597 743.039 56.8507C743.039 56.403 742.965 55.9552 742.815 55.5075C742.616 55.1094 742.467 54.9104 742.368 54.9104C742.169 54.9104 742.069 55.5075 742.069 56.7015C742.069 57.5473 742.193 57.9701 742.442 57.9701ZM743.711 50.5821C744.059 50.5821 744.258 50.209 744.308 49.4627C744.308 49.0149 744.208 48.5423 744.009 48.0448C743.86 47.6468 743.736 47.4478 743.636 47.4478C743.437 47.4478 743.313 47.8955 743.263 48.791C743.263 49.9851 743.412 50.5821 743.711 50.5821ZM778.015 114.761H774.956C771.224 114.761 767.916 113.891 765.03 112.149C758.413 108.468 755.105 102.871 755.105 95.3582C755.105 94.1144 755.18 92.8458 755.329 91.5522C756.523 82 758.861 70.3831 762.344 56.7015C765.876 43.0199 769.309 32.1492 772.642 24.0895C773.836 21.204 774.657 19.5373 775.105 19.0895C775.602 18.6418 776 18.4179 776.299 18.4179C776.747 18.4179 777.219 18.6667 777.717 19.1642C778.563 19.8109 779.259 20.1343 779.806 20.1343C780.204 20.1343 780.528 19.9602 780.777 19.6119C781.075 19.2139 781.573 18.8905 782.269 18.6418C782.966 18.3433 783.737 18.194 784.583 18.194C785.478 18.1443 787.866 17.8209 791.747 17.2239C795.677 16.6269 800.204 15.8806 805.329 14.9851C814.533 13.4428 822.543 12.6716 829.359 12.6716C836.175 12.6716 839.583 13.4428 839.583 14.9851C839.583 15.3333 839.309 15.6318 838.762 15.8806C838.214 16.1293 837.543 16.2537 836.747 16.2537C836 16.2537 835.354 16.4527 834.806 16.8507C834.259 17.2488 833.986 17.7214 833.986 18.2687C833.986 18.8159 833.811 19.3632 833.463 19.9104C833.165 20.408 832.767 20.7811 832.269 21.0298C832.02 21.1293 831.896 21.2288 831.896 21.3284C831.896 21.3781 831.995 21.403 832.194 21.403C832.592 21.403 833.314 21.3035 834.359 21.1045C835.155 21.005 835.801 20.9552 836.299 20.9552C837.493 20.9552 838.09 21.2288 838.09 21.7761C838.09 24.5622 827.145 27.6468 805.254 31.0298L789.732 33.4179C788.09 38.8905 787.045 42.5224 786.597 44.3134C786.647 44.4627 787.344 44.5373 788.687 44.5373C790.03 44.5373 791.722 44.4876 793.762 44.3881L796.672 44.3134C800.602 44.3134 802.568 44.7861 802.568 45.7313C802.568 46.3781 801.125 47 798.239 47.597C793.563 48.393 791.224 49.0895 791.224 49.6866C791.224 50.1841 792.742 50.4328 795.777 50.4328L799.881 50.3582C805.005 50.3582 807.568 50.6816 807.568 51.3284C807.568 52.2239 806.274 53.8408 803.687 56.1791C801.846 57.8209 800.926 58.791 800.926 59.0895C800.926 59.1393 801.025 59.1642 801.224 59.1642C801.523 59.1642 802.12 59.0398 803.015 58.791C803.662 58.592 804.234 58.4925 804.732 58.4925C805.677 58.4925 806.15 58.791 806.15 59.3881C806.15 60.3831 804.856 61.6269 802.269 63.1194C799.732 64.6119 795.329 66.7264 789.06 69.4627C781.697 72.597 777.891 75.0846 777.642 76.9254C776.597 81.403 776.075 84.7861 776.075 87.0746C776.075 88.4677 776.274 89.4876 776.672 90.1343C777.07 90.7313 777.816 91.0298 778.911 91.0298C780.453 91.0298 782.642 90.3831 785.478 89.0896C790.403 87.1493 794.632 85.7313 798.165 84.8358C801.697 83.9403 804.185 83.4925 805.627 83.4925C806.573 83.4925 807.045 83.6418 807.045 83.9403C807.045 84.4378 805.976 85.2836 803.836 86.4776C802.145 87.3731 801.299 87.995 801.299 88.3433C801.299 88.592 801.672 88.7164 802.418 88.7164C803.563 88.7662 804.135 89.0647 804.135 89.6119C804.135 89.8109 804.035 90.0846 803.836 90.4328C803.687 90.7313 803.612 90.9552 803.612 91.1045C803.612 91.3035 803.737 91.403 803.986 91.403C804.234 91.403 804.632 91.3035 805.18 91.1045C808.165 89.8109 809.831 89.1642 810.18 89.1642C810.329 89.1642 810.403 89.2388 810.403 89.3881C810.403 90.0846 809.01 91.9005 806.224 94.8358C802.99 98.2687 801.374 100.358 801.374 101.104C801.374 101.254 801.448 101.328 801.597 101.328C802.642 101.328 803.438 100.881 803.986 99.9851C804.583 99.0398 805.826 98.0448 807.717 97C808.762 96.403 809.408 96.1045 809.657 96.1045C809.806 96.1045 809.881 96.1791 809.881 96.3284C809.881 96.6269 809.607 97.2488 809.06 98.194C807.568 100.881 805.055 103.517 801.523 106.104C797.99 108.642 794.309 110.532 790.478 111.776C784.16 113.716 780.005 114.711 778.015 114.761ZM761 103.567C761.299 103.567 761.448 103.368 761.448 102.97C761.448 102.373 761.075 101.701 760.329 100.955C759.732 100.358 759.359 100.06 759.209 100.06C759.11 100.06 759.06 100.109 759.06 100.209C759.06 100.458 759.209 100.955 759.508 101.701C759.806 102.398 760.08 102.896 760.329 103.194C760.578 103.443 760.801 103.567 761 103.567ZM782.12 97C783.065 97 783.538 96.8259 783.538 96.4776L783.463 96.2537C783.214 96.0547 782.841 95.9303 782.344 95.8806C781.846 95.8806 781.349 95.9801 780.851 96.1791C780.354 96.3781 780.105 96.5274 780.105 96.6269C780.105 96.8756 780.777 97 782.12 97ZM776.224 28.3433C776.921 28.3433 777.468 27.7711 777.866 26.6269C778.115 25.8308 778.239 24.8358 778.239 23.6418C778.239 22.6468 778.115 22.1492 777.866 22.1492C777.617 22.1492 777.294 22.5224 776.896 23.2687C776 24.6617 775.553 25.9552 775.553 27.1492C775.553 27.9453 775.777 28.3433 776.224 28.3433ZM782.941 15.806C781.846 15.806 781.299 15.5323 781.299 14.9851C781.299 13.8408 783.787 12.6468 788.762 11.403C793.189 10.3085 798.413 9.31343 804.433 8.4179C812.592 7.27363 819.458 6.70149 825.03 6.70149C828.115 6.70149 830.379 6.92537 831.821 7.37313C833.364 7.97014 834.135 8.51741 834.135 9.01492C834.135 10.1094 831.199 10.6816 825.329 10.7313C819.707 10.7313 812.841 11.3781 804.732 12.6716C792.344 14.7612 785.08 15.806 782.941 15.806Z" fill="white"/>
</svg>
