<svg width="46" height="66" viewBox="0 0 46 66" fill="none" xmlns="http://www.w3.org/2000/svg">
<path d="M30.9415 28.7864C29.4288 29.5236 27.7196 29.8173 26.0309 29.6302C24.3422 29.4431 22.7501 28.7837 21.4567 27.7357C20.1633 26.6876 19.2268 25.2982 18.7663 23.7438C18.3059 22.1894 18.3421 20.5401 18.8703 19.0053C19.3987 17.4704 20.3951 16.1192 21.7334 15.1233C23.0717 14.1274 24.6914 13.5315 26.3869 13.4114C28.0823 13.2914 29.7771 13.6524 31.2561 14.4488C32.7352 15.2452 33.9317 16.441 34.6938 17.8845C35.203 18.8352 35.5099 19.872 35.5968 20.9355C35.6839 21.999 35.5492 23.0683 35.2007 24.0823C34.8522 25.0964 34.2967 26.0352 33.5658 26.8452C32.835 27.6551 31.9432 28.3203 30.9415 28.8026V28.7864ZM21.7825 2.50078C28.8038 0.0682193 36.8315 0.200516 42.8409 5.15202C44.11 6.1443 45.1076 7.41327 45.7489 8.85077C46.3544 10.7137 43.6197 8.66181 43.2474 8.3972C41.3522 7.16671 39.2981 6.1731 37.1356 5.44091C25.2988 1.99861 14.0987 8.26493 7.17969 18.0087C4.36013 22.306 2.20787 26.9672 0.789394 31.8481C0.65899 32.4462 0.455795 33.0279 0.183903 33.5814C-0.120262 34.1321 0.044613 32.1045 0.044613 32.037C0.298465 29.9968 0.70697 27.9766 1.26696 25.9921C4.47348 15.3736 11.5773 6.53164 21.7825 2.48188V2.50078ZM21.8876 59.1785V35.5198C22.5954 35.5873 23.2691 35.6197 23.9798 35.6197C27.206 35.6293 30.3724 34.7932 33.1303 33.2034V59.1759C33.1303 61.3951 32.7039 63.0366 31.6522 64.1057C31.1312 64.6483 30.4921 65.0766 29.7794 65.361C29.0666 65.6454 28.2972 65.7791 27.5246 65.7527C26.7628 65.7785 26.0043 65.6446 25.3032 65.3604C24.6021 65.0762 23.9755 64.6488 23.4682 64.1085C22.422 63.0177 21.8762 61.3735 21.8762 59.1812L21.8876 59.1785Z" fill="#FFD876"/>
</svg>
