<svg width="75" height="72" viewBox="0 0 75 72" fill="none" xmlns="http://www.w3.org/2000/svg">
<path fill-rule="evenodd" clip-rule="evenodd" d="M37.3084 71.2474C57.9133 71.2474 74.6169 55.5123 74.6169 36.1022C74.6169 16.692 57.9133 0.957031 37.3084 0.957031C16.7035 0.957031 0 16.692 0 36.1022C0 55.5123 16.7035 71.2474 37.3084 71.2474ZM46.4086 27.1158C48.5883 27.1158 50.3552 25.4513 50.3552 23.398C50.3552 21.3448 48.5883 19.6802 46.4086 19.6802C44.229 19.6802 42.4621 21.3448 42.4621 23.398C42.4621 25.4513 44.229 27.1158 46.4086 27.1158ZM32.4661 29.5537H50.532V46.947H53.6032V52.5244H39.2606V46.947H42.326V35.1725H32.4631V46.947H36.0601V52.5299H21.2387V46.9526H24.3084V35.178H21.0184V29.6007H24.3084V28.6446C24.3084 21.1247 31.2822 20.134 35.0541 20.134C36.0218 20.131 36.9887 20.186 37.949 20.2986V26.3312C37.949 26.3312 37.3336 26.2067 35.9749 26.2067C34.7911 26.2067 32.4661 26.2482 32.4661 28.4384V29.5537Z" fill="#FFDA77"/>
</svg>
