<svg id="Layer_1" data-name="Layer 1" xmlns="http://www.w3.org/2000/svg" viewBox="0 0 597.98 712.04"><path d="M264.86,65.15c4.82,1.06,8.37,4.24,12.05,7.21l74.47,60.05,72.23,58.24c6.25,5,12.48,10.11,18.78,15.1a18.68,18.68,0,0,1,6,8.3q24.66,65.91,49.35,131.8a12.65,12.65,0,0,1,.43,7.84q-9.58,37.83-19,75.71-12.35,49.23-24.71,98.45-5.19,20.7-10.37,41.4c-.07.27-.17.53-.26.8a2,2,0,0,0-1.19,1.52c-1,4.07-2.2,8.1-3,12.2-.83,4.32-2,8.54-3,12.8-.21.88,0,1.74-.14,2.59a54.43,54.43,0,0,1-2.17,8.25,6.45,6.45,0,0,1-2.42,3.15,8.18,8.18,0,0,0-4.51,1.58c-1.25.47-2.45,0-3.63-.31-3.28-.91-5.88-3-8.45-5.1-5.15-4.19-10.33-8.34-15.5-12.51q-17.14-13.86-34.35-27.7-10.83-8.71-21.66-17.45-16.42-13.26-32.85-26.5-10.79-8.7-21.58-17.37-16.2-13.05-32.4-26.11l-23.15-18.67q-20-16.11-40-32.21c-3.27-2.63-6.62-5.17-9.78-7.93a30.58,30.58,0,0,1-10.63-19.82,3,3,0,0,1,.32-2.43,1.31,1.31,0,0,0,.56-1c3.71-15.31,7.57-30.59,11.44-45.86,3.34-13.18,6.56-26.39,9.92-39.57,3.7-14.49,7.23-29,10.94-43.51,3.54-13.83,6.9-27.71,10.44-41.54,3.78-14.76,7.38-29.57,11.15-44.33,3.49-13.68,6.82-27.4,10.32-41.07,3.82-14.92,7.46-29.88,11.26-44.8Q252.94,84,256,71.55a10.68,10.68,0,0,1,1.33-2.94c.23-.38.5-.73.29-1.22.36-1.36,1.64-1.51,2.67-2,.45-.2,1-.07,1.47-.27Z" fill="#05304a"/><path d="M173.69,398.23c-.15,6.31,2.33,11.7,5.82,16.75,2.58,3.73,6.25,6.32,9.7,9.13,3.88,3.16,7.81,6.27,11.71,9.41q6.6,5.31,13.19,10.62c4,3.2,7.9,6.42,11.86,9.62q5.7,4.62,11.42,9.2c3.5,2.82,7,5.62,10.52,8.43q7.25,5.82,14.49,11.66c4.33,3.5,8.64,7,13,10.52s8.64,6.89,12.94,10.36c3.53,2.84,7,5.73,10.55,8.57,4.31,3.47,8.64,6.9,12.94,10.37,3.93,3.16,7.84,6.37,11.77,9.54s7.82,6.25,11.72,9.4,7.78,6.3,11.68,9.45,7.95,6.36,11.91,9.55c3.46,2.79,6.91,5.62,10.38,8.41,4.36,3.52,8.74,7,13.1,10.53,3.5,2.82,7,5.67,10.47,8.49,4.34,3.49,8.69,7,13,10.45,3.53,2.84,7,5.71,10.56,8.57,2.68,2.18,5.5,4.07,9,4.69a13.57,13.57,0,0,0,1.91.09,5.32,5.32,0,0,1,2.13-.64c.29-.06.66-.1.74.35Q419.9,618.86,409.61,626q-15,10.34-30,20.64c-2.8,1.93-5.76,1.81-8.8.8-3.46-1.16-6.1-3.58-8.86-5.8Q336.46,621,311,600.46l-52.06-42-46.29-37.3L164,482c-10.58-8.52-21.2-17-31.71-25.59a29.83,29.83,0,0,1-10.69-18.3c0-.19,0-.4-.23-.51v-5c1.48-8.31,3.86-16.4,5.9-24.57q3.7-14.78,7.42-29.55c4.72-18.69,9.37-37.39,14.09-56.08,3.25-12.87,6.42-25.76,9.7-38.62,3.95-15.46,7.73-31,11.67-46.42,3.61-14.14,7.06-28.32,10.68-42.46,3.7-14.49,7.23-29,10.93-43.51,3.44-13.44,6.75-26.91,10.14-40.37.2-.77.43-1.54.59-2.32a11.91,11.91,0,0,1,5.54-7.74c10.5-7.09,20.9-14.34,31.34-21.53,5.33-3.67,10.66-7.36,16-11a2.39,2.39,0,0,1,1.61-.69c.46.27.25.66.08.93-1.26,1.93-1.54,4.2-2.08,6.35-3.23,12.75-6.36,25.53-9.61,38.28-3.81,14.92-7.44,29.88-11.25,44.79-3.59,14-7,28.09-10.59,42.12-3.66,14.29-7.14,28.63-10.8,42.92s-7.08,28.41-10.7,42.58c-3.69,14.42-7.19,28.87-10.88,43.28-3.61,14.1-7,28.25-10.65,42.35-2,7.82-3.92,15.67-5.93,23.49C174.27,395.92,174.35,397.17,173.69,398.23Z" fill="#00172e"/><path d="M436.46,599.16c-.88-2.11.23-4,.7-5.94,1.79-7.37,3.26-14.82,5.26-22.13.2-.74.38-1.45,1.4-1q-3.58,14.34-7.17,28.69A1.75,1.75,0,0,1,436.46,599.16Z" fill="#05304a"/><path d="M430.19,611.75c-1-.36-1.88.55-2.87.29a.45.45,0,0,1,0-.12c.51-.9,3.63-1.84,4.54-1.36A6.83,6.83,0,0,1,430.19,611.75Z" fill="#06304a"/><path d="M269.54,83.17c2.57,2.07,5,4,7.48,6l58.61,47.26,60.12,48.45q17.91,14.45,35.85,28.88a1.94,1.94,0,0,1,.83,2.37q-8.64,34.13-17.18,68.3c-1.21,4.82.65,8.76,3.86,12.08,2.94,3.05,6.48,5.44,9.77,8.1q26.31,21.24,52.66,42.43a1.81,1.81,0,0,1,.79,2.18Q472,390.09,461.77,431q-7.27,29-14.56,58c-.4,1.61-.4,1.61-1.71.55l-76.73-61.85-79.72-64.24q-36.92-29.76-73.83-59.51a1.72,1.72,0,0,1-.7-2.07q9.33-36.92,18.61-73.86,8.33-33.1,16.63-66.23C256.33,135.64,262.91,109.51,269.54,83.17Z" fill="#fcc65a"/><path d="M325.82,479.34a.1.1,0,0,0-.05.15,4.91,4.91,0,0,1-.92,3h0a8.15,8.15,0,0,1-1.18,3.84.11.11,0,0,0-.06.15,4.91,4.91,0,0,1-.92,3h0c-.14.75.09,1.75-.73,2.12s-1.34-.54-1.9-1c-3.37-2.67-6.7-5.42-10.08-8.09a2.54,2.54,0,0,1-.93-1.07c-.46-.4-.09-.84,0-1.2q9.36-28.26,18.75-56.49c.23-.72.47-1.43.76-2.3,1.71,1.36,3.36,2.66,5,4q6.57,5.31,13.15,10.62a1.58,1.58,0,0,1,.76,1.25c.35,12.34,1,24.67.9,37,0,4.87-.13,9.74-.41,14.61a2,2,0,0,0,.1.49c.38-.06.44-.35.57-.57,6.65-11.23,14.51-21.6,22.55-31.85.5-.63.77-.62,1.38-.13q8.37,6.8,16.8,13.52a1.79,1.79,0,0,1,.74,2q-3.45,18-6.83,36.08-2.44,12.93-4.88,25.86a5.68,5.68,0,0,0-.05.72,1.13,1.13,0,0,1,.05.81c-.18,1-.57,1.17-1.4.62s-1.76-1.36-2.63-2.06c-3.15-2.56-6.3-5.13-9.49-7.63a2.06,2.06,0,0,1-.86-2.39c.37-1.32.26-2.78,1.07-4l.36-1.9c.24-2.13.3-4.3,1.32-6.26l.31-1.65a12,12,0,0,1,1.13-5.31l.36-1.89c.2-1.73.15-3.5,1.08-5.07l.12-.69a15.07,15.07,0,0,1,1.32-6l0-.25a2.17,2.17,0,0,1,.45-1.91l0-.25a2.17,2.17,0,0,1,.45-1.91l0-.25c.32-1.86.28-3.8,1.25-5.51v0a37.51,37.51,0,0,1,1.3-6.27c-7.71,12.35-17.06,23.56-25.64,35.33a2.39,2.39,0,0,1-1,.88q-5.3-4.26-10.6-8.5a1.27,1.27,0,0,1-.55-1.1c0-1.19-.05-2.38-.08-3.58-.17-1.74,0-3.48-.08-5.22a2.81,2.81,0,0,0-.1-1.29c0-2.07-.05-4.14-.08-6.21-.13-1.7,0-3.4-.06-5.1a2.34,2.34,0,0,0-.11-1.17c0-1.66,0-3.33-.05-5a2.06,2.06,0,0,1-.16-1.84,2.75,2.75,0,0,0,.08-1.07c0-4.54,0-9.09,0-13.63,0-.88-.65-1.79.05-2.65l.06-3.76a6.93,6.93,0,0,0,0-2.36,9.62,9.62,0,0,1,.08-3.41c0-.4-.23-.23-.08-.27s.09,0,.07.1a19.87,19.87,0,0,1-2,6.09h0a5.57,5.57,0,0,1-1,3.12h0a5.57,5.57,0,0,1-1,3.12h0a5.57,5.57,0,0,1-1,3.12.11.11,0,0,0,0,.16,4.9,4.9,0,0,1-.92,3h0a14.87,14.87,0,0,1-1.66,5.28.12.12,0,0,0-.06.16,5.05,5.05,0,0,1-.91,3,.11.11,0,0,0-.05.16,4.39,4.39,0,0,1-1,2.95c-.34.22-.12.6-.23.88A5,5,0,0,1,325.82,479.34Z" fill="#fcc65a"/><path d="M216.39,374.92c-2.21,8.75-4.38,17.4-6.57,26.08a3.9,3.9,0,0,1-1.57-1.07c-3.86-3.09-7.7-6.23-11.59-9.3a1.74,1.74,0,0,1-.7-2.1q7.65-30.19,15.21-60.42c.07-.3.18-.59.32-1l5.36,4.31c2.67,2.16,5.34,4.33,8,6.47a1.13,1.13,0,0,1,.48,1.4c-1.91,7.49-3.76,15-5.66,22.5a1.05,1.05,0,0,0,.38,1.31Q231.21,372,242.31,381c.15.12.32.22.61.42.77-3,1.52-6,2.26-8.94,1.19-4.71,2.41-9.42,3.54-14.15.25-1,.49-.82,1.1-.33q6.24,5.05,12.51,10.08c.42.34.71.63.54,1.28q-7.78,30.84-15.54,61.69a1.62,1.62,0,0,1-.19.26L240,425.51c-2-1.58-3.91-3.18-5.89-4.72a1.5,1.5,0,0,1-.64-1.8c2.07-8,4.07-16.07,6.14-24.11a1.57,1.57,0,0,0-.65-1.89q-10.81-8.65-21.58-17.37C217.07,375.4,216.78,375.2,216.39,374.92Z" fill="#fcc65a"/><path d="M285.9,462.53c-4.65-3.75-9.15-7.39-13.67-11-.52-.41-.34-.79-.22-1.26L279.6,420c1.57-6.26,3.12-12.53,4.74-18.78a1.38,1.38,0,0,0-.57-1.7c-5-4-10.08-8.12-15.14-12.16a1.41,1.41,0,0,1-.65-1.67c.94-3.54,1.82-7.11,2.72-10.66.45-.07.65.29.91.5q23.1,18.61,46.2,37.21a1.64,1.64,0,0,1,.67,2c-.87,3.19-1.69,6.4-2.42,9.63-.24,1-.49.8-1.09.31q-7.59-6.15-15.2-12.27l-1.07-.8C294.43,428.61,290.19,445.49,285.9,462.53Z" fill="#fcc65a"/><path d="M394.9,521.34c1.12-4.4,2.26-8.79,3.37-13.19,2.12-8.38,4.23-16.76,6.38-25.33l5.28,4.22c2.71,2.18,5.4,4.38,8.13,6.53a1.23,1.23,0,0,1,.5,1.51q-6.13,24.29-12.24,48.57a2,2,0,0,0,.74,2.39c7.69,6.12,15.32,12.3,23,18.47.34.27.76.48.85,1a9.64,9.64,0,0,1-.58,3.14c-.5,2.39-1.14,4.74-1.75,7.1-.36,1.37-.81,1.54-1.89.67q-9.95-8-19.87-16c-5.1-4.11-10.23-8.17-15.29-12.34-3.41-2.8-3.11-1.57-2.06-6,1.53-6.45,3.3-12.84,4.87-19.28A3,3,0,0,1,394.9,521.34Z" fill="#fcc65a"/><path d="M256.92,67.76a1.14,1.14,0,0,1,.7-.47c.48,0,.88.28.49.75-2.09,2.49-2.27,5.66-3,8.59C250,96.84,245,117.06,239.88,137.28q-5.37,21.47-10.79,42.93T218.3,223.14q-5.42,21.53-10.82,43.05-5.26,20.94-10.54,41.89-5.4,21.53-10.81,43.05t-10.81,42.93a14.84,14.84,0,0,0-.69,3.37c0,.64-.38.82-.94.8a36.68,36.68,0,0,1,1.52-7.34q7.47-29.85,15-59.7,5.44-21.65,10.85-43.29,5.38-21.47,10.79-42.92l10.56-42q5.4-21.47,10.79-42.93L244,117.12q5.4-21.53,10.84-43c.51-2,.76-4.18,2.13-5.9A.27.27,0,0,0,256.92,67.76Z" fill="#06304a"/><path d="M394.9,521.34q-1.74,7-3.47,14c-.77,3.09-1.5,6.19-2.34,9.27a1.22,1.22,0,0,0,.5,1.5q13.31,10.7,26.59,21.42L426.62,576l1.24,1c1-3.92,2-7.7,3-11.48a.57.57,0,0,1,.27.61A63.45,63.45,0,0,1,429,576.57a2,2,0,0,1-2.65.65c-2.22-1.8-4.4-3.65-6.62-5.45-1-.8-2-1.53-3-2.32q-2.77-2.22-5.53-4.47l-6.8-5.52Q401,556.7,397.56,554c-1.47-1.17-3-2.28-4.41-3.52s-2.74-2.17-4.06-3.3a2.86,2.86,0,0,1-.6-2.35c.22-3.88,1.58-7.52,2.35-11.28s1.77-7.25,2.62-10.89C393.65,521.78,394,521.33,394.9,521.34Z" fill="#05304a"/><path d="M348,511.47q8.52-11.36,17-22.71,4.8-6.43,9.07-13.24a2.52,2.52,0,0,1,1-1.16c-.65,2.53-1.24,4.85-1.84,7.17.11-.57-.42-.83-.62-1.24s0-.84,0-1.27a9.9,9.9,0,0,0-2.21,3.63c-.35,1.48-1.51,2.42-2.27,3.6-1.39,2.15-3,4.14-4.58,6.19q-6.69,8.93-13.4,17.83C349.74,511,349.18,511.82,348,511.47Z" fill="#05304a"/><path d="M365.11,520.38c-.29,1.44-.59,2.87-.87,4.31-.09.5-.22,1,.31,1.4,4.42,3.52,8.82,7.07,13.22,10.61.57-.47.21-1.21.6-1.68.95.53,1,1.21.13,1.72a2.14,2.14,0,0,1-2.77-.27c-2.75-2.18-5.36-4.52-8.22-6.56-1.35-1-2.46-2.25-3.87-3.16a.89.89,0,0,1-.34-.72c.36-1.51.22-3.06.45-4.58A1.21,1.21,0,0,1,365.11,520.38Z" fill="#05304a"/><path d="M309.05,481.39l11.68,9.33,1.13.9.83-2.2c.18.57.74,1,.52,1.73a1.54,1.54,0,0,1-2.57.83c-2.65-2.19-5.23-4.46-8-6.51-1.12-.83-2.09-1.85-3.27-2.59C308.78,482.5,308.91,482,309.05,481.39Z" fill="#05304a"/><path d="M336.33,455.11V474.3c-1.26-.75-1.26-.75-.33-2.05a1.5,1.5,0,0,0,.13-.93v-13.5a1.52,1.52,0,0,0-.4-1.17C335.07,455.94,335.33,455.38,336.33,455.11Z" fill="#05304a"/><path d="M334.45,451.5a56.45,56.45,0,0,1,2.21-6.74c-.18,2.2.08,4.41-.27,6.59v-2C335.8,450.35,335.64,451.43,334.45,451.5Z" fill="#05304a"/><path d="M366.79,512.22l-1.32,6.26a13.5,13.5,0,0,1-.09-4.87C365.56,512.75,365.87,512.23,366.79,512.22Z" fill="#05304a"/><path d="M371.11,491.59l-1.32,6a3.18,3.18,0,0,1,0-3.73c.13-.19.32-.3.24-.59C369.74,492.32,370.22,491.82,371.11,491.59Z" fill="#05304a"/><path d="M368.23,505.26c-.38,1.77-.75,3.54-1.13,5.31-.91-1.47-.27-3-.14-4.49C367,505.47,367.62,505.25,368.23,505.26Z" fill="#05304a"/><path d="M373.35,481.51A48.84,48.84,0,0,1,372.1,487c-.88-.52-1-1-.2-1.64.19-.14.4-.14.27-.49C371.55,483.3,371.78,482.68,373.35,481.51Z" fill="#05304a"/><path d="M329,469.26a40.9,40.9,0,0,1,1.66-5.28C331.58,465.72,331,467.44,329,469.26Z" fill="#05304a"/><path d="M369.67,498.3l-1.08,5.07a12.2,12.2,0,0,1-.16-4.34C368.58,498.46,369.11,498.3,369.67,498.3Z" fill="#05304a"/><path d="M323.67,486.3a19.83,19.83,0,0,1,1.18-3.84C325.78,484.13,325.28,485.74,323.67,486.3Z" fill="#05304a"/><path d="M331.57,460.86a13.73,13.73,0,0,1,1-3.12C333.46,459.43,333.19,460.32,331.57,460.86Z" fill="#05304a"/><path d="M332.53,457.74a13.11,13.11,0,0,1,1-3.12C334.43,456.31,334.15,457.21,332.53,457.74Z" fill="#05304a"/><path d="M333.49,454.62a13.73,13.73,0,0,1,1-3.12C335.39,453.19,335.11,454.09,333.49,454.62Z" fill="#05304a"/><path d="M327,475.49a17.57,17.57,0,0,1,1-2.95C329,473.85,328.62,475,327,475.49Z" fill="#05304a"/><path d="M324.85,482.46a12.94,12.94,0,0,1,.92-3C326.83,480.79,326.48,481.93,324.85,482.46Z" fill="#05304a"/><path d="M325.82,479.34a13.07,13.07,0,0,1,.91-3C327.79,477.67,327.44,478.8,325.82,479.34Z" fill="#05304a"/><path d="M328,472.38a12.23,12.23,0,0,1,.91-3C330,470.71,329.6,471.84,328,472.38Z" fill="#05304a"/><path d="M322.69,489.42a13.45,13.45,0,0,1,.92-3C324.67,487.75,324.32,488.88,322.69,489.42Z" fill="#05304a"/><path d="M330.61,464a12.25,12.25,0,0,1,.92-3C332.59,462.32,332.24,463.45,330.61,464Z" fill="#05304a"/><path d="M372.07,487.27l-.45,1.91c-.57-.05-.69-.42-.69-.91C370.91,487.46,371.66,487.57,372.07,487.27Z" fill="#05304a"/><path d="M336.63,491.78a50.51,50.51,0,0,1,.18,6.51c-.43-1.47-.1-3-.19-4.48C336.58,493.13,336.62,492.46,336.63,491.78Z" fill="#05304a"/><path d="M371.59,489.43l-.45,1.91c-.57,0-.69-.42-.69-.91C370.43,489.62,371.18,489.73,371.59,489.43Z" fill="#05304a"/><path d="M336.38,479.3a43.79,43.79,0,0,1,.17,6.27C336.15,483.49,336.47,481.39,336.38,479.3Z" fill="#05304a"/><path d="M417.53,371.15c-3.87-5.31-7.57-10.37-11.27-15.43q-12.79-17.52-25.6-35a2,2,0,0,1-.37-1.85c.92-3.5,1.79-7,2.74-10.74l2.51,3.49q22.35,31.59,44.72,63.17a2.53,2.53,0,0,1,.46,2.41c-.72,2.53-1.36,5.09-1.92,7.66-.22,1-.58,1.21-1.56.89q-15.39-5-30.81-10-13.53-4.37-27.08-8.7c-.86-.27-1.07-.57-.82-1.48.86-3.11,1.65-6.25,2.37-9.39.23-1,.55-1.21,1.56-.86Q394.31,363,416.2,370.7Z" fill="#09304a"/><path d="M284.49,264c1.25,1.74,2.5,3.49,3.76,5.23q15.94,22,31.91,44.06a2.67,2.67,0,0,1,.47,2.5c-.89,3.31-1.69,6.64-2.52,10-.44,0-.51-.38-.67-.62Q294.1,292,270.78,258.85a1.79,1.79,0,0,1-.37-1.64c.66-2.51,1.32-5,1.89-7.54.21-.94.57-1,1.38-.71q19.47,6.19,39,12.34c6.34,2,12.68,4,19,6,.83.25,1.06.53.83,1.39-.85,3.15-1.64,6.32-2.4,9.5-.2.86-.47,1-1.34.75q-21.52-7.41-43.07-14.75l-1-.32Z" fill="#09304a"/><path d="M380.79,286.13l-.6.86-34.12,46.6c-2.95,4-5.91,8.05-8.83,12.1-.46.66-.74.69-1.35.18q-4.9-4-9.89-8c-.64-.5-.71-.79-.2-1.48q15.63-21.3,31.21-42.64c3.89-5.32,7.81-10.63,11.66-16,.57-.79.92-.8,1.64-.2,3.27,2.69,6.58,5.33,9.88,8Z" fill="#09304a"/></svg>