<svg width="850" height="117" viewBox="0 0 850 117" fill="none" xmlns="http://www.w3.org/2000/svg">
<path d="M20.6387 2.5H24.1637V20H20.6387V2.5ZM32.2023 0.174999C32.819 0.174999 33.294 0.383333 33.6273 0.8C33.9773 1.2 34.1523 1.775 34.1523 2.525C34.1523 3.49167 33.9357 4.35833 33.5023 5.125C33.069 5.89167 32.4273 6.63333 31.5773 7.35L30.6023 6.425C31.619 5.59167 32.194 4.74167 32.3273 3.875C32.1107 3.975 31.8523 4.025 31.5523 4.025C31.119 4.025 30.7773 3.88333 30.5273 3.6C30.2773 3.3 30.1523 2.89167 30.1523 2.375C30.1523 1.825 30.344 1.325 30.7273 0.874999C31.1273 0.408332 31.619 0.174999 32.2023 0.174999ZM45.5023 20C43.369 20 41.8357 19.5333 40.9023 18.6C39.9857 17.6667 39.5273 16.3167 39.5273 14.55V2.5H43.0523V14.55C43.0523 15.4667 43.2523 16.15 43.6523 16.6C44.0523 17.0333 44.669 17.25 45.5023 17.25H51.1023V20H45.5023ZM61.9486 20C59.8153 20 58.282 19.5333 57.3486 18.6C56.432 17.6667 55.9736 16.3167 55.9736 14.55V2.5H59.4986V14.55C59.4986 15.4667 59.6986 16.15 60.0986 16.6C60.4986 17.0333 61.1153 17.25 61.9486 17.25H67.5486V20H61.9486ZM92.7268 15.925H85.8768L84.7018 20H81.1768L85.4518 6.05C85.7518 5.05 86.0684 4.275 86.4018 3.725C86.7351 3.175 87.1268 2.78333 87.5768 2.55C88.0434 2.31667 88.6184 2.2 89.3018 2.2C89.9851 2.2 90.5518 2.31667 91.0018 2.55C91.4518 2.78333 91.8434 3.175 92.1768 3.725C92.5268 4.275 92.8518 5.05 93.1518 6.05L97.4268 20H93.9018L92.7268 15.925ZM91.9518 13.3L89.8518 6.1C89.7351 5.66667 89.5518 5.45 89.3018 5.45C89.0518 5.45 88.8684 5.66667 88.7518 6.1L86.6518 13.3H91.9518ZM107.674 20C105.541 20 104.008 19.5333 103.074 18.6C102.158 17.6667 101.699 16.3167 101.699 14.55V2.5H105.224V14.55C105.224 15.4667 105.424 16.15 105.824 16.6C106.224 17.0333 106.841 17.25 107.674 17.25H113.274V20H107.674ZM136.899 2.5L132.899 20H131.924C130.958 20 130.191 19.8833 129.624 19.65C129.074 19.4167 128.616 19.025 128.249 18.475C127.883 17.925 127.516 17.1 127.149 16L125.924 12.35L124.724 16C124.374 17.0667 124.008 17.8833 123.624 18.45C123.241 19.0167 122.766 19.4167 122.199 19.65C121.633 19.8833 120.883 20 119.949 20H118.974L114.974 2.5H118.274L121.449 16.55C121.599 16.3667 121.766 16.0167 121.949 15.5L125.924 4.35L129.924 15.5C130.108 16.0167 130.274 16.3667 130.424 16.55L133.599 2.5H136.899ZM150.781 15.925H143.931L142.756 20H139.231L143.506 6.05C143.806 5.05 144.123 4.275 144.456 3.725C144.79 3.175 145.181 2.78333 145.631 2.55C146.098 2.31667 146.673 2.2 147.356 2.2C148.04 2.2 148.606 2.31667 149.056 2.55C149.506 2.78333 149.898 3.175 150.231 3.725C150.581 4.275 150.906 5.05 151.206 6.05L155.481 20H151.956L150.781 15.925ZM150.006 13.3L147.906 6.1C147.79 5.66667 147.606 5.45 147.356 5.45C147.106 5.45 146.923 5.66667 146.806 6.1L144.706 13.3H150.006ZM161.489 12.5L155.739 2.5H159.664L163.339 9.275L166.939 2.5H170.889L165.014 12.5V20H161.489V12.5ZM180.787 20.3C179.587 20.3 178.579 20.1667 177.762 19.9C176.962 19.6333 176.287 19.2667 175.737 18.8C175.187 18.3333 174.62 17.7083 174.037 16.925L176.412 14.95C177.095 15.9 177.754 16.575 178.387 16.975C179.037 17.3583 179.837 17.55 180.787 17.55C182.104 17.55 183.062 17.3583 183.662 16.975C184.262 16.5917 184.562 15.975 184.562 15.125C184.562 14.6917 184.42 14.3417 184.137 14.075C183.854 13.7917 183.362 13.5333 182.662 13.3C181.979 13.0667 180.954 12.8083 179.587 12.525C177.987 12.1917 176.795 11.6 176.012 10.75C175.245 9.88333 174.862 8.73333 174.862 7.3C174.862 6.26667 175.12 5.36667 175.637 4.6C176.17 3.83333 176.92 3.24167 177.887 2.825C178.854 2.40833 179.979 2.2 181.262 2.2C182.929 2.2 184.254 2.45 185.237 2.95C186.22 3.43333 187.02 4.15 187.637 5.1L185.312 7C184.795 6.48333 184.362 6.09167 184.012 5.825C183.679 5.54167 183.295 5.325 182.862 5.175C182.429 5.025 181.895 4.95 181.262 4.95C180.312 4.95 179.595 5.15833 179.112 5.575C178.629 5.99167 178.387 6.59167 178.387 7.375C178.387 8.10833 178.695 8.65 179.312 9C179.929 9.33333 180.72 9.60833 181.687 9.825C183.12 10.125 184.262 10.4333 185.112 10.75C185.962 11.0667 186.67 11.575 187.237 12.275C187.804 12.975 188.087 13.9333 188.087 15.15C188.087 16.8833 187.479 18.175 186.262 19.025C185.062 19.875 183.237 20.3 180.787 20.3ZM210.114 20.3C207.764 20.3 205.972 19.7667 204.739 18.7C203.505 17.6167 202.889 16.025 202.889 13.925V8.575C202.889 6.475 203.505 4.89167 204.739 3.825C205.972 2.74167 207.764 2.2 210.114 2.2C211.747 2.2 213.08 2.475 214.114 3.025C215.164 3.55833 215.997 4.36667 216.614 5.45L214.089 7.2C213.572 6.4 213.03 5.825 212.464 5.475C211.914 5.125 211.13 4.95 210.114 4.95C208.83 4.95 207.889 5.25833 207.289 5.875C206.705 6.475 206.414 7.375 206.414 8.575V13.925C206.414 15.125 206.705 16.0333 207.289 16.65C207.889 17.25 208.83 17.55 210.114 17.55C211.214 17.55 212.064 17.3667 212.664 17C213.28 16.6167 213.83 16.0083 214.314 15.175L216.814 17.025C216.28 17.7917 215.73 18.4083 215.164 18.875C214.597 19.3417 213.905 19.7 213.089 19.95C212.289 20.1833 211.297 20.3 210.114 20.3ZM236.482 20H232.757L231.607 16.125C231.373 15.325 231.14 14.7083 230.907 14.275C230.673 13.825 230.357 13.4833 229.957 13.25C229.557 13.0167 229.023 12.9 228.357 12.9H225.832V20H222.307V2.5H229.382C231.515 2.5 233.09 2.925 234.107 3.775C235.123 4.60833 235.632 5.91667 235.632 7.7C235.632 8.85 235.323 9.775 234.707 10.475C234.107 11.175 233.273 11.625 232.207 11.825C233.057 12.1083 233.698 12.6 234.132 13.3C234.565 14 234.965 14.95 235.332 16.15L236.482 20ZM229.482 10.15C230.248 10.15 230.873 9.95 231.357 9.55C231.857 9.13333 232.107 8.51667 232.107 7.7C232.107 6.88333 231.857 6.275 231.357 5.875C230.873 5.45833 230.248 5.25 229.482 5.25H225.832V10.15H229.482ZM247.523 20C245.306 20 243.714 19.5333 242.748 18.6C241.781 17.6667 241.298 16.3167 241.298 14.55V7.95C241.298 6.18333 241.781 4.83333 242.748 3.9C243.714 2.96667 245.306 2.5 247.523 2.5H253.373V5.25H247.523C246.606 5.25 245.923 5.46667 245.473 5.9C245.039 6.33333 244.823 7.01667 244.823 7.95V9.875H252.273V12.625H244.823V14.55C244.823 15.4667 245.039 16.15 245.473 16.6C245.923 17.0333 246.606 17.25 247.523 17.25H253.423V20H247.523ZM269.104 15.925H262.254L261.079 20H257.554L261.829 6.05C262.129 5.05 262.445 4.275 262.779 3.725C263.112 3.175 263.504 2.78333 263.954 2.55C264.42 2.31667 264.995 2.2 265.679 2.2C266.362 2.2 266.929 2.31667 267.379 2.55C267.829 2.78333 268.22 3.175 268.554 3.725C268.904 4.275 269.229 5.05 269.529 6.05L273.804 20H270.279L269.104 15.925ZM268.329 13.3L266.229 6.1C266.112 5.66667 265.929 5.45 265.679 5.45C265.429 5.45 265.245 5.66667 265.129 6.1L263.029 13.3H268.329ZM280.349 5.25H275.074V2.5H289.149V5.25H283.874V20H280.349V5.25ZM299.449 20C297.233 20 295.641 19.5333 294.674 18.6C293.708 17.6667 293.224 16.3167 293.224 14.55V7.95C293.224 6.18333 293.708 4.83333 294.674 3.9C295.641 2.96667 297.233 2.5 299.449 2.5H305.299V5.25H299.449C298.533 5.25 297.849 5.46667 297.399 5.9C296.966 6.33333 296.749 7.01667 296.749 7.95V9.875H304.199V12.625H296.749V14.55C296.749 15.4667 296.966 16.15 297.399 16.6C297.849 17.0333 298.533 17.25 299.449 17.25H305.349V20H299.449ZM320.862 2.5H327.362C329.329 2.5 330.879 2.78333 332.012 3.35C333.162 3.91667 333.987 4.83333 334.487 6.1C335.004 7.35 335.262 9.06667 335.262 11.25C335.262 13.4333 335.004 15.1583 334.487 16.425C333.987 17.675 333.162 18.5833 332.012 19.15C330.879 19.7167 329.329 20 327.362 20H320.862V2.5ZM327.362 17.25C328.462 17.25 329.329 17.0583 329.962 16.675C330.596 16.2917 331.046 15.6667 331.312 14.8C331.596 13.9333 331.737 12.75 331.737 11.25C331.737 9.75 331.596 8.56667 331.312 7.7C331.046 6.83333 330.596 6.20833 329.962 5.825C329.329 5.44167 328.462 5.25 327.362 5.25H324.387V17.25H327.362ZM346.811 20C344.594 20 343.002 19.5333 342.036 18.6C341.069 17.6667 340.586 16.3167 340.586 14.55V7.95C340.586 6.18333 341.069 4.83333 342.036 3.9C343.002 2.96667 344.594 2.5 346.811 2.5H352.661V5.25H346.811C345.894 5.25 345.211 5.46667 344.761 5.9C344.327 6.33333 344.111 7.01667 344.111 7.95V9.875H351.561V12.625H344.111V14.55C344.111 15.4667 344.327 16.15 344.761 16.6C345.211 17.0333 345.894 17.25 346.811 17.25H352.711V20H346.811ZM363.967 20.3C362.767 20.3 361.758 20.1667 360.942 19.9C360.142 19.6333 359.467 19.2667 358.917 18.8C358.367 18.3333 357.8 17.7083 357.217 16.925L359.592 14.95C360.275 15.9 360.933 16.575 361.567 16.975C362.217 17.3583 363.017 17.55 363.967 17.55C365.283 17.55 366.242 17.3583 366.842 16.975C367.442 16.5917 367.742 15.975 367.742 15.125C367.742 14.6917 367.6 14.3417 367.317 14.075C367.033 13.7917 366.542 13.5333 365.842 13.3C365.158 13.0667 364.133 12.8083 362.767 12.525C361.167 12.1917 359.975 11.6 359.192 10.75C358.425 9.88333 358.042 8.73333 358.042 7.3C358.042 6.26667 358.3 5.36667 358.817 4.6C359.35 3.83333 360.1 3.24167 361.067 2.825C362.033 2.40833 363.158 2.2 364.442 2.2C366.108 2.2 367.433 2.45 368.417 2.95C369.4 3.43333 370.2 4.15 370.817 5.1L368.492 7C367.975 6.48333 367.542 6.09167 367.192 5.825C366.858 5.54167 366.475 5.325 366.042 5.175C365.608 5.025 365.075 4.95 364.442 4.95C363.492 4.95 362.775 5.15833 362.292 5.575C361.808 5.99167 361.567 6.59167 361.567 7.375C361.567 8.10833 361.875 8.65 362.492 9C363.108 9.33333 363.9 9.60833 364.867 9.825C366.3 10.125 367.442 10.4333 368.292 10.75C369.142 11.0667 369.85 11.575 370.417 12.275C370.983 12.975 371.267 13.9333 371.267 15.15C371.267 16.8833 370.658 18.175 369.442 19.025C368.242 19.875 366.417 20.3 363.967 20.3ZM377.062 2.5H380.587V20H377.062V2.5ZM394.175 20.3C391.792 20.3 389.967 19.7667 388.7 18.7C387.45 17.6167 386.825 16.025 386.825 13.925V8.575C386.825 6.475 387.45 4.89167 388.7 3.825C389.967 2.74167 391.792 2.2 394.175 2.2C395.892 2.2 397.292 2.475 398.375 3.025C399.475 3.575 400.342 4.39167 400.975 5.475L398.3 7.3C397.784 6.46667 397.234 5.86667 396.65 5.5C396.067 5.13333 395.242 4.95 394.175 4.95C392.842 4.95 391.867 5.25833 391.25 5.875C390.65 6.475 390.35 7.375 390.35 8.575V13.925C390.35 15.125 390.65 16.0333 391.25 16.65C391.867 17.25 392.842 17.55 394.175 17.55C395.342 17.55 396.225 17.3583 396.825 16.975C397.442 16.575 397.75 16 397.75 15.25V14.475C397.75 13.4417 397.275 12.925 396.325 12.925H393.475V10.175H397.325C398.659 10.175 399.642 10.4833 400.275 11.1C400.909 11.7167 401.225 12.675 401.225 13.975V15.5C401.225 17 400.592 18.175 399.325 19.025C398.059 19.875 396.342 20.3 394.175 20.3ZM421.571 2.5V15.875C421.571 17.225 421.296 18.25 420.746 18.95C420.196 19.65 419.313 20 418.096 20H415.621L410.471 8.075V20H407.171V2.5H411.146L417.496 17H417.546C417.829 17 418.021 16.8833 418.121 16.65C418.221 16.4 418.271 15.9583 418.271 15.325V2.5H421.571ZM433.78 20.3C432.58 20.3 431.572 20.1667 430.755 19.9C429.955 19.6333 429.28 19.2667 428.73 18.8C428.18 18.3333 427.614 17.7083 427.03 16.925L429.405 14.95C430.089 15.9 430.747 16.575 431.38 16.975C432.03 17.3583 432.83 17.55 433.78 17.55C435.097 17.55 436.055 17.3583 436.655 16.975C437.255 16.5917 437.555 15.975 437.555 15.125C437.555 14.6917 437.414 14.3417 437.13 14.075C436.847 13.7917 436.355 13.5333 435.655 13.3C434.972 13.0667 433.947 12.8083 432.58 12.525C430.98 12.1917 429.789 11.6 429.005 10.75C428.239 9.88333 427.855 8.73333 427.855 7.3C427.855 6.26667 428.114 5.36667 428.63 4.6C429.164 3.83333 429.914 3.24167 430.88 2.825C431.847 2.40833 432.972 2.2 434.255 2.2C435.922 2.2 437.247 2.45 438.23 2.95C439.214 3.43333 440.014 4.15 440.63 5.1L438.305 7C437.789 6.48333 437.355 6.09167 437.005 5.825C436.672 5.54167 436.289 5.325 435.855 5.175C435.422 5.025 434.889 4.95 434.255 4.95C433.305 4.95 432.589 5.15833 432.105 5.575C431.622 5.99167 431.38 6.59167 431.38 7.375C431.38 8.10833 431.689 8.65 432.305 9C432.922 9.33333 433.714 9.60833 434.68 9.825C436.114 10.125 437.255 10.4333 438.105 10.75C438.955 11.0667 439.664 11.575 440.23 12.275C440.797 12.975 441.08 13.9333 441.08 15.15C441.08 16.8833 440.472 18.175 439.255 19.025C438.055 19.875 436.23 20.3 433.78 20.3ZM460.282 5.25H455.007V2.5H469.082V5.25H463.807V20H460.282V5.25ZM474.445 2.5H477.97V9.85H484.77V2.5H488.295V20H484.77V12.6H477.97V20H474.445V2.5ZM505.211 15.925H498.361L497.186 20H493.661L497.936 6.05C498.236 5.05 498.553 4.275 498.886 3.725C499.219 3.175 499.611 2.78333 500.061 2.55C500.528 2.31667 501.103 2.2 501.786 2.2C502.469 2.2 503.036 2.31667 503.486 2.55C503.936 2.78333 504.328 3.175 504.661 3.725C505.011 4.275 505.336 5.05 505.636 6.05L509.911 20H506.386L505.211 15.925ZM504.436 13.3L502.336 6.1C502.219 5.66667 502.036 5.45 501.786 5.45C501.536 5.45 501.353 5.66667 501.236 6.1L499.136 13.3H504.436ZM516.457 5.25H511.182V2.5H525.257V5.25H519.982V20H516.457V5.25ZM554.777 2.5V15.875C554.777 17.225 554.502 18.25 553.952 18.95C553.402 19.65 552.519 20 551.302 20H548.827L543.677 8.075V20H540.377V2.5H544.352L550.702 17H550.752C551.035 17 551.227 16.8833 551.327 16.65C551.427 16.4 551.477 15.9583 551.477 15.325V2.5H554.777ZM567.886 20.3C565.57 20.3 563.795 19.7667 562.561 18.7C561.345 17.6167 560.736 16.025 560.736 13.925V8.575C560.736 6.475 561.345 4.89167 562.561 3.825C563.795 2.74167 565.57 2.2 567.886 2.2C570.203 2.2 571.97 2.74167 573.186 3.825C574.42 4.89167 575.036 6.475 575.036 8.575V13.925C575.036 16.025 574.42 17.6167 573.186 18.7C571.97 19.7667 570.203 20.3 567.886 20.3ZM567.886 17.55C569.053 17.55 569.945 17.2417 570.561 16.625C571.195 15.9917 571.511 15.0917 571.511 13.925V8.575C571.511 7.40833 571.195 6.51667 570.561 5.9C569.945 5.26667 569.053 4.95 567.886 4.95C566.72 4.95 565.82 5.26667 565.186 5.9C564.57 6.51667 564.261 7.40833 564.261 8.575V13.925C564.261 15.0917 564.57 15.9917 565.186 16.625C565.82 17.2417 566.72 17.55 567.886 17.55ZM583.926 5.25H578.651V2.5H592.726V5.25H587.451V20H583.926V5.25ZM614.247 20.3C611.93 20.3 610.155 19.7667 608.922 18.7C607.705 17.6167 607.097 16.025 607.097 13.925V8.575C607.097 6.475 607.705 4.89167 608.922 3.825C610.155 2.74167 611.93 2.2 614.247 2.2C616.563 2.2 618.33 2.74167 619.547 3.825C620.78 4.89167 621.397 6.475 621.397 8.575V13.925C621.397 16.025 620.78 17.6167 619.547 18.7C618.33 19.7667 616.563 20.3 614.247 20.3ZM614.247 17.55C615.413 17.55 616.305 17.2417 616.922 16.625C617.555 15.9917 617.872 15.0917 617.872 13.925V8.575C617.872 7.40833 617.555 6.51667 616.922 5.9C616.305 5.26667 615.413 4.95 614.247 4.95C613.08 4.95 612.18 5.26667 611.547 5.9C610.93 6.51667 610.622 7.40833 610.622 8.575V13.925C610.622 15.0917 610.93 15.9917 611.547 16.625C612.18 17.2417 613.08 17.55 614.247 17.55ZM642.038 2.5V15.875C642.038 17.225 641.763 18.25 641.213 18.95C640.663 19.65 639.779 20 638.563 20H636.088L630.938 8.075V20H627.638V2.5H631.613L637.963 17H638.013C638.296 17 638.488 16.8833 638.588 16.65C638.688 16.4 638.738 15.9583 638.738 15.325V2.5H642.038ZM654.097 20C651.964 20 650.43 19.5333 649.497 18.6C648.58 17.6667 648.122 16.3167 648.122 14.55V2.5H651.647V14.55C651.647 15.4667 651.847 16.15 652.247 16.6C652.647 17.0333 653.264 17.25 654.097 17.25H659.697V20H654.097ZM664.57 12.5L658.82 2.5H662.745L666.42 9.275L670.02 2.5H673.97L668.095 12.5V20H664.57V12.5ZM688.613 2.5H696.313C698.147 2.5 699.547 2.9 700.513 3.7C701.497 4.5 701.988 5.65833 701.988 7.175C701.988 8.00833 701.738 8.75833 701.238 9.425C700.738 10.0917 700.013 10.55 699.063 10.8C700.097 11 700.93 11.4833 701.563 12.25C702.197 13 702.513 13.9833 702.513 15.2C702.513 16.6833 701.988 17.8583 700.938 18.725C699.905 19.575 698.488 20 696.688 20H688.613V2.5ZM696.238 9.55C696.905 9.55 697.438 9.35833 697.838 8.975C698.255 8.575 698.463 8.05 698.463 7.4C698.463 6.75 698.255 6.23333 697.838 5.85C697.438 5.45 696.905 5.25 696.238 5.25H692.138V9.55H696.238ZM695.938 17.25C696.972 17.25 697.738 17.05 698.238 16.65C698.738 16.2333 698.988 15.6083 698.988 14.775C698.988 13.9417 698.738 13.325 698.238 12.925C697.738 12.5083 696.972 12.3 695.938 12.3H692.138V17.25H695.938ZM713.927 20C711.71 20 710.119 19.5333 709.152 18.6C708.185 17.6667 707.702 16.3167 707.702 14.55V7.95C707.702 6.18333 708.185 4.83333 709.152 3.9C710.119 2.96667 711.71 2.5 713.927 2.5H719.777V5.25H713.927C713.01 5.25 712.327 5.46667 711.877 5.9C711.444 6.33333 711.227 7.01667 711.227 7.95V9.875H718.677V12.625H711.227V14.55C711.227 15.4667 711.444 16.15 711.877 16.6C712.327 17.0333 713.01 17.25 713.927 17.25H719.827V20H713.927ZM735.508 15.925H728.658L727.483 20H723.958L728.233 6.05C728.533 5.05 728.85 4.275 729.183 3.725C729.516 3.175 729.908 2.78333 730.358 2.55C730.825 2.31667 731.4 2.2 732.083 2.2C732.766 2.2 733.333 2.31667 733.783 2.55C734.233 2.78333 734.625 3.175 734.958 3.725C735.308 4.275 735.633 5.05 735.933 6.05L740.208 20H736.683L735.508 15.925ZM734.733 13.3L732.633 6.1C732.516 5.66667 732.333 5.45 732.083 5.45C731.833 5.45 731.65 5.66667 731.533 6.1L729.433 13.3H734.733ZM751.405 20.325C749.122 20.325 747.397 19.8417 746.23 18.875C745.064 17.8917 744.48 16.5333 744.48 14.8V2.5H748.005V14.8C748.005 16.65 749.139 17.575 751.405 17.575C753.672 17.575 754.805 16.65 754.805 14.8V2.5H758.33V14.8C758.33 16.5333 757.747 17.8917 756.58 18.875C755.414 19.8417 753.689 20.325 751.405 20.325ZM768.351 5.25H763.076V2.5H777.151V5.25H771.876V20H768.351V5.25ZM782.515 2.5H786.04V20H782.515V2.5ZM792.403 7.95C792.403 6.18333 792.887 4.83333 793.853 3.9C794.82 2.96667 796.412 2.5 798.628 2.5H804.478V5.25H798.628C797.712 5.25 797.028 5.46667 796.578 5.9C796.145 6.33333 795.928 7.01667 795.928 7.95V10.375H803.378V13.125H795.928V20H792.403V7.95ZM816.531 20.325C814.248 20.325 812.523 19.8417 811.356 18.875C810.19 17.8917 809.606 16.5333 809.606 14.8V2.5H813.131V14.8C813.131 16.65 814.265 17.575 816.531 17.575C818.798 17.575 819.931 16.65 819.931 14.8V2.5H823.456V14.8C823.456 16.5333 822.873 17.8917 821.706 18.875C820.54 19.8417 818.815 20.325 816.531 20.325ZM835.177 20C833.044 20 831.51 19.5333 830.577 18.6C829.66 17.6667 829.202 16.3167 829.202 14.55V2.5H832.727V14.55C832.727 15.4667 832.927 16.15 833.327 16.6C833.727 17.0333 834.344 17.25 835.177 17.25H840.777V20H835.177ZM847.323 16.475C847.94 16.475 848.415 16.6833 848.748 17.1C849.098 17.5 849.273 18.075 849.273 18.825C849.273 19.7917 849.057 20.6583 848.623 21.425C848.19 22.1917 847.548 22.9333 846.698 23.65L845.723 22.725C846.74 21.8917 847.315 21.0417 847.448 20.175C847.232 20.275 846.973 20.325 846.673 20.325C846.24 20.325 845.898 20.1833 845.648 19.9C845.398 19.6 845.273 19.1917 845.273 18.675C845.273 18.125 845.465 17.625 845.848 17.175C846.248 16.7083 846.74 16.475 847.323 16.475ZM1.125 33.5H8.825C10.6583 33.5 12.0583 33.9 13.025 34.7C14.0083 35.5 14.5 36.6583 14.5 38.175C14.5 39.0083 14.25 39.7583 13.75 40.425C13.25 41.0917 12.525 41.55 11.575 41.8C12.6083 42 13.4417 42.4833 14.075 43.25C14.7083 44 15.025 44.9833 15.025 46.2C15.025 47.6833 14.5 48.8583 13.45 49.725C12.4167 50.575 11 51 9.2 51H1.125V33.5ZM8.75 40.55C9.41667 40.55 9.95 40.3583 10.35 39.975C10.7667 39.575 10.975 39.05 10.975 38.4C10.975 37.75 10.7667 37.2333 10.35 36.85C9.95 36.45 9.41667 36.25 8.75 36.25H4.65V40.55H8.75ZM8.45 48.25C9.48333 48.25 10.25 48.05 10.75 47.65C11.25 47.2333 11.5 46.6083 11.5 45.775C11.5 44.9417 11.25 44.325 10.75 43.925C10.25 43.5083 9.48333 43.3 8.45 43.3H4.65V48.25H8.45ZM27.3137 51.325C25.0303 51.325 23.3053 50.8417 22.1387 49.875C20.972 48.8917 20.3887 47.5333 20.3887 45.8V33.5H23.9137V45.8C23.9137 47.65 25.047 48.575 27.3137 48.575C29.5803 48.575 30.7137 47.65 30.7137 45.8V33.5H34.2387V45.8C34.2387 47.5333 33.6553 48.8917 32.4887 49.875C31.322 50.8417 29.597 51.325 27.3137 51.325ZM44.2594 36.25H38.9844V33.5H53.0594V36.25H47.7844V51H44.2594V36.25ZM78.1047 46.925H71.2547L70.0797 51H66.5547L70.8297 37.05C71.1297 36.05 71.4464 35.275 71.7797 34.725C72.113 34.175 72.5047 33.7833 72.9547 33.55C73.4214 33.3167 73.9964 33.2 74.6797 33.2C75.363 33.2 75.9297 33.3167 76.3797 33.55C76.8297 33.7833 77.2214 34.175 77.5547 34.725C77.9047 35.275 78.2297 36.05 78.5297 37.05L82.8047 51H79.2797L78.1047 46.925ZM77.3297 44.3L75.2297 37.1C75.113 36.6667 74.9297 36.45 74.6797 36.45C74.4297 36.45 74.2464 36.6667 74.1297 37.1L72.0297 44.3H77.3297ZM93.0521 51C90.9188 51 89.3855 50.5333 88.4521 49.6C87.5355 48.6667 87.0771 47.3167 87.0771 45.55V33.5H90.6021V45.55C90.6021 46.4667 90.8021 47.15 91.2021 47.6C91.6021 48.0333 92.2188 48.25 93.0521 48.25H98.6521V51H93.0521ZM109.648 51.3C108.448 51.3 107.44 51.1667 106.623 50.9C105.823 50.6333 105.148 50.2667 104.598 49.8C104.048 49.3333 103.482 48.7083 102.898 47.925L105.273 45.95C105.957 46.9 106.615 47.575 107.248 47.975C107.898 48.3583 108.698 48.55 109.648 48.55C110.965 48.55 111.923 48.3583 112.523 47.975C113.123 47.5917 113.423 46.975 113.423 46.125C113.423 45.6917 113.282 45.3417 112.998 45.075C112.715 44.7917 112.223 44.5333 111.523 44.3C110.84 44.0667 109.815 43.8083 108.448 43.525C106.848 43.1917 105.657 42.6 104.873 41.75C104.107 40.8833 103.723 39.7333 103.723 38.3C103.723 37.2667 103.982 36.3667 104.498 35.6C105.032 34.8333 105.782 34.2417 106.748 33.825C107.715 33.4083 108.84 33.2 110.123 33.2C111.79 33.2 113.115 33.45 114.098 33.95C115.082 34.4333 115.882 35.15 116.498 36.1L114.173 38C113.657 37.4833 113.223 37.0917 112.873 36.825C112.54 36.5417 112.157 36.325 111.723 36.175C111.29 36.025 110.757 35.95 110.123 35.95C109.173 35.95 108.457 36.1583 107.973 36.575C107.49 36.9917 107.248 37.5917 107.248 38.375C107.248 39.1083 107.557 39.65 108.173 40C108.79 40.3333 109.582 40.6083 110.548 40.825C111.982 41.125 113.123 41.4333 113.973 41.75C114.823 42.0667 115.532 42.575 116.098 43.275C116.665 43.975 116.948 44.9333 116.948 46.15C116.948 47.8833 116.34 49.175 115.123 50.025C113.923 50.875 112.098 51.3 109.648 51.3ZM128.899 51.3C126.582 51.3 124.807 50.7667 123.574 49.7C122.357 48.6167 121.749 47.025 121.749 44.925V39.575C121.749 37.475 122.357 35.8917 123.574 34.825C124.807 33.7417 126.582 33.2 128.899 33.2C131.216 33.2 132.982 33.7417 134.199 34.825C135.432 35.8917 136.049 37.475 136.049 39.575V44.925C136.049 47.025 135.432 48.6167 134.199 49.7C132.982 50.7667 131.216 51.3 128.899 51.3ZM128.899 48.55C130.066 48.55 130.957 48.2417 131.574 47.625C132.207 46.9917 132.524 46.0917 132.524 44.925V39.575C132.524 38.4083 132.207 37.5167 131.574 36.9C130.957 36.2667 130.066 35.95 128.899 35.95C127.732 35.95 126.832 36.2667 126.199 36.9C125.582 37.5167 125.274 38.4083 125.274 39.575V44.925C125.274 46.0917 125.582 46.9917 126.199 47.625C126.832 48.2417 127.732 48.55 128.899 48.55ZM152.047 33.5H155.572V40.85H162.372V33.5H165.897V51H162.372V43.6H155.572V51H152.047V33.5ZM178.313 51C176.096 51 174.504 50.5333 173.538 49.6C172.571 48.6667 172.088 47.3167 172.088 45.55V38.95C172.088 37.1833 172.571 35.8333 173.538 34.9C174.504 33.9667 176.096 33.5 178.313 33.5H184.163V36.25H178.313C177.396 36.25 176.713 36.4667 176.263 36.9C175.829 37.3333 175.613 38.0167 175.613 38.95V40.875H183.063V43.625H175.613V45.55C175.613 46.4667 175.829 47.15 176.263 47.6C176.713 48.0333 177.396 48.25 178.313 48.25H184.213V51H178.313ZM195.319 51C193.185 51 191.652 50.5333 190.719 49.6C189.802 48.6667 189.344 47.3167 189.344 45.55V33.5H192.869V45.55C192.869 46.4667 193.069 47.15 193.469 47.6C193.869 48.0333 194.485 48.25 195.319 48.25H200.919V51H195.319ZM206.415 33.5H213.49C215.623 33.5 217.198 33.9583 218.215 34.875C219.232 35.775 219.74 37.175 219.74 39.075C219.74 40.975 219.232 42.3833 218.215 43.3C217.198 44.2 215.623 44.65 213.49 44.65H209.94V51H206.415V33.5ZM213.59 41.9C214.357 41.9 214.982 41.6667 215.465 41.2C215.965 40.7333 216.215 40.025 216.215 39.075C216.215 38.125 215.965 37.4167 215.465 36.95C214.982 36.4833 214.357 36.25 213.59 36.25H209.94V41.9H213.59ZM241.339 51.3C238.989 51.3 237.198 50.7667 235.964 49.7C234.731 48.6167 234.114 47.025 234.114 44.925V39.575C234.114 37.475 234.731 35.8917 235.964 34.825C237.198 33.7417 238.989 33.2 241.339 33.2C242.973 33.2 244.306 33.475 245.339 34.025C246.389 34.5583 247.223 35.3667 247.839 36.45L245.314 38.2C244.798 37.4 244.256 36.825 243.689 36.475C243.139 36.125 242.356 35.95 241.339 35.95C240.056 35.95 239.114 36.2583 238.514 36.875C237.931 37.475 237.639 38.375 237.639 39.575V44.925C237.639 46.125 237.931 47.0333 238.514 47.65C239.114 48.25 240.056 48.55 241.339 48.55C242.439 48.55 243.289 48.3667 243.889 48C244.506 47.6167 245.056 47.0083 245.539 46.175L248.039 48.025C247.506 48.7917 246.956 49.4083 246.389 49.875C245.823 50.3417 245.131 50.7 244.314 50.95C243.514 51.1833 242.523 51.3 241.339 51.3ZM258.882 51C256.749 51 255.216 50.5333 254.282 49.6C253.366 48.6667 252.907 47.3167 252.907 45.55V33.5H256.432V45.55C256.432 46.4667 256.632 47.15 257.032 47.6C257.432 48.0333 258.049 48.25 258.882 48.25H264.482V51H258.882ZM269.979 33.5H273.504V51H269.979V33.5ZM285.917 51C283.701 51 282.109 50.5333 281.142 49.6C280.176 48.6667 279.692 47.3167 279.692 45.55V38.95C279.692 37.1833 280.176 35.8333 281.142 34.9C282.109 33.9667 283.701 33.5 285.917 33.5H291.767V36.25H285.917C285.001 36.25 284.317 36.4667 283.867 36.9C283.434 37.3333 283.217 38.0167 283.217 38.95V40.875H290.667V43.625H283.217V45.55C283.217 46.4667 283.434 47.15 283.867 47.6C284.317 48.0333 285.001 48.25 285.917 48.25H291.817V51H285.917ZM311.973 33.5V46.875C311.973 48.225 311.698 49.25 311.148 49.95C310.598 50.65 309.715 51 308.498 51H306.023L300.873 39.075V51H297.573V33.5H301.548L307.898 48H307.948C308.232 48 308.423 47.8833 308.523 47.65C308.623 47.4 308.673 46.9583 308.673 46.325V33.5H311.973ZM322.333 36.25H317.058V33.5H331.133V36.25H325.858V51H322.333V36.25ZM341.508 51.3C340.308 51.3 339.299 51.1667 338.483 50.9C337.683 50.6333 337.008 50.2667 336.458 49.8C335.908 49.3333 335.341 48.7083 334.758 47.925L337.133 45.95C337.816 46.9 338.474 47.575 339.108 47.975C339.758 48.3583 340.558 48.55 341.508 48.55C342.824 48.55 343.783 48.3583 344.383 47.975C344.983 47.5917 345.283 46.975 345.283 46.125C345.283 45.6917 345.141 45.3417 344.858 45.075C344.574 44.7917 344.083 44.5333 343.383 44.3C342.699 44.0667 341.674 43.8083 340.308 43.525C338.708 43.1917 337.516 42.6 336.733 41.75C335.966 40.8833 335.583 39.7333 335.583 38.3C335.583 37.2667 335.841 36.3667 336.358 35.6C336.891 34.8333 337.641 34.2417 338.608 33.825C339.574 33.4083 340.699 33.2 341.983 33.2C343.649 33.2 344.974 33.45 345.958 33.95C346.941 34.4333 347.741 35.15 348.358 36.1L346.033 38C345.516 37.4833 345.083 37.0917 344.733 36.825C344.399 36.5417 344.016 36.325 343.583 36.175C343.149 36.025 342.616 35.95 341.983 35.95C341.033 35.95 340.316 36.1583 339.833 36.575C339.349 36.9917 339.108 37.5917 339.108 38.375C339.108 39.1083 339.416 39.65 340.033 40C340.649 40.3333 341.441 40.6083 342.408 40.825C343.841 41.125 344.983 41.4333 345.833 41.75C346.683 42.0667 347.391 42.575 347.958 43.275C348.524 43.975 348.808 44.9333 348.808 46.15C348.808 47.8833 348.199 49.175 346.983 50.025C345.783 50.875 343.958 51.3 341.508 51.3ZM374.284 46.925H367.434L366.259 51H362.734L367.009 37.05C367.309 36.05 367.626 35.275 367.959 34.725C368.293 34.175 368.684 33.7833 369.134 33.55C369.601 33.3167 370.176 33.2 370.859 33.2C371.543 33.2 372.109 33.3167 372.559 33.55C373.009 33.7833 373.401 34.175 373.734 34.725C374.084 35.275 374.409 36.05 374.709 37.05L378.984 51H375.459L374.284 46.925ZM373.509 44.3L371.409 37.1C371.293 36.6667 371.109 36.45 370.859 36.45C370.609 36.45 370.426 36.6667 370.309 37.1L368.209 44.3H373.509ZM389.356 51.3C387.006 51.3 385.214 50.7667 383.981 49.7C382.748 48.6167 382.131 47.025 382.131 44.925V39.575C382.131 37.475 382.748 35.8917 383.981 34.825C385.214 33.7417 387.006 33.2 389.356 33.2C390.989 33.2 392.323 33.475 393.356 34.025C394.406 34.5583 395.239 35.3667 395.856 36.45L393.331 38.2C392.814 37.4 392.273 36.825 391.706 36.475C391.156 36.125 390.373 35.95 389.356 35.95C388.073 35.95 387.131 36.2583 386.531 36.875C385.948 37.475 385.656 38.375 385.656 39.575V44.925C385.656 46.125 385.948 47.0333 386.531 47.65C387.131 48.25 388.073 48.55 389.356 48.55C390.456 48.55 391.306 48.3667 391.906 48C392.523 47.6167 393.073 47.0083 393.556 46.175L396.056 48.025C395.523 48.7917 394.973 49.4083 394.406 49.875C393.839 50.3417 393.148 50.7 392.331 50.95C391.531 51.1833 390.539 51.3 389.356 51.3ZM401.549 33.5H405.074V40.85H411.874V33.5H415.399V51H411.874V43.6H405.074V51H401.549V33.5ZM422.39 33.5H425.915V51H422.39V33.5ZM438.328 51C436.112 51 434.52 50.5333 433.553 49.6C432.587 48.6667 432.103 47.3167 432.103 45.55V38.95C432.103 37.1833 432.587 35.8333 433.553 34.9C434.52 33.9667 436.112 33.5 438.328 33.5H444.178V36.25H438.328C437.412 36.25 436.728 36.4667 436.278 36.9C435.845 37.3333 435.628 38.0167 435.628 38.95V40.875H443.078V43.625H435.628V45.55C435.628 46.4667 435.845 47.15 436.278 47.6C436.728 48.0333 437.412 48.25 438.328 48.25H444.228V51H438.328ZM456.259 51.3C455.576 51.3 455.001 51.1833 454.534 50.95C454.084 50.7167 453.684 50.325 453.334 49.775C453.001 49.2083 452.693 48.4333 452.409 47.45L448.359 33.5H451.884L455.709 47.4C455.826 47.8333 456.009 48.05 456.259 48.05C456.509 48.05 456.693 47.8333 456.809 47.4L460.634 33.5H464.159L460.109 47.45C459.826 48.4333 459.509 49.2083 459.159 49.775C458.826 50.325 458.426 50.7167 457.959 50.95C457.509 51.1833 456.943 51.3 456.259 51.3ZM474.468 51C472.251 51 470.66 50.5333 469.693 49.6C468.726 48.6667 468.243 47.3167 468.243 45.55V38.95C468.243 37.1833 468.726 35.8333 469.693 34.9C470.66 33.9667 472.251 33.5 474.468 33.5H480.318V36.25H474.468C473.551 36.25 472.868 36.4667 472.418 36.9C471.985 37.3333 471.768 38.0167 471.768 38.95V40.875H479.218V43.625H471.768V45.55C471.768 46.4667 471.985 47.15 472.418 47.6C472.868 48.0333 473.551 48.25 474.468 48.25H480.368V51H474.468ZM499.531 36.25H494.256V33.5H508.331V36.25H503.056V51H499.531V36.25ZM513.694 33.5H517.219V40.85H524.019V33.5H527.544V51H524.019V43.6H517.219V51H513.694V33.5ZM539.96 51C537.743 51 536.152 50.5333 535.185 49.6C534.218 48.6667 533.735 47.3167 533.735 45.55V38.95C533.735 37.1833 534.218 35.8333 535.185 34.9C536.152 33.9667 537.743 33.5 539.96 33.5H545.81V36.25H539.96C539.043 36.25 538.36 36.4667 537.91 36.9C537.477 37.3333 537.26 38.0167 537.26 38.95V40.875H544.71V43.625H537.26V45.55C537.26 46.4667 537.477 47.15 537.91 47.6C538.36 48.0333 539.043 48.25 539.96 48.25H545.86V51H539.96ZM551.616 33.5H555.141V51H551.616V33.5ZM576.305 51H572.58L571.43 47.125C571.197 46.325 570.963 45.7083 570.73 45.275C570.497 44.825 570.18 44.4833 569.78 44.25C569.38 44.0167 568.847 43.9 568.18 43.9H565.655V51H562.13V33.5H569.205C571.338 33.5 572.913 33.925 573.93 34.775C574.947 35.6083 575.455 36.9167 575.455 38.7C575.455 39.85 575.147 40.775 574.53 41.475C573.93 42.175 573.097 42.625 572.03 42.825C572.88 43.1083 573.522 43.6 573.955 44.3C574.388 45 574.788 45.95 575.155 47.15L576.305 51ZM569.305 41.15C570.072 41.15 570.697 40.95 571.18 40.55C571.68 40.1333 571.93 39.5167 571.93 38.7C571.93 37.8833 571.68 37.275 571.18 36.875C570.697 36.4583 570.072 36.25 569.305 36.25H565.655V41.15H569.305ZM591.678 33.5H599.378C601.211 33.5 602.611 33.9 603.578 34.7C604.561 35.5 605.053 36.6583 605.053 38.175C605.053 39.0083 604.803 39.7583 604.303 40.425C603.803 41.0917 603.078 41.55 602.128 41.8C603.161 42 603.994 42.4833 604.628 43.25C605.261 44 605.578 44.9833 605.578 46.2C605.578 47.6833 605.053 48.8583 604.003 49.725C602.969 50.575 601.553 51 599.753 51H591.678V33.5ZM599.303 40.55C599.969 40.55 600.503 40.3583 600.903 39.975C601.319 39.575 601.528 39.05 601.528 38.4C601.528 37.75 601.319 37.2333 600.903 36.85C600.503 36.45 599.969 36.25 599.303 36.25H595.203V40.55H599.303ZM599.003 48.25C600.036 48.25 600.803 48.05 601.303 47.65C601.803 47.2333 602.053 46.6083 602.053 45.775C602.053 44.9417 601.803 44.325 601.303 43.925C600.803 43.5083 600.036 43.3 599.003 43.3H595.203V48.25H599.003ZM617.866 51.325C615.583 51.325 613.858 50.8417 612.691 49.875C611.525 48.8917 610.941 47.5333 610.941 45.8V33.5H614.466V45.8C614.466 47.65 615.6 48.575 617.866 48.575C620.133 48.575 621.266 47.65 621.266 45.8V33.5H624.791V45.8C624.791 47.5333 624.208 48.8917 623.041 49.875C621.875 50.8417 620.15 51.325 617.866 51.325ZM636.662 51.3C635.462 51.3 634.454 51.1667 633.637 50.9C632.837 50.6333 632.162 50.2667 631.612 49.8C631.062 49.3333 630.495 48.7083 629.912 47.925L632.287 45.95C632.97 46.9 633.629 47.575 634.262 47.975C634.912 48.3583 635.712 48.55 636.662 48.55C637.979 48.55 638.937 48.3583 639.537 47.975C640.137 47.5917 640.437 46.975 640.437 46.125C640.437 45.6917 640.295 45.3417 640.012 45.075C639.729 44.7917 639.237 44.5333 638.537 44.3C637.854 44.0667 636.829 43.8083 635.462 43.525C633.862 43.1917 632.67 42.6 631.887 41.75C631.12 40.8833 630.737 39.7333 630.737 38.3C630.737 37.2667 630.995 36.3667 631.512 35.6C632.045 34.8333 632.795 34.2417 633.762 33.825C634.729 33.4083 635.854 33.2 637.137 33.2C638.804 33.2 640.129 33.45 641.112 33.95C642.095 34.4333 642.895 35.15 643.512 36.1L641.187 38C640.67 37.4833 640.237 37.0917 639.887 36.825C639.554 36.5417 639.17 36.325 638.737 36.175C638.304 36.025 637.77 35.95 637.137 35.95C636.187 35.95 635.47 36.1583 634.987 36.575C634.504 36.9917 634.262 37.5917 634.262 38.375C634.262 39.1083 634.57 39.65 635.187 40C635.804 40.3333 636.595 40.6083 637.562 40.825C638.995 41.125 640.137 41.4333 640.987 41.75C641.837 42.0667 642.545 42.575 643.112 43.275C643.679 43.975 643.962 44.9333 643.962 46.15C643.962 47.8833 643.354 49.175 642.137 50.025C640.937 50.875 639.112 51.3 636.662 51.3ZM649.757 33.5H653.282V51H649.757V33.5ZM674.671 33.5V46.875C674.671 48.225 674.396 49.25 673.846 49.95C673.296 50.65 672.412 51 671.196 51H668.721L663.571 39.075V51H660.271V33.5H664.246L670.596 48H670.646C670.929 48 671.121 47.8833 671.221 47.65C671.321 47.4 671.371 46.9583 671.371 46.325V33.5H674.671ZM686.805 51C684.588 51 682.997 50.5333 682.03 49.6C681.063 48.6667 680.58 47.3167 680.58 45.55V38.95C680.58 37.1833 681.063 35.8333 682.03 34.9C682.997 33.9667 684.588 33.5 686.805 33.5H692.655V36.25H686.805C685.888 36.25 685.205 36.4667 684.755 36.9C684.322 37.3333 684.105 38.0167 684.105 38.95V40.875H691.555V43.625H684.105V45.55C684.105 46.4667 684.322 47.15 684.755 47.6C685.205 48.0333 685.888 48.25 686.805 48.25H692.705V51H686.805ZM703.961 51.3C702.761 51.3 701.753 51.1667 700.936 50.9C700.136 50.6333 699.461 50.2667 698.911 49.8C698.361 49.3333 697.794 48.7083 697.211 47.925L699.586 45.95C700.269 46.9 700.928 47.575 701.561 47.975C702.211 48.3583 703.011 48.55 703.961 48.55C705.278 48.55 706.236 48.3583 706.836 47.975C707.436 47.5917 707.736 46.975 707.736 46.125C707.736 45.6917 707.594 45.3417 707.311 45.075C707.028 44.7917 706.536 44.5333 705.836 44.3C705.153 44.0667 704.128 43.8083 702.761 43.525C701.161 43.1917 699.969 42.6 699.186 41.75C698.419 40.8833 698.036 39.7333 698.036 38.3C698.036 37.2667 698.294 36.3667 698.811 35.6C699.344 34.8333 700.094 34.2417 701.061 33.825C702.028 33.4083 703.153 33.2 704.436 33.2C706.103 33.2 707.428 33.45 708.411 33.95C709.394 34.4333 710.194 35.15 710.811 36.1L708.486 38C707.969 37.4833 707.536 37.0917 707.186 36.825C706.853 36.5417 706.469 36.325 706.036 36.175C705.603 36.025 705.069 35.95 704.436 35.95C703.486 35.95 702.769 36.1583 702.286 36.575C701.803 36.9917 701.561 37.5917 701.561 38.375C701.561 39.1083 701.869 39.65 702.486 40C703.103 40.3333 703.894 40.6083 704.861 40.825C706.294 41.125 707.436 41.4333 708.286 41.75C709.136 42.0667 709.844 42.575 710.411 43.275C710.978 43.975 711.261 44.9333 711.261 46.15C711.261 47.8833 710.653 49.175 709.436 50.025C708.236 50.875 706.411 51.3 703.961 51.3ZM722.556 51.3C721.356 51.3 720.347 51.1667 719.531 50.9C718.731 50.6333 718.056 50.2667 717.506 49.8C716.956 49.3333 716.389 48.7083 715.806 47.925L718.181 45.95C718.864 46.9 719.522 47.575 720.156 47.975C720.806 48.3583 721.606 48.55 722.556 48.55C723.872 48.55 724.831 48.3583 725.431 47.975C726.031 47.5917 726.331 46.975 726.331 46.125C726.331 45.6917 726.189 45.3417 725.906 45.075C725.622 44.7917 725.131 44.5333 724.431 44.3C723.747 44.0667 722.722 43.8083 721.356 43.525C719.756 43.1917 718.564 42.6 717.781 41.75C717.014 40.8833 716.631 39.7333 716.631 38.3C716.631 37.2667 716.889 36.3667 717.406 35.6C717.939 34.8333 718.689 34.2417 719.656 33.825C720.622 33.4083 721.747 33.2 723.031 33.2C724.697 33.2 726.022 33.45 727.006 33.95C727.989 34.4333 728.789 35.15 729.406 36.1L727.081 38C726.564 37.4833 726.131 37.0917 725.781 36.825C725.447 36.5417 725.064 36.325 724.631 36.175C724.197 36.025 723.664 35.95 723.031 35.95C722.081 35.95 721.364 36.1583 720.881 36.575C720.397 36.9917 720.156 37.5917 720.156 38.375C720.156 39.1083 720.464 39.65 721.081 40C721.697 40.3333 722.489 40.6083 723.456 40.825C724.889 41.125 726.031 41.4333 726.881 41.75C727.731 42.0667 728.439 42.575 729.006 43.275C729.572 43.975 729.856 44.9333 729.856 46.15C729.856 47.8833 729.247 49.175 728.031 50.025C726.831 50.875 725.006 51.3 722.556 51.3ZM7.525 82.3C5.20833 82.3 3.43333 81.7667 2.2 80.7C0.983333 79.6167 0.375 78.025 0.375 75.925V70.575C0.375 68.475 0.983333 66.8917 2.2 65.825C3.43333 64.7417 5.20833 64.2 7.525 64.2C9.84167 64.2 11.6083 64.7417 12.825 65.825C14.0583 66.8917 14.675 68.475 14.675 70.575V75.925C14.675 78.025 14.0583 79.6167 12.825 80.7C11.6083 81.7667 9.84167 82.3 7.525 82.3ZM7.525 79.55C8.69167 79.55 9.58333 79.2417 10.2 78.625C10.8333 77.9917 11.15 77.0917 11.15 75.925V70.575C11.15 69.4083 10.8333 68.5167 10.2 67.9C9.58333 67.2667 8.69167 66.95 7.525 66.95C6.35833 66.95 5.45833 67.2667 4.825 67.9C4.20833 68.5167 3.9 69.4083 3.9 70.575V75.925C3.9 77.0917 4.20833 77.9917 4.825 78.625C5.45833 79.2417 6.35833 79.55 7.525 79.55ZM20.916 64.5H28.616C30.4493 64.5 31.8493 64.9 32.816 65.7C33.7993 66.5 34.291 67.6583 34.291 69.175C34.291 70.0083 34.041 70.7583 33.541 71.425C33.041 72.0917 32.316 72.55 31.366 72.8C32.3993 73 33.2327 73.4833 33.866 74.25C34.4993 75 34.816 75.9833 34.816 77.2C34.816 78.6833 34.291 79.8583 33.241 80.725C32.2077 81.575 30.791 82 28.991 82H20.916V64.5ZM28.541 71.55C29.2077 71.55 29.741 71.3583 30.141 70.975C30.5577 70.575 30.766 70.05 30.766 69.4C30.766 68.75 30.5577 68.2333 30.141 67.85C29.741 67.45 29.2077 67.25 28.541 67.25H24.441V71.55H28.541ZM28.241 79.25C29.2743 79.25 30.041 79.05 30.541 78.65C31.041 78.2333 31.291 77.6083 31.291 76.775C31.291 75.9417 31.041 75.325 30.541 74.925C30.041 74.5083 29.2743 74.3 28.241 74.3H24.441V79.25H28.241ZM44.2855 82.3C42.9689 82.3 41.9272 82.1083 41.1605 81.725C40.4105 81.325 39.6689 80.7083 38.9355 79.875L41.0105 77.75C41.5105 78.4167 41.9855 78.8833 42.4355 79.15C42.9022 79.4167 43.4855 79.55 44.1855 79.55C45.2522 79.55 46.0522 79.3167 46.5855 78.85C47.1355 78.3667 47.4105 77.6667 47.4105 76.75V64.5H50.9355V76.75C50.9355 78.5833 50.3689 79.9667 49.2355 80.9C48.1189 81.8333 46.4689 82.3 44.2855 82.3ZM62.7248 82C60.5081 82 58.9165 81.5333 57.9498 80.6C56.9831 79.6667 56.4998 78.3167 56.4998 76.55V69.95C56.4998 68.1833 56.9831 66.8333 57.9498 65.9C58.9165 64.9667 60.5081 64.5 62.7248 64.5H68.5748V67.25H62.7248C61.8081 67.25 61.1248 67.4667 60.6748 67.9C60.2415 68.3333 60.0248 69.0167 60.0248 69.95V71.875H67.4748V74.625H60.0248V76.55C60.0248 77.4667 60.2415 78.15 60.6748 78.6C61.1248 79.0333 61.8081 79.25 62.7248 79.25H68.6248V82H62.7248ZM80.8559 82.3C78.5059 82.3 76.7142 81.7667 75.4809 80.7C74.2475 79.6167 73.6309 78.025 73.6309 75.925V70.575C73.6309 68.475 74.2475 66.8917 75.4809 65.825C76.7142 64.7417 78.5059 64.2 80.8559 64.2C82.4892 64.2 83.8225 64.475 84.8559 65.025C85.9059 65.5583 86.7392 66.3667 87.3559 67.45L84.8309 69.2C84.3142 68.4 83.7725 67.825 83.2059 67.475C82.6559 67.125 81.8725 66.95 80.8559 66.95C79.5725 66.95 78.6309 67.2583 78.0309 67.875C77.4475 68.475 77.1559 69.375 77.1559 70.575V75.925C77.1559 77.125 77.4475 78.0333 78.0309 78.65C78.6309 79.25 79.5725 79.55 80.8559 79.55C81.9559 79.55 82.8059 79.3667 83.4059 79C84.0225 78.6167 84.5725 78.0083 85.0559 77.175L87.5559 79.025C87.0225 79.7917 86.4725 80.4083 85.9059 80.875C85.3392 81.3417 84.6475 81.7 83.8309 81.95C83.0309 82.1833 82.0392 82.3 80.8559 82.3ZM96.6988 67.25H91.4238V64.5H105.499V67.25H100.224V82H96.6988V67.25ZM110.862 64.5H114.387V82H110.862V64.5ZM127.651 82.3C126.968 82.3 126.393 82.1833 125.926 81.95C125.476 81.7167 125.076 81.325 124.726 80.775C124.393 80.2083 124.084 79.4333 123.801 78.45L119.751 64.5H123.276L127.101 78.4C127.218 78.8333 127.401 79.05 127.651 79.05C127.901 79.05 128.084 78.8333 128.201 78.4L132.026 64.5H135.551L131.501 78.45C131.218 79.4333 130.901 80.2083 130.551 80.775C130.218 81.325 129.818 81.7167 129.351 81.95C128.901 82.1833 128.334 82.3 127.651 82.3ZM145.86 82C143.643 82 142.051 81.5333 141.085 80.6C140.118 79.6667 139.635 78.3167 139.635 76.55V69.95C139.635 68.1833 140.118 66.8333 141.085 65.9C142.051 64.9667 143.643 64.5 145.86 64.5H151.71V67.25H145.86C144.943 67.25 144.26 67.4667 143.81 67.9C143.376 68.3333 143.16 69.0167 143.16 69.95V71.875H150.61V74.625H143.16V76.55C143.16 77.4667 143.376 78.15 143.81 78.6C144.26 79.0333 144.943 79.25 145.86 79.25H151.76V82H145.86ZM163.016 82.3C161.816 82.3 160.807 82.1667 159.991 81.9C159.191 81.6333 158.516 81.2667 157.966 80.8C157.416 80.3333 156.849 79.7083 156.266 78.925L158.641 76.95C159.324 77.9 159.982 78.575 160.616 78.975C161.266 79.3583 162.066 79.55 163.016 79.55C164.332 79.55 165.291 79.3583 165.891 78.975C166.491 78.5917 166.791 77.975 166.791 77.125C166.791 76.6917 166.649 76.3417 166.366 76.075C166.082 75.7917 165.591 75.5333 164.891 75.3C164.207 75.0667 163.182 74.8083 161.816 74.525C160.216 74.1917 159.024 73.6 158.241 72.75C157.474 71.8833 157.091 70.7333 157.091 69.3C157.091 68.2667 157.349 67.3667 157.866 66.6C158.399 65.8333 159.149 65.2417 160.116 64.825C161.082 64.4083 162.207 64.2 163.491 64.2C165.157 64.2 166.482 64.45 167.466 64.95C168.449 65.4333 169.249 66.15 169.866 67.1L167.541 69C167.024 68.4833 166.591 68.0917 166.241 67.825C165.907 67.5417 165.524 67.325 165.091 67.175C164.657 67.025 164.124 66.95 163.491 66.95C162.541 66.95 161.824 67.1583 161.341 67.575C160.857 67.9917 160.616 68.5917 160.616 69.375C160.616 70.1083 160.924 70.65 161.541 71C162.157 71.3333 162.949 71.6083 163.916 71.825C165.349 72.125 166.491 72.4333 167.341 72.75C168.191 73.0667 168.899 73.575 169.466 74.275C170.032 74.975 170.316 75.9333 170.316 77.15C170.316 78.8833 169.707 80.175 168.491 81.025C167.291 81.875 165.466 82.3 163.016 82.3ZM177.335 82.3C176.785 82.3 176.319 82.1167 175.935 81.75C175.552 81.3667 175.36 80.9083 175.36 80.375C175.36 79.8417 175.552 79.3833 175.935 79C176.319 78.6 176.785 78.4 177.335 78.4C177.852 78.4 178.302 78.6 178.685 79C179.069 79.3833 179.26 79.8417 179.26 80.375C179.26 80.9083 179.069 81.3667 178.685 81.75C178.319 82.1167 177.869 82.3 177.335 82.3ZM195.258 64.5H198.783V82H195.258V64.5ZM225.453 77.925H218.603L217.428 82H213.903L218.178 68.05C218.478 67.05 218.795 66.275 219.128 65.725C219.462 65.175 219.853 64.7833 220.303 64.55C220.77 64.3167 221.345 64.2 222.028 64.2C222.712 64.2 223.278 64.3167 223.728 64.55C224.178 64.7833 224.57 65.175 224.903 65.725C225.253 66.275 225.578 67.05 225.878 68.05L230.153 82H226.628L225.453 77.925ZM224.678 75.3L222.578 68.1C222.462 67.6667 222.278 67.45 222.028 67.45C221.778 67.45 221.595 67.6667 221.478 68.1L219.378 75.3H224.678ZM235.539 64.5H237.364C238.281 64.5 239.014 64.625 239.564 64.875C240.114 65.125 240.589 65.525 240.989 66.075C241.389 66.6083 241.856 67.4167 242.389 68.5L243.839 71.425L245.289 68.5C245.822 67.4167 246.289 66.6083 246.689 66.075C247.089 65.525 247.564 65.125 248.114 64.875C248.664 64.625 249.397 64.5 250.314 64.5H252.139V82H248.939V68.175C248.739 68.175 248.572 68.2667 248.439 68.45C248.306 68.6333 248.106 68.9583 247.839 69.425L243.839 76.85L239.839 69.425C239.572 68.9583 239.372 68.6333 239.239 68.45C239.106 68.2667 238.939 68.1667 238.739 68.15V82H235.539V64.5ZM275.371 82.3C273.021 82.3 271.229 81.7667 269.996 80.7C268.762 79.6167 268.146 78.025 268.146 75.925V70.575C268.146 68.475 268.762 66.8917 269.996 65.825C271.229 64.7417 273.021 64.2 275.371 64.2C277.004 64.2 278.337 64.475 279.371 65.025C280.421 65.5583 281.254 66.3667 281.871 67.45L279.346 69.2C278.829 68.4 278.287 67.825 277.721 67.475C277.171 67.125 276.387 66.95 275.371 66.95C274.087 66.95 273.146 67.2583 272.546 67.875C271.962 68.475 271.671 69.375 271.671 70.575V75.925C271.671 77.125 271.962 78.0333 272.546 78.65C273.146 79.25 274.087 79.55 275.371 79.55C276.471 79.55 277.321 79.3667 277.921 79C278.537 78.6167 279.087 78.0083 279.571 77.175L282.071 79.025C281.537 79.7917 280.987 80.4083 280.421 80.875C279.854 81.3417 279.162 81.7 278.346 81.95C277.546 82.1833 276.554 82.3 275.371 82.3ZM293.963 82.3C291.647 82.3 289.872 81.7667 288.638 80.7C287.422 79.6167 286.813 78.025 286.813 75.925V70.575C286.813 68.475 287.422 66.8917 288.638 65.825C289.872 64.7417 291.647 64.2 293.963 64.2C296.28 64.2 298.047 64.7417 299.263 65.825C300.497 66.8917 301.113 68.475 301.113 70.575V75.925C301.113 78.025 300.497 79.6167 299.263 80.7C298.047 81.7667 296.28 82.3 293.963 82.3ZM293.963 79.55C295.13 79.55 296.022 79.2417 296.638 78.625C297.272 77.9917 297.588 77.0917 297.588 75.925V70.575C297.588 69.4083 297.272 68.5167 296.638 67.9C296.022 67.2667 295.13 66.95 293.963 66.95C292.797 66.95 291.897 67.2667 291.263 67.9C290.647 68.5167 290.338 69.4083 290.338 70.575V75.925C290.338 77.0917 290.647 77.9917 291.263 78.625C291.897 79.2417 292.797 79.55 293.963 79.55ZM307.354 64.5H309.179C310.096 64.5 310.829 64.625 311.379 64.875C311.929 65.125 312.404 65.525 312.804 66.075C313.204 66.6083 313.671 67.4167 314.204 68.5L315.654 71.425L317.104 68.5C317.638 67.4167 318.104 66.6083 318.504 66.075C318.904 65.525 319.379 65.125 319.929 64.875C320.479 64.625 321.213 64.5 322.129 64.5H323.954V82H320.754V68.175C320.554 68.175 320.388 68.2667 320.254 68.45C320.121 68.6333 319.921 68.9583 319.654 69.425L315.654 76.85L311.654 69.425C311.388 68.9583 311.188 68.6333 311.054 68.45C310.921 68.2667 310.754 68.1667 310.554 68.15V82H307.354V64.5ZM330.954 64.5H332.779C333.696 64.5 334.429 64.625 334.979 64.875C335.529 65.125 336.004 65.525 336.404 66.075C336.804 66.6083 337.271 67.4167 337.804 68.5L339.254 71.425L340.704 68.5C341.237 67.4167 341.704 66.6083 342.104 66.075C342.504 65.525 342.979 65.125 343.529 64.875C344.079 64.625 344.812 64.5 345.729 64.5H347.554V82H344.354V68.175C344.154 68.175 343.987 68.2667 343.854 68.45C343.721 68.6333 343.521 68.9583 343.254 69.425L339.254 76.85L335.254 69.425C334.987 68.9583 334.787 68.6333 334.654 68.45C334.521 68.2667 334.354 68.1667 334.154 68.15V82H330.954V64.5ZM354.554 64.5H358.079V82H354.554V64.5ZM368.717 67.25H363.442V64.5H377.517V67.25H372.242V82H368.717V67.25ZM386.531 67.25H381.256V64.5H395.331V67.25H390.056V82H386.531V67.25ZM405.631 82C403.414 82 401.823 81.5333 400.856 80.6C399.889 79.6667 399.406 78.3167 399.406 76.55V69.95C399.406 68.1833 399.889 66.8333 400.856 65.9C401.823 64.9667 403.414 64.5 405.631 64.5H411.481V67.25H405.631C404.714 67.25 404.031 67.4667 403.581 67.9C403.148 68.3333 402.931 69.0167 402.931 69.95V71.875H410.381V74.625H402.931V76.55C402.931 77.4667 403.148 78.15 403.581 78.6C404.031 79.0333 404.714 79.25 405.631 79.25H411.531V82H405.631ZM417.287 64.5H423.787C425.754 64.5 427.304 64.7833 428.437 65.35C429.587 65.9167 430.412 66.8333 430.912 68.1C431.429 69.35 431.687 71.0667 431.687 73.25C431.687 75.4333 431.429 77.1583 430.912 78.425C430.412 79.675 429.587 80.5833 428.437 81.15C427.304 81.7167 425.754 82 423.787 82H417.287V64.5ZM423.787 79.25C424.887 79.25 425.754 79.0583 426.387 78.675C427.02 78.2917 427.47 77.6667 427.737 76.8C428.02 75.9333 428.162 74.75 428.162 73.25C428.162 71.75 428.02 70.5667 427.737 69.7C427.47 68.8333 427.02 68.2083 426.387 67.825C425.754 67.4417 424.887 67.25 423.787 67.25H420.812V79.25H423.787ZM451.217 67.25H445.942V64.5H460.017V67.25H454.742V82H451.217V67.25ZM470.78 82.3C468.463 82.3 466.688 81.7667 465.455 80.7C464.238 79.6167 463.63 78.025 463.63 75.925V70.575C463.63 68.475 464.238 66.8917 465.455 65.825C466.688 64.7417 468.463 64.2 470.78 64.2C473.097 64.2 474.863 64.7417 476.08 65.825C477.313 66.8917 477.93 68.475 477.93 70.575V75.925C477.93 78.025 477.313 79.6167 476.08 80.7C474.863 81.7667 473.097 82.3 470.78 82.3ZM470.78 79.55C471.947 79.55 472.838 79.2417 473.455 78.625C474.088 77.9917 474.405 77.0917 474.405 75.925V70.575C474.405 69.4083 474.088 68.5167 473.455 67.9C472.838 67.2667 471.947 66.95 470.78 66.95C469.613 66.95 468.713 67.2667 468.08 67.9C467.463 68.5167 467.155 69.4083 467.155 70.575V75.925C467.155 77.0917 467.463 77.9917 468.08 78.625C468.713 79.2417 469.613 79.55 470.78 79.55ZM493.928 64.5H500.428C502.394 64.5 503.944 64.7833 505.078 65.35C506.228 65.9167 507.053 66.8333 507.553 68.1C508.069 69.35 508.328 71.0667 508.328 73.25C508.328 75.4333 508.069 77.1583 507.553 78.425C507.053 79.675 506.228 80.5833 505.078 81.15C503.944 81.7167 502.394 82 500.428 82H493.928V64.5ZM500.428 79.25C501.528 79.25 502.394 79.0583 503.028 78.675C503.661 78.2917 504.111 77.6667 504.378 76.8C504.661 75.9333 504.803 74.75 504.803 73.25C504.803 71.75 504.661 70.5667 504.378 69.7C504.111 68.8333 503.661 68.2083 503.028 67.825C502.394 67.4417 501.528 67.25 500.428 67.25H497.453V79.25H500.428ZM519.876 82C517.66 82 516.068 81.5333 515.101 80.6C514.135 79.6667 513.651 78.3167 513.651 76.55V69.95C513.651 68.1833 514.135 66.8333 515.101 65.9C516.068 64.9667 517.66 64.5 519.876 64.5H525.726V67.25H519.876C518.96 67.25 518.276 67.4667 517.826 67.9C517.393 68.3333 517.176 69.0167 517.176 69.95V71.875H524.626V74.625H517.176V76.55C517.176 77.4667 517.393 78.15 517.826 78.6C518.276 79.0333 518.96 79.25 519.876 79.25H525.776V82H519.876ZM536.882 82C534.749 82 533.216 81.5333 532.282 80.6C531.366 79.6667 530.907 78.3167 530.907 76.55V64.5H534.432V76.55C534.432 77.4667 534.632 78.15 535.032 78.6C535.432 79.0333 536.049 79.25 536.882 79.25H542.482V82H536.882ZM547.979 64.5H551.504V82H547.979V64.5ZM564.767 82.3C564.084 82.3 563.509 82.1833 563.042 81.95C562.592 81.7167 562.192 81.325 561.842 80.775C561.509 80.2083 561.201 79.4333 560.917 78.45L556.867 64.5H560.392L564.217 78.4C564.334 78.8333 564.517 79.05 564.767 79.05C565.017 79.05 565.201 78.8333 565.317 78.4L569.142 64.5H572.667L568.617 78.45C568.334 79.4333 568.017 80.2083 567.667 80.775C567.334 81.325 566.934 81.7167 566.467 81.95C566.017 82.1833 565.451 82.3 564.767 82.3ZM582.976 82C580.759 82 579.167 81.5333 578.201 80.6C577.234 79.6667 576.751 78.3167 576.751 76.55V69.95C576.751 68.1833 577.234 66.8333 578.201 65.9C579.167 64.9667 580.759 64.5 582.976 64.5H588.826V67.25H582.976C582.059 67.25 581.376 67.4667 580.926 67.9C580.492 68.3333 580.276 69.0167 580.276 69.95V71.875H587.726V74.625H580.276V76.55C580.276 77.4667 580.492 78.15 580.926 78.6C581.376 79.0333 582.059 79.25 582.976 79.25H588.876V82H582.976ZM608.807 82H605.082L603.932 78.125C603.699 77.325 603.465 76.7083 603.232 76.275C602.999 75.825 602.682 75.4833 602.282 75.25C601.882 75.0167 601.349 74.9 600.682 74.9H598.157V82H594.632V64.5H601.707C603.84 64.5 605.415 64.925 606.432 65.775C607.449 66.6083 607.957 67.9167 607.957 69.7C607.957 70.85 607.649 71.775 607.032 72.475C606.432 73.175 605.599 73.625 604.532 73.825C605.382 74.1083 606.024 74.6 606.457 75.3C606.89 76 607.29 76.95 607.657 78.15L608.807 82ZM601.807 72.15C602.574 72.15 603.199 71.95 603.682 71.55C604.182 71.1333 604.432 70.5167 604.432 69.7C604.432 68.8833 604.182 68.275 603.682 67.875C603.199 67.4583 602.574 67.25 601.807 67.25H598.157V72.15H601.807ZM614.423 64.5H617.948V82H614.423V64.5ZM639.337 64.5V77.875C639.337 79.225 639.062 80.25 638.512 80.95C637.962 81.65 637.078 82 635.862 82H633.387L628.237 70.075V82H624.937V64.5H628.912L635.262 79H635.312C635.595 79 635.787 78.8833 635.887 78.65C635.987 78.4 636.037 77.9583 636.037 77.325V64.5H639.337ZM652.646 82.3C650.263 82.3 648.438 81.7667 647.171 80.7C645.921 79.6167 645.296 78.025 645.296 75.925V70.575C645.296 68.475 645.921 66.8917 647.171 65.825C648.438 64.7417 650.263 64.2 652.646 64.2C654.363 64.2 655.763 64.475 656.846 65.025C657.946 65.575 658.813 66.3917 659.446 67.475L656.771 69.3C656.254 68.4667 655.704 67.8667 655.121 67.5C654.538 67.1333 653.713 66.95 652.646 66.95C651.313 66.95 650.338 67.2583 649.721 67.875C649.121 68.475 648.821 69.375 648.821 70.575V75.925C648.821 77.125 649.121 78.0333 649.721 78.65C650.338 79.25 651.313 79.55 652.646 79.55C653.813 79.55 654.696 79.3583 655.296 78.975C655.913 78.575 656.221 78 656.221 77.25V76.475C656.221 75.4417 655.746 74.925 654.796 74.925H651.946V72.175H655.796C657.129 72.175 658.113 72.4833 658.746 73.1C659.379 73.7167 659.696 74.675 659.696 75.975V77.5C659.696 79 659.063 80.175 657.796 81.025C656.529 81.875 654.813 82.3 652.646 82.3ZM675.398 64.5H678.923V71.85H685.723V64.5H689.248V82H685.723V74.6H678.923V82H675.398V64.5ZM696.239 64.5H699.764V82H696.239V64.5ZM713.353 82.3C710.97 82.3 709.145 81.7667 707.878 80.7C706.628 79.6167 706.003 78.025 706.003 75.925V70.575C706.003 68.475 706.628 66.8917 707.878 65.825C709.145 64.7417 710.97 64.2 713.353 64.2C715.07 64.2 716.47 64.475 717.553 65.025C718.653 65.575 719.52 66.3917 720.153 67.475L717.478 69.3C716.961 68.4667 716.411 67.8667 715.828 67.5C715.245 67.1333 714.42 66.95 713.353 66.95C712.02 66.95 711.045 67.2583 710.428 67.875C709.828 68.475 709.528 69.375 709.528 70.575V75.925C709.528 77.125 709.828 78.0333 710.428 78.65C711.045 79.25 712.02 79.55 713.353 79.55C714.52 79.55 715.403 79.3583 716.003 78.975C716.62 78.575 716.928 78 716.928 77.25V76.475C716.928 75.4417 716.453 74.925 715.503 74.925H712.653V72.175H716.503C717.836 72.175 718.82 72.4833 719.453 73.1C720.086 73.7167 720.403 74.675 720.403 75.975V77.5C720.403 79 719.77 80.175 718.503 81.025C717.236 81.875 715.52 82.3 713.353 82.3ZM726.349 64.5H729.874V71.85H736.674V64.5H740.199V82H736.674V74.6H729.874V82H726.349V64.5ZM14.675 106.925C14.675 108.542 14.3083 109.858 13.575 110.875C12.8583 111.875 11.7917 112.567 10.375 112.95C11.1417 113.667 12.425 114.025 14.225 114.025V116.975C12.2917 116.975 10.7417 116.675 9.575 116.075C8.40833 115.475 7.54167 114.55 6.975 113.3C4.84167 113.217 3.20833 112.642 2.075 111.575C0.941667 110.492 0.375 108.942 0.375 106.925V101.575C0.375 99.475 0.983333 97.8917 2.2 96.825C3.43333 95.7417 5.20833 95.2 7.525 95.2C9.84167 95.2 11.6083 95.7417 12.825 96.825C14.0583 97.8917 14.675 99.475 14.675 101.575V106.925ZM11.15 101.575C11.15 100.408 10.8333 99.5167 10.2 98.9C9.58333 98.2667 8.69167 97.95 7.525 97.95C6.35833 97.95 5.45833 98.2667 4.825 98.9C4.20833 99.5167 3.9 100.408 3.9 101.575V106.925C3.9 108.092 4.20833 108.992 4.825 109.625C5.45833 110.242 6.35833 110.55 7.525 110.55C8.69167 110.55 9.58333 110.242 10.2 109.625C10.8333 108.992 11.15 108.092 11.15 106.925V101.575ZM27.216 113.325C24.9327 113.325 23.2077 112.842 22.041 111.875C20.8743 110.892 20.291 109.533 20.291 107.8V95.5H23.816V107.8C23.816 109.65 24.9493 110.575 27.216 110.575C29.4827 110.575 30.616 109.65 30.616 107.8V95.5H34.141V107.8C34.141 109.533 33.5577 110.892 32.391 111.875C31.2243 112.842 29.4993 113.325 27.216 113.325ZM49.9484 108.925H43.0984L41.9234 113H38.3984L42.6734 99.05C42.9734 98.05 43.2901 97.275 43.6234 96.725C43.9568 96.175 44.3484 95.7833 44.7984 95.55C45.2651 95.3167 45.8401 95.2 46.5234 95.2C47.2068 95.2 47.7734 95.3167 48.2234 95.55C48.6734 95.7833 49.0651 96.175 49.3984 96.725C49.7484 97.275 50.0734 98.05 50.3734 99.05L54.6484 113H51.1234L49.9484 108.925ZM49.1734 106.3L47.0734 99.1C46.9568 98.6667 46.7734 98.45 46.5234 98.45C46.2734 98.45 46.0901 98.6667 45.9734 99.1L43.8734 106.3H49.1734ZM64.8959 113C62.7626 113 61.2292 112.533 60.2959 111.6C59.3792 110.667 58.9209 109.317 58.9209 107.55V95.5H62.4459V107.55C62.4459 108.467 62.6459 109.15 63.0459 109.6C63.4459 110.033 64.0626 110.25 64.8959 110.25H70.4959V113H64.8959ZM75.9922 95.5H79.5172V113H75.9922V95.5ZM90.1559 98.25H84.8809V95.5H98.9559V98.25H93.6809V113H90.1559V98.25ZM107.944 105.5L102.194 95.5H106.119L109.794 102.275L113.394 95.5H117.344L111.469 105.5V113H107.944V105.5ZM152.362 95.5L148.362 113H147.387C146.421 113 145.654 112.883 145.087 112.65C144.537 112.417 144.079 112.025 143.712 111.475C143.346 110.925 142.979 110.1 142.612 109L141.387 105.35L140.187 109C139.837 110.067 139.471 110.883 139.087 111.45C138.704 112.017 138.229 112.417 137.662 112.65C137.096 112.883 136.346 113 135.412 113H134.437L130.437 95.5H133.737L136.912 109.55C137.062 109.367 137.229 109.017 137.412 108.5L141.387 97.35L145.387 108.5C145.571 109.017 145.737 109.367 145.887 109.55L149.062 95.5H152.362ZM163.72 113.3C161.404 113.3 159.629 112.767 158.395 111.7C157.179 110.617 156.57 109.025 156.57 106.925V101.575C156.57 99.475 157.179 97.8917 158.395 96.825C159.629 95.7417 161.404 95.2 163.72 95.2C166.037 95.2 167.804 95.7417 169.02 96.825C170.254 97.8917 170.87 99.475 170.87 101.575V106.925C170.87 109.025 170.254 110.617 169.02 111.7C167.804 112.767 166.037 113.3 163.72 113.3ZM163.72 110.55C164.887 110.55 165.779 110.242 166.395 109.625C167.029 108.992 167.345 108.092 167.345 106.925V101.575C167.345 100.408 167.029 99.5167 166.395 98.9C165.779 98.2667 164.887 97.95 163.72 97.95C162.554 97.95 161.654 98.2667 161.02 98.9C160.404 99.5167 160.095 100.408 160.095 101.575V106.925C160.095 108.092 160.404 108.992 161.02 109.625C161.654 110.242 162.554 110.55 163.72 110.55ZM191.286 113H187.561L186.411 109.125C186.178 108.325 185.945 107.708 185.711 107.275C185.478 106.825 185.161 106.483 184.761 106.25C184.361 106.017 183.828 105.9 183.161 105.9H180.636V113H177.111V95.5H184.186C186.32 95.5 187.895 95.925 188.911 96.775C189.928 97.6083 190.436 98.9167 190.436 100.7C190.436 101.85 190.128 102.775 189.511 103.475C188.911 104.175 188.078 104.625 187.011 104.825C187.861 105.108 188.503 105.6 188.936 106.3C189.37 107 189.77 107.95 190.136 109.15L191.286 113ZM184.286 103.15C185.053 103.15 185.678 102.95 186.161 102.55C186.661 102.133 186.911 101.517 186.911 100.7C186.911 99.8833 186.661 99.275 186.161 98.875C185.678 98.4583 185.053 98.25 184.286 98.25H180.636V103.15H184.286ZM205.377 102.45C206.111 102.633 206.719 102.925 207.202 103.325C207.686 103.708 208.102 104.217 208.452 104.85C208.802 105.467 209.169 106.317 209.552 107.4L211.552 113H208.002L206.102 107.75C205.869 107.1 205.652 106.608 205.452 106.275C205.269 105.925 205.002 105.633 204.652 105.4C204.302 105.167 203.811 105 203.177 104.9L200.427 107.95V113H196.902V95.5H200.427V103.525L207.502 95.5H211.652L205.377 102.45ZM230.515 98.25H225.24V95.5H239.315V98.25H234.04V113H230.515V98.25ZM244.679 95.5H248.204V102.85H255.004V95.5H258.529V113H255.004V105.6H248.204V113H244.679V95.5ZM275.445 108.925H268.595L267.42 113H263.895L268.17 99.05C268.47 98.05 268.786 97.275 269.12 96.725C269.453 96.175 269.845 95.7833 270.295 95.55C270.761 95.3167 271.336 95.2 272.02 95.2C272.703 95.2 273.27 95.3167 273.72 95.55C274.17 95.7833 274.561 96.175 274.895 96.725C275.245 97.275 275.57 98.05 275.87 99.05L280.145 113H276.62L275.445 108.925ZM274.67 106.3L272.57 99.1C272.453 98.6667 272.27 98.45 272.02 98.45C271.77 98.45 271.586 98.6667 271.47 99.1L269.37 106.3H274.67ZM286.69 98.25H281.415V95.5H295.49V98.25H290.215V113H286.69V98.25Z" fill="#394548"/>
</svg>
