<svg width="796" height="130" viewBox="0 0 796 130" fill="none" xmlns="http://www.w3.org/2000/svg">
<path d="M19.6914 3.07479H22.8992V19H19.6914V3.07479ZM30.2145 0.959013C30.7757 0.959013 31.208 1.1486 31.5113 1.52777C31.8298 1.89178 31.9891 2.41503 31.9891 3.09754C31.9891 3.97722 31.7919 4.7659 31.3975 5.46357C31.0032 6.16125 30.4193 6.83617 29.6458 7.48835L28.7585 6.64659C29.6837 5.88824 30.2069 5.11473 30.3283 4.32606C30.1311 4.41706 29.896 4.46256 29.623 4.46256C29.2287 4.46256 28.9178 4.33364 28.6903 4.0758C28.4628 3.8028 28.349 3.43121 28.349 2.96104C28.349 2.46053 28.5234 2.00553 28.8723 1.59602C29.2363 1.17135 29.6837 0.959013 30.2145 0.959013ZM42.3177 19C40.3763 19 38.981 18.5753 38.1316 17.726C37.2975 16.8766 36.8804 15.6481 36.8804 14.0404V3.07479H40.0882V14.0404C40.0882 14.8746 40.2702 15.4965 40.6342 15.906C40.9982 16.3003 41.5593 16.4975 42.3177 16.4975H47.4138V19H42.3177ZM57.284 19C55.3426 19 53.9473 18.5753 53.098 17.726C52.2638 16.8766 51.8467 15.6481 51.8467 14.0404V3.07479H55.0545V14.0404C55.0545 14.8746 55.2365 15.4965 55.6005 15.906C55.9645 16.3003 56.5257 16.4975 57.284 16.4975H62.3801V19H57.284ZM85.2925 15.2917H79.0589L77.9896 19H74.7818L78.6721 6.30533C78.9451 5.39532 79.2333 4.69006 79.5366 4.18956C79.84 3.68905 80.1964 3.33263 80.6059 3.12029C81.0306 2.90796 81.5538 2.80179 82.1757 2.80179C82.7975 2.80179 83.3132 2.90796 83.7227 3.12029C84.1322 3.33263 84.4886 3.68905 84.792 4.18956C85.1105 4.69006 85.4062 5.39532 85.6792 6.30533L89.5695 19H86.3617L85.2925 15.2917ZM84.5872 12.9029L82.6762 6.35083C82.57 5.9565 82.4032 5.75933 82.1757 5.75933C81.9482 5.75933 81.7813 5.9565 81.6752 6.35083L79.7641 12.9029H84.5872ZM98.8948 19C96.9535 19 95.5581 18.5753 94.7088 17.726C93.8746 16.8766 93.4575 15.6481 93.4575 14.0404V3.07479H96.6653V14.0404C96.6653 14.8746 96.8473 15.4965 97.2113 15.906C97.5753 16.3003 98.1365 16.4975 98.8948 16.4975H103.991V19H98.8948ZM125.49 3.07479L121.85 19H120.963C120.083 19 119.385 18.8938 118.87 18.6815C118.369 18.4692 117.952 18.1127 117.619 17.6122C117.285 17.1117 116.951 16.361 116.617 15.36L115.503 12.0384L114.411 15.36C114.092 16.3306 113.759 17.0738 113.41 17.5895C113.061 18.1052 112.629 18.4692 112.113 18.6815C111.597 18.8938 110.915 19 110.065 19H109.178L105.538 3.07479H108.541L111.43 15.8605C111.567 15.6936 111.719 15.3751 111.885 14.9049L115.503 4.75831L119.143 14.9049C119.31 15.3751 119.461 15.6936 119.598 15.8605L122.487 3.07479H125.49ZM138.123 15.2917H131.889L130.82 19H127.612L131.503 6.30533C131.776 5.39532 132.064 4.69006 132.367 4.18956C132.67 3.68905 133.027 3.33263 133.436 3.12029C133.861 2.90796 134.384 2.80179 135.006 2.80179C135.628 2.80179 136.144 2.90796 136.553 3.12029C136.963 3.33263 137.319 3.68905 137.622 4.18956C137.941 4.69006 138.237 5.39532 138.51 6.30533L142.4 19H139.192L138.123 15.2917ZM137.418 12.9029L135.507 6.35083C135.4 5.9565 135.234 5.75933 135.006 5.75933C134.779 5.75933 134.612 5.9565 134.506 6.35083L132.595 12.9029H137.418ZM147.867 12.1749L142.635 3.07479H146.206L149.551 9.24012L152.827 3.07479H156.421L151.075 12.1749V19H147.867V12.1749ZM165.428 19.273C164.336 19.273 163.419 19.1517 162.676 18.909C161.948 18.6663 161.333 18.3327 160.833 17.908C160.332 17.4833 159.817 16.9146 159.286 16.2017L161.447 14.4044C162.069 15.269 162.668 15.8832 163.244 16.2472C163.836 16.5961 164.564 16.7705 165.428 16.7705C166.627 16.7705 167.499 16.5961 168.045 16.2472C168.591 15.8984 168.864 15.3372 168.864 14.5637C168.864 14.1694 168.735 13.8508 168.477 13.6082C168.219 13.3503 167.772 13.1153 167.135 12.9029C166.513 12.6906 165.58 12.4555 164.336 12.1977C162.88 11.8943 161.796 11.3559 161.083 10.5824C160.385 9.79371 160.037 8.7472 160.037 7.44285C160.037 6.5025 160.272 5.68349 160.742 4.98582C161.227 4.28814 161.91 3.74972 162.789 3.37054C163.669 2.99137 164.693 2.80179 165.861 2.80179C167.377 2.80179 168.583 3.02929 169.478 3.4843C170.373 3.92413 171.101 4.57631 171.662 5.44082L169.546 7.16984C169.076 6.69967 168.682 6.34325 168.363 6.10058C168.06 5.84274 167.711 5.64557 167.317 5.50907C166.922 5.37257 166.437 5.30432 165.861 5.30432C164.996 5.30432 164.344 5.49391 163.904 5.87308C163.464 6.25225 163.244 6.79826 163.244 7.5111C163.244 8.17844 163.525 8.67136 164.086 8.98987C164.647 9.29321 165.368 9.54346 166.247 9.74063C167.552 10.0136 168.591 10.2942 169.364 10.5824C170.138 10.8706 170.782 11.3331 171.298 11.9702C171.814 12.6072 172.072 13.4793 172.072 14.5864C172.072 16.1638 171.518 17.3392 170.411 18.1127C169.319 18.8862 167.658 19.273 165.428 19.273ZM192.116 19.273C189.977 19.273 188.347 18.7877 187.225 17.817C186.102 16.8311 185.541 15.3827 185.541 13.4717V8.60311C185.541 6.69209 186.102 5.25124 187.225 4.28056C188.347 3.29471 189.977 2.80179 192.116 2.80179C193.602 2.80179 194.816 3.05204 195.756 3.55255C196.712 4.03789 197.47 4.77348 198.031 5.75933L195.733 7.35185C195.263 6.62384 194.77 6.10058 194.254 5.78208C193.754 5.46357 193.041 5.30432 192.116 5.30432C190.948 5.30432 190.091 5.58491 189.545 6.14608C189.014 6.69209 188.749 7.5111 188.749 8.60311V13.4717C188.749 14.5637 189.014 15.3903 189.545 15.9515C190.091 16.4975 190.948 16.7705 192.116 16.7705C193.117 16.7705 193.89 16.6036 194.436 16.27C194.998 15.9211 195.498 15.3675 195.938 14.6092L198.213 16.2927C197.728 16.9904 197.227 17.5516 196.712 17.9762C196.196 18.4009 195.566 18.727 194.823 18.9545C194.095 19.1668 193.193 19.273 192.116 19.273ZM216.111 19H212.721L211.675 15.4737C211.462 14.7457 211.25 14.1845 211.038 13.7902C210.825 13.3807 210.537 13.0698 210.173 12.8574C209.809 12.6451 209.324 12.5389 208.717 12.5389H206.419V19H203.212V3.07479H209.65C211.591 3.07479 213.025 3.46155 213.95 4.23506C214.875 4.9934 215.338 6.184 215.338 7.80685C215.338 8.85337 215.057 9.69513 214.496 10.3321C213.95 10.9691 213.191 11.3786 212.221 11.5607C212.994 11.8185 213.578 12.2659 213.973 12.9029C214.367 13.5399 214.731 14.4044 215.065 15.4965L216.111 19ZM209.741 10.0364C210.439 10.0364 211.007 9.85438 211.447 9.49038C211.902 9.1112 212.13 8.55003 212.13 7.80685C212.13 7.06368 211.902 6.51009 211.447 6.14608C211.007 5.76691 210.439 5.57732 209.741 5.57732H206.419V10.0364H209.741ZM226.159 19C224.141 19 222.693 18.5753 221.813 17.726C220.934 16.8766 220.494 15.6481 220.494 14.0404V8.03436C220.494 6.42667 220.934 5.19815 221.813 4.34881C222.693 3.49946 224.141 3.07479 226.159 3.07479H231.482V5.57732H226.159C225.324 5.57732 224.703 5.77449 224.293 6.16883C223.899 6.56317 223.702 7.18501 223.702 8.03436V9.78613H230.481V12.2887H223.702V14.0404C223.702 14.8746 223.899 15.4965 224.293 15.906C224.703 16.3003 225.324 16.4975 226.159 16.4975H231.528V19H226.159ZM245.798 15.2917H239.564L238.495 19H235.287L239.177 6.30533C239.45 5.39532 239.738 4.69006 240.042 4.18956C240.345 3.68905 240.702 3.33263 241.111 3.12029C241.536 2.90796 242.059 2.80179 242.681 2.80179C243.303 2.80179 243.818 2.90796 244.228 3.12029C244.637 3.33263 244.994 3.68905 245.297 4.18956C245.616 4.69006 245.911 5.39532 246.184 6.30533L250.075 19H246.867L245.798 15.2917ZM245.092 12.9029L243.181 6.35083C243.075 5.9565 242.908 5.75933 242.681 5.75933C242.453 5.75933 242.286 5.9565 242.18 6.35083L240.269 12.9029H245.092ZM256.031 5.57732H251.231V3.07479H264.039V5.57732H259.239V19H256.031V5.57732ZM273.413 19C271.395 19 269.947 18.5753 269.067 17.726C268.188 16.8766 267.748 15.6481 267.748 14.0404V8.03436C267.748 6.42667 268.188 5.19815 269.067 4.34881C269.947 3.49946 271.395 3.07479 273.413 3.07479H278.736V5.57732H273.413C272.578 5.57732 271.957 5.77449 271.547 6.16883C271.153 6.56317 270.956 7.18501 270.956 8.03436V9.78613H277.735V12.2887H270.956V14.0404C270.956 14.8746 271.153 15.4965 271.547 15.906C271.957 16.3003 272.578 16.4975 273.413 16.4975H278.782V19H273.413ZM292.899 3.07479H298.814C300.603 3.07479 302.014 3.33263 303.045 3.8483C304.092 4.36397 304.842 5.19815 305.297 6.35083C305.768 7.48835 306.003 9.05054 306.003 11.0374C306.003 13.0243 305.768 14.594 305.297 15.7467C304.842 16.8842 304.092 17.7108 303.045 18.2265C302.014 18.7422 300.603 19 298.814 19H292.899V3.07479ZM298.814 16.4975C299.815 16.4975 300.603 16.323 301.18 15.9742C301.756 15.6254 302.165 15.0566 302.408 14.2679C302.666 13.4793 302.795 12.4024 302.795 11.0374C302.795 9.67238 302.666 8.59553 302.408 7.80685C302.165 7.01818 301.756 6.44942 301.18 6.10058C300.603 5.75174 299.815 5.57732 298.814 5.57732H296.106V16.4975H298.814ZM316.512 19C314.495 19 313.046 18.5753 312.167 17.726C311.287 16.8766 310.847 15.6481 310.847 14.0404V8.03436C310.847 6.42667 311.287 5.19815 312.167 4.34881C313.046 3.49946 314.495 3.07479 316.512 3.07479H321.835V5.57732H316.512C315.678 5.57732 315.056 5.77449 314.646 6.16883C314.252 6.56317 314.055 7.18501 314.055 8.03436V9.78613H320.834V12.2887H314.055V14.0404C314.055 14.8746 314.252 15.4965 314.646 15.906C315.056 16.3003 315.678 16.4975 316.512 16.4975H321.881V19H316.512ZM332.124 19.273C331.032 19.273 330.115 19.1517 329.371 18.909C328.643 18.6663 328.029 18.3327 327.529 17.908C327.028 17.4833 326.512 16.9146 325.982 16.2017L328.143 14.4044C328.765 15.269 329.364 15.8832 329.94 16.2472C330.532 16.5961 331.26 16.7705 332.124 16.7705C333.322 16.7705 334.194 16.5961 334.74 16.2472C335.286 15.8984 335.559 15.3372 335.559 14.5637C335.559 14.1694 335.431 13.8508 335.173 13.6082C334.915 13.3503 334.467 13.1153 333.83 12.9029C333.209 12.6906 332.276 12.4555 331.032 12.1977C329.576 11.8943 328.492 11.3559 327.779 10.5824C327.081 9.79371 326.732 8.7472 326.732 7.44285C326.732 6.5025 326.967 5.68349 327.438 4.98582C327.923 4.28814 328.605 3.74972 329.485 3.37054C330.365 2.99137 331.389 2.80179 332.556 2.80179C334.073 2.80179 335.279 3.02929 336.174 3.4843C337.069 3.92413 337.797 4.57631 338.358 5.44082L336.242 7.16984C335.772 6.69967 335.377 6.34325 335.059 6.10058C334.756 5.84274 334.407 5.64557 334.012 5.50907C333.618 5.37257 333.133 5.30432 332.556 5.30432C331.692 5.30432 331.04 5.49391 330.6 5.87308C330.16 6.25225 329.94 6.79826 329.94 7.5111C329.94 8.17844 330.221 8.67136 330.782 8.98987C331.343 9.29321 332.063 9.54346 332.943 9.74063C334.248 10.0136 335.286 10.2942 336.06 10.5824C336.833 10.8706 337.478 11.3331 337.994 11.9702C338.509 12.6072 338.767 13.4793 338.767 14.5864C338.767 16.1638 338.214 17.3392 337.106 18.1127C336.014 18.8862 334.354 19.273 332.124 19.273ZM344.04 3.07479H347.248V19H344.04V3.07479ZM359.614 19.273C357.445 19.273 355.785 18.7877 354.632 17.817C353.494 16.8311 352.926 15.3827 352.926 13.4717V8.60311C352.926 6.69209 353.494 5.25124 354.632 4.28056C355.785 3.29471 357.445 2.80179 359.614 2.80179C361.176 2.80179 362.45 3.05204 363.436 3.55255C364.437 4.05305 365.226 4.79623 365.802 5.78208L363.368 7.44285C362.898 6.68451 362.397 6.1385 361.866 5.80483C361.336 5.47116 360.585 5.30432 359.614 5.30432C358.401 5.30432 357.514 5.58491 356.952 6.14608C356.406 6.69209 356.133 7.5111 356.133 8.60311V13.4717C356.133 14.5637 356.406 15.3903 356.952 15.9515C357.514 16.4975 358.401 16.7705 359.614 16.7705C360.676 16.7705 361.48 16.5961 362.026 16.2472C362.587 15.8832 362.867 15.36 362.867 14.6774V13.9722C362.867 13.0318 362.435 12.5617 361.571 12.5617H358.977V10.0591H362.481C363.694 10.0591 364.589 10.3397 365.165 10.9009C365.742 11.4621 366.03 12.3342 366.03 13.5172V14.9049C366.03 16.27 365.453 17.3392 364.301 18.1127C363.148 18.8862 361.586 19.273 359.614 19.273ZM384.545 3.07479V15.2462C384.545 16.4747 384.294 17.4075 383.794 18.0445C383.293 18.6815 382.489 19 381.382 19H379.13L374.443 8.14811V19H371.44V3.07479H375.058L380.836 16.27H380.882C381.14 16.27 381.314 16.1638 381.405 15.9515C381.496 15.724 381.542 15.322 381.542 14.7457V3.07479H384.545ZM395.655 19.273C394.563 19.273 393.646 19.1517 392.902 18.909C392.174 18.6663 391.56 18.3327 391.06 17.908C390.559 17.4833 390.044 16.9146 389.513 16.2017L391.674 14.4044C392.296 15.269 392.895 15.8832 393.471 16.2472C394.063 16.5961 394.791 16.7705 395.655 16.7705C396.853 16.7705 397.726 16.5961 398.272 16.2472C398.818 15.8984 399.091 15.3372 399.091 14.5637C399.091 14.1694 398.962 13.8508 398.704 13.6082C398.446 13.3503 397.999 13.1153 397.362 12.9029C396.74 12.6906 395.807 12.4555 394.563 12.1977C393.107 11.8943 392.023 11.3559 391.31 10.5824C390.612 9.79371 390.263 8.7472 390.263 7.44285C390.263 6.5025 390.499 5.68349 390.969 4.98582C391.454 4.28814 392.137 3.74972 393.016 3.37054C393.896 2.99137 394.92 2.80179 396.087 2.80179C397.604 2.80179 398.81 3.02929 399.705 3.4843C400.6 3.92413 401.328 4.57631 401.889 5.44082L399.773 7.16984C399.303 6.69967 398.909 6.34325 398.59 6.10058C398.287 5.84274 397.938 5.64557 397.544 5.50907C397.149 5.37257 396.664 5.30432 396.087 5.30432C395.223 5.30432 394.571 5.49391 394.131 5.87308C393.691 6.25225 393.471 6.79826 393.471 7.5111C393.471 8.17844 393.752 8.67136 394.313 8.98987C394.874 9.29321 395.595 9.54346 396.474 9.74063C397.779 10.0136 398.818 10.2942 399.591 10.5824C400.365 10.8706 401.009 11.3331 401.525 11.9702C402.04 12.6072 402.298 13.4793 402.298 14.5864C402.298 16.1638 401.745 17.3392 400.638 18.1127C399.546 18.8862 397.885 19.273 395.655 19.273ZM419.772 5.57732H414.972V3.07479H427.78V5.57732H422.98V19H419.772V5.57732ZM432.661 3.07479H435.869V9.76338H442.057V3.07479H445.265V19H442.057V12.2659H435.869V19H432.661V3.07479ZM460.658 15.2917H454.425L453.355 19H450.148L454.038 6.30533C454.311 5.39532 454.599 4.69006 454.902 4.18956C455.206 3.68905 455.562 3.33263 455.972 3.12029C456.396 2.90796 456.92 2.80179 457.541 2.80179C458.163 2.80179 458.679 2.90796 459.088 3.12029C459.498 3.33263 459.854 3.68905 460.158 4.18956C460.476 4.69006 460.772 5.39532 461.045 6.30533L464.935 19H461.727L460.658 15.2917ZM459.953 12.9029L458.042 6.35083C457.936 5.9565 457.769 5.75933 457.541 5.75933C457.314 5.75933 457.147 5.9565 457.041 6.35083L455.13 12.9029H459.953ZM470.892 5.57732H466.091V3.07479H478.9V5.57732H474.099V19H470.892V5.57732ZM505.764 3.07479V15.2462C505.764 16.4747 505.513 17.4075 505.013 18.0445C504.512 18.6815 503.709 19 502.601 19H500.349L495.663 8.14811V19H492.659V3.07479H496.277L502.055 16.27H502.101C502.359 16.27 502.533 16.1638 502.624 15.9515C502.715 15.724 502.761 15.322 502.761 14.7457V3.07479H505.764ZM517.693 19.273C515.585 19.273 513.97 18.7877 512.848 17.817C511.74 16.8311 511.187 15.3827 511.187 13.4717V8.60311C511.187 6.69209 511.74 5.25124 512.848 4.28056C513.97 3.29471 515.585 2.80179 517.693 2.80179C519.802 2.80179 521.409 3.29471 522.516 4.28056C523.639 5.25124 524.2 6.69209 524.2 8.60311V13.4717C524.2 15.3827 523.639 16.8311 522.516 17.817C521.409 18.7877 519.802 19.273 517.693 19.273ZM517.693 16.7705C518.755 16.7705 519.566 16.4899 520.128 15.9287C520.704 15.3524 520.992 14.5334 520.992 13.4717V8.60311C520.992 7.54143 520.704 6.73001 520.128 6.16883C519.566 5.59249 518.755 5.30432 517.693 5.30432C516.632 5.30432 515.813 5.59249 515.236 6.16883C514.675 6.73001 514.395 7.54143 514.395 8.60311V13.4717C514.395 14.5334 514.675 15.3524 515.236 15.9287C515.813 16.4899 516.632 16.7705 517.693 16.7705ZM532.29 5.57732H527.49V3.07479H540.298V5.57732H535.498V19H532.29V5.57732ZM559.882 19.273C557.774 19.273 556.158 18.7877 555.036 17.817C553.929 16.8311 553.375 15.3827 553.375 13.4717V8.60311C553.375 6.69209 553.929 5.25124 555.036 4.28056C556.158 3.29471 557.774 2.80179 559.882 2.80179C561.99 2.80179 563.598 3.29471 564.705 4.28056C565.827 5.25124 566.388 6.69209 566.388 8.60311V13.4717C566.388 15.3827 565.827 16.8311 564.705 17.817C563.598 18.7877 561.99 19.273 559.882 19.273ZM559.882 16.7705C560.943 16.7705 561.755 16.4899 562.316 15.9287C562.892 15.3524 563.181 14.5334 563.181 13.4717V8.60311C563.181 7.54143 562.892 6.73001 562.316 6.16883C561.755 5.59249 560.943 5.30432 559.882 5.30432C558.82 5.30432 558.001 5.59249 557.425 6.16883C556.864 6.73001 556.583 7.54143 556.583 8.60311V13.4717C556.583 14.5334 556.864 15.3524 557.425 15.9287C558.001 16.4899 558.82 16.7705 559.882 16.7705ZM585.172 3.07479V15.2462C585.172 16.4747 584.922 17.4075 584.421 18.0445C583.921 18.6815 583.117 19 582.01 19H579.757L575.071 8.14811V19H572.068V3.07479H575.685L581.464 16.27H581.509C581.767 16.27 581.941 16.1638 582.032 15.9515C582.123 15.724 582.169 15.322 582.169 14.7457V3.07479H585.172ZM596.146 19C594.205 19 592.809 18.5753 591.96 17.726C591.126 16.8766 590.709 15.6481 590.709 14.0404V3.07479H593.917V14.0404C593.917 14.8746 594.099 15.4965 594.463 15.906C594.827 16.3003 595.388 16.4975 596.146 16.4975H601.242V19H596.146ZM605.677 12.1749L600.444 3.07479H604.016L607.36 9.24012L610.636 3.07479H614.231L608.885 12.1749V19H605.677V12.1749ZM627.556 3.07479H634.563C636.232 3.07479 637.506 3.4388 638.385 4.16681C639.28 4.89481 639.728 5.94891 639.728 7.3291C639.728 8.08744 639.5 8.76995 639.045 9.37662C638.59 9.9833 637.93 10.4004 637.066 10.6279C638.006 10.8099 638.765 11.2497 639.341 11.9474C639.917 12.6299 640.205 13.5248 640.205 14.6319C640.205 15.9818 639.728 17.0511 638.772 17.8397C637.832 18.6132 636.543 19 634.905 19H627.556V3.07479ZM634.495 9.49038C635.102 9.49038 635.587 9.31596 635.951 8.96712C636.33 8.60311 636.52 8.12536 636.52 7.53385C636.52 6.94234 636.33 6.47217 635.951 6.12333C635.587 5.75933 635.102 5.57732 634.495 5.57732H630.764V9.49038H634.495ZM634.222 16.4975C635.162 16.4975 635.86 16.3155 636.315 15.9515C636.77 15.5723 636.998 15.0035 636.998 14.2452C636.998 13.4868 636.77 12.9257 636.315 12.5617C635.86 12.1825 635.162 11.9929 634.222 11.9929H630.764V16.4975H634.222ZM650.592 19C648.575 19 647.126 18.5753 646.247 17.726C645.367 16.8766 644.927 15.6481 644.927 14.0404V8.03436C644.927 6.42667 645.367 5.19815 646.247 4.34881C647.126 3.49946 648.575 3.07479 650.592 3.07479H655.916V5.57732H650.592C649.758 5.57732 649.136 5.77449 648.727 6.16883C648.332 6.56317 648.135 7.18501 648.135 8.03436V9.78613H654.915V12.2887H648.135V14.0404C648.135 14.8746 648.332 15.4965 648.727 15.906C649.136 16.3003 649.758 16.4975 650.592 16.4975H655.961V19H650.592ZM670.231 15.2917H663.998L662.928 19H659.72L663.611 6.30533C663.884 5.39532 664.172 4.69006 664.475 4.18956C664.779 3.68905 665.135 3.33263 665.545 3.12029C665.969 2.90796 666.492 2.80179 667.114 2.80179C667.736 2.80179 668.252 2.90796 668.661 3.12029C669.071 3.33263 669.427 3.68905 669.731 4.18956C670.049 4.69006 670.345 5.39532 670.618 6.30533L674.508 19H671.3L670.231 15.2917ZM669.526 12.9029L667.615 6.35083C667.509 5.9565 667.342 5.75933 667.114 5.75933C666.887 5.75933 666.72 5.9565 666.614 6.35083L664.703 12.9029H669.526ZM684.698 19.2958C682.62 19.2958 681.05 18.8559 679.989 17.9762C678.927 17.0814 678.396 15.8453 678.396 14.2679V3.07479H681.604V14.2679C681.604 15.9515 682.635 16.7932 684.698 16.7932C686.761 16.7932 687.792 15.9515 687.792 14.2679V3.07479H691V14.2679C691 15.8453 690.469 17.0814 689.407 17.9762C688.346 18.8559 686.776 19.2958 684.698 19.2958ZM700.119 5.57732H695.318V3.07479H708.127V5.57732H703.327V19H700.119V5.57732ZM713.008 3.07479H716.215V19H713.008V3.07479ZM722.006 8.03436C722.006 6.42667 722.446 5.19815 723.326 4.34881C724.206 3.49946 725.654 3.07479 727.671 3.07479H732.995V5.57732H727.671C726.837 5.57732 726.215 5.77449 725.806 6.16883C725.411 6.56317 725.214 7.18501 725.214 8.03436V10.2411H731.994V12.7437H725.214V19H722.006V8.03436ZM743.963 19.2958C741.885 19.2958 740.316 18.8559 739.254 17.9762C738.192 17.0814 737.662 15.8453 737.662 14.2679V3.07479H740.869V14.2679C740.869 15.9515 741.901 16.7932 743.963 16.7932C746.026 16.7932 747.057 15.9515 747.057 14.2679V3.07479H750.265V14.2679C750.265 15.8453 749.734 17.0814 748.673 17.9762C747.611 18.8559 746.041 19.2958 743.963 19.2958ZM760.931 19C758.99 19 757.594 18.5753 756.745 17.726C755.911 16.8766 755.494 15.6481 755.494 14.0404V3.07479H758.702V14.0404C758.702 14.8746 758.884 15.4965 759.248 15.906C759.612 16.3003 760.173 16.4975 760.931 16.4975H766.027V19H760.931ZM771.984 15.7922C772.546 15.7922 772.978 15.9818 773.281 16.361C773.6 16.725 773.759 17.2482 773.759 17.9307C773.759 18.8104 773.562 19.5991 773.167 20.2968C772.773 20.9944 772.189 21.6694 771.416 22.3215L770.528 21.4798C771.454 20.7214 771.977 19.9479 772.098 19.1593C771.901 19.2503 771.666 19.2958 771.393 19.2958C770.999 19.2958 770.688 19.1668 770.46 18.909C770.233 18.636 770.119 18.2644 770.119 17.7942C770.119 17.2937 770.293 16.8387 770.642 16.4292C771.006 16.0045 771.454 15.7922 771.984 15.7922ZM1.93378 40.0748H8.94087C10.6092 40.0748 11.8832 40.4388 12.7629 41.1668C13.6578 41.8948 14.1052 42.9489 14.1052 44.3291C14.1052 45.0874 13.8777 45.7699 13.4227 46.3766C12.9677 46.9833 12.3079 47.4004 11.4434 47.6279C12.3837 47.8099 13.1421 48.2497 13.7184 48.9474C14.2948 49.6299 14.5829 50.5248 14.5829 51.6319C14.5829 52.9818 14.1052 54.0511 13.1497 54.8397C12.2093 55.6132 10.9201 56 9.28212 56H1.93378V40.0748ZM8.87262 46.4904C9.47929 46.4904 9.96463 46.316 10.3286 45.9671C10.7078 45.6031 10.8974 45.1254 10.8974 44.5338C10.8974 43.9423 10.7078 43.4722 10.3286 43.1233C9.96463 42.7593 9.47929 42.5773 8.87262 42.5773H5.14157V46.4904H8.87262ZM8.59961 53.4975C9.53996 53.4975 10.2376 53.3155 10.6926 52.9515C11.1476 52.5723 11.3751 52.0035 11.3751 51.2452C11.3751 50.4868 11.1476 49.9257 10.6926 49.5617C10.2376 49.1825 9.53996 48.9929 8.59961 48.9929H5.14157V53.4975H8.59961ZM25.7658 56.2958C23.6879 56.2958 22.1181 55.8559 21.0565 54.9762C19.9948 54.0814 19.4639 52.8453 19.4639 51.2679V40.0748H22.6717V51.2679C22.6717 52.9515 23.7031 53.7932 25.7658 53.7932C27.8285 53.7932 28.8598 52.9515 28.8598 51.2679V40.0748H32.0676V51.2679C32.0676 52.8453 31.5368 54.0814 30.4751 54.9762C29.4134 55.8559 27.8436 56.2958 25.7658 56.2958ZM41.1866 42.5773H36.3863V40.0748H49.1947V42.5773H44.3944V56H41.1866V42.5773ZM71.9862 52.2917H65.7526L64.6834 56H61.4756L65.3659 43.3053C65.6389 42.3953 65.927 41.6901 66.2304 41.1896C66.5337 40.689 66.8901 40.3326 67.2996 40.1203C67.7243 39.908 68.2476 39.8018 68.8694 39.8018C69.4913 39.8018 70.0069 39.908 70.4164 40.1203C70.8259 40.3326 71.1824 40.689 71.4857 41.1896C71.8042 41.6901 72.1 42.3953 72.373 43.3053L76.2633 56H73.0555L71.9862 52.2917ZM71.281 49.9029L69.3699 43.3508C69.2638 42.9565 69.0969 42.7593 68.8694 42.7593C68.6419 42.7593 68.4751 42.9565 68.3689 43.3508L66.4579 49.9029H71.281ZM85.5886 56C83.6472 56 82.2519 55.5753 81.4025 54.726C80.5683 53.8766 80.1512 52.6481 80.1512 51.0404V40.0748H83.359V51.0404C83.359 51.8746 83.541 52.4965 83.905 52.906C84.2691 53.3003 84.8302 53.4975 85.5886 53.4975H90.6846V56H85.5886ZM100.691 56.273C99.5994 56.273 98.6818 56.1517 97.9386 55.909C97.2106 55.6663 96.5963 55.3327 96.0958 54.908C95.5953 54.4833 95.0797 53.9146 94.5488 53.2017L96.7101 51.4044C97.3319 52.269 97.931 52.8832 98.5074 53.2472C99.0989 53.5961 99.8269 53.7705 100.691 53.7705C101.89 53.7705 102.762 53.5961 103.308 53.2472C103.854 52.8984 104.127 52.3372 104.127 51.5637C104.127 51.1694 103.998 50.8508 103.74 50.6082C103.482 50.3503 103.035 50.1153 102.398 49.9029C101.776 49.6906 100.843 49.4555 99.5994 49.1977C98.1434 48.8943 97.0589 48.3559 96.3461 47.5824C95.6484 46.7937 95.2996 45.7472 95.2996 44.4428C95.2996 43.5025 95.5347 42.6835 96.0048 41.9858C96.4902 41.2881 97.1727 40.7497 98.0524 40.3705C98.932 39.9914 99.9558 39.8018 101.124 39.8018C102.64 39.8018 103.846 40.0293 104.741 40.4843C105.636 40.9241 106.364 41.5763 106.925 42.4408L104.809 44.1698C104.339 43.6997 103.945 43.3433 103.626 43.1006C103.323 42.8427 102.974 42.6456 102.58 42.5091C102.185 42.3726 101.7 42.3043 101.124 42.3043C100.259 42.3043 99.607 42.4939 99.1671 42.8731C98.7273 43.2522 98.5074 43.7983 98.5074 44.5111C98.5074 45.1784 98.788 45.6714 99.3491 45.9899C99.9103 46.2932 100.631 46.5435 101.51 46.7406C102.815 47.0136 103.854 47.2942 104.627 47.5824C105.401 47.8706 106.045 48.3331 106.561 48.9702C107.077 49.6072 107.334 50.4793 107.334 51.5864C107.334 53.1638 106.781 54.3392 105.674 55.1127C104.582 55.8862 102.921 56.273 100.691 56.273ZM118.21 56.273C116.101 56.273 114.486 55.7877 113.364 54.817C112.257 53.8311 111.703 52.3827 111.703 50.4717V45.6031C111.703 43.6921 112.257 42.2512 113.364 41.2806C114.486 40.2947 116.101 39.8018 118.21 39.8018C120.318 39.8018 121.926 40.2947 123.033 41.2806C124.155 42.2512 124.716 43.6921 124.716 45.6031V50.4717C124.716 52.3827 124.155 53.8311 123.033 54.817C121.926 55.7877 120.318 56.273 118.21 56.273ZM118.21 53.7705C119.271 53.7705 120.083 53.4899 120.644 52.9287C121.22 52.3524 121.508 51.5334 121.508 50.4717V45.6031C121.508 44.5414 121.22 43.73 120.644 43.1688C120.083 42.5925 119.271 42.3043 118.21 42.3043C117.148 42.3043 116.329 42.5925 115.753 43.1688C115.191 43.73 114.911 44.5414 114.911 45.6031V50.4717C114.911 51.5334 115.191 52.3524 115.753 52.9287C116.329 53.4899 117.148 53.7705 118.21 53.7705ZM139.274 40.0748H142.482V46.7634H148.67V40.0748H151.878V56H148.67V49.2659H142.482V56H139.274V40.0748ZM163.177 56C161.159 56 159.711 55.5753 158.831 54.726C157.952 53.8766 157.512 52.6481 157.512 51.0404V45.0344C157.512 43.4267 157.952 42.1982 158.831 41.3488C159.711 40.4995 161.159 40.0748 163.177 40.0748H168.5V42.5773H163.177C162.343 42.5773 161.721 42.7745 161.311 43.1688C160.917 43.5632 160.72 44.185 160.72 45.0344V46.7861H167.499V49.2887H160.72V51.0404C160.72 51.8746 160.917 52.4965 161.311 52.906C161.721 53.3003 162.343 53.4975 163.177 53.4975H168.546V56H163.177ZM178.652 56C176.711 56 175.316 55.5753 174.466 54.726C173.632 53.8766 173.215 52.6481 173.215 51.0404V40.0748H176.423V51.0404C176.423 51.8746 176.605 52.4965 176.969 52.906C177.333 53.3003 177.894 53.4975 178.652 53.4975H183.748V56H178.652ZM188.75 40.0748H195.188C197.13 40.0748 198.563 40.4919 199.488 41.3261C200.413 42.1451 200.876 43.4191 200.876 45.1481C200.876 46.8771 200.413 48.1587 199.488 48.9929C198.563 49.8119 197.13 50.2214 195.188 50.2214H191.958V56H188.75V40.0748ZM195.279 47.7189C195.977 47.7189 196.546 47.5066 196.986 47.0819C197.441 46.6572 197.668 46.0126 197.668 45.1481C197.668 44.2836 197.441 43.639 196.986 43.2143C196.546 42.7897 195.977 42.5773 195.279 42.5773H191.958V47.7189H195.279ZM220.532 56.273C218.393 56.273 216.763 55.7877 215.64 54.817C214.518 53.8311 213.957 52.3827 213.957 50.4717V45.6031C213.957 43.6921 214.518 42.2512 215.64 41.2806C216.763 40.2947 218.393 39.8018 220.532 39.8018C222.018 39.8018 223.231 40.052 224.172 40.5525C225.127 41.0379 225.886 41.7735 226.447 42.7593L224.149 44.3518C223.679 43.6238 223.186 43.1006 222.67 42.7821C222.17 42.4636 221.457 42.3043 220.532 42.3043C219.364 42.3043 218.507 42.5849 217.961 43.1461C217.43 43.6921 217.165 44.5111 217.165 45.6031V50.4717C217.165 51.5637 217.43 52.3903 217.961 52.9515C218.507 53.4975 219.364 53.7705 220.532 53.7705C221.533 53.7705 222.306 53.6036 222.852 53.27C223.413 52.9211 223.914 52.3675 224.354 51.6092L226.629 53.2927C226.143 53.9904 225.643 54.5516 225.127 54.9762C224.611 55.4009 223.982 55.727 223.239 55.9545C222.511 56.1668 221.608 56.273 220.532 56.273ZM236.496 56C234.555 56 233.159 55.5753 232.31 54.726C231.476 53.8766 231.059 52.6481 231.059 51.0404V40.0748H234.266V51.0404C234.266 51.8746 234.448 52.4965 234.812 52.906C235.176 53.3003 235.738 53.4975 236.496 53.4975H241.592V56H236.496ZM246.594 40.0748H249.801V56H246.594V40.0748ZM261.098 56C259.081 56 257.632 55.5753 256.753 54.726C255.873 53.8766 255.433 52.6481 255.433 51.0404V45.0344C255.433 43.4267 255.873 42.1982 256.753 41.3488C257.632 40.4995 259.081 40.0748 261.098 40.0748H266.422V42.5773H261.098C260.264 42.5773 259.642 42.7745 259.233 43.1688C258.838 43.5632 258.641 44.185 258.641 45.0344V46.7861H265.421V49.2887H258.641V51.0404C258.641 51.8746 258.838 52.4965 259.233 52.906C259.642 53.3003 260.264 53.4975 261.098 53.4975H266.467V56H261.098ZM284.809 40.0748V52.2462C284.809 53.4747 284.559 54.4075 284.059 55.0445C283.558 55.6815 282.754 56 281.647 56H279.395L274.708 45.1481V56H271.705V40.0748H275.322L281.101 53.27H281.147C281.404 53.27 281.579 53.1638 281.67 52.9515C281.761 52.724 281.806 52.322 281.806 51.7457V40.0748H284.809ZM294.237 42.5773H289.436V40.0748H302.245V42.5773H297.444V56H294.237V42.5773ZM311.686 56.273C310.594 56.273 309.677 56.1517 308.933 55.909C308.205 55.6663 307.591 55.3327 307.091 54.908C306.59 54.4833 306.074 53.9146 305.544 53.2017L307.705 51.4044C308.327 52.269 308.926 52.8832 309.502 53.2472C310.094 53.5961 310.822 53.7705 311.686 53.7705C312.884 53.7705 313.756 53.5961 314.302 53.2472C314.848 52.8984 315.121 52.3372 315.121 51.5637C315.121 51.1694 314.993 50.8508 314.735 50.6082C314.477 50.3503 314.029 50.1153 313.392 49.9029C312.771 49.6906 311.838 49.4555 310.594 49.1977C309.138 48.8943 308.054 48.3559 307.341 47.5824C306.643 46.7937 306.294 45.7472 306.294 44.4428C306.294 43.5025 306.529 42.6835 307 41.9858C307.485 41.2881 308.167 40.7497 309.047 40.3705C309.927 39.9914 310.951 39.8018 312.118 39.8018C313.635 39.8018 314.841 40.0293 315.736 40.4843C316.631 40.9241 317.359 41.5763 317.92 42.4408L315.804 44.1698C315.334 43.6997 314.939 43.3433 314.621 43.1006C314.318 42.8427 313.969 42.6456 313.574 42.5091C313.18 42.3726 312.695 42.3043 312.118 42.3043C311.254 42.3043 310.602 42.4939 310.162 42.8731C309.722 43.2522 309.502 43.7983 309.502 44.5111C309.502 45.1784 309.783 45.6714 310.344 45.9899C310.905 46.2932 311.626 46.5435 312.505 46.7406C313.81 47.0136 314.848 47.2942 315.622 47.5824C316.395 47.8706 317.04 48.3331 317.556 48.9702C318.071 49.6072 318.329 50.4793 318.329 51.5864C318.329 53.1638 317.776 54.3392 316.669 55.1127C315.576 55.8862 313.916 56.273 311.686 56.273ZM341.513 52.2917H335.28L334.21 56H331.003L334.893 43.3053C335.166 42.3953 335.454 41.6901 335.757 41.1896C336.061 40.689 336.417 40.3326 336.827 40.1203C337.251 39.908 337.775 39.8018 338.396 39.8018C339.018 39.8018 339.534 39.908 339.943 40.1203C340.353 40.3326 340.709 40.689 341.013 41.1896C341.331 41.6901 341.627 42.3953 341.9 43.3053L345.79 56H342.583L341.513 52.2917ZM340.808 49.9029L338.897 43.3508C338.791 42.9565 338.624 42.7593 338.396 42.7593C338.169 42.7593 338.002 42.9565 337.896 43.3508L335.985 49.9029H340.808ZM355.228 56.273C353.09 56.273 351.46 55.7877 350.337 54.817C349.215 53.8311 348.654 52.3827 348.654 50.4717V45.6031C348.654 43.6921 349.215 42.2512 350.337 41.2806C351.46 40.2947 353.09 39.8018 355.228 39.8018C356.715 39.8018 357.928 40.052 358.869 40.5525C359.824 41.0379 360.582 41.7735 361.144 42.7593L358.846 44.3518C358.376 43.6238 357.883 43.1006 357.367 42.7821C356.866 42.4636 356.154 42.3043 355.228 42.3043C354.061 42.3043 353.204 42.5849 352.658 43.1461C352.127 43.6921 351.861 44.5111 351.861 45.6031V50.4717C351.861 51.5637 352.127 52.3903 352.658 52.9515C353.204 53.4975 354.061 53.7705 355.228 53.7705C356.229 53.7705 357.003 53.6036 357.549 53.27C358.11 52.9211 358.611 52.3675 359.051 51.6092L361.326 53.2927C360.84 53.9904 360.34 54.5516 359.824 54.9762C359.308 55.4009 358.679 55.727 357.936 55.9545C357.208 56.1668 356.305 56.273 355.228 56.273ZM366.324 40.0748H369.532V46.7634H375.72V40.0748H378.928V56H375.72V49.2659H369.532V56H366.324V40.0748ZM385.29 40.0748H388.497V56H385.29V40.0748ZM399.794 56C397.777 56 396.328 55.5753 395.449 54.726C394.569 53.8766 394.129 52.6481 394.129 51.0404V45.0344C394.129 43.4267 394.569 42.1982 395.449 41.3488C396.328 40.4995 397.777 40.0748 399.794 40.0748H405.118V42.5773H399.794C398.96 42.5773 398.338 42.7745 397.928 43.1688C397.534 43.5632 397.337 44.185 397.337 45.0344V46.7861H404.117V49.2887H397.337V51.0404C397.337 51.8746 397.534 52.4965 397.928 52.906C398.338 53.3003 398.96 53.4975 399.794 53.4975H405.163V56H399.794ZM416.111 56.273C415.49 56.273 414.966 56.1668 414.542 55.9545C414.132 55.7422 413.768 55.3857 413.45 54.8852C413.146 54.3696 412.866 53.6643 412.608 52.7695L408.922 40.0748H412.13L415.611 52.724C415.717 53.1183 415.884 53.3155 416.111 53.3155C416.339 53.3155 416.506 53.1183 416.612 52.724L420.093 40.0748H423.301L419.615 52.7695C419.357 53.6643 419.069 54.3696 418.751 54.8852C418.447 55.3857 418.083 55.7422 417.658 55.9545C417.249 56.1668 416.733 56.273 416.111 56.273ZM432.682 56C430.664 56 429.216 55.5753 428.336 54.726C427.457 53.8766 427.017 52.6481 427.017 51.0404V45.0344C427.017 43.4267 427.457 42.1982 428.336 41.3488C429.216 40.4995 430.664 40.0748 432.682 40.0748H438.005V42.5773H432.682C431.847 42.5773 431.225 42.7745 430.816 43.1688C430.422 43.5632 430.224 44.185 430.224 45.0344V46.7861H437.004V49.2887H430.224V51.0404C430.224 51.8746 430.422 52.4965 430.816 52.906C431.225 53.3003 431.847 53.4975 432.682 53.4975H438.051V56H432.682ZM455.489 42.5773H450.689V40.0748H463.497V42.5773H458.697V56H455.489V42.5773ZM468.378 40.0748H471.586V46.7634H477.774V40.0748H480.982V56H477.774V49.2659H471.586V56H468.378V40.0748ZM492.28 56C490.263 56 488.815 55.5753 487.935 54.726C487.055 53.8766 486.615 52.6481 486.615 51.0404V45.0344C486.615 43.4267 487.055 42.1982 487.935 41.3488C488.815 40.4995 490.263 40.0748 492.28 40.0748H497.604V42.5773H492.28C491.446 42.5773 490.824 42.7745 490.415 43.1688C490.02 43.5632 489.823 44.185 489.823 45.0344V46.7861H496.603V49.2887H489.823V51.0404C489.823 51.8746 490.02 52.4965 490.415 52.906C490.824 53.3003 491.446 53.4975 492.28 53.4975H497.649V56H492.28ZM502.887 40.0748H506.095V56H502.887V40.0748ZM525.354 56H521.965L520.918 52.4737C520.706 51.7457 520.493 51.1845 520.281 50.7902C520.069 50.3807 519.78 50.0698 519.416 49.8574C519.052 49.6451 518.567 49.5389 517.96 49.5389H515.663V56H512.455V40.0748H518.893C520.835 40.0748 522.268 40.4615 523.193 41.2351C524.118 41.9934 524.581 43.184 524.581 44.8069C524.581 45.8534 524.3 46.6951 523.739 47.3321C523.193 47.9691 522.435 48.3786 521.464 48.5607C522.238 48.8185 522.821 49.2659 523.216 49.9029C523.61 50.5399 523.974 51.4044 524.308 52.4965L525.354 56ZM518.984 47.0364C519.682 47.0364 520.251 46.8544 520.691 46.4904C521.146 46.1112 521.373 45.55 521.373 44.8069C521.373 44.0637 521.146 43.5101 520.691 43.1461C520.251 42.7669 519.682 42.5773 518.984 42.5773H515.663V47.0364H518.984ZM539.344 40.0748H546.351C548.019 40.0748 549.293 40.4388 550.173 41.1668C551.068 41.8948 551.515 42.9489 551.515 44.3291C551.515 45.0874 551.288 45.7699 550.833 46.3766C550.378 46.9833 549.718 47.4004 548.853 47.6279C549.794 47.8099 550.552 48.2497 551.128 48.9474C551.705 49.6299 551.993 50.5248 551.993 51.6319C551.993 52.9818 551.515 54.0511 550.56 54.8397C549.619 55.6132 548.33 56 546.692 56H539.344V40.0748ZM546.283 46.4904C546.889 46.4904 547.375 46.316 547.739 45.9671C548.118 45.6031 548.307 45.1254 548.307 44.5338C548.307 43.9423 548.118 43.4722 547.739 43.1233C547.375 42.7593 546.889 42.5773 546.283 42.5773H542.552V46.4904H546.283ZM546.01 53.4975C546.95 53.4975 547.648 53.3155 548.103 52.9515C548.558 52.5723 548.785 52.0035 548.785 51.2452C548.785 50.4868 548.558 49.9257 548.103 49.5617C547.648 49.1825 546.95 48.9929 546.01 48.9929H542.552V53.4975H546.01ZM563.176 56.2958C561.098 56.2958 559.528 55.8559 558.467 54.9762C557.405 54.0814 556.874 52.8453 556.874 51.2679V40.0748H560.082V51.2679C560.082 52.9515 561.113 53.7932 563.176 53.7932C565.239 53.7932 566.27 52.9515 566.27 51.2679V40.0748H569.478V51.2679C569.478 52.8453 568.947 54.0814 567.885 54.9762C566.823 55.8559 565.254 56.2958 563.176 56.2958ZM580.28 56.273C579.188 56.273 578.27 56.1517 577.527 55.909C576.799 55.6663 576.185 55.3327 575.685 54.908C575.184 54.4833 574.668 53.9146 574.138 53.2017L576.299 51.4044C576.921 52.269 577.52 52.8832 578.096 53.2472C578.688 53.5961 579.416 53.7705 580.28 53.7705C581.478 53.7705 582.35 53.5961 582.896 53.2472C583.442 52.8984 583.715 52.3372 583.715 51.5637C583.715 51.1694 583.586 50.8508 583.329 50.6082C583.071 50.3503 582.623 50.1153 581.986 49.9029C581.365 49.6906 580.432 49.4555 579.188 49.1977C577.732 48.8943 576.648 48.3559 575.935 47.5824C575.237 46.7937 574.888 45.7472 574.888 44.4428C574.888 43.5025 575.123 42.6835 575.594 41.9858C576.079 41.2881 576.761 40.7497 577.641 40.3705C578.521 39.9914 579.544 39.8018 580.712 39.8018C582.229 39.8018 583.435 40.0293 584.33 40.4843C585.224 40.9241 585.952 41.5763 586.514 42.4408L584.398 44.1698C583.928 43.6997 583.533 43.3433 583.215 43.1006C582.912 42.8427 582.563 42.6456 582.168 42.5091C581.774 42.3726 581.289 42.3043 580.712 42.3043C579.848 42.3043 579.196 42.4939 578.756 42.8731C578.316 43.2522 578.096 43.7983 578.096 44.5111C578.096 45.1784 578.377 45.6714 578.938 45.9899C579.499 46.2932 580.219 46.5435 581.099 46.7406C582.403 47.0136 583.442 47.2942 584.216 47.5824C584.989 47.8706 585.634 48.3331 586.15 48.9702C586.665 49.6072 586.923 50.4793 586.923 51.5864C586.923 53.1638 586.37 54.3392 585.262 55.1127C584.17 55.8862 582.51 56.273 580.28 56.273ZM592.196 40.0748H595.404V56H592.196V40.0748ZM614.868 40.0748V52.2462C614.868 53.4747 614.618 54.4075 614.117 55.0445C613.617 55.6815 612.813 56 611.706 56H609.454L604.767 45.1481V56H601.764V40.0748H605.381L611.16 53.27H611.205C611.463 53.27 611.638 53.1638 611.729 52.9515C611.82 52.724 611.865 52.322 611.865 51.7457V40.0748H614.868ZM625.911 56C623.893 56 622.445 55.5753 621.565 54.726C620.686 53.8766 620.246 52.6481 620.246 51.0404V45.0344C620.246 43.4267 620.686 42.1982 621.565 41.3488C622.445 40.4995 623.893 40.0748 625.911 40.0748H631.234V42.5773H625.911C625.076 42.5773 624.455 42.7745 624.045 43.1688C623.651 43.5632 623.454 44.185 623.454 45.0344V46.7861H630.233V49.2887H623.454V51.0404C623.454 51.8746 623.651 52.4965 624.045 52.906C624.455 53.3003 625.076 53.4975 625.911 53.4975H631.28V56H625.911ZM641.523 56.273C640.431 56.273 639.513 56.1517 638.77 55.909C638.042 55.6663 637.428 55.3327 636.927 54.908C636.427 54.4833 635.911 53.9146 635.38 53.2017L637.542 51.4044C638.163 52.269 638.762 52.8832 639.339 53.2472C639.93 53.5961 640.658 53.7705 641.523 53.7705C642.721 53.7705 643.593 53.5961 644.139 53.2472C644.685 52.8984 644.958 52.3372 644.958 51.5637C644.958 51.1694 644.829 50.8508 644.571 50.6082C644.314 50.3503 643.866 50.1153 643.229 49.9029C642.607 49.6906 641.674 49.4555 640.431 49.1977C638.975 48.8943 637.89 48.3559 637.178 47.5824C636.48 46.7937 636.131 45.7472 636.131 44.4428C636.131 43.5025 636.366 42.6835 636.836 41.9858C637.322 41.2881 638.004 40.7497 638.884 40.3705C639.763 39.9914 640.787 39.8018 641.955 39.8018C643.472 39.8018 644.678 40.0293 645.572 40.4843C646.467 40.9241 647.195 41.5763 647.756 42.4408L645.641 44.1698C645.17 43.6997 644.776 43.3433 644.458 43.1006C644.154 42.8427 643.805 42.6456 643.411 42.5091C643.017 42.3726 642.531 42.3043 641.955 42.3043C641.091 42.3043 640.438 42.4939 639.999 42.8731C639.559 43.2522 639.339 43.7983 639.339 44.5111C639.339 45.1784 639.619 45.6714 640.181 45.9899C640.742 46.2932 641.462 46.5435 642.342 46.7406C643.646 47.0136 644.685 47.2942 645.459 47.5824C646.232 47.8706 646.877 48.3331 647.392 48.9702C647.908 49.6072 648.166 50.4793 648.166 51.5864C648.166 53.1638 647.612 54.3392 646.505 55.1127C645.413 55.8862 643.752 56.273 641.523 56.273ZM658.444 56.273C657.352 56.273 656.435 56.1517 655.691 55.909C654.963 55.6663 654.349 55.3327 653.849 54.908C653.348 54.4833 652.833 53.9146 652.302 53.2017L654.463 51.4044C655.085 52.269 655.684 52.8832 656.26 53.2472C656.852 53.5961 657.58 53.7705 658.444 53.7705C659.642 53.7705 660.515 53.5961 661.061 53.2472C661.607 52.8984 661.88 52.3372 661.88 51.5637C661.88 51.1694 661.751 50.8508 661.493 50.6082C661.235 50.3503 660.788 50.1153 660.151 49.9029C659.529 49.6906 658.596 49.4555 657.352 49.1977C655.896 48.8943 654.812 48.3559 654.099 47.5824C653.401 46.7937 653.052 45.7472 653.052 44.4428C653.052 43.5025 653.288 42.6835 653.758 41.9858C654.243 41.2881 654.926 40.7497 655.805 40.3705C656.685 39.9914 657.709 39.8018 658.877 39.8018C660.393 39.8018 661.599 40.0293 662.494 40.4843C663.389 40.9241 664.117 41.5763 664.678 42.4408L662.562 44.1698C662.092 43.6997 661.698 43.3433 661.379 43.1006C661.076 42.8427 660.727 42.6456 660.333 42.5091C659.938 42.3726 659.453 42.3043 658.877 42.3043C658.012 42.3043 657.36 42.4939 656.92 42.8731C656.48 43.2522 656.26 43.7983 656.26 44.5111C656.26 45.1784 656.541 45.6714 657.102 45.9899C657.663 46.2932 658.384 46.5435 659.263 46.7406C660.568 47.0136 661.607 47.2942 662.38 47.5824C663.154 47.8706 663.798 48.3331 664.314 48.9702C664.83 49.6072 665.087 50.4793 665.087 51.5864C665.087 53.1638 664.534 54.3392 663.427 55.1127C662.335 55.8862 660.674 56.273 658.444 56.273ZM7.75785 92.273C5.64966 92.273 4.03439 91.7877 2.91204 90.817C1.80486 89.8311 1.25127 88.3827 1.25127 86.4717V81.6031C1.25127 79.6921 1.80486 78.2512 2.91204 77.2806C4.03439 76.2947 5.64966 75.8018 7.75785 75.8018C9.86605 75.8018 11.4737 76.2947 12.5809 77.2806C13.7033 78.2512 14.2644 79.6921 14.2644 81.6031V86.4717C14.2644 88.3827 13.7033 89.8311 12.5809 90.817C11.4737 91.7877 9.86605 92.273 7.75785 92.273ZM7.75785 89.7705C8.81953 89.7705 9.63096 89.4899 10.1921 88.9287C10.7685 88.3524 11.0566 87.5334 11.0566 86.4717V81.6031C11.0566 80.5414 10.7685 79.73 10.1921 79.1688C9.63096 78.5925 8.81953 78.3043 7.75785 78.3043C6.69617 78.3043 5.87716 78.5925 5.30082 79.1688C4.73965 79.73 4.45906 80.5414 4.45906 81.6031V86.4717C4.45906 87.5334 4.73965 88.3524 5.30082 88.9287C5.87716 89.4899 6.69617 89.7705 7.75785 89.7705ZM19.9438 76.0748H26.9509C28.6193 76.0748 29.8933 76.4388 30.773 77.1668C31.6678 77.8948 32.1152 78.9489 32.1152 80.3291C32.1152 81.0874 31.8877 81.7699 31.4327 82.3766C30.9777 82.9833 30.318 83.4004 29.4535 83.6279C30.3938 83.8099 31.1521 84.2497 31.7285 84.9474C32.3048 85.6299 32.593 86.5248 32.593 87.6319C32.593 88.9818 32.1152 90.0511 31.1597 90.8397C30.2194 91.6132 28.9302 92 27.2922 92H19.9438V76.0748ZM26.8827 82.4904C27.4894 82.4904 27.9747 82.316 28.3387 81.9671C28.7179 81.6031 28.9075 81.1254 28.9075 80.5338C28.9075 79.9423 28.7179 79.4722 28.3387 79.1233C27.9747 78.7593 27.4894 78.5773 26.8827 78.5773H23.1516V82.4904H26.8827ZM26.6097 89.4975C27.55 89.4975 28.2477 89.3155 28.7027 88.9515C29.1577 88.5723 29.3852 88.0035 29.3852 87.2452C29.3852 86.4868 29.1577 85.9257 28.7027 85.5617C28.2477 85.1825 27.55 84.9929 26.6097 84.9929H23.1516V89.4975H26.6097ZM41.2104 92.273C40.0122 92.273 39.0643 92.0986 38.3666 91.7497C37.6841 91.3857 37.0092 90.8246 36.3418 90.0662L38.2301 88.1324C38.6851 88.7391 39.1174 89.1638 39.5269 89.4065C39.9515 89.6491 40.4824 89.7705 41.1194 89.7705C42.0901 89.7705 42.8181 89.5581 43.3034 89.1335C43.8039 88.6936 44.0542 88.0566 44.0542 87.2224V76.0748H47.262V87.2224C47.262 88.8908 46.7463 90.1496 45.7149 90.999C44.6988 91.8483 43.1972 92.273 41.2104 92.273ZM57.9903 92C55.9731 92 54.5247 91.5753 53.645 90.726C52.7653 89.8766 52.3255 88.6481 52.3255 87.0404V81.0344C52.3255 79.4267 52.7653 78.1982 53.645 77.3488C54.5247 76.4995 55.9731 76.0748 57.9903 76.0748H63.3139V78.5773H57.9903C57.1562 78.5773 56.5343 78.7745 56.1248 79.1688C55.7305 79.5632 55.5333 80.185 55.5333 81.0344V82.7861H62.3129V85.2887H55.5333V87.0404C55.5333 87.8746 55.7305 88.4965 56.1248 88.906C56.5343 89.3003 57.1562 89.4975 57.9903 89.4975H63.3594V92H57.9903ZM74.4898 92.273C72.3513 92.273 70.7208 91.7877 69.5985 90.817C68.4761 89.8311 67.915 88.3827 67.915 86.4717V81.6031C67.915 79.6921 68.4761 78.2512 69.5985 77.2806C70.7208 76.2947 72.3513 75.8018 74.4898 75.8018C75.9762 75.8018 77.1895 76.052 78.1299 76.5525C79.0854 77.0379 79.8437 77.7735 80.4049 78.7593L78.1071 80.3518C77.6369 79.6238 77.144 79.1006 76.6283 78.7821C76.1278 78.4636 75.415 78.3043 74.4898 78.3043C73.322 78.3043 72.465 78.5849 71.919 79.1461C71.3882 79.6921 71.1228 80.5111 71.1228 81.6031V86.4717C71.1228 87.5637 71.3882 88.3903 71.919 88.9515C72.465 89.4975 73.322 89.7705 74.4898 89.7705C75.4908 89.7705 76.2643 89.6036 76.8103 89.27C77.3715 88.9211 77.872 88.3675 78.3119 87.6092L80.5869 89.2927C80.1015 89.9904 79.601 90.5516 79.0854 90.9762C78.5697 91.4009 77.9403 91.727 77.1971 91.9545C76.4691 92.1668 75.5667 92.273 74.4898 92.273ZM88.9071 78.5773H84.1068V76.0748H96.9152V78.5773H92.1149V92H88.9071V78.5773ZM101.796 76.0748H105.004V92H101.796V76.0748ZM117.074 92.273C116.452 92.273 115.929 92.1668 115.504 91.9545C115.095 91.7422 114.731 91.3857 114.412 90.8852C114.109 90.3696 113.828 89.6643 113.57 88.7695L109.885 76.0748H113.093L116.573 88.724C116.68 89.1183 116.846 89.3155 117.074 89.3155C117.301 89.3155 117.468 89.1183 117.574 88.724L121.055 76.0748H124.263L120.577 88.7695C120.32 89.6643 120.031 90.3696 119.713 90.8852C119.41 91.3857 119.046 91.7422 118.621 91.9545C118.211 92.1668 117.696 92.273 117.074 92.273ZM133.644 92C131.627 92 130.178 91.5753 129.299 90.726C128.419 89.8766 127.979 88.6481 127.979 87.0404V81.0344C127.979 79.4267 128.419 78.1982 129.299 77.3488C130.178 76.4995 131.627 76.0748 133.644 76.0748H138.968V78.5773H133.644C132.81 78.5773 132.188 78.7745 131.778 79.1688C131.384 79.5632 131.187 80.185 131.187 81.0344V82.7861H137.967V85.2887H131.187V87.0404C131.187 87.8746 131.384 88.4965 131.778 88.906C132.188 89.3003 132.81 89.4975 133.644 89.4975H139.013V92H133.644ZM149.256 92.273C148.164 92.273 147.247 92.1517 146.503 91.909C145.775 91.6663 145.161 91.3327 144.661 90.908C144.16 90.4833 143.644 89.9146 143.114 89.2017L145.275 87.4044C145.897 88.269 146.496 88.8832 147.072 89.2472C147.664 89.5961 148.392 89.7705 149.256 89.7705C150.454 89.7705 151.326 89.5961 151.872 89.2472C152.418 88.8984 152.691 88.3372 152.691 87.5637C152.691 87.1694 152.563 86.8508 152.305 86.6082C152.047 86.3503 151.599 86.1153 150.962 85.9029C150.341 85.6906 149.408 85.4555 148.164 85.1977C146.708 84.8943 145.624 84.3559 144.911 83.5824C144.213 82.7937 143.864 81.7472 143.864 80.4428C143.864 79.5025 144.099 78.6835 144.57 77.9858C145.055 77.2881 145.737 76.7497 146.617 76.3705C147.497 75.9914 148.521 75.8018 149.688 75.8018C151.205 75.8018 152.411 76.0293 153.306 76.4843C154.201 76.9241 154.929 77.5763 155.49 78.4408L153.374 80.1698C152.904 79.6997 152.509 79.3433 152.191 79.1006C151.888 78.8427 151.539 78.6456 151.144 78.5091C150.75 78.3726 150.265 78.3043 149.688 78.3043C148.824 78.3043 148.172 78.4939 147.732 78.8731C147.292 79.2522 147.072 79.7983 147.072 80.5111C147.072 81.1784 147.353 81.6714 147.914 81.9899C148.475 82.2932 149.196 82.5435 150.075 82.7406C151.38 83.0136 152.418 83.2942 153.192 83.5824C153.965 83.8706 154.61 84.3331 155.126 84.9702C155.641 85.6072 155.899 86.4793 155.899 87.5864C155.899 89.1638 155.346 90.3392 154.238 91.1127C153.146 91.8862 151.486 92.273 149.256 92.273ZM162.287 92.273C161.787 92.273 161.362 92.1062 161.013 91.7725C160.664 91.4237 160.49 91.0066 160.49 90.5212C160.49 90.0359 160.664 89.6188 161.013 89.27C161.362 88.906 161.787 88.724 162.287 88.724C162.757 88.724 163.167 88.906 163.516 89.27C163.865 89.6188 164.039 90.0359 164.039 90.5212C164.039 91.0066 163.865 91.4237 163.516 91.7725C163.182 92.1062 162.773 92.273 162.287 92.273ZM178.597 76.0748H181.805V92H178.597V76.0748ZM206.075 88.2917H199.842L198.772 92H195.565L199.455 79.3053C199.728 78.3953 200.016 77.6901 200.319 77.1896C200.623 76.689 200.979 76.3326 201.389 76.1203C201.813 75.908 202.337 75.8018 202.958 75.8018C203.58 75.8018 204.096 75.908 204.505 76.1203C204.915 76.3326 205.271 76.689 205.575 77.1896C205.893 77.6901 206.189 78.3953 206.462 79.3053L210.352 92H207.144L206.075 88.2917ZM205.37 85.9029L203.459 79.3508C203.353 78.9565 203.186 78.7593 202.958 78.7593C202.731 78.7593 202.564 78.9565 202.458 79.3508L200.547 85.9029H205.37ZM215.253 76.0748H216.914C217.748 76.0748 218.416 76.1885 218.916 76.416C219.417 76.6435 219.849 77.0076 220.213 77.5081C220.577 77.9934 221.002 78.729 221.487 79.7148L222.806 82.3766L224.126 79.7148C224.611 78.729 225.036 77.9934 225.4 77.5081C225.764 77.0076 226.196 76.6435 226.697 76.416C227.197 76.1885 227.865 76.0748 228.699 76.0748H230.36V92H227.448V79.4191C227.266 79.4191 227.114 79.5025 226.993 79.6693C226.871 79.8362 226.689 80.1319 226.447 80.5566L222.806 87.3134L219.166 80.5566C218.924 80.1319 218.742 79.8362 218.62 79.6693C218.499 79.5025 218.347 79.4115 218.165 79.3963V92H215.253V76.0748ZM251.5 92.273C249.362 92.273 247.731 91.7877 246.609 90.817C245.487 89.8311 244.926 88.3827 244.926 86.4717V81.6031C244.926 79.6921 245.487 78.2512 246.609 77.2806C247.731 76.2947 249.362 75.8018 251.5 75.8018C252.987 75.8018 254.2 76.052 255.14 76.5525C256.096 77.0379 256.854 77.7735 257.416 78.7593L255.118 80.3518C254.648 79.6238 254.155 79.1006 253.639 78.7821C253.138 78.4636 252.426 78.3043 251.5 78.3043C250.333 78.3043 249.476 78.5849 248.93 79.1461C248.399 79.6921 248.133 80.5111 248.133 81.6031V86.4717C248.133 87.5637 248.399 88.3903 248.93 88.9515C249.476 89.4975 250.333 89.7705 251.5 89.7705C252.501 89.7705 253.275 89.6036 253.821 89.27C254.382 88.9211 254.883 88.3675 255.322 87.6092L257.598 89.2927C257.112 89.9904 256.612 90.5516 256.096 90.9762C255.58 91.4009 254.951 91.727 254.208 91.9545C253.48 92.1668 252.577 92.273 251.5 92.273ZM268.42 92.273C266.312 92.273 264.697 91.7877 263.574 90.817C262.467 89.8311 261.914 88.3827 261.914 86.4717V81.6031C261.914 79.6921 262.467 78.2512 263.574 77.2806C264.697 76.2947 266.312 75.8018 268.42 75.8018C270.528 75.8018 272.136 76.2947 273.243 77.2806C274.366 78.2512 274.927 79.6921 274.927 81.6031V86.4717C274.927 88.3827 274.366 89.8311 273.243 90.817C272.136 91.7877 270.528 92.273 268.42 92.273ZM268.42 89.7705C269.482 89.7705 270.293 89.4899 270.855 88.9287C271.431 88.3524 271.719 87.5334 271.719 86.4717V81.6031C271.719 80.5414 271.431 79.73 270.855 79.1688C270.293 78.5925 269.482 78.3043 268.42 78.3043C267.359 78.3043 266.54 78.5925 265.963 79.1688C265.402 79.73 265.121 80.5414 265.121 81.6031V86.4717C265.121 87.5334 265.402 88.3524 265.963 88.9287C266.54 89.4899 267.359 89.7705 268.42 89.7705ZM280.606 76.0748H282.267C283.101 76.0748 283.769 76.1885 284.269 76.416C284.77 76.6435 285.202 77.0076 285.566 77.5081C285.93 77.9934 286.355 78.729 286.84 79.7148L288.159 82.3766L289.479 79.7148C289.964 78.729 290.389 77.9934 290.753 77.5081C291.117 77.0076 291.549 76.6435 292.05 76.416C292.55 76.1885 293.218 76.0748 294.052 76.0748H295.712V92H292.8V79.4191C292.618 79.4191 292.467 79.5025 292.345 79.6693C292.224 79.8362 292.042 80.1319 291.799 80.5566L288.159 87.3134L284.519 80.5566C284.277 80.1319 284.095 79.8362 283.973 79.6693C283.852 79.5025 283.7 79.4115 283.518 79.3963V92H280.606V76.0748ZM302.082 76.0748H303.743C304.577 76.0748 305.244 76.1885 305.745 76.416C306.245 76.6435 306.678 77.0076 307.042 77.5081C307.406 77.9934 307.83 78.729 308.316 79.7148L309.635 82.3766L310.955 79.7148C311.44 78.729 311.865 77.9934 312.229 77.5081C312.593 77.0076 313.025 76.6435 313.526 76.416C314.026 76.1885 314.693 76.0748 315.528 76.0748H317.188V92H314.276V79.4191C314.094 79.4191 313.943 79.5025 313.821 79.6693C313.7 79.8362 313.518 80.1319 313.275 80.5566L309.635 87.3134L305.995 80.5566C305.753 80.1319 305.571 79.8362 305.449 79.6693C305.328 79.5025 305.176 79.4115 304.994 79.3963V92H302.082V76.0748ZM323.558 76.0748H326.766V92H323.558V76.0748ZM336.447 78.5773H331.647V76.0748H344.455V78.5773H339.655V92H336.447V78.5773ZM352.658 78.5773H347.857V76.0748H360.666V78.5773H355.865V92H352.658V78.5773ZM370.039 92C368.022 92 366.573 91.5753 365.694 90.726C364.814 89.8766 364.374 88.6481 364.374 87.0404V81.0344C364.374 79.4267 364.814 78.1982 365.694 77.3488C366.573 76.4995 368.022 76.0748 370.039 76.0748H375.363V78.5773H370.039C369.205 78.5773 368.583 78.7745 368.174 79.1688C367.779 79.5632 367.582 80.185 367.582 81.0344V82.7861H374.362V85.2887H367.582V87.0404C367.582 87.8746 367.779 88.4965 368.174 88.906C368.583 89.3003 369.205 89.4975 370.039 89.4975H375.408V92H370.039ZM380.646 76.0748H386.561C388.351 76.0748 389.762 76.3326 390.793 76.8483C391.839 77.364 392.59 78.1982 393.045 79.3508C393.515 80.4883 393.75 82.0505 393.75 84.0374C393.75 86.0243 393.515 87.594 393.045 88.7467C392.59 89.8842 391.839 90.7108 390.793 91.2265C389.762 91.7422 388.351 92 386.561 92H380.646V76.0748ZM386.561 89.4975C387.562 89.4975 388.351 89.323 388.927 88.9742C389.504 88.6254 389.913 88.0566 390.156 87.2679C390.414 86.4793 390.543 85.4024 390.543 84.0374C390.543 82.6724 390.414 81.5955 390.156 80.8069C389.913 80.0182 389.504 79.4494 388.927 79.1006C388.351 78.7517 387.562 78.5773 386.561 78.5773H383.854V89.4975H386.561ZM411.523 78.5773H406.723V76.0748H419.531V78.5773H414.731V92H411.523V78.5773ZM429.325 92.273C427.217 92.273 425.602 91.7877 424.48 90.817C423.372 89.8311 422.819 88.3827 422.819 86.4717V81.6031C422.819 79.6921 423.372 78.2512 424.48 77.2806C425.602 76.2947 427.217 75.8018 429.325 75.8018C431.434 75.8018 433.041 76.2947 434.148 77.2806C435.271 78.2512 435.832 79.6921 435.832 81.6031V86.4717C435.832 88.3827 435.271 89.8311 434.148 90.817C433.041 91.7877 431.434 92.273 429.325 92.273ZM429.325 89.7705C430.387 89.7705 431.198 89.4899 431.76 88.9287C432.336 88.3524 432.624 87.5334 432.624 86.4717V81.6031C432.624 80.5414 432.336 79.73 431.76 79.1688C431.198 78.5925 430.387 78.3043 429.325 78.3043C428.264 78.3043 427.445 78.5925 426.868 79.1688C426.307 79.73 426.027 80.5414 426.027 81.6031V86.4717C426.027 87.5334 426.307 88.3524 426.868 88.9287C427.445 89.4899 428.264 89.7705 429.325 89.7705ZM450.39 76.0748H456.305C458.095 76.0748 459.505 76.3326 460.537 76.8483C461.583 77.364 462.334 78.1982 462.789 79.3508C463.259 80.4883 463.494 82.0505 463.494 84.0374C463.494 86.0243 463.259 87.594 462.789 88.7467C462.334 89.8842 461.583 90.7108 460.537 91.2265C459.505 91.7422 458.095 92 456.305 92H450.39V76.0748ZM456.305 89.4975C457.306 89.4975 458.095 89.323 458.671 88.9742C459.248 88.6254 459.657 88.0566 459.9 87.2679C460.158 86.4793 460.287 85.4024 460.287 84.0374C460.287 82.6724 460.158 81.5955 459.9 80.8069C459.657 80.0182 459.248 79.4494 458.671 79.1006C458.095 78.7517 457.306 78.5773 456.305 78.5773H453.598V89.4975H456.305ZM474.004 92C471.986 92 470.538 91.5753 469.658 90.726C468.779 89.8766 468.339 88.6481 468.339 87.0404V81.0344C468.339 79.4267 468.779 78.1982 469.658 77.3488C470.538 76.4995 471.986 76.0748 474.004 76.0748H479.327V78.5773H474.004C473.169 78.5773 472.548 78.7745 472.138 79.1688C471.744 79.5632 471.546 80.185 471.546 81.0344V82.7861H478.326V85.2887H471.546V87.0404C471.546 87.8746 471.744 88.4965 472.138 88.906C472.548 89.3003 473.169 89.4975 474.004 89.4975H479.373V92H474.004ZM489.479 92C487.538 92 486.143 91.5753 485.293 90.726C484.459 89.8766 484.042 88.6481 484.042 87.0404V76.0748H487.25V87.0404C487.25 87.8746 487.432 88.4965 487.796 88.906C488.16 89.3003 488.721 89.4975 489.479 89.4975H494.575V92H489.479ZM499.577 76.0748H502.785V92H499.577V76.0748ZM514.855 92.273C514.233 92.273 513.71 92.1668 513.285 91.9545C512.876 91.7422 512.512 91.3857 512.193 90.8852C511.89 90.3696 511.609 89.6643 511.351 88.7695L507.666 76.0748H510.874L514.354 88.724C514.461 89.1183 514.627 89.3155 514.855 89.3155C515.082 89.3155 515.249 89.1183 515.355 88.724L518.836 76.0748H522.044L518.358 88.7695C518.101 89.6643 517.812 90.3696 517.494 90.8852C517.191 91.3857 516.827 91.7422 516.402 91.9545C515.992 92.1668 515.477 92.273 514.855 92.273ZM531.425 92C529.408 92 527.959 91.5753 527.08 90.726C526.2 89.8766 525.76 88.6481 525.76 87.0404V81.0344C525.76 79.4267 526.2 78.1982 527.08 77.3488C527.959 76.4995 529.408 76.0748 531.425 76.0748H536.748V78.5773H531.425C530.591 78.5773 529.969 78.7745 529.559 79.1688C529.165 79.5632 528.968 80.185 528.968 81.0344V82.7861H535.747V85.2887H528.968V87.0404C528.968 87.8746 529.165 88.4965 529.559 88.906C529.969 89.3003 530.591 89.4975 531.425 89.4975H536.794V92H531.425ZM554.931 92H551.542L550.495 88.4737C550.283 87.7457 550.07 87.1845 549.858 86.7902C549.646 86.3807 549.358 86.0698 548.994 85.8574C548.63 85.6451 548.144 85.5389 547.538 85.5389H545.24V92H542.032V76.0748H548.47C550.412 76.0748 551.845 76.4615 552.77 77.2351C553.695 77.9934 554.158 79.184 554.158 80.8069C554.158 81.8534 553.877 82.6951 553.316 83.3321C552.77 83.9691 552.012 84.3786 551.041 84.5607C551.815 84.8185 552.399 85.2659 552.793 85.9029C553.187 86.5399 553.551 87.4044 553.885 88.4965L554.931 92ZM548.561 83.0364C549.259 83.0364 549.828 82.8544 550.268 82.4904C550.723 82.1112 550.95 81.55 550.95 80.8069C550.95 80.0637 550.723 79.5101 550.268 79.1461C549.828 78.7669 549.259 78.5773 548.561 78.5773H545.24V83.0364H548.561ZM560.042 76.0748H563.25V92H560.042V76.0748ZM582.714 76.0748V88.2462C582.714 89.4747 582.464 90.4075 581.963 91.0445C581.463 91.6815 580.659 92 579.552 92H577.299L572.613 81.1481V92H569.61V76.0748H573.227L579.006 89.27H579.051C579.309 89.27 579.483 89.1638 579.574 88.9515C579.665 88.724 579.711 88.322 579.711 87.7457V76.0748H582.714ZM594.826 92.273C592.657 92.273 590.996 91.7877 589.843 90.817C588.706 89.8311 588.137 88.3827 588.137 86.4717V81.6031C588.137 79.6921 588.706 78.2512 589.843 77.2806C590.996 76.2947 592.657 75.8018 594.826 75.8018C596.388 75.8018 597.662 76.052 598.648 76.5525C599.649 77.0531 600.437 77.7962 601.014 78.7821L598.579 80.4428C598.109 79.6845 597.609 79.1385 597.078 78.8048C596.547 78.4712 595.796 78.3043 594.826 78.3043C593.612 78.3043 592.725 78.5849 592.164 79.1461C591.618 79.6921 591.345 80.5111 591.345 81.6031V86.4717C591.345 87.5637 591.618 88.3903 592.164 88.9515C592.725 89.4975 593.612 89.7705 594.826 89.7705C595.887 89.7705 596.691 89.5961 597.237 89.2472C597.798 88.8832 598.079 88.36 598.079 87.6774V86.9722C598.079 86.0318 597.647 85.5617 596.782 85.5617H594.189V83.0591H597.692C598.905 83.0591 599.8 83.3397 600.377 83.9009C600.953 84.4621 601.241 85.3342 601.241 86.5172V87.9049C601.241 89.27 600.665 90.3392 599.512 91.1127C598.359 91.8862 596.797 92.273 594.826 92.273ZM615.531 76.0748H618.738V82.7634H624.927V76.0748H628.134V92H624.927V85.2659H618.738V92H615.531V76.0748ZM634.496 76.0748H637.704V92H634.496V76.0748ZM650.07 92.273C647.901 92.273 646.24 91.7877 645.087 90.817C643.95 89.8311 643.381 88.3827 643.381 86.4717V81.6031C643.381 79.6921 643.95 78.2512 645.087 77.2806C646.24 76.2947 647.901 75.8018 650.07 75.8018C651.632 75.8018 652.906 76.052 653.892 76.5525C654.893 77.0531 655.681 77.7962 656.258 78.7821L653.823 80.4428C653.353 79.6845 652.853 79.1385 652.322 78.8048C651.791 78.4712 651.04 78.3043 650.07 78.3043C648.856 78.3043 647.969 78.5849 647.408 79.1461C646.862 79.6921 646.589 80.5111 646.589 81.6031V86.4717C646.589 87.5637 646.862 88.3903 647.408 88.9515C647.969 89.4975 648.856 89.7705 650.07 89.7705C651.131 89.7705 651.935 89.5961 652.481 89.2472C653.042 88.8832 653.323 88.36 653.323 87.6774V86.9722C653.323 86.0318 652.891 85.5617 652.026 85.5617H649.433V83.0591H652.936C654.15 83.0591 655.044 83.3397 655.621 83.9009C656.197 84.4621 656.485 85.3342 656.485 86.5172V87.9049C656.485 89.27 655.909 90.3392 654.756 91.1127C653.604 91.8862 652.041 92.273 650.07 92.273ZM661.896 76.0748H665.104V82.7634H671.292V76.0748H674.5V92H671.292V85.2659H665.104V92H661.896V76.0748ZM702.071 86.4717C702.071 87.9429 701.737 89.141 701.07 90.0662C700.418 90.9762 699.447 91.6057 698.158 91.9545C698.855 92.6067 700.023 92.9328 701.661 92.9328V95.6173C699.902 95.6173 698.491 95.3443 697.43 94.7983C696.368 94.2523 695.579 93.4105 695.064 92.273C693.122 92.1972 691.636 91.6739 690.605 90.7032C689.573 89.7174 689.058 88.3069 689.058 86.4717V81.6031C689.058 79.6921 689.611 78.2512 690.718 77.2806C691.841 76.2947 693.456 75.8018 695.564 75.8018C697.672 75.8018 699.28 76.2947 700.387 77.2806C701.51 78.2512 702.071 79.6921 702.071 81.6031V86.4717ZM698.863 81.6031C698.863 80.5414 698.575 79.73 697.999 79.1688C697.437 78.5925 696.626 78.3043 695.564 78.3043C694.503 78.3043 693.684 78.5925 693.107 79.1688C692.546 79.73 692.265 80.5414 692.265 81.6031V86.4717C692.265 87.5334 692.546 88.3524 693.107 88.9287C693.684 89.4899 694.503 89.7705 695.564 89.7705C696.626 89.7705 697.437 89.4899 697.999 88.9287C698.575 88.3524 698.863 87.5334 698.863 86.4717V81.6031ZM713.483 92.2958C711.405 92.2958 709.836 91.8559 708.774 90.9762C707.712 90.0814 707.181 88.8453 707.181 87.2679V76.0748H710.389V87.2679C710.389 88.9515 711.421 89.7932 713.483 89.7932C715.546 89.7932 716.577 88.9515 716.577 87.2679V76.0748H719.785V87.2679C719.785 88.8453 719.254 90.0814 718.193 90.9762C717.131 91.8559 715.561 92.2958 713.483 92.2958ZM734.17 88.2917H727.936L726.867 92H723.659L727.55 79.3053C727.823 78.3953 728.111 77.6901 728.414 77.1896C728.718 76.689 729.074 76.3326 729.483 76.1203C729.908 75.908 730.431 75.8018 731.053 75.8018C731.675 75.8018 732.191 75.908 732.6 76.1203C733.01 76.3326 733.366 76.689 733.67 77.1896C733.988 77.6901 734.284 78.3953 734.557 79.3053L738.447 92H735.239L734.17 88.2917ZM733.465 85.9029L731.554 79.3508C731.448 78.9565 731.281 78.7593 731.053 78.7593C730.826 78.7593 730.659 78.9565 730.553 79.3508L728.642 85.9029H733.465ZM747.772 92C745.831 92 744.436 91.5753 743.586 90.726C742.752 89.8766 742.335 88.6481 742.335 87.0404V76.0748H745.543V87.0404C745.543 87.8746 745.725 88.4965 746.089 88.906C746.453 89.3003 747.014 89.4975 747.772 89.4975H752.868V92H747.772ZM757.87 76.0748H761.078V92H757.87V76.0748ZM770.759 78.5773H765.959V76.0748H778.767V78.5773H773.967V92H770.759V78.5773ZM786.947 85.1749L781.714 76.0748H785.286L788.631 82.2401L791.907 76.0748H795.501L790.155 85.1749V92H786.947V85.1749ZM20.4753 113.075L16.8352 129H15.948C15.0683 129 14.3706 128.894 13.8549 128.681C13.3544 128.469 12.9373 128.113 12.6037 127.612C12.27 127.112 11.9363 126.361 11.6027 125.36L10.4879 122.038L9.39587 125.36C9.07737 126.331 8.7437 127.074 8.39486 127.589C8.04602 128.105 7.61377 128.469 7.09809 128.681C6.58242 128.894 5.89991 129 5.05057 129H4.1633L0.523257 113.075H3.5263L6.41558 125.86C6.55209 125.694 6.70375 125.375 6.87059 124.905L10.4879 114.758L14.1279 124.905C14.2948 125.375 14.4464 125.694 14.5829 125.86L17.4722 113.075H20.4753ZM30.8112 129.273C28.703 129.273 27.0877 128.788 25.9654 127.817C24.8582 126.831 24.3046 125.383 24.3046 123.472V118.603C24.3046 116.692 24.8582 115.251 25.9654 114.281C27.0877 113.295 28.703 112.802 30.8112 112.802C32.9194 112.802 34.5271 113.295 35.6343 114.281C36.7566 115.251 37.3178 116.692 37.3178 118.603V123.472C37.3178 125.383 36.7566 126.831 35.6343 127.817C34.5271 128.788 32.9194 129.273 30.8112 129.273ZM30.8112 126.77C31.8729 126.77 32.6843 126.49 33.2455 125.929C33.8218 125.352 34.11 124.533 34.11 123.472V118.603C34.11 117.541 33.8218 116.73 33.2455 116.169C32.6843 115.592 31.8729 115.304 30.8112 115.304C29.7495 115.304 28.9305 115.592 28.3542 116.169C27.793 116.73 27.5124 117.541 27.5124 118.603V123.472C27.5124 124.533 27.793 125.352 28.3542 125.929C28.9305 126.49 29.7495 126.77 30.8112 126.77ZM55.8966 129H52.5068L51.4603 125.474C51.248 124.746 51.0356 124.185 50.8233 123.79C50.6109 123.381 50.3228 123.07 49.9588 122.857C49.5948 122.645 49.1094 122.539 48.5027 122.539H46.205V129H42.9972V113.075H49.4355C51.3769 113.075 52.8101 113.462 53.7353 114.235C54.6605 114.993 55.1231 116.184 55.1231 117.807C55.1231 118.853 54.8425 119.695 54.2813 120.332C53.7353 120.969 52.977 121.379 52.0063 121.561C52.7798 121.818 53.3637 122.266 53.7581 122.903C54.1524 123.54 54.5164 124.404 54.8501 125.496L55.8966 129ZM49.5265 120.036C50.2242 120.036 50.7929 119.854 51.2328 119.49C51.6878 119.111 51.9153 118.55 51.9153 117.807C51.9153 117.064 51.6878 116.51 51.2328 116.146C50.7929 115.767 50.2242 115.577 49.5265 115.577H46.205V120.036H49.5265ZM68.7196 119.399C69.3869 119.566 69.9405 119.832 70.3804 120.196C70.8202 120.544 71.1994 121.007 71.5179 121.583C71.8364 122.145 72.17 122.918 72.5189 123.904L74.3389 129H71.1084L69.3793 124.222C69.167 123.631 68.9698 123.184 68.7878 122.88C68.621 122.562 68.3783 122.296 68.0598 122.084C67.7413 121.872 67.2939 121.72 66.7176 121.629L64.215 124.404V129H61.0072V113.075H64.215V120.378L70.6534 113.075H74.4299L68.7196 119.399ZM91.5954 115.577H86.7951V113.075H99.6035V115.577H94.8032V129H91.5954V115.577ZM104.484 113.075H107.692V119.763H113.88V113.075H117.088V129H113.88V122.266H107.692V129H104.484V113.075ZM132.482 125.292H126.248L125.179 129H121.971L125.861 116.305C126.134 115.395 126.422 114.69 126.726 114.19C127.029 113.689 127.385 113.333 127.795 113.12C128.22 112.908 128.743 112.802 129.365 112.802C129.987 112.802 130.502 112.908 130.912 113.12C131.321 113.333 131.678 113.689 131.981 114.19C132.3 114.69 132.595 115.395 132.868 116.305L136.759 129H133.551L132.482 125.292ZM131.776 122.903L129.865 116.351C129.759 115.956 129.592 115.759 129.365 115.759C129.137 115.759 128.97 115.956 128.864 116.351L126.953 122.903H131.776ZM142.715 115.577H137.915V113.075H150.723V115.577H145.923V129H142.715V115.577Z" fill="#394548"/>
</svg>
