<svg width="946" height="49" viewBox="0 0 946 49" fill="none" xmlns="http://www.w3.org/2000/svg">
<path d="M8.56689 48H0.977051C0.758952 48 0.649902 47.891 0.649902 47.6729L0.715332 1.64307C0.715332 1.46859 0.802572 1.38135 0.977051 1.38135H8.50146C8.67594 1.38135 8.76318 1.46859 8.76318 1.64307L8.82861 47.6729C8.82861 47.891 8.74137 48 8.56689 48ZM22.9884 0.898999C22.5864 2.46233 22.0727 4.15966 21.4474 5.991C20.822 7.82233 20.1297 9.65367 19.3704 11.485C18.6557 13.2717 17.941 14.969 17.2264 16.577H12.8714C13.184 15.3263 13.4967 13.9863 13.8094 12.557C14.1667 11.1277 14.4794 9.69833 14.7474 8.269C15.06 6.795 15.328 5.36566 15.5514 3.981C15.8194 2.59633 16.0427 1.32333 16.2214 0.161997H22.5194L22.9884 0.898999ZM34.2808 48H26.6909C26.5164 48 26.4292 47.891 26.4292 47.6729L26.5601 1.64307C26.5601 1.46859 26.6473 1.38135 26.8218 1.38135H35.0005C35.175 1.38135 35.3276 1.46859 35.4585 1.64307L41.5762 10.4761L47.6611 1.64307C47.792 1.46859 47.9556 1.38135 48.1519 1.38135H56.3633C56.5596 1.38135 56.6577 1.46859 56.6577 1.64307L56.7886 47.6729C56.7886 47.891 56.7013 48 56.5269 48H48.937C48.7625 48 48.6753 47.891 48.6753 47.6729L48.6099 13.4858L41.5762 23.6929L34.6079 13.4858L34.5425 47.6729C34.5425 47.891 34.4552 48 34.2808 48ZM77.5625 47.6729L85.8721 1.64307C85.9157 1.46859 86.0247 1.38135 86.1992 1.38135H95.9155C96.09 1.38135 96.1991 1.46859 96.2427 1.64307L104.225 47.6729C104.247 47.891 104.16 48 103.963 48H96.5371C96.319 48 96.1991 47.891 96.1772 47.6729L95.4575 42.7656H86.3301L85.6104 47.6729C85.5885 47.891 85.4795 48 85.2832 48H77.8242C77.6497 48 77.5625 47.891 77.5625 47.6729ZM90.6812 16.79L87.6714 35.6011H94.1162L91.3682 16.79L90.9756 14.3037L90.6812 16.79ZM115.708 48H109.001C108.653 48 108.478 47.8473 108.478 47.542L108.413 1.90479C108.413 1.55583 108.587 1.38135 108.936 1.38135H114.988L126.308 27.7822L125.98 1.90479C125.98 1.55583 126.177 1.38135 126.569 1.38135H133.21C133.472 1.38135 133.603 1.55583 133.603 1.90479L133.668 47.6074C133.668 47.8691 133.559 48 133.341 48H127.453L115.839 23.333L116.33 47.4766C116.33 47.8255 116.122 48 115.708 48ZM154.639 47.6729L162.948 1.64307C162.992 1.46859 163.101 1.38135 163.275 1.38135H172.992C173.166 1.38135 173.275 1.46859 173.319 1.64307L181.301 47.6729C181.323 47.891 181.236 48 181.04 48H173.613C173.395 48 173.275 47.891 173.253 47.6729L172.534 42.7656H163.406L162.687 47.6729C162.665 47.891 162.556 48 162.359 48H154.9C154.726 48 154.639 47.891 154.639 47.6729ZM167.757 16.79L164.748 35.6011H171.192L168.444 16.79L168.052 14.3037L167.757 16.79ZM196.874 48.6543C194.496 48.6543 192.304 48.0436 190.298 46.8223C188.313 45.6009 186.721 43.9761 185.521 41.9478C184.344 39.8976 183.755 37.6512 183.755 35.2085V32.1333C183.755 31.8934 183.864 31.7734 184.082 31.7734H191.606C191.781 31.7734 191.868 31.8934 191.868 32.1333V35.2085C191.868 36.6698 192.359 37.9347 193.34 39.0034C194.322 40.0503 195.5 40.5737 196.874 40.5737C198.269 40.5737 199.458 40.0394 200.439 38.9707C201.421 37.8802 201.912 36.6261 201.912 35.2085C201.912 33.5728 200.843 32.1442 198.706 30.9229C198.357 30.7048 197.899 30.443 197.332 30.1377C196.786 29.8105 196.132 29.4398 195.369 29.0254C194.605 28.611 193.864 28.2075 193.144 27.8149C192.424 27.4006 191.726 27.008 191.05 26.6372C188.608 25.1978 186.786 23.3984 185.587 21.2393C184.409 19.0583 183.82 16.6156 183.82 13.9111C183.82 11.4248 184.431 9.17839 185.652 7.17188C186.874 5.18717 188.466 3.61686 190.429 2.46094C192.413 1.2832 194.562 0.694336 196.874 0.694336C199.251 0.694336 201.432 1.2832 203.417 2.46094C205.401 3.66048 206.982 5.2526 208.16 7.2373C209.36 9.22201 209.959 11.4466 209.959 13.9111V19.4072C209.959 19.5817 209.872 19.6689 209.698 19.6689H202.173C201.999 19.6689 201.912 19.5817 201.912 19.4072L201.846 13.9111C201.846 12.3408 201.355 11.0649 200.374 10.0835C199.393 9.10205 198.226 8.61133 196.874 8.61133C195.5 8.61133 194.322 9.13477 193.34 10.1816C192.359 11.2285 191.868 12.4717 191.868 13.9111C191.868 15.3724 192.174 16.5938 192.784 17.5752C193.417 18.5566 194.562 19.4945 196.219 20.3887C196.394 20.4759 196.797 20.694 197.43 21.043C198.062 21.3919 198.76 21.7845 199.523 22.2207C200.309 22.6351 201.017 23.0168 201.65 23.3657C202.282 23.6929 202.664 23.8892 202.795 23.9546C205.02 25.1978 206.775 26.7244 208.062 28.5347C209.371 30.3449 210.025 32.5695 210.025 35.2085C210.025 37.7603 209.436 40.0503 208.258 42.0786C207.059 44.1069 205.467 45.71 203.482 46.8877C201.497 48.0654 199.294 48.6543 196.874 48.6543ZM222.522 48H214.998C214.779 48 214.67 47.891 214.67 47.6729L214.801 1.64307C214.801 1.46859 214.889 1.38135 215.063 1.38135H227.953C232.053 1.38135 235.292 2.63542 237.669 5.14355C240.068 7.62988 241.268 11.0213 241.268 15.3179C241.268 18.4585 240.646 21.1956 239.403 23.5293C238.138 25.8411 236.502 27.6296 234.496 28.8945C232.489 30.1595 230.308 30.792 227.953 30.792H222.849V47.6729C222.849 47.891 222.74 48 222.522 48ZM227.953 9.33105L222.849 9.39648V22.6787H227.953C229.37 22.6787 230.603 22.0026 231.649 20.6504C232.696 19.2764 233.22 17.4989 233.22 15.3179C233.22 13.5731 232.751 12.1445 231.813 11.0322C230.875 9.89811 229.588 9.33105 227.953 9.33105ZM253.208 48H245.619C245.401 48 245.292 47.891 245.292 47.6729L245.357 1.64307C245.357 1.46859 245.444 1.38135 245.619 1.38135H253.143C253.318 1.38135 253.405 1.46859 253.405 1.64307L253.47 47.6729C253.47 47.891 253.383 48 253.208 48ZM267.21 48H259.621C259.446 48 259.359 47.891 259.359 47.6729L259.49 1.64307C259.49 1.46859 259.577 1.38135 259.751 1.38135H273.295C275.716 1.38135 277.941 1.97021 279.969 3.14795C281.998 4.32568 283.611 5.9069 284.811 7.8916C286.032 9.8763 286.643 12.1227 286.643 14.6309C286.643 16.2666 286.392 17.7497 285.891 19.0801C285.389 20.4105 284.8 21.5337 284.124 22.4497C283.47 23.3657 282.87 24.0418 282.325 24.478C284.746 27.1606 285.956 30.3122 285.956 33.9326L286.021 47.6729C286.021 47.891 285.912 48 285.694 48H278.104C277.93 48 277.843 47.9346 277.843 47.8037V33.9326C277.843 32.3187 277.276 30.9229 276.142 29.7451C275.007 28.5674 273.612 27.9785 271.954 27.9785H267.538L267.472 47.6729C267.472 47.891 267.385 48 267.21 48ZM273.295 9.39648H267.538V19.9307H273.295C274.669 19.9307 275.891 19.4181 276.959 18.3931C278.05 17.368 278.595 16.1139 278.595 14.6309C278.595 13.2132 278.072 11.9919 277.025 10.9668C275.978 9.91992 274.735 9.39648 273.295 9.39648ZM299.598 48H292.008C291.79 48 291.681 47.891 291.681 47.6729L291.747 1.64307C291.747 1.46859 291.834 1.38135 292.008 1.38135H299.533C299.707 1.38135 299.794 1.46859 299.794 1.64307L299.86 47.6729C299.86 47.891 299.773 48 299.598 48ZM313.044 48H306.337C305.988 48 305.814 47.8473 305.814 47.542L305.749 1.90479C305.749 1.55583 305.923 1.38135 306.272 1.38135H312.324L323.644 27.7822L323.316 1.90479C323.316 1.55583 323.513 1.38135 323.905 1.38135H330.546C330.808 1.38135 330.939 1.55583 330.939 1.90479L331.004 47.6074C331.004 47.8691 330.895 48 330.677 48H324.789L313.175 23.333L313.666 47.4766C313.666 47.8255 313.458 48 313.044 48ZM349.096 48.6543C346.675 48.6543 344.494 48.0545 342.553 46.855C340.59 45.6554 339.009 44.0415 337.809 42.0132C336.631 39.9849 336.042 37.7166 336.042 35.2085V13.9766C336.042 11.5339 336.642 9.30924 337.842 7.30273C339.02 5.27441 340.601 3.66048 342.585 2.46094C344.57 1.23958 346.74 0.628906 349.096 0.628906C351.56 0.628906 353.785 1.21777 355.77 2.39551C357.754 3.59505 359.325 5.19808 360.48 7.20459C361.658 9.2111 362.247 11.4684 362.247 13.9766V17.0518C362.247 17.2262 362.138 17.3135 361.92 17.3135H354.396C354.221 17.3135 354.134 17.2262 354.134 17.0518V14.5C354.134 12.7988 353.654 11.3921 352.694 10.2798C351.735 9.16748 350.535 8.61133 349.096 8.61133C347.809 8.61133 346.664 9.14567 345.661 10.2144C344.657 11.283 344.156 12.5371 344.156 13.9766V35.2085C344.156 36.6698 344.646 37.9347 345.628 39.0034C346.609 40.0503 347.765 40.5737 349.096 40.5737C350.535 40.5737 351.735 40.0612 352.694 39.0361C353.654 37.9893 354.134 36.7134 354.134 35.2085V31.9043H349.456C349.216 31.9043 349.096 31.7952 349.096 31.5771V24.0854C349.096 23.8674 349.216 23.7583 349.456 23.7583H361.985C362.16 23.7583 362.247 23.8674 362.247 24.0854V35.2085C362.247 37.7166 361.658 39.9849 360.48 42.0132C359.281 44.0415 357.7 45.6554 355.737 46.855C353.774 48.0545 351.56 48.6543 349.096 48.6543ZM396.729 48.6543C394.373 48.6543 392.192 48.0436 390.186 46.8223C388.179 45.6009 386.576 43.9652 385.376 41.915C384.199 39.8431 383.61 37.5858 383.61 35.1431L383.741 1.64307C383.741 1.46859 383.828 1.38135 384.002 1.38135H391.527C391.701 1.38135 391.789 1.46859 391.789 1.64307V35.1431C391.789 36.6479 392.268 37.9347 393.228 39.0034C394.188 40.0503 395.354 40.5737 396.729 40.5737C398.168 40.5737 399.368 40.0503 400.327 39.0034C401.287 37.9347 401.767 36.6479 401.767 35.1431V1.64307C401.767 1.46859 401.854 1.38135 402.028 1.38135H409.553C409.727 1.38135 409.814 1.46859 409.814 1.64307L409.945 35.1431C409.945 37.6076 409.356 39.8758 408.179 41.9478C406.979 43.9979 405.387 45.6336 403.402 46.855C401.418 48.0545 399.193 48.6543 396.729 48.6543ZM423.129 48H415.54C415.321 48 415.212 47.891 415.212 47.6729L415.278 1.64307C415.278 1.46859 415.365 1.38135 415.54 1.38135H423.064C423.238 1.38135 423.326 1.46859 423.326 1.64307L423.391 47.6729C423.391 47.891 423.304 48 423.129 48ZM479.879 48L476.931 44.717C473.224 47.4417 468.623 48.804 463.129 48.804C458.037 48.804 453.995 47.5757 451.002 45.119C448.01 42.6623 446.513 39.357 446.513 35.203C446.513 32.121 447.34 29.5973 448.992 27.632C450.69 25.622 453.146 23.7237 456.362 21.937C454.576 19.8823 453.213 18.0287 452.275 16.376C451.382 14.6787 450.935 12.9367 450.935 11.15C450.935 7.84467 452.074 5.23166 454.352 3.311C456.63 1.34566 459.69 0.362998 463.531 0.362998C467.373 0.362998 470.432 1.34566 472.71 3.311C475.033 5.27633 476.194 7.88933 476.194 11.15C476.194 13.7853 475.502 16.0187 474.117 17.85C472.733 19.6367 470.41 21.5127 467.149 23.478L476.462 33.796C477.847 30.9373 478.763 27.4533 479.209 23.344H487.115C486.49 29.9547 484.703 35.404 481.755 39.692L489.259 48H479.879ZM463.531 6.527C462.147 6.527 461.008 6.95133 460.114 7.8C459.266 8.64866 458.841 9.76533 458.841 11.15C458.841 12.356 459.132 13.495 459.712 14.567C460.293 15.639 461.253 16.9343 462.593 18.453C464.603 17.2917 466.055 16.175 466.948 15.103C467.842 14.031 468.288 12.7133 468.288 11.15C468.288 9.76533 467.842 8.64866 466.948 7.8C466.1 6.95133 464.961 6.527 463.531 6.527ZM463.129 42.573C466.703 42.573 469.718 41.5233 472.174 39.424L460.918 26.962C458.685 28.2573 457.032 29.4857 455.96 30.647C454.933 31.8083 454.419 33.327 454.419 35.203C454.419 37.4363 455.201 39.223 456.764 40.563C458.328 41.903 460.449 42.573 463.129 42.573ZM523.073 48.6543C520.652 48.6543 518.471 48.0545 516.53 46.855C514.567 45.6554 512.986 44.0415 511.787 42.0132C510.609 39.9849 510.02 37.7166 510.02 35.2085V13.9766C510.02 11.5339 510.62 9.30924 511.819 7.30273C512.997 5.27441 514.578 3.66048 516.563 2.46094C518.548 1.23958 520.718 0.628906 523.073 0.628906C525.538 0.628906 527.762 1.21777 529.747 2.39551C531.732 3.59505 533.302 5.19808 534.458 7.20459C535.636 9.2111 536.225 11.4684 536.225 13.9766V17.0518C536.225 17.2262 536.116 17.3135 535.897 17.3135H528.373C528.199 17.3135 528.111 17.2262 528.111 17.0518V14.5C528.111 12.7988 527.632 11.3921 526.672 10.2798C525.712 9.16748 524.513 8.61133 523.073 8.61133C521.786 8.61133 520.641 9.14567 519.638 10.2144C518.635 11.283 518.133 12.5371 518.133 13.9766V35.2085C518.133 36.6698 518.624 37.9347 519.605 39.0034C520.587 40.0503 521.743 40.5737 523.073 40.5737C524.513 40.5737 525.712 40.0612 526.672 39.0361C527.632 37.9893 528.111 36.7134 528.111 35.2085V31.9043H523.433C523.193 31.9043 523.073 31.7952 523.073 31.5771V24.0854C523.073 23.8674 523.193 23.7583 523.433 23.7583H535.963C536.137 23.7583 536.225 23.8674 536.225 24.0854V35.2085C536.225 37.7166 535.636 39.9849 534.458 42.0132C533.258 44.0415 531.677 45.6554 529.714 46.855C527.751 48.0545 525.538 48.6543 523.073 48.6543ZM548.82 48H541.23C541.056 48 540.968 47.891 540.968 47.6729L541.099 1.64307C541.099 1.46859 541.186 1.38135 541.361 1.38135H554.905C557.326 1.38135 559.55 1.97021 561.579 3.14795C563.607 4.32568 565.221 5.9069 566.42 7.8916C567.642 9.8763 568.252 12.1227 568.252 14.6309C568.252 16.2666 568.002 17.7497 567.5 19.0801C566.998 20.4105 566.41 21.5337 565.733 22.4497C565.079 23.3657 564.479 24.0418 563.934 24.478C566.355 27.1606 567.565 30.3122 567.565 33.9326L567.631 47.6729C567.631 47.891 567.522 48 567.304 48H559.714C559.539 48 559.452 47.9346 559.452 47.8037V33.9326C559.452 32.3187 558.885 30.9229 557.751 29.7451C556.617 28.5674 555.221 27.9785 553.563 27.9785H549.147L549.082 47.6729C549.082 47.891 548.994 48 548.82 48ZM554.905 9.39648H549.147V19.9307H554.905C556.279 19.9307 557.5 19.4181 558.569 18.3931C559.659 17.368 560.205 16.1139 560.205 14.6309C560.205 13.2132 559.681 11.9919 558.634 10.9668C557.587 9.91992 556.344 9.39648 554.905 9.39648ZM571.033 47.6729L579.343 1.64307C579.386 1.46859 579.495 1.38135 579.67 1.38135H589.386C589.561 1.38135 589.67 1.46859 589.713 1.64307L597.696 47.6729C597.718 47.891 597.63 48 597.434 48H590.008C589.79 48 589.67 47.891 589.648 47.6729L588.928 42.7656H579.801L579.081 47.6729C579.059 47.891 578.95 48 578.754 48H571.295C571.12 48 571.033 47.891 571.033 47.6729ZM584.152 16.79L581.142 35.6011H587.587L584.839 16.79L584.446 14.3037L584.152 16.79ZM609.735 48H602.21C601.992 48 601.883 47.891 601.883 47.6729L602.014 1.64307C602.014 1.46859 602.101 1.38135 602.276 1.38135H615.166C619.266 1.38135 622.505 2.63542 624.882 5.14355C627.281 7.62988 628.48 11.0213 628.48 15.3179C628.48 18.4585 627.859 21.1956 626.616 23.5293C625.351 25.8411 623.715 27.6296 621.708 28.8945C619.702 30.1595 617.521 30.792 615.166 30.792H610.062V47.6729C610.062 47.891 609.953 48 609.735 48ZM615.166 9.33105L610.062 9.39648V22.6787H615.166C616.583 22.6787 617.815 22.0026 618.862 20.6504C619.909 19.2764 620.433 17.4989 620.433 15.3179C620.433 13.5731 619.964 12.1445 619.026 11.0322C618.088 9.89811 616.801 9.33105 615.166 9.33105ZM640.356 48H632.766C632.592 48 632.504 47.891 632.504 47.6729L632.57 1.64307C632.57 1.46859 632.679 1.38135 632.897 1.38135H640.356C640.574 1.38135 640.683 1.46859 640.683 1.64307L640.618 19.8652H650.661V1.64307C650.661 1.46859 650.748 1.38135 650.923 1.38135H658.382C658.6 1.38135 658.709 1.46859 658.709 1.64307L658.84 47.6729C658.84 47.891 658.731 48 658.513 48H650.988C650.77 48 650.661 47.891 650.661 47.6729V27.9785H640.618V47.6729C640.618 47.891 640.53 48 640.356 48ZM672.22 48H664.63C664.412 48 664.303 47.891 664.303 47.6729L664.369 1.64307C664.369 1.46859 664.456 1.38135 664.63 1.38135H672.155C672.329 1.38135 672.417 1.46859 672.417 1.64307L672.482 47.6729C672.482 47.891 672.395 48 672.22 48ZM690.704 48.6543C688.283 48.6543 686.069 48.0436 684.063 46.8223C682.078 45.6009 680.497 43.9652 679.319 41.915C678.163 39.8431 677.585 37.5422 677.585 35.0122L677.651 14.1074C677.651 11.6211 678.218 9.37467 679.352 7.36816C680.486 5.33984 682.046 3.71501 684.03 2.49365C686.037 1.25049 688.261 0.628906 690.704 0.628906C693.19 0.628906 695.404 1.22868 697.345 2.42822C699.308 3.62777 700.868 5.2526 702.023 7.30273C703.201 9.33105 703.79 11.5993 703.79 14.1074V17.1826C703.79 17.3571 703.703 17.4443 703.528 17.4443H696.004C695.829 17.4443 695.742 17.3571 695.742 17.1826V14.1074C695.742 12.6243 695.262 11.3485 694.303 10.2798C693.343 9.2111 692.144 8.67676 690.704 8.67676C689.112 8.67676 687.891 9.22201 687.04 10.3125C686.189 11.403 685.764 12.668 685.764 14.1074V35.0122C685.764 36.6479 686.244 37.9893 687.204 39.0361C688.163 40.0612 689.33 40.5737 690.704 40.5737C692.144 40.5737 693.343 40.0067 694.303 38.8726C695.262 37.7166 695.742 36.4299 695.742 35.0122V31.9043C695.742 31.7298 695.829 31.6426 696.004 31.6426H703.594C703.768 31.6426 703.855 31.7298 703.855 31.9043V35.0122C703.855 37.5203 703.267 39.8104 702.089 41.8823C700.889 43.9325 699.308 45.5791 697.345 46.8223C695.382 48.0436 693.169 48.6543 690.704 48.6543ZM738.468 47.9346L726.461 48C726.243 48 726.134 47.891 726.134 47.6729L726.265 1.64307C726.265 1.46859 726.352 1.38135 726.527 1.38135L739.057 1.31592C741.543 1.25049 743.789 1.81755 745.796 3.01709C747.824 4.21663 749.438 5.84147 750.638 7.8916C751.859 9.91992 752.47 12.1663 752.47 14.6309V33.8672C752.47 36.4408 751.848 38.7962 750.605 40.9336C749.34 43.0492 747.661 44.7394 745.567 46.0044C743.473 47.2476 741.107 47.891 738.468 47.9346ZM739.057 9.33105L734.378 9.39648L734.313 39.7559H738.468C740.125 39.7559 741.521 39.1779 742.655 38.022C743.789 36.866 744.356 35.4811 744.356 33.8672V14.5654C744.356 13.1478 743.833 11.9155 742.786 10.8687C741.739 9.79997 740.496 9.28743 739.057 9.33105ZM779.656 48H757.999C757.824 48 757.737 47.891 757.737 47.6729L757.802 1.64307C757.802 1.46859 757.889 1.38135 758.064 1.38135H779.59C779.765 1.38135 779.852 1.4904 779.852 1.7085V9.2002C779.852 9.37467 779.765 9.46191 779.59 9.46191H765.85V19.9307H779.59C779.765 19.9307 779.852 20.0179 779.852 20.1924L779.917 27.7822C779.917 27.9567 779.83 28.0439 779.656 28.0439H765.85V39.7559H779.656C779.83 39.7559 779.917 39.8649 779.917 40.083V47.7383C779.917 47.9128 779.83 48 779.656 48ZM797.256 48.6543C794.879 48.6543 792.687 48.0436 790.681 46.8223C788.696 45.6009 787.104 43.9761 785.904 41.9478C784.727 39.8976 784.138 37.6512 784.138 35.2085V32.1333C784.138 31.8934 784.247 31.7734 784.465 31.7734H791.989C792.164 31.7734 792.251 31.8934 792.251 32.1333V35.2085C792.251 36.6698 792.742 37.9347 793.723 39.0034C794.705 40.0503 795.882 40.5737 797.256 40.5737C798.652 40.5737 799.841 40.0394 800.822 38.9707C801.804 37.8802 802.294 36.6261 802.294 35.2085C802.294 33.5728 801.226 32.1442 799.088 30.9229C798.739 30.7048 798.281 30.443 797.714 30.1377C797.169 29.8105 796.515 29.4398 795.751 29.0254C794.988 28.611 794.247 28.2075 793.527 27.8149C792.807 27.4006 792.109 27.008 791.433 26.6372C788.99 25.1978 787.169 23.3984 785.97 21.2393C784.792 19.0583 784.203 16.6156 784.203 13.9111C784.203 11.4248 784.814 9.17839 786.035 7.17188C787.257 5.18717 788.849 3.61686 790.812 2.46094C792.796 1.2832 794.944 0.694336 797.256 0.694336C799.634 0.694336 801.815 1.2832 803.799 2.46094C805.784 3.66048 807.365 5.2526 808.543 7.2373C809.743 9.22201 810.342 11.4466 810.342 13.9111V19.4072C810.342 19.5817 810.255 19.6689 810.081 19.6689H802.556C802.382 19.6689 802.294 19.5817 802.294 19.4072L802.229 13.9111C802.229 12.3408 801.738 11.0649 800.757 10.0835C799.775 9.10205 798.609 8.61133 797.256 8.61133C795.882 8.61133 794.705 9.13477 793.723 10.1816C792.742 11.2285 792.251 12.4717 792.251 13.9111C792.251 15.3724 792.556 16.5938 793.167 17.5752C793.799 18.5566 794.944 19.4945 796.602 20.3887C796.777 20.4759 797.18 20.694 797.812 21.043C798.445 21.3919 799.143 21.7845 799.906 22.2207C800.691 22.6351 801.4 23.0168 802.033 23.3657C802.665 23.6929 803.047 23.8892 803.178 23.9546C805.402 25.1978 807.158 26.7244 808.445 28.5347C809.753 30.3449 810.408 32.5695 810.408 35.2085C810.408 37.7603 809.819 40.0503 808.641 42.0786C807.442 44.1069 805.849 45.71 803.865 46.8877C801.88 48.0654 799.677 48.6543 797.256 48.6543ZM822.97 48H815.38C815.162 48 815.053 47.891 815.053 47.6729L815.119 1.64307C815.119 1.46859 815.206 1.38135 815.38 1.38135H822.905C823.079 1.38135 823.167 1.46859 823.167 1.64307L823.232 47.6729C823.232 47.891 823.145 48 822.97 48ZM841.389 48.6543C838.968 48.6543 836.787 48.0545 834.846 46.855C832.883 45.6554 831.302 44.0415 830.102 42.0132C828.924 39.9849 828.335 37.7166 828.335 35.2085V13.9766C828.335 11.5339 828.935 9.30924 830.135 7.30273C831.312 5.27441 832.894 3.66048 834.878 2.46094C836.863 1.23958 839.033 0.628906 841.389 0.628906C843.853 0.628906 846.078 1.21777 848.062 2.39551C850.047 3.59505 851.618 5.19808 852.773 7.20459C853.951 9.2111 854.54 11.4684 854.54 13.9766V17.0518C854.54 17.2262 854.431 17.3135 854.213 17.3135H846.688C846.514 17.3135 846.427 17.2262 846.427 17.0518V14.5C846.427 12.7988 845.947 11.3921 844.987 10.2798C844.028 9.16748 842.828 8.61133 841.389 8.61133C840.102 8.61133 838.957 9.14567 837.954 10.2144C836.95 11.283 836.449 12.5371 836.449 13.9766V35.2085C836.449 36.6698 836.939 37.9347 837.921 39.0034C838.902 40.0503 840.058 40.5737 841.389 40.5737C842.828 40.5737 844.028 40.0612 844.987 39.0361C845.947 37.9893 846.427 36.7134 846.427 35.2085V31.9043H841.749C841.509 31.9043 841.389 31.7952 841.389 31.5771V24.0854C841.389 23.8674 841.509 23.7583 841.749 23.7583H854.278C854.453 23.7583 854.54 23.8674 854.54 24.0854V35.2085C854.54 37.7166 853.951 39.9849 852.773 42.0132C851.574 44.0415 849.993 45.6554 848.03 46.855C846.067 48.0545 843.853 48.6543 841.389 48.6543ZM866.579 48H859.873C859.524 48 859.349 47.8473 859.349 47.542L859.284 1.90479C859.284 1.55583 859.458 1.38135 859.807 1.38135H865.859L877.179 27.7822L876.852 1.90479C876.852 1.55583 877.048 1.38135 877.44 1.38135H884.082C884.343 1.38135 884.474 1.55583 884.474 1.90479L884.54 47.6074C884.54 47.8691 884.431 48 884.212 48H878.324L866.71 23.333L867.201 47.4766C867.201 47.8255 866.993 48 866.579 48ZM912.282 48H890.625C890.45 48 890.363 47.891 890.363 47.6729L890.428 1.64307C890.428 1.46859 890.515 1.38135 890.69 1.38135H912.216C912.391 1.38135 912.478 1.4904 912.478 1.7085V9.2002C912.478 9.37467 912.391 9.46191 912.216 9.46191H898.476V19.9307H912.216C912.391 19.9307 912.478 20.0179 912.478 20.1924L912.543 27.7822C912.543 27.9567 912.456 28.0439 912.282 28.0439H898.476V39.7559H912.282C912.456 39.7559 912.543 39.8649 912.543 40.083V47.7383C912.543 47.9128 912.456 48 912.282 48ZM926.349 48H918.759C918.585 48 918.498 47.891 918.498 47.6729L918.628 1.64307C918.628 1.46859 918.716 1.38135 918.89 1.38135H932.434C934.855 1.38135 937.08 1.97021 939.108 3.14795C941.136 4.32568 942.75 5.9069 943.95 7.8916C945.171 9.8763 945.782 12.1227 945.782 14.6309C945.782 16.2666 945.531 17.7497 945.029 19.0801C944.528 20.4105 943.939 21.5337 943.263 22.4497C942.608 23.3657 942.009 24.0418 941.463 24.478C943.884 27.1606 945.095 30.3122 945.095 33.9326L945.16 47.6729C945.16 47.891 945.051 48 944.833 48H937.243C937.069 48 936.981 47.9346 936.981 47.8037V33.9326C936.981 32.3187 936.414 30.9229 935.28 29.7451C934.146 28.5674 932.75 27.9785 931.093 27.9785H926.676L926.611 47.6729C926.611 47.891 926.524 48 926.349 48ZM932.434 9.39648H926.676V19.9307H932.434C933.808 19.9307 935.029 19.4181 936.098 18.3931C937.189 17.368 937.734 16.1139 937.734 14.6309C937.734 13.2132 937.21 11.9919 936.164 10.9668C935.117 9.91992 933.874 9.39648 932.434 9.39648Z" fill="#182E35"/>
</svg>
