<svg width="90" height="120" viewBox="0 0 90 120" fill="none" xmlns="http://www.w3.org/2000/svg">
<path d="M60.7542 51.5368C57.7841 52.902 54.428 53.4458 51.1122 53.0994C47.7964 52.7529 44.6701 51.5317 42.1305 49.5909C39.5909 47.65 37.7523 45.0769 36.848 42.1983C35.944 39.3198 36.015 36.2655 37.0523 33.4232C38.0897 30.5809 40.0462 28.0786 42.674 26.2343C45.3018 24.3899 48.4821 23.2865 51.8111 23.0641C55.1401 22.8417 58.4679 23.5103 61.372 24.9852C64.2761 26.4601 66.6255 28.6745 68.122 31.3477C69.1218 33.1083 69.7243 35.0283 69.8951 36.9977C70.0659 38.9672 69.8016 40.9475 69.1173 42.8253C68.433 44.7032 67.3422 46.4419 65.9071 47.9418C64.4721 49.4417 62.7211 50.6735 60.7542 51.5668V51.5368ZM42.7703 2.85884C56.5568 -1.64598 72.3192 -1.40098 84.1188 7.76863C86.6108 9.60621 88.5697 11.9562 89.8289 14.6183C91.0177 18.0681 85.6481 14.2683 84.917 13.7783C81.1957 11.4996 77.1625 9.65955 72.9164 8.30362C49.6746 1.92888 27.6831 13.5334 14.0975 31.5776C8.56119 39.5358 4.33519 48.1677 1.54999 57.2066C1.29394 58.3142 0.894962 59.3914 0.361097 60.4165C-0.236136 61.4364 0.0875984 57.6815 0.0875984 57.5565C0.586042 53.7783 1.38815 50.037 2.4877 46.362C8.78376 26.6979 22.7322 10.3235 42.7703 2.82384V2.85884ZM42.9767 107.819V64.0063C44.3666 64.1312 45.6893 64.1912 47.0848 64.1912C53.4195 64.2089 59.6368 62.6606 65.052 59.7164V107.814C65.052 111.924 64.2147 114.964 62.1496 116.944C61.1267 117.949 59.8718 118.742 58.4724 119.269C57.0729 119.795 55.5621 120.043 54.0451 119.994C52.5493 120.042 51.06 119.794 49.6833 119.267C48.3067 118.741 47.0764 117.95 46.0801 116.949C44.0261 114.929 42.9544 111.884 42.9544 107.824L42.9767 107.819Z" fill="white"/>
</svg>
