<svg width="41" height="59" viewBox="0 0 41 59" fill="none" xmlns="http://www.w3.org/2000/svg">
<path d="M27.6769 25.3389C26.3239 26.0102 24.795 26.2775 23.2844 26.1072C21.7739 25.9369 20.3497 25.3364 19.1928 24.3822C18.0359 23.4279 17.1983 22.1628 16.7863 20.7475C16.3745 19.3322 16.4068 17.8305 16.8794 16.4331C17.352 15.0356 18.2433 13.8053 19.4404 12.8985C20.6375 11.9917 22.0863 11.4492 23.6028 11.3399C25.1194 11.2305 26.6354 11.5592 27.9584 12.2844C29.2813 13.0095 30.3516 14.0983 31.0333 15.4126C31.4888 16.2783 31.7633 17.2222 31.8411 18.1906C31.9189 19.1589 31.7985 20.1325 31.4868 21.0558C31.175 21.9791 30.6781 22.8339 30.0244 23.5714C29.3706 24.3089 28.5729 24.9145 27.6769 25.3537V25.3389ZM19.4842 1.4056C25.7648 -0.809271 32.9454 -0.688814 38.3208 3.81958C39.456 4.72305 40.3484 5.87846 40.9221 7.18732C41.4636 8.8835 39.0175 7.01527 38.6844 6.77434C36.9892 5.65396 35.1518 4.74928 33.2175 4.08261C22.6295 0.948368 12.6112 6.65391 6.42217 15.5257C3.9001 19.4384 1.97492 23.6825 0.706106 28.1266C0.589461 28.6711 0.407705 29.2008 0.1645 29.7048C-0.107573 30.2062 0.0399059 28.3601 0.0399059 28.2986C0.266975 26.441 0.632378 24.6015 1.13329 22.7947C4.00149 13.1264 10.3558 5.07573 19.4842 1.38839V1.4056ZM19.5783 53.0112V31.4697C20.2114 31.5312 20.814 31.5607 21.4498 31.5607C24.3356 31.5694 27.1679 30.8081 29.6348 29.3606V53.0088C29.6348 55.0294 29.2534 56.524 28.3126 57.4975C27.8466 57.9914 27.2749 58.3815 26.6374 58.6404C25.9999 58.8994 25.3116 59.0211 24.6205 58.997C23.9391 59.0205 23.2607 58.8986 22.6335 58.6398C22.0064 58.3811 21.4459 57.9919 20.9921 57.5C20.0563 56.5068 19.5681 55.0097 19.5681 53.0136L19.5783 53.0112Z" fill="#FFD876"/>
</svg>
