<svg width="67" height="82" viewBox="0 0 67 82" fill="none" xmlns="http://www.w3.org/2000/svg">
<path d="M33.4985 0C15.0272 0 0 12.7668 0 28.4577C0 43.5615 30.3938 78.8494 31.688 80.3437L32.8957 81.7399C33.037 81.9041 33.2619 82 33.4985 82C33.7388 82 33.9623 81.9041 34.105 81.7399L35.3121 80.3437C36.6069 78.8494 67 43.5615 67 28.4577C67 12.7668 51.9703 0 33.4985 0ZM33.4985 18.2642C40.1169 18.2642 45.4986 22.8359 45.4986 28.4577C45.4986 34.0765 40.1166 38.6511 33.4985 38.6511C26.8841 38.6511 21.4985 34.0765 21.4985 28.4577C21.4985 22.8359 26.8839 18.2642 33.4985 18.2642Z" fill="white"/>
</svg>
