<svg width="1312" height="548" viewBox="0 0 1312 548" fill="none" xmlns="http://www.w3.org/2000/svg">
<mask id="path-1-outside-1_1222_46" maskUnits="userSpaceOnUse" x="0" y="0" width="1312" height="548" fill="black">
<rect fill="white" width="1312" height="548"/>
<path d="M2 94C2 43.1898 43.1898 2 94 2H1218C1268.81 2 1310 43.1898 1310 94V454C1310 504.81 1268.81 546 1218 546H94C43.1898 546 2 504.81 2 454V94Z"/>
<path d="M76.1875 141.5C75.1042 141.5 73.6458 141 71.8125 140C70.7292 139.417 69.8125 138.771 69.0625 138.062C68.3542 137.354 68 136.771 68 136.312C68 135.104 70.6458 121.438 75.9375 95.3125C80.9792 70.5208 84.1458 55.5208 85.4375 50.3125C86.6042 45.9792 87.4375 43.8125 87.9375 43.8125C88.4375 43.8125 88.7292 45.2708 88.8125 48.1875L88.875 52.625L90.5 47.75C91.4583 45.0417 92.125 43.6667 92.5 43.625L93.0625 43.5625C93.6042 43.5625 93.875 44.4583 93.875 46.25V47.3125C93.8333 48.2292 93.8125 49.4375 93.8125 50.9375C93.8125 51.7708 93.9167 54.75 94.125 59.875C95.4167 54.5833 96.2292 51.3958 96.5625 50.3125C97.0208 48.8958 97.3542 48.1875 97.5625 48.1875C97.8958 48.1875 98.0625 49.7708 98.0625 52.9375C98.0625 55.0625 97.9583 57.4167 97.75 60C97.5833 62 97.3542 63.7292 97.0625 65.1875L91 94.875C88.2083 108.667 86.8125 116.75 86.8125 119.125C86.8125 119.417 86.8333 119.562 86.875 119.562C87.4583 119.562 89.2917 119.167 92.375 118.375C94.5417 117.875 96.1458 117.625 97.1875 117.625C98.1042 117.625 98.5625 117.792 98.5625 118.125C98.5625 118.5 97.875 119.083 96.5 119.875C95.1667 120.667 94.5 121.146 94.5 121.312C94.5 121.396 94.5625 121.438 94.6875 121.438C94.8958 121.438 95.2083 121.396 95.625 121.312C96.0417 121.229 96.3958 121.188 96.6875 121.188C97.6875 121.188 98.1875 121.438 98.1875 121.938C98.1875 122.229 97.8958 122.562 97.3125 122.938L97.125 123.062H97.1875C97.3125 123.062 97.6042 123 98.0625 122.875C99.9375 122.292 101.208 122 101.875 122C102.208 122 102.375 122.083 102.375 122.25C102.375 122.708 101.271 124.083 99.0625 126.375C96.8958 128.625 95.8125 129.896 95.8125 130.188C95.8125 130.229 95.8333 130.25 95.875 130.25C96.0417 130.25 96.6875 129.833 97.8125 129C99.3958 127.958 100.417 127.438 100.875 127.438C101 127.438 101.062 127.5 101.062 127.625C101.062 128.292 99.75 129.854 97.125 132.312C94.7083 134.562 92.4792 136.208 90.4375 137.25C88.4375 138.333 85.6042 139.354 81.9375 140.312C79.1042 141.104 77.1875 141.5 76.1875 141.5ZM84 111.062C84.2917 111.062 84.4583 110.75 84.5 110.125C84.5 109.75 84.4167 109.375 84.25 109C84.125 108.667 84.0208 108.5 83.9375 108.5C83.7708 108.5 83.6667 108.875 83.625 109.625C83.625 110.583 83.75 111.062 84 111.062ZM87.125 95.5C87.1667 95.5 87.25 95.4375 87.375 95.3125C87.5 95.1875 87.5625 95.0208 87.5625 94.8125C87.5625 94.5625 87.5625 94.3958 87.5625 94.3125C87.5625 94.0208 87.5 93.7292 87.375 93.4375C87.25 93.1042 87.1458 92.9375 87.0625 92.9375C86.8958 92.9375 86.7917 93.3125 86.75 94.0625C86.75 95.0208 86.875 95.5 87.125 95.5ZM88.125 90.3125C88.4583 90.3125 88.625 90 88.625 89.375C88.625 89 88.5625 88.625 88.4375 88.25C88.2708 87.9167 88.1458 87.75 88.0625 87.75C87.8958 87.75 87.8125 88.25 87.8125 89.25C87.8125 89.9583 87.9167 90.3125 88.125 90.3125ZM93.375 65.125C93.4167 65.125 93.4792 65.0208 93.5625 64.8125C93.7292 64.4375 93.8125 64 93.8125 63.5C93.8125 63.0417 93.7292 62.625 93.5625 62.25C93.4792 62.0417 93.3958 61.9375 93.3125 61.9375C93.1458 61.9375 93.0625 62.4583 93.0625 63.5C93.0625 64.5833 93.1667 65.125 93.375 65.125Z"/>
<path d="M136.35 139.812C135.475 139.812 133.808 139.396 131.35 138.562C128.767 137.604 126.287 136.146 123.912 134.188C121.579 132.188 119.829 130.083 118.662 127.875C117.371 125.208 116.454 122.396 115.912 119.438C115.371 116.479 115.1 114 115.1 112C115.1 110.958 115.162 109.958 115.287 109C116.287 101.917 118.017 95.0208 120.475 88.3125C122.975 81.5625 125.683 76.3958 128.6 72.8125C130.017 71.2292 131.038 70.4375 131.663 70.4375C132.038 70.4375 132.225 70.625 132.225 71C132.225 71.5 131.913 72.3125 131.288 73.4375C130.829 74.1875 130.6 74.625 130.6 74.75V74.8125C130.767 74.8125 131.475 74.1042 132.725 72.6875C134.767 70.2292 136.954 66.5833 139.288 61.75C141.413 57.3333 143.6 53.8125 145.85 51.1875C148.142 48.5208 150.163 47.1458 151.913 47.0625C153.413 47.0625 154.871 46.875 156.288 46.5C156.538 46.4167 156.808 46.375 157.1 46.375C158.308 46.375 160.163 47.75 162.663 50.5C165.829 53.7083 167.892 57.1458 168.85 60.8125C169.808 64.4375 170.288 69.9792 170.288 77.4375C170.288 100.146 166.829 116.792 159.913 127.375C157.871 130.5 155.704 132.833 153.413 134.375C150.663 136.25 147.288 137.583 143.288 138.375C139.788 139.333 137.475 139.812 136.35 139.812ZM153.038 131.312C153.204 131.312 153.433 131.188 153.725 130.938C154.392 130.438 155.058 129.583 155.725 128.375C156.225 127.542 156.475 127.042 156.475 126.875C156.475 126.792 156.454 126.75 156.413 126.75C156.246 126.75 155.704 127.208 154.788 128.125C153.413 129.292 152.725 130.167 152.725 130.75C152.725 131.125 152.829 131.312 153.038 131.312ZM141.163 127.625C141.829 127.625 142.163 127.521 142.163 127.312L142.038 127.125C141.871 126.958 141.621 126.875 141.288 126.875C140.954 126.875 140.621 126.938 140.288 127.062C139.954 127.188 139.788 127.292 139.788 127.375C139.788 127.542 140.246 127.625 141.163 127.625ZM124.662 124.562C125.037 124.562 125.225 124.417 125.225 124.125C125.225 123.75 124.975 123.292 124.475 122.75C124.058 122.375 123.767 122.188 123.6 122.188C123.433 122.188 123.35 122.333 123.35 122.625C123.35 123.042 123.433 123.438 123.6 123.812C123.808 124.146 123.996 124.354 124.162 124.438C124.371 124.521 124.537 124.562 124.662 124.562ZM137.788 123.812C139.079 123.812 140.517 123.396 142.1 122.562C144.1 121.479 146.079 119.833 148.038 117.625C149.996 115.417 151.517 113.062 152.6 110.562C153.683 108.021 154.6 104.167 155.35 99C156.142 93.8333 156.538 88.8958 156.538 84.1875C156.538 81.9792 156.371 79.4583 156.038 76.625C155.746 73.7917 155.392 71.3542 154.975 69.3125C154.558 67.2292 154.183 66.1458 153.85 66.0625C153.35 66.1458 152.392 67.4792 150.975 70.0625C147.933 75.3125 144.954 79.6875 142.038 83.1875C140.746 84.7292 139.913 85.5 139.538 85.5L139.225 85.4375C137.85 85.4375 135.558 88.8333 132.35 95.625C130.767 98.9583 129.975 102.688 129.975 106.812C130.058 118.146 132.663 123.812 137.788 123.812ZM126.6 102.625C126.85 102.625 126.975 102.125 126.975 101.125C126.975 100.167 126.85 99.6875 126.6 99.6875C126.433 99.6875 126.35 100.167 126.35 101.125C126.35 102.125 126.433 102.625 126.6 102.625ZM158.788 51.5C159.163 51.5 159.35 51.3542 159.35 51.0625C159.35 50.6042 159.1 50.1458 158.6 49.6875C158.183 49.3125 157.892 49.125 157.725 49.125C157.558 49.125 157.475 49.2708 157.475 49.5625C157.475 49.9792 157.579 50.375 157.788 50.75C157.996 51.0833 158.183 51.2917 158.35 51.375C158.558 51.4583 158.704 51.5 158.788 51.5Z"/>
<path d="M222.7 149.75C222.492 149.75 222.262 149.438 222.012 148.812C221.637 147.896 221.2 147.438 220.7 147.438C220.575 147.438 220.471 147.479 220.387 147.562C220.096 147.562 219.867 146.438 219.7 144.188C219.533 141.979 219.45 134.875 219.45 122.875L213.637 128.25C210.429 131.25 207.7 133.354 205.45 134.562C203.2 135.771 200.2 136.792 196.45 137.625C193.992 138.167 192.387 138.438 191.637 138.438C190.846 138.438 190.054 138.25 189.262 137.875C188.512 137.542 185.95 135.875 181.575 132.875L181.262 124.75C181.262 115.5 183.533 104.812 188.075 92.6875C192.658 80.5625 198.242 70.5833 204.825 62.75C207.658 59.4583 210.45 57.0625 213.2 55.5625C215.95 54.0208 219.471 52.9167 223.762 52.25C226.804 51.75 228.867 51.2708 229.95 50.8125C231.075 50.3542 231.658 49.7292 231.7 48.9375C232.158 46.8542 232.679 45.8125 233.262 45.8125C233.721 45.8125 233.95 46.6042 233.95 48.1875C233.95 50.3542 234.283 51.4375 234.95 51.4375C235.533 51.4375 236.054 50.4375 236.512 48.4375C237.012 46.3958 237.492 45.375 237.95 45.375C238.075 45.375 238.304 45.5833 238.637 46C238.971 46.375 239.137 48.2083 239.137 51.5C239.137 53.25 239.242 54.7292 239.45 55.9375C239.658 57.1458 239.908 57.75 240.2 57.75C240.492 57.75 240.721 57.5625 240.887 57.1875C241.096 56.7708 241.2 56.2917 241.2 55.75C241.2 54.4167 241.429 53.2083 241.887 52.125C242.346 51.0417 242.846 50.5 243.387 50.5C244.012 50.5 244.325 51.75 244.325 54.25C244.325 57.4167 244.054 60.9583 243.512 64.875C242.429 72.875 241.096 77.9375 239.512 80.0625C238.929 80.8542 238.429 81.25 238.012 81.25C237.679 81.25 237.512 80.9375 237.512 80.3125C237.512 79.8542 237.804 78.375 238.387 75.875L236.2 78.1875C234.7 79.7708 233.95 80.9375 233.95 81.6875C233.95 82.3958 233.783 82.75 233.45 82.75C232.658 82.75 231.95 81.7708 231.325 79.8125C230.992 78.5208 230.721 77.875 230.512 77.875C230.346 77.875 230.2 78.1458 230.075 78.6875C229.95 79.2292 229.742 79.6875 229.45 80.0625C229.2 80.3958 228.95 80.5625 228.7 80.5625C227.95 80.5625 227.575 79.0417 227.575 76C227.575 75 227.617 73.8333 227.7 72.5L227.762 71.5C227.762 69.9583 227.242 69.1875 226.2 69.1875C220.908 69.1875 214.262 76.0417 206.262 89.75C204.096 93.6667 202.179 97.8542 200.512 102.312C197.887 109.271 196.575 114.229 196.575 117.188C196.575 118.354 196.867 118.938 197.45 118.938C197.908 118.938 199.408 117.667 201.95 115.125C204.533 112.542 207.283 109.625 210.2 106.375C213.117 103.125 215.492 100.312 217.325 97.9375C218.575 96.2708 219.679 94.875 220.637 93.75C221.596 92.5833 222.179 91.9792 222.387 91.9375C222.637 91.8958 223.179 91.8333 224.012 91.75C224.887 91.6667 225.867 91.5625 226.95 91.4375C227.658 91.3542 228.262 91.3125 228.762 91.3125C229.429 91.3125 229.992 91.4167 230.45 91.625C230.908 91.8333 231.242 92.4792 231.45 93.5625C231.658 94.3125 231.95 94.9375 232.325 95.4375C232.742 95.8958 233.137 96.125 233.512 96.125C233.887 96.125 234.325 96.3333 234.825 96.75C235.325 97.125 235.721 97.6042 236.012 98.1875C236.429 99.1875 236.637 100.833 236.637 103.125C236.637 105.042 236.387 108.271 235.887 112.812C235.429 117.354 234.471 123.062 233.012 129.938C231.596 136.812 230.054 142.146 228.387 145.938L226.7 149.562C227.825 142.146 228.387 138.042 228.387 137.25C228.387 137.083 228.367 137 228.325 137C228.2 137 227.887 137.896 227.387 139.688C226.471 142.771 225.471 145.375 224.387 147.5C223.637 149 223.075 149.75 222.7 149.75ZM229.262 134.062C229.304 134.062 229.367 133.958 229.45 133.75C229.617 133.333 229.7 132.896 229.7 132.438C229.7 131.979 229.617 131.542 229.45 131.125C229.367 130.917 229.304 130.812 229.262 130.812C229.054 130.812 228.95 131.354 228.95 132.438C228.95 133.479 229.054 134.021 229.262 134.062ZM210.325 127.25C210.617 127.25 211.408 126.562 212.7 125.188C213.658 124.146 214.137 123.479 214.137 123.188C214.137 123.146 214.117 123.125 214.075 123.125C213.742 123.125 212.929 123.812 211.637 125.188C210.679 126.271 210.2 126.938 210.2 127.188C210.2 127.229 210.242 127.25 210.325 127.25ZM192.887 114.625C193.179 114.625 193.346 114.312 193.387 113.688C193.387 113.312 193.325 112.938 193.2 112.562C193.033 112.229 192.908 112.062 192.825 112.062C192.658 112.062 192.575 112.562 192.575 113.562C192.575 114.271 192.679 114.625 192.887 114.625ZM232.95 103.375C233.242 103.375 233.471 103.229 233.637 102.938C233.846 102.646 233.95 102.271 233.95 101.812C233.95 101.396 233.846 101.042 233.637 100.75C233.471 100.458 233.242 100.312 232.95 100.312C232.658 100.312 232.408 100.458 232.2 100.75C231.992 101.042 231.887 101.396 231.887 101.812C231.887 102.271 231.992 102.646 232.2 102.938C232.408 103.229 232.658 103.375 232.95 103.375ZM220.825 57.375C221.408 57.375 222.346 57.2917 223.637 57.125C224.929 56.9167 226.054 56.7083 227.012 56.5C227.971 56.2917 228.533 56.1458 228.7 56.0625L228.762 55.875C228.762 55.7083 228.283 55.625 227.325 55.625C225.783 55.625 224.179 55.7917 222.512 56.125C220.846 56.4167 220.012 56.7708 220.012 57.1875C220.012 57.3125 220.283 57.375 220.825 57.375Z"/>
<path d="M272.8 139.812C271.925 139.812 270.258 139.396 267.8 138.562C265.217 137.604 262.737 136.146 260.362 134.188C258.029 132.188 256.279 130.083 255.113 127.875C253.821 125.208 252.904 122.396 252.363 119.438C251.821 116.479 251.55 114 251.55 112C251.55 110.958 251.613 109.958 251.738 109C252.738 101.917 254.467 95.0208 256.925 88.3125C259.425 81.5625 262.133 76.3958 265.05 72.8125C266.467 71.2292 267.487 70.4375 268.112 70.4375C268.487 70.4375 268.675 70.625 268.675 71C268.675 71.5 268.362 72.3125 267.737 73.4375C267.279 74.1875 267.05 74.625 267.05 74.75V74.8125C267.217 74.8125 267.925 74.1042 269.175 72.6875C271.217 70.2292 273.404 66.5833 275.737 61.75C277.862 57.3333 280.05 53.8125 282.3 51.1875C284.592 48.5208 286.612 47.1458 288.362 47.0625C289.862 47.0625 291.321 46.875 292.737 46.5C292.987 46.4167 293.258 46.375 293.55 46.375C294.758 46.375 296.612 47.75 299.112 50.5C302.279 53.7083 304.342 57.1458 305.3 60.8125C306.258 64.4375 306.737 69.9792 306.737 77.4375C306.737 100.146 303.279 116.792 296.362 127.375C294.321 130.5 292.154 132.833 289.862 134.375C287.112 136.25 283.737 137.583 279.737 138.375C276.237 139.333 273.925 139.812 272.8 139.812ZM289.487 131.312C289.654 131.312 289.883 131.188 290.175 130.938C290.842 130.438 291.508 129.583 292.175 128.375C292.675 127.542 292.925 127.042 292.925 126.875C292.925 126.792 292.904 126.75 292.862 126.75C292.696 126.75 292.154 127.208 291.237 128.125C289.862 129.292 289.175 130.167 289.175 130.75C289.175 131.125 289.279 131.312 289.487 131.312ZM277.612 127.625C278.279 127.625 278.612 127.521 278.612 127.312L278.487 127.125C278.321 126.958 278.071 126.875 277.737 126.875C277.404 126.875 277.071 126.938 276.737 127.062C276.404 127.188 276.237 127.292 276.237 127.375C276.237 127.542 276.696 127.625 277.612 127.625ZM261.112 124.562C261.487 124.562 261.675 124.417 261.675 124.125C261.675 123.75 261.425 123.292 260.925 122.75C260.508 122.375 260.217 122.188 260.05 122.188C259.883 122.188 259.8 122.333 259.8 122.625C259.8 123.042 259.883 123.438 260.05 123.812C260.258 124.146 260.446 124.354 260.612 124.438C260.821 124.521 260.987 124.562 261.112 124.562ZM274.237 123.812C275.529 123.812 276.967 123.396 278.55 122.562C280.55 121.479 282.529 119.833 284.487 117.625C286.446 115.417 287.967 113.062 289.05 110.562C290.133 108.021 291.05 104.167 291.8 99C292.592 93.8333 292.987 88.8958 292.987 84.1875C292.987 81.9792 292.821 79.4583 292.487 76.625C292.196 73.7917 291.842 71.3542 291.425 69.3125C291.008 67.2292 290.633 66.1458 290.3 66.0625C289.8 66.1458 288.842 67.4792 287.425 70.0625C284.383 75.3125 281.404 79.6875 278.487 83.1875C277.196 84.7292 276.362 85.5 275.987 85.5L275.675 85.4375C274.3 85.4375 272.008 88.8333 268.8 95.625C267.217 98.9583 266.425 102.688 266.425 106.812C266.508 118.146 269.112 123.812 274.237 123.812ZM263.05 102.625C263.3 102.625 263.425 102.125 263.425 101.125C263.425 100.167 263.3 99.6875 263.05 99.6875C262.883 99.6875 262.8 100.167 262.8 101.125C262.8 102.125 262.883 102.625 263.05 102.625ZM295.237 51.5C295.612 51.5 295.8 51.3542 295.8 51.0625C295.8 50.6042 295.55 50.1458 295.05 49.6875C294.633 49.3125 294.342 49.125 294.175 49.125C294.008 49.125 293.925 49.2708 293.925 49.5625C293.925 49.9792 294.029 50.375 294.237 50.75C294.446 51.0833 294.633 51.2917 294.8 51.375C295.008 51.4583 295.154 51.5 295.237 51.5Z"/>
<path d="M335.337 140.062C335.254 140.062 334.546 140.042 333.212 140C331.921 140 330.129 139.333 327.837 138C326.546 137.208 325.483 136.375 324.65 135.5C323.858 134.583 323.442 133.854 323.4 133.312C323.4 133.021 323.587 132.875 323.962 132.875C324.212 132.875 324.567 132.979 325.025 133.188C325.483 133.354 325.817 133.438 326.025 133.438C326.233 133.438 326.337 133.312 326.337 133.062C326.337 132.854 326.254 132.562 326.087 132.188V132.125C325.129 130 324.65 128.75 324.65 128.375C324.65 128.208 324.775 128.125 325.025 128.125C325.317 128.125 325.858 128.292 326.65 128.625C327.442 128.917 328.004 129.062 328.337 129.062C328.629 129.062 328.775 128.896 328.775 128.562C328.775 128.312 328.712 127.958 328.587 127.5C328.462 127.042 328.212 126.646 327.837 126.312C327.504 125.938 327.15 125.75 326.775 125.75C326.4 125.75 326.087 125.667 325.837 125.5C325.587 125.292 325.462 125.062 325.462 124.812C325.462 124.062 327.421 123.688 331.337 123.688C332.712 123.688 334.358 123.729 336.275 123.812H336.525C339.067 123.812 341.858 123.208 344.9 122C347.942 120.792 350.587 119.292 352.837 117.5C355.129 115.667 356.275 113.979 356.275 112.438C356.275 110.146 355.254 109 353.212 109C353.171 109 352.608 109.021 351.525 109.062C350.442 109.104 347.525 110.354 342.775 112.812C339.192 114.646 335.337 116.083 331.212 117.125C328.379 117.875 326.462 118.25 325.462 118.25C324.421 118.25 323.046 117.771 321.337 116.812C319.921 116.146 318.942 115.333 318.4 114.375C317.942 113.583 317.712 112.5 317.712 111.125C317.712 109.167 318.233 105.812 319.275 101.062C321.775 89.2708 325.692 78.8333 331.025 69.75C336.4 60.6667 342.567 54.0208 349.525 49.8125C351.275 48.7292 352.921 48.0417 354.462 47.75C356.046 47.4167 358.796 47.25 362.712 47.25C369.379 47.25 372.712 47.7292 372.712 48.6875C372.712 48.8542 372.587 49.0417 372.337 49.25C372.129 49.4583 371.358 49.6042 370.025 49.6875C368.692 49.7708 367.087 49.8125 365.212 49.8125H363.9C362.567 49.8125 361.275 49.8542 360.025 49.9375C358.275 50.1042 357.4 50.3125 357.4 50.5625C357.4 50.9792 359.9 51.2292 364.9 51.3125C370.4 51.4375 374.004 51.9167 375.712 52.75C376.546 53.2083 376.962 53.5417 376.962 53.75C376.962 54 375.567 54.25 372.775 54.5C369.983 54.75 368.587 54.9792 368.587 55.1875C368.587 55.3542 368.983 55.5625 369.775 55.8125C371.483 56.5625 373.046 57.6042 374.462 58.9375L376.775 61.25H373.275C370.942 61.25 369.775 61.5417 369.775 62.125C369.775 62.5 368.921 62.6875 367.212 62.6875C366.462 62.6875 365.587 62.625 364.587 62.5C363.629 62.375 362.754 62.3125 361.962 62.3125C361.046 62.3125 360.15 62.4375 359.275 62.6875C358.442 62.9375 357.108 63.7917 355.275 65.25C348.9 70.3333 343.171 77.7083 338.087 87.375C335.462 92.5 334.15 95.8542 334.15 97.4375C334.15 98.1458 334.4 98.5 334.9 98.5C335.15 98.5 335.442 98.4167 335.775 98.25C343.775 94.8333 350.504 93.125 355.962 93.125C358.337 93.125 360.233 93.5 361.65 94.25C363.317 95.2917 365.087 96.9792 366.962 99.3125C368.837 101.604 370.067 103.625 370.65 105.375C370.817 106.167 370.9 107.125 370.9 108.25C370.9 109.833 370.629 112.167 370.087 115.25C369.587 118.292 368.692 121.229 367.4 124.062C364.567 130.354 357.275 135.083 345.525 138.25C341.275 139.458 337.879 140.062 335.337 140.062ZM339.025 128.5C339.775 128.5 340.858 128.229 342.275 127.688C342.983 127.438 343.337 127.229 343.337 127.062C343.337 126.896 342.733 126.812 341.525 126.812H340.587C339.921 126.812 339.317 126.896 338.775 127.062C338.233 127.229 337.962 127.438 337.962 127.688C337.962 128.229 338.317 128.5 339.025 128.5ZM360.712 128.25C360.879 128.208 361.15 128.021 361.525 127.688C361.942 127.354 362.296 126.979 362.587 126.562C362.879 126.146 363.025 125.792 363.025 125.5C363.025 125.292 362.921 125.188 362.712 125.188C362.379 125.188 362.004 125.375 361.587 125.75C360.587 126.542 360.087 127.271 360.087 127.938C360.087 128.146 360.192 128.25 360.4 128.25H360.712ZM321.025 114.062C321.317 114.062 321.462 113.688 321.462 112.938C321.462 112.646 321.4 112.375 321.275 112.125C321.15 111.792 321.046 111.625 320.962 111.625C320.837 111.625 320.754 111.979 320.712 112.688C320.712 113.604 320.817 114.062 321.025 114.062ZM367.712 107.438C368.046 107.438 368.212 107.167 368.212 106.625C368.212 106.333 368.171 105.979 368.087 105.562C367.796 104.271 367.504 103.625 367.212 103.625C366.962 103.625 366.837 104.271 366.837 105.562C366.837 106.062 366.921 106.5 367.087 106.875C367.296 107.25 367.504 107.438 367.712 107.438ZM346.775 98.4375C348.233 98.4375 350.046 98.125 352.212 97.5C353.879 97 354.712 96.6042 354.712 96.3125C354.712 96.2292 354.546 96.1875 354.212 96.1875C352.754 96.1875 350.942 96.5 348.775 97.125C347.108 97.625 346.275 98.0208 346.275 98.3125C346.275 98.3958 346.442 98.4375 346.775 98.4375Z"/>
</mask>
<path d="M2 94C2 43.1898 43.1898 2 94 2H1218C1268.81 2 1310 43.1898 1310 94V454C1310 504.81 1268.81 546 1218 546H94C43.1898 546 2 504.81 2 454V94Z" fill="url(#paint0_linear_1222_46)"/>
<path d="M76.1875 141.5C75.1042 141.5 73.6458 141 71.8125 140C70.7292 139.417 69.8125 138.771 69.0625 138.062C68.3542 137.354 68 136.771 68 136.312C68 135.104 70.6458 121.438 75.9375 95.3125C80.9792 70.5208 84.1458 55.5208 85.4375 50.3125C86.6042 45.9792 87.4375 43.8125 87.9375 43.8125C88.4375 43.8125 88.7292 45.2708 88.8125 48.1875L88.875 52.625L90.5 47.75C91.4583 45.0417 92.125 43.6667 92.5 43.625L93.0625 43.5625C93.6042 43.5625 93.875 44.4583 93.875 46.25V47.3125C93.8333 48.2292 93.8125 49.4375 93.8125 50.9375C93.8125 51.7708 93.9167 54.75 94.125 59.875C95.4167 54.5833 96.2292 51.3958 96.5625 50.3125C97.0208 48.8958 97.3542 48.1875 97.5625 48.1875C97.8958 48.1875 98.0625 49.7708 98.0625 52.9375C98.0625 55.0625 97.9583 57.4167 97.75 60C97.5833 62 97.3542 63.7292 97.0625 65.1875L91 94.875C88.2083 108.667 86.8125 116.75 86.8125 119.125C86.8125 119.417 86.8333 119.562 86.875 119.562C87.4583 119.562 89.2917 119.167 92.375 118.375C94.5417 117.875 96.1458 117.625 97.1875 117.625C98.1042 117.625 98.5625 117.792 98.5625 118.125C98.5625 118.5 97.875 119.083 96.5 119.875C95.1667 120.667 94.5 121.146 94.5 121.312C94.5 121.396 94.5625 121.438 94.6875 121.438C94.8958 121.438 95.2083 121.396 95.625 121.312C96.0417 121.229 96.3958 121.188 96.6875 121.188C97.6875 121.188 98.1875 121.438 98.1875 121.938C98.1875 122.229 97.8958 122.562 97.3125 122.938L97.125 123.062H97.1875C97.3125 123.062 97.6042 123 98.0625 122.875C99.9375 122.292 101.208 122 101.875 122C102.208 122 102.375 122.083 102.375 122.25C102.375 122.708 101.271 124.083 99.0625 126.375C96.8958 128.625 95.8125 129.896 95.8125 130.188C95.8125 130.229 95.8333 130.25 95.875 130.25C96.0417 130.25 96.6875 129.833 97.8125 129C99.3958 127.958 100.417 127.438 100.875 127.438C101 127.438 101.062 127.5 101.062 127.625C101.062 128.292 99.75 129.854 97.125 132.312C94.7083 134.562 92.4792 136.208 90.4375 137.25C88.4375 138.333 85.6042 139.354 81.9375 140.312C79.1042 141.104 77.1875 141.5 76.1875 141.5ZM84 111.062C84.2917 111.062 84.4583 110.75 84.5 110.125C84.5 109.75 84.4167 109.375 84.25 109C84.125 108.667 84.0208 108.5 83.9375 108.5C83.7708 108.5 83.6667 108.875 83.625 109.625C83.625 110.583 83.75 111.062 84 111.062ZM87.125 95.5C87.1667 95.5 87.25 95.4375 87.375 95.3125C87.5 95.1875 87.5625 95.0208 87.5625 94.8125C87.5625 94.5625 87.5625 94.3958 87.5625 94.3125C87.5625 94.0208 87.5 93.7292 87.375 93.4375C87.25 93.1042 87.1458 92.9375 87.0625 92.9375C86.8958 92.9375 86.7917 93.3125 86.75 94.0625C86.75 95.0208 86.875 95.5 87.125 95.5ZM88.125 90.3125C88.4583 90.3125 88.625 90 88.625 89.375C88.625 89 88.5625 88.625 88.4375 88.25C88.2708 87.9167 88.1458 87.75 88.0625 87.75C87.8958 87.75 87.8125 88.25 87.8125 89.25C87.8125 89.9583 87.9167 90.3125 88.125 90.3125ZM93.375 65.125C93.4167 65.125 93.4792 65.0208 93.5625 64.8125C93.7292 64.4375 93.8125 64 93.8125 63.5C93.8125 63.0417 93.7292 62.625 93.5625 62.25C93.4792 62.0417 93.3958 61.9375 93.3125 61.9375C93.1458 61.9375 93.0625 62.4583 93.0625 63.5C93.0625 64.5833 93.1667 65.125 93.375 65.125Z" fill="#FFF8E4"/>
<path d="M136.35 139.812C135.475 139.812 133.808 139.396 131.35 138.562C128.767 137.604 126.287 136.146 123.912 134.188C121.579 132.188 119.829 130.083 118.662 127.875C117.371 125.208 116.454 122.396 115.912 119.438C115.371 116.479 115.1 114 115.1 112C115.1 110.958 115.162 109.958 115.287 109C116.287 101.917 118.017 95.0208 120.475 88.3125C122.975 81.5625 125.683 76.3958 128.6 72.8125C130.017 71.2292 131.038 70.4375 131.663 70.4375C132.038 70.4375 132.225 70.625 132.225 71C132.225 71.5 131.913 72.3125 131.288 73.4375C130.829 74.1875 130.6 74.625 130.6 74.75V74.8125C130.767 74.8125 131.475 74.1042 132.725 72.6875C134.767 70.2292 136.954 66.5833 139.288 61.75C141.413 57.3333 143.6 53.8125 145.85 51.1875C148.142 48.5208 150.163 47.1458 151.913 47.0625C153.413 47.0625 154.871 46.875 156.288 46.5C156.538 46.4167 156.808 46.375 157.1 46.375C158.308 46.375 160.163 47.75 162.663 50.5C165.829 53.7083 167.892 57.1458 168.85 60.8125C169.808 64.4375 170.288 69.9792 170.288 77.4375C170.288 100.146 166.829 116.792 159.913 127.375C157.871 130.5 155.704 132.833 153.413 134.375C150.663 136.25 147.288 137.583 143.288 138.375C139.788 139.333 137.475 139.812 136.35 139.812ZM153.038 131.312C153.204 131.312 153.433 131.188 153.725 130.938C154.392 130.438 155.058 129.583 155.725 128.375C156.225 127.542 156.475 127.042 156.475 126.875C156.475 126.792 156.454 126.75 156.413 126.75C156.246 126.75 155.704 127.208 154.788 128.125C153.413 129.292 152.725 130.167 152.725 130.75C152.725 131.125 152.829 131.312 153.038 131.312ZM141.163 127.625C141.829 127.625 142.163 127.521 142.163 127.312L142.038 127.125C141.871 126.958 141.621 126.875 141.288 126.875C140.954 126.875 140.621 126.938 140.288 127.062C139.954 127.188 139.788 127.292 139.788 127.375C139.788 127.542 140.246 127.625 141.163 127.625ZM124.662 124.562C125.037 124.562 125.225 124.417 125.225 124.125C125.225 123.75 124.975 123.292 124.475 122.75C124.058 122.375 123.767 122.188 123.6 122.188C123.433 122.188 123.35 122.333 123.35 122.625C123.35 123.042 123.433 123.438 123.6 123.812C123.808 124.146 123.996 124.354 124.162 124.438C124.371 124.521 124.537 124.562 124.662 124.562ZM137.788 123.812C139.079 123.812 140.517 123.396 142.1 122.562C144.1 121.479 146.079 119.833 148.038 117.625C149.996 115.417 151.517 113.062 152.6 110.562C153.683 108.021 154.6 104.167 155.35 99C156.142 93.8333 156.538 88.8958 156.538 84.1875C156.538 81.9792 156.371 79.4583 156.038 76.625C155.746 73.7917 155.392 71.3542 154.975 69.3125C154.558 67.2292 154.183 66.1458 153.85 66.0625C153.35 66.1458 152.392 67.4792 150.975 70.0625C147.933 75.3125 144.954 79.6875 142.038 83.1875C140.746 84.7292 139.913 85.5 139.538 85.5L139.225 85.4375C137.85 85.4375 135.558 88.8333 132.35 95.625C130.767 98.9583 129.975 102.688 129.975 106.812C130.058 118.146 132.663 123.812 137.788 123.812ZM126.6 102.625C126.85 102.625 126.975 102.125 126.975 101.125C126.975 100.167 126.85 99.6875 126.6 99.6875C126.433 99.6875 126.35 100.167 126.35 101.125C126.35 102.125 126.433 102.625 126.6 102.625ZM158.788 51.5C159.163 51.5 159.35 51.3542 159.35 51.0625C159.35 50.6042 159.1 50.1458 158.6 49.6875C158.183 49.3125 157.892 49.125 157.725 49.125C157.558 49.125 157.475 49.2708 157.475 49.5625C157.475 49.9792 157.579 50.375 157.788 50.75C157.996 51.0833 158.183 51.2917 158.35 51.375C158.558 51.4583 158.704 51.5 158.788 51.5Z" fill="#FFF8E4"/>
<path d="M222.7 149.75C222.492 149.75 222.262 149.438 222.012 148.812C221.637 147.896 221.2 147.438 220.7 147.438C220.575 147.438 220.471 147.479 220.387 147.562C220.096 147.562 219.867 146.438 219.7 144.188C219.533 141.979 219.45 134.875 219.45 122.875L213.637 128.25C210.429 131.25 207.7 133.354 205.45 134.562C203.2 135.771 200.2 136.792 196.45 137.625C193.992 138.167 192.387 138.438 191.637 138.438C190.846 138.438 190.054 138.25 189.262 137.875C188.512 137.542 185.95 135.875 181.575 132.875L181.262 124.75C181.262 115.5 183.533 104.812 188.075 92.6875C192.658 80.5625 198.242 70.5833 204.825 62.75C207.658 59.4583 210.45 57.0625 213.2 55.5625C215.95 54.0208 219.471 52.9167 223.762 52.25C226.804 51.75 228.867 51.2708 229.95 50.8125C231.075 50.3542 231.658 49.7292 231.7 48.9375C232.158 46.8542 232.679 45.8125 233.262 45.8125C233.721 45.8125 233.95 46.6042 233.95 48.1875C233.95 50.3542 234.283 51.4375 234.95 51.4375C235.533 51.4375 236.054 50.4375 236.512 48.4375C237.012 46.3958 237.492 45.375 237.95 45.375C238.075 45.375 238.304 45.5833 238.637 46C238.971 46.375 239.137 48.2083 239.137 51.5C239.137 53.25 239.242 54.7292 239.45 55.9375C239.658 57.1458 239.908 57.75 240.2 57.75C240.492 57.75 240.721 57.5625 240.887 57.1875C241.096 56.7708 241.2 56.2917 241.2 55.75C241.2 54.4167 241.429 53.2083 241.887 52.125C242.346 51.0417 242.846 50.5 243.387 50.5C244.012 50.5 244.325 51.75 244.325 54.25C244.325 57.4167 244.054 60.9583 243.512 64.875C242.429 72.875 241.096 77.9375 239.512 80.0625C238.929 80.8542 238.429 81.25 238.012 81.25C237.679 81.25 237.512 80.9375 237.512 80.3125C237.512 79.8542 237.804 78.375 238.387 75.875L236.2 78.1875C234.7 79.7708 233.95 80.9375 233.95 81.6875C233.95 82.3958 233.783 82.75 233.45 82.75C232.658 82.75 231.95 81.7708 231.325 79.8125C230.992 78.5208 230.721 77.875 230.512 77.875C230.346 77.875 230.2 78.1458 230.075 78.6875C229.95 79.2292 229.742 79.6875 229.45 80.0625C229.2 80.3958 228.95 80.5625 228.7 80.5625C227.95 80.5625 227.575 79.0417 227.575 76C227.575 75 227.617 73.8333 227.7 72.5L227.762 71.5C227.762 69.9583 227.242 69.1875 226.2 69.1875C220.908 69.1875 214.262 76.0417 206.262 89.75C204.096 93.6667 202.179 97.8542 200.512 102.312C197.887 109.271 196.575 114.229 196.575 117.188C196.575 118.354 196.867 118.938 197.45 118.938C197.908 118.938 199.408 117.667 201.95 115.125C204.533 112.542 207.283 109.625 210.2 106.375C213.117 103.125 215.492 100.312 217.325 97.9375C218.575 96.2708 219.679 94.875 220.637 93.75C221.596 92.5833 222.179 91.9792 222.387 91.9375C222.637 91.8958 223.179 91.8333 224.012 91.75C224.887 91.6667 225.867 91.5625 226.95 91.4375C227.658 91.3542 228.262 91.3125 228.762 91.3125C229.429 91.3125 229.992 91.4167 230.45 91.625C230.908 91.8333 231.242 92.4792 231.45 93.5625C231.658 94.3125 231.95 94.9375 232.325 95.4375C232.742 95.8958 233.137 96.125 233.512 96.125C233.887 96.125 234.325 96.3333 234.825 96.75C235.325 97.125 235.721 97.6042 236.012 98.1875C236.429 99.1875 236.637 100.833 236.637 103.125C236.637 105.042 236.387 108.271 235.887 112.812C235.429 117.354 234.471 123.062 233.012 129.938C231.596 136.812 230.054 142.146 228.387 145.938L226.7 149.562C227.825 142.146 228.387 138.042 228.387 137.25C228.387 137.083 228.367 137 228.325 137C228.2 137 227.887 137.896 227.387 139.688C226.471 142.771 225.471 145.375 224.387 147.5C223.637 149 223.075 149.75 222.7 149.75ZM229.262 134.062C229.304 134.062 229.367 133.958 229.45 133.75C229.617 133.333 229.7 132.896 229.7 132.438C229.7 131.979 229.617 131.542 229.45 131.125C229.367 130.917 229.304 130.812 229.262 130.812C229.054 130.812 228.95 131.354 228.95 132.438C228.95 133.479 229.054 134.021 229.262 134.062ZM210.325 127.25C210.617 127.25 211.408 126.562 212.7 125.188C213.658 124.146 214.137 123.479 214.137 123.188C214.137 123.146 214.117 123.125 214.075 123.125C213.742 123.125 212.929 123.812 211.637 125.188C210.679 126.271 210.2 126.938 210.2 127.188C210.2 127.229 210.242 127.25 210.325 127.25ZM192.887 114.625C193.179 114.625 193.346 114.312 193.387 113.688C193.387 113.312 193.325 112.938 193.2 112.562C193.033 112.229 192.908 112.062 192.825 112.062C192.658 112.062 192.575 112.562 192.575 113.562C192.575 114.271 192.679 114.625 192.887 114.625ZM232.95 103.375C233.242 103.375 233.471 103.229 233.637 102.938C233.846 102.646 233.95 102.271 233.95 101.812C233.95 101.396 233.846 101.042 233.637 100.75C233.471 100.458 233.242 100.312 232.95 100.312C232.658 100.312 232.408 100.458 232.2 100.75C231.992 101.042 231.887 101.396 231.887 101.812C231.887 102.271 231.992 102.646 232.2 102.938C232.408 103.229 232.658 103.375 232.95 103.375ZM220.825 57.375C221.408 57.375 222.346 57.2917 223.637 57.125C224.929 56.9167 226.054 56.7083 227.012 56.5C227.971 56.2917 228.533 56.1458 228.7 56.0625L228.762 55.875C228.762 55.7083 228.283 55.625 227.325 55.625C225.783 55.625 224.179 55.7917 222.512 56.125C220.846 56.4167 220.012 56.7708 220.012 57.1875C220.012 57.3125 220.283 57.375 220.825 57.375Z" fill="#FFF8E4"/>
<path d="M272.8 139.812C271.925 139.812 270.258 139.396 267.8 138.562C265.217 137.604 262.737 136.146 260.362 134.188C258.029 132.188 256.279 130.083 255.113 127.875C253.821 125.208 252.904 122.396 252.363 119.438C251.821 116.479 251.55 114 251.55 112C251.55 110.958 251.613 109.958 251.738 109C252.738 101.917 254.467 95.0208 256.925 88.3125C259.425 81.5625 262.133 76.3958 265.05 72.8125C266.467 71.2292 267.487 70.4375 268.112 70.4375C268.487 70.4375 268.675 70.625 268.675 71C268.675 71.5 268.362 72.3125 267.737 73.4375C267.279 74.1875 267.05 74.625 267.05 74.75V74.8125C267.217 74.8125 267.925 74.1042 269.175 72.6875C271.217 70.2292 273.404 66.5833 275.737 61.75C277.862 57.3333 280.05 53.8125 282.3 51.1875C284.592 48.5208 286.612 47.1458 288.362 47.0625C289.862 47.0625 291.321 46.875 292.737 46.5C292.987 46.4167 293.258 46.375 293.55 46.375C294.758 46.375 296.612 47.75 299.112 50.5C302.279 53.7083 304.342 57.1458 305.3 60.8125C306.258 64.4375 306.737 69.9792 306.737 77.4375C306.737 100.146 303.279 116.792 296.362 127.375C294.321 130.5 292.154 132.833 289.862 134.375C287.112 136.25 283.737 137.583 279.737 138.375C276.237 139.333 273.925 139.812 272.8 139.812ZM289.487 131.312C289.654 131.312 289.883 131.188 290.175 130.938C290.842 130.438 291.508 129.583 292.175 128.375C292.675 127.542 292.925 127.042 292.925 126.875C292.925 126.792 292.904 126.75 292.862 126.75C292.696 126.75 292.154 127.208 291.237 128.125C289.862 129.292 289.175 130.167 289.175 130.75C289.175 131.125 289.279 131.312 289.487 131.312ZM277.612 127.625C278.279 127.625 278.612 127.521 278.612 127.312L278.487 127.125C278.321 126.958 278.071 126.875 277.737 126.875C277.404 126.875 277.071 126.938 276.737 127.062C276.404 127.188 276.237 127.292 276.237 127.375C276.237 127.542 276.696 127.625 277.612 127.625ZM261.112 124.562C261.487 124.562 261.675 124.417 261.675 124.125C261.675 123.75 261.425 123.292 260.925 122.75C260.508 122.375 260.217 122.188 260.05 122.188C259.883 122.188 259.8 122.333 259.8 122.625C259.8 123.042 259.883 123.438 260.05 123.812C260.258 124.146 260.446 124.354 260.612 124.438C260.821 124.521 260.987 124.562 261.112 124.562ZM274.237 123.812C275.529 123.812 276.967 123.396 278.55 122.562C280.55 121.479 282.529 119.833 284.487 117.625C286.446 115.417 287.967 113.062 289.05 110.562C290.133 108.021 291.05 104.167 291.8 99C292.592 93.8333 292.987 88.8958 292.987 84.1875C292.987 81.9792 292.821 79.4583 292.487 76.625C292.196 73.7917 291.842 71.3542 291.425 69.3125C291.008 67.2292 290.633 66.1458 290.3 66.0625C289.8 66.1458 288.842 67.4792 287.425 70.0625C284.383 75.3125 281.404 79.6875 278.487 83.1875C277.196 84.7292 276.362 85.5 275.987 85.5L275.675 85.4375C274.3 85.4375 272.008 88.8333 268.8 95.625C267.217 98.9583 266.425 102.688 266.425 106.812C266.508 118.146 269.112 123.812 274.237 123.812ZM263.05 102.625C263.3 102.625 263.425 102.125 263.425 101.125C263.425 100.167 263.3 99.6875 263.05 99.6875C262.883 99.6875 262.8 100.167 262.8 101.125C262.8 102.125 262.883 102.625 263.05 102.625ZM295.237 51.5C295.612 51.5 295.8 51.3542 295.8 51.0625C295.8 50.6042 295.55 50.1458 295.05 49.6875C294.633 49.3125 294.342 49.125 294.175 49.125C294.008 49.125 293.925 49.2708 293.925 49.5625C293.925 49.9792 294.029 50.375 294.237 50.75C294.446 51.0833 294.633 51.2917 294.8 51.375C295.008 51.4583 295.154 51.5 295.237 51.5Z" fill="#FFF8E4"/>
<path d="M335.337 140.062C335.254 140.062 334.546 140.042 333.212 140C331.921 140 330.129 139.333 327.837 138C326.546 137.208 325.483 136.375 324.65 135.5C323.858 134.583 323.442 133.854 323.4 133.312C323.4 133.021 323.587 132.875 323.962 132.875C324.212 132.875 324.567 132.979 325.025 133.188C325.483 133.354 325.817 133.438 326.025 133.438C326.233 133.438 326.337 133.312 326.337 133.062C326.337 132.854 326.254 132.562 326.087 132.188V132.125C325.129 130 324.65 128.75 324.65 128.375C324.65 128.208 324.775 128.125 325.025 128.125C325.317 128.125 325.858 128.292 326.65 128.625C327.442 128.917 328.004 129.062 328.337 129.062C328.629 129.062 328.775 128.896 328.775 128.562C328.775 128.312 328.712 127.958 328.587 127.5C328.462 127.042 328.212 126.646 327.837 126.312C327.504 125.938 327.15 125.75 326.775 125.75C326.4 125.75 326.087 125.667 325.837 125.5C325.587 125.292 325.462 125.062 325.462 124.812C325.462 124.062 327.421 123.688 331.337 123.688C332.712 123.688 334.358 123.729 336.275 123.812H336.525C339.067 123.812 341.858 123.208 344.9 122C347.942 120.792 350.587 119.292 352.837 117.5C355.129 115.667 356.275 113.979 356.275 112.438C356.275 110.146 355.254 109 353.212 109C353.171 109 352.608 109.021 351.525 109.062C350.442 109.104 347.525 110.354 342.775 112.812C339.192 114.646 335.337 116.083 331.212 117.125C328.379 117.875 326.462 118.25 325.462 118.25C324.421 118.25 323.046 117.771 321.337 116.812C319.921 116.146 318.942 115.333 318.4 114.375C317.942 113.583 317.712 112.5 317.712 111.125C317.712 109.167 318.233 105.812 319.275 101.062C321.775 89.2708 325.692 78.8333 331.025 69.75C336.4 60.6667 342.567 54.0208 349.525 49.8125C351.275 48.7292 352.921 48.0417 354.462 47.75C356.046 47.4167 358.796 47.25 362.712 47.25C369.379 47.25 372.712 47.7292 372.712 48.6875C372.712 48.8542 372.587 49.0417 372.337 49.25C372.129 49.4583 371.358 49.6042 370.025 49.6875C368.692 49.7708 367.087 49.8125 365.212 49.8125H363.9C362.567 49.8125 361.275 49.8542 360.025 49.9375C358.275 50.1042 357.4 50.3125 357.4 50.5625C357.4 50.9792 359.9 51.2292 364.9 51.3125C370.4 51.4375 374.004 51.9167 375.712 52.75C376.546 53.2083 376.962 53.5417 376.962 53.75C376.962 54 375.567 54.25 372.775 54.5C369.983 54.75 368.587 54.9792 368.587 55.1875C368.587 55.3542 368.983 55.5625 369.775 55.8125C371.483 56.5625 373.046 57.6042 374.462 58.9375L376.775 61.25H373.275C370.942 61.25 369.775 61.5417 369.775 62.125C369.775 62.5 368.921 62.6875 367.212 62.6875C366.462 62.6875 365.587 62.625 364.587 62.5C363.629 62.375 362.754 62.3125 361.962 62.3125C361.046 62.3125 360.15 62.4375 359.275 62.6875C358.442 62.9375 357.108 63.7917 355.275 65.25C348.9 70.3333 343.171 77.7083 338.087 87.375C335.462 92.5 334.15 95.8542 334.15 97.4375C334.15 98.1458 334.4 98.5 334.9 98.5C335.15 98.5 335.442 98.4167 335.775 98.25C343.775 94.8333 350.504 93.125 355.962 93.125C358.337 93.125 360.233 93.5 361.65 94.25C363.317 95.2917 365.087 96.9792 366.962 99.3125C368.837 101.604 370.067 103.625 370.65 105.375C370.817 106.167 370.9 107.125 370.9 108.25C370.9 109.833 370.629 112.167 370.087 115.25C369.587 118.292 368.692 121.229 367.4 124.062C364.567 130.354 357.275 135.083 345.525 138.25C341.275 139.458 337.879 140.062 335.337 140.062ZM339.025 128.5C339.775 128.5 340.858 128.229 342.275 127.688C342.983 127.438 343.337 127.229 343.337 127.062C343.337 126.896 342.733 126.812 341.525 126.812H340.587C339.921 126.812 339.317 126.896 338.775 127.062C338.233 127.229 337.962 127.438 337.962 127.688C337.962 128.229 338.317 128.5 339.025 128.5ZM360.712 128.25C360.879 128.208 361.15 128.021 361.525 127.688C361.942 127.354 362.296 126.979 362.587 126.562C362.879 126.146 363.025 125.792 363.025 125.5C363.025 125.292 362.921 125.188 362.712 125.188C362.379 125.188 362.004 125.375 361.587 125.75C360.587 126.542 360.087 127.271 360.087 127.938C360.087 128.146 360.192 128.25 360.4 128.25H360.712ZM321.025 114.062C321.317 114.062 321.462 113.688 321.462 112.938C321.462 112.646 321.4 112.375 321.275 112.125C321.15 111.792 321.046 111.625 320.962 111.625C320.837 111.625 320.754 111.979 320.712 112.688C320.712 113.604 320.817 114.062 321.025 114.062ZM367.712 107.438C368.046 107.438 368.212 107.167 368.212 106.625C368.212 106.333 368.171 105.979 368.087 105.562C367.796 104.271 367.504 103.625 367.212 103.625C366.962 103.625 366.837 104.271 366.837 105.562C366.837 106.062 366.921 106.5 367.087 106.875C367.296 107.25 367.504 107.438 367.712 107.438ZM346.775 98.4375C348.233 98.4375 350.046 98.125 352.212 97.5C353.879 97 354.712 96.6042 354.712 96.3125C354.712 96.2292 354.546 96.1875 354.212 96.1875C352.754 96.1875 350.942 96.5 348.775 97.125C347.108 97.625 346.275 98.0208 346.275 98.3125C346.275 98.3958 346.442 98.4375 346.775 98.4375Z" fill="#FFF8E4"/>
<path d="M2 94C2 43.1898 43.1898 2 94 2H1218C1268.81 2 1310 43.1898 1310 94V454C1310 504.81 1268.81 546 1218 546H94C43.1898 546 2 504.81 2 454V94Z" stroke="#FFE9AD" stroke-width="4" mask="url(#path-1-outside-1_1222_46)"/>
<path d="M76.1875 141.5C75.1042 141.5 73.6458 141 71.8125 140C70.7292 139.417 69.8125 138.771 69.0625 138.062C68.3542 137.354 68 136.771 68 136.312C68 135.104 70.6458 121.438 75.9375 95.3125C80.9792 70.5208 84.1458 55.5208 85.4375 50.3125C86.6042 45.9792 87.4375 43.8125 87.9375 43.8125C88.4375 43.8125 88.7292 45.2708 88.8125 48.1875L88.875 52.625L90.5 47.75C91.4583 45.0417 92.125 43.6667 92.5 43.625L93.0625 43.5625C93.6042 43.5625 93.875 44.4583 93.875 46.25V47.3125C93.8333 48.2292 93.8125 49.4375 93.8125 50.9375C93.8125 51.7708 93.9167 54.75 94.125 59.875C95.4167 54.5833 96.2292 51.3958 96.5625 50.3125C97.0208 48.8958 97.3542 48.1875 97.5625 48.1875C97.8958 48.1875 98.0625 49.7708 98.0625 52.9375C98.0625 55.0625 97.9583 57.4167 97.75 60C97.5833 62 97.3542 63.7292 97.0625 65.1875L91 94.875C88.2083 108.667 86.8125 116.75 86.8125 119.125C86.8125 119.417 86.8333 119.562 86.875 119.562C87.4583 119.562 89.2917 119.167 92.375 118.375C94.5417 117.875 96.1458 117.625 97.1875 117.625C98.1042 117.625 98.5625 117.792 98.5625 118.125C98.5625 118.5 97.875 119.083 96.5 119.875C95.1667 120.667 94.5 121.146 94.5 121.312C94.5 121.396 94.5625 121.438 94.6875 121.438C94.8958 121.438 95.2083 121.396 95.625 121.312C96.0417 121.229 96.3958 121.188 96.6875 121.188C97.6875 121.188 98.1875 121.438 98.1875 121.938C98.1875 122.229 97.8958 122.562 97.3125 122.938L97.125 123.062H97.1875C97.3125 123.062 97.6042 123 98.0625 122.875C99.9375 122.292 101.208 122 101.875 122C102.208 122 102.375 122.083 102.375 122.25C102.375 122.708 101.271 124.083 99.0625 126.375C96.8958 128.625 95.8125 129.896 95.8125 130.188C95.8125 130.229 95.8333 130.25 95.875 130.25C96.0417 130.25 96.6875 129.833 97.8125 129C99.3958 127.958 100.417 127.438 100.875 127.438C101 127.438 101.062 127.5 101.062 127.625C101.062 128.292 99.75 129.854 97.125 132.312C94.7083 134.562 92.4792 136.208 90.4375 137.25C88.4375 138.333 85.6042 139.354 81.9375 140.312C79.1042 141.104 77.1875 141.5 76.1875 141.5ZM84 111.062C84.2917 111.062 84.4583 110.75 84.5 110.125C84.5 109.75 84.4167 109.375 84.25 109C84.125 108.667 84.0208 108.5 83.9375 108.5C83.7708 108.5 83.6667 108.875 83.625 109.625C83.625 110.583 83.75 111.062 84 111.062ZM87.125 95.5C87.1667 95.5 87.25 95.4375 87.375 95.3125C87.5 95.1875 87.5625 95.0208 87.5625 94.8125C87.5625 94.5625 87.5625 94.3958 87.5625 94.3125C87.5625 94.0208 87.5 93.7292 87.375 93.4375C87.25 93.1042 87.1458 92.9375 87.0625 92.9375C86.8958 92.9375 86.7917 93.3125 86.75 94.0625C86.75 95.0208 86.875 95.5 87.125 95.5ZM88.125 90.3125C88.4583 90.3125 88.625 90 88.625 89.375C88.625 89 88.5625 88.625 88.4375 88.25C88.2708 87.9167 88.1458 87.75 88.0625 87.75C87.8958 87.75 87.8125 88.25 87.8125 89.25C87.8125 89.9583 87.9167 90.3125 88.125 90.3125ZM93.375 65.125C93.4167 65.125 93.4792 65.0208 93.5625 64.8125C93.7292 64.4375 93.8125 64 93.8125 63.5C93.8125 63.0417 93.7292 62.625 93.5625 62.25C93.4792 62.0417 93.3958 61.9375 93.3125 61.9375C93.1458 61.9375 93.0625 62.4583 93.0625 63.5C93.0625 64.5833 93.1667 65.125 93.375 65.125Z" stroke="#FFE9AD" stroke-width="4" mask="url(#path-1-outside-1_1222_46)"/>
<path d="M136.35 139.812C135.475 139.812 133.808 139.396 131.35 138.562C128.767 137.604 126.287 136.146 123.912 134.188C121.579 132.188 119.829 130.083 118.662 127.875C117.371 125.208 116.454 122.396 115.912 119.438C115.371 116.479 115.1 114 115.1 112C115.1 110.958 115.162 109.958 115.287 109C116.287 101.917 118.017 95.0208 120.475 88.3125C122.975 81.5625 125.683 76.3958 128.6 72.8125C130.017 71.2292 131.038 70.4375 131.663 70.4375C132.038 70.4375 132.225 70.625 132.225 71C132.225 71.5 131.913 72.3125 131.288 73.4375C130.829 74.1875 130.6 74.625 130.6 74.75V74.8125C130.767 74.8125 131.475 74.1042 132.725 72.6875C134.767 70.2292 136.954 66.5833 139.288 61.75C141.413 57.3333 143.6 53.8125 145.85 51.1875C148.142 48.5208 150.163 47.1458 151.913 47.0625C153.413 47.0625 154.871 46.875 156.288 46.5C156.538 46.4167 156.808 46.375 157.1 46.375C158.308 46.375 160.163 47.75 162.663 50.5C165.829 53.7083 167.892 57.1458 168.85 60.8125C169.808 64.4375 170.288 69.9792 170.288 77.4375C170.288 100.146 166.829 116.792 159.913 127.375C157.871 130.5 155.704 132.833 153.413 134.375C150.663 136.25 147.288 137.583 143.288 138.375C139.788 139.333 137.475 139.812 136.35 139.812ZM153.038 131.312C153.204 131.312 153.433 131.188 153.725 130.938C154.392 130.438 155.058 129.583 155.725 128.375C156.225 127.542 156.475 127.042 156.475 126.875C156.475 126.792 156.454 126.75 156.413 126.75C156.246 126.75 155.704 127.208 154.788 128.125C153.413 129.292 152.725 130.167 152.725 130.75C152.725 131.125 152.829 131.312 153.038 131.312ZM141.163 127.625C141.829 127.625 142.163 127.521 142.163 127.312L142.038 127.125C141.871 126.958 141.621 126.875 141.288 126.875C140.954 126.875 140.621 126.938 140.288 127.062C139.954 127.188 139.788 127.292 139.788 127.375C139.788 127.542 140.246 127.625 141.163 127.625ZM124.662 124.562C125.037 124.562 125.225 124.417 125.225 124.125C125.225 123.75 124.975 123.292 124.475 122.75C124.058 122.375 123.767 122.188 123.6 122.188C123.433 122.188 123.35 122.333 123.35 122.625C123.35 123.042 123.433 123.438 123.6 123.812C123.808 124.146 123.996 124.354 124.162 124.438C124.371 124.521 124.537 124.562 124.662 124.562ZM137.788 123.812C139.079 123.812 140.517 123.396 142.1 122.562C144.1 121.479 146.079 119.833 148.038 117.625C149.996 115.417 151.517 113.062 152.6 110.562C153.683 108.021 154.6 104.167 155.35 99C156.142 93.8333 156.538 88.8958 156.538 84.1875C156.538 81.9792 156.371 79.4583 156.038 76.625C155.746 73.7917 155.392 71.3542 154.975 69.3125C154.558 67.2292 154.183 66.1458 153.85 66.0625C153.35 66.1458 152.392 67.4792 150.975 70.0625C147.933 75.3125 144.954 79.6875 142.038 83.1875C140.746 84.7292 139.913 85.5 139.538 85.5L139.225 85.4375C137.85 85.4375 135.558 88.8333 132.35 95.625C130.767 98.9583 129.975 102.688 129.975 106.812C130.058 118.146 132.663 123.812 137.788 123.812ZM126.6 102.625C126.85 102.625 126.975 102.125 126.975 101.125C126.975 100.167 126.85 99.6875 126.6 99.6875C126.433 99.6875 126.35 100.167 126.35 101.125C126.35 102.125 126.433 102.625 126.6 102.625ZM158.788 51.5C159.163 51.5 159.35 51.3542 159.35 51.0625C159.35 50.6042 159.1 50.1458 158.6 49.6875C158.183 49.3125 157.892 49.125 157.725 49.125C157.558 49.125 157.475 49.2708 157.475 49.5625C157.475 49.9792 157.579 50.375 157.788 50.75C157.996 51.0833 158.183 51.2917 158.35 51.375C158.558 51.4583 158.704 51.5 158.788 51.5Z" stroke="#FFE9AD" stroke-width="4" mask="url(#path-1-outside-1_1222_46)"/>
<path d="M222.7 149.75C222.492 149.75 222.262 149.438 222.012 148.812C221.637 147.896 221.2 147.438 220.7 147.438C220.575 147.438 220.471 147.479 220.387 147.562C220.096 147.562 219.867 146.438 219.7 144.188C219.533 141.979 219.45 134.875 219.45 122.875L213.637 128.25C210.429 131.25 207.7 133.354 205.45 134.562C203.2 135.771 200.2 136.792 196.45 137.625C193.992 138.167 192.387 138.438 191.637 138.438C190.846 138.438 190.054 138.25 189.262 137.875C188.512 137.542 185.95 135.875 181.575 132.875L181.262 124.75C181.262 115.5 183.533 104.812 188.075 92.6875C192.658 80.5625 198.242 70.5833 204.825 62.75C207.658 59.4583 210.45 57.0625 213.2 55.5625C215.95 54.0208 219.471 52.9167 223.762 52.25C226.804 51.75 228.867 51.2708 229.95 50.8125C231.075 50.3542 231.658 49.7292 231.7 48.9375C232.158 46.8542 232.679 45.8125 233.262 45.8125C233.721 45.8125 233.95 46.6042 233.95 48.1875C233.95 50.3542 234.283 51.4375 234.95 51.4375C235.533 51.4375 236.054 50.4375 236.512 48.4375C237.012 46.3958 237.492 45.375 237.95 45.375C238.075 45.375 238.304 45.5833 238.637 46C238.971 46.375 239.137 48.2083 239.137 51.5C239.137 53.25 239.242 54.7292 239.45 55.9375C239.658 57.1458 239.908 57.75 240.2 57.75C240.492 57.75 240.721 57.5625 240.887 57.1875C241.096 56.7708 241.2 56.2917 241.2 55.75C241.2 54.4167 241.429 53.2083 241.887 52.125C242.346 51.0417 242.846 50.5 243.387 50.5C244.012 50.5 244.325 51.75 244.325 54.25C244.325 57.4167 244.054 60.9583 243.512 64.875C242.429 72.875 241.096 77.9375 239.512 80.0625C238.929 80.8542 238.429 81.25 238.012 81.25C237.679 81.25 237.512 80.9375 237.512 80.3125C237.512 79.8542 237.804 78.375 238.387 75.875L236.2 78.1875C234.7 79.7708 233.95 80.9375 233.95 81.6875C233.95 82.3958 233.783 82.75 233.45 82.75C232.658 82.75 231.95 81.7708 231.325 79.8125C230.992 78.5208 230.721 77.875 230.512 77.875C230.346 77.875 230.2 78.1458 230.075 78.6875C229.95 79.2292 229.742 79.6875 229.45 80.0625C229.2 80.3958 228.95 80.5625 228.7 80.5625C227.95 80.5625 227.575 79.0417 227.575 76C227.575 75 227.617 73.8333 227.7 72.5L227.762 71.5C227.762 69.9583 227.242 69.1875 226.2 69.1875C220.908 69.1875 214.262 76.0417 206.262 89.75C204.096 93.6667 202.179 97.8542 200.512 102.312C197.887 109.271 196.575 114.229 196.575 117.188C196.575 118.354 196.867 118.938 197.45 118.938C197.908 118.938 199.408 117.667 201.95 115.125C204.533 112.542 207.283 109.625 210.2 106.375C213.117 103.125 215.492 100.312 217.325 97.9375C218.575 96.2708 219.679 94.875 220.637 93.75C221.596 92.5833 222.179 91.9792 222.387 91.9375C222.637 91.8958 223.179 91.8333 224.012 91.75C224.887 91.6667 225.867 91.5625 226.95 91.4375C227.658 91.3542 228.262 91.3125 228.762 91.3125C229.429 91.3125 229.992 91.4167 230.45 91.625C230.908 91.8333 231.242 92.4792 231.45 93.5625C231.658 94.3125 231.95 94.9375 232.325 95.4375C232.742 95.8958 233.137 96.125 233.512 96.125C233.887 96.125 234.325 96.3333 234.825 96.75C235.325 97.125 235.721 97.6042 236.012 98.1875C236.429 99.1875 236.637 100.833 236.637 103.125C236.637 105.042 236.387 108.271 235.887 112.812C235.429 117.354 234.471 123.062 233.012 129.938C231.596 136.812 230.054 142.146 228.387 145.938L226.7 149.562C227.825 142.146 228.387 138.042 228.387 137.25C228.387 137.083 228.367 137 228.325 137C228.2 137 227.887 137.896 227.387 139.688C226.471 142.771 225.471 145.375 224.387 147.5C223.637 149 223.075 149.75 222.7 149.75ZM229.262 134.062C229.304 134.062 229.367 133.958 229.45 133.75C229.617 133.333 229.7 132.896 229.7 132.438C229.7 131.979 229.617 131.542 229.45 131.125C229.367 130.917 229.304 130.812 229.262 130.812C229.054 130.812 228.95 131.354 228.95 132.438C228.95 133.479 229.054 134.021 229.262 134.062ZM210.325 127.25C210.617 127.25 211.408 126.562 212.7 125.188C213.658 124.146 214.137 123.479 214.137 123.188C214.137 123.146 214.117 123.125 214.075 123.125C213.742 123.125 212.929 123.812 211.637 125.188C210.679 126.271 210.2 126.938 210.2 127.188C210.2 127.229 210.242 127.25 210.325 127.25ZM192.887 114.625C193.179 114.625 193.346 114.312 193.387 113.688C193.387 113.312 193.325 112.938 193.2 112.562C193.033 112.229 192.908 112.062 192.825 112.062C192.658 112.062 192.575 112.562 192.575 113.562C192.575 114.271 192.679 114.625 192.887 114.625ZM232.95 103.375C233.242 103.375 233.471 103.229 233.637 102.938C233.846 102.646 233.95 102.271 233.95 101.812C233.95 101.396 233.846 101.042 233.637 100.75C233.471 100.458 233.242 100.312 232.95 100.312C232.658 100.312 232.408 100.458 232.2 100.75C231.992 101.042 231.887 101.396 231.887 101.812C231.887 102.271 231.992 102.646 232.2 102.938C232.408 103.229 232.658 103.375 232.95 103.375ZM220.825 57.375C221.408 57.375 222.346 57.2917 223.637 57.125C224.929 56.9167 226.054 56.7083 227.012 56.5C227.971 56.2917 228.533 56.1458 228.7 56.0625L228.762 55.875C228.762 55.7083 228.283 55.625 227.325 55.625C225.783 55.625 224.179 55.7917 222.512 56.125C220.846 56.4167 220.012 56.7708 220.012 57.1875C220.012 57.3125 220.283 57.375 220.825 57.375Z" stroke="#FFE9AD" stroke-width="4" mask="url(#path-1-outside-1_1222_46)"/>
<path d="M272.8 139.812C271.925 139.812 270.258 139.396 267.8 138.562C265.217 137.604 262.737 136.146 260.362 134.188C258.029 132.188 256.279 130.083 255.113 127.875C253.821 125.208 252.904 122.396 252.363 119.438C251.821 116.479 251.55 114 251.55 112C251.55 110.958 251.613 109.958 251.738 109C252.738 101.917 254.467 95.0208 256.925 88.3125C259.425 81.5625 262.133 76.3958 265.05 72.8125C266.467 71.2292 267.487 70.4375 268.112 70.4375C268.487 70.4375 268.675 70.625 268.675 71C268.675 71.5 268.362 72.3125 267.737 73.4375C267.279 74.1875 267.05 74.625 267.05 74.75V74.8125C267.217 74.8125 267.925 74.1042 269.175 72.6875C271.217 70.2292 273.404 66.5833 275.737 61.75C277.862 57.3333 280.05 53.8125 282.3 51.1875C284.592 48.5208 286.612 47.1458 288.362 47.0625C289.862 47.0625 291.321 46.875 292.737 46.5C292.987 46.4167 293.258 46.375 293.55 46.375C294.758 46.375 296.612 47.75 299.112 50.5C302.279 53.7083 304.342 57.1458 305.3 60.8125C306.258 64.4375 306.737 69.9792 306.737 77.4375C306.737 100.146 303.279 116.792 296.362 127.375C294.321 130.5 292.154 132.833 289.862 134.375C287.112 136.25 283.737 137.583 279.737 138.375C276.237 139.333 273.925 139.812 272.8 139.812ZM289.487 131.312C289.654 131.312 289.883 131.188 290.175 130.938C290.842 130.438 291.508 129.583 292.175 128.375C292.675 127.542 292.925 127.042 292.925 126.875C292.925 126.792 292.904 126.75 292.862 126.75C292.696 126.75 292.154 127.208 291.237 128.125C289.862 129.292 289.175 130.167 289.175 130.75C289.175 131.125 289.279 131.312 289.487 131.312ZM277.612 127.625C278.279 127.625 278.612 127.521 278.612 127.312L278.487 127.125C278.321 126.958 278.071 126.875 277.737 126.875C277.404 126.875 277.071 126.938 276.737 127.062C276.404 127.188 276.237 127.292 276.237 127.375C276.237 127.542 276.696 127.625 277.612 127.625ZM261.112 124.562C261.487 124.562 261.675 124.417 261.675 124.125C261.675 123.75 261.425 123.292 260.925 122.75C260.508 122.375 260.217 122.188 260.05 122.188C259.883 122.188 259.8 122.333 259.8 122.625C259.8 123.042 259.883 123.438 260.05 123.812C260.258 124.146 260.446 124.354 260.612 124.438C260.821 124.521 260.987 124.562 261.112 124.562ZM274.237 123.812C275.529 123.812 276.967 123.396 278.55 122.562C280.55 121.479 282.529 119.833 284.487 117.625C286.446 115.417 287.967 113.062 289.05 110.562C290.133 108.021 291.05 104.167 291.8 99C292.592 93.8333 292.987 88.8958 292.987 84.1875C292.987 81.9792 292.821 79.4583 292.487 76.625C292.196 73.7917 291.842 71.3542 291.425 69.3125C291.008 67.2292 290.633 66.1458 290.3 66.0625C289.8 66.1458 288.842 67.4792 287.425 70.0625C284.383 75.3125 281.404 79.6875 278.487 83.1875C277.196 84.7292 276.362 85.5 275.987 85.5L275.675 85.4375C274.3 85.4375 272.008 88.8333 268.8 95.625C267.217 98.9583 266.425 102.688 266.425 106.812C266.508 118.146 269.112 123.812 274.237 123.812ZM263.05 102.625C263.3 102.625 263.425 102.125 263.425 101.125C263.425 100.167 263.3 99.6875 263.05 99.6875C262.883 99.6875 262.8 100.167 262.8 101.125C262.8 102.125 262.883 102.625 263.05 102.625ZM295.237 51.5C295.612 51.5 295.8 51.3542 295.8 51.0625C295.8 50.6042 295.55 50.1458 295.05 49.6875C294.633 49.3125 294.342 49.125 294.175 49.125C294.008 49.125 293.925 49.2708 293.925 49.5625C293.925 49.9792 294.029 50.375 294.237 50.75C294.446 51.0833 294.633 51.2917 294.8 51.375C295.008 51.4583 295.154 51.5 295.237 51.5Z" stroke="#FFE9AD" stroke-width="4" mask="url(#path-1-outside-1_1222_46)"/>
<path d="M335.337 140.062C335.254 140.062 334.546 140.042 333.212 140C331.921 140 330.129 139.333 327.837 138C326.546 137.208 325.483 136.375 324.65 135.5C323.858 134.583 323.442 133.854 323.4 133.312C323.4 133.021 323.587 132.875 323.962 132.875C324.212 132.875 324.567 132.979 325.025 133.188C325.483 133.354 325.817 133.438 326.025 133.438C326.233 133.438 326.337 133.312 326.337 133.062C326.337 132.854 326.254 132.562 326.087 132.188V132.125C325.129 130 324.65 128.75 324.65 128.375C324.65 128.208 324.775 128.125 325.025 128.125C325.317 128.125 325.858 128.292 326.65 128.625C327.442 128.917 328.004 129.062 328.337 129.062C328.629 129.062 328.775 128.896 328.775 128.562C328.775 128.312 328.712 127.958 328.587 127.5C328.462 127.042 328.212 126.646 327.837 126.312C327.504 125.938 327.15 125.75 326.775 125.75C326.4 125.75 326.087 125.667 325.837 125.5C325.587 125.292 325.462 125.062 325.462 124.812C325.462 124.062 327.421 123.688 331.337 123.688C332.712 123.688 334.358 123.729 336.275 123.812H336.525C339.067 123.812 341.858 123.208 344.9 122C347.942 120.792 350.587 119.292 352.837 117.5C355.129 115.667 356.275 113.979 356.275 112.438C356.275 110.146 355.254 109 353.212 109C353.171 109 352.608 109.021 351.525 109.062C350.442 109.104 347.525 110.354 342.775 112.812C339.192 114.646 335.337 116.083 331.212 117.125C328.379 117.875 326.462 118.25 325.462 118.25C324.421 118.25 323.046 117.771 321.337 116.812C319.921 116.146 318.942 115.333 318.4 114.375C317.942 113.583 317.712 112.5 317.712 111.125C317.712 109.167 318.233 105.812 319.275 101.062C321.775 89.2708 325.692 78.8333 331.025 69.75C336.4 60.6667 342.567 54.0208 349.525 49.8125C351.275 48.7292 352.921 48.0417 354.462 47.75C356.046 47.4167 358.796 47.25 362.712 47.25C369.379 47.25 372.712 47.7292 372.712 48.6875C372.712 48.8542 372.587 49.0417 372.337 49.25C372.129 49.4583 371.358 49.6042 370.025 49.6875C368.692 49.7708 367.087 49.8125 365.212 49.8125H363.9C362.567 49.8125 361.275 49.8542 360.025 49.9375C358.275 50.1042 357.4 50.3125 357.4 50.5625C357.4 50.9792 359.9 51.2292 364.9 51.3125C370.4 51.4375 374.004 51.9167 375.712 52.75C376.546 53.2083 376.962 53.5417 376.962 53.75C376.962 54 375.567 54.25 372.775 54.5C369.983 54.75 368.587 54.9792 368.587 55.1875C368.587 55.3542 368.983 55.5625 369.775 55.8125C371.483 56.5625 373.046 57.6042 374.462 58.9375L376.775 61.25H373.275C370.942 61.25 369.775 61.5417 369.775 62.125C369.775 62.5 368.921 62.6875 367.212 62.6875C366.462 62.6875 365.587 62.625 364.587 62.5C363.629 62.375 362.754 62.3125 361.962 62.3125C361.046 62.3125 360.15 62.4375 359.275 62.6875C358.442 62.9375 357.108 63.7917 355.275 65.25C348.9 70.3333 343.171 77.7083 338.087 87.375C335.462 92.5 334.15 95.8542 334.15 97.4375C334.15 98.1458 334.4 98.5 334.9 98.5C335.15 98.5 335.442 98.4167 335.775 98.25C343.775 94.8333 350.504 93.125 355.962 93.125C358.337 93.125 360.233 93.5 361.65 94.25C363.317 95.2917 365.087 96.9792 366.962 99.3125C368.837 101.604 370.067 103.625 370.65 105.375C370.817 106.167 370.9 107.125 370.9 108.25C370.9 109.833 370.629 112.167 370.087 115.25C369.587 118.292 368.692 121.229 367.4 124.062C364.567 130.354 357.275 135.083 345.525 138.25C341.275 139.458 337.879 140.062 335.337 140.062ZM339.025 128.5C339.775 128.5 340.858 128.229 342.275 127.688C342.983 127.438 343.337 127.229 343.337 127.062C343.337 126.896 342.733 126.812 341.525 126.812H340.587C339.921 126.812 339.317 126.896 338.775 127.062C338.233 127.229 337.962 127.438 337.962 127.688C337.962 128.229 338.317 128.5 339.025 128.5ZM360.712 128.25C360.879 128.208 361.15 128.021 361.525 127.688C361.942 127.354 362.296 126.979 362.587 126.562C362.879 126.146 363.025 125.792 363.025 125.5C363.025 125.292 362.921 125.188 362.712 125.188C362.379 125.188 362.004 125.375 361.587 125.75C360.587 126.542 360.087 127.271 360.087 127.938C360.087 128.146 360.192 128.25 360.4 128.25H360.712ZM321.025 114.062C321.317 114.062 321.462 113.688 321.462 112.938C321.462 112.646 321.4 112.375 321.275 112.125C321.15 111.792 321.046 111.625 320.962 111.625C320.837 111.625 320.754 111.979 320.712 112.688C320.712 113.604 320.817 114.062 321.025 114.062ZM367.712 107.438C368.046 107.438 368.212 107.167 368.212 106.625C368.212 106.333 368.171 105.979 368.087 105.562C367.796 104.271 367.504 103.625 367.212 103.625C366.962 103.625 366.837 104.271 366.837 105.562C366.837 106.062 366.921 106.5 367.087 106.875C367.296 107.25 367.504 107.438 367.712 107.438ZM346.775 98.4375C348.233 98.4375 350.046 98.125 352.212 97.5C353.879 97 354.712 96.6042 354.712 96.3125C354.712 96.2292 354.546 96.1875 354.212 96.1875C352.754 96.1875 350.942 96.5 348.775 97.125C347.108 97.625 346.275 98.0208 346.275 98.3125C346.275 98.3958 346.442 98.4375 346.775 98.4375Z" stroke="#FFE9AD" stroke-width="4" mask="url(#path-1-outside-1_1222_46)"/>
<defs>
<linearGradient id="paint0_linear_1222_46" x1="656" y1="-74.5921" x2="656" y2="722.751" gradientUnits="userSpaceOnUse">
<stop offset="0.00361011" stop-color="#DCB355"/>
<stop offset="1" stop-color="#AD9F78" stop-opacity="0"/>
</linearGradient>
</defs>
</svg>
