<svg width="126" height="122" viewBox="0 0 126 122" fill="none" xmlns="http://www.w3.org/2000/svg">
<path fill-rule="evenodd" clip-rule="evenodd" d="M102.97 5H22.1581C12.6674 5 5 12.6674 5 22.1581V99.8419C5 109.333 12.6674 117 22.1581 117H102.97C112.461 117 120.128 109.333 120.128 99.8419V22.1581C120.128 12.6674 112.461 5 102.97 5ZM102.97 0H22.1581C9.90598 0 0 9.90598 0 22.1581V99.8419C0 112.094 9.90598 122 22.1581 122H102.97C115.222 122 125.128 112.094 125.128 99.8419V22.1581C125.128 9.90598 115.222 0 102.97 0Z" fill="#E2D29E"/>
<path fill-rule="evenodd" clip-rule="evenodd" d="M31.514 29.2839C32.1649 29.2568 32.8249 29.2434 33.4802 29.2304L33.5336 29.2294C34.1774 29.2166 34.8204 29.2039 35.4856 29.1793C36.2124 29.1523 36.9617 29.139 37.7149 29.1261L37.7883 29.1248C38.5235 29.1121 39.2661 29.0993 40.0311 29.0747C41.6796 29.0215 43.2707 29.0215 44.8256 29.0215H44.84C49.251 29.0215 53.0437 29.5559 56.2534 30.7542C59.127 31.736 61.7723 33.3481 63.9617 35.48L63.9713 35.4893L63.9807 35.4987C65.8544 37.3724 67.3137 39.6509 68.2469 42.1591L68.2515 42.1714L68.256 42.1839C69.1098 44.5745 69.5716 47.0435 69.5716 49.6343C69.5716 54.4299 68.4533 58.5666 66.0709 61.9019C63.7445 65.1589 60.4941 67.591 56.7422 68.9763L56.7395 68.9773C52.8955 70.3905 48.7291 70.8728 44.3186 70.8728L44.1812 70.8728C43.0515 70.8729 42.1353 70.873 41.5128 70.8107C41.4988 70.8093 41.4845 70.808 41.4699 70.8066V85.4044C41.584 86.8892 40.4669 88.0303 39.1793 88.2142L39.0386 88.2343H28.7819C28.2644 88.2343 27.4776 88.1023 26.8563 87.4421C26.2588 86.8074 26.1562 86.0423 26.1562 85.5565V31.9078C26.1562 31.4865 26.2399 30.7845 26.7687 30.1743C27.3456 29.5087 28.1119 29.3343 28.6776 29.3343C29.5597 29.3343 30.3573 29.3342 31.5104 29.2841L31.514 29.2839ZM39.4699 85.5044V68.7685C40.3159 68.7685 40.9717 68.7685 41.4699 68.801C41.5551 68.8065 41.6357 68.813 41.7118 68.8206C42.2332 68.8728 43.0674 68.8728 44.3186 68.8728C48.5939 68.8728 52.5041 68.4035 56.0494 67.1001C59.4383 65.8488 62.358 63.6591 64.4434 60.7394C66.5289 57.8198 67.5716 54.1181 67.5716 49.6343C67.5716 47.2882 67.1545 45.0463 66.3725 42.8565C65.5383 40.6146 64.2349 38.5813 62.5665 36.9129C60.5853 34.9839 58.187 33.524 55.5802 32.6377C52.6605 31.5429 49.1152 31.0215 44.84 31.0215C43.2759 31.0215 41.7118 31.0215 40.0956 31.0736C39.3153 31.0988 38.5593 31.1118 37.8276 31.1244C37.0437 31.1379 36.2878 31.1509 35.5597 31.1779C34.8769 31.2032 34.2187 31.2162 33.5791 31.2289C32.8999 31.2423 32.2417 31.2553 31.5973 31.2822C30.3981 31.3343 29.564 31.3343 28.6777 31.3343C28.3127 31.3343 28.1562 31.5429 28.1562 31.9078V85.5565C28.1562 86.0258 28.3648 86.2343 28.7819 86.2343H38.8964C39.2614 86.1822 39.5221 85.8694 39.4699 85.5044ZM56.2058 49.9471C56.2058 52.2411 55.6845 54.0138 54.5896 55.3172C53.4426 56.6206 51.9827 57.6112 50.3144 58.0805C48.3853 58.7061 46.352 59.0189 44.3186 59.0189H41.5554C40.9747 59.0189 40.349 58.974 39.6784 58.9259C39.6266 58.9221 39.5744 58.9184 39.5221 58.9146V41.3967C39.887 41.3446 40.6169 41.2924 41.6597 41.3446C42.6503 41.2924 43.8494 41.2924 45.205 41.2924C47.3426 41.2403 49.428 41.5531 51.3571 42.3352C52.8691 42.9087 54.1204 43.9514 55.0067 45.307C55.8409 46.7146 56.258 48.3309 56.2058 49.9471ZM53.3085 46.3647C52.6414 45.3599 51.7275 44.6147 50.6478 44.2052L50.6266 44.1971L50.6057 44.1886C48.9724 43.5265 47.1665 43.2452 45.2537 43.2918L45.2294 43.2924H45.205C43.8318 43.2924 42.6915 43.293 41.7648 43.3418L41.6623 43.3472L41.5598 43.3421C41.5472 43.3414 41.5346 43.3408 41.5221 43.3402V57.0189C41.5332 57.0189 41.5443 57.0189 41.5554 57.0189H44.3186C46.1485 57.0189 47.9732 56.7372 49.6974 56.178L49.7349 56.1658L49.7729 56.1552C51.016 55.8055 52.1491 55.0568 53.0721 54.0141C53.7582 53.1878 54.2058 51.9365 54.2058 49.9471V49.9149L54.2069 49.8826C54.2461 48.6654 53.9357 47.4393 53.3085 46.3647Z" fill="#E2D29E"/>
<path fill-rule="evenodd" clip-rule="evenodd" d="M99.1879 57.5112L99.1647 57.4988C97.7891 56.7651 96.3053 56.2514 94.6974 55.9203L94.6878 55.9183L94.6781 55.9163C92.8495 55.5209 91.066 55.2836 89.2614 55.2836H89.2115L89.1616 55.2812C88.3723 55.2417 87.4874 55.3603 86.6422 55.5828L86.6127 55.5905L86.5829 55.5974C86.3654 55.6476 86.2446 55.7366 86.184 55.803C86.1378 55.894 86.1111 55.994 86.1028 56.0597C86.1168 56.0931 86.1456 56.1488 86.1979 56.2225C86.4585 56.5294 86.8425 56.8309 87.3313 57.0955C88.446 57.6765 89.6168 58.2148 90.799 58.7091C93.7485 59.6989 96.5779 61.0635 99.1847 62.6928L99.1916 62.6971L99.1984 62.7015C101.186 63.966 102.83 65.6655 103.989 67.7405L104.012 67.7806L104.032 67.8217C105.003 69.7626 105.496 71.8956 105.443 74.0926C105.493 76.9441 104.642 79.7763 103.073 82.1298L103.061 82.1487L103.048 82.1673C101.371 84.562 99.0365 86.4228 96.3356 87.5084C93.4759 88.7295 90.0728 89.3289 86.1332 89.3289C83.6261 89.3289 81.1564 89.1115 78.6772 88.6177C76.6847 88.2735 74.698 87.6479 72.8758 86.7937L72.8026 86.7594L72.7324 86.7193C71.9556 86.2754 71.0485 85.296 71.1512 83.8996V74.9204C71.1512 74.5136 71.2619 73.446 72.2503 72.7871C72.7656 72.4436 73.3609 72.3325 73.9231 72.4262C74.3584 72.4988 74.6896 72.6799 74.881 72.8018C76.7189 73.8807 78.6506 74.6335 80.7372 75.1077L80.7702 75.1152L80.8029 75.1239C82.6109 75.5997 84.5249 75.8401 86.4461 75.8401C88.3046 75.8401 89.3479 75.5868 89.879 75.3213L89.9248 75.2984L89.9718 75.2778C90.0547 75.2416 90.1726 75.0971 90.1807 74.9375C90.1767 74.9285 90.1693 74.9136 90.1561 74.8919C90.1019 74.8021 89.9682 74.6306 89.6686 74.3872C89.4429 74.2037 88.9805 73.9209 88.1647 73.5348C87.3807 73.1637 86.3725 72.7441 85.1253 72.2601C82.3117 71.2642 79.7163 69.9372 77.2903 68.2831L77.2748 68.2725L77.2595 68.2617C75.3971 66.94 73.842 65.2027 72.7087 63.1747L72.6863 63.1346L72.6657 63.0935C71.6946 61.1511 71.1987 59.011 71.2555 56.8527C71.2608 54.2384 71.995 51.7603 73.309 49.5504L73.3204 49.5313L73.3321 49.5125C74.8429 47.0953 77.0619 45.1781 79.6257 43.9781C82.4481 42.5456 85.858 41.9512 89.7307 41.9512C91.9597 41.9512 94.2419 42.1138 96.4728 42.4397C98.1789 42.6683 99.822 43.1185 101.35 43.7335C101.79 43.8806 102.122 44.127 102.34 44.3299C102.601 44.5721 102.827 44.8682 102.99 45.1944L103.088 45.3907L103.141 45.6037C103.144 45.6144 103.147 45.6264 103.15 45.6396C103.197 45.8254 103.305 46.2497 103.305 46.7144V55.2127C103.305 56.0039 102.935 56.8776 102.154 57.3982L101.843 57.6054L101.478 57.6865C100.956 57.8024 100.087 57.9605 99.2114 57.5229L99.1879 57.5112ZM100.679 45.6195C99.2717 45.046 97.7597 44.6289 96.1956 44.4204C94.058 44.1076 91.8683 43.9512 89.7307 43.9512C86.029 43.9512 82.9529 44.5247 80.5025 45.776C78.2606 46.8187 76.3315 48.4871 75.0281 50.5725C73.8811 52.5016 73.2555 54.6392 73.2555 56.8811C73.2033 58.7059 73.6204 60.5307 74.4546 62.199C75.4452 63.9717 76.8007 65.4837 78.417 66.6307C80.711 68.1948 83.1614 69.446 85.8204 70.3845C88.3751 71.3751 90.0956 72.1572 90.9298 72.8349C91.764 73.5127 92.1811 74.1905 92.1811 74.9204C92.1811 75.8589 91.6076 76.7452 90.7734 77.1101C89.8349 77.5794 88.4272 77.8401 86.4461 77.8401C84.3606 77.8401 82.2751 77.5794 80.2939 77.058C78.4915 76.6484 76.7857 76.0456 75.1512 75.2245C75.1401 75.219 75.129 75.2134 75.118 75.2078C74.9336 75.1148 74.7501 75.019 74.5676 74.9204C74.3198 74.7866 74.0736 74.6476 73.829 74.5033C73.6725 74.399 73.5161 74.3469 73.3597 74.4512C73.2033 74.5554 73.1512 74.764 73.1512 74.9204V83.9922C73.099 84.4093 73.3597 84.7743 73.7247 84.9828C75.3931 85.7648 77.2178 86.3383 79.0426 86.6512C81.3888 87.1204 83.7349 87.3289 86.1332 87.3289C89.8871 87.3289 93.0153 86.7554 95.57 85.6606C97.9161 84.7221 99.9495 83.1059 101.409 81.0204C102.765 78.9871 103.495 76.5366 103.443 74.0862C103.495 72.2093 103.078 70.3845 102.243 68.7161C101.253 66.9435 99.8452 65.4837 98.1247 64.3888C95.6221 62.8247 92.911 61.5213 90.0956 60.5828C88.8443 60.0614 87.5931 59.4879 86.3939 58.8623C85.7161 58.4973 85.0905 58.0281 84.6213 57.4546C84.3084 57.0375 84.0999 56.5683 84.0999 56.099C84.0999 55.6298 84.2563 55.1084 84.517 54.6913C84.8819 54.17 85.4554 53.805 86.1332 53.6486C87.1238 53.3879 88.2187 53.2315 89.2614 53.2836C91.2426 53.2836 93.1717 53.5443 95.1007 53.9614C96.8734 54.3264 98.5418 54.8999 100.106 55.7341C100.314 55.8384 100.575 55.8384 101.044 55.7341C101.201 55.6298 101.305 55.4213 101.305 55.2127V46.7144C101.305 46.5059 101.253 46.2973 101.201 46.0888C101.096 45.8802 100.888 45.6717 100.679 45.6195Z" fill="#E2D29E"/>
</svg>
