<svg width="1310" height="546" viewBox="0 0 1310 546" fill="none" xmlns="http://www.w3.org/2000/svg">
<path d="M1 93C1 42.1898 42.1898 1 93 1H1217C1267.81 1 1309 42.1898 1309 93V453C1309 503.81 1267.81 545 1217 545H93C42.1898 545 1 503.81 1 453V93Z" stroke="#FFE9AD" stroke-width="2"/>
<path d="M75.1875 140.5C74.1042 140.5 72.6458 140 70.8125 139C69.7292 138.417 68.8125 137.771 68.0625 137.062C67.3542 136.354 67 135.771 67 135.312C67 134.104 69.6458 120.438 74.9375 94.3125C79.9792 69.5208 83.1458 54.5208 84.4375 49.3125C85.6042 44.9792 86.4375 42.8125 86.9375 42.8125C87.4375 42.8125 87.7292 44.2708 87.8125 47.1875L87.875 51.625L89.5 46.75C90.4583 44.0417 91.125 42.6667 91.5 42.625L92.0625 42.5625C92.6042 42.5625 92.875 43.4583 92.875 45.25V46.3125C92.8333 47.2292 92.8125 48.4375 92.8125 49.9375C92.8125 50.7708 92.9167 53.75 93.125 58.875C94.4167 53.5833 95.2292 50.3958 95.5625 49.3125C96.0208 47.8958 96.3542 47.1875 96.5625 47.1875C96.8958 47.1875 97.0625 48.7708 97.0625 51.9375C97.0625 54.0625 96.9583 56.4167 96.75 59C96.5833 61 96.3542 62.7292 96.0625 64.1875L90 93.875C87.2083 107.667 85.8125 115.75 85.8125 118.125C85.8125 118.417 85.8333 118.562 85.875 118.562C86.4583 118.562 88.2917 118.167 91.375 117.375C93.5417 116.875 95.1458 116.625 96.1875 116.625C97.1042 116.625 97.5625 116.792 97.5625 117.125C97.5625 117.5 96.875 118.083 95.5 118.875C94.1667 119.667 93.5 120.146 93.5 120.312C93.5 120.396 93.5625 120.438 93.6875 120.438C93.8958 120.438 94.2083 120.396 94.625 120.312C95.0417 120.229 95.3958 120.188 95.6875 120.188C96.6875 120.188 97.1875 120.438 97.1875 120.938C97.1875 121.229 96.8958 121.562 96.3125 121.938L96.125 122.062H96.1875C96.3125 122.062 96.6042 122 97.0625 121.875C98.9375 121.292 100.208 121 100.875 121C101.208 121 101.375 121.083 101.375 121.25C101.375 121.708 100.271 123.083 98.0625 125.375C95.8958 127.625 94.8125 128.896 94.8125 129.188C94.8125 129.229 94.8333 129.25 94.875 129.25C95.0417 129.25 95.6875 128.833 96.8125 128C98.3958 126.958 99.4167 126.438 99.875 126.438C100 126.438 100.062 126.5 100.062 126.625C100.062 127.292 98.75 128.854 96.125 131.312C93.7083 133.562 91.4792 135.208 89.4375 136.25C87.4375 137.333 84.6042 138.354 80.9375 139.312C78.1042 140.104 76.1875 140.5 75.1875 140.5ZM83 110.062C83.2917 110.062 83.4583 109.75 83.5 109.125C83.5 108.75 83.4167 108.375 83.25 108C83.125 107.667 83.0208 107.5 82.9375 107.5C82.7708 107.5 82.6667 107.875 82.625 108.625C82.625 109.583 82.75 110.062 83 110.062ZM86.125 94.5C86.1667 94.5 86.25 94.4375 86.375 94.3125C86.5 94.1875 86.5625 94.0208 86.5625 93.8125C86.5625 93.5625 86.5625 93.3958 86.5625 93.3125C86.5625 93.0208 86.5 92.7292 86.375 92.4375C86.25 92.1042 86.1458 91.9375 86.0625 91.9375C85.8958 91.9375 85.7917 92.3125 85.75 93.0625C85.75 94.0208 85.875 94.5 86.125 94.5ZM87.125 89.3125C87.4583 89.3125 87.625 89 87.625 88.375C87.625 88 87.5625 87.625 87.4375 87.25C87.2708 86.9167 87.1458 86.75 87.0625 86.75C86.8958 86.75 86.8125 87.25 86.8125 88.25C86.8125 88.9583 86.9167 89.3125 87.125 89.3125ZM92.375 64.125C92.4167 64.125 92.4792 64.0208 92.5625 63.8125C92.7292 63.4375 92.8125 63 92.8125 62.5C92.8125 62.0417 92.7292 61.625 92.5625 61.25C92.4792 61.0417 92.3958 60.9375 92.3125 60.9375C92.1458 60.9375 92.0625 61.4583 92.0625 62.5C92.0625 63.5833 92.1667 64.125 92.375 64.125Z" stroke="#FFE9AD" stroke-width="2"/>
<path d="M135.35 138.812C134.475 138.812 132.808 138.396 130.35 137.562C127.767 136.604 125.287 135.146 122.912 133.188C120.579 131.188 118.829 129.083 117.662 126.875C116.371 124.208 115.454 121.396 114.912 118.438C114.371 115.479 114.1 113 114.1 111C114.1 109.958 114.162 108.958 114.287 108C115.287 100.917 117.017 94.0208 119.475 87.3125C121.975 80.5625 124.683 75.3958 127.6 71.8125C129.017 70.2292 130.038 69.4375 130.663 69.4375C131.038 69.4375 131.225 69.625 131.225 70C131.225 70.5 130.913 71.3125 130.288 72.4375C129.829 73.1875 129.6 73.625 129.6 73.75V73.8125C129.767 73.8125 130.475 73.1042 131.725 71.6875C133.767 69.2292 135.954 65.5833 138.288 60.75C140.413 56.3333 142.6 52.8125 144.85 50.1875C147.142 47.5208 149.163 46.1458 150.913 46.0625C152.413 46.0625 153.871 45.875 155.288 45.5C155.538 45.4167 155.808 45.375 156.1 45.375C157.308 45.375 159.163 46.75 161.663 49.5C164.829 52.7083 166.892 56.1458 167.85 59.8125C168.808 63.4375 169.288 68.9792 169.288 76.4375C169.288 99.1458 165.829 115.792 158.913 126.375C156.871 129.5 154.704 131.833 152.413 133.375C149.663 135.25 146.288 136.583 142.288 137.375C138.788 138.333 136.475 138.812 135.35 138.812ZM152.038 130.312C152.204 130.312 152.433 130.188 152.725 129.938C153.392 129.438 154.058 128.583 154.725 127.375C155.225 126.542 155.475 126.042 155.475 125.875C155.475 125.792 155.454 125.75 155.413 125.75C155.246 125.75 154.704 126.208 153.788 127.125C152.413 128.292 151.725 129.167 151.725 129.75C151.725 130.125 151.829 130.312 152.038 130.312ZM140.163 126.625C140.829 126.625 141.163 126.521 141.163 126.312L141.038 126.125C140.871 125.958 140.621 125.875 140.288 125.875C139.954 125.875 139.621 125.938 139.288 126.062C138.954 126.188 138.788 126.292 138.788 126.375C138.788 126.542 139.246 126.625 140.163 126.625ZM123.662 123.562C124.037 123.562 124.225 123.417 124.225 123.125C124.225 122.75 123.975 122.292 123.475 121.75C123.058 121.375 122.767 121.188 122.6 121.188C122.433 121.188 122.35 121.333 122.35 121.625C122.35 122.042 122.433 122.438 122.6 122.812C122.808 123.146 122.996 123.354 123.162 123.438C123.371 123.521 123.537 123.562 123.662 123.562ZM136.788 122.812C138.079 122.812 139.517 122.396 141.1 121.562C143.1 120.479 145.079 118.833 147.038 116.625C148.996 114.417 150.517 112.062 151.6 109.562C152.683 107.021 153.6 103.167 154.35 98C155.142 92.8333 155.538 87.8958 155.538 83.1875C155.538 80.9792 155.371 78.4583 155.038 75.625C154.746 72.7917 154.392 70.3542 153.975 68.3125C153.558 66.2292 153.183 65.1458 152.85 65.0625C152.35 65.1458 151.392 66.4792 149.975 69.0625C146.933 74.3125 143.954 78.6875 141.038 82.1875C139.746 83.7292 138.913 84.5 138.538 84.5L138.225 84.4375C136.85 84.4375 134.558 87.8333 131.35 94.625C129.767 97.9583 128.975 101.688 128.975 105.812C129.058 117.146 131.663 122.812 136.788 122.812ZM125.6 101.625C125.85 101.625 125.975 101.125 125.975 100.125C125.975 99.1667 125.85 98.6875 125.6 98.6875C125.433 98.6875 125.35 99.1667 125.35 100.125C125.35 101.125 125.433 101.625 125.6 101.625ZM157.788 50.5C158.163 50.5 158.35 50.3542 158.35 50.0625C158.35 49.6042 158.1 49.1458 157.6 48.6875C157.183 48.3125 156.892 48.125 156.725 48.125C156.558 48.125 156.475 48.2708 156.475 48.5625C156.475 48.9792 156.579 49.375 156.788 49.75C156.996 50.0833 157.183 50.2917 157.35 50.375C157.558 50.4583 157.704 50.5 157.788 50.5Z" stroke="#FFE9AD" stroke-width="2"/>
<path d="M221.7 148.75C221.492 148.75 221.262 148.438 221.012 147.812C220.637 146.896 220.2 146.438 219.7 146.438C219.575 146.438 219.471 146.479 219.387 146.562C219.096 146.562 218.867 145.438 218.7 143.188C218.533 140.979 218.45 133.875 218.45 121.875L212.637 127.25C209.429 130.25 206.7 132.354 204.45 133.562C202.2 134.771 199.2 135.792 195.45 136.625C192.992 137.167 191.387 137.438 190.637 137.438C189.846 137.438 189.054 137.25 188.262 136.875C187.512 136.542 184.95 134.875 180.575 131.875L180.262 123.75C180.262 114.5 182.533 103.812 187.075 91.6875C191.658 79.5625 197.242 69.5833 203.825 61.75C206.658 58.4583 209.45 56.0625 212.2 54.5625C214.95 53.0208 218.471 51.9167 222.762 51.25C225.804 50.75 227.867 50.2708 228.95 49.8125C230.075 49.3542 230.658 48.7292 230.7 47.9375C231.158 45.8542 231.679 44.8125 232.262 44.8125C232.721 44.8125 232.95 45.6042 232.95 47.1875C232.95 49.3542 233.283 50.4375 233.95 50.4375C234.533 50.4375 235.054 49.4375 235.512 47.4375C236.012 45.3958 236.492 44.375 236.95 44.375C237.075 44.375 237.304 44.5833 237.637 45C237.971 45.375 238.137 47.2083 238.137 50.5C238.137 52.25 238.242 53.7292 238.45 54.9375C238.658 56.1458 238.908 56.75 239.2 56.75C239.492 56.75 239.721 56.5625 239.887 56.1875C240.096 55.7708 240.2 55.2917 240.2 54.75C240.2 53.4167 240.429 52.2083 240.887 51.125C241.346 50.0417 241.846 49.5 242.387 49.5C243.012 49.5 243.325 50.75 243.325 53.25C243.325 56.4167 243.054 59.9583 242.512 63.875C241.429 71.875 240.096 76.9375 238.512 79.0625C237.929 79.8542 237.429 80.25 237.012 80.25C236.679 80.25 236.512 79.9375 236.512 79.3125C236.512 78.8542 236.804 77.375 237.387 74.875L235.2 77.1875C233.7 78.7708 232.95 79.9375 232.95 80.6875C232.95 81.3958 232.783 81.75 232.45 81.75C231.658 81.75 230.95 80.7708 230.325 78.8125C229.992 77.5208 229.721 76.875 229.512 76.875C229.346 76.875 229.2 77.1458 229.075 77.6875C228.95 78.2292 228.742 78.6875 228.45 79.0625C228.2 79.3958 227.95 79.5625 227.7 79.5625C226.95 79.5625 226.575 78.0417 226.575 75C226.575 74 226.617 72.8333 226.7 71.5L226.762 70.5C226.762 68.9583 226.242 68.1875 225.2 68.1875C219.908 68.1875 213.262 75.0417 205.262 88.75C203.096 92.6667 201.179 96.8542 199.512 101.312C196.887 108.271 195.575 113.229 195.575 116.188C195.575 117.354 195.867 117.938 196.45 117.938C196.908 117.938 198.408 116.667 200.95 114.125C203.533 111.542 206.283 108.625 209.2 105.375C212.117 102.125 214.492 99.3125 216.325 96.9375C217.575 95.2708 218.679 93.875 219.637 92.75C220.596 91.5833 221.179 90.9792 221.387 90.9375C221.637 90.8958 222.179 90.8333 223.012 90.75C223.887 90.6667 224.867 90.5625 225.95 90.4375C226.658 90.3542 227.262 90.3125 227.762 90.3125C228.429 90.3125 228.992 90.4167 229.45 90.625C229.908 90.8333 230.242 91.4792 230.45 92.5625C230.658 93.3125 230.95 93.9375 231.325 94.4375C231.742 94.8958 232.137 95.125 232.512 95.125C232.887 95.125 233.325 95.3333 233.825 95.75C234.325 96.125 234.721 96.6042 235.012 97.1875C235.429 98.1875 235.637 99.8333 235.637 102.125C235.637 104.042 235.387 107.271 234.887 111.812C234.429 116.354 233.471 122.062 232.012 128.938C230.596 135.812 229.054 141.146 227.387 144.938L225.7 148.562C226.825 141.146 227.387 137.042 227.387 136.25C227.387 136.083 227.367 136 227.325 136C227.2 136 226.887 136.896 226.387 138.688C225.471 141.771 224.471 144.375 223.387 146.5C222.637 148 222.075 148.75 221.7 148.75ZM228.262 133.062C228.304 133.062 228.367 132.958 228.45 132.75C228.617 132.333 228.7 131.896 228.7 131.438C228.7 130.979 228.617 130.542 228.45 130.125C228.367 129.917 228.304 129.812 228.262 129.812C228.054 129.812 227.95 130.354 227.95 131.438C227.95 132.479 228.054 133.021 228.262 133.062ZM209.325 126.25C209.617 126.25 210.408 125.562 211.7 124.188C212.658 123.146 213.137 122.479 213.137 122.188C213.137 122.146 213.117 122.125 213.075 122.125C212.742 122.125 211.929 122.812 210.637 124.188C209.679 125.271 209.2 125.938 209.2 126.188C209.2 126.229 209.242 126.25 209.325 126.25ZM191.887 113.625C192.179 113.625 192.346 113.312 192.387 112.688C192.387 112.312 192.325 111.938 192.2 111.562C192.033 111.229 191.908 111.062 191.825 111.062C191.658 111.062 191.575 111.562 191.575 112.562C191.575 113.271 191.679 113.625 191.887 113.625ZM231.95 102.375C232.242 102.375 232.471 102.229 232.637 101.938C232.846 101.646 232.95 101.271 232.95 100.812C232.95 100.396 232.846 100.042 232.637 99.75C232.471 99.4583 232.242 99.3125 231.95 99.3125C231.658 99.3125 231.408 99.4583 231.2 99.75C230.992 100.042 230.887 100.396 230.887 100.812C230.887 101.271 230.992 101.646 231.2 101.938C231.408 102.229 231.658 102.375 231.95 102.375ZM219.825 56.375C220.408 56.375 221.346 56.2917 222.637 56.125C223.929 55.9167 225.054 55.7083 226.012 55.5C226.971 55.2917 227.533 55.1458 227.7 55.0625L227.762 54.875C227.762 54.7083 227.283 54.625 226.325 54.625C224.783 54.625 223.179 54.7917 221.512 55.125C219.846 55.4167 219.012 55.7708 219.012 56.1875C219.012 56.3125 219.283 56.375 219.825 56.375Z" stroke="#FFE9AD" stroke-width="2"/>
<path d="M271.8 138.812C270.925 138.812 269.258 138.396 266.8 137.562C264.217 136.604 261.737 135.146 259.362 133.188C257.029 131.188 255.279 129.083 254.113 126.875C252.821 124.208 251.904 121.396 251.363 118.438C250.821 115.479 250.55 113 250.55 111C250.55 109.958 250.613 108.958 250.738 108C251.738 100.917 253.467 94.0208 255.925 87.3125C258.425 80.5625 261.133 75.3958 264.05 71.8125C265.467 70.2292 266.487 69.4375 267.112 69.4375C267.487 69.4375 267.675 69.625 267.675 70C267.675 70.5 267.362 71.3125 266.737 72.4375C266.279 73.1875 266.05 73.625 266.05 73.75V73.8125C266.217 73.8125 266.925 73.1042 268.175 71.6875C270.217 69.2292 272.404 65.5833 274.737 60.75C276.862 56.3333 279.05 52.8125 281.3 50.1875C283.592 47.5208 285.612 46.1458 287.362 46.0625C288.862 46.0625 290.321 45.875 291.737 45.5C291.987 45.4167 292.258 45.375 292.55 45.375C293.758 45.375 295.612 46.75 298.112 49.5C301.279 52.7083 303.342 56.1458 304.3 59.8125C305.258 63.4375 305.737 68.9792 305.737 76.4375C305.737 99.1458 302.279 115.792 295.362 126.375C293.321 129.5 291.154 131.833 288.862 133.375C286.112 135.25 282.737 136.583 278.737 137.375C275.237 138.333 272.925 138.812 271.8 138.812ZM288.487 130.312C288.654 130.312 288.883 130.188 289.175 129.938C289.842 129.438 290.508 128.583 291.175 127.375C291.675 126.542 291.925 126.042 291.925 125.875C291.925 125.792 291.904 125.75 291.862 125.75C291.696 125.75 291.154 126.208 290.237 127.125C288.862 128.292 288.175 129.167 288.175 129.75C288.175 130.125 288.279 130.312 288.487 130.312ZM276.612 126.625C277.279 126.625 277.612 126.521 277.612 126.312L277.487 126.125C277.321 125.958 277.071 125.875 276.737 125.875C276.404 125.875 276.071 125.938 275.737 126.062C275.404 126.188 275.237 126.292 275.237 126.375C275.237 126.542 275.696 126.625 276.612 126.625ZM260.112 123.562C260.487 123.562 260.675 123.417 260.675 123.125C260.675 122.75 260.425 122.292 259.925 121.75C259.508 121.375 259.217 121.188 259.05 121.188C258.883 121.188 258.8 121.333 258.8 121.625C258.8 122.042 258.883 122.438 259.05 122.812C259.258 123.146 259.446 123.354 259.612 123.438C259.821 123.521 259.987 123.562 260.112 123.562ZM273.237 122.812C274.529 122.812 275.967 122.396 277.55 121.562C279.55 120.479 281.529 118.833 283.487 116.625C285.446 114.417 286.967 112.062 288.05 109.562C289.133 107.021 290.05 103.167 290.8 98C291.592 92.8333 291.987 87.8958 291.987 83.1875C291.987 80.9792 291.821 78.4583 291.487 75.625C291.196 72.7917 290.842 70.3542 290.425 68.3125C290.008 66.2292 289.633 65.1458 289.3 65.0625C288.8 65.1458 287.842 66.4792 286.425 69.0625C283.383 74.3125 280.404 78.6875 277.487 82.1875C276.196 83.7292 275.362 84.5 274.987 84.5L274.675 84.4375C273.3 84.4375 271.008 87.8333 267.8 94.625C266.217 97.9583 265.425 101.688 265.425 105.812C265.508 117.146 268.112 122.812 273.237 122.812ZM262.05 101.625C262.3 101.625 262.425 101.125 262.425 100.125C262.425 99.1667 262.3 98.6875 262.05 98.6875C261.883 98.6875 261.8 99.1667 261.8 100.125C261.8 101.125 261.883 101.625 262.05 101.625ZM294.237 50.5C294.612 50.5 294.8 50.3542 294.8 50.0625C294.8 49.6042 294.55 49.1458 294.05 48.6875C293.633 48.3125 293.342 48.125 293.175 48.125C293.008 48.125 292.925 48.2708 292.925 48.5625C292.925 48.9792 293.029 49.375 293.237 49.75C293.446 50.0833 293.633 50.2917 293.8 50.375C294.008 50.4583 294.154 50.5 294.237 50.5Z" stroke="#FFE9AD" stroke-width="2"/>
<path d="M334.337 139.062C334.254 139.062 333.546 139.042 332.212 139C330.921 139 329.129 138.333 326.837 137C325.546 136.208 324.483 135.375 323.65 134.5C322.858 133.583 322.442 132.854 322.4 132.312C322.4 132.021 322.587 131.875 322.962 131.875C323.212 131.875 323.567 131.979 324.025 132.188C324.483 132.354 324.817 132.438 325.025 132.438C325.233 132.438 325.337 132.312 325.337 132.062C325.337 131.854 325.254 131.562 325.087 131.188V131.125C324.129 129 323.65 127.75 323.65 127.375C323.65 127.208 323.775 127.125 324.025 127.125C324.317 127.125 324.858 127.292 325.65 127.625C326.442 127.917 327.004 128.062 327.337 128.062C327.629 128.062 327.775 127.896 327.775 127.562C327.775 127.312 327.712 126.958 327.587 126.5C327.462 126.042 327.212 125.646 326.837 125.312C326.504 124.938 326.15 124.75 325.775 124.75C325.4 124.75 325.087 124.667 324.837 124.5C324.587 124.292 324.462 124.062 324.462 123.812C324.462 123.062 326.421 122.688 330.337 122.688C331.712 122.688 333.358 122.729 335.275 122.812H335.525C338.067 122.812 340.858 122.208 343.9 121C346.942 119.792 349.587 118.292 351.837 116.5C354.129 114.667 355.275 112.979 355.275 111.438C355.275 109.146 354.254 108 352.212 108C352.171 108 351.608 108.021 350.525 108.062C349.442 108.104 346.525 109.354 341.775 111.812C338.192 113.646 334.337 115.083 330.212 116.125C327.379 116.875 325.462 117.25 324.462 117.25C323.421 117.25 322.046 116.771 320.337 115.812C318.921 115.146 317.942 114.333 317.4 113.375C316.942 112.583 316.712 111.5 316.712 110.125C316.712 108.167 317.233 104.812 318.275 100.062C320.775 88.2708 324.692 77.8333 330.025 68.75C335.4 59.6667 341.567 53.0208 348.525 48.8125C350.275 47.7292 351.921 47.0417 353.462 46.75C355.046 46.4167 357.796 46.25 361.712 46.25C368.379 46.25 371.712 46.7292 371.712 47.6875C371.712 47.8542 371.587 48.0417 371.337 48.25C371.129 48.4583 370.358 48.6042 369.025 48.6875C367.692 48.7708 366.087 48.8125 364.212 48.8125H362.9C361.567 48.8125 360.275 48.8542 359.025 48.9375C357.275 49.1042 356.4 49.3125 356.4 49.5625C356.4 49.9792 358.9 50.2292 363.9 50.3125C369.4 50.4375 373.004 50.9167 374.712 51.75C375.546 52.2083 375.962 52.5417 375.962 52.75C375.962 53 374.567 53.25 371.775 53.5C368.983 53.75 367.587 53.9792 367.587 54.1875C367.587 54.3542 367.983 54.5625 368.775 54.8125C370.483 55.5625 372.046 56.6042 373.462 57.9375L375.775 60.25H372.275C369.942 60.25 368.775 60.5417 368.775 61.125C368.775 61.5 367.921 61.6875 366.212 61.6875C365.462 61.6875 364.587 61.625 363.587 61.5C362.629 61.375 361.754 61.3125 360.962 61.3125C360.046 61.3125 359.15 61.4375 358.275 61.6875C357.442 61.9375 356.108 62.7917 354.275 64.25C347.9 69.3333 342.171 76.7083 337.087 86.375C334.462 91.5 333.15 94.8542 333.15 96.4375C333.15 97.1458 333.4 97.5 333.9 97.5C334.15 97.5 334.442 97.4167 334.775 97.25C342.775 93.8333 349.504 92.125 354.962 92.125C357.337 92.125 359.233 92.5 360.65 93.25C362.317 94.2917 364.087 95.9792 365.962 98.3125C367.837 100.604 369.067 102.625 369.65 104.375C369.817 105.167 369.9 106.125 369.9 107.25C369.9 108.833 369.629 111.167 369.087 114.25C368.587 117.292 367.692 120.229 366.4 123.062C363.567 129.354 356.275 134.083 344.525 137.25C340.275 138.458 336.879 139.062 334.337 139.062ZM338.025 127.5C338.775 127.5 339.858 127.229 341.275 126.688C341.983 126.438 342.337 126.229 342.337 126.062C342.337 125.896 341.733 125.812 340.525 125.812H339.587C338.921 125.812 338.317 125.896 337.775 126.062C337.233 126.229 336.962 126.438 336.962 126.688C336.962 127.229 337.317 127.5 338.025 127.5ZM359.712 127.25C359.879 127.208 360.15 127.021 360.525 126.688C360.942 126.354 361.296 125.979 361.587 125.562C361.879 125.146 362.025 124.792 362.025 124.5C362.025 124.292 361.921 124.188 361.712 124.188C361.379 124.188 361.004 124.375 360.587 124.75C359.587 125.542 359.087 126.271 359.087 126.938C359.087 127.146 359.192 127.25 359.4 127.25H359.712ZM320.025 113.062C320.317 113.062 320.462 112.688 320.462 111.938C320.462 111.646 320.4 111.375 320.275 111.125C320.15 110.792 320.046 110.625 319.962 110.625C319.837 110.625 319.754 110.979 319.712 111.688C319.712 112.604 319.817 113.062 320.025 113.062ZM366.712 106.438C367.046 106.438 367.212 106.167 367.212 105.625C367.212 105.333 367.171 104.979 367.087 104.562C366.796 103.271 366.504 102.625 366.212 102.625C365.962 102.625 365.837 103.271 365.837 104.562C365.837 105.062 365.921 105.5 366.087 105.875C366.296 106.25 366.504 106.438 366.712 106.438ZM345.775 97.4375C347.233 97.4375 349.046 97.125 351.212 96.5C352.879 96 353.712 95.6042 353.712 95.3125C353.712 95.2292 353.546 95.1875 353.212 95.1875C351.754 95.1875 349.942 95.5 347.775 96.125C346.108 96.625 345.275 97.0208 345.275 97.3125C345.275 97.3958 345.442 97.4375 345.775 97.4375Z" stroke="#FFE9AD" stroke-width="2"/>
</svg>
