<svg width="869" height="68" viewBox="0 0 869 68" fill="none" xmlns="http://www.w3.org/2000/svg">
<path d="M4.0752 19H1.12988C1.06217 19 1.02832 18.9577 1.02832 18.873L1.0791 1.01074C1.0791 0.943034 1.11296 0.90918 1.18066 0.90918H4.35449C4.4222 0.90918 4.48145 0.943034 4.53223 1.01074L6.90625 4.43848L9.26758 1.01074C9.31836 0.943034 9.38184 0.90918 9.45801 0.90918H12.6445C12.7207 0.90918 12.7588 0.943034 12.7588 1.01074L12.8096 18.873C12.8096 18.9577 12.7757 19 12.708 19H9.7627C9.69499 19 9.66113 18.9577 9.66113 18.873L9.63574 5.60645L6.90625 9.56738L4.20215 5.60645L4.17676 18.873C4.17676 18.9577 4.1429 19 4.0752 19ZM20.4141 19H17.4307C17.3714 19 17.3418 18.9661 17.3418 18.8984L17.3672 11.5098L13.8887 1.01074C13.8717 0.943034 13.8971 0.90918 13.9648 0.90918H16.8594C16.944 0.90918 16.9948 0.943034 17.0117 1.01074L18.9287 8.00586L20.8838 1.01074C20.9007 0.943034 20.943 0.90918 21.0107 0.90918H23.9307C23.9984 0.90918 24.0238 0.943034 24.0068 1.01074L20.4902 11.4082L20.5156 18.8984C20.5156 18.9661 20.4818 19 20.4141 19ZM36.9434 19.2539C36.0039 19.2539 35.1576 19.0212 34.4043 18.5557C33.6426 18.0902 33.029 17.4639 32.5635 16.6768C32.1064 15.8896 31.8779 15.0094 31.8779 14.0361V5.79688C31.8779 4.84896 32.1107 3.98568 32.5762 3.20703C33.0332 2.41992 33.6468 1.79362 34.417 1.32812C35.1872 0.854167 36.0293 0.617188 36.9434 0.617188C37.8997 0.617188 38.763 0.845703 39.5332 1.30273C40.3034 1.76823 40.9128 2.3903 41.3613 3.16895C41.8184 3.94759 42.0469 4.82357 42.0469 5.79688V6.99023C42.0469 7.05794 42.0046 7.0918 41.9199 7.0918H39C38.9323 7.0918 38.8984 7.05794 38.8984 6.99023V6C38.8984 5.33984 38.7122 4.79395 38.3398 4.3623C37.9674 3.93066 37.502 3.71484 36.9434 3.71484C36.444 3.71484 35.9997 3.9222 35.6104 4.33691C35.221 4.75163 35.0264 5.23828 35.0264 5.79688V14.0361C35.0264 14.6032 35.2168 15.0941 35.5977 15.5088C35.9785 15.915 36.4271 16.1182 36.9434 16.1182C37.502 16.1182 37.9674 15.9193 38.3398 15.5215C38.7122 15.1152 38.8984 14.6201 38.8984 14.0361V12.7539H37.083C36.9899 12.7539 36.9434 12.7116 36.9434 12.627V9.71973C36.9434 9.63509 36.9899 9.59277 37.083 9.59277H41.9453C42.013 9.59277 42.0469 9.63509 42.0469 9.71973V14.0361C42.0469 15.0094 41.8184 15.8896 41.3613 16.6768C40.8958 17.4639 40.2822 18.0902 39.5205 18.5557C38.7588 19.0212 37.8997 19.2539 36.9434 19.2539ZM48.6992 19.2539C47.7767 19.2539 46.9261 19.0169 46.1475 18.543C45.3773 18.069 44.7552 17.4385 44.2812 16.6514C43.8158 15.8558 43.583 14.984 43.583 14.0361L43.6084 5.79688C43.6084 4.83203 43.8411 3.96452 44.3066 3.19434C44.7637 2.41569 45.3815 1.79362 46.1602 1.32812C46.9388 0.854167 47.7852 0.617188 48.6992 0.617188C49.6471 0.617188 50.4977 0.849935 51.251 1.31543C52.0127 1.78092 52.6221 2.40723 53.0791 3.19434C53.5446 3.97298 53.7773 4.84049 53.7773 5.79688L53.8027 14.0361C53.8027 14.984 53.5742 15.8516 53.1172 16.6387C52.6517 17.4342 52.0339 18.069 51.2637 18.543C50.4935 19.0169 49.6387 19.2539 48.6992 19.2539ZM48.6992 16.1182C49.224 16.1182 49.681 15.9066 50.0703 15.4834C50.4596 15.0518 50.6543 14.5693 50.6543 14.0361L50.6289 5.79688C50.6289 5.22135 50.4469 4.7347 50.083 4.33691C49.7191 3.93913 49.2578 3.74023 48.6992 3.74023C48.166 3.74023 47.709 3.9349 47.3281 4.32422C46.9473 4.71354 46.7568 5.20443 46.7568 5.79688V14.0361C46.7568 14.6032 46.9473 15.0941 47.3281 15.5088C47.709 15.915 48.166 16.1182 48.6992 16.1182ZM54.3613 18.873L57.5859 1.01074C57.6029 0.943034 57.6452 0.90918 57.7129 0.90918H61.4834C61.5511 0.90918 61.5934 0.943034 61.6104 1.01074L64.708 18.873C64.7165 18.9577 64.6826 19 64.6064 19H61.7246C61.64 19 61.5934 18.9577 61.585 18.873L61.3057 16.9688H57.7637L57.4844 18.873C57.4759 18.9577 57.4336 19 57.3574 19H54.4629C54.3952 19 54.3613 18.9577 54.3613 18.873ZM59.4521 6.88867L58.2842 14.1885H60.7852L59.7188 6.88867L59.5664 5.92383L59.4521 6.88867ZM74.8389 19H66.4346C66.3669 19 66.333 18.9577 66.333 18.873L66.3584 1.03613C66.3584 0.951497 66.4007 0.90918 66.4854 0.90918H69.3799C69.4645 0.90918 69.5068 0.951497 69.5068 1.03613L69.4814 15.8008H74.8389C74.9235 15.8008 74.9658 15.8431 74.9658 15.9277V18.873C74.9658 18.9577 74.9235 19 74.8389 19ZM86.4932 19H83.5479C83.4632 19 83.4209 18.9577 83.4209 18.873L83.4463 1.01074C83.4463 0.943034 83.4801 0.90918 83.5479 0.90918H86.4678C86.5355 0.90918 86.5693 0.943034 86.5693 1.01074L86.5947 18.873C86.5947 18.9577 86.5609 19 86.4932 19ZM93.2979 19.2539C92.3753 19.2539 91.5247 19.0169 90.7461 18.543C89.9759 18.069 89.3581 17.4385 88.8926 16.6514C88.4355 15.8558 88.207 14.984 88.207 14.0361V12.8428C88.207 12.7497 88.2493 12.7031 88.334 12.7031H91.2539C91.3216 12.7031 91.3555 12.7497 91.3555 12.8428V14.0361C91.3555 14.6032 91.5459 15.0941 91.9268 15.5088C92.3076 15.915 92.7646 16.1182 93.2979 16.1182C93.8395 16.1182 94.3008 15.9108 94.6816 15.4961C95.0625 15.0729 95.2529 14.5863 95.2529 14.0361C95.2529 13.4014 94.8382 12.847 94.0088 12.373C93.8734 12.2884 93.6956 12.1868 93.4756 12.0684C93.264 11.9414 93.0101 11.7975 92.7139 11.6367C92.4176 11.4759 92.1299 11.3193 91.8506 11.167C91.5713 11.0062 91.3005 10.8538 91.0381 10.71C90.0902 10.1514 89.3835 9.45312 88.918 8.61523C88.4609 7.76888 88.2324 6.82096 88.2324 5.77148C88.2324 4.80664 88.4694 3.9349 88.9434 3.15625C89.4173 2.38607 90.0352 1.77669 90.7969 1.32812C91.5671 0.871094 92.4007 0.642578 93.2979 0.642578C94.2204 0.642578 95.0667 0.871094 95.8369 1.32812C96.6071 1.79362 97.2207 2.41146 97.6777 3.18164C98.1432 3.95182 98.376 4.8151 98.376 5.77148V7.9043C98.376 7.97201 98.3421 8.00586 98.2744 8.00586H95.3545C95.2868 8.00586 95.2529 7.97201 95.2529 7.9043L95.2275 5.77148C95.2275 5.16211 95.0371 4.66699 94.6562 4.28613C94.2754 3.90527 93.8226 3.71484 93.2979 3.71484C92.7646 3.71484 92.3076 3.91797 91.9268 4.32422C91.5459 4.73047 91.3555 5.21289 91.3555 5.77148C91.3555 6.33854 91.474 6.8125 91.7109 7.19336C91.9564 7.57422 92.4007 7.93815 93.0439 8.28516C93.1117 8.31901 93.2682 8.40365 93.5137 8.53906C93.7591 8.67448 94.0299 8.82682 94.3262 8.99609C94.6309 9.1569 94.9059 9.30501 95.1514 9.44043C95.3968 9.56738 95.5449 9.64355 95.5957 9.66895C96.459 10.1514 97.1403 10.7438 97.6396 11.4463C98.1475 12.1488 98.4014 13.012 98.4014 14.0361C98.4014 15.0264 98.1729 15.915 97.7158 16.7021C97.2503 17.4893 96.6325 18.1113 95.8623 18.5684C95.0921 19.0254 94.2373 19.2539 93.2979 19.2539ZM112.506 19H109.573C109.497 19 109.459 18.9577 109.459 18.873V4.04492H106.082C105.997 4.04492 105.955 4.0026 105.955 3.91797L105.98 1.01074C105.98 0.943034 106.014 0.90918 106.082 0.90918H115.959C116.052 0.90918 116.099 0.943034 116.099 1.01074V3.91797C116.099 4.0026 116.065 4.04492 115.997 4.04492H112.582L112.607 18.873C112.607 18.9577 112.574 19 112.506 19ZM121.646 19.2539C120.724 19.2539 119.873 19.0169 119.095 18.543C118.325 18.069 117.702 17.4385 117.229 16.6514C116.763 15.8558 116.53 14.984 116.53 14.0361L116.556 5.79688C116.556 4.83203 116.788 3.96452 117.254 3.19434C117.711 2.41569 118.329 1.79362 119.107 1.32812C119.886 0.854167 120.732 0.617188 121.646 0.617188C122.594 0.617188 123.445 0.849935 124.198 1.31543C124.96 1.78092 125.569 2.40723 126.026 3.19434C126.492 3.97298 126.725 4.84049 126.725 5.79688L126.75 14.0361C126.75 14.984 126.521 15.8516 126.064 16.6387C125.599 17.4342 124.981 18.069 124.211 18.543C123.441 19.0169 122.586 19.2539 121.646 19.2539ZM121.646 16.1182C122.171 16.1182 122.628 15.9066 123.018 15.4834C123.407 15.0518 123.602 14.5693 123.602 14.0361L123.576 5.79688C123.576 5.22135 123.394 4.7347 123.03 4.33691C122.666 3.93913 122.205 3.74023 121.646 3.74023C121.113 3.74023 120.656 3.9349 120.275 4.32422C119.895 4.71354 119.704 5.20443 119.704 5.79688V14.0361C119.704 14.6032 119.895 15.0941 120.275 15.5088C120.656 15.915 121.113 16.1182 121.646 16.1182ZM134.596 18.873L137.82 1.01074C137.837 0.943034 137.88 0.90918 137.947 0.90918H141.718C141.785 0.90918 141.828 0.943034 141.845 1.01074L144.942 18.873C144.951 18.9577 144.917 19 144.841 19H141.959C141.874 19 141.828 18.9577 141.819 18.873L141.54 16.9688H137.998L137.719 18.873C137.71 18.9577 137.668 19 137.592 19H134.697C134.63 19 134.596 18.9577 134.596 18.873ZM139.687 6.88867L138.519 14.1885H141.02L139.953 6.88867L139.801 5.92383L139.687 6.88867ZM155.073 19H146.669C146.601 19 146.567 18.9577 146.567 18.873L146.593 1.03613C146.593 0.951497 146.635 0.90918 146.72 0.90918H149.614C149.699 0.90918 149.741 0.951497 149.741 1.03613L149.716 15.8008H155.073C155.158 15.8008 155.2 15.8431 155.2 15.9277V18.873C155.2 18.9577 155.158 19 155.073 19ZM161.154 19H158.006C157.93 19 157.887 18.9577 157.879 18.873L154.807 1.01074C154.79 0.943034 154.815 0.90918 154.883 0.90918H157.803C157.87 0.90918 157.913 0.943034 157.93 1.01074L159.593 12.7539L161.307 1.01074C161.324 0.943034 161.374 0.90918 161.459 0.90918H163.808C163.875 0.90918 163.918 0.943034 163.935 1.01074L165.623 12.7539L167.312 1.01074C167.328 0.943034 167.371 0.90918 167.438 0.90918H170.333C170.418 0.90918 170.451 0.943034 170.435 1.01074L167.337 18.873C167.328 18.9069 167.303 18.9365 167.261 18.9619L167.21 19H164.062C164.011 19 163.968 18.9577 163.935 18.873L162.602 9.54199L161.281 18.873C161.273 18.9577 161.23 19 161.154 19ZM169.508 18.873L172.732 1.01074C172.749 0.943034 172.792 0.90918 172.859 0.90918H176.63C176.698 0.90918 176.74 0.943034 176.757 1.01074L179.854 18.873C179.863 18.9577 179.829 19 179.753 19H176.871C176.786 19 176.74 18.9577 176.731 18.873L176.452 16.9688H172.91L172.631 18.873C172.622 18.9577 172.58 19 172.504 19H169.609C169.542 19 169.508 18.9577 169.508 18.873ZM174.599 6.88867L173.431 14.1885H175.932L174.865 6.88867L174.713 5.92383L174.599 6.88867ZM185.072 19H182.089C182.03 19 182 18.9661 182 18.8984L182.025 11.5098L178.547 1.01074C178.53 0.943034 178.555 0.90918 178.623 0.90918H181.518C181.602 0.90918 181.653 0.943034 181.67 1.01074L183.587 8.00586L185.542 1.01074C185.559 0.943034 185.601 0.90918 185.669 0.90918H188.589C188.657 0.90918 188.682 0.943034 188.665 1.01074L185.148 11.4082L185.174 18.8984C185.174 18.9661 185.14 19 185.072 19ZM193.972 19.2539C193.049 19.2539 192.199 19.0169 191.42 18.543C190.65 18.069 190.032 17.4385 189.566 16.6514C189.109 15.8558 188.881 14.984 188.881 14.0361V12.8428C188.881 12.7497 188.923 12.7031 189.008 12.7031H191.928C191.995 12.7031 192.029 12.7497 192.029 12.8428V14.0361C192.029 14.6032 192.22 15.0941 192.601 15.5088C192.981 15.915 193.438 16.1182 193.972 16.1182C194.513 16.1182 194.975 15.9108 195.355 15.4961C195.736 15.0729 195.927 14.5863 195.927 14.0361C195.927 13.4014 195.512 12.847 194.683 12.373C194.547 12.2884 194.369 12.1868 194.149 12.0684C193.938 11.9414 193.684 11.7975 193.388 11.6367C193.091 11.4759 192.804 11.3193 192.524 11.167C192.245 11.0062 191.974 10.8538 191.712 10.71C190.764 10.1514 190.057 9.45312 189.592 8.61523C189.135 7.76888 188.906 6.82096 188.906 5.77148C188.906 4.80664 189.143 3.9349 189.617 3.15625C190.091 2.38607 190.709 1.77669 191.471 1.32812C192.241 0.871094 193.075 0.642578 193.972 0.642578C194.894 0.642578 195.741 0.871094 196.511 1.32812C197.281 1.79362 197.895 2.41146 198.352 3.18164C198.817 3.95182 199.05 4.8151 199.05 5.77148V7.9043C199.05 7.97201 199.016 8.00586 198.948 8.00586H196.028C195.961 8.00586 195.927 7.97201 195.927 7.9043L195.901 5.77148C195.901 5.16211 195.711 4.66699 195.33 4.28613C194.949 3.90527 194.496 3.71484 193.972 3.71484C193.438 3.71484 192.981 3.91797 192.601 4.32422C192.22 4.73047 192.029 5.21289 192.029 5.77148C192.029 6.33854 192.148 6.8125 192.385 7.19336C192.63 7.57422 193.075 7.93815 193.718 8.28516C193.785 8.31901 193.942 8.40365 194.188 8.53906C194.433 8.67448 194.704 8.82682 195 8.99609C195.305 9.1569 195.58 9.30501 195.825 9.44043C196.071 9.56738 196.219 9.64355 196.27 9.66895C197.133 10.1514 197.814 10.7438 198.313 11.4463C198.821 12.1488 199.075 13.012 199.075 14.0361C199.075 15.0264 198.847 15.915 198.39 16.7021C197.924 17.4893 197.306 18.1113 196.536 18.5684C195.766 19.0254 194.911 19.2539 193.972 19.2539ZM212.418 19.2539C211.479 19.2539 210.619 19.0169 209.841 18.543C209.071 18.069 208.457 17.4342 208 16.6387C207.551 15.8346 207.327 14.9417 207.327 13.96L207.353 5.84766C207.353 4.88281 207.573 4.01107 208.013 3.23242C208.453 2.44531 209.058 1.81478 209.828 1.34082C210.607 0.858398 211.47 0.617188 212.418 0.617188C213.383 0.617188 214.242 0.849935 214.995 1.31543C215.757 1.78092 216.362 2.41146 216.811 3.20703C217.268 3.99414 217.496 4.87435 217.496 5.84766V7.04102C217.496 7.10872 217.462 7.14258 217.395 7.14258H214.475C214.407 7.14258 214.373 7.10872 214.373 7.04102V5.84766C214.373 5.27214 214.187 4.77702 213.814 4.3623C213.442 3.94759 212.977 3.74023 212.418 3.74023C211.8 3.74023 211.326 3.95182 210.996 4.375C210.666 4.79818 210.501 5.28906 210.501 5.84766V13.96C210.501 14.5947 210.687 15.1152 211.06 15.5215C211.432 15.9193 211.885 16.1182 212.418 16.1182C212.977 16.1182 213.442 15.8981 213.814 15.458C214.187 15.0094 214.373 14.5101 214.373 13.96V12.7539C214.373 12.6862 214.407 12.6523 214.475 12.6523H217.42C217.488 12.6523 217.521 12.6862 217.521 12.7539V13.96C217.521 14.9333 217.293 15.8219 216.836 16.626C216.37 17.4215 215.757 18.0605 214.995 18.543C214.233 19.0169 213.374 19.2539 212.418 19.2539ZM222.46 19H219.515C219.447 19 219.413 18.9577 219.413 18.873L219.464 1.01074C219.464 0.943034 219.498 0.90918 219.565 0.90918H224.821C225.761 0.90918 226.624 1.1377 227.411 1.59473C228.198 2.05176 228.825 2.66536 229.29 3.43555C229.764 4.20573 230.001 5.07747 230.001 6.05078C230.001 6.68555 229.904 7.26107 229.709 7.77734C229.514 8.29362 229.286 8.72949 229.023 9.08496C228.77 9.44043 228.537 9.7028 228.325 9.87207C229.265 10.9131 229.734 12.1361 229.734 13.541L229.76 18.873C229.76 18.9577 229.717 19 229.633 19H226.688C226.62 19 226.586 18.9746 226.586 18.9238V13.541C226.586 12.9147 226.366 12.373 225.926 11.916C225.486 11.459 224.944 11.2305 224.301 11.2305H222.587L222.562 18.873C222.562 18.9577 222.528 19 222.46 19ZM224.821 4.01953H222.587V8.10742H224.821C225.354 8.10742 225.828 7.90853 226.243 7.51074C226.666 7.11296 226.878 6.6263 226.878 6.05078C226.878 5.50065 226.675 5.02669 226.269 4.62891C225.862 4.22266 225.38 4.01953 224.821 4.01953ZM240.462 19H232.058C231.99 19 231.956 18.9577 231.956 18.873L231.981 1.01074C231.981 0.943034 232.015 0.90918 232.083 0.90918H240.437C240.504 0.90918 240.538 0.951497 240.538 1.03613V3.94336C240.538 4.01107 240.504 4.04492 240.437 4.04492H235.104V8.10742H240.437C240.504 8.10742 240.538 8.14128 240.538 8.20898L240.563 11.1543C240.563 11.222 240.53 11.2559 240.462 11.2559H235.104V15.8008H240.462C240.53 15.8008 240.563 15.8431 240.563 15.9277V18.8984C240.563 18.9661 240.53 19 240.462 19ZM241.998 18.873L245.223 1.01074C245.24 0.943034 245.282 0.90918 245.35 0.90918H249.12C249.188 0.90918 249.23 0.943034 249.247 1.01074L252.345 18.873C252.353 18.9577 252.319 19 252.243 19H249.361C249.277 19 249.23 18.9577 249.222 18.873L248.942 16.9688H245.4L245.121 18.873C245.113 18.9577 245.07 19 244.994 19H242.1C242.032 19 241.998 18.9577 241.998 18.873ZM247.089 6.88867L245.921 14.1885H248.422L247.355 6.88867L247.203 5.92383L247.089 6.88867ZM257.943 19H255.011C254.935 19 254.896 18.9577 254.896 18.873V4.04492H251.52C251.435 4.04492 251.393 4.0026 251.393 3.91797L251.418 1.01074C251.418 0.943034 251.452 0.90918 251.52 0.90918H261.396C261.49 0.90918 261.536 0.943034 261.536 1.01074V3.91797C261.536 4.0026 261.502 4.04492 261.435 4.04492H258.02L258.045 18.873C258.045 18.9577 258.011 19 257.943 19ZM271.312 19H262.907C262.84 19 262.806 18.9577 262.806 18.873L262.831 1.01074C262.831 0.943034 262.865 0.90918 262.933 0.90918H271.286C271.354 0.90918 271.388 0.951497 271.388 1.03613V3.94336C271.388 4.01107 271.354 4.04492 271.286 4.04492H265.954V8.10742H271.286C271.354 8.10742 271.388 8.14128 271.388 8.20898L271.413 11.1543C271.413 11.222 271.379 11.2559 271.312 11.2559H265.954V15.8008H271.312C271.379 15.8008 271.413 15.8431 271.413 15.9277V18.8984C271.413 18.9661 271.379 19 271.312 19ZM285.264 18.9746L280.604 19C280.52 19 280.478 18.9577 280.478 18.873L280.528 1.01074C280.528 0.943034 280.562 0.90918 280.63 0.90918L285.492 0.883789C286.457 0.858398 287.329 1.07845 288.107 1.54395C288.895 2.00944 289.521 2.63997 289.986 3.43555C290.46 4.22266 290.697 5.0944 290.697 6.05078V13.5156C290.697 14.5143 290.456 15.4284 289.974 16.2578C289.483 17.0788 288.831 17.7347 288.019 18.2256C287.206 18.708 286.288 18.9577 285.264 18.9746ZM285.492 3.99414L283.677 4.01953L283.651 15.8008H285.264C285.907 15.8008 286.449 15.5765 286.889 15.1279C287.329 14.6794 287.549 14.1419 287.549 13.5156V6.02539C287.549 5.47526 287.346 4.99707 286.939 4.59082C286.533 4.17611 286.051 3.97721 285.492 3.99414ZM301.247 19H292.843C292.775 19 292.741 18.9577 292.741 18.873L292.767 1.01074C292.767 0.943034 292.8 0.90918 292.868 0.90918H301.222C301.289 0.90918 301.323 0.951497 301.323 1.03613V3.94336C301.323 4.01107 301.289 4.04492 301.222 4.04492H295.89V8.10742H301.222C301.289 8.10742 301.323 8.14128 301.323 8.20898L301.349 11.1543C301.349 11.222 301.315 11.2559 301.247 11.2559H295.89V15.8008H301.247C301.315 15.8008 301.349 15.8431 301.349 15.9277V18.8984C301.349 18.9661 301.315 19 301.247 19ZM308.077 19.2539C307.155 19.2539 306.304 19.0169 305.525 18.543C304.755 18.069 304.137 17.4385 303.672 16.6514C303.215 15.8558 302.986 14.984 302.986 14.0361V12.8428C302.986 12.7497 303.029 12.7031 303.113 12.7031H306.033C306.101 12.7031 306.135 12.7497 306.135 12.8428V14.0361C306.135 14.6032 306.325 15.0941 306.706 15.5088C307.087 15.915 307.544 16.1182 308.077 16.1182C308.619 16.1182 309.08 15.9108 309.461 15.4961C309.842 15.0729 310.032 14.5863 310.032 14.0361C310.032 13.4014 309.618 12.847 308.788 12.373C308.653 12.2884 308.475 12.1868 308.255 12.0684C308.043 11.9414 307.789 11.7975 307.493 11.6367C307.197 11.4759 306.909 11.3193 306.63 11.167C306.351 11.0062 306.08 10.8538 305.817 10.71C304.869 10.1514 304.163 9.45312 303.697 8.61523C303.24 7.76888 303.012 6.82096 303.012 5.77148C303.012 4.80664 303.249 3.9349 303.723 3.15625C304.197 2.38607 304.814 1.77669 305.576 1.32812C306.346 0.871094 307.18 0.642578 308.077 0.642578C309 0.642578 309.846 0.871094 310.616 1.32812C311.386 1.79362 312 2.41146 312.457 3.18164C312.923 3.95182 313.155 4.8151 313.155 5.77148V7.9043C313.155 7.97201 313.121 8.00586 313.054 8.00586H310.134C310.066 8.00586 310.032 7.97201 310.032 7.9043L310.007 5.77148C310.007 5.16211 309.816 4.66699 309.436 4.28613C309.055 3.90527 308.602 3.71484 308.077 3.71484C307.544 3.71484 307.087 3.91797 306.706 4.32422C306.325 4.73047 306.135 5.21289 306.135 5.77148C306.135 6.33854 306.253 6.8125 306.49 7.19336C306.736 7.57422 307.18 7.93815 307.823 8.28516C307.891 8.31901 308.048 8.40365 308.293 8.53906C308.538 8.67448 308.809 8.82682 309.105 8.99609C309.41 9.1569 309.685 9.30501 309.931 9.44043C310.176 9.56738 310.324 9.64355 310.375 9.66895C311.238 10.1514 311.92 10.7438 312.419 11.4463C312.927 12.1488 313.181 13.012 313.181 14.0361C313.181 15.0264 312.952 15.915 312.495 16.7021C312.03 17.4893 311.412 18.1113 310.642 18.5684C309.871 19.0254 309.017 19.2539 308.077 19.2539ZM318.056 19H315.11C315.026 19 314.983 18.9577 314.983 18.873L315.009 1.01074C315.009 0.943034 315.043 0.90918 315.11 0.90918H318.03C318.098 0.90918 318.132 0.943034 318.132 1.01074L318.157 18.873C318.157 18.9577 318.123 19 318.056 19ZM325.203 19.2539C324.264 19.2539 323.417 19.0212 322.664 18.5557C321.902 18.0902 321.289 17.4639 320.823 16.6768C320.366 15.8896 320.138 15.0094 320.138 14.0361V5.79688C320.138 4.84896 320.37 3.98568 320.836 3.20703C321.293 2.41992 321.907 1.79362 322.677 1.32812C323.447 0.854167 324.289 0.617188 325.203 0.617188C326.16 0.617188 327.023 0.845703 327.793 1.30273C328.563 1.76823 329.173 2.3903 329.621 3.16895C330.078 3.94759 330.307 4.82357 330.307 5.79688V6.99023C330.307 7.05794 330.264 7.0918 330.18 7.0918H327.26C327.192 7.0918 327.158 7.05794 327.158 6.99023V6C327.158 5.33984 326.972 4.79395 326.6 4.3623C326.227 3.93066 325.762 3.71484 325.203 3.71484C324.704 3.71484 324.259 3.9222 323.87 4.33691C323.481 4.75163 323.286 5.23828 323.286 5.79688V14.0361C323.286 14.6032 323.477 15.0941 323.857 15.5088C324.238 15.915 324.687 16.1182 325.203 16.1182C325.762 16.1182 326.227 15.9193 326.6 15.5215C326.972 15.1152 327.158 14.6201 327.158 14.0361V12.7539H325.343C325.25 12.7539 325.203 12.7116 325.203 12.627V9.71973C325.203 9.63509 325.25 9.59277 325.343 9.59277H330.205C330.273 9.59277 330.307 9.63509 330.307 9.71973V14.0361C330.307 15.0094 330.078 15.8896 329.621 16.6768C329.156 17.4639 328.542 18.0902 327.78 18.5557C327.019 19.0212 326.16 19.2539 325.203 19.2539ZM334.979 19H332.376C332.241 19 332.173 18.9408 332.173 18.8223L332.147 1.1123C332.147 0.976888 332.215 0.90918 332.351 0.90918H334.699L339.092 11.1543L338.965 1.1123C338.965 0.976888 339.041 0.90918 339.193 0.90918H341.771C341.872 0.90918 341.923 0.976888 341.923 1.1123L341.948 18.8477C341.948 18.9492 341.906 19 341.821 19H339.536L335.029 9.42773L335.22 18.7969C335.22 18.9323 335.139 19 334.979 19ZM348.626 19.2539C347.703 19.2539 346.853 19.0169 346.074 18.543C345.304 18.069 344.686 17.4385 344.221 16.6514C343.764 15.8558 343.535 14.984 343.535 14.0361V12.8428C343.535 12.7497 343.577 12.7031 343.662 12.7031H346.582C346.65 12.7031 346.684 12.7497 346.684 12.8428V14.0361C346.684 14.6032 346.874 15.0941 347.255 15.5088C347.636 15.915 348.093 16.1182 348.626 16.1182C349.168 16.1182 349.629 15.9108 350.01 15.4961C350.391 15.0729 350.581 14.5863 350.581 14.0361C350.581 13.4014 350.166 12.847 349.337 12.373C349.201 12.2884 349.024 12.1868 348.804 12.0684C348.592 11.9414 348.338 11.7975 348.042 11.6367C347.746 11.4759 347.458 11.3193 347.179 11.167C346.899 11.0062 346.629 10.8538 346.366 10.71C345.418 10.1514 344.712 9.45312 344.246 8.61523C343.789 7.76888 343.561 6.82096 343.561 5.77148C343.561 4.80664 343.798 3.9349 344.271 3.15625C344.745 2.38607 345.363 1.77669 346.125 1.32812C346.895 0.871094 347.729 0.642578 348.626 0.642578C349.549 0.642578 350.395 0.871094 351.165 1.32812C351.935 1.79362 352.549 2.41146 353.006 3.18164C353.471 3.95182 353.704 4.8151 353.704 5.77148V7.9043C353.704 7.97201 353.67 8.00586 353.603 8.00586H350.683C350.615 8.00586 350.581 7.97201 350.581 7.9043L350.556 5.77148C350.556 5.16211 350.365 4.66699 349.984 4.28613C349.604 3.90527 349.151 3.71484 348.626 3.71484C348.093 3.71484 347.636 3.91797 347.255 4.32422C346.874 4.73047 346.684 5.21289 346.684 5.77148C346.684 6.33854 346.802 6.8125 347.039 7.19336C347.285 7.57422 347.729 7.93815 348.372 8.28516C348.44 8.31901 348.596 8.40365 348.842 8.53906C349.087 8.67448 349.358 8.82682 349.654 8.99609C349.959 9.1569 350.234 9.30501 350.479 9.44043C350.725 9.56738 350.873 9.64355 350.924 9.66895C351.787 10.1514 352.468 10.7438 352.968 11.4463C353.476 12.1488 353.729 13.012 353.729 14.0361C353.729 15.0264 353.501 15.915 353.044 16.7021C352.578 17.4893 351.961 18.1113 351.19 18.5684C350.42 19.0254 349.565 19.2539 348.626 19.2539ZM367.834 19H364.901C364.825 19 364.787 18.9577 364.787 18.873V4.04492H361.41C361.326 4.04492 361.283 4.0026 361.283 3.91797L361.309 1.01074C361.309 0.943034 361.342 0.90918 361.41 0.90918H371.287C371.38 0.90918 371.427 0.943034 371.427 1.01074V3.91797C371.427 4.0026 371.393 4.04492 371.325 4.04492H367.91L367.936 18.873C367.936 18.9577 367.902 19 367.834 19ZM375.743 19H372.798C372.73 19 372.696 18.9577 372.696 18.873L372.722 1.01074C372.722 0.943034 372.764 0.90918 372.849 0.90918H375.743C375.828 0.90918 375.87 0.943034 375.87 1.01074L375.845 8.08203H379.742V1.01074C379.742 0.943034 379.776 0.90918 379.844 0.90918H382.738C382.823 0.90918 382.865 0.943034 382.865 1.01074L382.916 18.873C382.916 18.9577 382.874 19 382.789 19H379.869C379.785 19 379.742 18.9577 379.742 18.873V11.2305H375.845V18.873C375.845 18.9577 375.811 19 375.743 19ZM384.16 18.873L387.385 1.01074C387.402 0.943034 387.444 0.90918 387.512 0.90918H391.282C391.35 0.90918 391.392 0.943034 391.409 1.01074L394.507 18.873C394.515 18.9577 394.481 19 394.405 19H391.523C391.439 19 391.392 18.9577 391.384 18.873L391.104 16.9688H387.562L387.283 18.873C387.275 18.9577 387.232 19 387.156 19H384.262C384.194 19 384.16 18.9577 384.16 18.873ZM389.251 6.88867L388.083 14.1885H390.584L389.518 6.88867L389.365 5.92383L389.251 6.88867ZM400.105 19H397.173C397.097 19 397.059 18.9577 397.059 18.873V4.04492H393.682C393.597 4.04492 393.555 4.0026 393.555 3.91797L393.58 1.01074C393.58 0.943034 393.614 0.90918 393.682 0.90918H403.559C403.652 0.90918 403.698 0.943034 403.698 1.01074V3.91797C403.698 4.0026 403.664 4.04492 403.597 4.04492H400.182L400.207 18.873C400.207 18.9577 400.173 19 400.105 19ZM414.553 19H411.95C411.815 19 411.747 18.9408 411.747 18.8223L411.722 1.1123C411.722 0.976888 411.789 0.90918 411.925 0.90918H414.273L418.666 11.1543L418.539 1.1123C418.539 0.976888 418.615 0.90918 418.768 0.90918H421.345C421.446 0.90918 421.497 0.976888 421.497 1.1123L421.522 18.8477C421.522 18.9492 421.48 19 421.396 19H419.11L414.604 9.42773L414.794 18.7969C414.794 18.9323 414.714 19 414.553 19ZM428.594 19.2539C427.671 19.2539 426.821 19.0169 426.042 18.543C425.272 18.069 424.65 17.4385 424.176 16.6514C423.71 15.8558 423.478 14.984 423.478 14.0361L423.503 5.79688C423.503 4.83203 423.736 3.96452 424.201 3.19434C424.658 2.41569 425.276 1.79362 426.055 1.32812C426.833 0.854167 427.68 0.617188 428.594 0.617188C429.542 0.617188 430.392 0.849935 431.146 1.31543C431.907 1.78092 432.517 2.40723 432.974 3.19434C433.439 3.97298 433.672 4.84049 433.672 5.79688L433.697 14.0361C433.697 14.984 433.469 15.8516 433.012 16.6387C432.546 17.4342 431.928 18.069 431.158 18.543C430.388 19.0169 429.533 19.2539 428.594 19.2539ZM428.594 16.1182C429.118 16.1182 429.576 15.9066 429.965 15.4834C430.354 15.0518 430.549 14.5693 430.549 14.0361L430.523 5.79688C430.523 5.22135 430.341 4.7347 429.978 4.33691C429.614 3.93913 429.152 3.74023 428.594 3.74023C428.061 3.74023 427.604 3.9349 427.223 4.32422C426.842 4.71354 426.651 5.20443 426.651 5.79688V14.0361C426.651 14.6032 426.842 15.0941 427.223 15.5088C427.604 15.915 428.061 16.1182 428.594 16.1182ZM440.68 19H437.747C437.671 19 437.633 18.9577 437.633 18.873V4.04492H434.256C434.171 4.04492 434.129 4.0026 434.129 3.91797L434.154 1.01074C434.154 0.943034 434.188 0.90918 434.256 0.90918H444.133C444.226 0.90918 444.272 0.943034 444.272 1.01074V3.91797C444.272 4.0026 444.239 4.04492 444.171 4.04492H440.756L440.781 18.873C440.781 18.9577 440.747 19 440.68 19ZM457.107 19.2539C456.185 19.2539 455.334 19.0169 454.556 18.543C453.785 18.069 453.163 17.4385 452.689 16.6514C452.224 15.8558 451.991 14.984 451.991 14.0361L452.017 5.79688C452.017 4.83203 452.249 3.96452 452.715 3.19434C453.172 2.41569 453.79 1.79362 454.568 1.32812C455.347 0.854167 456.193 0.617188 457.107 0.617188C458.055 0.617188 458.906 0.849935 459.659 1.31543C460.421 1.78092 461.03 2.40723 461.487 3.19434C461.953 3.97298 462.186 4.84049 462.186 5.79688L462.211 14.0361C462.211 14.984 461.982 15.8516 461.525 16.6387C461.06 17.4342 460.442 18.069 459.672 18.543C458.902 19.0169 458.047 19.2539 457.107 19.2539ZM457.107 16.1182C457.632 16.1182 458.089 15.9066 458.479 15.4834C458.868 15.0518 459.062 14.5693 459.062 14.0361L459.037 5.79688C459.037 5.22135 458.855 4.7347 458.491 4.33691C458.127 3.93913 457.666 3.74023 457.107 3.74023C456.574 3.74023 456.117 3.9349 455.736 4.32422C455.355 4.71354 455.165 5.20443 455.165 5.79688V14.0361C455.165 14.6032 455.355 15.0941 455.736 15.5088C456.117 15.915 456.574 16.1182 457.107 16.1182ZM467.01 19H464.407C464.272 19 464.204 18.9408 464.204 18.8223L464.179 1.1123C464.179 0.976888 464.246 0.90918 464.382 0.90918H466.73L471.123 11.1543L470.996 1.1123C470.996 0.976888 471.072 0.90918 471.225 0.90918H473.802C473.903 0.90918 473.954 0.976888 473.954 1.1123L473.979 18.8477C473.979 18.9492 473.937 19 473.853 19H471.567L467.061 9.42773L467.251 18.7969C467.251 18.9323 467.171 19 467.01 19ZM484.745 19H476.341C476.273 19 476.239 18.9577 476.239 18.873L476.265 1.03613C476.265 0.951497 476.307 0.90918 476.392 0.90918H479.286C479.371 0.90918 479.413 0.951497 479.413 1.03613L479.388 15.8008H484.745C484.83 15.8008 484.872 15.8431 484.872 15.9277V18.873C484.872 18.9577 484.83 19 484.745 19ZM490.42 19H487.437C487.377 19 487.348 18.9661 487.348 18.8984L487.373 11.5098L483.895 1.01074C483.878 0.943034 483.903 0.90918 483.971 0.90918H486.865C486.95 0.90918 487.001 0.943034 487.018 1.01074L488.935 8.00586L490.89 1.01074C490.907 0.943034 490.949 0.90918 491.017 0.90918H493.937C494.004 0.90918 494.03 0.943034 494.013 1.01074L490.496 11.4082L490.521 18.8984C490.521 18.9661 490.488 19 490.42 19ZM506.949 19H502.29C502.222 19 502.188 18.9577 502.188 18.873L502.239 1.01074C502.239 0.943034 502.273 0.90918 502.341 0.90918H507.343C508.316 0.90918 509.201 1.14616 509.996 1.62012C510.775 2.09408 511.388 2.72461 511.837 3.51172C512.285 4.29036 512.51 5.13672 512.51 6.05078C512.51 6.79557 512.34 7.48958 512.002 8.13281C511.663 8.77604 511.261 9.29655 510.796 9.69434C511.295 10.1937 511.685 10.7734 511.964 11.4336C512.243 12.0938 512.383 12.7878 512.383 13.5156C512.383 14.5228 512.142 15.4411 511.659 16.2705C511.168 17.0999 510.512 17.7643 509.691 18.2637C508.87 18.7546 507.956 19 506.949 19ZM507.343 3.99414H505.362V8.08203H507.343C507.944 8.08203 508.43 7.87044 508.803 7.44727C509.175 7.01562 509.361 6.55013 509.361 6.05078C509.361 5.50065 509.162 5.02246 508.765 4.61621C508.367 4.2015 507.893 3.99414 507.343 3.99414ZM506.949 11.2305H505.362L505.337 15.8262H506.949C507.576 15.8262 508.113 15.5977 508.562 15.1406C509.01 14.6836 509.234 14.1419 509.234 13.5156C509.234 12.8893 509.01 12.3519 508.562 11.9033C508.113 11.4548 507.576 11.2305 506.949 11.2305ZM522.755 19H514.351C514.283 19 514.249 18.9577 514.249 18.873L514.274 1.01074C514.274 0.943034 514.308 0.90918 514.376 0.90918H522.729C522.797 0.90918 522.831 0.951497 522.831 1.03613V3.94336C522.831 4.01107 522.797 4.04492 522.729 4.04492H517.397V8.10742H522.729C522.797 8.10742 522.831 8.14128 522.831 8.20898L522.856 11.1543C522.856 11.222 522.823 11.2559 522.755 11.2559H517.397V15.8008H522.755C522.823 15.8008 522.856 15.8431 522.856 15.9277V18.8984C522.856 18.9661 522.823 19 522.755 19ZM524.291 18.873L527.516 1.01074C527.533 0.943034 527.575 0.90918 527.643 0.90918H531.413C531.481 0.90918 531.523 0.943034 531.54 1.01074L534.638 18.873C534.646 18.9577 534.612 19 534.536 19H531.654C531.57 19 531.523 18.9577 531.515 18.873L531.235 16.9688H527.693L527.414 18.873C527.406 18.9577 527.363 19 527.287 19H524.393C524.325 19 524.291 18.9577 524.291 18.873ZM529.382 6.88867L528.214 14.1885H530.715L529.648 6.88867L529.496 5.92383L529.382 6.88867ZM540.516 19.2539C539.602 19.2539 538.755 19.0169 537.977 18.543C537.198 18.069 536.576 17.4342 536.11 16.6387C535.653 15.8346 535.425 14.9587 535.425 14.0107L535.476 1.01074C535.476 0.943034 535.509 0.90918 535.577 0.90918H538.497C538.565 0.90918 538.599 0.943034 538.599 1.01074V14.0107C538.599 14.5947 538.785 15.0941 539.157 15.5088C539.53 15.915 539.982 16.1182 540.516 16.1182C541.074 16.1182 541.54 15.915 541.912 15.5088C542.285 15.0941 542.471 14.5947 542.471 14.0107V1.01074C542.471 0.943034 542.505 0.90918 542.572 0.90918H545.492C545.56 0.90918 545.594 0.943034 545.594 1.01074L545.645 14.0107C545.645 14.9671 545.416 15.8473 544.959 16.6514C544.493 17.4469 543.876 18.0817 543.105 18.5557C542.335 19.0212 541.472 19.2539 540.516 19.2539ZM553.236 19H550.304C550.228 19 550.189 18.9577 550.189 18.873V4.04492H546.812C546.728 4.04492 546.686 4.0026 546.686 3.91797L546.711 1.01074C546.711 0.943034 546.745 0.90918 546.812 0.90918H556.689C556.783 0.90918 556.829 0.943034 556.829 1.01074V3.91797C556.829 4.0026 556.795 4.04492 556.728 4.04492H553.312L553.338 18.873C553.338 18.9577 553.304 19 553.236 19ZM561.171 19H558.226C558.141 19 558.099 18.9577 558.099 18.873L558.124 1.01074C558.124 0.943034 558.158 0.90918 558.226 0.90918H561.146C561.213 0.90918 561.247 0.943034 561.247 1.01074L561.272 18.873C561.272 18.9577 561.239 19 561.171 19ZM566.604 19H563.685C563.6 19 563.558 18.9577 563.558 18.873L563.608 1.01074C563.608 0.943034 563.642 0.90918 563.71 0.90918H572.038C572.123 0.90918 572.165 0.943034 572.165 1.01074V3.94336C572.165 4.01107 572.131 4.04492 572.063 4.04492H566.731V8.08203H572.063C572.131 8.08203 572.165 8.12435 572.165 8.20898L572.19 11.1543C572.19 11.222 572.148 11.2559 572.063 11.2559H566.731V18.873C566.731 18.9577 566.689 19 566.604 19ZM579.287 19.2539C578.373 19.2539 577.527 19.0169 576.748 18.543C575.969 18.069 575.347 17.4342 574.882 16.6387C574.425 15.8346 574.196 14.9587 574.196 14.0107L574.247 1.01074C574.247 0.943034 574.281 0.90918 574.349 0.90918H577.269C577.336 0.90918 577.37 0.943034 577.37 1.01074V14.0107C577.37 14.5947 577.556 15.0941 577.929 15.5088C578.301 15.915 578.754 16.1182 579.287 16.1182C579.846 16.1182 580.311 15.915 580.684 15.5088C581.056 15.0941 581.242 14.5947 581.242 14.0107V1.01074C581.242 0.943034 581.276 0.90918 581.344 0.90918H584.264C584.331 0.90918 584.365 0.943034 584.365 1.01074L584.416 14.0107C584.416 14.9671 584.188 15.8473 583.73 16.6514C583.265 17.4469 582.647 18.0817 581.877 18.5557C581.107 19.0212 580.243 19.2539 579.287 19.2539ZM594.966 19H586.562C586.494 19 586.46 18.9577 586.46 18.873L586.485 1.03613C586.485 0.951497 586.528 0.90918 586.612 0.90918H589.507C589.591 0.90918 589.634 0.951497 589.634 1.03613L589.608 15.8008H594.966C595.05 15.8008 595.093 15.8431 595.093 15.9277V18.873C595.093 18.9577 595.05 19 594.966 19ZM596.794 22.2754V20.6631C597.226 20.6631 597.594 20.498 597.898 20.168C598.203 19.8379 598.355 19.4486 598.355 19H596.896C596.828 19 596.794 18.9661 596.794 18.8984V15.9785C596.794 15.9108 596.828 15.877 596.896 15.877H599.841C599.909 15.877 599.942 15.9108 599.942 15.9785V19C599.942 19.6094 599.794 20.1637 599.498 20.6631C599.202 21.1624 598.817 21.556 598.343 21.8438C597.869 22.1315 597.353 22.2754 596.794 22.2754ZM613.59 19H608.931C608.863 19 608.829 18.9577 608.829 18.873L608.88 1.01074C608.88 0.943034 608.914 0.90918 608.981 0.90918H613.983C614.957 0.90918 615.841 1.14616 616.637 1.62012C617.415 2.09408 618.029 2.72461 618.478 3.51172C618.926 4.29036 619.15 5.13672 619.15 6.05078C619.15 6.79557 618.981 7.48958 618.643 8.13281C618.304 8.77604 617.902 9.29655 617.437 9.69434C617.936 10.1937 618.325 10.7734 618.604 11.4336C618.884 12.0938 619.023 12.7878 619.023 13.5156C619.023 14.5228 618.782 15.4411 618.3 16.2705C617.809 17.0999 617.153 17.7643 616.332 18.2637C615.511 18.7546 614.597 19 613.59 19ZM613.983 3.99414H612.003V8.08203H613.983C614.584 8.08203 615.071 7.87044 615.443 7.44727C615.816 7.01562 616.002 6.55013 616.002 6.05078C616.002 5.50065 615.803 5.02246 615.405 4.61621C615.007 4.2015 614.534 3.99414 613.983 3.99414ZM613.59 11.2305H612.003L611.978 15.8262H613.59C614.216 15.8262 614.754 15.5977 615.202 15.1406C615.651 14.6836 615.875 14.1419 615.875 13.5156C615.875 12.8893 615.651 12.3519 615.202 11.9033C614.754 11.4548 614.216 11.2305 613.59 11.2305ZM625.676 19.2539C624.762 19.2539 623.915 19.0169 623.137 18.543C622.358 18.069 621.736 17.4342 621.271 16.6387C620.813 15.8346 620.585 14.9587 620.585 14.0107L620.636 1.01074C620.636 0.943034 620.67 0.90918 620.737 0.90918H623.657C623.725 0.90918 623.759 0.943034 623.759 1.01074V14.0107C623.759 14.5947 623.945 15.0941 624.317 15.5088C624.69 15.915 625.143 16.1182 625.676 16.1182C626.234 16.1182 626.7 15.915 627.072 15.5088C627.445 15.0941 627.631 14.5947 627.631 14.0107V1.01074C627.631 0.943034 627.665 0.90918 627.732 0.90918H630.652C630.72 0.90918 630.754 0.943034 630.754 1.01074L630.805 14.0107C630.805 14.9671 630.576 15.8473 630.119 16.6514C629.654 17.4469 629.036 18.0817 628.266 18.5557C627.495 19.0212 626.632 19.2539 625.676 19.2539ZM638.396 19H635.464C635.388 19 635.35 18.9577 635.35 18.873V4.04492H631.973C631.888 4.04492 631.846 4.0026 631.846 3.91797L631.871 1.01074C631.871 0.943034 631.905 0.90918 631.973 0.90918H641.85C641.943 0.90918 641.989 0.943034 641.989 1.01074V3.91797C641.989 4.0026 641.955 4.04492 641.888 4.04492H638.473L638.498 18.873C638.498 18.9577 638.464 19 638.396 19ZM649.137 18.873L652.361 1.01074C652.378 0.943034 652.421 0.90918 652.488 0.90918H656.259C656.326 0.90918 656.369 0.943034 656.386 1.01074L659.483 18.873C659.492 18.9577 659.458 19 659.382 19H656.5C656.415 19 656.369 18.9577 656.36 18.873L656.081 16.9688H652.539L652.26 18.873C652.251 18.9577 652.209 19 652.133 19H649.238C649.171 19 649.137 18.9577 649.137 18.873ZM654.228 6.88867L653.06 14.1885H655.561L654.494 6.88867L654.342 5.92383L654.228 6.88867ZM669.614 19H661.21C661.142 19 661.108 18.9577 661.108 18.873L661.134 1.03613C661.134 0.951497 661.176 0.90918 661.261 0.90918H664.155C664.24 0.90918 664.282 0.951497 664.282 1.03613L664.257 15.8008H669.614C669.699 15.8008 669.741 15.8431 669.741 15.9277V18.873C669.741 18.9577 669.699 19 669.614 19ZM675.86 19.2539C674.938 19.2539 674.087 19.0169 673.309 18.543C672.538 18.069 671.921 17.4385 671.455 16.6514C670.998 15.8558 670.77 14.984 670.77 14.0361V12.8428C670.77 12.7497 670.812 12.7031 670.896 12.7031H673.816C673.884 12.7031 673.918 12.7497 673.918 12.8428V14.0361C673.918 14.6032 674.108 15.0941 674.489 15.5088C674.87 15.915 675.327 16.1182 675.86 16.1182C676.402 16.1182 676.863 15.9108 677.244 15.4961C677.625 15.0729 677.815 14.5863 677.815 14.0361C677.815 13.4014 677.401 12.847 676.571 12.373C676.436 12.2884 676.258 12.1868 676.038 12.0684C675.826 11.9414 675.573 11.7975 675.276 11.6367C674.98 11.4759 674.692 11.3193 674.413 11.167C674.134 11.0062 673.863 10.8538 673.601 10.71C672.653 10.1514 671.946 9.45312 671.48 8.61523C671.023 7.76888 670.795 6.82096 670.795 5.77148C670.795 4.80664 671.032 3.9349 671.506 3.15625C671.98 2.38607 672.598 1.77669 673.359 1.32812C674.13 0.871094 674.963 0.642578 675.86 0.642578C676.783 0.642578 677.629 0.871094 678.399 1.32812C679.17 1.79362 679.783 2.41146 680.24 3.18164C680.706 3.95182 680.938 4.8151 680.938 5.77148V7.9043C680.938 7.97201 680.905 8.00586 680.837 8.00586H677.917C677.849 8.00586 677.815 7.97201 677.815 7.9043L677.79 5.77148C677.79 5.16211 677.6 4.66699 677.219 4.28613C676.838 3.90527 676.385 3.71484 675.86 3.71484C675.327 3.71484 674.87 3.91797 674.489 4.32422C674.108 4.73047 673.918 5.21289 673.918 5.77148C673.918 6.33854 674.036 6.8125 674.273 7.19336C674.519 7.57422 674.963 7.93815 675.606 8.28516C675.674 8.31901 675.831 8.40365 676.076 8.53906C676.322 8.67448 676.592 8.82682 676.889 8.99609C677.193 9.1569 677.468 9.30501 677.714 9.44043C677.959 9.56738 678.107 9.64355 678.158 9.66895C679.021 10.1514 679.703 10.7438 680.202 11.4463C680.71 12.1488 680.964 13.012 680.964 14.0361C680.964 15.0264 680.735 15.915 680.278 16.7021C679.813 17.4893 679.195 18.1113 678.425 18.5684C677.655 19.0254 676.8 19.2539 675.86 19.2539ZM687.578 19.2539C686.656 19.2539 685.805 19.0169 685.026 18.543C684.256 18.069 683.634 17.4385 683.16 16.6514C682.695 15.8558 682.462 14.984 682.462 14.0361L682.487 5.79688C682.487 4.83203 682.72 3.96452 683.186 3.19434C683.643 2.41569 684.26 1.79362 685.039 1.32812C685.818 0.854167 686.664 0.617188 687.578 0.617188C688.526 0.617188 689.377 0.849935 690.13 1.31543C690.892 1.78092 691.501 2.40723 691.958 3.19434C692.424 3.97298 692.656 4.84049 692.656 5.79688L692.682 14.0361C692.682 14.984 692.453 15.8516 691.996 16.6387C691.531 17.4342 690.913 18.069 690.143 18.543C689.372 19.0169 688.518 19.2539 687.578 19.2539ZM687.578 16.1182C688.103 16.1182 688.56 15.9066 688.949 15.4834C689.339 15.0518 689.533 14.5693 689.533 14.0361L689.508 5.79688C689.508 5.22135 689.326 4.7347 688.962 4.33691C688.598 3.93913 688.137 3.74023 687.578 3.74023C687.045 3.74023 686.588 3.9349 686.207 4.32422C685.826 4.71354 685.636 5.20443 685.636 5.79688V14.0361C685.636 14.6032 685.826 15.0941 686.207 15.5088C686.588 15.915 687.045 16.1182 687.578 16.1182ZM704.45 19H701.505C701.437 19 701.403 18.9577 701.403 18.873L701.429 1.01074C701.429 0.943034 701.471 0.90918 701.556 0.90918H704.45C704.535 0.90918 704.577 0.943034 704.577 1.01074L704.552 8.08203H708.449V1.01074C708.449 0.943034 708.483 0.90918 708.551 0.90918H711.445C711.53 0.90918 711.572 0.943034 711.572 1.01074L711.623 18.873C711.623 18.9577 711.581 19 711.496 19H708.576C708.492 19 708.449 18.9577 708.449 18.873V11.2305H704.552V18.873C704.552 18.9577 704.518 19 704.45 19ZM722.249 19H713.845C713.777 19 713.743 18.9577 713.743 18.873L713.769 1.01074C713.769 0.943034 713.802 0.90918 713.87 0.90918H722.224C722.291 0.90918 722.325 0.951497 722.325 1.03613V3.94336C722.325 4.01107 722.291 4.04492 722.224 4.04492H716.892V8.10742H722.224C722.291 8.10742 722.325 8.14128 722.325 8.20898L722.351 11.1543C722.351 11.222 722.317 11.2559 722.249 11.2559H716.892V15.8008H722.249C722.317 15.8008 722.351 15.8431 722.351 15.9277V18.8984C722.351 18.9661 722.317 19 722.249 19ZM733.167 19H724.763C724.695 19 724.661 18.9577 724.661 18.873L724.687 1.03613C724.687 0.951497 724.729 0.90918 724.813 0.90918H727.708C727.793 0.90918 727.835 0.951497 727.835 1.03613L727.81 15.8008H733.167C733.252 15.8008 733.294 15.8431 733.294 15.9277V18.873C733.294 18.9577 733.252 19 733.167 19ZM738.042 19H735.122C735.037 19 734.995 18.9577 734.995 18.873L735.046 1.01074C735.046 0.943034 735.08 0.90918 735.147 0.90918H740.149C741.741 0.90918 742.997 1.39583 743.92 2.36914C744.851 3.33398 745.316 4.65007 745.316 6.31738C745.316 7.53613 745.075 8.59831 744.593 9.50391C744.102 10.401 743.467 11.0951 742.688 11.5859C741.91 12.0768 741.063 12.3223 740.149 12.3223H738.169V18.873C738.169 18.9577 738.127 19 738.042 19ZM740.149 3.99414L738.169 4.01953V9.17383H740.149C740.7 9.17383 741.178 8.91146 741.584 8.38672C741.99 7.85352 742.193 7.16374 742.193 6.31738C742.193 5.6403 742.011 5.08594 741.647 4.6543C741.284 4.21419 740.784 3.99414 740.149 3.99414ZM758.418 19.2539C757.479 19.2539 756.619 19.0169 755.841 18.543C755.071 18.069 754.457 17.4342 754 16.6387C753.551 15.8346 753.327 14.9417 753.327 13.96L753.353 5.84766C753.353 4.88281 753.573 4.01107 754.013 3.23242C754.453 2.44531 755.058 1.81478 755.828 1.34082C756.607 0.858398 757.47 0.617188 758.418 0.617188C759.383 0.617188 760.242 0.849935 760.995 1.31543C761.757 1.78092 762.362 2.41146 762.811 3.20703C763.268 3.99414 763.496 4.87435 763.496 5.84766V7.04102C763.496 7.10872 763.462 7.14258 763.395 7.14258H760.475C760.407 7.14258 760.373 7.10872 760.373 7.04102V5.84766C760.373 5.27214 760.187 4.77702 759.814 4.3623C759.442 3.94759 758.977 3.74023 758.418 3.74023C757.8 3.74023 757.326 3.95182 756.996 4.375C756.666 4.79818 756.501 5.28906 756.501 5.84766V13.96C756.501 14.5947 756.687 15.1152 757.06 15.5215C757.432 15.9193 757.885 16.1182 758.418 16.1182C758.977 16.1182 759.442 15.8981 759.814 15.458C760.187 15.0094 760.373 14.5101 760.373 13.96V12.7539C760.373 12.6862 760.407 12.6523 760.475 12.6523H763.42C763.488 12.6523 763.521 12.6862 763.521 12.7539V13.96C763.521 14.9333 763.293 15.8219 762.836 16.626C762.37 17.4215 761.757 18.0605 760.995 18.543C760.233 19.0169 759.374 19.2539 758.418 19.2539ZM773.919 19H765.515C765.447 19 765.413 18.9577 765.413 18.873L765.438 1.03613C765.438 0.951497 765.481 0.90918 765.565 0.90918H768.46C768.545 0.90918 768.587 0.951497 768.587 1.03613L768.562 15.8008H773.919C774.004 15.8008 774.046 15.8431 774.046 15.9277V18.873C774.046 18.9577 774.004 19 773.919 19ZM778.819 19H775.874C775.789 19 775.747 18.9577 775.747 18.873L775.772 1.01074C775.772 0.943034 775.806 0.90918 775.874 0.90918H778.794C778.862 0.90918 778.896 0.943034 778.896 1.01074L778.921 18.873C778.921 18.9577 778.887 19 778.819 19ZM789.712 19H781.308C781.24 19 781.206 18.9577 781.206 18.873L781.231 1.01074C781.231 0.943034 781.265 0.90918 781.333 0.90918H789.687C789.754 0.90918 789.788 0.951497 789.788 1.03613V3.94336C789.788 4.01107 789.754 4.04492 789.687 4.04492H784.354V8.10742H789.687C789.754 8.10742 789.788 8.14128 789.788 8.20898L789.813 11.1543C789.813 11.222 789.78 11.2559 789.712 11.2559H784.354V15.8008H789.712C789.78 15.8008 789.813 15.8431 789.813 15.9277V18.8984C789.813 18.9661 789.78 19 789.712 19ZM794.955 19H792.353C792.217 19 792.149 18.9408 792.149 18.8223L792.124 1.1123C792.124 0.976888 792.192 0.90918 792.327 0.90918H794.676L799.068 11.1543L798.941 1.1123C798.941 0.976888 799.018 0.90918 799.17 0.90918H801.747C801.849 0.90918 801.899 0.976888 801.899 1.1123L801.925 18.8477C801.925 18.9492 801.882 19 801.798 19H799.513L795.006 9.42773L795.196 18.7969C795.196 18.9323 795.116 19 794.955 19ZM809.732 19H806.8C806.724 19 806.686 18.9577 806.686 18.873V4.04492H803.309C803.224 4.04492 803.182 4.0026 803.182 3.91797L803.207 1.01074C803.207 0.943034 803.241 0.90918 803.309 0.90918H813.186C813.279 0.90918 813.325 0.943034 813.325 1.01074V3.91797C813.325 4.0026 813.291 4.04492 813.224 4.04492H809.809L809.834 18.873C809.834 18.9577 809.8 19 809.732 19ZM819.013 19.2539C818.09 19.2539 817.24 19.0169 816.461 18.543C815.691 18.069 815.073 17.4385 814.607 16.6514C814.15 15.8558 813.922 14.984 813.922 14.0361V12.8428C813.922 12.7497 813.964 12.7031 814.049 12.7031H816.969C817.036 12.7031 817.07 12.7497 817.07 12.8428V14.0361C817.07 14.6032 817.261 15.0941 817.642 15.5088C818.022 15.915 818.479 16.1182 819.013 16.1182C819.554 16.1182 820.016 15.9108 820.396 15.4961C820.777 15.0729 820.968 14.5863 820.968 14.0361C820.968 13.4014 820.553 12.847 819.724 12.373C819.588 12.2884 819.41 12.1868 819.19 12.0684C818.979 11.9414 818.725 11.7975 818.429 11.6367C818.132 11.4759 817.845 11.3193 817.565 11.167C817.286 11.0062 817.015 10.8538 816.753 10.71C815.805 10.1514 815.098 9.45312 814.633 8.61523C814.176 7.76888 813.947 6.82096 813.947 5.77148C813.947 4.80664 814.184 3.9349 814.658 3.15625C815.132 2.38607 815.75 1.77669 816.512 1.32812C817.282 0.871094 818.116 0.642578 819.013 0.642578C819.935 0.642578 820.782 0.871094 821.552 1.32812C822.322 1.79362 822.936 2.41146 823.393 3.18164C823.858 3.95182 824.091 4.8151 824.091 5.77148V7.9043C824.091 7.97201 824.057 8.00586 823.989 8.00586H821.069C821.002 8.00586 820.968 7.97201 820.968 7.9043L820.942 5.77148C820.942 5.16211 820.752 4.66699 820.371 4.28613C819.99 3.90527 819.537 3.71484 819.013 3.71484C818.479 3.71484 818.022 3.91797 817.642 4.32422C817.261 4.73047 817.07 5.21289 817.07 5.77148C817.07 6.33854 817.189 6.8125 817.426 7.19336C817.671 7.57422 818.116 7.93815 818.759 8.28516C818.826 8.31901 818.983 8.40365 819.229 8.53906C819.474 8.67448 819.745 8.82682 820.041 8.99609C820.346 9.1569 820.621 9.30501 820.866 9.44043C821.112 9.56738 821.26 9.64355 821.311 9.66895C822.174 10.1514 822.855 10.7438 823.354 11.4463C823.862 12.1488 824.116 13.012 824.116 14.0361C824.116 15.0264 823.888 15.915 823.431 16.7021C822.965 17.4893 822.347 18.1113 821.577 18.5684C820.807 19.0254 819.952 19.2539 819.013 19.2539ZM0.152344 65.873L3.37695 48.0107C3.39388 47.943 3.4362 47.9092 3.50391 47.9092H7.27441C7.34212 47.9092 7.38444 47.943 7.40137 48.0107L10.499 65.873C10.5075 65.9577 10.4736 66 10.3975 66H7.51562C7.43099 66 7.38444 65.9577 7.37598 65.873L7.09668 63.9688H3.55469L3.27539 65.873C3.26693 65.9577 3.22461 66 3.14844 66H0.253906C0.186198 66 0.152344 65.9577 0.152344 65.873ZM5.24316 53.8887L4.0752 61.1885H6.57617L5.50977 53.8887L5.35742 52.9238L5.24316 53.8887ZM16.377 66.2539C15.4375 66.2539 14.5785 66.0169 13.7998 65.543C13.0296 65.069 12.416 64.4342 11.959 63.6387C11.5104 62.8346 11.2861 61.9417 11.2861 60.96L11.3115 52.8477C11.3115 51.8828 11.5316 51.0111 11.9717 50.2324C12.4118 49.4453 13.0169 48.8148 13.7871 48.3408C14.5658 47.8584 15.429 47.6172 16.377 47.6172C17.3418 47.6172 18.2008 47.8499 18.9541 48.3154C19.7158 48.7809 20.321 49.4115 20.7695 50.207C21.2266 50.9941 21.4551 51.8743 21.4551 52.8477V54.041C21.4551 54.1087 21.4212 54.1426 21.3535 54.1426H18.4336C18.3659 54.1426 18.332 54.1087 18.332 54.041V52.8477C18.332 52.2721 18.1458 51.777 17.7734 51.3623C17.401 50.9476 16.9355 50.7402 16.377 50.7402C15.7591 50.7402 15.2852 50.9518 14.9551 51.375C14.625 51.7982 14.46 52.2891 14.46 52.8477V60.96C14.46 61.5947 14.6462 62.1152 15.0186 62.5215C15.391 62.9193 15.8438 63.1182 16.377 63.1182C16.9355 63.1182 17.401 62.8981 17.7734 62.458C18.1458 62.0094 18.332 61.5101 18.332 60.96V59.7539C18.332 59.6862 18.3659 59.6523 18.4336 59.6523H21.3789C21.4466 59.6523 21.4805 59.6862 21.4805 59.7539V60.96C21.4805 61.9333 21.252 62.8219 20.7949 63.626C20.3294 64.4215 19.7158 65.0605 18.9541 65.543C18.1924 66.0169 17.3333 66.2539 16.377 66.2539ZM26.4189 66H23.4736C23.4059 66 23.3721 65.9577 23.3721 65.873L23.3975 48.0107C23.3975 47.943 23.4398 47.9092 23.5244 47.9092H26.4189C26.5036 47.9092 26.5459 47.943 26.5459 48.0107L26.5205 55.082H30.418V48.0107C30.418 47.943 30.4518 47.9092 30.5195 47.9092H33.4141C33.4987 47.9092 33.541 47.943 33.541 48.0107L33.5918 65.873C33.5918 65.9577 33.5495 66 33.4648 66H30.5449C30.4603 66 30.418 65.9577 30.418 65.873V58.2305H26.5205V65.873C26.5205 65.9577 26.4867 66 26.4189 66ZM38.7842 66H35.8389C35.7542 66 35.7119 65.9577 35.7119 65.873L35.7373 48.0107C35.7373 47.943 35.7712 47.9092 35.8389 47.9092H38.7588C38.8265 47.9092 38.8604 47.943 38.8604 48.0107L38.8857 65.873C38.8857 65.9577 38.8519 66 38.7842 66ZM49.6768 66H41.2725C41.2048 66 41.1709 65.9577 41.1709 65.873L41.1963 48.0107C41.1963 47.943 41.2301 47.9092 41.2979 47.9092H49.6514C49.7191 47.9092 49.7529 47.9515 49.7529 48.0361V50.9434C49.7529 51.0111 49.7191 51.0449 49.6514 51.0449H44.3193V55.1074H49.6514C49.7191 55.1074 49.7529 55.1413 49.7529 55.209L49.7783 58.1543C49.7783 58.222 49.7445 58.2559 49.6768 58.2559H44.3193V62.8008H49.6768C49.7445 62.8008 49.7783 62.8431 49.7783 62.9277V65.8984C49.7783 65.9661 49.7445 66 49.6768 66ZM57.624 66H54.4756C54.3994 66 54.3571 65.9577 54.3486 65.873L50.7559 48.0107C50.7389 47.943 50.7728 47.9092 50.8574 47.9092H53.8027C53.8704 47.9092 53.9128 47.943 53.9297 48.0107L56.0625 59.9189L58.1445 48.0107C58.1615 47.943 58.2038 47.9092 58.2715 47.9092H61.1787C61.2718 47.9092 61.3057 47.943 61.2803 48.0107L57.751 65.873C57.7425 65.9577 57.7002 66 57.624 66ZM71.3096 66H62.9053C62.8376 66 62.8037 65.9577 62.8037 65.873L62.8291 48.0107C62.8291 47.943 62.863 47.9092 62.9307 47.9092H71.2842C71.3519 47.9092 71.3857 47.9515 71.3857 48.0361V50.9434C71.3857 51.0111 71.3519 51.0449 71.2842 51.0449H65.9521V55.1074H71.2842C71.3519 55.1074 71.3857 55.1413 71.3857 55.209L71.4111 58.1543C71.4111 58.222 71.3773 58.2559 71.3096 58.2559H65.9521V62.8008H71.3096C71.3773 62.8008 71.4111 62.8431 71.4111 62.9277V65.8984C71.4111 65.9661 71.3773 66 71.3096 66ZM86.0234 66H83.0908C83.0146 66 82.9766 65.9577 82.9766 65.873V51.0449H79.5996C79.515 51.0449 79.4727 51.0026 79.4727 50.918L79.498 48.0107C79.498 47.943 79.5319 47.9092 79.5996 47.9092H89.4766C89.5697 47.9092 89.6162 47.943 89.6162 48.0107V50.918C89.6162 51.0026 89.5824 51.0449 89.5146 51.0449H86.0996L86.125 65.873C86.125 65.9577 86.0911 66 86.0234 66ZM93.9326 66H90.9873C90.9196 66 90.8857 65.9577 90.8857 65.873L90.9111 48.0107C90.9111 47.943 90.9535 47.9092 91.0381 47.9092H93.9326C94.0173 47.9092 94.0596 47.943 94.0596 48.0107L94.0342 55.082H97.9316V48.0107C97.9316 47.943 97.9655 47.9092 98.0332 47.9092H100.928C101.012 47.9092 101.055 47.943 101.055 48.0107L101.105 65.873C101.105 65.9577 101.063 66 100.979 66H98.0586C97.974 66 97.9316 65.9577 97.9316 65.873V58.2305H94.0342V65.873C94.0342 65.9577 94.0003 66 93.9326 66ZM111.731 66H103.327C103.259 66 103.226 65.9577 103.226 65.873L103.251 48.0107C103.251 47.943 103.285 47.9092 103.353 47.9092H111.706C111.774 47.9092 111.808 47.9515 111.808 48.0361V50.9434C111.808 51.0111 111.774 51.0449 111.706 51.0449H106.374V55.1074H111.706C111.774 55.1074 111.808 55.1413 111.808 55.209L111.833 58.1543C111.833 58.222 111.799 58.2559 111.731 58.2559H106.374V62.8008H111.731C111.799 62.8008 111.833 62.8431 111.833 62.9277V65.8984C111.833 65.9661 111.799 66 111.731 66ZM117.216 66H114.271C114.186 66 114.144 65.9577 114.144 65.873L114.169 48.0107C114.169 47.943 114.203 47.9092 114.271 47.9092H117.19C117.258 47.9092 117.292 47.943 117.292 48.0107L117.317 65.873C117.317 65.9577 117.284 66 117.216 66ZM122.649 66H119.704C119.636 66 119.603 65.9577 119.603 65.873L119.653 48.0107C119.653 47.943 119.687 47.9092 119.755 47.9092H125.011C125.95 47.9092 126.813 48.1377 127.601 48.5947C128.388 49.0518 129.014 49.6654 129.479 50.4355C129.953 51.2057 130.19 52.0775 130.19 53.0508C130.19 53.6855 130.093 54.2611 129.898 54.7773C129.704 55.2936 129.475 55.7295 129.213 56.085C128.959 56.4404 128.726 56.7028 128.515 56.8721C129.454 57.9131 129.924 59.1361 129.924 60.541L129.949 65.873C129.949 65.9577 129.907 66 129.822 66H126.877C126.809 66 126.775 65.9746 126.775 65.9238V60.541C126.775 59.9147 126.555 59.373 126.115 58.916C125.675 58.459 125.133 58.2305 124.49 58.2305H122.776L122.751 65.873C122.751 65.9577 122.717 66 122.649 66ZM125.011 51.0195H122.776V55.1074H125.011C125.544 55.1074 126.018 54.9085 126.433 54.5107C126.856 54.113 127.067 53.6263 127.067 53.0508C127.067 52.5007 126.864 52.0267 126.458 51.6289C126.052 51.2227 125.569 51.0195 125.011 51.0195ZM143.66 66H139.001C138.933 66 138.899 65.9577 138.899 65.873L138.95 48.0107C138.95 47.943 138.984 47.9092 139.052 47.9092H144.054C145.027 47.9092 145.911 48.1462 146.707 48.6201C147.486 49.0941 148.099 49.7246 148.548 50.5117C148.996 51.2904 149.221 52.1367 149.221 53.0508C149.221 53.7956 149.051 54.4896 148.713 55.1328C148.374 55.776 147.972 56.2965 147.507 56.6943C148.006 57.1937 148.396 57.7734 148.675 58.4336C148.954 59.0938 149.094 59.7878 149.094 60.5156C149.094 61.5228 148.853 62.4411 148.37 63.2705C147.879 64.0999 147.223 64.7643 146.402 65.2637C145.581 65.7546 144.667 66 143.66 66ZM144.054 50.9941H142.073V55.082H144.054C144.655 55.082 145.141 54.8704 145.514 54.4473C145.886 54.0156 146.072 53.5501 146.072 53.0508C146.072 52.5007 145.873 52.0225 145.476 51.6162C145.078 51.2015 144.604 50.9941 144.054 50.9941ZM143.66 58.2305H142.073L142.048 62.8262H143.66C144.286 62.8262 144.824 62.5977 145.272 62.1406C145.721 61.6836 145.945 61.1419 145.945 60.5156C145.945 59.8893 145.721 59.3519 145.272 58.9033C144.824 58.4548 144.286 58.2305 143.66 58.2305ZM155.746 66.2539C154.832 66.2539 153.986 66.0169 153.207 65.543C152.428 65.069 151.806 64.4342 151.341 63.6387C150.884 62.8346 150.655 61.9587 150.655 61.0107L150.706 48.0107C150.706 47.943 150.74 47.9092 150.808 47.9092H153.728C153.795 47.9092 153.829 47.943 153.829 48.0107V61.0107C153.829 61.5947 154.015 62.0941 154.388 62.5088C154.76 62.915 155.213 63.1182 155.746 63.1182C156.305 63.1182 156.77 62.915 157.143 62.5088C157.515 62.0941 157.701 61.5947 157.701 61.0107V48.0107C157.701 47.943 157.735 47.9092 157.803 47.9092H160.723C160.79 47.9092 160.824 47.943 160.824 48.0107L160.875 61.0107C160.875 61.9671 160.646 62.8473 160.189 63.6514C159.724 64.4469 159.106 65.0817 158.336 65.5557C157.566 66.0212 156.702 66.2539 155.746 66.2539ZM165.991 66H163.046C162.961 66 162.919 65.9577 162.919 65.873L162.944 48.0107C162.944 47.943 162.978 47.9092 163.046 47.9092H165.966C166.034 47.9092 166.067 47.943 166.067 48.0107L166.093 65.873C166.093 65.9577 166.059 66 165.991 66ZM172.796 66.2539C171.873 66.2539 171.023 66.0169 170.244 65.543C169.474 65.069 168.856 64.4385 168.391 63.6514C167.934 62.8558 167.705 61.984 167.705 61.0361V59.8428C167.705 59.7497 167.747 59.7031 167.832 59.7031H170.752C170.82 59.7031 170.854 59.7497 170.854 59.8428V61.0361C170.854 61.6032 171.044 62.0941 171.425 62.5088C171.806 62.915 172.263 63.1182 172.796 63.1182C173.338 63.1182 173.799 62.9108 174.18 62.4961C174.561 62.0729 174.751 61.5863 174.751 61.0361C174.751 60.4014 174.336 59.847 173.507 59.373C173.371 59.2884 173.194 59.1868 172.974 59.0684C172.762 58.9414 172.508 58.7975 172.212 58.6367C171.916 58.4759 171.628 58.3193 171.349 58.167C171.069 58.0062 170.799 57.8538 170.536 57.71C169.588 57.1514 168.882 56.4531 168.416 55.6152C167.959 54.7689 167.73 53.821 167.73 52.7715C167.73 51.8066 167.967 50.9349 168.441 50.1562C168.915 49.3861 169.533 48.7767 170.295 48.3281C171.065 47.8711 171.899 47.6426 172.796 47.6426C173.718 47.6426 174.565 47.8711 175.335 48.3281C176.105 48.7936 176.719 49.4115 177.176 50.1816C177.641 50.9518 177.874 51.8151 177.874 52.7715V54.9043C177.874 54.972 177.84 55.0059 177.772 55.0059H174.853C174.785 55.0059 174.751 54.972 174.751 54.9043L174.726 52.7715C174.726 52.1621 174.535 51.667 174.154 51.2861C173.773 50.9053 173.321 50.7148 172.796 50.7148C172.263 50.7148 171.806 50.918 171.425 51.3242C171.044 51.7305 170.854 52.2129 170.854 52.7715C170.854 53.3385 170.972 53.8125 171.209 54.1934C171.454 54.5742 171.899 54.9382 172.542 55.2852C172.61 55.319 172.766 55.4036 173.012 55.5391C173.257 55.6745 173.528 55.8268 173.824 55.9961C174.129 56.1569 174.404 56.305 174.649 56.4404C174.895 56.5674 175.043 56.6436 175.094 56.6689C175.957 57.1514 176.638 57.7438 177.138 58.4463C177.646 59.1488 177.899 60.012 177.899 61.0361C177.899 62.0264 177.671 62.915 177.214 63.7021C176.748 64.4893 176.131 65.1113 175.36 65.5684C174.59 66.0254 173.735 66.2539 172.796 66.2539ZM182.533 66H179.931C179.795 66 179.728 65.9408 179.728 65.8223L179.702 48.1123C179.702 47.9769 179.77 47.9092 179.905 47.9092H182.254L186.646 58.1543L186.52 48.1123C186.52 47.9769 186.596 47.9092 186.748 47.9092H189.325C189.427 47.9092 189.478 47.9769 189.478 48.1123L189.503 65.8477C189.503 65.9492 189.461 66 189.376 66H187.091L182.584 56.4277L182.774 65.7969C182.774 65.9323 182.694 66 182.533 66ZM200.269 66H191.864C191.797 66 191.763 65.9577 191.763 65.873L191.788 48.0107C191.788 47.943 191.822 47.9092 191.89 47.9092H200.243C200.311 47.9092 200.345 47.9515 200.345 48.0361V50.9434C200.345 51.0111 200.311 51.0449 200.243 51.0449H194.911V55.1074H200.243C200.311 55.1074 200.345 55.1413 200.345 55.209L200.37 58.1543C200.37 58.222 200.336 58.2559 200.269 58.2559H194.911V62.8008H200.269C200.336 62.8008 200.37 62.8431 200.37 62.9277V65.8984C200.37 65.9661 200.336 66 200.269 66ZM207.099 66.2539C206.176 66.2539 205.326 66.0169 204.547 65.543C203.777 65.069 203.159 64.4385 202.693 63.6514C202.236 62.8558 202.008 61.984 202.008 61.0361V59.8428C202.008 59.7497 202.05 59.7031 202.135 59.7031H205.055C205.122 59.7031 205.156 59.7497 205.156 59.8428V61.0361C205.156 61.6032 205.347 62.0941 205.728 62.5088C206.108 62.915 206.565 63.1182 207.099 63.1182C207.64 63.1182 208.102 62.9108 208.482 62.4961C208.863 62.0729 209.054 61.5863 209.054 61.0361C209.054 60.4014 208.639 59.847 207.81 59.373C207.674 59.2884 207.496 59.1868 207.276 59.0684C207.065 58.9414 206.811 58.7975 206.515 58.6367C206.218 58.4759 205.931 58.3193 205.651 58.167C205.372 58.0062 205.101 57.8538 204.839 57.71C203.891 57.1514 203.184 56.4531 202.719 55.6152C202.262 54.7689 202.033 53.821 202.033 52.7715C202.033 51.8066 202.27 50.9349 202.744 50.1562C203.218 49.3861 203.836 48.7767 204.598 48.3281C205.368 47.8711 206.201 47.6426 207.099 47.6426C208.021 47.6426 208.868 47.8711 209.638 48.3281C210.408 48.7936 211.021 49.4115 211.479 50.1816C211.944 50.9518 212.177 51.8151 212.177 52.7715V54.9043C212.177 54.972 212.143 55.0059 212.075 55.0059H209.155C209.088 55.0059 209.054 54.972 209.054 54.9043L209.028 52.7715C209.028 52.1621 208.838 51.667 208.457 51.2861C208.076 50.9053 207.623 50.7148 207.099 50.7148C206.565 50.7148 206.108 50.918 205.728 51.3242C205.347 51.7305 205.156 52.2129 205.156 52.7715C205.156 53.3385 205.275 53.8125 205.512 54.1934C205.757 54.5742 206.201 54.9382 206.845 55.2852C206.912 55.319 207.069 55.4036 207.314 55.5391C207.56 55.6745 207.831 55.8268 208.127 55.9961C208.432 56.1569 208.707 56.305 208.952 56.4404C209.198 56.5674 209.346 56.6436 209.396 56.6689C210.26 57.1514 210.941 57.7438 211.44 58.4463C211.948 59.1488 212.202 60.012 212.202 61.0361C212.202 62.0264 211.974 62.915 211.517 63.7021C211.051 64.4893 210.433 65.1113 209.663 65.5684C208.893 66.0254 208.038 66.2539 207.099 66.2539ZM218.423 66.2539C217.5 66.2539 216.65 66.0169 215.871 65.543C215.101 65.069 214.483 64.4385 214.018 63.6514C213.561 62.8558 213.332 61.984 213.332 61.0361V59.8428C213.332 59.7497 213.374 59.7031 213.459 59.7031H216.379C216.447 59.7031 216.48 59.7497 216.48 59.8428V61.0361C216.48 61.6032 216.671 62.0941 217.052 62.5088C217.433 62.915 217.89 63.1182 218.423 63.1182C218.965 63.1182 219.426 62.9108 219.807 62.4961C220.188 62.0729 220.378 61.5863 220.378 61.0361C220.378 60.4014 219.963 59.847 219.134 59.373C218.998 59.2884 218.821 59.1868 218.601 59.0684C218.389 58.9414 218.135 58.7975 217.839 58.6367C217.543 58.4759 217.255 58.3193 216.976 58.167C216.696 58.0062 216.425 57.8538 216.163 57.71C215.215 57.1514 214.508 56.4531 214.043 55.6152C213.586 54.7689 213.357 53.821 213.357 52.7715C213.357 51.8066 213.594 50.9349 214.068 50.1562C214.542 49.3861 215.16 48.7767 215.922 48.3281C216.692 47.8711 217.526 47.6426 218.423 47.6426C219.345 47.6426 220.192 47.8711 220.962 48.3281C221.732 48.7936 222.346 49.4115 222.803 50.1816C223.268 50.9518 223.501 51.8151 223.501 52.7715V54.9043C223.501 54.972 223.467 55.0059 223.399 55.0059H220.479C220.412 55.0059 220.378 54.972 220.378 54.9043L220.353 52.7715C220.353 52.1621 220.162 51.667 219.781 51.2861C219.4 50.9053 218.948 50.7148 218.423 50.7148C217.89 50.7148 217.433 50.918 217.052 51.3242C216.671 51.7305 216.48 52.2129 216.48 52.7715C216.48 53.3385 216.599 53.8125 216.836 54.1934C217.081 54.5742 217.526 54.9382 218.169 55.2852C218.237 55.319 218.393 55.4036 218.639 55.5391C218.884 55.6745 219.155 55.8268 219.451 55.9961C219.756 56.1569 220.031 56.305 220.276 56.4404C220.522 56.5674 220.67 56.6436 220.721 56.6689C221.584 57.1514 222.265 57.7438 222.765 58.4463C223.272 59.1488 223.526 60.012 223.526 61.0361C223.526 62.0264 223.298 62.915 222.841 63.7021C222.375 64.4893 221.757 65.1113 220.987 65.5684C220.217 66.0254 219.362 66.2539 218.423 66.2539ZM236.895 66.2539C235.972 66.2539 235.121 66.0169 234.343 65.543C233.573 65.069 232.951 64.4385 232.477 63.6514C232.011 62.8558 231.778 61.984 231.778 61.0361L231.804 52.7969C231.804 51.832 232.036 50.9645 232.502 50.1943C232.959 49.4157 233.577 48.7936 234.355 48.3281C235.134 47.8542 235.98 47.6172 236.895 47.6172C237.842 47.6172 238.693 47.8499 239.446 48.3154C240.208 48.7809 240.817 49.4072 241.274 50.1943C241.74 50.973 241.973 51.8405 241.973 52.7969L241.998 61.0361C241.998 61.984 241.77 62.8516 241.312 63.6387C240.847 64.4342 240.229 65.069 239.459 65.543C238.689 66.0169 237.834 66.2539 236.895 66.2539ZM236.895 63.1182C237.419 63.1182 237.876 62.9066 238.266 62.4834C238.655 62.0518 238.85 61.5693 238.85 61.0361L238.824 52.7969C238.824 52.2214 238.642 51.7347 238.278 51.3369C237.914 50.9391 237.453 50.7402 236.895 50.7402C236.361 50.7402 235.904 50.9349 235.523 51.3242C235.143 51.7135 234.952 52.2044 234.952 52.7969V61.0361C234.952 61.6032 235.143 62.0941 235.523 62.5088C235.904 62.915 236.361 63.1182 236.895 63.1182ZM248.727 66H244.067C244 66 243.966 65.9577 243.966 65.873L244.017 48.0107C244.017 47.943 244.05 47.9092 244.118 47.9092H249.12C250.093 47.9092 250.978 48.1462 251.773 48.6201C252.552 49.0941 253.166 49.7246 253.614 50.5117C254.063 51.2904 254.287 52.1367 254.287 53.0508C254.287 53.7956 254.118 54.4896 253.779 55.1328C253.441 55.776 253.039 56.2965 252.573 56.6943C253.073 57.1937 253.462 57.7734 253.741 58.4336C254.021 59.0938 254.16 59.7878 254.16 60.5156C254.16 61.5228 253.919 62.4411 253.437 63.2705C252.946 64.0999 252.29 64.7643 251.469 65.2637C250.648 65.7546 249.734 66 248.727 66ZM249.12 50.9941H247.14V55.082H249.12C249.721 55.082 250.208 54.8704 250.58 54.4473C250.952 54.0156 251.139 53.5501 251.139 53.0508C251.139 52.5007 250.94 52.0225 250.542 51.6162C250.144 51.2015 249.67 50.9941 249.12 50.9941ZM248.727 58.2305H247.14L247.114 62.8262H248.727C249.353 62.8262 249.89 62.5977 250.339 62.1406C250.787 61.6836 251.012 61.1419 251.012 60.5156C251.012 59.8893 250.787 59.3519 250.339 58.9033C249.89 58.4548 249.353 58.2305 248.727 58.2305ZM260.292 66.2539C259.336 66.2539 258.468 66.0254 257.689 65.5684C256.919 65.1113 256.31 64.4808 255.861 63.6768C255.421 62.8643 255.201 61.9587 255.201 60.96V59.7539C255.201 59.6862 255.235 59.6523 255.303 59.6523H258.248C258.316 59.6523 258.35 59.6989 258.35 59.792V60.96C258.35 61.5947 258.532 62.1152 258.896 62.5215C259.259 62.9193 259.725 63.1182 260.292 63.1182C260.817 63.1182 261.27 62.9023 261.65 62.4707C262.031 62.0306 262.222 61.527 262.222 60.96V48.0361C262.222 47.9684 262.256 47.9346 262.323 47.9346H265.243C265.311 47.9346 265.345 47.9769 265.345 48.0615L265.37 60.96C265.37 61.9079 265.142 62.7839 264.685 63.5879C264.219 64.4004 263.605 65.0479 262.844 65.5303C262.082 66.0127 261.231 66.2539 260.292 66.2539ZM275.831 66H267.427C267.359 66 267.325 65.9577 267.325 65.873L267.351 48.0107C267.351 47.943 267.384 47.9092 267.452 47.9092H275.806C275.873 47.9092 275.907 47.9515 275.907 48.0361V50.9434C275.907 51.0111 275.873 51.0449 275.806 51.0449H270.474V55.1074H275.806C275.873 55.1074 275.907 55.1413 275.907 55.209L275.933 58.1543C275.933 58.222 275.899 58.2559 275.831 58.2559H270.474V62.8008H275.831C275.899 62.8008 275.933 62.8431 275.933 62.9277V65.8984C275.933 65.9661 275.899 66 275.831 66ZM283.029 66.2539C282.09 66.2539 281.231 66.0169 280.452 65.543C279.682 65.069 279.068 64.4342 278.611 63.6387C278.163 62.8346 277.938 61.9417 277.938 60.96L277.964 52.8477C277.964 51.8828 278.184 51.0111 278.624 50.2324C279.064 49.4453 279.669 48.8148 280.439 48.3408C281.218 47.8584 282.081 47.6172 283.029 47.6172C283.994 47.6172 284.853 47.8499 285.606 48.3154C286.368 48.7809 286.973 49.4115 287.422 50.207C287.879 50.9941 288.107 51.8743 288.107 52.8477V54.041C288.107 54.1087 288.074 54.1426 288.006 54.1426H285.086C285.018 54.1426 284.984 54.1087 284.984 54.041V52.8477C284.984 52.2721 284.798 51.777 284.426 51.3623C284.053 50.9476 283.588 50.7402 283.029 50.7402C282.411 50.7402 281.938 50.9518 281.607 51.375C281.277 51.7982 281.112 52.2891 281.112 52.8477V60.96C281.112 61.5947 281.299 62.1152 281.671 62.5215C282.043 62.9193 282.496 63.1182 283.029 63.1182C283.588 63.1182 284.053 62.8981 284.426 62.458C284.798 62.0094 284.984 61.5101 284.984 60.96V59.7539C284.984 59.6862 285.018 59.6523 285.086 59.6523H288.031C288.099 59.6523 288.133 59.6862 288.133 59.7539V60.96C288.133 61.9333 287.904 62.8219 287.447 63.626C286.982 64.4215 286.368 65.0605 285.606 65.543C284.845 66.0169 283.986 66.2539 283.029 66.2539ZM295.572 66H292.64C292.563 66 292.525 65.9577 292.525 65.873V51.0449H289.148C289.064 51.0449 289.021 51.0026 289.021 50.918L289.047 48.0107C289.047 47.943 289.081 47.9092 289.148 47.9092H299.025C299.118 47.9092 299.165 47.943 299.165 48.0107V50.918C299.165 51.0026 299.131 51.0449 299.063 51.0449H295.648L295.674 65.873C295.674 65.9577 295.64 66 295.572 66ZM303.507 66H300.562C300.477 66 300.435 65.9577 300.435 65.873L300.46 48.0107C300.46 47.943 300.494 47.9092 300.562 47.9092H303.481C303.549 47.9092 303.583 47.943 303.583 48.0107L303.608 65.873C303.608 65.9577 303.575 66 303.507 66ZM311.962 66H308.813C308.737 66 308.695 65.9577 308.687 65.873L305.094 48.0107C305.077 47.943 305.111 47.9092 305.195 47.9092H308.141C308.208 47.9092 308.251 47.943 308.268 48.0107L310.4 59.9189L312.482 48.0107C312.499 47.943 312.542 47.9092 312.609 47.9092H315.517C315.61 47.9092 315.644 47.943 315.618 48.0107L312.089 65.873C312.08 65.9577 312.038 66 311.962 66ZM325.647 66H317.243C317.175 66 317.142 65.9577 317.142 65.873L317.167 48.0107C317.167 47.943 317.201 47.9092 317.269 47.9092H325.622C325.69 47.9092 325.724 47.9515 325.724 48.0361V50.9434C325.724 51.0111 325.69 51.0449 325.622 51.0449H320.29V55.1074H325.622C325.69 55.1074 325.724 55.1413 325.724 55.209L325.749 58.1543C325.749 58.222 325.715 58.2559 325.647 58.2559H320.29V62.8008H325.647C325.715 62.8008 325.749 62.8431 325.749 62.9277V65.8984C325.749 65.9661 325.715 66 325.647 66ZM332.478 66.2539C331.555 66.2539 330.704 66.0169 329.926 65.543C329.156 65.069 328.538 64.4385 328.072 63.6514C327.615 62.8558 327.387 61.984 327.387 61.0361V59.8428C327.387 59.7497 327.429 59.7031 327.514 59.7031H330.434C330.501 59.7031 330.535 59.7497 330.535 59.8428V61.0361C330.535 61.6032 330.726 62.0941 331.106 62.5088C331.487 62.915 331.944 63.1182 332.478 63.1182C333.019 63.1182 333.48 62.9108 333.861 62.4961C334.242 62.0729 334.433 61.5863 334.433 61.0361C334.433 60.4014 334.018 59.847 333.188 59.373C333.053 59.2884 332.875 59.1868 332.655 59.0684C332.444 58.9414 332.19 58.7975 331.894 58.6367C331.597 58.4759 331.31 58.3193 331.03 58.167C330.751 58.0062 330.48 57.8538 330.218 57.71C329.27 57.1514 328.563 56.4531 328.098 55.6152C327.641 54.7689 327.412 53.821 327.412 52.7715C327.412 51.8066 327.649 50.9349 328.123 50.1562C328.597 49.3861 329.215 48.7767 329.977 48.3281C330.747 47.8711 331.58 47.6426 332.478 47.6426C333.4 47.6426 334.246 47.8711 335.017 48.3281C335.787 48.7936 336.4 49.4115 336.857 50.1816C337.323 50.9518 337.556 51.8151 337.556 52.7715V54.9043C337.556 54.972 337.522 55.0059 337.454 55.0059H334.534C334.466 55.0059 334.433 54.972 334.433 54.9043L334.407 52.7715C334.407 52.1621 334.217 51.667 333.836 51.2861C333.455 50.9053 333.002 50.7148 332.478 50.7148C331.944 50.7148 331.487 50.918 331.106 51.3242C330.726 51.7305 330.535 52.2129 330.535 52.7715C330.535 53.3385 330.654 53.8125 330.891 54.1934C331.136 54.5742 331.58 54.9382 332.224 55.2852C332.291 55.319 332.448 55.4036 332.693 55.5391C332.939 55.6745 333.21 55.8268 333.506 55.9961C333.811 56.1569 334.086 56.305 334.331 56.4404C334.576 56.5674 334.725 56.6436 334.775 56.6689C335.639 57.1514 336.32 57.7438 336.819 58.4463C337.327 59.1488 337.581 60.012 337.581 61.0361C337.581 62.0264 337.353 62.915 336.896 63.7021C336.43 64.4893 335.812 65.1113 335.042 65.5684C334.272 66.0254 333.417 66.2539 332.478 66.2539ZM342.431 66H339.485C339.418 66 339.384 65.9661 339.384 65.8984V62.9531C339.384 62.8854 339.418 62.8516 339.485 62.8516H342.431C342.498 62.8516 342.532 62.8854 342.532 62.9531V65.8984C342.532 65.9661 342.498 66 342.431 66ZM354.491 66H351.546C351.461 66 351.419 65.9577 351.419 65.873L351.444 48.0107C351.444 47.943 351.478 47.9092 351.546 47.9092H354.466C354.534 47.9092 354.567 47.943 354.567 48.0107L354.593 65.873C354.593 65.9577 354.559 66 354.491 66ZM362.756 65.873L365.98 48.0107C365.997 47.943 366.04 47.9092 366.107 47.9092H369.878C369.946 47.9092 369.988 47.943 370.005 48.0107L373.103 65.873C373.111 65.9577 373.077 66 373.001 66H370.119C370.035 66 369.988 65.9577 369.979 65.873L369.7 63.9688H366.158L365.879 65.873C365.87 65.9577 365.828 66 365.752 66H362.857C362.79 66 362.756 65.9577 362.756 65.873ZM367.847 53.8887L366.679 61.1885H369.18L368.113 53.8887L367.961 52.9238L367.847 53.8887ZM377.774 66H374.829C374.761 66 374.728 65.9577 374.728 65.873L374.778 48.0107C374.778 47.943 374.812 47.9092 374.88 47.9092H378.054C378.121 47.9092 378.181 47.943 378.231 48.0107L380.605 51.4385L382.967 48.0107C383.018 47.943 383.081 47.9092 383.157 47.9092H386.344C386.42 47.9092 386.458 47.943 386.458 48.0107L386.509 65.873C386.509 65.9577 386.475 66 386.407 66H383.462C383.394 66 383.36 65.9577 383.36 65.873L383.335 52.6064L380.605 56.5674L377.901 52.6064L377.876 65.873C377.876 65.9577 377.842 66 377.774 66ZM400.232 66.2539C399.293 66.2539 398.434 66.0169 397.655 65.543C396.885 65.069 396.271 64.4342 395.814 63.6387C395.366 62.8346 395.142 61.9417 395.142 60.96L395.167 52.8477C395.167 51.8828 395.387 51.0111 395.827 50.2324C396.267 49.4453 396.872 48.8148 397.643 48.3408C398.421 47.8584 399.285 47.6172 400.232 47.6172C401.197 47.6172 402.056 47.8499 402.81 48.3154C403.571 48.7809 404.176 49.4115 404.625 50.207C405.082 50.9941 405.311 51.8743 405.311 52.8477V54.041C405.311 54.1087 405.277 54.1426 405.209 54.1426H402.289C402.221 54.1426 402.188 54.1087 402.188 54.041V52.8477C402.188 52.2721 402.001 51.777 401.629 51.3623C401.257 50.9476 400.791 50.7402 400.232 50.7402C399.615 50.7402 399.141 50.9518 398.811 51.375C398.48 51.7982 398.315 52.2891 398.315 52.8477V60.96C398.315 61.5947 398.502 62.1152 398.874 62.5215C399.246 62.9193 399.699 63.1182 400.232 63.1182C400.791 63.1182 401.257 62.8981 401.629 62.458C402.001 62.0094 402.188 61.5101 402.188 60.96V59.7539C402.188 59.6862 402.221 59.6523 402.289 59.6523H405.234C405.302 59.6523 405.336 59.6862 405.336 59.7539V60.96C405.336 61.9333 405.107 62.8219 404.65 63.626C404.185 64.4215 403.571 65.0605 402.81 65.543C402.048 66.0169 401.189 66.2539 400.232 66.2539ZM412.039 66.2539C411.117 66.2539 410.266 66.0169 409.487 65.543C408.717 65.069 408.095 64.4385 407.621 63.6514C407.156 62.8558 406.923 61.984 406.923 61.0361L406.948 52.7969C406.948 51.832 407.181 50.9645 407.646 50.1943C408.104 49.4157 408.721 48.7936 409.5 48.3281C410.279 47.8542 411.125 47.6172 412.039 47.6172C412.987 47.6172 413.838 47.8499 414.591 48.3154C415.353 48.7809 415.962 49.4072 416.419 50.1943C416.884 50.973 417.117 51.8405 417.117 52.7969L417.143 61.0361C417.143 61.984 416.914 62.8516 416.457 63.6387C415.992 64.4342 415.374 65.069 414.604 65.543C413.833 66.0169 412.979 66.2539 412.039 66.2539ZM412.039 63.1182C412.564 63.1182 413.021 62.9066 413.41 62.4834C413.799 62.0518 413.994 61.5693 413.994 61.0361L413.969 52.7969C413.969 52.2214 413.787 51.7347 413.423 51.3369C413.059 50.9391 412.598 50.7402 412.039 50.7402C411.506 50.7402 411.049 50.9349 410.668 51.3242C410.287 51.7135 410.097 52.2044 410.097 52.7969V61.0361C410.097 61.6032 410.287 62.0941 410.668 62.5088C411.049 62.915 411.506 63.1182 412.039 63.1182ZM422.157 66H419.212C419.144 66 419.11 65.9577 419.11 65.873L419.161 48.0107C419.161 47.943 419.195 47.9092 419.263 47.9092H422.437C422.504 47.9092 422.563 47.943 422.614 48.0107L424.988 51.4385L427.35 48.0107C427.4 47.943 427.464 47.9092 427.54 47.9092H430.727C430.803 47.9092 430.841 47.943 430.841 48.0107L430.892 65.873C430.892 65.9577 430.858 66 430.79 66H427.845C427.777 66 427.743 65.9577 427.743 65.873L427.718 52.6064L424.988 56.5674L422.284 52.6064L422.259 65.873C422.259 65.9577 422.225 66 422.157 66ZM436.122 66H433.177C433.109 66 433.075 65.9577 433.075 65.873L433.126 48.0107C433.126 47.943 433.16 47.9092 433.228 47.9092H436.401C436.469 47.9092 436.528 47.943 436.579 48.0107L438.953 51.4385L441.314 48.0107C441.365 47.943 441.429 47.9092 441.505 47.9092H444.691C444.768 47.9092 444.806 47.943 444.806 48.0107L444.856 65.873C444.856 65.9577 444.823 66 444.755 66H441.81C441.742 66 441.708 65.9577 441.708 65.873L441.683 52.6064L438.953 56.5674L436.249 52.6064L436.224 65.873C436.224 65.9577 436.19 66 436.122 66ZM450.112 66H447.167C447.082 66 447.04 65.9577 447.04 65.873L447.065 48.0107C447.065 47.943 447.099 47.9092 447.167 47.9092H450.087C450.155 47.9092 450.188 47.943 450.188 48.0107L450.214 65.873C450.214 65.9577 450.18 66 450.112 66ZM458.047 66H455.114C455.038 66 455 65.9577 455 65.873V51.0449H451.623C451.538 51.0449 451.496 51.0026 451.496 50.918L451.521 48.0107C451.521 47.943 451.555 47.9092 451.623 47.9092H461.5C461.593 47.9092 461.64 47.943 461.64 48.0107V50.918C461.64 51.0026 461.606 51.0449 461.538 51.0449H458.123L458.148 65.873C458.148 65.9577 458.115 66 458.047 66ZM468.457 66H465.524C465.448 66 465.41 65.9577 465.41 65.873V51.0449H462.033C461.949 51.0449 461.906 51.0026 461.906 50.918L461.932 48.0107C461.932 47.943 461.965 47.9092 462.033 47.9092H471.91C472.003 47.9092 472.05 47.943 472.05 48.0107V50.918C472.05 51.0026 472.016 51.0449 471.948 51.0449H468.533L468.559 65.873C468.559 65.9577 468.525 66 468.457 66ZM481.825 66H473.421C473.353 66 473.319 65.9577 473.319 65.873L473.345 48.0107C473.345 47.943 473.379 47.9092 473.446 47.9092H481.8C481.868 47.9092 481.901 47.9515 481.901 48.0361V50.9434C481.901 51.0111 481.868 51.0449 481.8 51.0449H476.468V55.1074H481.8C481.868 55.1074 481.901 55.1413 481.901 55.209L481.927 58.1543C481.927 58.222 481.893 58.2559 481.825 58.2559H476.468V62.8008H481.825C481.893 62.8008 481.927 62.8431 481.927 62.9277V65.8984C481.927 65.9661 481.893 66 481.825 66ZM489.023 65.9746L484.364 66C484.28 66 484.237 65.9577 484.237 65.873L484.288 48.0107C484.288 47.943 484.322 47.9092 484.39 47.9092L489.252 47.8838C490.217 47.8584 491.089 48.0785 491.867 48.5439C492.654 49.0094 493.281 49.64 493.746 50.4355C494.22 51.2227 494.457 52.0944 494.457 53.0508V60.5156C494.457 61.5143 494.216 62.4284 493.733 63.2578C493.243 64.0788 492.591 64.7347 491.778 65.2256C490.966 65.708 490.048 65.9577 489.023 65.9746ZM489.252 50.9941L487.437 51.0195L487.411 62.8008H489.023C489.667 62.8008 490.208 62.5765 490.648 62.1279C491.089 61.6794 491.309 61.1419 491.309 60.5156V53.0254C491.309 52.4753 491.105 51.9971 490.699 51.5908C490.293 51.1761 489.811 50.9772 489.252 50.9941ZM508.803 66H505.87C505.794 66 505.756 65.9577 505.756 65.873V51.0449H502.379C502.294 51.0449 502.252 51.0026 502.252 50.918L502.277 48.0107C502.277 47.943 502.311 47.9092 502.379 47.9092H512.256C512.349 47.9092 512.396 47.943 512.396 48.0107V50.918C512.396 51.0026 512.362 51.0449 512.294 51.0449H508.879L508.904 65.873C508.904 65.9577 508.87 66 508.803 66ZM517.943 66.2539C517.021 66.2539 516.17 66.0169 515.392 65.543C514.621 65.069 513.999 64.4385 513.525 63.6514C513.06 62.8558 512.827 61.984 512.827 61.0361L512.853 52.7969C512.853 51.832 513.085 50.9645 513.551 50.1943C514.008 49.4157 514.626 48.7936 515.404 48.3281C516.183 47.8542 517.029 47.6172 517.943 47.6172C518.891 47.6172 519.742 47.8499 520.495 48.3154C521.257 48.7809 521.866 49.4072 522.323 50.1943C522.789 50.973 523.021 51.8405 523.021 52.7969L523.047 61.0361C523.047 61.984 522.818 62.8516 522.361 63.6387C521.896 64.4342 521.278 65.069 520.508 65.543C519.738 66.0169 518.883 66.2539 517.943 66.2539ZM517.943 63.1182C518.468 63.1182 518.925 62.9066 519.314 62.4834C519.704 62.0518 519.898 61.5693 519.898 61.0361L519.873 52.7969C519.873 52.2214 519.691 51.7347 519.327 51.3369C518.963 50.9391 518.502 50.7402 517.943 50.7402C517.41 50.7402 516.953 50.9349 516.572 51.3242C516.191 51.7135 516.001 52.2044 516.001 52.7969V61.0361C516.001 61.6032 516.191 62.0941 516.572 62.5088C516.953 62.915 517.41 63.1182 517.943 63.1182ZM536.555 65.9746L531.896 66C531.811 66 531.769 65.9577 531.769 65.873L531.819 48.0107C531.819 47.943 531.853 47.9092 531.921 47.9092L536.783 47.8838C537.748 47.8584 538.62 48.0785 539.398 48.5439C540.186 49.0094 540.812 49.64 541.277 50.4355C541.751 51.2227 541.988 52.0944 541.988 53.0508V60.5156C541.988 61.5143 541.747 62.4284 541.265 63.2578C540.774 64.0788 540.122 64.7347 539.31 65.2256C538.497 65.708 537.579 65.9577 536.555 65.9746ZM536.783 50.9941L534.968 51.0195L534.942 62.8008H536.555C537.198 62.8008 537.74 62.5765 538.18 62.1279C538.62 61.6794 538.84 61.1419 538.84 60.5156V53.0254C538.84 52.4753 538.637 51.9971 538.23 51.5908C537.824 51.1761 537.342 50.9772 536.783 50.9941ZM552.538 66H544.134C544.066 66 544.032 65.9577 544.032 65.873L544.058 48.0107C544.058 47.943 544.091 47.9092 544.159 47.9092H552.513C552.58 47.9092 552.614 47.9515 552.614 48.0361V50.9434C552.614 51.0111 552.58 51.0449 552.513 51.0449H547.181V55.1074H552.513C552.58 55.1074 552.614 55.1413 552.614 55.209L552.64 58.1543C552.64 58.222 552.606 58.2559 552.538 58.2559H547.181V62.8008H552.538C552.606 62.8008 552.64 62.8431 552.64 62.9277V65.8984C552.64 65.9661 552.606 66 552.538 66ZM563.456 66H555.052C554.984 66 554.95 65.9577 554.95 65.873L554.976 48.0361C554.976 47.9515 555.018 47.9092 555.103 47.9092H557.997C558.082 47.9092 558.124 47.9515 558.124 48.0361L558.099 62.8008H563.456C563.541 62.8008 563.583 62.8431 563.583 62.9277V65.873C563.583 65.9577 563.541 66 563.456 66ZM568.356 66H565.411C565.326 66 565.284 65.9577 565.284 65.873L565.31 48.0107C565.31 47.943 565.343 47.9092 565.411 47.9092H568.331C568.399 47.9092 568.433 47.943 568.433 48.0107L568.458 65.873C568.458 65.9577 568.424 66 568.356 66ZM576.812 66H573.663C573.587 66 573.545 65.9577 573.536 65.873L569.943 48.0107C569.926 47.943 569.96 47.9092 570.045 47.9092H572.99C573.058 47.9092 573.1 47.943 573.117 48.0107L575.25 59.9189L577.332 48.0107C577.349 47.943 577.391 47.9092 577.459 47.9092H580.366C580.459 47.9092 580.493 47.943 580.468 48.0107L576.938 65.873C576.93 65.9577 576.888 66 576.812 66ZM590.497 66H582.093C582.025 66 581.991 65.9577 581.991 65.873L582.017 48.0107C582.017 47.943 582.05 47.9092 582.118 47.9092H590.472C590.539 47.9092 590.573 47.9515 590.573 48.0361V50.9434C590.573 51.0111 590.539 51.0449 590.472 51.0449H585.14V55.1074H590.472C590.539 55.1074 590.573 55.1413 590.573 55.209L590.599 58.1543C590.599 58.222 590.565 58.2559 590.497 58.2559H585.14V62.8008H590.497C590.565 62.8008 590.599 62.8431 590.599 62.9277V65.8984C590.599 65.9661 590.565 66 590.497 66ZM595.956 66H593.011C592.943 66 592.909 65.9577 592.909 65.873L592.96 48.0107C592.96 47.943 592.994 47.9092 593.062 47.9092H598.317C599.257 47.9092 600.12 48.1377 600.907 48.5947C601.694 49.0518 602.321 49.6654 602.786 50.4355C603.26 51.2057 603.497 52.0775 603.497 53.0508C603.497 53.6855 603.4 54.2611 603.205 54.7773C603.01 55.2936 602.782 55.7295 602.52 56.085C602.266 56.4404 602.033 56.7028 601.821 56.8721C602.761 57.9131 603.23 59.1361 603.23 60.541L603.256 65.873C603.256 65.9577 603.214 66 603.129 66H600.184C600.116 66 600.082 65.9746 600.082 65.9238V60.541C600.082 59.9147 599.862 59.373 599.422 58.916C598.982 58.459 598.44 58.2305 597.797 58.2305H596.083L596.058 65.873C596.058 65.9577 596.024 66 595.956 66ZM598.317 51.0195H596.083V55.1074H598.317C598.851 55.1074 599.325 54.9085 599.739 54.5107C600.162 54.113 600.374 53.6263 600.374 53.0508C600.374 52.5007 600.171 52.0267 599.765 51.6289C599.358 51.2227 598.876 51.0195 598.317 51.0195ZM608.524 66H605.579C605.494 66 605.452 65.9577 605.452 65.873L605.478 48.0107C605.478 47.943 605.511 47.9092 605.579 47.9092H608.499C608.567 47.9092 608.601 47.943 608.601 48.0107L608.626 65.873C608.626 65.9577 608.592 66 608.524 66ZM613.742 66H611.14C611.004 66 610.937 65.9408 610.937 65.8223L610.911 48.1123C610.911 47.9769 610.979 47.9092 611.114 47.9092H613.463L617.855 58.1543L617.729 48.1123C617.729 47.9769 617.805 47.9092 617.957 47.9092H620.534C620.636 47.9092 620.687 47.9769 620.687 48.1123L620.712 65.8477C620.712 65.9492 620.67 66 620.585 66H618.3L613.793 56.4277L613.983 65.7969C613.983 65.9323 613.903 66 613.742 66ZM627.732 66.2539C626.793 66.2539 625.947 66.0212 625.193 65.5557C624.432 65.0902 623.818 64.4639 623.353 63.6768C622.896 62.8896 622.667 62.0094 622.667 61.0361V52.7969C622.667 51.849 622.9 50.9857 623.365 50.207C623.822 49.4199 624.436 48.7936 625.206 48.3281C625.976 47.8542 626.818 47.6172 627.732 47.6172C628.689 47.6172 629.552 47.8457 630.322 48.3027C631.092 48.7682 631.702 49.3903 632.15 50.1689C632.607 50.9476 632.836 51.8236 632.836 52.7969V53.9902C632.836 54.0579 632.794 54.0918 632.709 54.0918H629.789C629.721 54.0918 629.688 54.0579 629.688 53.9902V53C629.688 52.3398 629.501 51.7939 629.129 51.3623C628.757 50.9307 628.291 50.7148 627.732 50.7148C627.233 50.7148 626.789 50.9222 626.399 51.3369C626.01 51.7516 625.815 52.2383 625.815 52.7969V61.0361C625.815 61.6032 626.006 62.0941 626.387 62.5088C626.768 62.915 627.216 63.1182 627.732 63.1182C628.291 63.1182 628.757 62.9193 629.129 62.5215C629.501 62.1152 629.688 61.6201 629.688 61.0361V59.7539H627.872C627.779 59.7539 627.732 59.7116 627.732 59.627V56.7197C627.732 56.6351 627.779 56.5928 627.872 56.5928H632.734C632.802 56.5928 632.836 56.6351 632.836 56.7197V61.0361C632.836 62.0094 632.607 62.8896 632.15 63.6768C631.685 64.4639 631.071 65.0902 630.31 65.5557C629.548 66.0212 628.689 66.2539 627.732 66.2539ZM644.478 66H641.532C641.465 66 641.431 65.9577 641.431 65.873L641.456 48.0107C641.456 47.943 641.498 47.9092 641.583 47.9092H644.478C644.562 47.9092 644.604 47.943 644.604 48.0107L644.579 55.082H648.477V48.0107C648.477 47.943 648.51 47.9092 648.578 47.9092H651.473C651.557 47.9092 651.6 47.943 651.6 48.0107L651.65 65.873C651.65 65.9577 651.608 66 651.523 66H648.604C648.519 66 648.477 65.9577 648.477 65.873V58.2305H644.579V65.873C644.579 65.9577 644.545 66 644.478 66ZM656.843 66H653.897C653.813 66 653.771 65.9577 653.771 65.873L653.796 48.0107C653.796 47.943 653.83 47.9092 653.897 47.9092H656.817C656.885 47.9092 656.919 47.943 656.919 48.0107L656.944 65.873C656.944 65.9577 656.91 66 656.843 66ZM663.99 66.2539C663.051 66.2539 662.204 66.0212 661.451 65.5557C660.689 65.0902 660.076 64.4639 659.61 63.6768C659.153 62.8896 658.925 62.0094 658.925 61.0361V52.7969C658.925 51.849 659.158 50.9857 659.623 50.207C660.08 49.4199 660.694 48.7936 661.464 48.3281C662.234 47.8542 663.076 47.6172 663.99 47.6172C664.947 47.6172 665.81 47.8457 666.58 48.3027C667.35 48.7682 667.96 49.3903 668.408 50.1689C668.865 50.9476 669.094 51.8236 669.094 52.7969V53.9902C669.094 54.0579 669.051 54.0918 668.967 54.0918H666.047C665.979 54.0918 665.945 54.0579 665.945 53.9902V53C665.945 52.3398 665.759 51.7939 665.387 51.3623C665.014 50.9307 664.549 50.7148 663.99 50.7148C663.491 50.7148 663.047 50.9222 662.657 51.3369C662.268 51.7516 662.073 52.2383 662.073 52.7969V61.0361C662.073 61.6032 662.264 62.0941 662.645 62.5088C663.025 62.915 663.474 63.1182 663.99 63.1182C664.549 63.1182 665.014 62.9193 665.387 62.5215C665.759 62.1152 665.945 61.6201 665.945 61.0361V59.7539H664.13C664.037 59.7539 663.99 59.7116 663.99 59.627V56.7197C663.99 56.6351 664.037 56.5928 664.13 56.5928H668.992C669.06 56.5928 669.094 56.6351 669.094 56.7197V61.0361C669.094 62.0094 668.865 62.8896 668.408 63.6768C667.943 64.4639 667.329 65.0902 666.567 65.5557C665.806 66.0212 664.947 66.2539 663.99 66.2539ZM673.981 66H671.036C670.968 66 670.935 65.9577 670.935 65.873L670.96 48.0107C670.96 47.943 671.002 47.9092 671.087 47.9092H673.981C674.066 47.9092 674.108 47.943 674.108 48.0107L674.083 55.082H677.98V48.0107C677.98 47.943 678.014 47.9092 678.082 47.9092H680.977C681.061 47.9092 681.104 47.943 681.104 48.0107L681.154 65.873C681.154 65.9577 681.112 66 681.027 66H678.107C678.023 66 677.98 65.9577 677.98 65.873V58.2305H674.083V65.873C674.083 65.9577 674.049 66 673.981 66ZM698.585 67.6631L696.795 65.8477C696.16 66.1185 695.508 66.2539 694.84 66.2539C693.917 66.2539 693.071 66.0212 692.301 65.5557C691.522 65.0902 690.896 64.4596 690.422 63.6641C689.956 62.86 689.724 61.984 689.724 61.0361L689.749 52.7969C689.749 51.8743 689.978 51.0195 690.435 50.2324C690.883 49.4453 691.493 48.8148 692.263 48.3408C693.033 47.8584 693.892 47.6172 694.84 47.6172C695.762 47.6172 696.609 47.8457 697.379 48.3027C698.149 48.7682 698.763 49.3903 699.22 50.1689C699.685 50.9476 699.918 51.8236 699.918 52.7969L699.943 61.0361C699.943 61.5355 699.871 62.0221 699.728 62.4961C699.592 62.9616 699.41 63.3932 699.182 63.791L700.794 65.4287C700.879 65.4964 700.887 65.5557 700.819 65.6064L698.775 67.6631C698.716 67.7139 698.653 67.7139 698.585 67.6631ZM694.84 63.1182C695.432 63.1182 695.906 62.8981 696.262 62.458C696.617 62.0094 696.795 61.5355 696.795 61.0361L696.77 52.7969C696.77 52.2383 696.588 51.7559 696.224 51.3496C695.86 50.9434 695.398 50.7402 694.84 50.7402C694.256 50.7402 693.786 50.9476 693.431 51.3623C693.075 51.777 692.897 52.2552 692.897 52.7969V61.0361C692.897 61.6624 693.101 62.166 693.507 62.5469C693.913 62.9277 694.357 63.1182 694.84 63.1182ZM706.926 66.2539C706.012 66.2539 705.165 66.0169 704.387 65.543C703.608 65.069 702.986 64.4342 702.521 63.6387C702.063 62.8346 701.835 61.9587 701.835 61.0107L701.886 48.0107C701.886 47.943 701.92 47.9092 701.987 47.9092H704.907C704.975 47.9092 705.009 47.943 705.009 48.0107V61.0107C705.009 61.5947 705.195 62.0941 705.567 62.5088C705.94 62.915 706.393 63.1182 706.926 63.1182C707.484 63.1182 707.95 62.915 708.322 62.5088C708.695 62.0941 708.881 61.5947 708.881 61.0107V48.0107C708.881 47.943 708.915 47.9092 708.982 47.9092H711.902C711.97 47.9092 712.004 47.943 712.004 48.0107L712.055 61.0107C712.055 61.9671 711.826 62.8473 711.369 63.6514C710.904 64.4469 710.286 65.0817 709.516 65.5557C708.745 66.0212 707.882 66.2539 706.926 66.2539ZM712.689 65.873L715.914 48.0107C715.931 47.943 715.973 47.9092 716.041 47.9092H719.812C719.879 47.9092 719.922 47.943 719.938 48.0107L723.036 65.873C723.045 65.9577 723.011 66 722.935 66H720.053C719.968 66 719.922 65.9577 719.913 65.873L719.634 63.9688H716.092L715.812 65.873C715.804 65.9577 715.762 66 715.686 66H712.791C712.723 66 712.689 65.9577 712.689 65.873ZM717.78 53.8887L716.612 61.1885H719.113L718.047 53.8887L717.895 52.9238L717.78 53.8887ZM733.167 66H724.763C724.695 66 724.661 65.9577 724.661 65.873L724.687 48.0361C724.687 47.9515 724.729 47.9092 724.813 47.9092H727.708C727.793 47.9092 727.835 47.9515 727.835 48.0361L727.81 62.8008H733.167C733.252 62.8008 733.294 62.8431 733.294 62.9277V65.873C733.294 65.9577 733.252 66 733.167 66ZM738.067 66H735.122C735.037 66 734.995 65.9577 734.995 65.873L735.021 48.0107C735.021 47.943 735.054 47.9092 735.122 47.9092H738.042C738.11 47.9092 738.144 47.943 738.144 48.0107L738.169 65.873C738.169 65.9577 738.135 66 738.067 66ZM746.002 66H743.069C742.993 66 742.955 65.9577 742.955 65.873V51.0449H739.578C739.493 51.0449 739.451 51.0026 739.451 50.918L739.477 48.0107C739.477 47.943 739.51 47.9092 739.578 47.9092H749.455C749.548 47.9092 749.595 47.943 749.595 48.0107V50.918C749.595 51.0026 749.561 51.0449 749.493 51.0449H746.078L746.104 65.873C746.104 65.9577 746.07 66 746.002 66ZM756.285 66H753.302C753.243 66 753.213 65.9661 753.213 65.8984L753.238 58.5098L749.76 48.0107C749.743 47.943 749.768 47.9092 749.836 47.9092H752.73C752.815 47.9092 752.866 47.943 752.883 48.0107L754.8 55.0059L756.755 48.0107C756.772 47.943 756.814 47.9092 756.882 47.9092H759.802C759.869 47.9092 759.895 47.943 759.878 48.0107L756.361 58.4082L756.387 65.8984C756.387 65.9661 756.353 66 756.285 66ZM773.602 66H770.453C770.377 66 770.335 65.9577 770.326 65.873L767.254 48.0107C767.237 47.943 767.262 47.9092 767.33 47.9092H770.25C770.318 47.9092 770.36 47.943 770.377 48.0107L772.04 59.7539L773.754 48.0107C773.771 47.943 773.822 47.9092 773.906 47.9092H776.255C776.323 47.9092 776.365 47.943 776.382 48.0107L778.07 59.7539L779.759 48.0107C779.776 47.943 779.818 47.9092 779.886 47.9092H782.78C782.865 47.9092 782.899 47.943 782.882 48.0107L779.784 65.873C779.776 65.9069 779.75 65.9365 779.708 65.9619L779.657 66H776.509C776.458 66 776.416 65.9577 776.382 65.873L775.049 56.542L773.729 65.873C773.72 65.9577 773.678 66 773.602 66ZM788.684 66.2539C787.761 66.2539 786.91 66.0169 786.132 65.543C785.362 65.069 784.74 64.4385 784.266 63.6514C783.8 62.8558 783.567 61.984 783.567 61.0361L783.593 52.7969C783.593 51.832 783.826 50.9645 784.291 50.1943C784.748 49.4157 785.366 48.7936 786.145 48.3281C786.923 47.8542 787.77 47.6172 788.684 47.6172C789.632 47.6172 790.482 47.8499 791.235 48.3154C791.997 48.7809 792.606 49.4072 793.063 50.1943C793.529 50.973 793.762 51.8405 793.762 52.7969L793.787 61.0361C793.787 61.984 793.559 62.8516 793.102 63.6387C792.636 64.4342 792.018 65.069 791.248 65.543C790.478 66.0169 789.623 66.2539 788.684 66.2539ZM788.684 63.1182C789.208 63.1182 789.665 62.9066 790.055 62.4834C790.444 62.0518 790.639 61.5693 790.639 61.0361L790.613 52.7969C790.613 52.2214 790.431 51.7347 790.067 51.3369C789.703 50.9391 789.242 50.7402 788.684 50.7402C788.15 50.7402 787.693 50.9349 787.312 51.3242C786.932 51.7135 786.741 52.2044 786.741 52.7969V61.0361C786.741 61.6032 786.932 62.0941 787.312 62.5088C787.693 62.915 788.15 63.1182 788.684 63.1182ZM798.802 66H795.856C795.789 66 795.755 65.9577 795.755 65.873L795.806 48.0107C795.806 47.943 795.84 47.9092 795.907 47.9092H801.163C802.103 47.9092 802.966 48.1377 803.753 48.5947C804.54 49.0518 805.166 49.6654 805.632 50.4355C806.106 51.2057 806.343 52.0775 806.343 53.0508C806.343 53.6855 806.245 54.2611 806.051 54.7773C805.856 55.2936 805.628 55.7295 805.365 56.085C805.111 56.4404 804.879 56.7028 804.667 56.8721C805.606 57.9131 806.076 59.1361 806.076 60.541L806.102 65.873C806.102 65.9577 806.059 66 805.975 66H803.029C802.962 66 802.928 65.9746 802.928 65.9238V60.541C802.928 59.9147 802.708 59.373 802.268 58.916C801.827 58.459 801.286 58.2305 800.643 58.2305H798.929L798.903 65.873C798.903 65.9577 798.869 66 798.802 66ZM801.163 51.0195H798.929V55.1074H801.163C801.696 55.1074 802.17 54.9085 802.585 54.5107C803.008 54.113 803.22 53.6263 803.22 53.0508C803.22 52.5007 803.017 52.0267 802.61 51.6289C802.204 51.2227 801.722 51.0195 801.163 51.0195ZM811.345 66H808.399C808.332 66 808.298 65.9577 808.298 65.873L808.349 48.0361C808.349 47.9515 808.382 47.9092 808.45 47.9092H811.37C811.438 47.9092 811.472 47.9515 811.472 48.0361V54.1934L815.547 48.0107C815.615 47.943 815.678 47.9092 815.737 47.9092H818.721C818.797 47.9092 818.814 47.943 818.771 48.0107L814.277 55.1836L819.317 65.8984C819.36 65.9661 819.317 66 819.19 66H816.017C815.932 66 815.881 65.9661 815.864 65.8984L812.348 58.2559L811.446 59.6777V65.873C811.446 65.9577 811.412 66 811.345 66ZM832.787 66H829.854C829.778 66 829.74 65.9577 829.74 65.873V51.0449H826.363C826.279 51.0449 826.236 51.0026 826.236 50.918L826.262 48.0107C826.262 47.943 826.296 47.9092 826.363 47.9092H836.24C836.333 47.9092 836.38 47.943 836.38 48.0107V50.918C836.38 51.0026 836.346 51.0449 836.278 51.0449H832.863L832.889 65.873C832.889 65.9577 832.855 66 832.787 66ZM840.696 66H837.751C837.683 66 837.649 65.9577 837.649 65.873L837.675 48.0107C837.675 47.943 837.717 47.9092 837.802 47.9092H840.696C840.781 47.9092 840.823 47.943 840.823 48.0107L840.798 55.082H844.695V48.0107C844.695 47.943 844.729 47.9092 844.797 47.9092H847.691C847.776 47.9092 847.818 47.943 847.818 48.0107L847.869 65.873C847.869 65.9577 847.827 66 847.742 66H844.822C844.738 66 844.695 65.9577 844.695 65.873V58.2305H840.798V65.873C840.798 65.9577 840.764 66 840.696 66ZM849.113 65.873L852.338 48.0107C852.355 47.943 852.397 47.9092 852.465 47.9092H856.235C856.303 47.9092 856.345 47.943 856.362 48.0107L859.46 65.873C859.468 65.9577 859.435 66 859.358 66H856.477C856.392 66 856.345 65.9577 856.337 65.873L856.058 63.9688H852.516L852.236 65.873C852.228 65.9577 852.186 66 852.109 66H849.215C849.147 66 849.113 65.9577 849.113 65.873ZM854.204 53.8887L853.036 61.1885H855.537L854.471 53.8887L854.318 52.9238L854.204 53.8887ZM865.059 66H862.126C862.05 66 862.012 65.9577 862.012 65.873V51.0449H858.635C858.55 51.0449 858.508 51.0026 858.508 50.918L858.533 48.0107C858.533 47.943 858.567 47.9092 858.635 47.9092H868.512C868.605 47.9092 868.651 47.943 868.651 48.0107V50.918C868.651 51.0026 868.618 51.0449 868.55 51.0449H865.135L865.16 65.873C865.16 65.9577 865.126 66 865.059 66Z" fill="#182E35"/>
</svg>
