<svg width="552" height="37" viewBox="0 0 552 37" fill="none" xmlns="http://www.w3.org/2000/svg">
<path d="M6.42188 36H1.41699C1.15658 36 1.02637 35.8861 1.02637 35.6582L0.977539 1.60059C0.977539 1.34017 1.10775 1.20996 1.36816 1.20996H5.88477L14.332 20.9121L14.0879 1.60059C14.0879 1.34017 14.2344 1.20996 14.5273 1.20996H19.4834C19.6787 1.20996 19.7764 1.34017 19.7764 1.60059L19.8252 35.707C19.8252 35.9023 19.7438 36 19.5811 36H15.1865L6.51953 17.5918L6.88574 35.6094C6.88574 35.8698 6.73112 36 6.42188 36ZM25.7363 35.7559L31.9375 1.40527C31.9701 1.27507 32.0514 1.20996 32.1816 1.20996H39.4326C39.5628 1.20996 39.6442 1.27507 39.6768 1.40527L45.6338 35.7559C45.6501 35.9186 45.585 36 45.4385 36H39.8965C39.7337 36 39.6442 35.9186 39.6279 35.7559L39.0908 32.0938H32.2793L31.7422 35.7559C31.7259 35.9186 31.6445 36 31.498 36H25.9316C25.8014 36 25.7363 35.9186 25.7363 35.7559ZM35.5264 12.709L33.2803 26.7471H38.0898L36.0391 12.709L35.7461 10.8535L35.5264 12.709ZM57.8682 36H52.2041C52.0739 36 52.0088 35.9186 52.0088 35.7559L52.0576 1.40527C52.0576 1.27507 52.139 1.20996 52.3018 1.20996H57.8682C58.0309 1.20996 58.1123 1.27507 58.1123 1.40527L58.0635 15.0039H65.5586V1.40527C65.5586 1.27507 65.6237 1.20996 65.7539 1.20996H71.3203C71.4831 1.20996 71.5645 1.27507 71.5645 1.40527L71.6621 35.7559C71.6621 35.9186 71.5807 36 71.418 36H65.8027C65.64 36 65.5586 35.9186 65.5586 35.7559V21.0586H58.0635V35.7559C58.0635 35.9186 57.9984 36 57.8682 36ZM88.2422 36.4883C86.4681 36.4883 84.8324 36.0326 83.335 35.1211C81.8538 34.2096 80.6576 32.9971 79.7461 31.4834C78.8509 29.9535 78.4033 28.277 78.4033 26.4541L78.4521 10.6094C78.4521 8.75391 78.8997 7.08561 79.7949 5.60449C80.6738 4.1071 81.862 2.91081 83.3594 2.01562C84.8568 1.10417 86.4844 0.648438 88.2422 0.648438C90.0651 0.648438 91.7008 1.09603 93.1494 1.99121C94.6143 2.88639 95.7861 4.09082 96.665 5.60449C97.5602 7.10189 98.0078 8.77018 98.0078 10.6094L98.0566 26.4541C98.0566 28.277 97.6172 29.9453 96.7383 31.459C95.8431 32.9889 94.6549 34.2096 93.1738 35.1211C91.6927 36.0326 90.0488 36.4883 88.2422 36.4883ZM88.2422 30.458C89.2513 30.458 90.1302 30.0511 90.8789 29.2373C91.6276 28.4072 92.002 27.4795 92.002 26.4541L91.9531 10.6094C91.9531 9.5026 91.6032 8.56673 90.9033 7.80176C90.2035 7.03678 89.3164 6.6543 88.2422 6.6543C87.2168 6.6543 86.3379 7.02865 85.6055 7.77734C84.873 8.52604 84.5068 9.47005 84.5068 10.6094V26.4541C84.5068 27.5446 84.873 28.4886 85.6055 29.2861C86.3379 30.0674 87.2168 30.458 88.2422 30.458ZM110.95 36H105.286C105.156 36 105.091 35.9186 105.091 35.7559L105.188 1.40527C105.188 1.27507 105.254 1.20996 105.384 1.20996H111.487C111.618 1.20996 111.731 1.27507 111.829 1.40527L116.395 7.99707L120.936 1.40527C121.033 1.27507 121.155 1.20996 121.302 1.20996H127.43C127.576 1.20996 127.649 1.27507 127.649 1.40527L127.747 35.7559C127.747 35.9186 127.682 36 127.552 36H121.888C121.757 36 121.692 35.9186 121.692 35.7559L121.644 10.2432L116.395 17.8604L111.194 10.2432L111.146 35.7559C111.146 35.9186 111.08 36 110.95 36ZM151.554 36H135.392C135.261 36 135.196 35.9186 135.196 35.7559L135.245 1.40527C135.245 1.27507 135.31 1.20996 135.44 1.20996H151.505C151.635 1.20996 151.7 1.29134 151.7 1.4541V7.04492C151.7 7.17513 151.635 7.24023 151.505 7.24023H141.251V15.0527H151.505C151.635 15.0527 151.7 15.1178 151.7 15.248L151.749 20.9121C151.749 21.0423 151.684 21.1074 151.554 21.1074H141.251V29.8477H151.554C151.684 29.8477 151.749 29.929 151.749 30.0918V35.8047C151.749 35.9349 151.684 36 151.554 36ZM169.867 36H164.13C164.016 36 163.959 35.9349 163.959 35.8047L164.008 21.5957L157.318 1.40527C157.286 1.27507 157.335 1.20996 157.465 1.20996H163.031C163.194 1.20996 163.292 1.27507 163.324 1.40527L167.011 14.8574L170.771 1.40527C170.803 1.27507 170.884 1.20996 171.015 1.20996H176.63C176.76 1.20996 176.809 1.27507 176.776 1.40527L170.014 21.4004L170.062 35.8047C170.062 35.9349 169.997 36 169.867 36ZM192.014 36.4883C190.24 36.4883 188.604 36.0326 187.106 35.1211C185.625 34.2096 184.429 32.9971 183.518 31.4834C182.622 29.9535 182.175 28.277 182.175 26.4541L182.224 10.6094C182.224 8.75391 182.671 7.08561 183.566 5.60449C184.445 4.1071 185.633 2.91081 187.131 2.01562C188.628 1.10417 190.256 0.648438 192.014 0.648438C193.837 0.648438 195.472 1.09603 196.921 1.99121C198.386 2.88639 199.558 4.09082 200.437 5.60449C201.332 7.10189 201.779 8.77018 201.779 10.6094L201.828 26.4541C201.828 28.277 201.389 29.9453 200.51 31.459C199.615 32.9889 198.426 34.2096 196.945 35.1211C195.464 36.0326 193.82 36.4883 192.014 36.4883ZM192.014 30.458C193.023 30.458 193.902 30.0511 194.65 29.2373C195.399 28.4072 195.773 27.4795 195.773 26.4541L195.725 10.6094C195.725 9.5026 195.375 8.56673 194.675 7.80176C193.975 7.03678 193.088 6.6543 192.014 6.6543C190.988 6.6543 190.109 7.02865 189.377 7.77734C188.645 8.52604 188.278 9.47005 188.278 10.6094V26.4541C188.278 27.5446 188.645 28.4886 189.377 29.2861C190.109 30.0674 190.988 30.458 192.014 30.458ZM226.807 36H208.154C207.992 36 207.91 35.9186 207.91 35.7559V30.0918C207.91 30.0267 207.943 29.9616 208.008 29.8965L220.361 12.9531C220.589 12.6439 220.776 12.2533 220.923 11.7812C221.086 11.293 221.167 10.8698 221.167 10.5117C221.167 9.53516 220.817 8.63997 220.117 7.82617C219.417 7.01237 218.53 6.60547 217.456 6.60547C216.431 6.60547 215.56 6.99609 214.844 7.77734C214.128 8.55859 213.77 9.55143 213.77 10.7559V13.1973C213.77 13.36 213.688 13.4414 213.525 13.4414H207.91C207.78 13.4414 207.715 13.36 207.715 13.1973V10.7559C207.715 8.88411 208.179 7.18327 209.106 5.65332C210.018 4.12337 211.214 2.91081 212.695 2.01562C214.176 1.10417 215.763 0.648438 217.456 0.648438C219.246 0.648438 220.882 1.10417 222.363 2.01562C223.828 2.94336 225 4.15592 225.879 5.65332C226.774 7.15072 227.222 8.77018 227.222 10.5117C227.222 11.6022 227.026 12.7171 226.636 13.8564C226.261 14.9795 225.741 15.9805 225.073 16.8594L215.576 29.8965H226.807C226.953 29.8965 227.026 29.9616 227.026 30.0918V35.7559C227.026 35.9186 226.953 36 226.807 36ZM244.339 36.4883C242.223 36.4883 240.343 36.0326 238.699 35.1211C237.072 34.2096 235.794 32.9971 234.866 31.4834C233.955 29.9535 233.499 28.277 233.499 26.4541L233.548 10.6094C233.548 8.75391 234.012 7.08561 234.939 5.60449C235.851 4.1071 237.12 2.91081 238.748 2.01562C240.376 1.10417 242.239 0.648438 244.339 0.648438C246.487 0.648438 248.359 1.09603 249.954 1.99121C251.549 2.88639 252.802 4.09082 253.714 5.60449C254.642 7.10189 255.105 8.77018 255.105 10.6094L255.154 26.4541C255.154 28.2607 254.699 29.929 253.787 31.459C252.859 32.9889 251.582 34.2096 249.954 35.1211C248.343 36.0326 246.471 36.4883 244.339 36.4883ZM249.1 26.4541L249.051 10.6094C249.051 9.4375 248.611 8.48535 247.732 7.75293C246.87 7.02051 245.739 6.6543 244.339 6.6543C242.907 6.6543 241.759 7.02051 240.896 7.75293C240.034 8.48535 239.603 9.4375 239.603 10.6094V26.4541C239.603 27.6911 240.034 28.6676 240.896 29.3838C241.759 30.0999 242.907 30.458 244.339 30.458C245.739 30.458 246.878 30.0999 247.757 29.3838C248.652 28.6676 249.1 27.6911 249.1 26.4541ZM272.442 36.4883C270.326 36.4883 268.447 36.0326 266.803 35.1211C265.175 34.2096 263.897 32.9971 262.97 31.4834C262.058 29.9535 261.603 28.277 261.603 26.4541L261.651 10.6094C261.651 8.75391 262.115 7.08561 263.043 5.60449C263.954 4.1071 265.224 2.91081 266.852 2.01562C268.479 1.10417 270.343 0.648438 272.442 0.648438C274.591 0.648438 276.463 1.09603 278.058 1.99121C279.653 2.88639 280.906 4.09082 281.817 5.60449C282.745 7.10189 283.209 8.77018 283.209 10.6094L283.258 26.4541C283.258 28.2607 282.802 29.929 281.891 31.459C280.963 32.9889 279.685 34.2096 278.058 35.1211C276.446 36.0326 274.575 36.4883 272.442 36.4883ZM277.203 26.4541L277.154 10.6094C277.154 9.4375 276.715 8.48535 275.836 7.75293C274.973 7.02051 273.842 6.6543 272.442 6.6543C271.01 6.6543 269.863 7.02051 269 7.75293C268.137 8.48535 267.706 9.4375 267.706 10.6094V26.4541C267.706 27.6911 268.137 28.6676 269 29.3838C269.863 30.0999 271.01 30.458 272.442 30.458C273.842 30.458 274.981 30.0999 275.86 29.3838C276.756 28.6676 277.203 27.6911 277.203 26.4541ZM308.236 36H289.584C289.421 36 289.34 35.9186 289.34 35.7559V30.0918C289.34 30.0267 289.372 29.9616 289.438 29.8965L301.791 12.9531C302.019 12.6439 302.206 12.2533 302.353 11.7812C302.515 11.293 302.597 10.8698 302.597 10.5117C302.597 9.53516 302.247 8.63997 301.547 7.82617C300.847 7.01237 299.96 6.60547 298.886 6.60547C297.86 6.60547 296.99 6.99609 296.273 7.77734C295.557 8.55859 295.199 9.55143 295.199 10.7559V13.1973C295.199 13.36 295.118 13.4414 294.955 13.4414H289.34C289.21 13.4414 289.145 13.36 289.145 13.1973V10.7559C289.145 8.88411 289.608 7.18327 290.536 5.65332C291.448 4.12337 292.644 2.91081 294.125 2.01562C295.606 1.10417 297.193 0.648438 298.886 0.648438C300.676 0.648438 302.312 1.10417 303.793 2.01562C305.258 2.94336 306.43 4.15592 307.309 5.65332C308.204 7.15072 308.651 8.77018 308.651 10.5117C308.651 11.6022 308.456 12.7171 308.065 13.8564C307.691 14.9795 307.17 15.9805 306.503 16.8594L297.006 29.8965H308.236C308.383 29.8965 308.456 29.9616 308.456 30.0918V35.7559C308.456 35.9186 308.383 36 308.236 36ZM324.768 36.4883C322.993 36.4883 321.358 36.0326 319.86 35.1211C318.379 34.2096 317.183 32.9971 316.271 31.4834C315.376 29.9535 314.929 28.277 314.929 26.4541L314.978 10.6094C314.978 8.77018 315.425 7.11003 316.32 5.62891C317.199 4.14779 318.379 2.9515 319.86 2.04004C321.341 1.1123 322.961 0.648438 324.719 0.648438H327.917C329.821 0.648438 331.514 1.1123 332.995 2.04004C334.476 2.98405 335.64 4.22103 336.486 5.75098C337.349 7.28092 337.764 8.94922 337.731 10.7559L337.683 18.0068C337.683 19.7809 337.43 21.376 336.926 22.792C336.421 24.2243 335.616 25.3636 334.509 26.21C333.418 27.04 331.945 27.4551 330.09 27.4551C327.844 27.4551 326.143 26.568 324.987 24.7939C323.848 23.0036 323.278 20.7412 323.278 18.0068V11.4395C323.278 11.3418 323.343 11.293 323.474 11.293H328.869C328.983 11.293 329.04 11.3418 329.04 11.4395V18.1533C329.04 19.5531 329.13 20.5703 329.309 21.2051C329.471 21.8073 329.797 22.1084 330.285 22.1084C330.855 22.1084 331.213 21.8317 331.359 21.2783C331.506 20.7087 331.579 19.667 331.579 18.1533L331.628 10.6094C331.628 9.5026 331.278 8.56673 330.578 7.80176C329.878 7.03678 328.991 6.6543 327.917 6.6543H324.719C323.693 6.68685 322.823 7.07747 322.106 7.82617C321.39 8.57487 321.032 9.5026 321.032 10.6094V26.4541C321.032 27.5446 321.398 28.3665 322.131 28.9199C322.863 29.4733 323.742 29.75 324.768 29.75C326.704 29.75 328.91 29.7256 331.384 29.6768C333.874 29.6279 336.258 29.5059 338.537 29.3105C338.7 29.3105 338.781 29.3919 338.781 29.5547V35.7559C338.781 35.9023 338.7 35.9837 338.537 36C338.13 36.0326 337.382 36.0732 336.291 36.1221C335.201 36.1872 334.118 36.2441 333.044 36.293C331.693 36.3581 330.293 36.4069 328.845 36.4395C327.396 36.472 326.037 36.4883 324.768 36.4883ZM354.971 36.4883C353.164 36.4883 351.536 36.0407 350.088 35.1455C348.623 34.2503 347.443 33.0459 346.548 31.5322C345.669 30.0186 345.229 28.3258 345.229 26.4541V10.6094C345.229 8.78646 345.677 7.1263 346.572 5.62891C347.451 4.11523 348.631 2.91081 350.112 2.01562C351.593 1.10417 353.213 0.648438 354.971 0.648438C356.81 0.648438 358.47 1.08789 359.951 1.9668C361.432 2.86198 362.604 4.05827 363.467 5.55566C364.346 7.05306 364.785 8.73763 364.785 10.6094V12.9043C364.785 13.0345 364.704 13.0996 364.541 13.0996H358.926C358.796 13.0996 358.73 13.0345 358.73 12.9043V11C358.73 9.73047 358.372 8.68066 357.656 7.85059C356.94 7.02051 356.045 6.60547 354.971 6.60547C354.01 6.60547 353.156 7.00423 352.407 7.80176C351.659 8.59928 351.284 9.53516 351.284 10.6094V26.4541C351.284 27.5446 351.65 28.4886 352.383 29.2861C353.115 30.0674 353.978 30.458 354.971 30.458C356.045 30.458 356.94 30.0755 357.656 29.3105C358.372 28.5293 358.73 27.5771 358.73 26.4541V23.9883H355.239C355.06 23.9883 354.971 23.9069 354.971 23.7441V18.1533C354.971 17.9906 355.06 17.9092 355.239 17.9092H364.59C364.72 17.9092 364.785 17.9906 364.785 18.1533V26.4541C364.785 28.3258 364.346 30.0186 363.467 31.5322C362.572 33.0459 361.392 34.2503 359.927 35.1455C358.462 36.0407 356.81 36.4883 354.971 36.4883ZM377.435 36H371.771C371.64 36 371.575 35.9186 371.575 35.7559L371.673 1.40527C371.673 1.27507 371.738 1.20996 371.868 1.20996H377.972C378.102 1.20996 378.216 1.27507 378.313 1.40527L382.879 7.99707L387.42 1.40527C387.518 1.27507 387.64 1.20996 387.786 1.20996H393.914C394.061 1.20996 394.134 1.27507 394.134 1.40527L394.231 35.7559C394.231 35.9186 394.166 36 394.036 36H388.372C388.242 36 388.177 35.9186 388.177 35.7559L388.128 10.2432L382.879 17.8604L377.679 10.2432L377.63 35.7559C377.63 35.9186 377.565 36 377.435 36ZM399.996 35.7559L406.197 1.40527C406.23 1.27507 406.311 1.20996 406.441 1.20996H413.692C413.823 1.20996 413.904 1.27507 413.937 1.40527L419.894 35.7559C419.91 35.9186 419.845 36 419.698 36H414.156C413.993 36 413.904 35.9186 413.888 35.7559L413.351 32.0938H406.539L406.002 35.7559C405.986 35.9186 405.904 36 405.758 36H400.191C400.061 36 399.996 35.9186 399.996 35.7559ZM409.786 12.709L407.54 26.7471H412.35L410.299 12.709L410.006 10.8535L409.786 12.709ZM432.177 36H426.513C426.35 36 426.269 35.9186 426.269 35.7559L426.317 1.40527C426.317 1.27507 426.382 1.20996 426.513 1.20996H432.128C432.258 1.20996 432.323 1.27507 432.323 1.40527L432.372 35.7559C432.372 35.9186 432.307 36 432.177 36ZM456.374 36H440.212C440.082 36 440.017 35.9186 440.017 35.7559L440.065 1.4541C440.065 1.29134 440.147 1.20996 440.31 1.20996H445.876C446.039 1.20996 446.12 1.29134 446.12 1.4541L446.071 29.8477H456.374C456.537 29.8477 456.618 29.929 456.618 30.0918V35.7559C456.618 35.9186 456.537 36 456.374 36ZM468.999 36H463.335C463.205 36 463.14 35.9349 463.14 35.8047V30.1406C463.14 30.0104 463.205 29.9453 463.335 29.9453H468.999C469.129 29.9453 469.194 30.0104 469.194 30.1406V35.8047C469.194 35.9349 469.129 36 468.999 36ZM485.75 36.4883C483.943 36.4883 482.291 36.0326 480.794 35.1211C479.313 34.2096 478.133 32.9889 477.254 31.459C476.391 29.9128 475.96 28.1956 475.96 26.3076L476.009 10.707C476.009 8.85156 476.432 7.17513 477.278 5.67773C478.125 4.16406 479.288 2.9515 480.77 2.04004C482.267 1.1123 483.927 0.648438 485.75 0.648438C487.605 0.648438 489.257 1.09603 490.706 1.99121C492.171 2.88639 493.335 4.09896 494.197 5.62891C495.076 7.14258 495.516 8.83529 495.516 10.707V13.002C495.516 13.1322 495.451 13.1973 495.32 13.1973H489.705C489.575 13.1973 489.51 13.1322 489.51 13.002V10.707C489.51 9.60026 489.152 8.64811 488.436 7.85059C487.719 7.05306 486.824 6.6543 485.75 6.6543C484.562 6.6543 483.65 7.0612 483.016 7.875C482.381 8.6888 482.063 9.63281 482.063 10.707V26.3076C482.063 27.5283 482.422 28.5293 483.138 29.3105C483.854 30.0755 484.725 30.458 485.75 30.458C486.824 30.458 487.719 30.0348 488.436 29.1885C489.152 28.3258 489.51 27.3656 489.51 26.3076V23.9883C489.51 23.8581 489.575 23.793 489.705 23.793H495.369C495.499 23.793 495.564 23.8581 495.564 23.9883V26.3076C495.564 28.1794 495.125 29.8883 494.246 31.4346C493.351 32.9645 492.171 34.1934 490.706 35.1211C489.241 36.0326 487.589 36.4883 485.75 36.4883ZM511.705 36.4883C509.931 36.4883 508.295 36.0326 506.798 35.1211C505.317 34.2096 504.12 32.9971 503.209 31.4834C502.314 29.9535 501.866 28.277 501.866 26.4541L501.915 10.6094C501.915 8.75391 502.363 7.08561 503.258 5.60449C504.137 4.1071 505.325 2.91081 506.822 2.01562C508.32 1.10417 509.947 0.648438 511.705 0.648438C513.528 0.648438 515.164 1.09603 516.612 1.99121C518.077 2.88639 519.249 4.09082 520.128 5.60449C521.023 7.10189 521.471 8.77018 521.471 10.6094L521.52 26.4541C521.52 28.277 521.08 29.9453 520.201 31.459C519.306 32.9889 518.118 34.2096 516.637 35.1211C515.156 36.0326 513.512 36.4883 511.705 36.4883ZM511.705 30.458C512.714 30.458 513.593 30.0511 514.342 29.2373C515.09 28.4072 515.465 27.4795 515.465 26.4541L515.416 10.6094C515.416 9.5026 515.066 8.56673 514.366 7.80176C513.666 7.03678 512.779 6.6543 511.705 6.6543C510.68 6.6543 509.801 7.02865 509.068 7.77734C508.336 8.52604 507.97 9.47005 507.97 10.6094V26.4541C507.97 27.5446 508.336 28.4886 509.068 29.2861C509.801 30.0674 510.68 30.458 511.705 30.458ZM534.413 36H528.749C528.619 36 528.554 35.9186 528.554 35.7559L528.651 1.40527C528.651 1.27507 528.716 1.20996 528.847 1.20996H534.95C535.08 1.20996 535.194 1.27507 535.292 1.40527L539.857 7.99707L544.398 1.40527C544.496 1.27507 544.618 1.20996 544.765 1.20996H550.893C551.039 1.20996 551.112 1.27507 551.112 1.40527L551.21 35.7559C551.21 35.9186 551.145 36 551.015 36H545.351C545.22 36 545.155 35.9186 545.155 35.7559L545.106 10.2432L539.857 17.8604L534.657 10.2432L534.608 35.7559C534.608 35.9186 534.543 36 534.413 36Z" fill="white"/>
</svg>
