<svg width="373" height="37" viewBox="0 0 373 37" fill="none" xmlns="http://www.w3.org/2000/svg">
<path d="M6.42188 36H1.41699C1.15658 36 1.02637 35.8861 1.02637 35.6582L0.977539 1.60059C0.977539 1.34017 1.10775 1.20996 1.36816 1.20996H5.88477L14.332 20.9121L14.0879 1.60059C14.0879 1.34017 14.2344 1.20996 14.5273 1.20996H19.4834C19.6787 1.20996 19.7764 1.34017 19.7764 1.60059L19.8252 35.707C19.8252 35.9023 19.7438 36 19.5811 36H15.1865L6.51953 17.5918L6.88574 35.6094C6.88574 35.8698 6.73112 36 6.42188 36ZM25.7363 35.7559L31.9375 1.40527C31.9701 1.27507 32.0514 1.20996 32.1816 1.20996H39.4326C39.5628 1.20996 39.6442 1.27507 39.6768 1.40527L45.6338 35.7559C45.6501 35.9186 45.585 36 45.4385 36H39.8965C39.7337 36 39.6442 35.9186 39.6279 35.7559L39.0908 32.0938H32.2793L31.7422 35.7559C31.7259 35.9186 31.6445 36 31.498 36H25.9316C25.8014 36 25.7363 35.9186 25.7363 35.7559ZM35.5264 12.709L33.2803 26.7471H38.0898L36.0391 12.709L35.7461 10.8535L35.5264 12.709ZM57.8682 36H52.2041C52.0739 36 52.0088 35.9186 52.0088 35.7559L52.0576 1.40527C52.0576 1.27507 52.139 1.20996 52.3018 1.20996H57.8682C58.0309 1.20996 58.1123 1.27507 58.1123 1.40527L58.0635 15.0039H65.5586V1.40527C65.5586 1.27507 65.6237 1.20996 65.7539 1.20996H71.3203C71.4831 1.20996 71.5645 1.27507 71.5645 1.40527L71.6621 35.7559C71.6621 35.9186 71.5807 36 71.418 36H65.8027C65.64 36 65.5586 35.9186 65.5586 35.7559V21.0586H58.0635V35.7559C58.0635 35.9186 57.9984 36 57.8682 36ZM88.2422 36.4883C86.4681 36.4883 84.8324 36.0326 83.335 35.1211C81.8538 34.2096 80.6576 32.9971 79.7461 31.4834C78.8509 29.9535 78.4033 28.277 78.4033 26.4541L78.4521 10.6094C78.4521 8.75391 78.8997 7.08561 79.7949 5.60449C80.6738 4.1071 81.862 2.91081 83.3594 2.01562C84.8568 1.10417 86.4844 0.648438 88.2422 0.648438C90.0651 0.648438 91.7008 1.09603 93.1494 1.99121C94.6143 2.88639 95.7861 4.09082 96.665 5.60449C97.5602 7.10189 98.0078 8.77018 98.0078 10.6094L98.0566 26.4541C98.0566 28.277 97.6172 29.9453 96.7383 31.459C95.8431 32.9889 94.6549 34.2096 93.1738 35.1211C91.6927 36.0326 90.0488 36.4883 88.2422 36.4883ZM88.2422 30.458C89.2513 30.458 90.1302 30.0511 90.8789 29.2373C91.6276 28.4072 92.002 27.4795 92.002 26.4541L91.9531 10.6094C91.9531 9.5026 91.6032 8.56673 90.9033 7.80176C90.2035 7.03678 89.3164 6.6543 88.2422 6.6543C87.2168 6.6543 86.3379 7.02865 85.6055 7.77734C84.873 8.52604 84.5068 9.47005 84.5068 10.6094V26.4541C84.5068 27.5446 84.873 28.4886 85.6055 29.2861C86.3379 30.0674 87.2168 30.458 88.2422 30.458ZM110.95 36H105.286C105.156 36 105.091 35.9186 105.091 35.7559L105.188 1.40527C105.188 1.27507 105.254 1.20996 105.384 1.20996H111.487C111.618 1.20996 111.731 1.27507 111.829 1.40527L116.395 7.99707L120.936 1.40527C121.033 1.27507 121.155 1.20996 121.302 1.20996H127.43C127.576 1.20996 127.649 1.27507 127.649 1.40527L127.747 35.7559C127.747 35.9186 127.682 36 127.552 36H121.888C121.757 36 121.692 35.9186 121.692 35.7559L121.644 10.2432L116.395 17.8604L111.194 10.2432L111.146 35.7559C111.146 35.9186 111.08 36 110.95 36ZM151.554 36H135.392C135.261 36 135.196 35.9186 135.196 35.7559L135.245 1.40527C135.245 1.27507 135.31 1.20996 135.44 1.20996H151.505C151.635 1.20996 151.7 1.29134 151.7 1.4541V7.04492C151.7 7.17513 151.635 7.24023 151.505 7.24023H141.251V15.0527H151.505C151.635 15.0527 151.7 15.1178 151.7 15.248L151.749 20.9121C151.749 21.0423 151.684 21.1074 151.554 21.1074H141.251V29.8477H151.554C151.684 29.8477 151.749 29.929 151.749 30.0918V35.8047C151.749 35.9349 151.684 36 151.554 36ZM186.105 36H180.368C180.254 36 180.197 35.9349 180.197 35.8047L180.246 21.5957L173.557 1.40527C173.524 1.27507 173.573 1.20996 173.703 1.20996H179.27C179.432 1.20996 179.53 1.27507 179.562 1.40527L183.249 14.8574L187.009 1.40527C187.041 1.27507 187.123 1.20996 187.253 1.20996H192.868C192.998 1.20996 193.047 1.27507 193.015 1.40527L186.252 21.4004L186.301 35.8047C186.301 35.9349 186.236 36 186.105 36ZM208.252 36.4883C206.478 36.4883 204.842 36.0326 203.345 35.1211C201.864 34.2096 200.667 32.9971 199.756 31.4834C198.861 29.9535 198.413 28.277 198.413 26.4541L198.462 10.6094C198.462 8.75391 198.91 7.08561 199.805 5.60449C200.684 4.1071 201.872 2.91081 203.369 2.01562C204.867 1.10417 206.494 0.648438 208.252 0.648438C210.075 0.648438 211.711 1.09603 213.159 1.99121C214.624 2.88639 215.796 4.09082 216.675 5.60449C217.57 7.10189 218.018 8.77018 218.018 10.6094L218.066 26.4541C218.066 28.277 217.627 29.9453 216.748 31.459C215.853 32.9889 214.665 34.2096 213.184 35.1211C211.702 36.0326 210.059 36.4883 208.252 36.4883ZM208.252 30.458C209.261 30.458 210.14 30.0511 210.889 29.2373C211.637 28.4072 212.012 27.4795 212.012 26.4541L211.963 10.6094C211.963 9.5026 211.613 8.56673 210.913 7.80176C210.213 7.03678 209.326 6.6543 208.252 6.6543C207.227 6.6543 206.348 7.02865 205.615 7.77734C204.883 8.52604 204.517 9.47005 204.517 10.6094V26.4541C204.517 27.5446 204.883 28.4886 205.615 29.2861C206.348 30.0674 207.227 30.458 208.252 30.458ZM230.96 36H225.296C225.166 36 225.101 35.9186 225.101 35.7559L225.149 1.40527C225.149 1.27507 225.231 1.20996 225.394 1.20996H230.96C231.123 1.20996 231.204 1.27507 231.204 1.40527L231.155 15.0039H238.65V1.40527C238.65 1.27507 238.715 1.20996 238.846 1.20996H244.412C244.575 1.20996 244.656 1.27507 244.656 1.40527L244.754 35.7559C244.754 35.9186 244.673 36 244.51 36H238.895C238.732 36 238.65 35.9186 238.65 35.7559V21.0586H231.155V35.7559C231.155 35.9186 231.09 36 230.96 36ZM250.396 35.7559L256.598 1.40527C256.63 1.27507 256.712 1.20996 256.842 1.20996H264.093C264.223 1.20996 264.304 1.27507 264.337 1.40527L270.294 35.7559C270.31 35.9186 270.245 36 270.099 36H264.557C264.394 36 264.304 35.9186 264.288 35.7559L263.751 32.0938H256.939L256.402 35.7559C256.386 35.9186 256.305 36 256.158 36H250.592C250.462 36 250.396 35.9186 250.396 35.7559ZM260.187 12.709L257.94 26.7471H262.75L260.699 12.709L260.406 10.8535L260.187 12.709ZM282.113 36H277.108C276.848 36 276.718 35.8861 276.718 35.6582L276.669 1.60059C276.669 1.34017 276.799 1.20996 277.06 1.20996H281.576L290.023 20.9121L289.779 1.60059C289.779 1.34017 289.926 1.20996 290.219 1.20996H295.175C295.37 1.20996 295.468 1.34017 295.468 1.60059L295.517 35.707C295.517 35.9023 295.435 36 295.272 36H290.878L282.211 17.5918L282.577 35.6094C282.577 35.8698 282.423 36 282.113 36ZM308.557 36H303.552C303.291 36 303.161 35.8861 303.161 35.6582L303.112 1.60059C303.112 1.34017 303.243 1.20996 303.503 1.20996H308.02L316.467 20.9121L316.223 1.60059C316.223 1.34017 316.369 1.20996 316.662 1.20996H321.618C321.813 1.20996 321.911 1.34017 321.911 1.60059L321.96 35.707C321.96 35.9023 321.879 36 321.716 36H317.321L308.654 17.5918L309.021 35.6094C309.021 35.8698 308.866 36 308.557 36ZM345.913 36H329.751C329.621 36 329.556 35.9186 329.556 35.7559L329.604 1.40527C329.604 1.27507 329.67 1.20996 329.8 1.20996H345.864C345.994 1.20996 346.06 1.29134 346.06 1.4541V7.04492C346.06 7.17513 345.994 7.24023 345.864 7.24023H335.61V15.0527H345.864C345.994 15.0527 346.06 15.1178 346.06 15.248L346.108 20.9121C346.108 21.0423 346.043 21.1074 345.913 21.1074H335.61V29.8477H345.913C346.043 29.8477 346.108 29.929 346.108 30.0918V35.8047C346.108 35.9349 346.043 36 345.913 36ZM362.298 36.4883C360.524 36.4883 358.888 36.0326 357.391 35.1211C355.91 34.2096 354.721 32.9971 353.826 31.4834C352.947 29.9535 352.508 28.277 352.508 26.4541V24.1592C352.508 23.9801 352.589 23.8906 352.752 23.8906H358.367C358.497 23.8906 358.562 23.9801 358.562 24.1592V26.4541C358.562 27.5446 358.929 28.4886 359.661 29.2861C360.394 30.0674 361.272 30.458 362.298 30.458C363.34 30.458 364.227 30.0592 364.959 29.2617C365.691 28.4479 366.058 27.512 366.058 26.4541C366.058 25.2334 365.26 24.1673 363.665 23.2559C363.405 23.0931 363.063 22.8978 362.64 22.6699C362.233 22.4258 361.744 22.1491 361.175 21.8398C360.605 21.5306 360.052 21.2295 359.515 20.9365C358.978 20.6273 358.457 20.3343 357.952 20.0576C356.129 18.9834 354.77 17.6406 353.875 16.0293C352.996 14.4017 352.557 12.5788 352.557 10.5605C352.557 8.70508 353.012 7.02865 353.924 5.53125C354.835 4.05013 356.023 2.87826 357.488 2.01562C358.969 1.13672 360.573 0.697266 362.298 0.697266C364.072 0.697266 365.7 1.13672 367.181 2.01562C368.662 2.91081 369.842 4.09896 370.721 5.58008C371.616 7.0612 372.063 8.72135 372.063 10.5605V14.6621C372.063 14.7923 371.998 14.8574 371.868 14.8574H366.253C366.123 14.8574 366.058 14.7923 366.058 14.6621L366.009 10.5605C366.009 9.38867 365.643 8.43652 364.91 7.7041C364.178 6.97168 363.307 6.60547 362.298 6.60547C361.272 6.60547 360.394 6.99609 359.661 7.77734C358.929 8.55859 358.562 9.48633 358.562 10.5605C358.562 11.651 358.79 12.5625 359.246 13.2949C359.718 14.0273 360.573 14.7272 361.81 15.3945C361.94 15.4596 362.241 15.6224 362.713 15.8828C363.185 16.1432 363.706 16.4362 364.275 16.7617C364.861 17.071 365.39 17.3558 365.862 17.6162C366.334 17.8604 366.619 18.0068 366.717 18.0557C368.377 18.9834 369.687 20.1227 370.647 21.4736C371.624 22.8245 372.112 24.4847 372.112 26.4541C372.112 28.3584 371.673 30.0674 370.794 31.5811C369.899 33.0947 368.711 34.291 367.229 35.1699C365.748 36.0488 364.104 36.4883 362.298 36.4883Z" fill="white"/>
</svg>
