<svg width="815" height="412" viewBox="0 0 815 412" fill="none" xmlns="http://www.w3.org/2000/svg">
<path d="M320.126 150.635C320.923 150.723 321.518 150.177 321.795 149.533C322.587 147.862 323.039 146.107 323.135 144.328C323.145 143.537 322.987 142.75 322.667 141.999C322.536 141.697 322.503 141.374 322.572 141.06C322.64 140.745 322.808 140.449 323.059 140.196C324.614 138.627 324.437 136.823 325.056 135.147C325.094 135.085 325.116 135.019 325.12 134.951C325.124 134.883 325.11 134.815 325.079 134.752C325.048 134.688 325.002 134.63 324.942 134.581C324.881 134.531 324.809 134.492 324.728 134.464H324.588C324.184 134.396 323.919 134.63 323.716 134.884C323.034 135.673 322.364 136.482 321.732 137.301C321.524 137.527 321.411 137.798 321.411 138.076C321.411 138.354 321.524 138.624 321.732 138.851C322 139.18 322.149 139.559 322.165 139.948C322.18 140.337 322.062 140.721 321.82 141.064C320.701 143.771 319.972 146.566 319.646 149.397C319.52 149.845 319.47 150.566 320.126 150.635Z" fill="white"/>
<path d="M318.522 158.053C319.123 157.715 319.632 157.286 320.016 156.795C320.4 156.302 320.652 155.756 320.759 155.187C320.759 154.369 320.279 153.93 319.343 153.92C318.193 153.92 318.509 154.69 318.295 155.158C317.966 155.88 317.738 156.63 317.41 157.351C317.336 157.471 317.312 157.606 317.341 157.737C317.371 157.868 317.452 157.989 317.574 158.082C317.699 158.176 317.867 158.229 318.041 158.229C318.216 158.229 318.384 158.176 318.509 158.082L318.522 158.053Z" fill="white"/>
<path d="M238.663 205.523C236.535 204.203 234.809 202.539 233.607 200.649C233.292 200.103 232.622 199.392 231.737 199.674C229.866 200.23 229.551 199.304 229.019 198.426C228.654 197.862 228.232 197.321 227.756 196.809C225.974 194.837 223.919 193.024 221.625 191.399C217.892 188.611 214.155 185.836 210.414 183.075C209.896 182.694 209.302 182.294 208.48 182.889C207.658 183.484 208.012 183.981 208.48 184.459C209.049 185.092 209.605 185.735 210.186 186.349C215.242 191.623 219.97 197.071 226.618 201.136C228.249 202.111 229.626 203.349 231.193 204.392C234.126 206.341 237.121 208.291 240.041 210.24C239.789 208.973 239.51 207.579 239.182 206.205C239.096 205.944 238.915 205.708 238.663 205.523Z" fill="white"/>
<path d="M203.893 177.82C196.144 172.391 189.407 166.124 181.988 160.49C179.687 158.716 177.994 156.483 175.188 155.11C174.746 154.895 174.303 154.408 173.62 154.856C173.326 155.056 173.129 155.327 173.063 155.625C172.996 155.922 173.063 156.229 173.254 156.494C173.759 157.407 174.455 158.25 175.314 158.989C178.158 161.523 180.901 164.125 183.871 166.562C187.094 169.204 189.306 172.733 194.249 173.922H194.324C196.853 176.037 199.987 177.577 202.477 179.702C203.479 180.58 204.361 181.538 205.106 182.558C205.145 182.633 205.203 182.701 205.276 182.759C205.349 182.816 205.436 182.863 205.532 182.894C205.628 182.926 205.732 182.942 205.837 182.943C205.942 182.944 206.046 182.929 206.143 182.899H206.218C206.366 182.857 206.486 182.773 206.555 182.664C206.623 182.554 206.634 182.429 206.585 182.314C206.247 180.653 205.315 179.096 203.893 177.82Z" fill="white"/>
<path d="M216.596 198.533C216.409 198.719 216.315 198.95 216.331 199.184C216.348 199.419 216.473 199.642 216.684 199.81C218.087 201.029 219.504 202.218 220.919 203.426C219.769 201.75 218.189 200.385 217.62 198.475C217.405 197.87 216.975 198.133 216.596 198.533Z" fill="white"/>
<path d="M675.838 134.737C674.776 135.078 675.434 135.41 675.686 135.712C679.011 139.365 681.487 143.434 683.005 147.74C683.002 147.504 683.036 147.269 683.106 147.038C683.233 142.058 680.465 138.188 677.102 134.533C676.508 133.87 676.23 134.601 675.838 134.737Z" fill="white"/>
<path d="M608.263 158.755C607.542 158.696 607.29 159.388 607.101 159.895C607.059 160.093 607 160.289 606.923 160.479C605.319 168.121 604.042 175.763 602.904 183.279C602.815 183.727 602.702 184.126 603.245 184.126C603.789 184.126 603.789 183.678 603.852 183.396C604.168 181.855 604.472 180.326 604.762 178.785C605.959 172.489 607.151 166.188 608.339 159.885C608.415 159.476 608.895 158.813 608.263 158.755Z" fill="white"/>
<path d="M695.515 141.131C692.682 130.155 684.618 120.397 672.914 113.78C664.345 108.906 654.233 106.957 642.769 108.215C635.562 109.054 628.428 110.231 621.407 111.743C619.423 112.143 619.221 112.006 619.536 110.417C620.447 105.885 621.306 101.352 622.178 96.8204C622.507 95.0854 622.785 93.3596 623.076 91.6247C623.229 91.7003 623.338 91.8193 623.38 91.9562C623.544 92.2485 623.468 92.7745 623.973 92.7551C624.479 92.7356 624.643 92.1901 624.82 91.8392C625.54 90.4745 626.186 89.0904 626.918 87.7258C627.351 87.086 627.446 86.3422 627.184 85.6496C625.655 82.5305 627.184 79.2554 627.968 76.0193C628.056 75.6587 628.144 75.2493 628.738 75.1907C630.002 75.0446 630.091 74.3038 630.179 73.5825C630.457 71.4088 630.634 69.2449 631.014 67.081C631.13 65.5461 631.379 64.0188 631.76 62.5095C632.29 62.6849 632.379 63.2893 632.947 63.1236C633.517 62.9579 633.454 62.373 633.655 61.9734C633.718 61.8216 633.756 61.6645 633.769 61.5055C635.07 54.8069 635.552 48.0287 635.21 41.2604C634.743 33.6535 633.213 26.1077 630.647 18.7539C629.636 15.9174 628.384 13.1491 628.524 9.98123C628.456 8.95282 628.8 7.93319 629.511 7.06113C630.22 6.18906 631.262 5.50694 632.492 5.10759C633.567 4.74694 633.605 4.25957 633.175 3.6065C632.306 2.1078 630.864 0.849531 629.042 0L626.931 0.204692C625.74 0.679139 624.732 1.3861 624.007 2.25499C623.282 3.12388 622.864 4.12429 622.797 5.15633C622.418 8.08053 622.014 10.956 621.534 14.0459C620.27 12.1549 619.461 10.2249 618.462 8.39244C618.171 7.86609 618.146 6.89135 617.376 6.96933C616.604 7.04731 616.567 8.07078 616.225 8.67511C616.225 8.74334 616.086 8.79207 615.884 8.93828C615.644 8.50941 615.454 8.09028 615.201 7.71013C614.948 7.32999 614.948 6.73539 614.317 6.5307C613.95 6.65741 613.975 6.87185 613.95 7.05706C613.798 8.31446 613.723 9.58164 613.507 10.839C613.318 11.9405 612.952 12.0769 611.75 11.6676C610.55 11.2582 608.97 10.6928 607.554 10.2639C607.238 10.1664 606.732 10.069 606.493 10.4589C606.252 10.8487 606.657 10.9365 606.885 11.1217C608.401 12.3304 608.414 12.7885 606.998 14.2603C606.745 14.5235 606.518 14.9134 606.05 14.8354C605.583 14.7575 605.633 14.3773 605.57 14.0751C605.38 12.9347 605.203 11.7942 605.014 10.6539C605.014 10.4296 605.014 10.1177 604.698 10.0884C604.381 10.0592 604.091 10.3906 603.977 10.644C603.699 11.2582 603.484 11.882 603.269 12.5058C603.054 13.1296 602.65 13.4805 601.879 13.4805C600.881 13.4805 599.426 14.2019 598.997 13.3441C598.239 11.843 597.733 12.8957 597.19 13.6852L595.332 11.6968C594.775 11.1217 594.169 11.0924 593.537 11.8138C591.262 14.3481 588.924 16.8628 587.861 19.8358C587.57 20.8232 587.102 21.7746 586.471 22.6625C585.915 19.095 586.193 15.5665 585.283 12.2232C584.323 13.6375 583.552 15.1234 582.983 16.6581C582.681 17.2134 582.542 17.8129 582.574 18.4144C582.607 19.0157 582.811 19.6042 583.172 20.138C584.546 22.3323 585.021 24.7969 584.537 27.2048C584.477 28.1562 584.069 29.0752 583.362 29.856C582.515 28.7351 581.756 27.7214 580.972 26.7174C580.771 26.4542 580.657 25.9474 580.113 26.1131C579.569 26.2787 579.734 26.8246 579.785 27.1658C579.961 28.4329 580.138 29.6904 580.429 30.9282C582.235 38.1974 583.199 45.5759 583.311 52.9767C583.311 67.0031 583.071 81.0586 581.618 95.2215C580.96 101.675 580.353 108.127 579.67 114.58C578.748 122.65 577.812 130.731 577.029 138.792C576.208 147.292 575.032 155.801 573.743 164.32C572.276 173.97 570.684 183.629 568.687 193.289C568.573 193.825 568.472 194.362 568.977 194.732C569.635 194.508 569.407 193.933 570.001 193.669C569.495 196.067 569.066 198.397 568.51 200.716C566.817 207.92 565.11 215.133 563.315 222.327C562.329 226.225 561.671 230.212 560.446 234.14C560.275 234.767 559.923 235.356 559.416 235.862C558.907 236.369 558.257 236.78 557.513 237.064C555.352 237.942 553.241 238.917 551.105 239.843C550.657 239.982 550.28 240.23 550.028 240.547C549.775 240.864 549.661 241.236 549.702 241.606C549.841 242.523 550.018 243.429 550.157 244.346C550.296 245.261 551.117 245.535 552.306 245.145C553.494 244.755 554.315 244.424 555.339 244.102C556.059 243.827 556.85 243.685 557.653 243.685C558.454 243.685 559.246 243.827 559.966 244.102C560.162 244.159 560.341 244.246 560.494 244.357C560.646 244.468 560.769 244.6 560.854 244.749C560.941 244.896 560.987 245.055 560.993 245.217C560.999 245.379 560.963 245.54 560.888 245.691V245.798C560.396 247.04 560.396 248.367 560.888 249.609C561.396 251.138 562.034 252.639 562.797 254.102C562.961 254.414 562.948 254.961 563.631 254.843C564.313 254.726 564.162 254.259 564.276 253.927C565.047 251.773 565.54 249.609 566.058 247.446C566.146 247.104 566.058 246.607 566.614 246.529C567.17 246.451 567.145 247.026 567.208 247.367C567.423 248.537 567.549 249.736 567.777 250.905C567.777 251.188 567.777 251.607 568.27 251.637C568.763 251.666 568.851 251.228 569.066 250.964C569.201 250.787 569.316 250.602 569.407 250.408C569.837 249.697 570.267 248.985 570.671 248.274C570.949 247.825 571.253 247.377 571.821 247.962C572.213 248.371 572.592 248.41 572.858 247.806C573.123 247.201 573.515 247.075 574.122 247.416C574.298 247.541 574.44 247.691 574.54 247.858C574.64 248.025 574.695 248.207 574.704 248.391C574.943 250.106 575.209 251.831 575.474 253.547C575.589 254.229 575.576 255.038 576.738 254.989C577.902 254.941 578.23 254.171 578.47 253.45C579.165 251.413 579.86 249.375 580.492 247.338C580.783 246.363 581.339 246.071 582.426 246.422C584.651 247.153 585.258 246.607 584.954 244.667C584.954 244.473 584.866 244.288 584.853 244.102C584.6 241.812 585.093 239.509 586.287 237.404C587.482 235.298 589.339 233.456 591.692 232.044C592.094 231.687 592.644 231.447 593.249 231.364C593.853 231.28 594.477 231.359 595.016 231.587C596.28 232.113 596.773 231.82 597.038 230.66C597.177 230.066 597.291 229.481 597.43 228.886C597.43 228.653 597.556 228.262 597.834 228.272C599.338 228.272 599.604 227.209 600.273 226.537C601.082 225.651 602.032 224.849 603.105 224.15C607.732 221.429 612.358 218.71 617.11 216.137C620.219 214.397 623.503 212.852 626.931 211.516C627.589 211.273 628.334 210.883 628.966 211.146C630.166 211.663 631.013 211.098 631.949 210.464C644.74 201.867 657.545 193.276 670.362 184.692C670.755 184.305 671.315 184.038 671.941 183.941C670.02 186.066 667.581 187.714 666.038 189.868C668.593 188.911 671.034 187.783 673.331 186.496C673.205 187.051 673.117 187.392 673.041 187.733C672.965 188.074 672.864 188.455 673.243 188.582C673.622 188.708 674.014 188.298 674.317 188.035C676.479 186.164 678.603 184.263 680.79 182.411C682.658 180.901 684.241 179.194 685.491 177.343C690.547 169.418 694.933 161.396 695.767 152.789C696.134 148.822 696.564 144.884 695.515 141.131ZM603.851 183.396C603.851 183.678 603.851 184.126 603.244 184.126C602.637 184.126 602.814 183.727 602.903 183.278C604.04 175.763 605.317 168.121 606.922 160.479C606.951 160.28 607.011 160.084 607.099 159.895C607.289 159.388 607.541 158.696 608.262 158.755C608.982 158.813 608.414 159.476 608.338 159.885C607.167 166.182 605.974 172.482 604.761 178.785C604.47 180.325 604.18 181.855 603.851 183.396ZM650.618 162.01C650.242 162.963 649.984 163.943 649.847 164.935C648.656 168.858 646.12 172.464 642.503 175.373C638.99 178.434 635.273 181.368 631.924 184.556C631.659 184.809 631.368 185.062 631.102 185.325C630.837 185.589 630.698 185.755 630.9 185.969C631.102 186.184 631.443 186.057 631.722 185.969C632.512 185.622 633.364 185.362 634.249 185.199L608.565 204.07C608.173 204.362 607.68 204.674 607.959 205.045C608.376 205.659 609.223 205.211 609.867 205.161C609.867 205.581 609.399 205.814 609.185 206.136C608.97 206.458 608.743 206.789 609.033 206.896C610.739 207.54 609.147 208.085 608.629 208.544C607.649 209.396 606.496 210.12 605.216 210.688C605.647 209.473 606.213 208.289 606.91 207.15C607.415 206.175 607.592 205.522 605.734 205.659C606.248 205.517 606.701 205.27 607.045 204.943C607.388 204.616 607.607 204.224 607.68 203.807C607.757 203.622 607.87 203.3 607.769 203.241C606.379 202.471 607.302 201.194 607.175 200.152C607.175 199.84 607.175 199.43 606.795 199.332C605.09 198.845 605.683 197.578 605.671 196.564C605.695 196.025 605.878 195.498 606.207 195.021C606.535 194.545 607.001 194.133 607.567 193.815C608.342 193.315 608.968 192.693 609.404 191.99C609.84 191.287 610.076 190.52 610.095 189.742C610.095 189.215 610.423 188.483 609.564 188.338C608.705 188.192 608.667 189.079 607.946 189.682C608.728 187.574 608.845 185.351 608.288 183.201C607.705 181.252 608.843 179.048 609.299 176.972C610.664 170.704 612.168 164.447 613.507 158.18C613.849 156.561 614.544 155.382 616.768 154.797C618.144 154.369 619.475 153.861 620.75 153.276C621.015 153.169 621.395 153.091 621.407 152.799C621.42 152.506 621.04 152.487 620.776 152.428C619.146 152.127 617.47 151.999 615.795 152.049C615.466 152.049 614.986 152.234 614.86 151.931C614.734 151.629 615.176 151.347 615.479 151.152C616.792 150.313 618.322 149.702 619.966 149.358C624.821 148.149 629.894 147.545 634.995 147.565C636.557 147.55 638.091 147.889 639.406 148.539C639.95 148.842 640.304 149.134 639.242 149.514C638.181 149.894 638.269 150.362 638.951 150.83C640.229 151.583 641.342 152.488 642.251 153.511C642.44 153.744 642.541 154.144 643.034 154.037C643.527 153.929 643.552 153.539 643.654 153.227C643.767 152.838 643.856 152.445 643.919 152.049C644.921 153.348 645.726 154.731 646.321 156.171C646.674 156.951 646.953 157.76 647.307 158.531C647.42 158.783 647.307 159.28 647.875 159.174C648.444 159.067 648.343 158.657 648.444 158.365C648.697 157.633 648.886 156.903 649.19 155.879C650.694 157.907 651.971 159.573 650.669 162.01H650.618ZM682.95 147.711C681.433 143.405 678.957 139.335 675.632 135.683C675.38 135.409 674.722 135.078 675.784 134.708C676.214 134.572 676.454 133.84 677.047 134.473C680.41 138.13 683.178 141.999 683.051 146.98C683.096 147.222 683.096 147.469 683.051 147.711H682.95Z" fill="white"/>
<path d="M73.3108 318.133C73.1971 311.115 66.1947 306.202 57.1193 307.06C46.4892 308.034 35.8591 309.068 25.2291 310.101C17.3923 310.861 10.9714 313.931 5.78903 319.01C3.22448 321.708 1.3381 324.753 0.227513 327.987L0 340.922L0.492952 342.335C3.76666 352.141 14.5231 357.931 28.0225 356.829C37.5276 356.069 47.058 355.134 56.5757 354.14C60.4856 353.764 64.14 352.441 67.0133 350.362C69.8865 348.283 71.8303 345.554 72.5651 342.569C72.9457 340.896 73.1192 339.199 73.0834 337.5C73.0455 331.048 73.3108 324.586 73.3108 318.133Z" fill="white"/>
<path d="M814.923 255.858C813.141 254.23 810.247 253.626 806.734 253.451C776.103 251.865 745.48 250.263 714.867 248.645C707.434 248.265 700.091 247.671 692.52 247.602C690.295 247.602 688.273 248.791 688.248 250.039L687.388 288.94C687.388 290.89 690.599 292.069 693.986 291.241H694.062L702.91 289.038L806.151 263.461C809.855 262.544 813.128 261.443 815 259.26C814.961 258.032 814.948 257.067 814.923 255.858Z" fill="white"/>
<path d="M667.621 248.722C643.315 250.993 569.65 258.041 543.22 260.536L542.019 260.643C541.451 260.643 541.008 260.643 541.134 260.03C541.235 259.601 541.134 259.231 540.503 259.201C539.871 259.171 539.643 259.503 539.479 259.854C538.872 261.16 537.684 261.287 536.256 261.267C534.828 261.248 535.434 260.244 535.384 259.707C535.193 257.593 534.6 255.497 535.181 253.304C536.445 248.43 537.772 243.556 539.276 238.683C541.388 231.86 543.713 225.037 545.078 218.214C545.976 213.75 546.62 209.294 547.733 204.86C548.718 201.521 549.326 198.122 549.553 194.703C549.641 191.418 549.401 188.153 549.186 184.907C548.971 181.661 549.111 178.503 548.111 175.384C546.355 169.965 545.811 164.224 543.852 158.814C539.15 145.996 528.078 139.036 510.837 137.749C503.595 137.204 496.251 138.119 488.907 139.504C483.583 140.363 478.55 142.069 474.131 144.514C466.762 148.842 459.418 153.209 452.226 157.741C451.613 158.082 451.094 158.513 450.696 159.008C449.433 160.743 449.054 160.851 446.968 160.071C445.833 159.507 444.646 159.009 443.417 158.58C442.872 158.931 443.518 159.301 443.012 159.661L437.804 158.151C436.805 157.868 435.782 157.488 434.985 158.696C434.918 158.783 434.817 158.851 434.697 158.89C434.576 158.928 434.442 158.935 434.316 158.911C431.485 158.648 428.918 159.798 426.365 160.704C420.26 162.878 414.344 165.51 407.986 167.089L407.583 167.235C400.386 170.502 393.613 174.295 387.359 178.561C385.084 180.121 382.746 181.603 380.369 183.036C376.665 185.248 376.337 185.804 376.071 184.011C375.933 183.211 375.768 182.412 375.654 181.613C375.036 178.697 375.16 175.718 376.021 172.839C376.375 171.806 376.944 171.056 378.548 170.998C379.724 170.998 380.179 170.374 379.876 169.496C379.754 169.131 379.657 168.759 379.586 168.385C379.383 167.479 378.599 167.274 377.487 167.508C376.633 167.695 375.853 168.042 375.216 168.519C374.578 168.994 374.104 169.585 373.834 170.237C372.787 172.443 372.479 174.816 372.937 177.138C373.392 180.063 373.985 183.064 374.542 186.018C374.668 186.672 374.631 187.47 373.708 187.626C372.785 187.783 372.634 188.065 372.444 188.601C372.191 189.459 371.179 189.44 370.459 189.576C369.739 189.712 369.904 189.079 369.789 188.786C368.708 185.547 368.468 182.175 369.082 178.864C367.717 176.563 366.364 174.273 364.986 171.972C364.88 171.725 364.671 171.512 364.393 171.364C364.115 171.216 363.781 171.142 363.445 171.153C362.457 171.225 361.531 171.553 360.819 172.085C360.107 172.616 359.651 173.319 359.526 174.077C359.374 175.209 359.247 176.359 359.096 177.499C358.919 178.815 358.704 180.141 358.515 181.398C358.261 180.961 358.177 180.477 358.274 180.005C358.742 177.333 357.314 175.189 356.328 172.927C356.177 172.587 355.797 172.45 355.43 172.275C354.548 171.712 353.894 170.965 353.548 170.123C353.203 169.28 353.18 168.38 353.484 167.528C353.648 167.177 353.914 166.807 353.56 166.553C352.878 166.007 351.727 166.553 350.956 166.738C349.983 167.966 349.047 169.194 348.087 170.432C347.885 170.705 347.695 171.212 347.315 171.124C345.534 170.744 346.367 171.758 346.38 172.099C346.38 172.714 346.722 173.288 346.759 173.902C346.759 174.682 347.367 175.384 346.886 176.329C345.887 175.92 346.608 174.731 345.47 174.428C344.826 175.761 344.826 177.229 345.47 178.561C345.552 178.784 345.552 179.019 345.47 179.242C345.387 179.464 345.225 179.664 345.002 179.818C344.117 180.393 343.453 181.144 343.083 181.99C342.714 182.836 342.651 183.744 342.905 184.614C343.056 185.199 343.157 185.813 343.284 186.418C341.274 183.494 338.151 181.271 336.293 178.337C336.18 178.162 336.066 177.87 335.674 177.996C335.282 178.123 335.333 178.395 335.308 178.63V179.926C335.308 184.332 335.308 188.757 335.396 193.173C335.439 195.302 335.645 197.427 336.016 199.538C337.237 205.724 337.816 211.976 337.748 218.233C337.748 225.105 337.748 231.996 337.924 238.848C337.979 244.537 337.429 250.219 336.281 255.838C334.84 263.636 333.16 271.366 331.592 279.124C331.603 279.329 331.563 279.532 331.47 279.724C331.378 279.916 331.238 280.092 331.056 280.241C330.875 280.39 330.656 280.509 330.414 280.592C330.172 280.675 329.91 280.719 329.645 280.723C326.523 280.957 323.325 281.289 320.267 281.58C318.447 281.737 318.332 281.58 319.003 280.187C319.715 279.199 320.065 278.081 320.014 276.951C319.624 275.047 319.379 273.127 319.28 271.2C318.952 268.666 318.649 266.073 317.005 263.967C315.363 261.862 315.742 259.455 315.742 257.057C315.742 256.209 315.818 255.35 315.742 254.493C315.653 252.437 314.705 250.429 316.348 248.255C316.69 247.639 316.752 246.952 316.525 246.305C315.793 243.608 315.589 240.842 315.918 238.098C316.814 232.228 316.907 226.301 316.197 220.417C315.817 218.252 316.058 216.048 316.904 213.963L318.978 216.83C319.205 217.121 319.293 217.697 319.875 217.56C320.456 217.424 320.381 216.888 320.431 216.488C321.05 211.068 321.695 205.63 322.276 200.191C322.795 195.707 323.541 191.203 323.806 186.73C324.084 182.548 325.6 178.269 324.665 174.175C324.614 173.817 324.666 173.454 324.817 173.113C324.98 172.706 325.015 172.276 324.918 171.857C324.822 171.438 324.596 171.043 324.261 170.705C323.376 169.905 323.541 169.165 324.261 168.17C326.03 165.685 326.953 163.151 325.297 160.714C325.202 160.574 325.152 160.418 325.152 160.261C325.152 160.103 325.202 159.947 325.297 159.807C326.106 158.687 325.651 157.332 326.94 156.279C327.156 156.113 327.104 155.753 327.13 155.47C327.645 150.658 328.574 145.878 329.911 141.161C330.656 138.119 331.44 135.088 330.884 132.106C330.719 131.131 330.239 130.712 328.937 131.131C327.901 131.433 327.559 131.131 327.547 130.352C327.507 129.2 327.664 128.049 328.014 126.93C328.356 125.887 327.901 125.653 326.751 125.848C325.6 126.043 324.489 125.955 324.223 124.922C323.89 123.907 324.09 122.832 324.779 121.929C325.213 121.343 325.585 120.73 325.892 120.097C326.369 119.482 326.527 118.751 326.334 118.05C326.018 117.397 324.944 117.748 324.034 117.426C324.765 117.02 325.372 116.494 325.809 115.885C326.247 115.277 326.503 114.601 326.561 113.908C327.687 108.313 328.912 102.718 329.924 97.1223C330.277 95.115 331.757 93.2235 331.63 91.1378C331.727 90.8144 331.936 90.5178 332.237 90.28C334.764 87.5995 334.942 83.9345 332.477 81.7901C332.009 81.3905 332.009 81.1565 332.477 80.7472C334.245 79.2969 335.38 77.4565 335.725 75.4836C336.025 73.5058 336.778 71.5849 337.95 69.8107C338.329 69.3233 338.178 68.9626 337.608 68.7579C337.107 68.5303 336.704 68.1954 336.446 67.7939C336.188 67.3924 336.087 66.9416 336.155 66.4965C336.117 65.3424 335.965 64.1921 335.7 63.0557C335.586 62.5684 335.346 62.1395 334.613 62.081C333.349 62.081 333.273 63.1435 332.818 63.7673C332.223 64.6631 331.822 65.6277 331.63 66.6233C331.29 68.2895 330.137 69.7925 328.406 70.8244C327.952 71.0324 327.61 71.3598 327.443 71.7463C327.276 72.133 327.295 72.5531 327.496 72.9298C327.736 73.4309 327.84 73.9647 327.8 74.4978C327.761 75.031 327.581 75.5524 327.269 76.0295C325.892 78.4598 324.247 80.7947 322.352 83.0085C321.985 83.379 321.695 83.8761 320.861 83.9833C321.189 83.1677 321.643 82.3855 322.213 81.6537C323.275 79.5092 323.086 77.4038 323.073 75.2984C322.949 73.8812 323.438 72.4724 324.463 71.2922C325.183 70.5222 325.284 69.7035 324.4 69.1771C322.656 68.1244 322.971 66.8085 323.806 65.2197C325.424 62.1785 326.903 59.1081 328.343 56.028C329.064 54.4879 328.824 53.1038 327.206 52.1973C326.245 51.5443 325.651 50.6283 325.55 49.6434C325.398 49.0457 325.424 48.4291 325.626 47.8402C326.85 43.6682 329.37 39.788 332.969 36.5333C333.637 36.0414 334.117 35.4181 334.358 34.7308C334.598 34.0435 334.591 33.3185 334.335 32.6344C330.947 31.8546 329.595 33.0438 328.571 34.6521C326.435 38.3762 323.677 41.8692 320.368 45.0428C317.097 47.9354 314.479 51.2301 312.62 54.79C312.102 55.6966 311.52 56.5836 310.888 57.4511C310.661 57.763 310.471 58.2211 309.889 58.0846C309.308 57.9482 309.586 57.5583 309.649 57.2659C309.839 56.0475 310.143 54.8193 310.269 53.6009C310.395 52.207 310.18 52.1192 308.386 52.5092C308.006 52.5969 307.576 52.8698 307.26 52.5969C306.945 52.3239 307.348 51.9341 307.526 51.6222C308.346 50.2626 308.883 48.8119 309.118 47.3236C309.359 45.959 308.158 45.92 306.009 47.3236C305.716 47.5099 305.48 47.7426 305.314 48.0059C300.384 55.5698 295.025 62.9973 290.374 70.6392C289.889 71.4708 289.287 72.2586 288.579 72.9883C288.364 73.1832 288.187 73.4659 287.846 73.4172C287.504 73.3684 287.554 73.076 287.529 72.8518C287.559 71.9594 287.5 71.0665 287.353 70.1811C287.353 69.8789 287.529 69.3428 286.872 69.3915C286.215 69.4402 286.202 69.9082 286.063 70.2395C285.457 71.6432 284.863 73.037 284.331 74.4309C283.489 77.1811 282.215 79.8422 280.54 82.3555C278.604 84.8781 277.534 87.7397 277.43 90.6699C277.215 94.6771 275.773 98.5888 273.221 102.084C272.055 103.771 271.176 105.566 270.604 107.426C269.809 109.891 268.911 112.358 268.077 114.814C267.746 114.146 267.6 113.431 267.645 112.716C267.691 112.001 267.928 111.302 268.343 110.662C270.314 107.523 270.011 104.248 270.984 101.041C270.996 100.925 270.996 100.807 270.984 100.69C270.984 100.154 270.668 100.105 270.162 100.515C269.948 100.69 269.771 100.915 269.556 101.1C268.444 102.075 267.761 102.075 267.217 101.022C266.888 100.388 266.535 100.495 266.131 101.022C265.269 102.035 264.337 103.011 263.337 103.946C262.501 104.758 261.961 105.727 261.769 106.753C261.473 108.158 260.875 109.516 260 110.769C259.139 111.889 258.726 113.182 258.812 114.483C259.519 118.45 257.99 122.28 255.386 125.916C254.088 127.746 253.159 129.718 252.631 131.764C252.027 134.543 251.238 137.295 250.267 140.011C248.785 144.009 247.881 148.121 247.575 152.273C247.323 154.866 247.461 157.439 246.956 160.071C246.274 163.726 245.035 167.391 245.035 171.066C244.933 172.108 244.63 173.133 244.137 174.107C242.873 177.031 242.229 179.887 243.215 182.714C243.804 184.748 243.748 186.861 243.05 188.874C242.722 189.966 242.317 189.849 241.558 189.293C236.25 185.58 231.055 181.778 226.024 177.831C222.41 175.004 218.908 172.109 215.343 169.253C215.053 169.029 214.624 168.376 214.168 169.165C213.624 170.14 213.246 169.545 212.904 169.292C210.696 167.713 208.51 166.108 206.344 164.476C205.923 164.166 205.587 163.795 205.354 163.383C205.122 162.971 204.999 162.527 204.992 162.078C204.831 159.603 203.521 157.254 201.301 155.46C198.659 155.86 197.673 154.642 196.51 153.511C195.79 152.77 195.246 151.834 193.78 151.727C192.682 151.612 191.684 151.171 190.999 150.499C189.445 149.164 187.979 147.75 186.285 146.532C181.584 143.268 177.347 139.629 173.644 135.673C171.268 133.041 168.399 130.673 167.148 127.457C166.72 126.172 165.718 125.047 164.317 124.279C163.331 123.762 162.383 123.216 161.46 122.67C159.454 121.587 157.881 120.091 156.922 118.353C156.356 117.196 155.711 116.064 154.989 114.96C153.725 113.011 152.46 110.525 150.021 109.112C148.468 110.046 147.249 111.27 146.482 112.67C145.926 113.596 145.345 114.298 143.802 113.79C144.611 115.116 143.638 117.232 146.52 117.407C146.659 117.407 146.823 117.602 146.823 117.729C147.023 119.292 147.975 120.742 149.49 121.793C150.008 122.222 150.476 122.816 149.755 123.47C148.037 125.02 148.314 126.491 149.01 128.012C150.755 131.911 152.422 135.751 154.18 139.592C154.41 139.994 154.474 140.441 154.366 140.874C154.257 141.305 153.981 141.702 153.573 142.009C153.164 142.325 152.871 142.718 152.724 143.15C152.578 143.582 152.583 144.036 152.739 144.465C152.807 144.689 152.848 144.918 152.865 145.148C152.928 146.054 152.03 146.122 151.222 146.346C150.413 146.571 150.337 145.996 150.312 145.537C150.172 144.548 150.337 143.546 150.792 142.613C151.311 141.639 150.577 141.2 149.794 140.732C148.795 140.166 148.037 140.566 147.039 141.639C145.78 141.259 144.431 141.092 143.082 141.152C142.528 141.223 141.959 141.185 141.429 141.042C140.899 140.899 140.424 140.655 140.048 140.332C139.528 139.842 138.801 139.505 137.995 139.38C137.188 139.255 136.35 139.351 135.625 139.65C135.094 139.826 134.613 139.845 134.36 139.397C133.88 138.5 133.096 138.754 132.186 139.241C130.265 140.216 130.152 140.216 129.659 138.558C128.673 135.235 127.902 131.852 127.13 128.46C127.055 128.119 127.055 127.73 126.511 127.661C125.968 127.593 125.664 127.924 125.361 128.217C123.781 129.708 122.188 131.14 120.634 132.7C120.483 132.838 120.379 133.002 120.33 133.178C119.623 135.975 118.813 138.743 118.157 141.541C116.892 146.795 115.628 152.029 112.38 157.02C111.672 158.238 110.826 159.406 109.852 160.509C109.713 159.416 110.066 158.318 110.851 157.4C111.601 156.446 112.081 155.381 112.259 154.274C112.438 153.167 112.311 152.043 111.887 150.977C110.989 148.822 110.205 146.658 111.596 144.153C111.756 143.772 111.841 143.375 111.849 142.974C111.917 142.774 111.882 142.562 111.753 142.38C111.624 142.199 111.409 142.063 111.153 142C111.016 141.98 110.875 141.98 110.737 142C110.343 141.937 109.935 141.993 109.593 142.156C109.253 142.319 109.005 142.577 108.904 142.876C108.766 143.379 108.702 143.893 108.714 144.407C108.762 145.771 108.324 147.12 107.45 148.306C107.02 148.831 106.68 149.399 106.439 149.992C104.802 154.512 103.544 159.11 102.672 163.755C102.369 165.89 102.457 168.025 101.573 170.13C99.1466 175.775 97.7174 181.648 97.3255 187.587C97.3905 187.958 97.3216 188.337 97.1275 188.681C96.9345 189.024 96.622 189.32 96.2262 189.537C94.5703 190.258 94.4692 191.242 94.6588 192.413C95.3778 195.933 95.2793 199.524 94.3681 203.017C92.2952 210.075 91.5747 217.19 89.666 224.276C89.3494 225.226 89.4655 226.231 89.9947 227.122C90.1965 227.453 90.3086 227.812 90.3238 228.178C90.339 228.544 90.2571 228.907 90.0832 229.247C88.7186 232.54 87.8077 235.935 87.3656 239.375C87.0117 242.611 87.0496 245.808 86.7715 249.034C86.1522 256.101 85.773 263.149 85.3811 270.206C85.141 274.446 85.0651 278.676 85.28 282.878C85.6719 290.519 85.1284 298.248 85.28 305.9C85.4065 311.164 85.0525 316.476 85.2169 321.74C85.3432 325.989 85.1157 330.279 85.0146 334.548C85.0146 335.659 84.8376 336.761 86.2786 337.365C86.7083 337.56 86.7083 338.096 86.7842 338.515C87.3783 341.888 87.9091 345.289 88.6296 348.633C89.4764 352.6 89.8935 356.557 88.3641 360.739C87.8712 362.045 87.947 363.439 87.3403 364.706C88.8571 364.92 90.4876 364.989 92.0171 365.281C92.8412 365.468 93.5409 365.891 93.9714 366.465C94.4019 367.038 94.5303 367.717 94.3302 368.361C94.0695 369.122 94.0724 369.922 94.3387 370.682C94.6048 371.441 95.125 372.133 95.8469 372.689C96.3281 373.052 96.6938 373.496 96.9131 373.987C97.1324 374.478 97.2003 375.002 97.111 375.515C96.951 378.742 97.1324 381.972 97.6544 385.176C98.122 388.099 98.2482 390.196 101.712 390.556C103.469 390.732 104.455 390.556 105.251 389.103C105.894 387.745 106.264 386.318 106.351 384.873C106.352 384.01 106.766 383.177 107.513 382.534C108.272 381.969 108.689 381.461 108.108 380.789C108.01 380.669 107.97 380.525 107.995 380.384C108.02 380.244 108.11 380.114 108.246 380.019C108.313 379.965 108.394 379.922 108.483 379.894C108.572 379.864 108.669 379.849 108.765 379.849C108.862 379.849 108.958 379.864 109.046 379.894C109.135 379.922 109.216 379.965 109.283 380.019C110.19 380.639 110.789 381.483 110.977 382.407C111.369 383.889 111.268 385.468 111.824 386.93C111.91 387.372 111.878 387.823 111.731 388.256C111.582 388.688 111.322 389.093 110.964 389.445C110.067 390.595 109.182 391.745 108.183 392.837C107.475 393.637 107.084 394.578 107.058 395.547C106.909 397.27 106.537 398.978 105.946 400.645C105.175 403.217 105.036 405.811 107.716 407.662C109.583 408.806 111.042 410.299 111.95 412L115.578 411.658C116.176 409.22 117.192 406.853 118.599 404.621C119.888 402.63 120.519 400.422 120.432 398.198C120.207 396.306 120.732 394.406 121.936 392.749C122.04 392.668 122.123 392.573 122.18 392.468C122.236 392.362 122.265 392.249 122.265 392.135C122.265 392.02 122.236 391.908 122.18 391.803C122.123 391.697 122.04 391.602 121.936 391.52C121.814 391.431 121.667 391.363 121.506 391.326C121.102 391.161 120.748 390.933 120.468 390.657C120.186 390.379 119.984 390.059 119.875 389.718C118.627 386.898 117.609 384.019 116.829 381.101C116.726 380.637 116.692 380.167 116.728 379.697C116.728 378.908 117.562 378.509 118.434 378.82C119.655 379.229 120.823 379.724 121.923 380.302C124.45 381.676 128.243 380.496 129.987 379.025C131.065 378.093 131.947 377.037 132.603 375.896C132.871 375.351 133.283 374.855 133.811 374.44C134.34 374.023 134.975 373.696 135.675 373.479C138.86 372.65 138.873 372.66 138.886 370.165C138.886 369.307 138.67 368.478 138.632 367.64C141.183 365.765 143.265 363.545 144.776 361.09C144.978 360.719 145.559 360.397 145.8 360.875C146.659 362.562 148.555 362.123 150.363 361.928C152.536 361.684 152.89 361.411 153.005 359.686C153.143 357.736 153.269 355.836 153.345 353.915C153.548 348.847 154.508 343.701 153.345 338.769C152.981 336.952 153.154 335.096 153.851 333.339C154.596 331.283 155.054 329.172 155.216 327.042C155.721 321.847 156.088 316.661 156.48 311.446C156.721 308.727 156.96 306.017 157.214 303.298C157.215 302.955 157.316 302.618 157.509 302.309C157.702 302.001 157.98 301.73 158.325 301.514C158.616 302.771 158.881 303.892 159.135 305.013C159.856 308.958 160.891 312.864 162.232 316.711C162.648 317.85 163.42 318.895 164.481 319.751C165.82 320.726 166.453 320.366 167.743 318.377C168.012 317.926 168.361 317.507 168.779 317.129C169.409 316.706 169.832 316.128 169.977 315.493C170.123 314.858 169.98 314.204 169.575 313.64C167.195 309.807 165.494 305.745 164.519 301.563C161.877 291.913 161.637 281.854 161.637 271.785C161.637 264.309 161.865 256.823 161.637 249.366C161.622 248.907 161.55 248.45 161.422 248.001C161.393 247.916 161.334 247.837 161.252 247.776C161.169 247.714 161.066 247.671 160.955 247.65C160.702 247.65 160.538 247.874 160.449 248.059C160.218 248.686 159.818 249.268 159.273 249.766C158.818 249.415 159.008 248.986 158.996 248.616C158.934 242.435 160.046 236.281 162.295 230.349C165.164 222.249 169.284 214.353 172.583 206.322C172.671 206.098 172.709 205.796 173.051 205.747C173.392 205.698 173.683 206.039 173.898 206.263C176.425 208.812 179.125 211.255 181.988 213.584C185.476 216.508 188.472 219.754 192.819 221.995C195.985 223.579 198.49 225.833 200.037 228.487C202.767 229.774 204.663 231.703 206.735 233.507C208.467 235.008 210.098 236.587 212.525 237.464C213.457 237.816 214.27 238.33 214.901 238.966C219.097 242.787 222.966 246.881 228.388 249.775C229.134 251.265 230.382 252.573 232.002 253.567C236.351 256.735 240.851 259.825 244.895 263.217C245.944 264.006 246.551 265.08 246.589 266.21C246.589 269.182 246.703 272.136 246.665 275.109C246.589 279.475 246.576 283.823 248.005 287.965L199.127 292.576C195.281 293.012 191.752 294.469 189.152 296.698C186.551 298.926 185.041 301.784 184.882 304.779L184.211 334.743C184.144 335.767 184.372 336.789 184.881 337.737C185.389 338.684 186.164 339.533 187.151 340.22C188.137 340.908 189.309 341.418 190.583 341.713C191.856 342.008 193.199 342.081 194.513 341.927C262.174 335.581 635.351 300.618 669.947 297.303C671.119 297.173 672.195 296.731 672.988 296.052C673.78 295.374 674.238 294.502 674.282 293.59L675.154 254.035C675.184 253.354 675.041 252.676 674.73 252.039C674.42 251.401 673.949 250.817 673.346 250.319C672.742 249.822 672.018 249.422 671.213 249.142C670.409 248.86 669.541 248.705 668.658 248.683C668.311 248.675 667.965 248.688 667.621 248.722ZM206.268 182.899C206.083 182.975 205.864 182.99 205.663 182.943C205.462 182.896 205.293 182.789 205.194 182.646V182.587C204.449 181.567 203.568 180.61 202.564 179.731C200.037 177.607 196.927 176.066 194.412 173.951H194.336C189.394 172.762 187.182 169.233 183.959 166.592C180.988 164.155 178.245 161.552 175.402 159.018C174.542 158.279 173.846 157.436 173.342 156.522C173.152 156.259 173.084 155.952 173.151 155.654C173.218 155.357 173.415 155.085 173.709 154.886C174.391 154.436 174.833 154.886 175.275 155.138C178.081 156.513 179.775 158.745 182.076 160.519C189.495 166.202 196.233 172.421 203.98 177.85C205.402 179.126 206.335 180.681 206.672 182.343C206.708 182.46 206.685 182.582 206.607 182.685C206.53 182.789 206.404 182.865 206.255 182.899H206.268ZM216.683 199.82C216.472 199.652 216.346 199.43 216.33 199.194C216.314 198.96 216.408 198.729 216.595 198.544C216.974 198.144 217.429 197.842 217.619 198.485C218.187 200.434 219.768 201.76 220.917 203.437C219.502 202.218 218.086 201.029 216.683 199.82ZM231.207 204.44C229.639 203.398 228.261 202.179 226.631 201.185C219.932 197.11 215.179 191.672 210.199 186.398C209.618 185.785 209.062 185.141 208.493 184.507C208.063 184.03 207.747 183.533 208.493 182.938C209.239 182.343 209.908 182.743 210.426 183.123C214.176 185.891 217.914 188.666 221.638 191.447C223.935 193.085 225.991 194.911 227.768 196.896C228.245 197.408 228.668 197.95 229.033 198.514C229.563 199.392 229.88 200.317 231.75 199.762C232.635 199.489 233.305 200.201 233.621 200.737C234.823 202.627 236.549 204.291 238.677 205.611C238.957 205.812 239.155 206.073 239.245 206.36C239.574 207.735 239.853 209.129 240.105 210.396C237.135 208.379 234.139 206.497 231.257 204.47L231.207 204.44ZM319.609 149.368C319.934 146.537 320.664 143.742 321.784 141.034C322.024 140.692 322.144 140.307 322.128 139.918C322.112 139.529 321.963 139.151 321.695 138.821C321.486 138.595 321.373 138.325 321.373 138.046C321.373 137.769 321.486 137.498 321.695 137.271C322.327 136.453 322.959 135.644 323.679 134.855C323.881 134.601 324.147 134.367 324.552 134.436C324.638 134.449 324.72 134.476 324.793 134.514C324.866 134.553 324.928 134.602 324.977 134.66C325.024 134.716 325.057 134.78 325.074 134.848C325.089 134.914 325.088 134.983 325.07 135.049C325.075 135.085 325.075 135.121 325.07 135.157C324.451 136.833 324.627 138.636 323.073 140.205C322.821 140.459 322.654 140.755 322.586 141.07C322.517 141.384 322.55 141.707 322.681 142.009C323 142.761 323.158 143.548 323.149 144.338C323.053 146.117 322.6 147.872 321.809 149.543C321.53 150.187 320.937 150.733 320.14 150.645C319.344 150.557 319.571 149.846 319.66 149.358L319.609 149.368ZM317.46 157.361C317.789 156.64 318.017 155.889 318.345 155.168C318.56 154.7 318.244 153.911 319.395 153.93C320.33 153.93 320.861 154.378 320.81 155.198C320.704 155.766 320.451 156.312 320.067 156.804C319.683 157.296 319.175 157.724 318.573 158.063C318.512 158.11 318.439 158.148 318.359 158.174C318.278 158.2 318.193 158.214 318.105 158.214C318.018 158.214 317.932 158.2 317.852 158.174C317.772 158.148 317.699 158.11 317.638 158.063C317.521 157.97 317.443 157.854 317.414 157.727C317.384 157.6 317.405 157.469 317.473 157.351L317.46 157.361ZM428.78 219.793C425.632 231.255 421.612 242.621 417.492 253.966C417.44 254.212 417.329 254.446 417.163 254.659C414.964 256.56 415.33 258.733 415.002 260.829C414.812 261.969 414.724 263.11 414.598 264.26C414.633 264.546 414.571 264.833 414.418 265.095C414.266 265.357 414.026 265.583 413.725 265.751C412.878 266.092 412.765 265.323 412.272 265.088L411.804 264.854C411.299 265.362 411.677 265.722 411.804 266.102C412.275 267.398 412.471 268.745 412.385 270.089C412.31 270.867 411.956 271.612 411.362 272.243C411.008 272.614 410.641 272.877 410.199 272.369C409.756 271.863 408.935 271.951 408.265 272.428C407.239 273.133 405.943 273.561 404.574 273.647C391.092 274.9 377.588 276.171 364.064 277.458C362.799 277.574 362.623 277.263 362.862 276.366C365.391 267.106 366.515 257.846 367.792 248.586C368.627 242.523 369.575 236.451 370.485 230.379C370.535 230.021 370.646 229.67 370.814 229.335C371.129 228.77 371.445 228.029 372.217 227.912C372.987 227.796 372.924 228.565 373.228 228.955C373.354 229.131 373.379 229.452 373.784 229.365C374.188 229.277 374.163 228.994 374.276 228.77C374.871 227.497 375.611 226.267 376.489 225.095C377.057 226.07 376.728 227.045 377.323 227.912C378.106 227.094 377.879 226.235 378.119 225.456C378.688 223.506 379.143 221.557 379.611 219.676C380.038 217.727 381.143 215.904 382.809 214.402C384.679 212.726 386.335 210.913 388.054 209.148C388.888 208.3 389.76 207.755 391.062 208.174C391.985 208.476 392.756 207.949 393.59 207.598C401.73 204.207 408.189 199.002 415.154 194.342C418.68 191.984 418.945 192.071 419.767 195.22C421.196 201.117 421.764 207.121 421.461 213.115C421.461 214.402 421.069 215.825 422.459 216.781C422.839 217.034 422.661 217.59 422.598 218.028C422.143 221.489 421.663 224.959 421.233 228.429C421.17 229.004 420.677 230.007 421.499 230.037C422.321 230.067 422.219 229.062 422.346 228.536C423.711 222.951 425.013 217.366 426.049 211.761C426.416 209.811 425.936 207.862 426.049 205.912C426.163 203.095 426.201 200.259 426.213 197.452C426.213 196.711 426.53 196.38 427.478 196.477C427.97 196.535 428.224 196.779 427.591 197.062C426.53 197.53 426.782 198.085 426.972 198.699C427.933 201.546 428.931 204.392 429.778 207.277C430.89 211.332 429.942 215.572 428.78 219.783V219.793ZM497.388 210.347C493.175 223.915 488.962 237.484 484.749 251.053C484.661 251.282 484.597 251.517 484.559 251.754C484.559 251.968 484.445 252.252 484.799 252.339C485.152 252.427 485.254 252.164 485.431 252.017L485.646 251.832C486.177 251.471 486.555 250.584 487.251 250.857C487.946 251.13 487.491 252.086 487.251 252.7C487.076 253.188 486.83 253.658 486.518 254.103C485.279 255.733 484.735 257.622 484.963 259.503C484.992 260.27 484.771 261.031 484.319 261.716C483.977 262.226 483.771 262.783 483.711 263.355C483.65 263.927 483.736 264.503 483.965 265.05C484.407 265.917 483.839 266.171 482.827 266.268C473.803 267.093 464.786 267.941 455.777 268.812C454.439 268.929 453.946 268.588 454.047 267.584C454.057 266.908 454.163 266.235 454.362 265.575C454.944 264.143 454.766 263.928 452.908 263.9C453.655 263.239 454.121 262.417 454.245 261.546C454.37 260.675 454.147 259.795 453.604 259.025C452.896 257.934 453.819 256.637 454.703 255.526C455.892 254.045 457.169 252.602 458.369 251.111C459.266 249.99 459.153 249.756 457.636 249.581C456.789 249.493 456.473 249.219 457.016 248.606C458.281 247.095 458.925 245.252 461.061 244.18C461.218 244.103 461.336 243.989 461.4 243.856C461.464 243.722 461.469 243.576 461.416 243.439C460.923 242.221 461.858 241.305 462.907 240.408C463.144 240.242 463.356 240.055 463.538 239.853C463.721 239.673 463.804 239.446 463.771 239.22C463.738 238.994 463.591 238.787 463.362 238.644C462.755 238.283 462.401 238.722 462.098 239.132C461.471 240.092 460.572 240.93 459.469 241.588C459.289 240.107 459.434 238.615 459.898 237.172C460.732 232.366 462.427 227.59 463.501 222.776C463.905 220.923 464.108 219.082 464.411 217.22C464.423 216.66 464.539 216.106 464.752 215.572C465.928 213.505 465.46 211.527 465.448 209.518C465.448 208.797 465.207 208.194 464.184 208.057C463.16 207.92 463.438 207.511 463.83 207.082C465.422 205.279 466.105 203.183 467.621 201.39C467.797 201.211 467.918 201.004 467.977 200.786C468.035 200.567 468.032 200.34 467.963 200.122C467.545 199.235 468.139 198.758 469.113 198.281C470.706 197.461 472.285 196.584 473.878 195.736C474.258 195.522 474.788 195.356 474.751 194.927C474.713 194.499 474.105 194.449 473.65 194.391L471.616 194.099C472.288 193.472 473.07 192.92 473.941 192.461C477.9 189.627 482.603 187.483 487.731 186.174C489.105 185.884 490.517 185.714 491.94 185.667C493.268 185.609 493.66 186.106 493.204 187.149C492.469 188.619 491.487 190.008 490.285 191.281C489.4 192.374 489.602 192.705 491.118 192.695C493.331 192.695 494.102 192.189 494.734 190.443C495.012 189.752 495.062 188.582 495.998 188.562C496.933 188.543 496.706 189.712 496.706 190.424C496.591 195.637 496.126 200.843 495.316 206.02C495.163 207.072 495.062 208.145 495.012 209.197C495.012 209.431 495.012 209.811 495.391 209.841C495.771 209.869 495.973 209.529 496.149 209.294C496.769 208.379 497.413 207.472 497.982 206.565L498.424 206.634C498.134 207.871 497.768 209.109 497.388 210.338V210.347Z" fill="white"/>
</svg>
