<svg width="237" height="141" viewBox="0 0 237 141" fill="none" xmlns="http://www.w3.org/2000/svg">
<path d="M93.092 51.5523C93.3236 51.5824 93.4966 51.3954 93.5773 51.1752C93.8075 50.6033 93.939 50.0025 93.9669 49.3938C93.9697 49.1233 93.9237 48.8539 93.8309 48.5967C93.7928 48.4934 93.7832 48.3828 93.8033 48.2754C93.823 48.1676 93.8718 48.0662 93.9449 47.9797C94.3969 47.4427 94.3455 46.8254 94.5255 46.2516C94.5365 46.2307 94.543 46.2079 94.5442 46.1848C94.5453 46.1613 94.5411 46.1382 94.5323 46.1166C94.5233 46.0948 94.5097 46.0748 94.4922 46.058C94.4745 46.0409 94.4536 46.0276 94.4302 46.0181H94.3895C94.2719 45.9946 94.1949 46.0748 94.1359 46.1616C93.9376 46.4319 93.7426 46.7085 93.5589 46.9889C93.4983 47.0662 93.4655 47.1591 93.4655 47.2541C93.4655 47.3492 93.4983 47.4417 93.5589 47.5193C93.6368 47.6321 93.6802 47.7617 93.6847 47.8948C93.6893 48.0279 93.6548 48.1594 93.5846 48.2766C93.259 49.2031 93.0471 50.1597 92.9523 51.1286C92.9156 51.282 92.901 51.5288 93.092 51.5523Z" fill="white"/>
<path d="M92.6253 54.0909C92.8003 53.9752 92.9481 53.8285 93.0598 53.6603C93.1716 53.4917 93.2449 53.3048 93.2759 53.1102C93.2759 52.8301 93.1363 52.6799 92.8643 52.6765C92.5297 52.6765 92.6217 52.9401 92.5593 53.1001C92.4637 53.3472 92.3974 53.6039 92.302 53.8507C92.2805 53.8919 92.2735 53.9379 92.282 53.9828C92.2907 54.0275 92.3141 54.069 92.3497 54.101C92.3861 54.133 92.4349 54.1511 92.4857 54.1511C92.5364 54.1511 92.5853 54.133 92.6217 54.101L92.6253 54.0909Z" fill="white"/>
<path d="M69.4027 70.3366C68.7839 69.8851 68.282 69.3157 67.9324 68.6687C67.8407 68.4817 67.6458 68.2384 67.3884 68.335C66.8445 68.5252 66.7528 68.2083 66.5982 67.9079C66.4921 67.715 66.3693 67.5296 66.2308 67.3544C65.7128 66.6798 65.1152 66.0591 64.448 65.503C63.3625 64.549 62.2757 63.5993 61.1878 62.6542C61.0371 62.5239 60.8644 62.3871 60.6255 62.5908C60.3865 62.7942 60.4895 62.9644 60.6255 63.1279C60.7908 63.3446 60.9525 63.5648 61.1215 63.7749C62.5917 65.5797 63.9666 67.4444 65.8999 68.8354C66.3741 69.169 66.7748 69.5926 67.2304 69.9497C68.0834 70.6167 68.9543 71.284 69.8033 71.951C69.73 71.5175 69.649 71.0403 69.5536 70.5701C69.5285 70.4808 69.476 70.4 69.4027 70.3366Z" fill="white"/>
<path d="M59.2915 60.856C57.0383 58.998 55.0791 56.8532 52.9215 54.9248C52.2526 54.3178 51.7602 53.5538 50.9443 53.0836C50.8156 53.0101 50.687 52.8434 50.4883 52.9968C50.4029 53.0652 50.3456 53.1581 50.3264 53.2601C50.3069 53.3618 50.3264 53.4667 50.3817 53.5573C50.5287 53.8697 50.731 54.1584 50.981 54.4112C51.8079 55.2785 52.6055 56.1691 53.4692 57.0031C54.4065 57.9071 55.0498 59.1149 56.487 59.5218H56.509C57.2443 60.2458 58.1559 60.7727 58.8798 61.4999C59.1713 61.8006 59.4278 62.1282 59.6445 62.4774C59.6557 62.503 59.6724 62.5265 59.6938 62.5461C59.715 62.5658 59.7404 62.5816 59.7683 62.5924C59.7963 62.6032 59.8264 62.6089 59.8569 62.6092C59.8874 62.6095 59.9176 62.6044 59.9458 62.594H59.9678C60.0107 62.5797 60.0457 62.5509 60.0657 62.5135C60.0854 62.4761 60.0886 62.4333 60.0744 62.394C59.9763 61.8253 59.7051 61.2926 59.2915 60.856Z" fill="white"/>
<path d="M62.9856 67.9447C62.9311 68.0081 62.9038 68.0873 62.9086 68.1674C62.9134 68.2479 62.9498 68.324 63.0113 68.3816C63.4193 68.7986 63.8312 69.2058 64.2428 69.6192C63.9082 69.0454 63.4489 68.5784 63.2833 67.9247C63.2209 67.7178 63.0959 67.8078 62.9856 67.9447Z" fill="white"/>
<path d="M196.532 46.1116C196.223 46.2282 196.415 46.3416 196.488 46.4452C197.455 47.6952 198.175 49.0878 198.616 50.5615C198.615 50.4807 198.625 50.4002 198.645 50.3213C198.682 48.6169 197.877 47.2925 196.9 46.0415C196.727 45.8147 196.646 46.065 196.532 46.1116Z" fill="white"/>
<path d="M176.881 54.3311C176.672 54.3111 176.598 54.5478 176.543 54.7214C176.531 54.7892 176.514 54.8561 176.492 54.9214C176.025 57.5367 175.654 60.152 175.323 62.7242C175.297 62.8776 175.264 63.0141 175.422 63.0141C175.58 63.0141 175.58 62.8608 175.599 62.7641C175.691 62.2369 175.779 61.7134 175.863 61.1862C176.211 59.0313 176.558 56.8751 176.903 54.7179C176.925 54.5779 177.065 54.351 176.881 54.3311Z" fill="white"/>
<path d="M202.254 48.2998C201.43 44.5435 199.085 41.2038 195.682 38.9393C193.19 37.2714 190.249 36.6044 186.916 37.0347C184.82 37.3217 182.745 37.7248 180.704 38.2422C180.127 38.3791 180.068 38.3322 180.16 37.7885C180.424 36.2375 180.674 34.6861 180.928 33.1352C181.024 32.5414 181.104 31.9508 181.189 31.357C181.234 31.3829 181.265 31.4236 181.277 31.4704C181.325 31.5705 181.303 31.7505 181.45 31.7438C181.597 31.7372 181.645 31.5505 181.696 31.4304C181.906 30.9634 182.093 30.4897 182.306 30.0227C182.432 29.8037 182.46 29.5492 182.384 29.3121C181.939 28.2447 182.384 27.1238 182.612 26.0163C182.637 25.8929 182.663 25.7528 182.836 25.7328C183.203 25.6827 183.229 25.4292 183.255 25.1823C183.335 24.4384 183.387 23.6979 183.497 22.9573C183.531 22.432 183.604 21.9093 183.714 21.3928C183.868 21.4529 183.894 21.6597 184.059 21.603C184.225 21.5463 184.207 21.3461 184.265 21.2094C184.283 21.1574 184.295 21.1036 184.298 21.0492C184.677 18.7567 184.817 16.437 184.717 14.1207C184.582 11.5173 184.137 8.93493 183.391 6.41819C183.097 5.44745 182.733 4.50005 182.773 3.41591C182.753 3.06395 182.854 2.715 183.06 2.41655C183.266 2.1181 183.569 1.88466 183.927 1.74798C184.24 1.62456 184.251 1.45777 184.126 1.23426C183.873 0.721357 183.454 0.290737 182.924 0L182.31 0.0700525C181.964 0.232424 181.671 0.47437 181.46 0.771731C181.249 1.06909 181.127 1.41147 181.108 1.76467C180.998 2.76542 180.88 3.74949 180.741 4.80696C180.373 4.15982 180.138 3.4993 179.847 2.87217C179.763 2.69203 179.755 2.35845 179.531 2.38514C179.307 2.41182 179.296 2.76209 179.197 2.96891C179.197 2.99226 179.156 3.00894 179.097 3.05898C179.028 2.9122 178.972 2.76876 178.899 2.63866C178.825 2.50856 178.825 2.30507 178.642 2.23502C178.535 2.27838 178.542 2.35177 178.535 2.41516C178.491 2.84548 178.469 3.27915 178.406 3.70947C178.351 4.08643 178.245 4.13311 177.896 3.99303C177.546 3.85291 177.087 3.65944 176.675 3.51264C176.583 3.47928 176.436 3.44595 176.367 3.57937C176.297 3.7128 176.414 3.74284 176.481 3.80621C176.922 4.21986 176.925 4.37664 176.514 4.88034C176.44 4.97042 176.374 5.10385 176.238 5.07717C176.102 5.05049 176.117 4.92039 176.098 4.81697C176.043 4.42667 175.992 4.03637 175.937 3.6461C175.937 3.56936 175.937 3.46261 175.845 3.4526C175.753 3.44259 175.668 3.55602 175.635 3.64274C175.554 3.85291 175.492 4.06641 175.429 4.2799C175.367 4.4934 175.249 4.61349 175.025 4.61349C174.735 4.61349 174.312 4.86035 174.187 4.56678C173.966 4.05307 173.819 4.41333 173.661 4.68354L173.121 4.00304C172.959 3.80621 172.783 3.7962 172.599 4.04306C171.937 4.91038 171.258 5.77102 170.949 6.78847C170.864 7.12639 170.728 7.45199 170.544 7.75585C170.383 6.53495 170.464 5.32736 170.199 4.18317C169.92 4.66719 169.696 5.17574 169.53 5.70096C169.442 5.89101 169.402 6.09617 169.411 6.302C169.421 6.5078 169.48 6.70919 169.585 6.89189C169.984 7.64286 170.123 8.48632 169.982 9.31037C169.964 9.636 169.846 9.95051 169.64 10.2177C169.394 9.83409 169.173 9.48717 168.945 9.14357C168.887 9.05349 168.854 8.88005 168.695 8.93676C168.537 8.99345 168.585 9.18027 168.6 9.29703C168.651 9.73067 168.703 10.161 168.787 10.5847C169.312 13.0724 169.593 15.5976 169.625 18.1304C169.625 22.9307 169.556 27.7409 169.133 32.5879C168.942 34.7964 168.765 37.0046 168.567 39.213C168.298 41.975 168.026 44.7405 167.799 47.4991C167.56 50.4081 167.218 53.3203 166.843 56.2357C166.416 59.5382 165.954 62.844 165.373 66.15C165.34 66.3335 165.31 66.5169 165.457 66.6437C165.649 66.567 165.582 66.3702 165.755 66.2799C165.608 67.1006 165.483 67.8981 165.321 68.6918C164.829 71.1569 164.333 73.6255 163.811 76.0875C163.524 77.4218 163.333 78.7861 162.976 80.1305C162.927 80.3451 162.824 80.5466 162.677 80.7199C162.529 80.8932 162.34 81.0339 162.123 81.1312C161.495 81.4315 160.881 81.7652 160.26 82.0821C160.13 82.1299 160.02 82.2145 159.947 82.3232C159.873 82.4315 159.84 82.5589 159.852 82.6857C159.893 82.9993 159.944 83.3095 159.984 83.6232C160.025 83.9366 160.264 84.0301 160.609 83.8967C160.955 83.7633 161.193 83.6498 161.491 83.5399C161.7 83.4458 161.931 83.397 162.164 83.397C162.397 83.397 162.627 83.4458 162.837 83.5399C162.894 83.5592 162.946 83.589 162.99 83.627C163.034 83.665 163.07 83.7104 163.095 83.7611C163.12 83.8114 163.134 83.8659 163.135 83.9214C163.137 83.9768 163.127 84.032 163.105 84.0836V84.1201C162.962 84.5453 162.962 84.9993 163.105 85.4245C163.253 85.9477 163.438 86.4613 163.66 86.9622C163.708 87.069 163.704 87.2559 163.903 87.2157C164.101 87.1758 164.057 87.0158 164.09 86.9023C164.314 86.165 164.458 85.4245 164.608 84.6841C164.634 84.5671 164.608 84.397 164.77 84.3704C164.932 84.3437 164.924 84.5405 164.943 84.6571C165.005 85.0576 165.042 85.4679 165.108 85.8681C165.108 85.9648 165.108 86.1083 165.252 86.1184C165.395 86.1283 165.421 85.9784 165.483 85.8881C165.522 85.8276 165.556 85.7642 165.582 85.698C165.707 85.4546 165.832 85.211 165.95 84.9676C166.031 84.814 166.119 84.6606 166.284 84.8609C166.398 85.0009 166.508 85.0142 166.586 84.8073C166.663 84.6004 166.777 84.5573 166.953 84.6739C167.004 84.7167 167.046 84.768 167.075 84.8254C167.104 84.8824 167.12 84.9445 167.122 85.0076C167.192 85.5947 167.269 86.185 167.346 86.7721C167.38 87.0056 167.376 87.2826 167.714 87.2658C168.052 87.2493 168.148 86.9857 168.218 86.7388C168.42 86.0418 168.622 85.3444 168.806 84.6473C168.89 84.3137 169.052 84.2135 169.368 84.3336C170.015 84.5839 170.192 84.397 170.103 83.7332C170.103 83.6666 170.078 83.6033 170.074 83.5399C170 82.756 170.144 81.968 170.491 81.2475C170.838 80.5266 171.378 79.8964 172.062 79.4132C172.18 79.2909 172.34 79.2088 172.515 79.1803C172.691 79.1518 172.872 79.1787 173.029 79.2567C173.397 79.4366 173.54 79.3365 173.617 78.9395C173.658 78.7361 173.691 78.5358 173.731 78.3324C173.731 78.2526 173.768 78.1188 173.849 78.1223C174.286 78.1223 174.363 77.7586 174.558 77.5285C174.793 77.2253 175.07 76.9506 175.381 76.7114C176.727 75.7805 178.072 74.8499 179.454 73.9693C180.358 73.3736 181.313 72.8451 182.31 72.3879C182.501 72.3046 182.718 72.1712 182.902 72.2612C183.251 72.438 183.497 72.2447 183.769 72.0277C187.489 69.0857 191.212 66.1456 194.939 63.2077C195.054 63.0753 195.217 62.984 195.399 62.9508C194.84 63.6779 194.131 64.2419 193.682 64.9789C194.425 64.6516 195.135 64.2654 195.803 63.825C195.766 64.0151 195.741 64.1317 195.719 64.2486C195.696 64.3652 195.667 64.4954 195.777 64.5388C195.888 64.5822 196.002 64.4419 196.09 64.3519C196.718 63.7115 197.336 63.061 197.972 62.427C198.515 61.9102 198.976 61.3262 199.339 60.6925C200.809 57.9806 202.085 55.2351 202.327 52.2896C202.434 50.9319 202.559 49.584 202.254 48.2998ZM175.598 62.7641C175.598 62.8608 175.598 63.0141 175.422 63.0141C175.245 63.0141 175.297 62.8776 175.323 62.7239C175.653 60.152 176.025 57.5367 176.492 54.9214C176.5 54.8532 176.517 54.7861 176.543 54.7214C176.598 54.5478 176.672 54.3111 176.881 54.3311C177.091 54.351 176.925 54.5779 176.903 54.7179C176.563 56.8729 176.216 59.0291 175.863 61.1862C175.778 61.7131 175.694 62.2369 175.598 62.7641ZM189.198 55.4451C189.089 55.7715 189.014 56.1067 188.974 56.4461C188.628 57.7889 187.89 59.023 186.838 60.0186C185.817 61.0661 184.736 62.0702 183.762 63.1611C183.685 63.2476 183.6 63.3345 183.523 63.4244C183.446 63.5147 183.405 63.5715 183.464 63.6447C183.523 63.7182 183.622 63.6748 183.703 63.6447C183.933 63.5258 184.181 63.4371 184.438 63.3814L176.969 69.8395C176.855 69.9396 176.712 70.0464 176.793 70.1731C176.914 70.3832 177.161 70.2298 177.348 70.213C177.348 70.3566 177.212 70.4364 177.15 70.5467C177.087 70.6566 177.021 70.7701 177.105 70.8068C177.602 71.027 177.139 71.2137 176.988 71.3705C176.703 71.6623 176.368 71.9101 175.995 72.1043C176.121 71.6886 176.285 71.2834 176.488 70.8936C176.635 70.56 176.686 70.3363 176.146 70.3832C176.295 70.3347 176.427 70.2501 176.527 70.1383C176.627 70.0264 176.691 69.8921 176.712 69.7495C176.734 69.6861 176.767 69.5758 176.738 69.5559C176.334 69.2923 176.602 68.8553 176.565 68.4985C176.565 68.3918 176.565 68.2514 176.455 68.2181C175.959 68.0515 176.131 67.6177 176.128 67.2707C176.135 67.0863 176.188 66.9057 176.284 66.7425C176.379 66.5797 176.514 66.4387 176.679 66.33C176.904 66.1589 177.086 65.946 177.213 65.7052C177.34 65.4647 177.409 65.2023 177.414 64.9358C177.414 64.7555 177.51 64.5052 177.26 64.4555C177.01 64.4054 176.999 64.709 176.789 64.9156C177.017 64.1941 177.051 63.4333 176.889 62.6973C176.719 62.0303 177.05 61.2762 177.183 60.5658C177.579 58.4207 178.017 56.2791 178.406 54.1343C178.506 53.5804 178.708 53.1768 179.355 52.9765C179.755 52.8301 180.142 52.6562 180.513 52.4562C180.59 52.4195 180.7 52.3929 180.704 52.2927C180.707 52.1926 180.597 52.186 180.52 52.166C180.046 52.0627 179.559 52.019 179.072 52.0361C178.976 52.0361 178.836 52.0995 178.8 51.9959C178.763 51.8926 178.892 51.7959 178.98 51.7291C179.362 51.442 179.806 51.2329 180.285 51.1153C181.697 50.7015 183.172 50.4946 184.655 50.5016C185.109 50.4965 185.555 50.6125 185.938 50.8349C186.096 50.9385 186.199 51.0386 185.89 51.1686C185.581 51.2988 185.607 51.4588 185.805 51.6191C186.177 51.8767 186.501 52.1863 186.765 52.5364C186.82 52.6163 186.849 52.7531 186.993 52.7164C187.136 52.6796 187.143 52.5462 187.173 52.4394C187.206 52.3064 187.232 52.1717 187.25 52.0361C187.541 52.4806 187.776 52.954 187.949 53.447C188.051 53.7138 188.132 53.9908 188.235 54.2544C188.268 54.3409 188.235 54.511 188.401 54.4746C188.566 54.4378 188.537 54.2978 188.566 54.1977C188.64 53.9474 188.695 53.6974 188.783 53.3469C189.22 54.0408 189.591 54.6112 189.213 55.4451H189.198ZM198.6 50.5516C198.159 49.078 197.439 47.6851 196.472 46.4351C196.399 46.3416 196.207 46.2282 196.516 46.1014C196.641 46.0549 196.711 45.8045 196.884 46.0213C197.862 47.2725 198.667 48.5967 198.63 50.3013C198.643 50.3843 198.643 50.4686 198.63 50.5516H198.6Z" fill="white"/>
<path d="M21.3186 108.875C21.2855 106.474 19.2493 104.793 16.6101 105.086C13.519 105.42 10.4277 105.773 7.33655 106.127C5.05765 106.387 3.19045 107.438 1.68344 109.176C0.93767 110.099 0.389116 111.141 0.0661604 112.248L0 116.675L0.143349 117.158C1.09533 120.514 4.22329 122.496 8.14886 122.119C10.9129 121.859 13.6843 121.539 16.4521 121.198C17.5891 121.07 18.6518 120.617 19.4873 119.905C20.3228 119.194 20.8881 118.26 21.1017 117.239C21.2124 116.666 21.2629 116.085 21.2525 115.504C21.2414 113.296 21.3186 111.084 21.3186 108.875Z" fill="white"/>
<path d="M236.978 87.563C236.459 87.006 235.618 86.799 234.596 86.7392C225.689 86.1964 216.784 85.6482 207.882 85.0944C205.72 84.9645 203.585 84.761 201.383 84.7376C200.736 84.7376 200.148 85.1444 200.141 85.5716L199.891 98.8848C199.891 99.5521 200.824 99.9558 201.809 99.6722H201.831L204.405 98.9184L234.427 90.165C235.504 89.8513 236.456 89.4746 237 88.7274C236.989 88.307 236.985 87.9768 236.978 87.563Z" fill="white"/>
<path d="M194.143 85.121C187.074 85.8982 165.653 88.3101 157.967 89.164L157.618 89.2008C157.453 89.2008 157.324 89.2008 157.361 88.9907C157.39 88.844 157.361 88.7173 157.177 88.7071C156.993 88.697 156.927 88.8104 156.879 88.9305C156.703 89.3776 156.357 89.421 155.942 89.4144C155.527 89.4077 155.703 89.0642 155.688 88.8805C155.633 88.1568 155.46 87.4394 155.629 86.6891C155.997 85.0209 156.383 83.353 156.82 81.685C157.434 79.3501 158.11 77.0149 158.507 74.68C158.768 73.1522 158.956 71.6275 159.279 70.1097C159.566 68.9672 159.743 67.804 159.809 66.6339C159.834 65.5097 159.764 64.3921 159.702 63.2812C159.639 62.1703 159.68 61.0896 159.389 60.0221C158.879 58.1675 158.72 56.2027 158.151 54.3513C156.784 49.9645 153.564 47.5827 148.55 47.1423C146.444 46.9557 144.309 47.269 142.173 47.7427C140.625 48.0368 139.161 48.6207 137.876 49.4575C135.733 50.9385 133.598 52.4331 131.506 53.9841C131.328 54.101 131.177 54.2484 131.061 54.4179C130.694 55.0117 130.584 55.0484 129.977 54.7816C129.647 54.5887 129.302 54.4182 128.944 54.2712C128.786 54.3913 128.974 54.518 128.827 54.6413L127.312 54.1245C127.022 54.0275 126.724 53.8976 126.493 54.3111C126.473 54.3409 126.444 54.364 126.409 54.3773C126.374 54.3903 126.335 54.3929 126.298 54.3846C125.475 54.2946 124.728 54.6882 123.986 54.9984C122.211 55.7423 120.49 56.6428 118.641 57.1834L118.524 57.2334C116.431 58.3513 114.462 59.6495 112.643 61.1095C111.981 61.6434 111.301 62.1504 110.61 62.6409C109.533 63.3982 109.438 63.5883 109.361 62.9745C109.32 62.7008 109.272 62.4273 109.239 62.1539C109.06 61.1561 109.096 60.1365 109.346 59.1514C109.449 58.7978 109.614 58.5411 110.081 58.5211C110.423 58.5211 110.555 58.3076 110.467 58.0072C110.432 57.882 110.403 57.755 110.383 57.627C110.324 57.3168 110.096 57.2468 109.772 57.3269C109.524 57.3906 109.297 57.5094 109.112 57.6726C108.926 57.8355 108.788 58.0376 108.71 58.2607C108.406 59.0158 108.316 59.8278 108.449 60.6225C108.581 61.6235 108.754 62.6507 108.916 63.6615C108.953 63.8852 108.942 64.1586 108.673 64.2118C108.405 64.2654 108.361 64.362 108.306 64.5455C108.232 64.8392 107.938 64.8325 107.729 64.8791C107.519 64.9257 107.567 64.709 107.534 64.6088C107.219 63.5002 107.149 62.3462 107.328 61.2131C106.931 60.4257 106.538 59.6418 106.137 58.8545C106.106 58.7699 106.045 58.697 105.964 58.6463C105.884 58.5959 105.787 58.5706 105.689 58.5744C105.402 58.5988 105.132 58.7113 104.925 58.8931C104.718 59.075 104.586 59.3155 104.549 59.575C104.505 59.9622 104.468 60.3557 104.424 60.7461C104.373 61.1963 104.31 61.6501 104.255 62.0804C104.181 61.9308 104.157 61.7651 104.185 61.6035C104.321 60.6894 103.906 59.9555 103.619 59.1815C103.575 59.0649 103.465 59.018 103.358 58.9581C103.102 58.7654 102.911 58.5097 102.811 58.2217C102.711 57.9334 102.704 57.6251 102.792 57.3336C102.84 57.2135 102.917 57.0867 102.814 56.9999C102.616 56.813 102.281 56.9999 102.057 57.0633C101.774 57.4834 101.502 57.9039 101.223 58.3275C101.164 58.421 101.109 58.5943 100.998 58.5642C100.48 58.4343 100.723 58.7813 100.726 58.8979C100.726 59.1083 100.826 59.305 100.837 59.5151C100.837 59.7819 101.013 60.0221 100.873 60.3456C100.583 60.2055 100.793 59.7987 100.462 59.6951C100.274 60.1513 100.274 60.6536 100.462 61.1095C100.486 61.1859 100.486 61.2664 100.462 61.3424C100.438 61.4185 100.391 61.4869 100.326 61.5398C100.069 61.7366 99.8753 61.9935 99.7678 62.2831C99.6603 62.5724 99.6422 62.8833 99.7158 63.1811C99.7599 63.3814 99.7892 63.5914 99.8262 63.7983C99.2416 62.7977 98.3336 62.0369 97.7933 61.0328C97.7603 60.973 97.7273 60.8728 97.6133 60.9162C97.4993 60.9596 97.514 61.0528 97.5067 61.133V61.5766C97.5067 63.0845 97.5067 64.599 97.5323 66.1101C97.5447 66.8389 97.6048 67.566 97.7126 68.2885C98.0676 70.4057 98.236 72.5451 98.2163 74.6867C98.2163 77.0384 98.2163 79.3967 98.2676 81.7417C98.2834 83.6885 98.1234 85.6333 97.7897 87.5563C97.3707 90.2249 96.882 92.8703 96.4261 95.5255C96.4294 95.5955 96.4176 95.6652 96.3908 95.7308C96.364 95.7964 96.3231 95.8566 96.2703 95.9076C96.2175 95.9586 96.1541 95.9995 96.0835 96.0277C96.0133 96.0562 95.9371 96.0714 95.8601 96.0727C94.9521 96.1529 94.0222 96.2663 93.1329 96.3661C92.6036 96.4197 92.5703 96.3661 92.7652 95.8893C92.9723 95.5512 93.0742 95.1684 93.0592 94.7819C92.9458 94.1301 92.8747 93.4729 92.8459 92.8136C92.7506 91.9463 92.6623 91.0588 92.1843 90.3383C91.7066 89.6178 91.817 88.794 91.817 87.9733C91.817 87.6831 91.839 87.3894 91.817 87.0959C91.791 86.3922 91.5154 85.705 91.9933 84.961C92.0926 84.7503 92.1107 84.5152 92.0447 84.2937C91.8319 83.3707 91.7724 82.4239 91.8683 81.4851C92.1287 79.4759 92.1558 77.4478 91.9493 75.4338C91.8387 74.693 91.9089 73.9389 92.155 73.2254L92.7579 74.2063C92.8239 74.3061 92.8496 74.5032 93.0189 74.4563C93.1879 74.4098 93.1659 74.2263 93.1806 74.0894C93.3606 72.2346 93.5482 70.3734 93.7172 68.5118C93.8679 66.9773 94.0848 65.4361 94.1619 63.9051C94.2428 62.4739 94.6838 61.0097 94.4118 59.6086C94.3969 59.486 94.4121 59.3618 94.4558 59.2448C94.5035 59.1057 94.5137 58.9584 94.4855 58.8152C94.4575 58.6716 94.3918 58.5367 94.2942 58.421C94.0369 58.1472 94.0848 57.8938 94.2942 57.5535C94.8088 56.703 95.0771 55.8355 94.5955 55.0015C94.5679 54.9537 94.5535 54.9005 94.5535 54.8466C94.5535 54.7924 94.5679 54.7392 94.5955 54.6913C94.8308 54.3079 94.6985 53.8441 95.0735 53.4838C95.1361 53.4271 95.1211 53.3038 95.1285 53.2069C95.2783 51.5602 95.5486 49.9243 95.9374 48.3099C96.1541 47.269 96.382 46.2317 96.2204 45.2111C96.1724 44.8774 96.0327 44.7339 95.6541 44.8774C95.3528 44.9807 95.2535 44.8774 95.2498 44.6106C95.2382 44.2165 95.2839 43.8226 95.3858 43.4395C95.4851 43.0828 95.3528 43.0026 95.0184 43.0695C94.6838 43.136 94.3605 43.1059 94.2832 42.7523C94.1864 42.405 94.2445 42.0372 94.4448 41.7282C94.5712 41.5277 94.6793 41.3179 94.7685 41.1012C94.9073 40.8908 94.9533 40.6405 94.8971 40.4006C94.8051 40.1772 94.4928 40.2973 94.2282 40.187C94.4409 40.0483 94.6175 39.868 94.7445 39.6598C94.8717 39.4516 94.9462 39.2203 94.9631 38.983C95.2904 37.0683 95.6468 35.1535 95.9411 33.2384C96.0438 32.5515 96.474 31.9042 96.4371 31.1904C96.4653 31.0797 96.5262 30.9782 96.6137 30.8968C97.3487 29.9794 97.4003 28.7252 96.6834 27.9913C96.5474 27.8545 96.5474 27.7744 96.6834 27.6344C97.1977 27.138 97.5278 26.5082 97.628 25.833C97.7152 25.1561 97.9341 24.4987 98.2749 23.8915C98.3853 23.7247 98.3412 23.6013 98.1756 23.5312C98.03 23.4533 97.9127 23.3387 97.8376 23.2013C97.7626 23.0639 97.7332 22.9096 97.753 22.7573C97.742 22.3623 97.6977 21.9687 97.6206 21.5798C97.5876 21.413 97.5177 21.2662 97.3046 21.2462C96.937 21.2462 96.915 21.6098 96.7827 21.8233C96.6097 22.1298 96.4929 22.46 96.4371 22.8007C96.3383 23.3709 96.0031 23.8853 95.4998 24.2384C95.3677 24.3096 95.2681 24.4217 95.2196 24.554C95.1711 24.6863 95.1764 24.8301 95.2351 24.959C95.3048 25.1305 95.335 25.3131 95.3234 25.4956C95.3122 25.6781 95.2597 25.8565 95.1691 26.0198C94.7685 26.8515 94.2902 27.6506 93.7392 28.4083C93.6326 28.535 93.5482 28.7052 93.3056 28.7419C93.4009 28.4627 93.533 28.195 93.6989 27.9446C94.0075 27.2107 93.9525 26.4901 93.9488 25.7696C93.9127 25.2846 94.0549 24.8024 94.3531 24.3985C94.5625 24.135 94.5918 23.8548 94.3348 23.6747C93.8275 23.3144 93.9192 22.8641 94.1619 22.3203C94.6325 21.2795 95.0625 20.2288 95.4814 19.1746C95.6911 18.6476 95.6211 18.1739 95.1508 17.8636C94.8712 17.6402 94.6985 17.3267 94.6692 16.9896C94.6249 16.7851 94.6325 16.574 94.6912 16.3725C95.0472 14.9447 95.7799 13.6168 96.8267 12.5029C97.0208 12.3346 97.1605 12.1212 97.2304 11.886C97.3004 11.6508 97.2982 11.4027 97.2237 11.1686C96.2387 10.9017 95.8454 11.3087 95.5477 11.8591C94.9265 13.1336 94.1243 14.329 93.1622 15.4151C92.2111 16.4051 91.4496 17.5326 90.909 18.751C90.7584 19.0612 90.5894 19.3648 90.4054 19.6617C90.3394 19.7684 90.2841 19.9252 90.1151 19.8785C89.9461 19.8318 90.0268 19.6983 90.0451 19.5983C90.1004 19.1813 90.1887 18.761 90.2254 18.344C90.2621 17.867 90.1997 17.8369 89.6778 17.9704C89.5674 18.0004 89.4424 18.0938 89.3505 18.0004C89.2588 17.907 89.3761 17.7736 89.4278 17.6668C89.6662 17.2015 89.8225 16.7051 89.8908 16.1957C89.9607 15.7287 89.6114 15.7153 88.9868 16.1957C88.9016 16.2595 88.8327 16.3391 88.7845 16.4292C87.3509 19.0178 85.7926 21.5598 84.44 24.1751C84.299 24.4597 84.124 24.7293 83.9181 24.979C83.8554 25.0457 83.8041 25.1425 83.7048 25.1258C83.6055 25.1091 83.6201 25.009 83.6128 24.9323C83.6215 24.6269 83.6043 24.3213 83.5614 24.0183C83.5614 23.9149 83.6128 23.7314 83.4218 23.7481C83.2305 23.7647 83.2268 23.9249 83.1865 24.0383C83.0101 24.5187 82.8375 24.9957 82.6829 25.4727C82.438 26.4139 82.0675 27.3246 81.5802 28.1848C81.0174 29.0481 80.7062 30.0274 80.676 31.0302C80.6133 32.4016 80.1941 33.7403 79.452 34.9365C79.1129 35.5138 78.8573 36.1281 78.6911 36.7647C78.4597 37.6085 78.1988 38.4526 77.9561 39.2932C77.8599 39.0644 77.8173 38.8198 77.8306 38.5752C77.8438 38.3306 77.9129 38.0914 78.0334 37.8721C78.6067 36.798 78.5184 35.677 78.8014 34.5797C78.8051 34.5398 78.8051 34.4995 78.8014 34.4596C78.8014 34.2761 78.7097 34.2593 78.5624 34.3994C78.5001 34.4596 78.4487 34.5363 78.3861 34.5996C78.0628 34.9333 77.8641 34.9333 77.7061 34.573C77.6105 34.356 77.5078 34.3927 77.3901 34.573C77.1396 34.9197 76.8685 35.2536 76.5778 35.5737C76.3346 35.8515 76.1775 36.1833 76.1219 36.5344C76.0358 37.0153 75.8618 37.4798 75.6073 37.9089C75.357 38.2923 75.2368 38.7346 75.2619 39.1798C75.4676 40.5375 75.023 41.8483 74.2657 43.0926C73.8882 43.719 73.6182 44.3939 73.4644 45.0942C73.2889 46.045 73.0595 46.987 72.7771 47.9164C72.346 49.2845 72.0833 50.692 71.9941 52.1128C71.9208 53.0003 71.9611 53.8808 71.8141 54.7816C71.6158 56.0326 71.2555 57.2867 71.2555 58.5443C71.2259 58.9011 71.1378 59.2518 70.9945 59.5851C70.6269 60.5858 70.4395 61.5632 70.7262 62.5306C70.8977 63.2267 70.8814 63.9501 70.6782 64.6389C70.5829 65.0125 70.4652 64.9726 70.2446 64.7825C68.701 63.5116 67.1901 62.2106 65.7272 60.8595C64.6762 59.8922 63.6579 58.9014 62.6213 57.9239C62.537 57.8472 62.412 57.6238 62.2797 57.8938C62.1214 58.2274 62.0113 58.024 61.912 57.9372C61.2699 57.3969 60.6342 56.8475 60.0045 56.2892C59.882 56.1831 59.7841 56.056 59.7164 55.915C59.649 55.774 59.6131 55.6222 59.6112 55.4686C59.5643 54.6213 59.1834 53.8174 58.5379 53.2037C57.7696 53.3406 57.483 52.9236 57.1447 52.5364C56.9353 52.2829 56.777 51.9626 56.3507 51.9262C56.0313 51.8865 55.7413 51.7357 55.5421 51.5057C55.0901 51.0488 54.6638 50.5649 54.1712 50.148C52.8042 49.0311 51.5721 47.7855 50.4954 46.4319C49.8044 45.5311 48.9701 44.7206 48.6062 43.6198C48.4817 43.1804 48.1903 42.7951 47.7829 42.5324C47.4962 42.3556 47.2206 42.1686 46.9522 41.9817C46.3688 41.611 45.9114 41.0989 45.6327 40.5042C45.4679 40.1085 45.2803 39.7209 45.0703 39.3433C44.7027 38.676 44.3351 37.8252 43.6258 37.3417C43.1741 37.6614 42.8197 38.0803 42.5965 38.5594C42.4348 38.8762 42.2658 39.1164 41.8172 38.9428C42.0525 39.3965 41.7695 40.1205 42.6075 40.1804C42.6481 40.1804 42.6958 40.2472 42.6958 40.2907C42.7539 40.8258 43.0307 41.322 43.4714 41.6816C43.6221 41.8283 43.7581 42.0318 43.5485 42.2555C43.0488 42.7859 43.1295 43.2894 43.3318 43.8099C43.8391 45.1442 44.3241 46.4585 44.835 47.7728C44.9019 47.9107 44.9205 48.0637 44.8892 48.2117C44.8576 48.3593 44.7772 48.4949 44.6587 48.6001C44.5396 48.7082 44.4544 48.8428 44.4118 48.9908C44.3692 49.1385 44.3706 49.2937 44.4161 49.4408C44.4358 49.5174 44.4479 49.5957 44.4527 49.6743C44.4711 49.9845 44.2101 50.0079 43.9751 50.0846C43.7398 50.1613 43.7177 49.9645 43.7104 49.8077C43.6698 49.4689 43.7178 49.1261 43.8501 48.807C44.0007 48.4734 43.7874 48.3232 43.5597 48.1632C43.2691 47.9696 43.0488 48.1065 42.7585 48.4734C42.3925 48.3435 42.0001 48.2864 41.6079 48.3067C41.4468 48.3311 41.2814 48.3181 41.1271 48.2693C40.9731 48.2202 40.8348 48.1369 40.7256 48.0263C40.5744 47.8584 40.3631 47.743 40.1286 47.7006C39.8939 47.6578 39.6504 47.6904 39.4393 47.7928C39.285 47.853 39.1451 47.8597 39.0717 47.7063C38.932 47.3993 38.7041 47.4861 38.4394 47.6527C37.8808 47.9864 37.8478 47.9864 37.7044 47.4192C37.4178 46.2817 37.1935 45.1243 36.9692 43.9633C36.9472 43.8467 36.9472 43.7133 36.7892 43.6899C36.6312 43.6664 36.5428 43.7798 36.4545 43.88C35.9952 44.3904 35.5319 44.8806 35.0799 45.4145C35.0362 45.4617 35.006 45.5178 34.9916 45.578C34.7859 46.5352 34.5506 47.4826 34.3596 48.4401C33.992 50.238 33.6244 52.0294 32.6797 53.7373C32.4741 54.1543 32.228 54.5541 31.9448 54.9315C31.9044 54.5573 32.0068 54.1815 32.2351 53.8675C32.4532 53.5412 32.5928 53.1765 32.6448 52.7975C32.6967 52.4189 32.6597 52.0342 32.5364 51.6692C32.2754 50.9319 32.0475 50.1914 32.4518 49.334C32.4983 49.2034 32.5232 49.0675 32.5254 48.9303C32.5452 48.8619 32.535 48.7893 32.4975 48.7272C32.46 48.6651 32.3976 48.6185 32.3231 48.597C32.283 48.5903 32.2421 48.5903 32.2021 48.597C32.0875 48.5754 31.9687 48.5948 31.8694 48.6505C31.7704 48.7063 31.6984 48.7947 31.6691 48.897C31.6288 49.0691 31.6101 49.2449 31.6138 49.4208C31.6276 49.8875 31.5004 50.3492 31.2462 50.7551C31.1212 50.935 31.0222 51.1293 30.9522 51.3324C30.4762 52.8792 30.1103 54.4527 29.8569 56.0424C29.7686 56.7731 29.7943 57.5037 29.5372 58.2242C28.8316 60.1561 28.416 62.1659 28.302 64.1985C28.3209 64.3256 28.3009 64.4552 28.2444 64.5727C28.1883 64.6903 28.0975 64.7917 27.9823 64.8658C27.5008 65.1126 27.4714 65.4495 27.5265 65.85C27.7356 67.0546 27.707 68.2837 27.442 69.4792C26.8392 71.8946 26.6297 74.3296 26.0747 76.7548C25.9826 77.0799 26.0163 77.4237 26.1702 77.7288C26.2289 77.8419 26.2615 77.9649 26.2659 78.09C26.2704 78.2152 26.2465 78.3397 26.196 78.456C25.7991 79.583 25.5343 80.7446 25.4057 81.922C25.3028 83.0294 25.3138 84.1235 25.2329 85.2278C25.0528 87.6463 24.9426 90.0582 24.8286 92.4733C24.7588 93.9244 24.7367 95.3722 24.7992 96.81C24.9132 99.4253 24.7551 102.07 24.7992 104.689C24.836 106.491 24.7331 108.309 24.7809 110.11C24.8176 111.564 24.7514 113.032 24.722 114.493C24.722 114.874 24.6706 115.251 25.0896 115.457C25.2146 115.524 25.2146 115.707 25.2366 115.851C25.4094 117.005 25.5638 118.169 25.7733 119.314C26.0195 120.671 26.1408 122.026 25.6961 123.457C25.5527 123.904 25.5748 124.381 25.3984 124.814C25.8394 124.888 26.3136 124.911 26.7583 125.011C26.998 125.075 27.2015 125.22 27.3266 125.417C27.4518 125.613 27.4892 125.845 27.431 126.065C27.3552 126.326 27.356 126.6 27.4335 126.859C27.5108 127.119 27.6621 127.356 27.8721 127.546C28.012 127.671 28.1183 127.823 28.1821 127.991C28.2459 128.159 28.2656 128.338 28.2397 128.514C28.1931 129.618 28.2459 130.723 28.3977 131.82C28.5336 132.82 28.5703 133.538 29.5776 133.661C30.0885 133.721 30.3752 133.661 30.6068 133.164C30.7936 132.699 30.9014 132.211 30.9265 131.716C30.9268 131.421 31.0473 131.136 31.2645 130.916C31.4851 130.722 31.6065 130.549 31.4375 130.319C31.409 130.277 31.3974 130.228 31.4047 130.18C31.4121 130.132 31.438 130.088 31.4778 130.055C31.4973 130.037 31.5207 130.022 31.5467 130.012C31.5726 130.002 31.6005 129.997 31.6285 129.997C31.6567 129.997 31.6846 130.002 31.7103 130.012C31.7363 130.022 31.7597 130.037 31.7791 130.055C32.0429 130.267 32.217 130.556 32.2718 130.872C32.3857 131.379 32.3564 131.92 32.5181 132.42C32.5432 132.571 32.5339 132.726 32.491 132.874C32.4478 133.022 32.3722 133.16 32.2681 133.281C32.0071 133.674 31.7498 134.068 31.4595 134.442C31.2535 134.716 31.1398 135.038 31.1322 135.369C31.089 135.959 30.9807 136.543 30.8089 137.114C30.5845 137.994 30.5442 138.882 31.3235 139.516C31.8666 139.907 32.2907 140.418 32.5548 141L33.6097 140.883C33.7838 140.048 34.0792 139.239 34.4883 138.475C34.8632 137.793 35.0466 137.038 35.0212 136.276C34.9558 135.629 35.1084 134.979 35.4586 134.412C35.489 134.384 35.513 134.351 35.5297 134.315C35.546 134.279 35.5545 134.241 35.5545 134.202C35.5545 134.162 35.546 134.124 35.5297 134.088C35.513 134.052 35.489 134.019 35.4586 133.991C35.4233 133.96 35.3804 133.937 35.3336 133.925C35.2162 133.868 35.1132 133.79 35.0317 133.696C34.9499 133.601 34.8912 133.491 34.8593 133.374C34.4965 132.409 34.2005 131.424 33.9737 130.425C33.9437 130.267 33.9339 130.106 33.9443 129.945C33.9443 129.675 34.1867 129.538 34.4403 129.645C34.7952 129.785 35.135 129.954 35.4549 130.152C36.1899 130.622 37.2928 130.218 37.7998 129.715C38.1133 129.396 38.37 129.035 38.5607 128.644C38.6386 128.458 38.7582 128.288 38.912 128.146C39.0658 128.003 39.2503 127.891 39.454 127.817C40.3803 127.533 40.3839 127.537 40.3876 126.683C40.3876 126.389 40.325 126.105 40.314 125.819C41.0557 125.177 41.6612 124.417 42.1005 123.577C42.1592 123.45 42.3282 123.34 42.3982 123.503C42.6481 124.081 43.1995 123.93 43.7251 123.864C44.3571 123.78 44.4601 123.687 44.4934 123.097C44.5337 122.429 44.5704 121.779 44.5924 121.122C44.6514 119.387 44.9307 117.626 44.5924 115.938C44.4866 115.316 44.5368 114.681 44.7394 114.079C44.9561 113.376 45.0892 112.654 45.1364 111.925C45.2834 110.147 45.39 108.372 45.504 106.587C45.574 105.657 45.6437 104.729 45.7173 103.799C45.7179 103.681 45.7472 103.566 45.8033 103.46C45.8592 103.355 45.9402 103.262 46.0406 103.188C46.1253 103.618 46.2023 104.002 46.2759 104.386C46.4859 105.735 46.7866 107.072 47.1765 108.389C47.2976 108.779 47.5222 109.136 47.8306 109.429C48.2202 109.763 48.4041 109.64 48.7791 108.959C48.8576 108.805 48.9588 108.661 49.0804 108.532C49.2638 108.387 49.3869 108.19 49.4289 107.972C49.4712 107.755 49.4297 107.531 49.3121 107.338C48.62 106.026 48.1254 104.636 47.8418 103.205C47.0736 99.9022 47.0036 96.4596 47.0036 93.0138C47.0036 90.4552 47.0699 87.8931 47.0036 85.3412C46.9994 85.1841 46.9785 85.0278 46.9412 84.8742C46.9328 84.845 46.9156 84.8181 46.8916 84.7972C46.8676 84.7759 46.8377 84.761 46.8052 84.7541C46.7316 84.7541 46.6839 84.8308 46.6582 84.8941C46.5911 85.1086 46.4746 85.3076 46.3163 85.4781C46.184 85.358 46.2393 85.2113 46.2356 85.0846C46.2175 82.9692 46.5409 80.8631 47.1949 78.833C48.0292 76.0609 49.2274 73.3588 50.1867 70.6101C50.2124 70.5334 50.2234 70.4301 50.3227 70.4133C50.422 70.3965 50.5067 70.5134 50.569 70.5901C51.304 71.4624 52.0892 72.2986 52.9215 73.0955C53.9358 74.0961 54.8071 75.207 56.0714 75.9741C56.992 76.5162 57.7205 77.2874 58.1703 78.1958C58.9642 78.6363 59.5155 79.2966 60.1182 79.9138C60.6218 80.4274 61.0961 80.968 61.8017 81.2681C62.0729 81.3885 62.3093 81.5643 62.4927 81.782C63.713 83.0896 64.8379 84.4908 66.4148 85.4813C66.6317 85.9911 66.9946 86.4388 67.4657 86.7791C68.7303 87.863 70.0389 88.9207 71.2149 90.0817C71.5199 90.3516 71.6965 90.7192 71.7075 91.1057C71.7075 92.1231 71.7405 93.1339 71.7295 94.1513C71.7075 95.6456 71.7038 97.1335 72.1191 98.5511L57.9056 100.129C56.7872 100.278 55.761 100.777 55.0049 101.54C54.2485 102.302 53.8094 103.28 53.7632 104.306L53.5682 114.56C53.5488 114.911 53.6151 115.26 53.7629 115.585C53.9107 115.909 54.1362 116.199 54.4231 116.435C54.7098 116.67 55.0506 116.845 55.4211 116.945C55.7912 117.047 56.1817 117.072 56.564 117.019C76.2396 114.847 184.759 102.881 194.819 101.747C195.16 101.703 195.473 101.551 195.703 101.319C195.933 101.087 196.067 100.788 196.08 100.476L196.333 86.9391C196.342 86.7062 196.3 86.474 196.21 86.256C196.12 86.0376 195.983 85.8377 195.807 85.6676C195.632 85.4974 195.421 85.3605 195.187 85.2645C194.953 85.1682 194.701 85.115 194.444 85.1077C194.343 85.1048 194.243 85.1093 194.143 85.121ZM59.9822 62.594C59.9283 62.62 59.8648 62.6253 59.8064 62.6092C59.7477 62.593 59.6986 62.5563 59.6698 62.5075V62.4872C59.4532 62.1383 59.197 61.8107 58.9052 61.51C58.1703 60.7828 57.266 60.2556 56.5347 59.5319H56.5124C55.0754 59.1247 54.4321 57.9172 53.4949 57.0132C52.6309 56.1793 51.8333 55.2886 51.0064 54.4214C50.7564 54.1682 50.5541 53.8799 50.4074 53.5671C50.3521 53.4768 50.3323 53.372 50.3518 53.2699C50.3713 53.1682 50.4285 53.0754 50.514 53.0069C50.7124 52.8533 50.841 53.0069 50.9697 53.0934C51.7856 53.564 52.2783 54.3279 52.9472 54.935C55.1048 56.8798 57.064 59.0081 59.3169 60.8662C59.7305 61.3028 60.0016 61.8351 60.0998 62.4039C60.1103 62.4438 60.1035 62.4856 60.0809 62.5208C60.0584 62.5563 60.0217 62.5826 59.9785 62.594H59.9822ZM63.011 68.3851C62.9495 68.3274 62.9128 68.2514 62.9083 68.1709C62.9035 68.0907 62.9309 68.0115 62.9853 67.9482C63.0956 67.8113 63.228 67.708 63.283 67.9282C63.4483 68.5952 63.9079 69.0489 64.2423 69.6227C63.8306 69.2058 63.419 68.7989 63.011 68.3851ZM67.2344 69.9662C66.7784 69.6094 66.3778 69.1924 65.9038 68.8521C63.9556 67.4577 62.5737 65.5965 61.1254 63.7917C60.9564 63.5816 60.7948 63.3614 60.6291 63.1443C60.5041 62.9812 60.4124 62.811 60.6291 62.6073C60.8461 62.4039 61.0408 62.5407 61.1914 62.6707C62.2819 63.618 63.3687 64.5677 64.4519 65.5195C65.1197 66.08 65.7176 66.7052 66.2345 67.3845C66.373 67.5597 66.496 67.7451 66.6021 67.938C66.7564 68.2384 66.8484 68.5553 67.3924 68.3651C67.6497 68.2717 67.8444 68.5153 67.9364 68.6988C68.2859 69.3458 68.7879 69.9152 69.4066 70.3667C69.4881 70.4358 69.5457 70.5251 69.5719 70.6234C69.6676 71.0939 69.7486 71.5707 69.8219 72.0045C68.9583 71.3141 68.087 70.6703 67.2491 69.9763L67.2344 69.9662ZM92.9416 51.1188C93.0361 50.1499 93.2483 49.1933 93.5739 48.2665C93.6438 48.1496 93.6785 48.0178 93.674 47.8847C93.6695 47.7516 93.6261 47.622 93.5482 47.5092C93.4872 47.4319 93.4545 47.3394 93.4545 47.244C93.4545 47.1489 93.4872 47.0564 93.5482 46.9788C93.7319 46.6987 93.9155 46.4218 94.1252 46.1518C94.1839 46.065 94.2612 45.9848 94.3788 46.0083C94.4039 46.013 94.4279 46.0222 94.4491 46.0352C94.4702 46.0485 94.4883 46.0653 94.5024 46.085C94.5162 46.1043 94.5258 46.1261 94.5306 46.1493C94.5351 46.1721 94.5348 46.1955 94.5295 46.2183C94.5309 46.2307 94.5309 46.2427 94.5295 46.2551C94.3495 46.8289 94.4008 47.4458 93.9488 47.9829C93.8755 48.0697 93.8269 48.1711 93.8072 48.2788C93.7872 48.3863 93.7968 48.4968 93.8349 48.6001C93.9277 48.8574 93.9737 49.1267 93.9708 49.3973C93.9429 50.006 93.8114 50.6068 93.5812 51.1787C93.5002 51.3989 93.3276 51.5858 93.0959 51.5557C92.8646 51.5256 92.9306 51.2823 92.9563 51.1153L92.9416 51.1188ZM92.3166 53.8542C92.4123 53.6074 92.4786 53.3504 92.574 53.1036C92.6366 52.9436 92.5446 52.6733 92.8792 52.6799C93.1512 52.6799 93.3056 52.8333 93.2909 53.1137C93.2598 53.3083 93.1865 53.4952 93.0748 53.6635C92.963 53.832 92.8152 53.9784 92.6403 54.0944C92.6225 54.1105 92.6013 54.1235 92.5779 54.1324C92.5545 54.1413 92.5297 54.146 92.5043 54.146C92.4789 54.146 92.4538 54.1413 92.4306 54.1324C92.4072 54.1235 92.386 54.1105 92.3683 54.0944C92.3344 54.0627 92.3116 54.0228 92.3031 53.9794C92.2946 53.936 92.3006 53.891 92.3203 53.8507L92.3166 53.8542ZM124.688 75.2203C123.773 79.1432 122.604 83.0329 121.406 86.9157C121.391 86.9996 121.358 87.0798 121.31 87.1527C120.671 87.8032 120.777 88.5471 120.682 89.2642C120.626 89.6545 120.601 90.0449 120.564 90.4384C120.574 90.5363 120.556 90.6346 120.512 90.7242C120.467 90.8139 120.398 90.8912 120.31 90.9489C120.064 91.0655 120.031 90.8022 119.888 90.722L119.752 90.6418C119.605 90.8155 119.715 90.9387 119.752 91.069C119.889 91.5126 119.946 91.9733 119.921 92.4333C119.899 92.6995 119.796 92.9546 119.623 93.1707C119.52 93.2974 119.413 93.3874 119.285 93.2137C119.156 93.0404 118.917 93.0705 118.722 93.234C118.424 93.4751 118.047 93.6215 117.649 93.651C113.728 94.08 109.802 94.5147 105.869 94.9552C105.501 94.9951 105.45 94.8886 105.52 94.5816C106.255 91.4124 106.582 88.2436 106.953 85.0744C107.196 82.9993 107.471 80.9214 107.736 78.8432C107.751 78.7209 107.783 78.6008 107.832 78.4861C107.923 78.2925 108.015 78.039 108.24 77.9991C108.464 77.9592 108.445 78.2225 108.534 78.3558C108.57 78.416 108.578 78.526 108.695 78.4962C108.813 78.4661 108.806 78.3695 108.839 78.2925C109.012 77.8571 109.227 77.436 109.482 77.0349C109.647 77.3685 109.552 77.7022 109.725 77.9991C109.952 77.719 109.886 77.4253 109.956 77.1585C110.122 76.4912 110.254 75.8242 110.39 75.1803C110.514 74.5134 110.835 73.8895 111.32 73.3756C111.864 72.8017 112.345 72.1813 112.845 71.5774C113.088 71.2872 113.341 71.1005 113.72 71.2441C113.988 71.3474 114.212 71.1671 114.455 71.047C116.822 69.8864 118.7 68.105 120.726 66.5103C121.751 65.7033 121.828 65.733 122.067 66.8107C122.483 68.829 122.648 70.8835 122.56 72.9351C122.56 73.3756 122.446 73.8626 122.85 74.1895C122.96 74.2764 122.909 74.4665 122.891 74.6163C122.758 75.8007 122.619 76.9883 122.494 78.1759C122.475 78.3726 122.332 78.7161 122.571 78.7263C122.81 78.7364 122.78 78.3926 122.817 78.2126C123.214 76.3011 123.593 74.3898 123.894 72.4716C124.001 71.8043 123.861 71.1373 123.894 70.47C123.927 69.5058 123.938 68.5353 123.942 67.5746C123.942 67.3211 124.034 67.2077 124.309 67.2409C124.453 67.2609 124.526 67.3442 124.342 67.4412C124.034 67.6012 124.107 67.7913 124.162 68.0014C124.442 68.9757 124.732 69.9497 124.978 70.937C125.302 72.3249 125.026 73.7757 124.688 75.2171V75.2203ZM144.639 71.9877C143.414 76.6312 142.189 81.2747 140.964 85.9185C140.938 85.9971 140.92 86.0773 140.908 86.1587C140.908 86.2319 140.875 86.3288 140.978 86.3586C141.081 86.3887 141.111 86.2987 141.162 86.2487L141.225 86.1853C141.379 86.0617 141.489 85.7582 141.691 85.8517C141.893 85.9451 141.761 86.2721 141.691 86.4822C141.641 86.6492 141.569 86.8101 141.478 86.9625C141.118 87.5202 140.96 88.1669 141.026 88.8104C141.035 89.0731 140.97 89.3336 140.839 89.5677C140.739 89.7423 140.679 89.933 140.662 90.1289C140.644 90.3247 140.669 90.5218 140.736 90.7087C140.864 91.0056 140.699 91.0924 140.405 91.1257C137.781 91.408 135.159 91.6982 132.539 91.9964C132.15 92.0363 132.006 91.9197 132.036 91.5759C132.039 91.3446 132.069 91.1143 132.127 90.8887C132.297 90.3985 132.245 90.325 131.705 90.3152C131.922 90.0889 132.057 89.8079 132.093 89.5097C132.13 89.2116 132.065 88.9106 131.907 88.6469C131.701 88.2734 131.969 87.8298 132.227 87.4495C132.572 86.9426 132.944 86.4489 133.293 85.9385C133.554 85.5548 133.521 85.4746 133.08 85.4147C132.833 85.3846 132.741 85.2911 132.899 85.0811C133.267 84.564 133.454 83.9334 134.076 83.5665C134.121 83.5402 134.155 83.5012 134.174 83.4556C134.193 83.4097 134.194 83.3596 134.179 83.313C134.035 82.8961 134.307 82.5827 134.612 82.2756C134.681 82.2186 134.743 82.1549 134.796 82.0855C134.849 82.0241 134.873 81.9464 134.864 81.8691C134.854 81.7918 134.811 81.7208 134.744 81.6717C134.568 81.5485 134.465 81.6987 134.377 81.8387C134.195 82.1673 133.933 82.4544 133.613 82.6793C133.56 82.1727 133.602 81.6619 133.737 81.1682C133.98 79.5235 134.472 77.8888 134.785 76.2412C134.902 75.6071 134.961 74.9769 135.049 74.3397C135.053 74.1484 135.087 73.9586 135.149 73.7757C135.491 73.0685 135.355 72.3914 135.351 71.7041C135.351 71.4573 135.281 71.2507 134.983 71.2038C134.686 71.1573 134.766 71.0172 134.88 70.8702C135.343 70.2533 135.542 69.5359 135.983 68.9222C136.034 68.861 136.069 68.7904 136.087 68.7156C136.104 68.6405 136.102 68.5629 136.082 68.4884C135.961 68.1849 136.134 68.0217 136.417 67.8582C136.88 67.5778 137.339 67.2777 137.803 66.9875C137.913 66.914 138.067 66.8572 138.056 66.7105C138.045 66.5638 137.869 66.547 137.736 66.5271L137.145 66.427C137.34 66.2124 137.568 66.0236 137.821 65.8664C138.972 64.8965 140.34 64.1627 141.831 63.715C142.231 63.6155 142.641 63.5575 143.055 63.5414C143.441 63.5214 143.555 63.6916 143.423 64.0486C143.209 64.5515 142.923 65.0271 142.574 65.4628C142.316 65.8367 142.375 65.9501 142.816 65.9466C143.459 65.9466 143.684 65.7733 143.867 65.176C143.948 64.9393 143.963 64.5388 144.235 64.5322C144.507 64.5255 144.441 64.9257 144.441 65.1694C144.407 66.9536 144.272 68.7352 144.037 70.5068C143.992 70.867 143.963 71.2339 143.948 71.5942C143.948 71.6744 143.948 71.8043 144.059 71.8144C144.169 71.8242 144.228 71.7076 144.279 71.6275C144.459 71.3141 144.647 71.0039 144.812 70.6934L144.941 70.7168C144.856 71.1405 144.75 71.5641 144.639 71.9846V71.9877Z" fill="white"/>
</svg>
