<svg width="268" height="237" viewBox="0 0 268 237" fill="none" xmlns="http://www.w3.org/2000/svg">
<path d="M65.9649 160.209C61.241 156.493 55.2378 154.782 49.2568 155.447C43.2758 156.113 37.799 159.102 34.0137 163.766C32.146 166.077 30.757 168.735 29.9271 171.585C29.0972 174.436 28.8429 177.422 29.1789 180.371C29.5149 183.32 30.4346 186.173 31.8847 188.765C33.3348 191.357 35.2865 193.637 37.6267 195.472C41.6637 198.641 46.6518 200.367 51.7905 200.372C55.2038 200.384 58.5757 199.628 61.6553 198.161C64.735 196.694 67.443 194.553 69.5779 191.899C71.4444 189.588 72.8324 186.93 73.6617 184.081C74.4909 181.232 74.7449 178.247 74.4089 175.299C74.0729 172.351 73.1535 169.499 71.7041 166.907C70.2547 164.316 68.304 162.037 65.9649 160.203V160.209Z" stroke="#C5BA8F" stroke-width="5" stroke-miterlimit="10"/>
<path d="M157.145 107.272C161.856 107.274 166.451 105.819 170.295 103.106C174.14 100.393 177.045 96.5568 178.609 92.1275C179.593 89.3411 180.012 86.3871 179.839 83.4378C179.667 80.4886 178.907 77.6031 177.605 74.9495C174.956 69.5603 170.281 65.4312 164.595 63.4597C158.909 61.4882 152.672 61.8339 147.24 64.4215C144.55 65.691 142.139 67.4796 140.146 69.6837C138.153 71.8878 136.619 74.4638 135.631 77.2627C134.643 80.0616 134.221 83.028 134.39 85.9904C134.559 88.9528 135.316 91.8523 136.616 94.5215C138.507 98.3417 141.431 101.56 145.058 103.812C148.685 106.065 152.872 107.263 157.145 107.272Z" stroke="#C5BA8F" stroke-width="5" stroke-miterlimit="10"/>
<path d="M100.718 70.7425C102.383 71.1176 104.085 71.3078 105.792 71.3095C110.934 71.3407 115.933 69.6242 119.965 66.4429C123.997 63.2616 126.821 58.8055 127.971 53.8095C128.631 50.9138 128.711 47.9166 128.206 44.9901C127.701 42.0636 126.621 39.2653 125.028 36.7558C123.436 34.2463 121.362 32.075 118.925 30.3665C116.489 28.6581 113.738 27.446 110.83 26.8C109.154 26.4247 107.442 26.2369 105.725 26.24C100.586 26.2099 95.5901 27.9274 91.5622 31.1089C87.5343 34.2905 84.715 38.746 83.5697 43.74C82.897 46.6152 82.8054 49.5952 83.3003 52.506C83.7953 55.4169 84.8667 58.2003 86.4523 60.694C88.0405 63.2303 90.1202 65.4253 92.5697 67.1507C95.0192 68.8761 97.7893 70.0972 100.718 70.7425Z" stroke="#C5BA8F" stroke-width="5" stroke-miterlimit="10"/>
<path d="M59.515 83.6365C61.8527 81.7996 63.8019 79.519 65.25 76.9266C66.6981 74.3341 67.6164 71.4813 67.9517 68.5329C68.287 65.5846 68.0327 62.5992 67.2035 59.7494C66.3744 56.8996 64.9868 54.242 63.1209 51.93C59.3335 47.2698 53.8578 44.2833 47.8784 43.6165C41.899 42.9497 35.8966 44.6563 31.1697 48.367C28.8304 50.2031 26.8796 52.4835 25.4304 55.0763C23.9811 57.669 23.0622 60.5226 22.7269 63.4717C22.3915 66.4209 22.6463 69.4071 23.4766 72.2574C24.3069 75.1077 25.6961 77.7655 27.5638 80.077C31.347 84.7438 36.8238 87.7349 42.8057 88.4013C48.7875 89.0677 54.7917 87.3556 59.515 83.6365Z" stroke="#C5BA8F" stroke-width="5" stroke-miterlimit="10"/>
<path d="M168.771 200.232C146.731 222.009 117.431 234 86.2487 234H86.1749C52.7069 234 3.05969 210.812 3.04916 178.808C3.04916 161.826 12.0025 155.204 21.4861 148.197C30.3516 141.646 40.3969 134.219 40.3934 118.483C40.3899 102.747 30.3376 95.323 21.458 88.7675C11.9779 81.7675 3.00702 75.1175 3 58.139C3 38.4865 21.1244 24.9275 31.9351 18.589C48.1144 9.1215 69.3637 3 86.0872 3H86.0626C111.567 3 135.801 10.9765 156.148 26.0475C174.921 39.9887 189.071 59.2192 196.772 81.2565C174.269 100.856 149.898 123.428 131.749 141.579C101.603 145.467 97.4983 165.494 94.4963 180.208C91.9402 192.735 90.2829 198.79 80.5817 199.567C79.4197 199.658 78.3223 200.137 77.4667 200.926C76.6111 201.715 76.0471 202.768 75.8657 203.916C75.6844 205.064 75.8962 206.239 76.4671 207.252C77.038 208.265 77.9346 209.057 79.0122 209.5C79.6337 209.755 94.4612 215.8 111.803 215.8H111.859C123.916 215.8 134.26 212.888 142.602 207.141C152.879 200.05 159.849 188.85 163.349 173.8C175.185 161.861 188.714 147.466 202.088 132.637C199.008 158.152 187.45 181.773 168.771 200.232ZM152.953 172.582C147.458 194.282 133.642 205.289 111.824 205.289C106.48 205.252 101.155 204.666 95.9323 203.539C101.462 197.915 103.19 189.455 104.689 182.126C107.537 168.165 110.23 154.949 132.276 151.81L152.953 172.582ZM224.555 91.032C204.001 115.458 179.107 142.87 158.641 163.713L155.481 160.528L141.489 146.472C160.059 128.045 183.882 106.075 206.094 86.846C208.681 84.606 211.259 82.3905 213.794 80.2345C239.586 58.307 253.118 48.766 260 44.6115C255.885 51.5275 246.401 65.104 224.555 91.0495V91.032Z" stroke="#C5BA8F" stroke-width="5" stroke-miterlimit="10"/>
</svg>
