<svg width="80" height="77" viewBox="0 0 80 77" fill="none" xmlns="http://www.w3.org/2000/svg">
<path d="M40.0012 48.1817C48.423 48.1817 57.1949 49.9453 66.3169 53.4723C75.439 56.9993 80 61.615 80 67.3195V77H0V67.3195C0 61.615 4.56102 56.9993 13.6831 53.4723C22.8051 49.9453 31.577 48.1817 39.9988 48.1817H40.0012ZM40.0012 38.5012C34.5437 38.5012 29.8654 36.6248 25.9664 32.872C22.0674 29.1193 20.1179 24.6164 20.1179 19.3635C20.1179 14.1105 22.0674 9.57007 25.9664 5.74204C29.8654 1.91401 34.5437 0 40.0012 0C45.4588 0 50.1371 1.91401 54.0361 5.74204C57.9351 9.57007 59.8846 14.1105 59.8846 19.3635C59.8846 24.6164 57.9351 29.1193 54.0361 32.872C50.1371 36.6248 45.4588 38.5012 40.0012 38.5012Z" fill="white"/>
</svg>
