<svg width="1310" height="729" viewBox="0 0 1310 729" fill="none" xmlns="http://www.w3.org/2000/svg">
<path d="M1 93C1 42.1898 42.1898 1 93 1H1217C1267.81 1 1309 42.1898 1309 93V636C1309 686.81 1267.81 728 1217 728H93C42.1898 728 1 686.81 1 636V93Z" stroke="#FFF8E4" stroke-width="2"/>
<path d="M71.6655 122.126C71.0845 122.126 70.5889 121.289 70.1787 119.614C69.9053 118.315 69.7002 117.666 69.5635 117.666C69.4951 117.666 69.1362 118.759 68.4868 120.947C68.1792 120.161 67.8545 119.392 67.5127 118.64C67.1709 117.888 67 116.64 67 114.897C67 110.078 68.4868 100.08 71.4604 84.9043C73.5112 74.6504 74.5366 67.0454 74.5366 62.0894C74.5708 57.4067 74.8271 55.0654 75.3057 55.0654C75.6133 55.0654 75.7671 54.8091 75.7671 54.2964C75.7671 53.9888 75.7158 53.6128 75.6133 53.1685C75.5107 52.6899 75.4595 52.2969 75.4595 51.9893C75.4595 51.4424 75.5962 51.1689 75.8696 51.1689C76.1772 51.1689 76.4165 50.9297 76.5874 50.4512C76.7583 49.9727 76.8438 49.3916 76.8438 48.708C76.8438 47.4092 76.9463 46.7598 77.1514 46.7598C77.3564 46.7598 77.7666 47.0503 78.3818 47.6313C78.9971 48.2124 79.4585 48.5029 79.7661 48.5029C79.9028 48.5029 79.9712 48.4175 79.9712 48.2466C79.9712 47.8022 80.9795 47.0503 82.9961 45.9907C87.8496 43.4272 92.7544 41.4961 97.7104 40.1973C102.359 39.001 107.981 38.4028 114.578 38.4028C116.697 38.4028 118.389 38.4883 119.654 38.6592C121.363 38.8643 122.781 39.377 123.909 40.1973C125.071 41.0176 126.404 42.2993 127.908 44.0425L130.882 47.375L130.062 52.8096C129.446 57.1846 127.618 61.269 124.576 65.063C121.568 68.8228 116.971 72.7705 110.784 76.9062C102.308 82.8193 94.002 86.1689 85.8672 86.9551L81.9194 87.4165C79.937 100.336 78.7065 108.181 78.228 110.949C77.1685 116.931 76.2798 120.178 75.562 120.69C75.2886 120.93 75.0664 121.049 74.8955 121.049C74.7246 121.049 74.6392 120.844 74.6392 120.434C74.6392 119.921 74.7075 119.016 74.8442 117.717C74.981 116.452 75.0493 115.598 75.0493 115.153C75.0493 114.914 75.0322 114.794 74.998 114.794C74.8955 114.794 74.6221 115.751 74.1777 117.666C73.9043 118.828 73.5625 119.409 73.1523 119.409L72.7422 119.306C72.3662 119.306 72.1782 119.716 72.1782 120.537C72.1782 121.596 72.0073 122.126 71.6655 122.126ZM76.3823 103.31C76.4165 103.31 76.4849 103.259 76.5874 103.156C76.6899 103.054 76.7412 102.917 76.7412 102.746C76.7412 102.575 76.7412 102.456 76.7412 102.387C76.7412 102.148 76.707 101.926 76.6387 101.721C76.5361 101.481 76.4507 101.362 76.3823 101.362C76.2456 101.362 76.1602 101.635 76.126 102.182C76.126 102.934 76.2114 103.31 76.3823 103.31ZM77.2026 98.3882C77.2368 98.3882 77.3052 98.2856 77.4077 98.0806C77.5103 97.8413 77.5615 97.5337 77.5615 97.1577C77.5615 96.8159 77.4932 96.4912 77.3564 96.1836C77.2881 96.0469 77.2368 95.9785 77.2026 95.9785C77.0659 95.9785 76.9976 96.3716 76.9976 97.1577C76.9976 97.978 77.0659 98.3882 77.2026 98.3882ZM77.9717 93.9277C78.2109 93.9277 78.3306 93.6885 78.3306 93.21C78.3306 92.9365 78.2793 92.646 78.1768 92.3384C78.0742 92.0991 77.9888 91.9795 77.9204 91.9795C77.7837 91.9795 77.7153 92.3726 77.7153 93.1587C77.7153 93.6714 77.8008 93.9277 77.9717 93.9277ZM78.7407 90.0312C78.98 90.0312 79.0996 89.792 79.0996 89.3135C79.0996 89.04 79.0483 88.7495 78.9458 88.4419C78.8433 88.2026 78.7578 88.083 78.6895 88.083C78.5527 88.083 78.4844 88.4761 78.4844 89.2622C78.4844 89.7749 78.5698 90.0312 78.7407 90.0312ZM83.8164 83.1611C84.0215 83.1611 84.2437 83.0928 84.4829 82.9561C84.7222 82.7852 84.8931 82.6143 84.9956 82.4434C85.0981 82.2725 85.1494 82.1528 85.1494 82.0845C85.1494 81.9819 85.0811 81.9307 84.9443 81.9307C84.8076 81.9307 84.6025 81.9819 84.3291 82.0845C83.543 82.3921 83.1499 82.6655 83.1499 82.9048C83.1499 83.0757 83.3721 83.1611 83.8164 83.1611ZM84.4829 76.9062C92.9595 72.2578 98.0181 69.438 99.6587 68.4468C102.051 67.0112 103.931 65.7979 105.298 64.8066C107.349 63.3369 109.366 61.6963 111.348 59.8848C113.331 58.0391 114.903 56.4326 116.065 55.0654C117.261 53.6641 117.859 52.7241 117.859 52.2456C117.859 51.7329 117.039 51.4253 115.398 51.3228C114.134 51.2544 113.16 51.2202 112.476 51.2202C108.272 51.2202 104.478 51.6133 101.094 52.3994C98.4282 53.0488 95.7451 54.0059 93.0449 55.2705C90.3789 56.5352 88.5674 57.7144 87.6104 58.8081C87.0293 59.5259 86.5337 61.3545 86.1235 64.2939C85.9868 65.5928 85.7988 67.0454 85.5596 68.6519C85.3545 70.2241 85.1836 71.6084 85.0469 72.8047L84.4829 76.9062ZM119.91 66.8062C120.149 66.8062 120.645 66.3447 121.397 65.4219C121.841 64.875 122.063 64.5503 122.063 64.4478C121.79 64.4478 121.158 64.9434 120.167 65.9346C119.893 66.208 119.756 66.396 119.756 66.4985C119.756 66.7036 119.808 66.8062 119.91 66.8062ZM127.601 50.041C127.84 50.041 128.028 49.7676 128.165 49.2207L128.216 48.7593C128.216 48.0415 128.011 47.4775 127.601 47.0674C127.396 46.8281 127.225 46.7085 127.088 46.7085C126.849 46.7085 126.729 47.0674 126.729 47.7852C126.729 49.2891 127.02 50.041 127.601 50.041ZM93.5576 44.8628C94.0703 44.8628 95.8135 44.4697 98.7871 43.6836C101.863 42.9658 105.845 42.3506 110.733 41.8379L117.808 41.2739L111.041 41.1714C104.786 41.1714 99.522 42.0601 95.2495 43.8374C93.9849 44.3501 93.3525 44.6748 93.3525 44.8115C93.3525 44.8457 93.4209 44.8628 93.5576 44.8628Z" stroke="#FFF8E4" stroke-width="2"/>
<path d="M131.39 119.768L130.519 117.563C130.177 116.572 129.921 116.076 129.75 116.076C129.647 116.076 129.545 117.05 129.442 118.999L128.673 117.204C128.16 115.905 127.904 113.735 127.904 110.693C127.904 110.18 127.921 108.83 127.955 106.643C127.99 104.421 128.366 100.832 129.083 95.876C129.904 90.749 130.314 87.5874 130.314 86.3911C130.314 86.2886 130.297 86.0493 130.262 85.6733C130.262 85.2632 130.126 84.9897 129.852 84.853C129.579 84.7163 129.186 84.6479 128.673 84.6479C128.16 84.6479 127.733 84.5625 127.391 84.3916C127.05 84.2207 126.879 84.0156 126.879 83.7764C126.879 83.5371 126.981 83.332 127.186 83.1611C127.426 82.9561 127.699 82.8535 128.007 82.8535C128.348 82.8535 128.724 82.751 129.135 82.5459C129.579 82.3408 129.955 82.0845 130.262 81.7769C130.604 81.4692 130.775 81.1787 130.775 80.9053C130.775 80.8369 130.724 80.7173 130.621 80.5464C130.553 80.3755 129.459 79.709 127.34 78.5469C128.16 78.3418 128.981 78.1367 129.801 77.9316C130.656 77.6924 131.271 77.3677 131.647 76.9575C132.057 76.5132 132.262 76.103 132.262 75.7271C132.262 75.6245 132.228 75.4536 132.159 75.2144C132.091 74.9751 131.647 74.8555 130.826 74.8555C130.006 74.8555 129.596 74.6504 129.596 74.2402C129.596 74.1719 129.613 74.001 129.647 73.7275C129.716 73.4541 130.28 73.1636 131.339 72.856C132.433 72.5142 133.322 71.0615 134.005 68.498C139.44 47.1699 143.165 36.5059 145.182 36.5059C145.387 36.5059 145.49 36.6768 145.49 37.0186C145.49 37.5996 145.028 39.4795 144.105 42.6582C143.934 43.3076 143.849 43.7861 143.849 44.0938C143.849 44.333 143.917 44.4526 144.054 44.4526C144.293 44.4526 144.635 44.0596 145.079 43.2734C145.558 42.4873 146.019 41.4277 146.464 40.0947C147.284 37.7705 147.95 36.6084 148.463 36.6084C148.805 36.6084 148.976 37.0698 148.976 37.9927C148.976 38.6079 148.908 39.4111 148.771 40.4023C148.634 41.3936 148.566 42.1968 148.566 42.812C148.566 43.1196 148.6 43.4785 148.668 43.8887C148.771 44.5723 149.181 44.9141 149.899 44.9141C150.548 44.9141 151.027 44.3159 151.334 43.1196C151.505 42.5044 151.727 41.9917 152.001 41.5815C152.308 41.1714 152.599 40.9663 152.872 40.9663C153.214 40.9663 153.385 41.3594 153.385 42.1455C153.385 43.957 152.103 49.3403 149.54 58.2954C147.489 65.6099 146.464 69.5405 146.464 70.0874C146.464 70.6343 147.369 70.9077 149.181 70.9077C150.172 70.9077 151.437 70.8223 152.975 70.6514C157.076 70.3438 159.332 70.0874 159.742 69.8823C159.948 69.6431 160.717 66.3447 162.05 59.9873C164.442 48.5029 166.168 42.7607 167.228 42.7607C167.638 42.7607 167.843 43.4785 167.843 44.9141L167.741 46.2983C167.638 47.4263 167.587 48.4688 167.587 49.4258C167.587 49.7334 167.604 49.8872 167.638 49.8872C167.809 49.8872 168.373 48.7251 169.33 46.4009C170.287 44.0425 171.022 42.8633 171.534 42.8633C171.876 42.8633 172.047 43.3076 172.047 44.1963C172.047 44.709 171.996 45.3242 171.893 46.042C171.791 46.7256 171.74 47.4263 171.74 48.144C171.74 49.7847 171.876 51.0835 172.15 52.0405C172.423 52.9634 172.679 53.8691 172.919 54.7578L173.585 51.4766C173.893 49.9385 174.32 48.7593 174.867 47.939C175.243 47.4263 175.585 47.1699 175.892 47.1699C176.234 47.1699 176.405 47.3237 176.405 47.6313C176.405 48.6226 175.756 52.9463 174.457 60.6025C173.021 68.7031 172.252 73.4541 172.15 74.8555C172.047 75.8125 171.757 76.6157 171.278 77.2651C170.971 77.6753 170.817 78.0854 170.817 78.4956C170.817 78.769 170.851 78.9912 170.919 79.1621C171.022 79.333 171.073 79.521 171.073 79.7261C171.073 79.9312 171.022 80.2559 170.919 80.7002C170.817 81.1104 170.577 81.6401 170.201 82.2896C169.86 82.9048 169.244 84.7334 168.356 87.7754C167.467 90.7832 166.544 94.2695 165.587 98.2344C163.4 107.326 161.571 113.137 160.101 115.666L157.948 118.999C158.324 116.674 158.649 114.829 158.922 113.461C159.367 110.966 159.589 109.667 159.589 109.565C159.589 109.497 159.572 109.462 159.537 109.462C159.435 109.462 159.127 110.163 158.615 111.564C158.239 112.487 157.777 113.479 157.23 114.538C156.718 115.632 156.205 116.538 155.692 117.255C155.214 118.007 154.718 118.793 154.205 119.614L153.385 117.512C153.009 116.486 152.736 115.974 152.565 115.974C152.394 115.974 152.172 116.384 151.898 117.204C151.693 117.785 151.505 118.076 151.334 118.076C151.129 118.076 150.89 117.307 150.617 115.769C150.548 115.222 150.514 114.572 150.514 113.82C150.514 109.548 151.813 102.302 154.41 92.082C155.367 88.3223 155.846 86.1348 155.846 85.5195C155.846 85.4512 155.812 85.3999 155.743 85.3657C155.709 85.3315 155.419 85.3145 154.872 85.3145C153.231 85.3145 149.403 85.5366 143.387 85.981L142.67 90.9028C141.029 102.387 139.303 110.385 137.492 114.897C136.432 117.153 135.765 118.281 135.492 118.281C135.355 118.281 135.287 118.11 135.287 117.768C135.287 117.153 135.458 116.059 135.8 114.487C136.312 112.231 136.569 110.727 136.569 109.975C136.569 109.667 136.534 109.514 136.466 109.514C136.295 109.514 135.936 110.334 135.389 111.975C135.082 113.034 134.672 114.094 134.159 115.153C133.68 116.247 133.219 117.119 132.775 117.768C132.33 118.417 131.869 119.084 131.39 119.768ZM137.081 107.412C137.321 107.412 137.44 106.967 137.44 106.079C137.44 105.156 137.321 104.694 137.081 104.694C136.91 104.694 136.825 105.156 136.825 106.079C136.825 106.967 136.91 107.412 137.081 107.412ZM161.127 104.13C161.4 104.13 161.537 103.857 161.537 103.31C161.537 102.968 161.486 102.644 161.383 102.336C161.246 102.062 161.144 101.926 161.075 101.926C160.939 101.926 160.853 102.233 160.819 102.849C160.819 103.703 160.922 104.13 161.127 104.13ZM137.953 100.542C138.192 100.542 138.329 100.268 138.363 99.7212C138.363 99.4136 138.295 99.0889 138.158 98.7471C138.055 98.4736 137.97 98.3369 137.902 98.3369C137.731 98.3369 137.645 98.7642 137.645 99.6187C137.645 100.234 137.748 100.542 137.953 100.542ZM148.156 75.1118C149.078 75.1118 150.104 75.0776 151.232 75.0093C154.786 74.77 157.076 74.394 158.102 73.8813C158.512 73.6763 158.717 73.5054 158.717 73.3687C158.717 73.1978 158.29 73.1123 157.435 73.1123C155.863 73.1123 154.188 73.1978 152.411 73.3687C147.865 73.8813 145.592 74.3599 145.592 74.8042C145.592 75.0093 146.447 75.1118 148.156 75.1118ZM170.919 63.1147C171.193 63.1147 171.329 62.7729 171.329 62.0894C171.329 61.8159 171.278 61.5596 171.176 61.3203C171.039 61.0469 170.936 60.9102 170.868 60.9102C170.731 60.9102 170.646 61.2178 170.612 61.833C170.612 62.6875 170.714 63.1147 170.919 63.1147ZM171.842 57.7314C172.081 57.7314 172.218 57.458 172.252 56.9111C172.252 56.6035 172.184 56.2788 172.047 55.937C171.945 55.6636 171.859 55.5269 171.791 55.5269C171.62 55.5269 171.534 55.9541 171.534 56.8086C171.534 57.4238 171.637 57.7314 171.842 57.7314Z" stroke="#FFF8E4" stroke-width="2"/>
<path d="M195.268 116.127C194.55 116.127 193.183 115.786 191.167 115.102C189.047 114.316 187.014 113.12 185.066 111.513C183.151 109.873 181.716 108.146 180.759 106.335C179.699 104.147 178.947 101.84 178.503 99.4136C178.059 96.9868 177.837 94.9531 177.837 93.3125C177.837 92.458 177.888 91.6377 177.99 90.8516C178.811 85.041 180.229 79.3843 182.246 73.8813C184.296 68.3442 186.518 64.106 188.911 61.1665C190.073 59.8677 190.91 59.2183 191.423 59.2183C191.731 59.2183 191.884 59.3721 191.884 59.6797C191.884 60.0898 191.628 60.7563 191.115 61.6792C190.739 62.2944 190.551 62.6533 190.551 62.7559V62.8071C190.688 62.8071 191.269 62.2261 192.295 61.064C193.969 59.0474 195.764 56.0566 197.678 52.0918C199.421 48.4688 201.215 45.5806 203.061 43.4272C204.941 41.2397 206.599 40.1118 208.034 40.0435C209.265 40.0435 210.461 39.8896 211.623 39.582C211.828 39.5137 212.05 39.4795 212.29 39.4795C213.281 39.4795 214.802 40.6074 216.853 42.8633C219.45 45.4951 221.142 48.3149 221.928 51.3228C222.714 54.2964 223.108 58.8423 223.108 64.9604C223.108 83.5884 220.271 97.2432 214.597 105.925C212.922 108.488 211.145 110.402 209.265 111.667C207.009 113.205 204.24 114.299 200.959 114.948C198.088 115.734 196.191 116.127 195.268 116.127ZM208.957 109.155C209.094 109.155 209.282 109.052 209.521 108.847C210.068 108.437 210.615 107.736 211.162 106.745C211.572 106.062 211.777 105.651 211.777 105.515C211.777 105.446 211.76 105.412 211.726 105.412C211.589 105.412 211.145 105.788 210.393 106.54C209.265 107.497 208.701 108.215 208.701 108.693C208.701 109.001 208.786 109.155 208.957 109.155ZM199.216 106.13C199.763 106.13 200.036 106.044 200.036 105.874L199.934 105.72C199.797 105.583 199.592 105.515 199.318 105.515C199.045 105.515 198.772 105.566 198.498 105.668C198.225 105.771 198.088 105.856 198.088 105.925C198.088 106.062 198.464 106.13 199.216 106.13ZM185.681 103.618C185.988 103.618 186.142 103.498 186.142 103.259C186.142 102.951 185.937 102.575 185.527 102.131C185.185 101.823 184.946 101.669 184.809 101.669C184.672 101.669 184.604 101.789 184.604 102.028C184.604 102.37 184.672 102.695 184.809 103.002C184.98 103.276 185.134 103.447 185.271 103.515C185.441 103.583 185.578 103.618 185.681 103.618ZM196.447 103.002C197.507 103.002 198.686 102.661 199.985 101.977C201.626 101.088 203.249 99.7383 204.856 97.9268C206.462 96.1152 207.71 94.1841 208.598 92.1333C209.487 90.0483 210.239 86.8867 210.854 82.6484C211.504 78.4102 211.828 74.3599 211.828 70.4976C211.828 68.686 211.691 66.6182 211.418 64.2939C211.179 61.9697 210.888 59.9702 210.546 58.2954C210.205 56.5864 209.897 55.6978 209.624 55.6294C209.213 55.6978 208.427 56.7915 207.265 58.9106C204.77 63.2173 202.326 66.8062 199.934 69.6772C198.874 70.9419 198.191 71.5742 197.883 71.5742L197.627 71.5229C196.499 71.5229 194.619 74.3086 191.987 79.8799C190.688 82.6143 190.039 85.6733 190.039 89.0571C190.107 98.354 192.243 103.002 196.447 103.002ZM187.27 85.6221C187.475 85.6221 187.578 85.2119 187.578 84.3916C187.578 83.6055 187.475 83.2124 187.27 83.2124C187.133 83.2124 187.065 83.6055 187.065 84.3916C187.065 85.2119 187.133 85.6221 187.27 85.6221ZM213.674 43.6836C213.982 43.6836 214.135 43.564 214.135 43.3247C214.135 42.9487 213.93 42.5728 213.52 42.1968C213.178 41.8892 212.939 41.7354 212.802 41.7354C212.666 41.7354 212.597 41.855 212.597 42.0942C212.597 42.436 212.683 42.7607 212.854 43.0684C213.025 43.3418 213.178 43.5127 213.315 43.5811C213.486 43.6494 213.606 43.6836 213.674 43.6836Z" stroke="#FFF8E4" stroke-width="2"/>
<path d="M237.715 119.255H237.613C237.51 119.255 237.305 118.828 236.997 117.973C236.28 116.196 235.767 114.982 235.459 114.333C235.152 113.718 234.964 113.41 234.895 113.41C234.861 113.41 234.844 113.479 234.844 113.615C234.844 113.854 234.93 114.418 235.1 115.307C235.306 116.23 235.408 116.845 235.408 117.153C235.408 117.324 235.357 117.409 235.254 117.409C235.083 117.409 234.656 117.05 233.973 116.333C233.016 115.615 232.537 113.649 232.537 110.437C232.537 105.48 233.99 94.3892 236.895 77.1626C238.399 67.9683 239.253 62.5166 239.458 60.8076C239.629 59.4062 239.715 58.3979 239.715 57.7827C239.715 56.9966 239.646 56.5864 239.51 56.5522C239.373 56.4839 239.27 56.4497 239.202 56.4497C239.031 56.4497 238.843 56.501 238.638 56.6035C238.433 56.6719 238.245 56.7231 238.074 56.7573C236.228 57.1675 234.195 57.4922 231.973 57.7314C229.786 57.9365 227.871 58.0391 226.231 58.0391C223.907 58.0391 222.745 57.8853 222.745 57.5776C222.745 57.2358 222.625 56.9624 222.386 56.7573C222.112 56.5522 221.788 56.4497 221.412 56.4497C220.489 56.4497 220.027 56.2446 220.027 55.8345C220.027 55.2876 220.66 54.5869 221.924 53.7324C222.915 53.0488 224.129 52.502 225.564 52.0918C227 51.6816 227.718 51.4253 227.718 51.3228C227.718 51.186 226.556 51.1006 224.231 51.0664C221.873 50.998 220.694 50.793 220.694 50.4512C220.694 49.7676 224.454 48.7422 231.973 47.375C238.706 46.1104 242.073 45.2388 242.073 44.7603C242.073 44.6919 241.868 44.6577 241.458 44.6577C240.843 44.6577 239.783 44.7432 238.279 44.9141C231.546 45.8027 226.897 46.2471 224.334 46.2471C222.693 46.2471 221.873 46.0762 221.873 45.7344C221.873 45.3584 222.181 45.0337 222.796 44.7603C223.377 44.4868 224.556 44.1963 226.333 43.8887C228.077 43.5469 230.623 43.1538 233.973 42.7095C236.331 42.4019 238.108 42.1113 239.305 41.8379C240.535 41.5645 241.424 41.2397 241.971 40.8638C242.517 40.4536 242.979 39.8896 243.355 39.1719C243.765 38.4199 244.175 37.6509 244.585 36.8647L245.816 41.2227C247.627 38.8643 248.601 37.668 248.738 37.6338L248.892 37.5825C249.063 37.5825 249.148 37.8047 249.148 38.249V38.5054C249.148 38.9497 249.285 39.2915 249.559 39.5308C249.866 39.7358 250.328 39.8726 250.943 39.9409C251.592 39.9751 252.225 39.9922 252.84 39.9922L255.711 39.9409C257.591 39.9409 259.214 40.0605 260.581 40.2998C262.53 40.6074 263.504 40.9834 263.504 41.4277C263.504 41.8379 262.137 42.2651 259.402 42.7095C258.377 42.8804 257.42 43.0171 256.531 43.1196C255.642 43.188 255.198 43.2563 255.198 43.3247C255.198 43.4272 256.241 43.5127 258.326 43.5811C264.034 43.7178 266.888 44.333 266.888 45.4268C266.888 46.1104 266.119 46.4521 264.58 46.4521C263.692 46.4521 263.247 46.6572 263.247 47.0674C263.247 47.1357 263.265 47.2212 263.299 47.3237C263.367 47.4263 263.401 47.5288 263.401 47.6313C263.401 48.144 262.991 48.6567 262.171 49.1694C261.692 49.4429 261.453 49.6479 261.453 49.7847C261.453 49.853 261.556 49.8872 261.761 49.8872C262.137 49.8872 262.82 49.7847 263.811 49.5796C264.837 49.3403 265.538 49.2207 265.913 49.2207C266.187 49.2207 266.324 49.2891 266.324 49.4258C266.324 49.6309 266.119 49.9556 265.708 50.3999C265.332 50.8442 264.666 51.3057 263.709 51.7842C262.786 52.2285 261.778 52.5874 260.684 52.8608C257.608 53.6128 255.523 54.3135 254.429 54.9629C253.37 55.6123 252.84 56.4155 252.84 57.3726V57.5776C252.84 59.0474 251.797 66.4302 249.712 79.7261C248.003 90.7661 246.602 100.08 245.508 107.668C244.517 114.675 243.509 118.178 242.483 118.178C242.176 118.178 241.954 117.358 241.817 115.717C241.748 114.418 241.629 113.769 241.458 113.769C241.39 113.769 241.321 113.872 241.253 114.077C241.15 114.555 240.928 114.948 240.586 115.256C240.279 115.563 239.954 115.717 239.612 115.717C239.27 115.717 238.946 115.905 238.638 116.281C238.33 116.691 238.125 117.187 238.023 117.768C237.886 118.725 237.784 119.221 237.715 119.255ZM242.278 105.515L242.432 105.412C242.603 105.241 242.688 104.934 242.688 104.489C242.688 104.216 242.637 103.942 242.535 103.669C242.398 103.396 242.295 103.259 242.227 103.259C242.09 103.259 242.005 103.583 241.971 104.233C241.971 105.087 242.073 105.515 242.278 105.515ZM244.073 92.7485C244.346 92.7485 244.5 92.4751 244.534 91.9282C244.534 91.5864 244.466 91.2446 244.329 90.9028C244.192 90.6294 244.09 90.4927 244.021 90.4927C243.885 90.4927 243.816 90.937 243.816 91.8257C243.816 92.4409 243.902 92.7485 244.073 92.7485ZM245.047 87.2627C245.286 87.2627 245.423 86.9893 245.457 86.4424C245.457 86.1348 245.389 85.8101 245.252 85.4683C245.115 85.1948 245.013 85.0581 244.944 85.0581C244.808 85.0581 244.722 85.3657 244.688 85.981C244.688 86.8354 244.808 87.2627 245.047 87.2627ZM245.918 81.8281C246.192 81.8281 246.329 81.606 246.329 81.1616V80.8027C246.329 80.5293 246.277 80.2559 246.175 79.9824C246.038 79.709 245.935 79.5723 245.867 79.5723C245.73 79.5723 245.645 79.897 245.611 80.5464C245.611 81.4009 245.713 81.8281 245.918 81.8281ZM246.841 76.3423C246.91 76.3423 246.961 76.3252 246.995 76.291C247.166 76.1201 247.251 75.7954 247.251 75.3169C247.251 75.0435 247.2 74.77 247.098 74.4966C246.961 74.2231 246.858 74.0864 246.79 74.0864C246.619 74.0864 246.534 74.5308 246.534 75.4194C246.534 76.0347 246.636 76.3423 246.841 76.3423ZM247.764 70.8564C248.038 70.8564 248.174 70.583 248.174 70.0361C248.174 69.7285 248.123 69.4038 248.02 69.062H247.969C247.867 68.7886 247.781 68.6519 247.713 68.6519C247.542 68.6519 247.456 69.0791 247.456 69.9336C247.456 70.5488 247.559 70.8564 247.764 70.8564ZM250.02 44.6064C250.259 44.6064 250.516 44.521 250.789 44.3501C251.062 44.1792 251.267 43.9912 251.404 43.7861C251.575 43.5469 251.661 43.3589 251.661 43.2222C251.626 42.9487 251.455 42.812 251.148 42.812C250.874 42.812 250.601 42.8975 250.328 43.0684C250.054 43.2393 249.832 43.4443 249.661 43.6836C249.524 43.8887 249.456 44.0596 249.456 44.1963C249.49 44.4697 249.678 44.6064 250.02 44.6064Z" stroke="#FFF8E4" stroke-width="2"/>
<path d="M274.215 116.127C273.497 116.127 272.13 115.786 270.113 115.102C267.994 114.316 265.961 113.12 264.012 111.513C262.098 109.873 260.663 108.146 259.706 106.335C258.646 104.147 257.894 101.84 257.45 99.4136C257.006 96.9868 256.783 94.9531 256.783 93.3125C256.783 92.458 256.835 91.6377 256.937 90.8516C257.758 85.041 259.176 79.3843 261.193 73.8813C263.243 68.3442 265.465 64.106 267.858 61.1665C269.02 59.8677 269.857 59.2183 270.37 59.2183C270.677 59.2183 270.831 59.3721 270.831 59.6797C270.831 60.0898 270.575 60.7563 270.062 61.6792C269.686 62.2944 269.498 62.6533 269.498 62.7559V62.8071C269.635 62.8071 270.216 62.2261 271.241 61.064C272.916 59.0474 274.711 56.0566 276.625 52.0918C278.368 48.4688 280.162 45.5806 282.008 43.4272C283.888 41.2397 285.546 40.1118 286.981 40.0435C288.212 40.0435 289.408 39.8896 290.57 39.582C290.775 39.5137 290.997 39.4795 291.237 39.4795C292.228 39.4795 293.749 40.6074 295.799 42.8633C298.397 45.4951 300.089 48.3149 300.875 51.3228C301.661 54.2964 302.054 58.8423 302.054 64.9604C302.054 83.5884 299.217 97.2432 293.544 105.925C291.869 108.488 290.091 110.402 288.212 111.667C285.956 113.205 283.187 114.299 279.906 114.948C277.035 115.734 275.138 116.127 274.215 116.127ZM287.904 109.155C288.041 109.155 288.229 109.052 288.468 108.847C289.015 108.437 289.562 107.736 290.109 106.745C290.519 106.062 290.724 105.651 290.724 105.515C290.724 105.446 290.707 105.412 290.673 105.412C290.536 105.412 290.091 105.788 289.34 106.54C288.212 107.497 287.648 108.215 287.648 108.693C287.648 109.001 287.733 109.155 287.904 109.155ZM278.163 106.13C278.71 106.13 278.983 106.044 278.983 105.874L278.881 105.72C278.744 105.583 278.539 105.515 278.265 105.515C277.992 105.515 277.718 105.566 277.445 105.668C277.172 105.771 277.035 105.856 277.035 105.925C277.035 106.062 277.411 106.13 278.163 106.13ZM264.628 103.618C264.935 103.618 265.089 103.498 265.089 103.259C265.089 102.951 264.884 102.575 264.474 102.131C264.132 101.823 263.893 101.669 263.756 101.669C263.619 101.669 263.551 101.789 263.551 102.028C263.551 102.37 263.619 102.695 263.756 103.002C263.927 103.276 264.081 103.447 264.217 103.515C264.388 103.583 264.525 103.618 264.628 103.618ZM275.394 103.002C276.454 103.002 277.633 102.661 278.932 101.977C280.572 101.088 282.196 99.7383 283.802 97.9268C285.409 96.1152 286.656 94.1841 287.545 92.1333C288.434 90.0483 289.186 86.8867 289.801 82.6484C290.45 78.4102 290.775 74.3599 290.775 70.4976C290.775 68.686 290.638 66.6182 290.365 64.2939C290.126 61.9697 289.835 59.9702 289.493 58.2954C289.152 56.5864 288.844 55.6978 288.57 55.6294C288.16 55.6978 287.374 56.7915 286.212 58.9106C283.717 63.2173 281.273 66.8062 278.881 69.6772C277.821 70.9419 277.137 71.5742 276.83 71.5742L276.573 71.5229C275.445 71.5229 273.566 74.3086 270.934 79.8799C269.635 82.6143 268.986 85.6733 268.986 89.0571C269.054 98.354 271.19 103.002 275.394 103.002ZM266.217 85.6221C266.422 85.6221 266.525 85.2119 266.525 84.3916C266.525 83.6055 266.422 83.2124 266.217 83.2124C266.08 83.2124 266.012 83.6055 266.012 84.3916C266.012 85.2119 266.08 85.6221 266.217 85.6221ZM292.621 43.6836C292.928 43.6836 293.082 43.564 293.082 43.3247C293.082 42.9487 292.877 42.5728 292.467 42.1968C292.125 41.8892 291.886 41.7354 291.749 41.7354C291.612 41.7354 291.544 41.855 291.544 42.0942C291.544 42.436 291.63 42.7607 291.8 43.0684C291.971 43.3418 292.125 43.5127 292.262 43.5811C292.433 43.6494 292.552 43.6836 292.621 43.6836Z" stroke="#FFF8E4" stroke-width="2"/>
<path d="M342.395 119.46C342.19 119.46 341.951 119.152 341.678 118.537C341.404 117.922 341.182 117.153 341.011 116.23L340.396 113.051L338.294 118.178L337.679 115.871C337.542 115.256 337.473 114.521 337.473 113.667C337.473 106.386 342.464 90.0654 352.444 64.7041C355.555 56.7744 357.674 51.6646 358.802 49.3745C359.793 47.3921 360.647 46.4009 361.365 46.4009L362.134 46.4521C363.023 46.4521 363.775 46.2642 364.39 45.8882C364.629 45.7515 364.868 45.6831 365.108 45.6831C365.518 45.6831 365.877 45.8711 366.184 46.2471C366.731 46.8623 367.022 47.751 367.056 48.9131V49.0156C367.056 49.6992 367.364 50.041 367.979 50.041C368.184 50.041 368.44 49.9897 368.748 49.8872C369.431 49.7505 369.91 49.6821 370.183 49.6821C370.388 49.6821 370.508 49.7505 370.542 49.8872C370.576 49.9897 370.73 51.3398 371.004 53.9375C371.277 56.5352 371.619 59.748 372.029 63.5762C372.439 67.3701 372.849 70.5317 373.26 73.061C373.704 75.5562 374.046 76.8379 374.285 76.9062C374.934 76.7012 377.549 72.2578 382.129 63.5762C388.384 51.5791 392.332 44.6406 393.972 42.7607C394.861 41.7695 395.613 41.2739 396.228 41.2739L397.049 41.3252C398.006 41.3252 398.758 41.1543 399.305 40.8125C399.612 40.6416 399.886 40.5562 400.125 40.5562C400.569 40.5562 400.928 40.8125 401.201 41.3252C401.509 41.8037 401.663 42.4019 401.663 43.1196C401.663 43.5298 401.595 44.0083 401.458 44.5552C401.321 45.1021 401.253 45.5122 401.253 45.7856C401.253 45.9565 401.304 46.042 401.407 46.042C401.577 46.042 401.868 45.854 402.278 45.478C402.859 44.9653 403.355 44.709 403.765 44.709C404.79 44.709 405.303 46.2471 405.303 49.3232C405.303 52.6729 404.756 58.0903 403.662 65.5757C398.604 99.2085 394.724 116.025 392.024 116.025C391.888 116.025 391.819 115.837 391.819 115.461C391.819 114.606 392.229 112.351 393.05 108.693L393.101 108.334C393.101 108.232 393.067 108.181 392.998 108.181C392.827 108.181 392.298 109.206 391.409 111.257C389.7 115.358 388.538 117.409 387.923 117.409C387.581 117.409 387.393 116.828 387.359 115.666C387.359 114.504 387.273 113.923 387.102 113.923C387.068 113.923 387.017 113.991 386.949 114.128C386.641 114.846 386.231 115.205 385.718 115.205C385.205 115.205 384.949 114.077 384.949 111.821C384.949 107.377 385.65 101.003 387.051 92.6973C388.35 85.2803 389.068 80.8027 389.204 79.2646C389.204 79.1963 389.187 79.1621 389.153 79.1621C388.811 79.1621 387.786 80.6831 386.077 83.7251C381.429 92.1675 377.942 96.5938 375.618 97.0039C374.046 97.3457 372.61 97.7729 371.311 98.2856C370.799 98.4565 370.269 98.542 369.722 98.542C368.697 98.542 367.603 98.2686 366.441 97.7217C364.663 96.9355 363.467 95.8418 362.852 94.4404C362.339 93.0391 361.741 90.2021 361.057 85.9297L359.981 79.2646L357.11 86.3911C353.623 95.0044 351.265 102.9 350.034 110.078C349.59 112.709 349.231 114.641 348.958 115.871C348.684 117.136 348.462 117.836 348.291 117.973C348.155 118.11 348.052 118.178 347.984 118.178C347.129 118.178 346.617 115.905 346.446 111.359C345.796 114.265 345.437 115.734 345.369 115.769C345.301 115.837 345.249 115.871 345.215 115.871C345.01 115.871 344.702 115.495 344.292 114.743C343.916 114.128 343.66 113.82 343.523 113.82C343.352 113.82 343.267 114.624 343.267 116.23C343.267 117.153 343.181 117.922 343.011 118.537C342.84 119.152 342.635 119.46 342.395 119.46ZM347.061 110.539C347.266 110.539 347.368 110.078 347.368 109.155C347.368 108.642 347.317 108.181 347.215 107.771C347.146 107.497 347.078 107.36 347.01 107.36C346.907 107.36 346.839 107.839 346.805 108.796C346.805 109.958 346.89 110.539 347.061 110.539ZM393.819 105.668C394.058 105.668 394.178 105.48 394.178 105.104V104.694C394.178 104.455 394.126 104.216 394.024 103.977C393.921 103.703 393.836 103.566 393.767 103.566C393.631 103.566 393.545 103.874 393.511 104.489C393.511 105.275 393.614 105.668 393.819 105.668ZM347.83 104.848C348.103 104.848 348.24 104.592 348.24 104.079C348.24 103.771 348.189 103.447 348.086 103.105C347.95 102.832 347.847 102.695 347.779 102.695C347.642 102.695 347.574 103.105 347.574 103.925C347.574 104.541 347.659 104.848 347.83 104.848ZM394.639 101.413C394.912 101.413 395.049 101.157 395.049 100.644C395.049 100.336 394.998 100.029 394.895 99.7212C394.759 99.4478 394.656 99.311 394.588 99.311C394.451 99.311 394.383 99.7212 394.383 100.542C394.383 101.123 394.468 101.413 394.639 101.413ZM369.568 96.4912C369.807 96.4912 370.013 96.4058 370.183 96.2349C370.388 96.064 370.491 95.8589 370.491 95.6196C370.491 95.0386 370.354 94.748 370.081 94.748C369.978 94.748 369.842 94.8335 369.671 95.0044C369.5 95.1753 369.346 95.3633 369.209 95.5684C369.107 95.7734 369.055 95.9272 369.055 96.0298C369.055 96.3374 369.226 96.4912 369.568 96.4912ZM395.511 96.3374C395.75 96.3374 395.887 96.0811 395.921 95.5684C395.921 95.2607 395.852 94.936 395.716 94.5942C395.613 94.3208 395.528 94.1841 395.459 94.1841C395.323 94.1841 395.237 94.4917 395.203 95.1069C395.203 95.9272 395.305 96.3374 395.511 96.3374ZM374.9 94.748C375.139 94.748 375.789 94.1841 376.848 93.0562C377.635 92.2017 378.028 91.6548 378.028 91.4155C378.028 91.3813 378.011 91.3643 377.976 91.3643C377.703 91.3643 377.036 91.9282 375.977 93.0562C375.225 93.9448 374.849 94.4917 374.849 94.6968C374.849 94.731 374.866 94.748 374.9 94.748ZM396.331 91.2104C396.604 91.2104 396.741 90.9541 396.741 90.4414C396.741 90.1338 396.69 89.8262 396.587 89.5186C396.485 89.2451 396.399 89.1084 396.331 89.1084C396.16 89.1084 396.075 89.5186 396.075 90.3389C396.075 90.9199 396.16 91.2104 396.331 91.2104ZM397.202 86.1348C397.442 86.1348 397.578 85.8613 397.613 85.3145C397.613 85.0068 397.561 84.6992 397.459 84.3916C397.322 84.1182 397.22 83.9814 397.151 83.9814C397.014 83.9814 396.929 84.2891 396.895 84.9043C396.895 85.7246 396.997 86.1348 397.202 86.1348ZM398.894 75.8809C399.168 75.8809 399.305 75.6245 399.305 75.1118C399.305 74.8042 399.253 74.4966 399.151 74.189C399.014 73.9155 398.911 73.7788 398.843 73.7788C398.706 73.7788 398.638 74.189 398.638 75.0093C398.638 75.5903 398.723 75.8809 398.894 75.8809ZM399.766 70.8052C400.005 70.8052 400.142 70.5488 400.176 70.0361C400.176 69.7285 400.108 69.4038 399.971 69.062C399.868 68.7886 399.783 68.6519 399.715 68.6519C399.578 68.6519 399.492 68.9595 399.458 69.5747C399.458 70.395 399.561 70.8052 399.766 70.8052Z" stroke="#FFF8E4" stroke-width="2"/>
<path d="M445.084 142.019L444.52 139.66C444.178 138.43 443.768 137.814 443.29 137.814L442.982 137.866C442.606 137.866 442.418 134.79 442.418 128.637C442.418 126.245 442.555 117.255 442.828 101.669C437.633 101.157 434.403 100.883 433.138 100.849L429.498 100.798C428.678 100.798 425.226 100.917 419.142 101.157C417.33 106.147 416.202 109.462 415.758 111.103C415.348 112.47 415.143 113.41 415.143 113.923V114.282C415.143 114.829 415.074 115.102 414.938 115.102C414.801 115.102 414.596 114.829 414.322 114.282C414.049 113.769 413.912 113.051 413.912 112.128C413.912 111.103 414.049 109.838 414.322 108.334C414.733 106.25 414.938 104.797 414.938 103.977C414.938 103.635 414.869 103.464 414.733 103.464C414.493 103.464 414.083 104.335 413.502 106.079C412.921 107.822 412.63 109.223 412.63 110.283C412.63 111.171 412.374 111.616 411.861 111.616C411.725 111.616 411.571 111.582 411.4 111.513C411.263 111.445 411.144 111.411 411.041 111.411C410.392 111.411 409.913 112.163 409.606 113.667C409.366 114.931 409.076 115.563 408.734 115.563C408.597 115.563 408.426 115.393 408.221 115.051C408.05 114.743 407.879 114.282 407.709 113.667C407.572 113.051 407.504 112.436 407.504 111.821C407.469 110.898 407.316 110.437 407.042 110.437C406.529 110.437 406.034 111.308 405.555 113.051C405.487 113.325 405.419 113.461 405.35 113.461C405.179 113.461 405.077 112.761 405.043 111.359C405.043 106.745 406.769 100.422 410.221 92.3896C413.673 84.3574 418.116 75.9834 423.551 67.2676C429.02 58.5518 434.762 50.8613 440.777 44.1963C442.076 42.7607 443.102 41.7012 443.854 41.0176C444.64 40.334 445.375 39.9067 446.058 39.7358C446.776 39.5308 447.716 39.4282 448.878 39.4282C450.484 39.4282 451.578 39.5649 452.159 39.8384C452.775 40.1118 453.253 40.6929 453.595 41.5815C453.902 42.1626 454.261 42.6582 454.671 43.0684C455.082 43.4785 455.441 43.6836 455.748 43.6836C456.739 43.6836 457.457 44.7432 457.901 46.8623C458.346 48.9473 458.568 52.2969 458.568 56.9111C458.568 63.1318 458.124 72.2236 457.235 84.1865C455.936 101.14 454.278 115.085 452.262 126.022C450.45 135.695 449.271 140.532 448.724 140.532L448.673 140.224C448.673 138.994 448.998 136.037 449.647 131.354C450.399 125.51 450.775 121.784 450.775 120.178C450.775 119.631 450.741 119.34 450.672 119.306C450.467 119.306 449.989 121.63 449.237 126.279C448.793 129.047 448.297 131.628 447.75 134.021C447.237 136.447 446.776 138.139 446.366 139.096C445.956 140.053 445.528 141.027 445.084 142.019ZM451.339 115.256C451.544 115.256 451.647 114.624 451.647 113.359C451.647 112.744 451.595 112.146 451.493 111.564C451.424 111.257 451.373 111.103 451.339 111.103C451.236 111.103 451.168 111.752 451.134 113.051C451.134 114.521 451.202 115.256 451.339 115.256ZM440.213 91.0566C441.786 91.0566 442.572 90.9712 442.572 90.8003C442.572 90.4927 441.068 90.2363 438.06 90.0312C436.214 89.9287 434.249 89.8774 432.164 89.8774C428.746 89.8774 427.037 89.9458 427.037 90.0825C427.037 90.1851 427.755 90.3047 429.191 90.4414C432.745 90.8516 436.42 91.0566 440.213 91.0566ZM435.907 87.1089C441.307 87.1089 444.127 86.7329 444.366 85.981C444.64 84.9897 444.982 80.4438 445.392 72.3433C445.631 67.5923 445.751 64.1401 445.751 61.9868C445.751 60.5854 445.716 59.8848 445.648 59.8848C445.067 59.8848 441.957 64.106 436.317 72.5483C430.712 80.9907 427.909 85.6221 427.909 86.4424C427.909 86.6133 428.695 86.7671 430.267 86.9038C431.839 87.0405 433.719 87.1089 435.907 87.1089ZM455.646 49.3745C455.714 49.3745 455.782 49.3403 455.851 49.272C455.919 49.1694 455.953 48.9302 455.953 48.5542C455.919 48.2124 455.816 47.8535 455.646 47.4775C455.509 47.0674 455.355 46.7769 455.184 46.606C455.047 46.4351 454.928 46.3496 454.825 46.3496C454.654 46.3496 454.569 46.5376 454.569 46.9136C454.569 47.3921 454.654 47.8535 454.825 48.2979C455.133 49.0156 455.406 49.3745 455.646 49.3745ZM451.288 43.376C451.595 43.376 451.749 43.2563 451.749 43.0171C451.749 42.6753 451.544 42.3164 451.134 41.9404C450.724 41.5303 450.433 41.3252 450.262 41.3252C450.126 41.3252 450.057 41.4448 450.057 41.6841C450.057 42.2651 450.245 42.7437 450.621 43.1196C450.792 43.2905 451.014 43.376 451.288 43.376Z" stroke="#FFF8E4" stroke-width="2"/>
<path d="M493.171 123.51C492.863 123.51 492.607 123.083 492.402 122.229C492.163 121.271 491.684 120.793 490.966 120.793C490.795 120.793 490.59 120.827 490.351 120.896C490.146 120.964 489.941 120.998 489.736 120.998C489.291 120.998 488.898 120.468 488.557 119.409C488.249 118.349 487.582 114.248 486.557 107.104C485.771 101.806 484.831 96.0127 483.737 89.7236C482.199 80.8369 481.276 76.3936 480.969 76.3936C480.319 76.3936 479.431 79.2476 478.303 84.9556C477.687 88.1001 477.192 91.5181 476.816 95.2095C475.585 106.352 474.509 111.923 473.586 111.923C472.902 111.923 472.475 109.462 472.304 104.541L471.125 110.488C470.065 108.198 469.501 107.053 469.433 107.053C469.262 107.053 469.177 107.993 469.177 109.873C469.108 112.128 468.937 113.273 468.664 113.308L468.305 113.359C467.827 113.359 467.382 112.333 466.972 110.283L466.357 107.104L464.255 112.026L463.691 109.873C463.486 108.881 463.383 107.617 463.383 106.079C463.383 103.378 463.708 99.8408 464.357 95.4658C465.383 88.5957 466.921 81.0933 468.972 72.9585C471.057 64.7896 473.381 57.3384 475.944 50.605C477.551 46.3667 478.696 43.7861 479.379 42.8633C480.063 41.9062 480.644 41.4277 481.122 41.4277C481.498 41.4277 481.857 41.5986 482.199 41.9404C482.678 42.3506 483.037 42.5557 483.276 42.5557C483.481 42.5557 483.583 42.4019 483.583 42.0942C483.583 41.4106 483.806 41.0518 484.25 41.0176C484.694 41.0176 485.156 41.2568 485.634 41.7354C486.147 42.1797 486.489 42.7949 486.66 43.5811C486.933 45.0166 487.429 45.7344 488.146 45.7344C488.317 45.7344 488.505 45.7002 488.71 45.6318C488.915 45.5635 489.103 45.5293 489.274 45.5293C490.026 45.5293 490.505 46.3838 490.71 48.0928C490.847 48.9814 491.12 50.7759 491.53 53.4761C491.975 56.1421 492.436 59.0986 492.914 62.3457C494.111 69.8311 494.777 73.7275 494.914 74.0352C495.085 74.0352 495.683 71.9331 496.708 67.729C497.939 62.397 499.323 57.2871 500.861 52.3994C502.98 45.6318 504.518 42.248 505.475 42.248C505.578 42.248 505.629 42.4019 505.629 42.7095C505.629 43.0513 505.424 44.9482 505.014 48.4004C506.518 44.9141 507.475 42.8462 507.885 42.1968C508.329 41.5132 508.62 41.1714 508.757 41.1714C508.962 41.1714 509.064 42.1797 509.064 44.1963C509.064 45.3584 508.859 49.3062 508.449 56.0396C509.987 49.6821 510.842 46.3154 511.013 45.9395C511.218 45.5635 511.371 45.3755 511.474 45.3755C511.611 45.3755 511.747 45.666 511.884 46.2471C512.021 46.7939 512.089 47.5117 512.089 48.4004C512.089 49.7676 511.935 51.5791 511.628 53.835C511.184 57.5264 510.483 61.252 509.526 65.0117C506.928 75.1973 504.946 86.6816 503.579 99.4648C502.553 109.24 501.716 115.461 501.066 118.127C500.417 120.793 499.836 122.126 499.323 122.126C499.016 122.126 498.691 121.682 498.349 120.793C498.041 119.904 497.46 119.46 496.606 119.46C495.854 119.46 495.478 119.853 495.478 120.639C495.478 120.947 495.358 121.323 495.119 121.767C494.88 122.211 494.555 122.604 494.145 122.946C493.735 123.322 493.41 123.51 493.171 123.51ZM500.092 98.9009C500.366 98.9009 500.502 98.6274 500.502 98.0806C500.502 97.7729 500.451 97.4653 500.349 97.1577C500.212 96.8843 500.109 96.7476 500.041 96.7476C499.904 96.7476 499.836 97.1577 499.836 97.978C499.836 98.5933 499.921 98.9009 500.092 98.9009ZM473.74 92.9023C473.979 92.9023 474.099 92.7144 474.099 92.3384V91.9282C474.099 91.689 474.047 91.4497 473.945 91.2104C473.842 90.937 473.757 90.8003 473.688 90.8003C473.552 90.8003 473.466 91.1079 473.432 91.7231C473.432 92.5093 473.535 92.9023 473.74 92.9023ZM500.964 92.6973C501.203 92.6973 501.323 92.2529 501.323 91.3643C501.323 90.4756 501.203 90.0312 500.964 90.0312C500.827 90.0312 500.759 90.4756 500.759 91.3643C500.759 92.2529 500.827 92.6973 500.964 92.6973ZM501.784 87.8267C502.058 87.8267 502.194 87.6387 502.194 87.2627V86.8525C502.194 86.6133 502.143 86.3569 502.04 86.0835C501.938 85.8101 501.852 85.6733 501.784 85.6733C501.613 85.6733 501.528 86.0835 501.528 86.9038C501.528 87.519 501.613 87.8267 501.784 87.8267ZM475.432 83.5713C475.671 83.5713 475.808 83.3149 475.842 82.8022C475.842 82.4946 475.773 82.1699 475.637 81.8281C475.534 81.5547 475.449 81.418 475.38 81.418C475.244 81.418 475.158 81.7256 475.124 82.3408C475.124 83.1611 475.226 83.5713 475.432 83.5713ZM502.656 82.6997C502.895 82.6997 503.032 82.4434 503.066 81.9307C503.066 81.623 503.015 81.3154 502.912 81.0078C502.775 80.7344 502.673 80.5977 502.604 80.5977C502.468 80.5977 502.399 81.0078 502.399 81.8281C502.399 82.4092 502.485 82.6997 502.656 82.6997ZM503.527 78.4443C503.767 78.4443 503.886 78.2563 503.886 77.8804V77.4702C503.886 77.231 503.835 76.9917 503.732 76.7524C503.63 76.479 503.544 76.3423 503.476 76.3423C503.339 76.3423 503.254 76.6499 503.22 77.2651C503.22 78.0513 503.322 78.4443 503.527 78.4443Z" stroke="#FFF8E4" stroke-width="2"/>
<path d="M520.237 119.357C518.904 119.357 518.237 119.118 518.237 118.64C518.237 118.435 517.998 118.195 517.52 117.922C517.041 117.648 516.46 117.426 515.777 117.255C514.546 116.948 513.931 116.691 513.931 116.486C513.931 116.315 514.324 116.025 515.11 115.615C516.238 115.034 516.973 114.521 517.315 114.077C517.656 113.667 518.272 113.273 519.16 112.897C519.4 112.795 519.519 112.709 519.519 112.641C519.519 112.47 519.024 112.368 518.032 112.333C516.426 112.231 515.623 111.975 515.623 111.564C515.623 111.12 516.563 110.488 518.443 109.667C519.946 109.086 520.698 108.693 520.698 108.488C520.698 108.317 520.237 108.112 519.314 107.873C517.981 107.497 517.315 107.155 517.315 106.848V106.386C517.315 105.839 517.947 105.395 519.212 105.053C519.793 104.985 520.288 104.626 520.698 103.977C521.143 103.293 521.621 102.011 522.134 100.131C522.647 98.2173 523.33 95.3633 524.185 91.5693C528.013 74.377 529.927 63.7129 529.927 59.5771C529.927 58.21 529.773 57.3726 529.466 57.0649C529.192 56.7231 528.457 56.5522 527.261 56.5522C526.543 56.5522 525.877 56.4668 525.261 56.2959C524.646 56.0908 524.236 55.8516 524.031 55.5781C523.86 55.3047 523.535 55.0142 523.057 54.7065C522.578 54.3647 522.031 54.0742 521.416 53.835C520.835 53.5615 520.22 53.3052 519.57 53.0659C520.254 52.8608 520.904 52.6729 521.519 52.502C522.168 52.2969 522.681 52.0747 523.057 51.8354C523.433 51.562 523.621 51.3398 523.621 51.1689C523.621 50.9639 523.775 50.7588 524.082 50.5537C524.39 50.3145 524.749 50.1436 525.159 50.041C525.569 49.9043 525.774 49.8018 525.774 49.7334C525.774 49.5967 525.279 49.5112 524.287 49.4771C523.604 49.4429 523.023 49.3403 522.544 49.1694C522.066 48.9985 521.826 48.8105 521.826 48.6055C521.826 48.332 522.373 47.9731 523.467 47.5288C526.338 46.3667 528.731 45.7856 530.645 45.7856C531.157 45.7856 531.653 45.6831 532.132 45.478C532.918 45.1362 533.311 44.7944 533.311 44.4526C533.311 44.145 532.883 43.9912 532.029 43.9912C531.482 43.9912 530.747 44.0596 529.824 44.1963C528.936 44.2988 528.098 44.3501 527.312 44.3501C525.466 44.3501 524.219 44.1792 523.57 43.8374C523.194 43.6323 523.006 43.4614 523.006 43.3247C523.006 42.7437 524.92 42.2822 528.748 41.9404C532.576 41.5645 536.216 41.3765 539.668 41.3765C541.548 41.3765 542.898 41.4619 543.718 41.6328C545.257 42.0771 546.026 42.5215 546.026 42.9658C546.026 43.6152 544.778 43.9741 542.283 44.0425C540.574 44.1108 539.719 44.2646 539.719 44.5039C539.719 44.7432 540.283 44.9995 541.411 45.2729C542.539 45.5122 544.026 45.666 545.872 45.7344H546.128C548.487 45.7344 549.666 46.1958 549.666 47.1187C549.666 48.0415 548.692 48.5371 546.743 48.6055C545.615 48.6396 545.051 48.7422 545.051 48.9131C545.051 48.9473 545.171 49.0156 545.41 49.1182C546.196 49.2891 546.59 49.5967 546.59 50.041C546.59 50.1436 546.555 50.2461 546.487 50.3486C546.419 50.4512 546.384 50.5537 546.384 50.6562C546.384 50.998 546.726 51.1689 547.41 51.1689C548.333 51.1689 548.794 51.3911 548.794 51.8354C548.794 52.6216 547.957 53.3223 546.282 53.9375C545.496 54.1768 544.915 54.5015 544.539 54.9116C543.855 55.6636 543.223 58.2441 542.642 62.6533C541.719 68.6348 539.959 77.7607 537.361 90.0312C536.233 95.2266 535.379 98.9009 534.798 101.054C534.729 101.293 534.695 101.533 534.695 101.772C534.695 102.592 535.498 103.31 537.105 103.925C538.711 104.541 539.514 105.036 539.514 105.412C539.514 105.822 538.438 106.079 536.284 106.181C534.439 106.25 533.516 106.455 533.516 106.796C533.516 107.343 535.088 107.719 538.233 107.924C540.864 108.129 542.249 108.386 542.385 108.693C542.556 109.001 542.642 109.189 542.642 109.257C542.642 109.736 541.633 110.18 539.617 110.59C538.421 110.83 537.822 111.018 537.822 111.154C537.822 111.188 537.942 111.223 538.181 111.257C538.967 111.325 539.361 111.616 539.361 112.128C539.361 112.299 539.309 112.504 539.207 112.744C539.104 112.983 539.053 113.188 539.053 113.359C539.053 113.598 539.173 113.718 539.412 113.718C539.583 113.718 539.805 113.649 540.078 113.513C540.386 113.41 540.642 113.359 540.847 113.359C541.36 113.359 541.616 113.684 541.616 114.333C541.616 114.777 541.497 115.136 541.258 115.41C541.052 115.683 540.591 115.939 539.873 116.179C539.155 116.418 538.045 116.674 536.541 116.948C535.037 117.255 533.02 117.631 530.491 118.076C525.979 118.862 523.194 119.272 522.134 119.306C521.109 119.34 520.476 119.357 520.237 119.357ZM538.386 68.9595C538.66 68.9595 538.797 68.7031 538.797 68.1904C538.797 67.8486 538.745 67.5068 538.643 67.165C538.506 66.8916 538.404 66.7549 538.335 66.7549C538.164 66.7549 538.079 67.1821 538.079 68.0366C538.079 68.6519 538.181 68.9595 538.386 68.9595ZM536.233 45.7856C536.712 45.7856 537.156 45.4951 537.566 44.9141L537.617 44.6577C537.617 44.2134 537.156 43.9912 536.233 43.9912C535.276 43.9912 534.798 44.2134 534.798 44.6577C534.798 44.9312 535.037 45.2217 535.515 45.5293C535.755 45.7002 535.994 45.7856 536.233 45.7856Z" stroke="#FFF8E4" stroke-width="2"/>
<path d="M557.147 122.126C556.566 122.126 556.07 121.289 555.66 119.614C555.387 118.315 555.182 117.666 555.045 117.666C554.977 117.666 554.618 118.759 553.968 120.947C553.661 120.161 553.336 119.392 552.994 118.64C552.652 117.888 552.481 116.64 552.481 114.897C552.481 110.078 553.968 100.08 556.942 84.9043C558.993 74.6504 560.018 67.0454 560.018 62.0894C560.052 57.4067 560.309 55.0654 560.787 55.0654C561.095 55.0654 561.249 54.8091 561.249 54.2964C561.249 53.9888 561.197 53.6128 561.095 53.1685C560.992 52.6899 560.941 52.2969 560.941 51.9893C560.941 51.4424 561.078 51.1689 561.351 51.1689C561.659 51.1689 561.898 50.9297 562.069 50.4512C562.24 49.9727 562.325 49.3916 562.325 48.708C562.325 47.4092 562.428 46.7598 562.633 46.7598C562.838 46.7598 563.248 47.0503 563.863 47.6313C564.479 48.2124 564.94 48.5029 565.248 48.5029C565.384 48.5029 565.453 48.4175 565.453 48.2466C565.453 47.8022 566.461 47.0503 568.478 45.9907C573.331 43.4272 578.236 41.4961 583.192 40.1973C587.84 39.001 593.463 38.4028 600.06 38.4028C602.179 38.4028 603.871 38.4883 605.135 38.6592C606.844 38.8643 608.263 39.377 609.391 40.1973C610.553 41.0176 611.886 42.2993 613.39 44.0425L616.363 47.375L615.543 52.8096C614.928 57.1846 613.099 61.269 610.057 65.063C607.049 68.8228 602.452 72.7705 596.266 76.9062C587.789 82.8193 579.483 86.1689 571.349 86.9551L567.401 87.4165C565.418 100.336 564.188 108.181 563.709 110.949C562.65 116.931 561.761 120.178 561.043 120.69C560.77 120.93 560.548 121.049 560.377 121.049C560.206 121.049 560.121 120.844 560.121 120.434C560.121 119.921 560.189 119.016 560.326 117.717C560.462 116.452 560.531 115.598 560.531 115.153C560.531 114.914 560.514 114.794 560.479 114.794C560.377 114.794 560.104 115.751 559.659 117.666C559.386 118.828 559.044 119.409 558.634 119.409L558.224 119.306C557.848 119.306 557.66 119.716 557.66 120.537C557.66 121.596 557.489 122.126 557.147 122.126ZM561.864 103.31C561.898 103.31 561.966 103.259 562.069 103.156C562.171 103.054 562.223 102.917 562.223 102.746C562.223 102.575 562.223 102.456 562.223 102.387C562.223 102.148 562.188 101.926 562.12 101.721C562.018 101.481 561.932 101.362 561.864 101.362C561.727 101.362 561.642 101.635 561.607 102.182C561.607 102.934 561.693 103.31 561.864 103.31ZM562.684 98.3882C562.718 98.3882 562.787 98.2856 562.889 98.0806C562.992 97.8413 563.043 97.5337 563.043 97.1577C563.043 96.8159 562.975 96.4912 562.838 96.1836C562.77 96.0469 562.718 95.9785 562.684 95.9785C562.547 95.9785 562.479 96.3716 562.479 97.1577C562.479 97.978 562.547 98.3882 562.684 98.3882ZM563.453 93.9277C563.692 93.9277 563.812 93.6885 563.812 93.21C563.812 92.9365 563.761 92.646 563.658 92.3384C563.556 92.0991 563.47 91.9795 563.402 91.9795C563.265 91.9795 563.197 92.3726 563.197 93.1587C563.197 93.6714 563.282 93.9277 563.453 93.9277ZM564.222 90.0312C564.461 90.0312 564.581 89.792 564.581 89.3135C564.581 89.04 564.53 88.7495 564.427 88.4419C564.325 88.2026 564.239 88.083 564.171 88.083C564.034 88.083 563.966 88.4761 563.966 89.2622C563.966 89.7749 564.051 90.0312 564.222 90.0312ZM569.298 83.1611C569.503 83.1611 569.725 83.0928 569.964 82.9561C570.204 82.7852 570.375 82.6143 570.477 82.4434C570.58 82.2725 570.631 82.1528 570.631 82.0845C570.631 81.9819 570.562 81.9307 570.426 81.9307C570.289 81.9307 570.084 81.9819 569.811 82.0845C569.024 82.3921 568.631 82.6655 568.631 82.9048C568.631 83.0757 568.854 83.1611 569.298 83.1611ZM569.964 76.9062C578.441 72.2578 583.5 69.438 585.14 68.4468C587.533 67.0112 589.413 65.7979 590.78 64.8066C592.831 63.3369 594.847 61.6963 596.83 59.8848C598.812 58.0391 600.384 56.4326 601.546 55.0654C602.743 53.6641 603.341 52.7241 603.341 52.2456C603.341 51.7329 602.521 51.4253 600.88 51.3228C599.615 51.2544 598.641 51.2202 597.958 51.2202C593.753 51.2202 589.959 51.6133 586.576 52.3994C583.91 53.0488 581.227 54.0059 578.526 55.2705C575.86 56.5352 574.049 57.7144 573.092 58.8081C572.511 59.5259 572.015 61.3545 571.605 64.2939C571.468 65.5928 571.28 67.0454 571.041 68.6519C570.836 70.2241 570.665 71.6084 570.528 72.8047L569.964 76.9062ZM605.392 66.8062C605.631 66.8062 606.126 66.3447 606.878 65.4219C607.323 64.875 607.545 64.5503 607.545 64.4478C607.271 64.4478 606.639 64.9434 605.648 65.9346C605.375 66.208 605.238 66.396 605.238 66.4985C605.238 66.7036 605.289 66.8062 605.392 66.8062ZM613.082 50.041C613.321 50.041 613.509 49.7676 613.646 49.2207L613.697 48.7593C613.697 48.0415 613.492 47.4775 613.082 47.0674C612.877 46.8281 612.706 46.7085 612.569 46.7085C612.33 46.7085 612.21 47.0674 612.21 47.7852C612.21 49.2891 612.501 50.041 613.082 50.041ZM579.039 44.8628C579.552 44.8628 581.295 44.4697 584.269 43.6836C587.345 42.9658 591.327 42.3506 596.214 41.8379L603.29 41.2739L596.522 41.1714C590.267 41.1714 585.003 42.0601 580.731 43.8374C579.466 44.3501 578.834 44.6748 578.834 44.8115C578.834 44.8457 578.902 44.8628 579.039 44.8628Z" stroke="#FFF8E4" stroke-width="2"/>
</svg>
