<svg width="124" height="126" viewBox="0 0 124 126" fill="none" xmlns="http://www.w3.org/2000/svg">
<path fill-rule="evenodd" clip-rule="evenodd" d="M102.042 2.69231H21.9583C11.2434 2.69231 2.58333 11.7177 2.58333 22.8846V103.115C2.58333 114.282 11.2434 123.308 21.9583 123.308H102.042C112.757 123.308 121.417 114.282 121.417 103.115V22.8846C121.417 11.7177 112.757 2.69231 102.042 2.69231ZM102.042 0H21.9583C9.81667 0 0 10.2308 0 22.8846V103.115C0 115.769 9.81667 126 21.9583 126H102.042C114.183 126 124 115.769 124 103.115V22.8846C124 10.2308 114.183 0 102.042 0Z" fill="#FFE9AD"/>
<path fill-rule="evenodd" clip-rule="evenodd" d="M56.8741 33.781C53.9704 32.6542 50.4444 32.1176 46.1926 32.1176C44.637 32.1176 43.0815 32.1176 41.4741 32.1713C40.6981 32.1972 39.9462 32.2106 39.2185 32.2236C38.4389 32.2375 37.6871 32.2509 36.963 32.2786C36.2839 32.3046 35.6293 32.318 34.9932 32.3311C34.3177 32.3449 33.6631 32.3583 33.0222 32.3859C31.8296 32.4396 31 32.4396 30.1185 32.4396C29.7556 32.4396 29.6 32.6542 29.6 33.0298V88.2436C29.6 88.2619 29.6003 88.2798 29.6009 88.2973C29.616 88.7425 29.8231 88.9412 30.2222 88.9412H40.2815C40.6444 88.8875 40.9037 88.5656 40.8518 88.19V70.9658C41.2359 70.9658 41.5806 70.9658 41.8889 70.969C42.3715 70.974 42.7651 70.9868 43.0815 71.0195C43.6 71.0732 44.4295 71.0732 45.6738 71.0732C49.9256 71.0732 53.8148 70.5902 57.3407 69.2488C60.7111 67.961 63.6148 65.7074 65.6889 62.7026C67.763 59.6977 68.8 55.888 68.8 51.2735C68.8 48.8589 68.3852 46.5516 67.6074 44.298C66.7778 41.9907 65.4815 39.898 63.8222 38.181C61.8519 36.1956 59.4667 34.6932 56.8741 33.781ZM63.0938 38.9448C61.2362 37.0747 58.9865 35.6577 56.5402 34.7971L56.525 34.7917L56.5099 34.7859C53.7598 33.7186 50.3671 33.1908 46.1926 33.1908C44.6347 33.1908 43.0956 33.1909 41.5075 33.2439C40.7235 33.2701 39.9647 33.2836 39.2388 33.2965L39.1586 33.298C38.4053 33.3114 37.6895 33.3247 37.0013 33.351C36.3132 33.3774 35.6507 33.391 35.0166 33.404L34.9548 33.4052C34.299 33.4187 33.6751 33.4319 33.0663 33.4581C32.0887 33.5021 31.3487 33.5107 30.637 33.5123V87.868H39.8148V69.8927H40.9127C41.8457 69.8927 42.6141 69.8926 43.1847 69.9517C43.6377 69.9986 44.3994 70 45.6741 70C49.8558 70 53.6119 69.5241 56.9829 68.2415C60.1645 67.0256 62.8962 64.9022 64.845 62.0788C66.7651 59.297 67.763 55.7207 67.763 51.2735C67.763 48.9925 67.3722 46.8093 66.6331 44.6656C65.8556 42.5061 64.6427 40.5492 63.0938 38.9448ZM39.8667 41.9185L40.757 41.7868C41.191 41.7227 41.9662 41.6691 43.0281 41.721C44.0299 41.6687 45.2256 41.6687 46.5325 41.6687H46.5431C48.7774 41.6138 50.9881 41.9518 53.053 42.816C54.769 43.4925 56.1797 44.7163 57.1717 46.2862L57.1842 46.3061L57.1959 46.3264C58.1221 47.944 58.5882 49.8023 58.5333 51.6661C58.5308 54.1757 57.9768 56.2721 56.683 57.866L56.6753 57.8755L56.6674 57.8848C55.4165 59.3558 53.8054 60.4986 51.9378 61.0469C49.9188 61.7222 47.7951 62.0587 45.6741 62.0587H42.9259C42.3092 62.0587 41.6504 62.0096 40.9935 61.9608C40.9389 61.9567 40.8843 61.9526 40.8298 61.9486L39.8667 61.8774V41.9185ZM51.637 60.0197C53.2963 59.5367 54.7481 58.5173 55.8889 57.1758C56.9778 55.8344 57.4963 54.01 57.4963 51.6491C57.5481 49.9857 57.1333 48.3223 56.3037 46.8735C55.4222 45.4784 54.1778 44.4053 52.6741 43.815C50.7556 43.0102 48.6815 42.6882 46.5556 42.7419C45.2074 42.7419 44.0148 42.7419 43.0296 42.7955C41.9926 42.7419 41.2667 42.7955 40.9037 42.8492V60.8782C40.9558 60.882 41.0077 60.8859 41.0593 60.8897C41.7262 60.9393 42.3484 60.9855 42.9259 60.9855H45.6741C47.6963 60.9855 49.7185 60.6636 51.637 60.0197Z" fill="#FFE9AD"/>
<path fill-rule="evenodd" clip-rule="evenodd" d="M75.2394 47.1397C75.2417 47.1657 75.2439 47.1917 75.2461 47.2177C75.3368 48.291 75.418 49.3324 75.418 50.4155C75.444 51.1081 75.457 51.8007 75.47 52.4932C75.483 53.1858 75.496 53.8784 75.522 54.571C75.574 55.9561 75.5741 57.2879 75.5741 58.5664V88.2951C75.6261 88.7213 75.9902 88.9877 76.4062 88.9344H86.6527C87.1208 88.9344 87.3288 88.7213 87.3288 88.1886V61.0175C88.057 60.1651 88.9932 59.5258 89.9814 59.0463C91.3858 58.4069 92.8421 57.9275 94.3505 57.6078C96.1709 57.1816 98.0954 57.0218 99.9678 57.075C100.54 57.075 100.8 56.9152 100.8 56.489V45.8869C100.748 45.514 100.436 45.2476 100.072 45.3009C97.3152 45.3009 94.5585 45.9935 92.166 47.3787C90.4725 48.3095 88.943 49.4755 87.6036 50.85C87.2563 51.2063 86.9219 51.5766 86.6006 51.9605C86.6006 51.4252 86.5696 50.9217 86.5315 50.4501C86.5203 50.3115 86.5084 50.1756 86.4966 50.0425C86.4446 49.5098 86.3406 48.9237 86.2366 48.3909C86.1846 47.9115 86.0805 47.4852 85.9245 47.059C85.7685 46.5795 85.3524 46.2066 84.8322 46.2066H75.7301C75.6781 46.1533 75.5741 46.1533 75.5741 46.2066C75.329 46.2568 75.1763 46.4962 75.203 46.7465C75.2046 46.7619 75.207 46.7773 75.21 46.7927C75.2141 46.8417 75.2183 46.8907 75.2225 46.9396C75.2281 47.0064 75.2338 47.0731 75.2394 47.1397ZM76.2948 47.2721C76.3803 48.2923 76.4573 49.3226 76.4582 50.3948C76.4841 51.0908 76.4972 51.7851 76.51 52.4678L76.5101 52.4728C76.5231 53.1671 76.536 53.8494 76.5615 54.5301C76.6143 55.9356 76.6143 57.2845 76.6143 58.558V87.8689H86.2886V60.6171L86.546 60.3158C87.3937 59.3235 88.4598 58.6055 89.5361 58.0833L89.5475 58.0778L89.559 58.0726C91.0281 57.4037 92.552 56.9016 94.1292 56.5666C95.9662 56.1376 97.8903 55.9685 99.7598 56.0043V46.3696C97.2751 46.4198 94.814 47.0695 92.6778 48.3063L92.6679 48.3121L92.6578 48.3176C90.6386 49.4274 88.8671 50.8893 87.3905 52.6539L85.5604 54.8409V51.9605C85.5604 51.3216 85.5126 50.7251 85.4611 50.1439C85.4142 49.6663 85.3189 49.124 85.2165 48.5999L85.2077 48.5546L85.2027 48.5086C85.1607 48.1212 85.0778 47.781 84.9505 47.4332L84.9437 47.4147L84.9376 47.396C84.9206 47.3436 84.8917 47.3067 84.8685 47.2879C84.858 47.2793 84.8504 47.2758 84.8466 47.2744C84.8434 47.2732 84.8395 47.2721 84.8322 47.2721H76.2948Z" fill="#FFE9AD"/>
</svg>
