<svg width="250" height="43" viewBox="0 0 250 43" fill="none" xmlns="http://www.w3.org/2000/svg">
<path d="M10.4736 36.4883C8.69954 36.4883 7.0638 36.0326 5.56641 35.1211C4.08529 34.2096 2.89714 32.9971 2.00195 31.4834C1.12305 29.9535 0.683594 28.277 0.683594 26.4541V24.1592C0.683594 23.9801 0.764974 23.8906 0.927734 23.8906H6.54297C6.67318 23.8906 6.73828 23.9801 6.73828 24.1592V26.4541C6.73828 27.5446 7.10449 28.4886 7.83691 29.2861C8.56934 30.0674 9.44824 30.458 10.4736 30.458C11.5153 30.458 12.4023 30.0592 13.1348 29.2617C13.8672 28.4479 14.2334 27.512 14.2334 26.4541C14.2334 25.2334 13.4359 24.1673 11.8408 23.2559C11.5804 23.0931 11.2386 22.8978 10.8154 22.6699C10.4085 22.4258 9.92025 22.1491 9.35059 21.8398C8.78092 21.5306 8.22754 21.2295 7.69043 20.9365C7.15332 20.6273 6.63249 20.3343 6.12793 20.0576C4.30501 18.9834 2.94596 17.6406 2.05078 16.0293C1.17188 14.4017 0.732422 12.5788 0.732422 10.5605C0.732422 8.70508 1.18815 7.02865 2.09961 5.53125C3.01107 4.05013 4.19922 2.87826 5.66406 2.01562C7.14518 1.13672 8.74837 0.697266 10.4736 0.697266C12.2477 0.697266 13.8753 1.13672 15.3564 2.01562C16.8376 2.91081 18.0176 4.09896 18.8965 5.58008C19.7917 7.0612 20.2393 8.72135 20.2393 10.5605V14.6621C20.2393 14.7923 20.1742 14.8574 20.0439 14.8574H14.4287C14.2985 14.8574 14.2334 14.7923 14.2334 14.6621L14.1846 10.5605C14.1846 9.38867 13.8184 8.43652 13.0859 7.7041C12.3535 6.97168 11.4827 6.60547 10.4736 6.60547C9.44824 6.60547 8.56934 6.99609 7.83691 7.77734C7.10449 8.55859 6.73828 9.48633 6.73828 10.5605C6.73828 11.651 6.96615 12.5625 7.42188 13.2949C7.89388 14.0273 8.74837 14.7272 9.98535 15.3945C10.1156 15.4596 10.4167 15.6224 10.8887 15.8828C11.3607 16.1432 11.8815 16.4362 12.4512 16.7617C13.0371 17.071 13.5661 17.3558 14.0381 17.6162C14.5101 17.8604 14.7949 18.0068 14.8926 18.0557C16.5527 18.9834 17.863 20.1227 18.8232 21.4736C19.7998 22.8245 20.2881 24.4847 20.2881 26.4541C20.2881 28.3584 19.8486 30.0674 18.9697 31.5811C18.0745 33.0947 16.8864 34.291 15.4053 35.1699C13.9242 36.0488 12.2803 36.4883 10.4736 36.4883ZM43.3623 36H27.2002C27.07 36 27.0049 35.9186 27.0049 35.7559L27.0537 1.40527C27.0537 1.27507 27.1188 1.20996 27.249 1.20996H43.3135C43.4437 1.20996 43.5088 1.29134 43.5088 1.4541V7.04492C43.5088 7.17513 43.4437 7.24023 43.3135 7.24023H33.0596V15.0527H43.3135C43.4437 15.0527 43.5088 15.1178 43.5088 15.248L43.5576 20.9121C43.5576 21.0423 43.4925 21.1074 43.3623 21.1074H33.0596V29.8477H43.3623C43.4925 29.8477 43.5576 29.929 43.5576 30.0918V35.8047C43.5576 35.9349 43.4925 36 43.3623 36ZM49.5664 35.7559L55.7676 1.40527C55.8001 1.27507 55.8815 1.20996 56.0117 1.20996H63.2627C63.3929 1.20996 63.4743 1.27507 63.5068 1.40527L69.4639 35.7559C69.4801 35.9186 69.415 36 69.2686 36H63.7266C63.5638 36 63.4743 35.9186 63.458 35.7559L62.9209 32.0938H56.1094L55.5723 35.7559C55.556 35.9186 55.4746 36 55.3281 36H49.7617C49.6315 36 49.5664 35.9186 49.5664 35.7559ZM59.3564 12.709L57.1104 26.7471H61.9199L59.8691 12.709L59.5762 10.8535L59.3564 12.709ZM83.4805 36H77.8408C77.6943 36 77.6211 35.9186 77.6211 35.7559V7.24023H71.127C70.9642 7.24023 70.8828 7.15885 70.8828 6.99609L70.9316 1.40527C70.9316 1.27507 70.9967 1.20996 71.127 1.20996H90.1211C90.3001 1.20996 90.3896 1.27507 90.3896 1.40527V6.99609C90.3896 7.15885 90.3245 7.24023 90.1943 7.24023H83.627L83.6758 35.7559C83.6758 35.9186 83.6107 36 83.4805 36ZM106.75 36H101.11C100.964 36 100.891 35.9186 100.891 35.7559V7.24023H94.3965C94.2337 7.24023 94.1523 7.15885 94.1523 6.99609L94.2012 1.40527C94.2012 1.27507 94.2663 1.20996 94.3965 1.20996H113.391C113.57 1.20996 113.659 1.27507 113.659 1.40527V6.99609C113.659 7.15885 113.594 7.24023 113.464 7.24023H106.896L106.945 35.7559C106.945 35.9186 106.88 36 106.75 36ZM135.708 36H119.546C119.416 36 119.351 35.9186 119.351 35.7559L119.399 1.4541C119.399 1.29134 119.481 1.20996 119.644 1.20996H125.21C125.373 1.20996 125.454 1.29134 125.454 1.4541L125.405 29.8477H135.708C135.871 29.8477 135.952 29.929 135.952 30.0918V35.7559C135.952 35.9186 135.871 36 135.708 36ZM158.831 36H142.669C142.539 36 142.474 35.9186 142.474 35.7559L142.522 1.40527C142.522 1.27507 142.588 1.20996 142.718 1.20996H158.782C158.912 1.20996 158.978 1.29134 158.978 1.4541V7.04492C158.978 7.17513 158.912 7.24023 158.782 7.24023H148.528V15.0527H158.782C158.912 15.0527 158.978 15.1178 158.978 15.248L159.026 20.9121C159.026 21.0423 158.961 21.1074 158.831 21.1074H148.528V29.8477H158.831C158.961 29.8477 159.026 29.929 159.026 30.0918V35.8047C159.026 35.9349 158.961 36 158.831 36ZM166.72 42.2988V39.1982C167.55 39.1982 168.258 38.8809 168.844 38.2461C169.43 37.6113 169.723 36.8626 169.723 36H166.915C166.785 36 166.72 35.9349 166.72 35.8047V30.1895C166.72 30.0592 166.785 29.9941 166.915 29.9941H172.579C172.709 29.9941 172.774 30.0592 172.774 30.1895V36C172.774 37.1719 172.49 38.238 171.92 39.1982C171.35 40.1585 170.61 40.9154 169.698 41.4688C168.787 42.0221 167.794 42.2988 166.72 42.2988ZM207.033 36H200.979C200.832 36 200.751 35.9186 200.734 35.7559L194.826 1.40527C194.794 1.27507 194.842 1.20996 194.973 1.20996H200.588C200.718 1.20996 200.799 1.27507 200.832 1.40527L204.03 23.9883L207.326 1.40527C207.359 1.27507 207.456 1.20996 207.619 1.20996H212.136C212.266 1.20996 212.347 1.27507 212.38 1.40527L215.627 23.9883L218.874 1.40527C218.907 1.27507 218.988 1.20996 219.118 1.20996H224.685C224.847 1.20996 224.912 1.27507 224.88 1.40527L218.923 35.7559C218.907 35.821 218.858 35.8779 218.776 35.9268L218.679 36H212.624C212.526 36 212.445 35.9186 212.38 35.7559L209.816 17.8115L207.277 35.7559C207.261 35.9186 207.18 36 207.033 36ZM229.375 35.7559L235.576 1.40527C235.609 1.27507 235.69 1.20996 235.82 1.20996H243.071C243.201 1.20996 243.283 1.27507 243.315 1.40527L249.272 35.7559C249.289 35.9186 249.224 36 249.077 36H243.535C243.372 36 243.283 35.9186 243.267 35.7559L242.729 32.0938H235.918L235.381 35.7559C235.365 35.9186 235.283 36 235.137 36H229.57C229.44 36 229.375 35.9186 229.375 35.7559ZM239.165 12.709L236.919 26.7471H241.729L239.678 12.709L239.385 10.8535L239.165 12.709Z" fill="white"/>
</svg>
