<svg id="Layer_1" data-name="Layer 1" xmlns="http://www.w3.org/2000/svg" viewBox="0 0 1800 1549.33"><path d="M1480.67,293.15c-1.3-4.95-1.58-10.08-7.63-13.49-7.38-4.24-12.46-11-19.55-15.8-4.92-3.35-5.54-9.41-7.1-14.55-.94-3-.63-6.72-3.19-8.67a12,12,0,0,1-4.11-4.19,10.54,10.54,0,0,1-1.44-5.42c0-3.5-1.26-7,.54-10.38s0-5.21-2.36-6.88a9.78,9.78,0,0,0-3.37-1.46,10.61,10.61,0,0,0-3.73-.18c-3.33.39-3.12,3.31-5,6.19a11.4,11.4,0,0,0-2.36-7.37,2.62,2.62,0,0,1,0-3.71c1.3-1.18,2.57-1,3.71.43s2.12.63,2.88-.22a10.24,10.24,0,0,0,2.67-6.46c0-1.18-1.75-.91-2.91-.8-4.35.34-6.4-1.4-6.33-5.4,0-3.07-.43-6.17-.59-9.24a3.92,3.92,0,0,0-4-4.23c-2.72-.19-3.62,1.82-4,3.74-.42,2.33.29,5.05-.82,7-2.51,4.41,0,7.48,2.5,10.6,1,1.31,2.22,2.69,1,3.93a5.09,5.09,0,0,0-1.57,2.91,4.74,4.74,0,0,0,.65,3.17,2.52,2.52,0,0,1,.08,1.73,2.79,2.79,0,0,1-1,1.45c-4.73,4.75-2.53,10.34-2.36,15.67,0,1,.26,2.44,1.7,2.36a3.07,3.07,0,0,0,1.07-.31,2.61,2.61,0,0,0,.83-.67,2.28,2.28,0,0,0,.46-.92,2.16,2.16,0,0,0,0-1c-2.17-3.7,1.18-5.4,3-7.66.78-1,.82-2.88,2.93-2.44s1.6,2,1.82,3.31c.28,1.73.87,3.36-.62,5.06-2.36,2.67-.49,4.59,1.87,6.35,1.54,1.17,5,1.12,4.42,3.5s-3.5-1-5.11.91a14.26,14.26,0,0,0,7.1,5.5c1.08.3,2.17,1.13,1.46,2.38-.33.57-1.51,1.42-1.75,1.29-3.5-1.93-7.54,1.1-11-1s-3.45.24-3.21,2.25a23.55,23.55,0,0,0,4.92,11.46c3.12,4,7.94,7,11.08,11.26.45.6,2.18.49,3.31.64,2.74.32,5.27.72,5.44,4,0,1.1.64,2.61,2.36,2.12s1.4-1.8.81-3-1.16-1.88-.66-3c.7-1.59,1-4,3.3-3.92s2.18,2.12,2.75,3.77c1.51,4.34-1,7.12-4.38,9.6-1,.69-2.86,1.92-1.08,2.58,3.16,1.19,2.36,3.32,2.88,5.38a8.67,8.67,0,0,0,3.45,4.59,10.33,10.33,0,0,0,5.84,1.76h7.45a5.54,5.54,0,0,1,3.28.61,4.65,4.65,0,0,1,2.13,2.32c2.22,4.47,7.59,4.23,11.82,5.48,1,.28,4.26-.65,2.51-2.5C1480.46,300.33,1481.66,296.58,1480.67,293.15Z" fill="#fff"/><path d="M1397.18,218.79c-1.92-.85-.64,2-2.6,1.84,0-4-3.27-7.37-2.37-11.57.21-.93-.61-1.59-1.18-2.33-4-5.4-8.3-10.76-8.56-17.64a9.88,9.88,0,0,0-.85-3.45,3.14,3.14,0,0,0-1-1.6,3.77,3.77,0,0,0-1.84-.82,3.94,3.94,0,0,0-2,.24,3.38,3.38,0,0,0-1.55,1.2c-2.08,3.07-6.69,6.14-1.56,10.32a3.71,3.71,0,0,1,.72,1.41,3.53,3.53,0,0,1,.06,1.55c-.57,5.55,2.67,10.59,2.88,16,0,1-.31,2.61,1.25,2.5,5.72-.36,2.82,3.39,4.26,6.36-2.51-1.36-3.71-2.12-5-2.69s-2,.51-2.64,1.37a3.69,3.69,0,0,0-.69,1.65,3.57,3.57,0,0,0,.19,1.74c.24.6,1,1.08,1.46.41,1.12-1.7,1.16-1.76,1.94.27a12.07,12.07,0,0,1,.82,5.37,12.23,12.23,0,0,1-1.64,5.22,13.3,13.3,0,0,0-1.24,8.85,14.33,14.33,0,0,0,4.71,7.86c2,1.8,11.09,3,13.29,1.72,1-.57.82-1.48,1.06-2.31a44.74,44.74,0,0,0,1.23-22.35c-.73-3-1.16-5.8,1.09-8.47C1398.1,220.63,1398.5,219.36,1397.18,218.79Z" fill="#fff"/><path d="M1585.14,261.72a3.06,3.06,0,0,0,0-2.21,3.38,3.38,0,0,0-1.47-1.77c-2.08-1.27-3.5.42-5.06,1.33-.57-6.35-8.09-13.55-15.11-14.32-.59,0-1.27.83-1.79-.25-1.68-3.45-4.73-6.36-5.09-10.4-.16-1.95,0-4.58-3.23-4.72s-3,2.54-4,4.89c-1.13-1.12-.9-2.78-2.36-2.59s-2.15,1.7-1.73,2.33c2.1,3.31-.66,8.26,4.42,10.59a8.17,8.17,0,0,1,3.13,2.51,6.83,6.83,0,0,1,1.36,3.55c.36,2.29-2.48,2.35-4,3.37a9.19,9.19,0,0,0-2.45,3.08,8.48,8.48,0,0,0-.83,3.72,8.31,8.31,0,0,0,.94,3.69,9.13,9.13,0,0,0,2.53,3,26.1,26.1,0,0,0,16,3.48c3.19-.15,6-.32,7.49,3.34,1.21,3,7.28,4.75,10.29,3.48,4.06-1.7,3.28-4.41,2-7.5C1585.18,267.57,1583.88,264.79,1585.14,261.72Z" fill="#fff"/><path d="M1636,257.86c1.73-2.43-1.84-2.71-.87-4.57,1.46.19,2.69,2.43,4.16,1.19s0-2.63-.69-4c-.92-1.86-2.36-3.47-3.4-5.16-2-3.27-6.06-5.26-7.1-8.94a7.87,7.87,0,0,0-2.35-4.43,9.45,9.45,0,0,0-4.74-2.43q-3-.47-5.93-1.21c.59-1,3.59-.53,1.54-1.93-2.37-1.65-3.53-2.92-1.52-5.34a1.48,1.48,0,0,0,.33-.6,1.38,1.38,0,0,0,0-.67,1.54,1.54,0,0,0-.29-.62,1.88,1.88,0,0,0-.55-.46c-.95-.61-2.63-1.25-3.17-.59-2.91,3.49-5,.38-7.31-.55a7.5,7.5,0,0,0-2.94-1,7.87,7.87,0,0,0-3.13.24,7.87,7.87,0,0,0,3,3.61,9.28,9.28,0,0,0,4.73,1.53c2.36.34,2.93.81,2.36,2.8-1.06,4,1,5.82,5.37,5.8,1.23,0,2,0,1.54,1.36-.31.84-.69,1.73-2.09,1a4.14,4.14,0,0,0-1.84-.53c-2.58,0-5.7-.91-6.64,2.27-.83,2.77,1.77,4.07,4,4.83a16.17,16.17,0,0,1,9,5.8c.66-3,1.06-3.85,1.77-3.79,2,.15,1.54,1.76,1.77,2.73C1623,251.64,1631.16,253.06,1636,257.86Z" fill="#fff"/><path d="M1535.47,267.93c-5.65-1.34-6.41-5.79-8.94-9.13-1-1.32-1.51-3.44-3.45-3.39s-3.5,1.46-4,4c-.92-3.28.68-6.61-1.78-8.37-5.55-4-12-3.56-18.91-2.12,2.37,3,6.15,2.84,8.84,4.52,6.15,3.77,7.57,12.85,17.36,12.41.28,0,.8.27.8.42,0,4.58,6.67,5.68,6.74,10.25a2.12,2.12,0,0,0,.1,1,2.4,2.4,0,0,0,.54.87,2.68,2.68,0,0,0,.9.6,2.82,2.82,0,0,0,1.08.22,3.85,3.85,0,0,0,1.9-.44,3.4,3.4,0,0,0,1.34-1.29C1539.77,274.85,1538.59,268.65,1535.47,267.93Z" fill="#fff"/><path d="M1857.56,207.37c-14-1.28-27.91-2.74-41.89-4.07-7.61-.72-7.54-.64-7.7,5.1,0,2.27,1.51,5.36-1.11,6.63-3.93,1.89-3.38,4.24-3.38,6.76v76l-.29-.19c-12.08-8.2-26.47-12-39.78-17.79-5.75-2.52-11.59-5-17.12-8-8.3-4.53-14.89-11.35-24.37-14.3a110.87,110.87,0,0,1-13.29-4.85c-6-2.77-11.68-6.16-18.91-6.2a14.93,14.93,0,0,1-8.32-2.63,79.42,79.42,0,0,0-14.94-7.81,9.68,9.68,0,0,1-3.45-2.5,22.77,22.77,0,0,0-8.73-5.7,122.36,122.36,0,0,1-26.19-15,90.45,90.45,0,0,0-16.17-10.19c-3.57-1.82-8.06-3.34-9.74-6.65-3-5.86-9.71-8.24-13.54-13.07-2.58-3.26-7.26-4.34-9.46-7.53a19,19,0,0,0-11.32-7.31,13.45,13.45,0,0,1-4.35-2.12,148.1,148.1,0,0,0-29.65-19.32c-2.93-1.33-6.52-3-8.86.26-1.75,2.45-3.5,2.24-6.15,2.11-8.56-.14-17-2.24-25.72-.78a29.48,29.48,0,0,1-15.67-1c-6.08-2.35-12-5-18.21-7.05-4.46-1.46-8.62-3.6-13.49-4.23-12.56-1.72-23.64,2.11-34.75,6.52a17.1,17.1,0,0,0-7.1,4.89c-2.36,2.93-4.94,3.29-7.87.93-4.07-3.26-9.6-3.66-14.18-6-2.7-1.38-6.15-1.82-9.2-3a11.91,11.91,0,0,0-10.52.53c-6,3.66-12.72,6.35-18.06,10.91-4.18,3.51-10.35,4.23-14.18,8.24a5.8,5.8,0,0,1-3.27,1,19,19,0,0,0-11,4.79,41.31,41.31,0,0,1-13.23,7.71c-13.22,4.44-23,13.3-33.64,20.88a49.94,49.94,0,0,0-10.12,10.32,109.55,109.55,0,0,1-19.48,18.66c-5.72,4.44-12.53,7.49-16.34,14.31a16.3,16.3,0,0,1-7,6.41,18.91,18.91,0,0,1-9.83,1.79c-9-.36-16.13,5.4-24.4,7.61-.26,0-.43.44-.69.63a20.86,20.86,0,0,1-7.34,4,22.6,22.6,0,0,1-8.54,1,36.39,36.39,0,0,0-15.61,2.12c-5.22,1.8-10.33,3.9-15.43,6a126.47,126.47,0,0,0-23.31,13V244.84c0-4.24-1-7.23-7.28-6.59-2.11.21-4.23-.49-3.9-2.54,1.08-7-4.45-6.84-10.17-6.65-2.36,0-4.73.1-7,0-4.73-.26-7.47.93-6.88,5.33.24,1.76,0,4-2.91,3.79-7.09-.46-7.09,3.18-7.09,7.31V319.9c0,1.42,0,2.86-.12,4.24a2.33,2.33,0,0,1-.19,1.1,2.69,2.69,0,0,1-.68.94,3.08,3.08,0,0,1-1.06.6,3.18,3.18,0,0,1-1.23.15c-2.13,0-3.22-.74-3.38-2.5-.12-1.39,0-3.19-2-3.58-4.73-.82-4-3.66-4-6.35V272c0-3-.59-5.48-5.29-5.14-3.9.29-4.94-1.36-4.87-4.24.14-6.7,0-13.37,0-20,0-3.07-1.42-4.24-5.11-4.24-7,0-13.9-.12-20.85,0-4.35.13-5.74-1.31-5.7-4.76.19-9.38-.12-18.77.17-28.15.14-4.53-1.28-7-7.42-6.36-1.94.2-5.06.54-5.09-1.88,0-3.39-3-4.85-5-7.1-3.45-3.89-7.64-7.49-7.24-13,.17-2.12-2.08-3.77-5-3.79s-5.23,1.52-5.18,3.66c0,5.23-4.09,8.3-7.54,11.82-2.74,2.82-7.83,4.24-7.26,9,.14,1.21-2,1.46-3.28,1.31-6.91-.84-7.81,2.12-7.78,7,.16,39.27,0,78.54,0,117.81a44.64,44.64,0,0,1-.17,4.76c-.16,1.59-1.34,2.12-3.16,2.12s-2.91-.8-3-2.31-.12-2.86-.12-4.23V284.19c0-2.12.62-4.91-3.26-5.21-4.73-.34-4.85-2.73-4.73-5.68V234.2c0-7.47-1.58-9-10.59-9-15.65-.13-31.3,0-47,0-4.73,0-6.5,1.59-6.43,5.38.14,7.94-.12,15.91,0,23.85,0,3.64-1.37,5.42-6,5-1.14-.11-2.37,0-3.48,0-4.4-.38-6.36,1-6.15,4.85.29,4.76,0,9.53,0,14.3,0,2.77-1.22,4-4.72,4.23-6.29.21-7.24-.4-7.24-5.84V155.24c0-8.86-2.81-11.19-13.24-11.19H811.92c-10,0-13.5,2.82-13.54,11.13v37.7c0,2.62-.36,4.23-4.43,4.83-6.12.76-8.34,3.58-8.36,8.87v44.84c0,1.8.89,4.13-1.94,5s-2.82,2.5-2.65,4.24c.35,3.45-1.33,5.17-5.63,4.72-6.14-.63-7.37,1.91-7.28,6.46.29,13.66.12,27.35,0,41,0,2.12.66,4.62-3.57,4.87-3.85.25-5.1-1.29-5.48-4.11-1.11-8.2-2.37-16.37-3.55-24.59-2.5-18.45-6.22-36.81-7.42-55.39C745.71,198,752.8,163,760.41,128.13a3.49,3.49,0,0,1,.4-1.54,3.83,3.83,0,0,1,1.05-1.26,4.41,4.41,0,0,1,1.53-.77,4.68,4.68,0,0,1,1.75-.16,28.56,28.56,0,0,0,10.61-2.12c1.75-.78,3.36-1.78,1.63-3.75-4-4.57-3.21-6.35,3.15-8.15,3.42-1,7.51-.91,10.68-3.79-5.46-2.12-12.48-2-13.54-8.29-.12-.65-2.6-1.12-4.07-1.5l-26-6.5c-2.63-.64-4.35-1.17-1.63-3.73,2.12-2-.88-9.76-3.72-9.83-7.25-.13-7.09-4.23-7.09-8.22-.12-6.67,0-13.36-.35-20,0-1.85.78-5.11-2.13-5.11-2.51,0-1.42,3.16-1.47,4.89-.16,6.68-.26,13.37,0,20,0,3.43-2.57,7.14-4.89,7.35-6.69.59-11.25,1.8-12.84,8-.33,1.29-1.63,1.84.19,2.94,3.79,2.33,1.35,3.26-1.44,3.92-6.48,1.54-13,3-19.5,4.49-3.78.91-8.25,1.12-8.18,5.89,0,1.61-2.22,2.12-3.81,2.58-2.15.72-4.35,1.31-6.5,2.12-.85.3-1.94.57-1.82,1.59s1.28,1.08,2.18,1.27c4.08.93,8.22,1.74,12.26,2.77s5.58,4.58,2.91,6.51c-4,2.86-1.39,3.91,1.42,5a24.1,24.1,0,0,0,9.46,1.8,5.62,5.62,0,0,1,2.2,0,5.32,5.32,0,0,1,2,.88,4.6,4.6,0,0,1,1.37,1.55,4.11,4.11,0,0,1,.51,1.92c1.35,6.89,2.88,13.77,4.23,20.66a406.18,406.18,0,0,1,7.47,44.81c.31,3.65-1,5.11-5.77,5-14.18-.23-28.2,0-42.29-.14-4.73,0-6.5,1.25-6.41,5.21.24,8.89,0,17.81,0,26.71,0,2.35,0,4.85-4,4.53-6.87-.55-7.35,2.8-7.28,7.12.17,11.6,0,23.3,0,34.82,0,3.62-1.53,5.32-6.1,5.08-2.88-.15-5.79,0-8.67,0-3.38,0-7.09-.48-7.87,3.75a1.26,1.26,0,0,1-2.51,0c-.78-4.23-4.42-3.77-7.87-3.79H598.19c-3.64,0-7.61-.34-7.42,5a7.3,7.3,0,0,1-1.4-2.83,6.82,6.82,0,0,1,0-3.08V238.86c0-2.12.7-4.81-3-5.51-3.24-.63-3.62-2.39-3.62-4.63,0-1.87.29-4.24-3-4.35a7.9,7.9,0,0,1-4.46-1.39,6.71,6.71,0,0,1-2.63-3.52c-2.36-4.7-6.19-6.5-12.2-5.82a72.55,72.55,0,0,1-7.52,0,5.14,5.14,0,0,0-2.49.3,4.64,4.64,0,0,0-2,1.41c-2.84,4.24-3.93,10-12.25,9.36-.33,4.92-6.36,7.9-7.09,12-.83,4.77-2.72,6-7.85,5.51-1.91-.19-3.88,0-5.79,0-2.91,0-4.52,1-4.16,3.43.75,4.75-2.37,5.81-7.09,5.43-4.12-.34-6.08,1.1-5.8,4.68.24,3,0,6,0,9.06,0,1.42-.11,3.12-2.62,3s-2.36-1.78-2.36-3.2c0-4.23-.26-8.6,0-12.88s-1.37-5.93-6.88-5.86q-27,.38-53.9,0c-5.18,0-6.74,1.54-6.67,5.55.21,10,.17,20,0,30,0,2.12,1.51,5.93-2.36,5.87s-2.06-3.88-2.06-6c-.14-34.34,0-68.67-.14-103,0-2.12.8-4.83-1.7-6.35-6.1-3.52-11.61-7.86-19.6-8.67-15.89-1.61-31.75-3.51-47.61-5.21-7.85-.84-7.78-.76-7.94,5.93,0,2.65,1.53,6.25-1.19,7.73-4,2.12-3.47,5-3.47,7.88V280.82c0,3.33,1.53,7.2-.85,9.79s-7.73,0-10.88,1.42c-4.58,2-7.73,2.71-12.88.17-3.55-1.74-9.46-.34-14.19-.32-1.86,0-3.8.51-3.75,2.29.16,4.66-3.57,4.4-7.4,4.34-4.73,0-9.67-.19-14.49,0-4.31.19-5.77-1.21-5.7-4.7.19-9.71,0-19.41,0-29.11a4.57,4.57,0,0,1,.49-3,5.4,5.4,0,0,1,2.3-2.21c3.66-2.11,1.89-5.84,1.53-8.85s-3.66-2.35-6-2.39q-9.3-.2-18.54,0c-4.14,0-7.09,0-7.92-4.68-.68-4.24-7.09-6.89-8.91-4.54-3.05,3.94-7.09,2.82-11.2,3.1-1.83.12-4.9-.51-5.06,1.27-.57,6-5.72,4.76-10.12,4.8-8.32.11-9.32,1-8.54,7.84.19,1.78.26,3.52,3.08,4,2.22.39,2.15,2,2.17,3.46v24.8c0,1.19.38,3-1.72,3.05-2.63,0-2.11-1.95-2-3.24.17-3.24-.38-5.59-5.41-5.55-13.9.13-27.8,0-41.72,0-3.83,0-5.68,1.34-5.61,4.57,0,1.68.59,4-2.1,4.47-4,.75-3.9,3-3.88,5.45s0,5.42,0,8.11c0,1.57.26,3.56-2.58,3.52s-2.48-2.12-2.48-3.6c0-7.16-.19-14.32,0-21.46,0-3.69-1.51-5.17-6-5.1-10.83.14-21.64.16-32.46,0-4.73,0-6.53,1.29-6.41,5.27.26,8.58,0,17.15.12,25.75,0,3-1.21,4.24-5,4.24-9.27-.13-18.54-.1-27.8,0-3.5,0-4.87-1.19-4.73-4s-.24-5.74,0-8.58c.47-4.24-1.89-5.66-6.76-5.49-2.79.11-6.34,1.06-8.18-1.18-2.37-2.84-5.39-2.63-8.65-2.65-4.24-.19-8.49-.19-12.72,0-6.67.57-14.35-2.48-19.74,3.43-.47.53-2.2.32-3.34.38-8.67.34-8.69.34-8.69,7.56l-4.38,1283.18H1854.27S1855.89,252.52,1857.56,207.37ZM1742,284.21a4.1,4.1,0,0,0,1.89,1.43,4.58,4.58,0,0,0,2.46.24c1.85-.4,1.09-2.26,1.56-3.43.88-2.24.73-4.13-2.36-4.7-1.42-.25-2.06-1.16-1.3-2.29s1.82-.25,2.55.15c3.83,2.12,9.86,2.12,9.46,8.13,0,.77.42,1.72,1.3,1.7,5.06-.15,8.08,3.71,12.43,5,2.56.72,5.34,2,7.59.4a5.5,5.5,0,0,1,6.76,0c5.46,3.39,12,5.13,17,9.11a23.1,23.1,0,0,0,2.37,1.63v7.07c-.26,2.73,1.23,6.08-1.06,8.31v-.13c-2.37,2.27-7.5,0-10.55,1.21-4.44,1.71-7.49,2.33-12.46.14a13.93,13.93,0,0,0-5.81-.74,8.21,8.21,0,0,0-4.73-.48,16.52,16.52,0,0,1-6.11-.15,15.79,15.79,0,0,1-5.52-2.35c-1.11-.66-2.15-1.4-3.31-2-3.48-1.65-7-.13-10.09.67-2.09.56.23,3.12,0,4.83s-.55,3.71-.81,5.55h-2c-4.16.17-5.6-1-5.53-4v-5.17c2,.23,3.71-2.63,5.81-2.86a1.79,1.79,0,0,0,.72-.19,1.51,1.51,0,0,0,.54-.46,1.37,1.37,0,0,0,.25-.63,1.4,1.4,0,0,0-.11-.67c-.76-2.33-2.93-2.67-5.16-2.56a16.85,16.85,0,0,1-2,0V294.55a3.88,3.88,0,0,1,.54-2.63,4.56,4.56,0,0,1,2.18-1.82c3.55-1.78,1.82-5,1.49-7.58a2.85,2.85,0,0,0-.16-.64A14.92,14.92,0,0,1,1742,284.21Zm-470.86,3.39c.9-1.33,2.1-.32,3.22-.25a6.26,6.26,0,0,0,2.36-.12,5.94,5.94,0,0,0,2.1-1,5.34,5.34,0,0,0,1.48-1.67,4.69,4.69,0,0,0,.58-2c0-5.66,2.36-11,1.68-16.65-.43-3.71,2.67-4.85,5.41-5.15,3.34-.38,3.76,2.12,3.29,4.64-.17.93-.14,1.86,1.11,2.12s1.77-.74,2-1.57c1.2-4.62,2.36-9.23,3.38-13.89a2.66,2.66,0,0,0-.37-1.5,3.13,3.13,0,0,0-1.17-1.11,11.92,11.92,0,0,1-4.56-5.7,10.73,10.73,0,0,1-.17-7c2.55-6.61,0-12.83.78-19.06.24-2.22-1.75-5.44,1-6.46,3.31-1.23,4.42,2.22,5.7,4.24.8,1.29,4.32,1.8,1.89,4.23s-1.73,4.92-.38,7.39a15.77,15.77,0,0,1,2.65,9.26c-.36,4.07,2.15,5.89,6.07,4.49,3.36-1.23,3.53.32,4.09,2.25.85,2.94.69,5.29-3.54,5.8-1.14.13-2.65.74-2.7,1.71-.19,3.94-3.09,5.83-6.36,7.78-2,1.21-1.79,3.39-1,5.29a3.1,3.1,0,0,0,1.42,1.53,3.63,3.63,0,0,0,2.18.36,5,5,0,0,0,2.71-1,4.17,4.17,0,0,0,1.52-2.26,7.07,7.07,0,0,0,.42-2.12c0-2.25.57-2.69,3.22-1.84,4.09,1.29,6-.39,6-4.41s4-7.41,2.37-11.69c5.36-4.24,3.31-8.48-.22-12.27s-5-8.6-11.06-9.57c-.78-.13-2-.61-1.3-1.34,3.26-3.28.52-7.17,1.58-10.69.45-1.53,2.08-4.53-.26-5s-1.84,2.9-3,4.24a2.9,2.9,0,0,1-.74.44c-2.1-1.08-3.42-2.29-1.41-4.53a3.55,3.55,0,0,0,.77-1.36,3.27,3.27,0,0,0,.1-1.52c-.8-2.48,1.21-3.16,2.79-3.12,4,.11,3.76-2.52,2.77-4-2.16-3.33.61-3.5,2.67-4a15.45,15.45,0,0,1,4.94-.11c3,.36,3.85-.74,4.58-3.26a17.48,17.48,0,0,1,4.61-7.72,20.32,20.32,0,0,1,8.14-4.84,31.48,31.48,0,0,1-4.35,9.89c-2.94,3.88-5.8,9.91-2.11,15.65a9.91,9.91,0,0,1,.74,4.77c.14,3.28,3.54,3.79,6,3.83,2.86,0,3.87-2.12,2.88-4.51-2-4.64-1.61-8.47,3.78-11a1.4,1.4,0,0,1,.75.55,1.23,1.23,0,0,1,.18.85c0,1.18-.5,2.54,1.44,2.75s2.2-1.35,2.53-2.62c.61-2.36,1.11-4.58-1.75-6.36a4,4,0,0,1-1.49-1.79,3.55,3.55,0,0,1-.12-2.23c1.18-4.56-1.25-7.9-4.49-11.4a29.31,29.31,0,0,0,15.65-8.2,10.19,10.19,0,0,1,3.34-2.29,11.07,11.07,0,0,1,4.08-.9,5.63,5.63,0,0,0,2.83-.76,4.73,4.73,0,0,0,1.9-2c.9-1.69.42-3.37-1.89-2.86-4.42,1-9.46,0-13.24,3-.83.65-1.82,1.74-3,.87s-.21-1.83.48-2.69,1.32-1.34.92-2.36c-1.44-.5-2.36,1.81-4.3.28a8.29,8.29,0,0,1,2.66-2.71,9.45,9.45,0,0,1,3.72-1.38c2.36-.25,3.24.26,4.3-1a22.35,22.35,0,0,0,1.51-2.27,12.66,12.66,0,0,1,7.18-4.69,14,14,0,0,1,8.85.71c5.16,1.86,10,4.23,15,6.23a28.84,28.84,0,0,1,7.28,3.34c2.37,1.72,5.94,3.5,8.56,3.12,10.66-1.64,20.71-4.75,25.51-14.83.61-1.31,1.79-1,2.88-1.12a62,62,0,0,1,35.44,7.58,42.51,42.51,0,0,0,21.27,4.51c10.55-.27,21.07-1.06,31.54.55a6.24,6.24,0,0,0,3.4.05,5.7,5.7,0,0,0,2.82-1.72,3.57,3.57,0,0,1,2.29-1.3,3.88,3.88,0,0,1,2.65.54c4.73,2.69,9.93,4.57,14.46,7.62,5.94,4,10.57,10,17.52,12.1,9.1,2.75,14.19,9.25,20.4,14.69,5.65,5,13.24,8.48,16.55,15.32.19.36.73.57,1.14.85,8.88,6.35,19.38,10.46,27.54,17.77,3.59,3.22,9.45,4.23,12,8.77,8.77,1.08,15.18,5.86,21.65,10.73,2.53,1.91,4.26,3.08,1.85,5.89a2,2,0,0,0-.55,1.47,2,2,0,0,0,.71,1.41,129,129,0,0,0,13.15,10.47c4.18,2.75,10.07,3.39,15.1,5.17,2.53.89,2.79,0,2.84-1.91.14-4.45-4.47-6.52-7.09-6.91-6.79-1-11.26-5-16.55-7.81a6.34,6.34,0,0,1-2.19-1.77,5.37,5.37,0,0,1-1-2.47,8.56,8.56,0,0,1,1.75.15,8.17,8.17,0,0,1,2.13,1.12,30.9,30.9,0,0,0,20.52,7.42,8.92,8.92,0,0,1,4.28,1,8,8,0,0,1,3.07,2.86,6.59,6.59,0,0,0,2.22,2.39,7.64,7.64,0,0,0,3.22,1.15c12.48.4,18.91,9,26.87,15.55a3,3,0,0,1,1.21,1.91c0,2.73,1.64,4.45,3.47,6.05a2.17,2.17,0,0,1,1.38,1.2c-.46-.4-.93-.79-1.38-1.2a14.3,14.3,0,0,0-4.32-.27q-8.94-.15-17.92,0c-4,0-7,0-7.66-4-.66-3.66-6.83-5.91-8.63-3.87-2.95,3.37-6.95,2.41-10.83,2.65H1687c-4.72-4.39-9.9-8.48-18.22-9.37,5.34,4.37,8.27,9.81,12.29,14.34a28.8,28.8,0,0,1-6.69.24c-8,0-9,.84-8.25,6.73.19,1.51.26,3,3,3.43,2.15.32,2.08,1.72,2.08,3v.29a37.3,37.3,0,0,1-8.09-2.31,36.93,36.93,0,0,0-13-2.39,4.28,4.28,0,0,0-2.63.55,3.61,3.61,0,0,0-1.61,1.93c-.56,1.61-.85,3.64,1,4.47,4.87,2.12,8.6,6.48,14,7.37a44.86,44.86,0,0,1,10.4,3.3v8.07c0,1,.35,2.55-1.66,2.61-2.55,0-2-1.67-2-2.78.16-2.77-.38-4.78-5.23-4.76h-4.06c-.19-.81-1.3-1-2.37-1a11.28,11.28,0,0,0-5.48,1h-28.68c-3.71,0-5.48,1.14-5.43,3.94v.51a27.83,27.83,0,0,0-10.4-1.93h-.34v-1.59c0-2.71-1.06-4-4.16-4.23a5.66,5.66,0,0,1,2.53-1.23c1.21-.24,2.72,0,3.24-1.55-1-1.27-2.76-1.84-3.31-3.66a4.45,4.45,0,0,0-2.28-2.59,5.35,5.35,0,0,0-3.65-.42c-6.86,1-14.47.83-20.28,3.62-7.92,3.81-16.1,4-24.33,5-2.77.32-5.63.23-5.25-3.88.26-2.69-1.13-5.48-1.27-8.26,0-1.93-.78-2.29-2.79-2.67-3.22-.63-7.1-.25-8.61-4.36a3,3,0,0,0-.79-1.51,3.67,3.67,0,0,0-1.53-.95,4,4,0,0,0-1.86-.14,3.73,3.73,0,0,0-1.68.72c-1.11.71-2.37-.77-3.19-1.64-1.3-1.31-2.48-2.77-3.81-4.08-.73-.75-1.65-1.91-2.84-1.17s0,1.8.26,2.73c1.33,4.56,6.15,6.89,8.49,10.74,2.55,4.24,8.13,6.63,8.87,11.91,0,.25.4.46.63.65,1,.83,2,1.74,3.48,1.44,1.82-.36,1.23-1.78,1.3-2.92s-.47-2.12,1.49-2.61c.68,3.56-.71,6.87-.92,10.23-.4,5.75,0,5.72-6.41,5.6-1.32,0-2.65.25-3.95.23-6,0-12.74-.74-15.84-5s-7.42-4-11.27-5.3c-2.37-.82-3,1.74-3.22,3.52,0,.95,0,2.27,1.61,2.33,3.45,0,3.66,0,4,3a8.7,8.7,0,0,0,1.92,4.79,13,13,0,0,0-6.93-1.11c-4.11,0-8.25-.25-12.32,0-6.45.49-13.87-2.11-19.1,2.95-.45.44-2.13.27-3.24.32-8.39.29-8.39.29-8.39,6.5v2.12c-8.63,0-9.64.25-10.71,6.12l-3.43,1c-1.22-.91-2.64-1.06-3.49.38a6.32,6.32,0,0,1-1,1.29,22.68,22.68,0,0,0-3.6,2.12,39.28,39.28,0,0,1-4.35.63c-3.35.45-4.72,1.61-4.56,4.35v.88a6.18,6.18,0,0,0-2.36,4c-.57,2.48-1.47,3.81-2.74,4.09V339.83a9.53,9.53,0,0,1,3.23-1.25c.33,1.25-1.56,4.24,2.37,3.22,2.6-.65,9.26-9,9.24-11.39,0-1.53,0-3.41-2.53-2.71s-3.9-.41-5.62-1.68c-3-2.12-5.8-1.27-6.51,2-1.27,5.89-3.52,6.95-9.45,4.49v-.63a18.91,18.91,0,0,0-.26-4.75,3,3,0,0,0-4.73-1.88c-4.73,3.41-9.95,1.4-14.92,1.95a9.32,9.32,0,0,1-2.36,0,12.71,12.71,0,0,0-3.4-6.36V297.17c0-6-.34-6.22-7.43-6.35h-35.58a20.92,20.92,0,0,1,5.58-1.61c5.56-1.14,9.79-5.89,7.64-9.51-1.8-3-.73-3.79,2-4.91s3.76-2.65.43-4.24a2.22,2.22,0,0,1-.7-.58,2,2,0,0,1-.39-.78,36,36,0,0,1-2.6-17.53c.4-3.52-1.49-4.6-5.15-3.39-3.08,1-4.73.53-5.25-2.86-.71-4-4.28-5.53-6.93-3.18s-5,5-3.64,8.64-.26,5-4.3,4.53c-1.66-.21-3.26-.55-4.92-.67-2.74-.17-4.73,1.14-3.07,3.39,4.73,6.22,1.46,12.24.26,18.38-.33,1.76-1.52,2.59-3,1.74-2.1-1.17-4.73-2.25-4-5.38a26.44,26.44,0,0,0,.85-5.72,4.36,4.36,0,0,0-.67-3,5.13,5.13,0,0,0-2.59-2,4.92,4.92,0,0,0-3.41.05,4.41,4.41,0,0,0-1.41.9,3.87,3.87,0,0,0-.93,1.32,4.46,4.46,0,0,1-1.48,1.73,5,5,0,0,1-2.23.87c-4.09.55-8,3.37-7.92,6.12.17,7.16-5.43,8.48-10.66,10.49-.28.12-.54.32-.83.46-3.26,1.76-4.72,3.56-1.2,6.53,2.79,2.39,2,4-1.92,4.61-4.73.7-9,.34-10.75-4.64C1272.24,289.53,1270.25,288.93,1271.15,287.6Zm412.66-10.29a4.08,4.08,0,0,1-1,1.86,7.93,7.93,0,0,1-1-3.39v-.13C1682.53,276.29,1683.2,276.84,1683.81,277.31Zm-505.19.86c1.9-3.79,9.08-4.74,12.89-2.11.38.23,1.79.14.87.93-1.3,1.14-1.25,1.74.5,2,1.37.19,2.88,0,2.93-1.57s1.32-2.5,2.58-3.52a7.28,7.28,0,0,0,2.84-3.57,6.55,6.55,0,0,0,0-4.39,4.38,4.38,0,0,1-.41-2.63,4.68,4.68,0,0,1,1.19-2.43c2.36-2.25,3.38-4.41.49-7.46,5.56,1.06,9-.19,10.26-4.66.52-1.75,3.29-2.71,3.57-2.22,1.42,2.67,6.41,3.16,5.65,6.84-1.11,5.27,2.51,6.35,7,7,5.51.65,10.78,1,14.18,6.25a13.21,13.21,0,0,0,4.36,3.71,15,15,0,0,0,5.71,1.71c-3.41,2.1-5-1.64-7.62.07,2.41,1.92,2,3.7-.65,5.35-1.4.87-1.66,2-.29,3.35a30.79,30.79,0,0,1,2.91,3.94c-8.15,3.81-16.76,2.11-25.08,2.56-7.42.34-9.46,2.86-7.09,9,.23.64,1.91,1.13.28,2.12-5.55,3.2-10.54,7.61-18,6.8a9.74,9.74,0,0,0-3.87.57,4.55,4.55,0,0,0-2,1.07,3.81,3.81,0,0,0-1.15,1.82,3.63,3.63,0,0,0,0,2.09,4,4,0,0,0,1.18,1.8c.76.85,2.56.74,2.58,2.25-3.05.19-6,.25-9,.59a17.86,17.86,0,0,1-3.43.3h-.28a2.94,2.94,0,0,1-2.36-2.23,1.31,1.31,0,0,0-.36-.46,1.41,1.41,0,0,0-.54-.29,1.84,1.84,0,0,0-.62,0,1.52,1.52,0,0,0-.59.19,1.35,1.35,0,0,0-.47.35,1.21,1.21,0,0,0-.28.49,1.13,1.13,0,0,0,0,.55,1.07,1.07,0,0,0,.2.51,9.28,9.28,0,0,1,.4.87,23.22,23.22,0,0,1-2.36,0c-2-.17-5.34.38-5.11-1.9.52-5.26-2.64-10.85,1.16-15.8a1.8,1.8,0,0,0,.19.74c1.06,2.22,2.88,0,4.28.4a7.14,7.14,0,0,0,4.59,0,6.21,6.21,0,0,0,3.38-2.78c1.41-2.62-1.23-5-3-7s-5.13-2.94-6.07-5C1172.74,281.31,1177.42,280.59,1178.62,278.17Zm44.5,23.06a6.68,6.68,0,0,0-1.26-3c4.54,6.35,11,5.52,17.47,5.1,1.49-.11,4.33-.32,4.42,1.8.12,1.95-2.46,2.37-4.06,2.8a29.12,29.12,0,0,1-14.19,0,3.43,3.43,0,0,1-1.3-.38,2.93,2.93,0,0,1-1-.85,2.53,2.53,0,0,1-.36-2.37A6.5,6.5,0,0,0,1223.12,301.23Zm-55.63-14h0c3.9-1.27,5.06-.81,7,3.26-2.37,0-5.37-3.28-6.43-.32s3,3.8,5.67,4.56c0,1-1,1.4-1.84,1.82.52-.7.21-1.25-.55-1.65-3.33-1.76-6.45-4.45-9.83-6.1C1163.47,288.3,1165.53,287.87,1167.49,287.24ZM745,126.84c8.37,0,8.7-.17,7.54,6.6-2.37,14.58-4.94,29.17-10.43,43.26-.63,1.29-1.32,2.51-2,3.76h0l-.76-.14v-24c0-1.8.59-3.1,3.1-3.31,3.92-.32,3.57-2.81,3.57-5s.4-5-3.93-5.18c-2.36-.13-2.74-1.49-2.74-3.06,0-2.69.17-5.38,0-8.07C739,128.21,740.67,126.88,745,126.84Zm-27.78,15.08a93,93,0,0,0-1.7-10.87c-1-3.39,1-4.24,4.35-4.62,4-.31,3.76,2,3.76,4.11v49.08h-.52Q720.11,160.77,717.17,141.92Z" fill="#fff"/><path d="M1342.8,216.16c-.63-1.76-1.49-4-3.85-2.65-3,1.82-8.79,2.12-8.18,6.52s1.87,9.07,7.42,11.19c.93.34,2.13,1.25,2.37.27,1.42-3.75,5.06-6.48,5.84-10.44C1347,218.34,1343.56,218.09,1342.8,216.16Z" fill="#fff"/><path d="M1527.38,191c2.18,1.1,4.54.23,3.74-2.12a100.84,100.84,0,0,1-3.55-18.72,2.15,2.15,0,0,0-.6-1.58,2.72,2.72,0,0,0-1.63-.8,2.89,2.89,0,0,0-1.8.39,2.3,2.3,0,0,0-1,1.37A22.68,22.68,0,0,0,1520,179c0,4,4.4,7.73,0,12.7C1523,187.88,1525,189.85,1527.38,191Z" fill="#fff"/><path d="M1636.84,280.44c-1.78.26-1.89,1.3-1.66,2.63.62,3.11,3.6,3.92,6.81,5.13-4.16,2.81-6,6.77-12,8.26,9.12,1.69,12.08-.34,14.4-8.22C1645.18,285.55,1639.79,280,1636.84,280.44Z" fill="#fff"/><path d="M1524.41,243.67c-1,1.76-3.74,3.71-.31,5.64,1.13.63,2.36,1.06,3,2.12,2.37,4.23,6.93,5.38,11.49,7.26.9-3.9-3.66-3.58-4.13-5.89-.76-3.7-4-5.91-6.39-8.6C1527.46,243.65,1526,241,1524.41,243.67Z" fill="#fff"/><path d="M1677.71,258.84a3.94,3.94,0,0,0-1.32-.23c-1.37.27-3.12.29-3.24,1.69a4.76,4.76,0,0,0,.6,2.57,5.46,5.46,0,0,0,1.93,2c4,2.76,9.45,3.73,11.82,8.33.16.29,1.23.44,1.75.29a1.38,1.38,0,0,0,.54-.27,1.28,1.28,0,0,0,.35-.45,1.14,1.14,0,0,0,.11-.54,1.31,1.31,0,0,0-.17-.54A34.76,34.76,0,0,0,1677.71,258.84Z" fill="#fff"/></svg>