<svg width="1440" height="1295" viewBox="0 0 1440 1295" fill="none" xmlns="http://www.w3.org/2000/svg">
<path d="M1176.99 207.956L1176.99 207.951C1176.17 204.402 1175.36 200.913 1171.04 198.474C1167.64 196.522 1164.82 193.934 1161.99 191.331C1159.66 189.191 1157.33 187.042 1154.64 185.227C1151.31 182.954 1150.33 179.192 1149.38 175.556C1149.16 174.699 1148.94 173.849 1148.69 173.028C1148.45 172.268 1148.31 171.453 1148.17 170.641C1147.84 168.764 1147.51 166.9 1146.02 165.758C1144.59 164.891 1143.41 163.684 1142.57 162.245C1141.77 160.868 1141.35 159.297 1141.36 157.701C1141.36 156.843 1141.27 155.984 1141.18 155.128C1140.96 153.058 1140.75 151.003 1141.82 148.998C1143.33 146.164 1141.82 144.63 1139.84 143.23C1138.98 142.647 1138.02 142.232 1137.01 142.006C1135.99 141.771 1134.93 141.72 1133.88 141.855C1131.97 142.079 1131.45 143.303 1130.8 144.829C1130.51 145.527 1130.19 146.287 1129.69 147.045C1129.77 144.817 1129.07 142.632 1127.71 140.866C1127.51 140.662 1127.35 140.419 1127.24 140.152C1127.13 139.885 1127.07 139.599 1127.07 139.31C1127.07 139.021 1127.13 138.735 1127.24 138.468C1127.35 138.201 1127.51 137.959 1127.71 137.755C1128.8 136.766 1129.87 136.917 1130.82 138.116C1131.78 139.314 1132.6 138.644 1133.24 137.931C1134.6 136.444 1135.39 134.527 1135.48 132.515C1135.48 131.598 1134.22 131.725 1133.26 131.822C1133.18 131.83 1133.11 131.837 1133.04 131.844C1129.39 132.129 1127.67 130.67 1127.73 127.317C1127.73 125.741 1127.59 124.155 1127.46 122.572V122.55C1127.37 121.554 1127.29 120.56 1127.24 119.57C1127.27 119.111 1127.21 118.65 1127.06 118.216C1126.91 117.782 1126.66 117.385 1126.35 117.051C1126.03 116.716 1125.65 116.452 1125.22 116.275C1124.8 116.098 1124.34 116.012 1123.88 116.023C1121.6 115.864 1120.85 117.549 1120.53 119.159C1120.39 119.907 1120.4 120.703 1120.4 121.492V121.493C1120.41 122.765 1120.42 124.019 1119.84 125.028C1117.75 128.695 1119.81 131.257 1121.89 133.851L1121.94 133.915C1121.99 133.988 1122.05 134.061 1122.11 134.135C1122.9 135.167 1123.73 136.24 1122.78 137.21C1122.08 137.854 1121.61 138.713 1121.46 139.65C1121.32 140.572 1121.52 141.513 1122 142.308C1122.2 142.768 1122.22 143.282 1122.07 143.758C1121.93 144.243 1121.64 144.67 1121.23 144.974C1118.16 148.055 1118.57 151.557 1118.98 155.054C1119.1 156.077 1119.22 157.1 1119.25 158.112C1119.25 158.95 1119.47 160.158 1120.68 160.091C1120.99 160.059 1121.3 159.971 1121.58 159.831C1121.84 159.693 1122.08 159.502 1122.27 159.269C1122.46 159.045 1122.59 158.781 1122.66 158.498C1122.72 158.222 1122.72 157.935 1122.66 157.659C1121.23 155.232 1122.64 153.831 1124.06 152.429C1124.45 152.039 1124.84 151.649 1125.17 151.237C1125.35 151.013 1125.48 150.736 1125.61 150.457C1125.97 149.695 1126.33 148.921 1127.63 149.191C1129.01 149.48 1129.05 150.344 1129.09 151.233C1129.1 151.479 1129.12 151.728 1129.16 151.966C1129.19 152.163 1129.22 152.359 1129.26 152.553C1129.49 153.789 1129.72 154.977 1128.64 156.209C1126.66 158.447 1128.23 160.057 1130.2 161.533C1130.63 161.856 1131.23 162.069 1131.83 162.279C1133.04 162.708 1134.24 163.13 1133.91 164.467C1133.66 165.48 1132.91 165.249 1132.05 164.985C1131.22 164.728 1130.29 164.442 1129.63 165.23C1131.06 167.368 1133.15 168.986 1135.58 169.842C1136.48 170.093 1137.4 170.789 1136.8 171.837C1136.53 172.315 1135.54 173.028 1135.34 172.919C1133.89 172.123 1132.34 172.333 1130.79 172.542C1129.19 172.759 1127.59 172.975 1126.11 172.08C1123.21 170.32 1123.22 172.281 1123.42 173.967C1123.91 177.482 1125.33 180.801 1127.55 183.575C1128.79 185.175 1130.37 186.584 1131.96 188.008L1131.96 188.009C1133.7 189.569 1135.46 191.148 1136.84 193.016C1137.11 193.381 1137.95 193.432 1138.75 193.481C1139.06 193.5 1139.35 193.518 1139.61 193.552C1141.91 193.821 1144.03 194.156 1144.17 196.906C1144.17 197.828 1144.71 199.094 1146.15 198.683C1147.59 198.273 1147.32 197.174 1146.83 196.168C1146.75 196.004 1146.67 195.852 1146.59 195.708C1146.2 194.967 1145.93 194.439 1146.28 193.653C1146.39 193.395 1146.49 193.112 1146.59 192.823C1147.02 191.616 1147.49 190.312 1149.04 190.366C1150.56 190.419 1150.82 191.489 1151.1 192.617L1151.1 192.619L1151.1 192.62C1151.17 192.924 1151.25 193.233 1151.35 193.527C1152.62 197.166 1150.51 199.497 1147.68 201.576L1147.61 201.623C1146.76 202.209 1145.32 203.2 1146.77 203.739C1148.77 204.491 1148.88 205.689 1149 206.973C1149.04 207.394 1149.08 207.824 1149.19 208.25C1149.68 209.824 1150.71 211.181 1152.08 212.098C1153.53 213.072 1155.23 213.586 1156.97 213.574H1163.22C1164.17 213.458 1165.13 213.636 1165.97 214.085C1166.77 214.506 1167.41 215.194 1167.76 216.031C1169.17 218.866 1172.09 219.441 1174.96 220.007C1175.88 220.189 1176.8 220.37 1177.67 220.625C1178.51 220.86 1181.24 220.08 1179.77 218.529C1178.12 216.739 1177.99 214.768 1177.85 212.812C1177.79 211.789 1177.72 210.771 1177.43 209.784C1177.27 209.176 1177.13 208.565 1176.99 207.956Z" fill="#FFF0CA"/>
<path d="M1107.43 147.438C1106.61 147.075 1106.49 147.517 1106.35 148.02C1106.21 148.505 1106.06 149.047 1105.25 148.981C1105.25 147.509 1104.73 146.139 1104.2 144.767C1103.52 143.013 1102.84 141.256 1103.27 139.281C1103.41 138.658 1103 138.18 1102.58 137.697C1102.48 137.574 1102.37 137.452 1102.28 137.327C1102.18 137.192 1102.08 137.057 1101.98 136.922L1101.67 136.513C1098.5 132.256 1095.31 127.96 1095.1 122.537C1095.04 121.538 1094.8 120.558 1094.39 119.645C1094.25 119.122 1093.96 118.654 1093.55 118.303C1093.11 117.938 1092.57 117.701 1092.01 117.616C1091.44 117.536 1090.86 117.606 1090.33 117.817C1089.81 118.016 1089.35 118.367 1089.03 118.823C1088.7 119.316 1088.28 119.81 1087.87 120.31C1086.1 122.418 1084.25 124.643 1087.72 127.475C1088.01 127.822 1088.21 128.225 1088.33 128.658C1088.44 129.082 1088.46 129.526 1088.38 129.957C1088.11 132.553 1088.84 135.016 1089.56 137.473C1090.14 139.421 1090.71 141.366 1090.79 143.372C1090.79 143.396 1090.79 143.421 1090.79 143.446L1090.79 143.491C1090.79 143.571 1090.78 143.655 1090.78 143.74C1090.75 144.553 1090.71 145.548 1091.84 145.468C1095.03 145.267 1095.02 146.59 1095.01 148.231C1095.01 149.058 1095.01 149.966 1095.41 150.801C1094.66 150.391 1094.04 150.046 1093.51 149.751L1093.51 149.749C1092.57 149.222 1091.91 148.851 1091.22 148.545C1090.19 148.091 1089.6 148.887 1089.08 149.587L1089.01 149.694C1088.7 150.1 1088.5 150.576 1088.43 151.077C1088.36 151.569 1088.41 152.071 1088.59 152.536C1088.79 153.039 1089.42 153.442 1089.81 152.88C1090.75 151.454 1090.78 151.404 1091.44 153.106C1092.01 154.535 1092.24 156.075 1092.12 157.609C1092 159.153 1091.53 160.649 1090.75 161.985C1089.56 164.265 1089.19 166.886 1089.71 169.405C1090.27 171.975 1091.66 174.29 1093.66 175.995C1095.34 177.504 1102.96 178.511 1104.8 177.437C1105.42 177.084 1105.5 176.573 1105.58 176.05C1105.6 175.919 1105.62 175.786 1105.65 175.655C1105.66 175.604 1105.68 175.552 1105.69 175.501C1107.62 169.443 1107.97 162.994 1106.72 156.762C1106.11 154.246 1105.75 151.899 1107.64 149.66C1108.21 148.981 1108.54 147.916 1107.43 147.438Z" fill="#FFF0CA"/>
<path d="M1265.02 181.58C1265.25 182.176 1265.25 182.837 1265.02 183.433C1264.07 185.755 1264.86 187.88 1265.64 189.967L1265.72 190.176C1265.78 190.332 1265.84 190.488 1265.9 190.643C1266.97 193.234 1267.62 195.506 1264.22 196.931C1261.69 197.996 1256.61 196.529 1255.59 194.014C1254.35 190.976 1252.03 191.085 1249.39 191.21L1249.31 191.213C1244.64 191.705 1239.94 190.682 1235.9 188.296C1235.02 187.621 1234.29 186.763 1233.78 185.78C1233.28 184.824 1233.01 183.765 1232.99 182.687C1232.98 181.608 1233.22 180.541 1233.68 179.568C1234.17 178.569 1234.87 177.688 1235.74 176.985C1236.12 176.731 1236.59 176.547 1237.07 176.365C1238.19 175.934 1239.3 175.508 1239.09 174.16C1239 173.08 1238.6 172.048 1237.95 171.183C1237.26 170.275 1236.36 169.551 1235.33 169.079C1232.7 167.873 1232.57 165.83 1232.45 163.79C1232.37 162.526 1232.29 161.262 1231.62 160.2C1231.27 159.672 1231.85 158.406 1233.07 158.246C1233.82 158.149 1234.04 158.632 1234.31 159.237C1234.49 159.62 1234.68 160.053 1235.05 160.418C1235.25 159.952 1235.39 159.471 1235.52 159.009C1235.96 157.517 1236.34 156.228 1238.4 156.318C1240.86 156.425 1240.98 158.248 1241.08 159.807L1241.08 159.818L1241.08 159.829C1241.09 159.981 1241.1 160.131 1241.11 160.275C1241.31 162.53 1242.51 164.365 1243.71 166.192C1244.31 167.111 1244.91 168.028 1245.38 168.995C1245.68 169.628 1246.05 169.478 1246.42 169.331C1246.58 169.268 1246.73 169.205 1246.88 169.205C1252.77 169.85 1259.07 175.887 1259.55 181.211C1259.82 181.055 1260.08 180.872 1260.34 180.688C1261.37 179.973 1262.4 179.248 1263.79 180.096C1264.36 180.431 1264.8 180.956 1265.02 181.58Z" fill="#FFF0CA"/>
<path d="M1307.67 180.196C1308.46 179.079 1307.92 178.504 1307.4 177.955C1306.98 177.503 1306.57 177.069 1306.94 176.365C1307.4 176.425 1307.83 176.73 1308.26 177.03C1308.97 177.526 1309.66 178.01 1310.43 177.363C1311.4 176.544 1310.84 175.647 1310.27 174.742C1310.12 174.498 1309.97 174.253 1309.85 174.009C1309.38 173.066 1308.75 172.199 1308.14 171.348C1307.74 170.792 1307.34 170.243 1307 169.683C1306.3 168.544 1305.31 167.591 1304.32 166.645C1302.93 165.311 1301.55 163.992 1301.04 162.187C1300.81 160.767 1300.12 159.463 1299.07 158.473C1297.97 157.427 1296.59 156.719 1295.1 156.435C1293.42 156.173 1291.76 155.835 1290.13 155.421C1290.32 155.089 1290.84 154.95 1291.28 154.831C1291.95 154.649 1292.46 154.512 1291.42 153.803C1289.43 152.419 1288.46 151.355 1290.14 149.326C1290.27 149.182 1290.37 149.01 1290.42 148.823C1290.47 148.638 1290.47 148.445 1290.42 148.261C1290.38 148.072 1290.3 147.894 1290.18 147.741C1290.05 147.584 1289.89 147.453 1289.72 147.355C1288.92 146.844 1287.51 146.307 1287.06 146.861C1285.22 149.068 1283.77 148.126 1282.34 147.196C1281.87 146.893 1281.41 146.591 1280.93 146.4C1280.18 145.951 1279.34 145.666 1278.46 145.561C1277.58 145.451 1276.69 145.52 1275.84 145.762C1276.35 147.004 1277.23 148.059 1278.36 148.789C1279.54 149.569 1280.91 150.013 1282.32 150.072C1284.3 150.357 1284.78 150.751 1284.3 152.419C1283.41 155.773 1285.14 157.299 1288.8 157.282C1289.83 157.282 1290.48 157.282 1290.09 158.423C1289.83 159.127 1289.51 159.873 1288.34 159.261C1287.87 158.994 1287.34 158.842 1286.8 158.817C1286.41 158.817 1286 158.791 1285.59 158.766C1283.75 158.653 1281.88 158.537 1281.23 160.72C1280.54 163.042 1282.71 164.132 1284.58 164.769C1287.58 165.486 1290.24 167.201 1292.13 169.632C1292.68 167.117 1293.02 166.404 1293.61 166.455C1294.92 166.552 1294.98 167.39 1295.03 168.14C1295.04 168.355 1295.06 168.562 1295.1 168.744C1296.17 172.761 1299.39 174.685 1302.63 176.621C1304.43 177.691 1306.22 178.764 1307.67 180.196Z" fill="#FFF0CA"/>
<path d="M1217.36 183.342C1218.63 185.58 1219.9 187.814 1223.38 188.64C1226 189.243 1226.99 194.441 1225.49 196.647C1225.23 197.105 1224.84 197.479 1224.37 197.728C1223.88 197.986 1223.33 198.113 1222.78 198.097C1222.47 198.096 1222.16 198.033 1221.87 197.913C1221.59 197.798 1221.33 197.627 1221.12 197.41C1220.92 197.202 1220.76 196.953 1220.66 196.68C1220.57 196.411 1220.54 196.124 1220.58 195.842C1220.55 193.933 1219.15 192.746 1217.75 191.561C1216.34 190.367 1214.93 189.175 1214.93 187.248C1214.93 187.122 1214.49 186.896 1214.26 186.896C1209 187.132 1206.62 184.095 1204.24 181.05C1202.9 179.34 1201.56 177.628 1199.7 176.491C1198.85 175.959 1197.87 175.647 1196.87 175.33C1195.22 174.806 1193.53 174.267 1192.29 172.701C1198.09 171.494 1203.49 171.125 1208.15 174.479C1209.42 175.387 1209.4 176.795 1209.37 178.384C1209.36 179.377 1209.34 180.439 1209.64 181.496C1210.06 179.367 1211.37 178.184 1212.99 178.142C1214.19 178.112 1214.74 179.072 1215.28 180.022C1215.47 180.359 1215.67 180.695 1215.89 180.985C1216.45 181.727 1216.91 182.535 1217.36 183.342Z" fill="#FFF0CA"/>
<path d="M1058.61 143.012C1060.59 141.88 1061.31 143.758 1061.84 145.234C1062.09 145.885 1062.71 146.308 1063.33 146.729C1064.25 147.354 1065.16 147.976 1064.86 149.334C1064.49 151.19 1063.38 152.724 1062.26 154.265C1061.37 155.48 1060.49 156.701 1059.96 158.087C1059.81 158.715 1059.18 158.417 1058.55 158.115L1058.55 158.114C1058.35 158.021 1058.16 157.928 1057.97 157.861C1053.32 156.083 1052.26 152.168 1051.75 148.479C1051.39 145.833 1053.78 144.956 1056.09 144.108C1057 143.774 1057.9 143.444 1058.61 143.012Z" fill="#FFF0CA"/>
<path d="M1216.6 124.139C1218.42 125.061 1220.4 124.332 1219.73 122.362C1218.25 117.236 1217.25 111.98 1216.76 106.666C1216.77 106.423 1216.73 106.18 1216.64 105.953C1216.55 105.725 1216.42 105.517 1216.25 105.342C1215.89 104.968 1215.4 104.731 1214.89 104.671C1214.36 104.612 1213.83 104.727 1213.38 104.998C1212.96 105.26 1212.66 105.671 1212.54 106.147C1211.26 108.604 1210.53 111.311 1210.41 114.078C1210.41 115.175 1210.8 116.248 1211.21 117.341C1211.99 119.474 1212.8 121.683 1210.76 124.299C1210.65 124.43 1210.53 124.573 1210.41 124.726C1210.54 124.582 1210.65 124.44 1210.76 124.299C1212.75 122.064 1214.21 122.859 1215.78 123.711C1216.05 123.857 1216.32 124.005 1216.6 124.139Z" fill="#FFF0CA"/>
<path d="M1306.98 201.332C1306.79 200.217 1306.88 199.345 1308.37 199.127C1310.84 198.758 1315.36 203.412 1314.7 205.667C1312.76 212.274 1310.27 213.976 1302.63 212.559C1305.93 211.738 1307.73 210.024 1309.57 208.277C1310.52 207.364 1311.49 206.442 1312.69 205.634C1312.44 205.542 1312.2 205.453 1311.96 205.365C1309.56 204.48 1307.45 203.704 1306.98 201.332Z" fill="#FFF0CA"/>
<path d="M1213.46 169.229L1213.46 169.23C1212.54 170.448 1211.56 171.743 1213.85 173.028C1213.92 173.07 1214 173.111 1214.07 173.151C1214.2 173.218 1214.33 173.284 1214.46 173.349C1215.21 173.733 1215.94 174.106 1216.36 174.806C1218.04 177.796 1221.02 178.951 1224.21 180.184C1224.8 180.413 1225.4 180.645 1226 180.893C1226.45 178.943 1225.27 178.251 1224.16 177.6C1223.41 177.159 1222.69 176.736 1222.53 175.954C1222.06 173.63 1220.41 172.008 1218.77 170.392C1218.23 169.85 1217.68 169.31 1217.18 168.744C1217.09 168.667 1216.99 168.543 1216.87 168.399C1216.26 167.67 1215.22 166.431 1214.11 168.299C1213.93 168.603 1213.7 168.914 1213.46 169.229Z" fill="#FFF0CA"/>
<path d="M1341.53 180.826C1341.91 180.826 1342.28 180.891 1342.64 181.018C1346.97 183.646 1350.55 187.36 1353.01 191.792C1353.09 191.931 1353.14 192.085 1353.15 192.245C1353.16 192.401 1353.13 192.557 1353.06 192.698C1352.99 192.844 1352.89 192.973 1352.77 193.075C1352.63 193.183 1352.48 193.26 1352.31 193.301C1351.88 193.427 1350.98 193.301 1350.85 193.058C1349.51 190.464 1347 189.247 1344.49 188.023C1343.26 187.428 1342.03 186.832 1340.94 186.074C1340.26 185.664 1339.7 185.086 1339.32 184.397C1338.95 183.741 1338.78 182.994 1338.81 182.242C1338.9 181.256 1339.95 181.087 1340.97 180.923C1341.16 180.892 1341.35 180.862 1341.53 180.826Z" fill="#FFF0CA"/>
<path fill-rule="evenodd" clip-rule="evenodd" d="M1493.43 137.864C1486.62 137.242 1479.84 136.569 1473.06 135.896L1473.06 135.895C1468.14 135.408 1463.23 134.92 1458.31 134.452C1451.99 133.854 1451.99 133.914 1451.86 138.594L1451.85 138.728C1451.85 139.23 1451.94 139.781 1452.03 140.34C1452.28 141.893 1452.54 143.503 1450.92 144.286C1447.99 145.696 1448.03 147.411 1448.08 149.26C1448.08 149.49 1448.09 149.721 1448.09 149.954V213.675L1447.84 213.515C1440.88 208.789 1433.01 205.807 1425.14 202.827C1421.56 201.472 1417.98 200.117 1414.49 198.6C1413.97 198.371 1413.45 198.144 1412.93 197.916C1408.62 196.033 1404.27 194.136 1400.14 191.892C1397.55 190.481 1395.16 188.804 1392.77 187.127L1392.77 187.126C1388.74 184.291 1384.7 181.457 1379.71 179.903C1375.91 178.786 1372.19 177.428 1368.56 175.836C1367.76 175.468 1366.97 175.087 1366.18 174.706L1366.18 174.703C1361.99 172.681 1357.81 170.666 1352.71 170.638C1350.21 170.614 1347.79 169.846 1345.73 168.433C1341.8 165.812 1337.6 163.617 1333.21 161.885C1332.1 161.41 1331.11 160.694 1330.31 159.789C1328.28 157.651 1325.77 156.015 1322.99 155.01C1315.18 151.74 1307.81 147.516 1301.04 142.433C1296.83 139.115 1292.29 136.251 1287.48 133.89C1286.91 133.599 1286.31 133.317 1285.7 133.033C1283.14 131.824 1280.45 130.561 1279.31 128.314C1277.86 125.484 1275.38 123.622 1272.93 121.778C1271.12 120.421 1269.32 119.073 1267.96 117.356C1266.9 116.021 1265.43 115.121 1263.98 114.239C1262.46 113.316 1260.97 112.41 1260.03 111.043C1257.72 107.909 1254.34 105.729 1250.54 104.914C1249.22 104.547 1247.99 103.944 1246.89 103.136C1239.28 96.7627 1230.93 91.3244 1222.03 86.9379L1221.96 86.9073C1219.52 85.7976 1216.55 84.4477 1214.6 87.1559C1213.2 89.1171 1211.8 89.0454 1209.74 88.94L1209.45 88.925C1206.9 88.8834 1204.37 88.635 1201.83 88.3864C1197.22 87.9341 1192.6 87.4811 1187.88 88.271C1183.51 89.1844 1178.97 88.8947 1174.74 87.4326C1173.02 86.7684 1171.32 86.0757 1169.62 85.3833C1166.27 84.0216 1162.93 82.6611 1159.48 81.5217C1158.32 81.1441 1157.19 80.7122 1156.06 80.28C1153.53 79.3111 1150.99 78.3404 1148.17 77.9752C1137.63 76.5331 1128.34 79.7442 1119.03 83.4417C1116.73 84.2775 1114.68 85.689 1113.08 87.5416C1111.1 89.9982 1108.94 90.3 1106.48 88.3213C1104.44 86.6891 1101.97 85.912 1099.49 85.1329C1097.81 84.6074 1096.14 84.0811 1094.59 83.2908C1093.29 82.6267 1091.78 82.2223 1090.25 81.8112C1089.12 81.506 1087.97 81.197 1086.88 80.7755C1085.47 80.1683 1083.94 79.8926 1082.41 79.9696C1080.88 80.0467 1079.39 80.4744 1078.06 81.2199C1076.34 82.2691 1074.55 83.2233 1072.75 84.1776C1069.31 86.0142 1065.86 87.8512 1062.91 90.3671C1061.31 91.718 1059.34 92.576 1057.38 93.4342C1055.07 94.4455 1052.76 95.457 1051.03 97.2757C1050.22 97.8244 1049.26 98.1166 1048.28 98.1142C1044.86 98.4216 1041.62 99.8306 1039.06 102.13C1035.8 104.957 1032.04 107.15 1027.97 108.595C1019.28 111.514 1012.36 116.713 1005.47 121.886C1003.58 123.309 1001.69 124.73 999.764 126.101C996.531 128.558 993.672 131.473 991.279 134.753C986.5 140.621 981.014 145.876 974.946 150.398C973.659 151.398 972.306 152.313 970.954 153.228C967.267 155.721 963.583 158.213 961.246 162.396C959.866 164.73 957.823 166.601 955.377 167.771C952.814 169.001 949.968 169.519 947.135 169.271C942.371 169.081 938.231 170.936 934.081 172.796C931.659 173.882 929.233 174.969 926.678 175.652C926.546 175.652 926.442 175.786 926.333 175.927L926.331 175.929L926.33 175.93C926.307 175.96 926.284 175.991 926.26 176.02C926.21 176.081 926.157 176.138 926.099 176.18C924.295 177.702 922.202 178.843 919.945 179.534C917.634 180.269 915.204 180.554 912.785 180.372C908.345 180.002 903.878 180.609 899.697 182.15C895.321 183.659 891.036 185.42 886.76 187.18C879.88 190.114 873.329 193.767 867.217 198.08V169.28C867.217 165.725 866.378 163.218 861.113 163.755C859.344 163.931 857.566 163.344 857.843 161.625C858.749 155.756 854.112 155.89 849.316 156.049C848.654 156.049 847.991 156.059 847.331 156.068C846.017 156.087 844.714 156.105 843.447 156.049C839.481 155.831 837.184 156.829 837.679 160.518C837.88 161.994 837.679 163.872 835.239 163.696C829.295 163.31 829.295 166.362 829.295 169.825V232.212C829.295 233.403 829.295 234.61 829.194 235.767C829.216 236.083 829.162 236.399 829.035 236.689C828.904 236.99 828.71 237.259 828.465 237.477C828.205 237.703 827.903 237.874 827.576 237.981C827.244 238.09 826.893 238.132 826.545 238.106C824.759 238.106 823.845 237.486 823.711 236.01C823.7 235.885 823.691 235.755 823.683 235.624C823.611 234.534 823.53 233.3 822.034 233.009C818.538 232.403 818.599 230.48 818.663 228.489L818.664 228.444L818.67 228.257C818.676 228.066 818.68 227.875 818.68 227.685V192.052C818.68 189.536 818.185 187.457 814.245 187.742C810.975 187.985 810.103 186.602 810.162 184.187C810.24 180.439 810.214 176.701 810.188 172.978V172.958C810.175 171.108 810.162 169.261 810.162 167.419C810.162 164.845 808.971 163.864 805.877 163.864C803.916 163.864 801.965 163.852 800.018 163.841C796.138 163.819 792.276 163.797 788.396 163.864C784.749 163.973 783.584 162.765 783.617 159.873C783.689 156.298 783.675 152.722 783.661 149.145C783.644 144.853 783.627 140.561 783.76 136.271C783.877 132.473 782.686 130.402 777.538 130.939L777.502 130.942C775.873 131.11 773.296 131.376 773.271 129.362C773.271 127.28 771.921 126.066 770.54 124.824C770.036 124.371 769.527 123.914 769.079 123.41C768.684 122.964 768.277 122.523 767.87 122.082L767.867 122.079C765.296 119.292 762.719 116.497 763.009 112.51C763.151 110.732 761.265 109.349 758.816 109.332C756.368 109.316 754.431 110.607 754.473 112.401C754.473 116.134 751.988 118.554 749.465 121.012C749.024 121.442 748.582 121.872 748.152 122.311C747.475 123.007 746.629 123.601 745.783 124.195C743.753 125.619 741.727 127.041 742.065 129.857C742.182 130.872 740.388 131.081 739.315 130.955C733.521 130.251 732.766 132.733 732.792 136.824C732.881 158.774 732.851 180.724 732.821 202.674C732.807 213.649 732.792 224.624 732.792 235.599C732.815 236.931 732.768 238.264 732.649 239.59C732.515 240.923 731.526 241.368 730 241.368C728.474 241.368 727.56 240.697 727.484 239.431C727.409 238.165 727.384 237.033 727.384 235.884V202.272C727.384 202.06 727.391 201.84 727.399 201.617C727.454 199.967 727.516 198.125 724.651 197.904C720.685 197.619 720.584 195.615 720.685 193.141V160.359C720.685 154.096 719.36 152.813 711.806 152.813C703.061 152.741 694.317 152.765 685.56 152.789H685.51C681.143 152.801 676.774 152.813 672.4 152.813C668.434 152.813 666.95 154.146 667.009 157.324C667.069 160.738 667.041 164.159 667.013 167.579C666.986 170.828 666.96 174.077 667.009 177.32C667.009 180.372 665.86 181.865 661.978 181.512C661.336 181.451 660.661 181.472 660.004 181.492C659.683 181.503 659.366 181.512 659.06 181.512C655.371 181.194 653.728 182.351 653.904 185.579C654.066 188.237 654.012 190.899 653.958 193.562V193.568C653.931 194.901 653.904 196.235 653.904 197.568C653.904 199.891 652.881 200.922 649.947 201.115C644.673 201.291 643.876 200.78 643.876 196.219V94.1568C643.876 86.7283 641.52 84.7748 632.776 84.7748H616.737C608.352 84.7748 605.418 87.1391 605.384 94.1065V125.715C605.384 127.912 605.082 129.262 601.67 129.765C596.539 130.402 594.678 132.766 594.661 137.202V174.797C594.661 175.084 594.688 175.387 594.715 175.694C594.832 177.004 594.956 178.398 593.034 178.989C590.661 179.718 590.67 181.085 590.812 182.544C591.106 185.436 589.697 186.878 586.092 186.501C580.944 185.973 579.913 188.103 579.988 191.917C580.208 202.253 580.113 212.609 580.019 222.942L580.018 222.965L580.018 223.003C580.008 224.1 579.998 225.196 579.988 226.293C579.988 226.503 579.996 226.718 580.004 226.934C580.062 228.541 580.122 230.191 576.995 230.376C573.767 230.586 572.719 229.294 572.401 226.93C571.807 222.549 571.163 218.178 570.518 213.8L570.517 213.794L570.514 213.772L570.511 213.752C570.146 211.276 569.781 208.797 569.424 206.313C568.742 201.276 567.951 196.247 567.159 191.216L567.159 191.212C565.52 180.796 563.881 170.376 563.203 159.873C561.224 130.008 567.169 100.663 573.549 71.427C573.56 70.9766 573.675 70.5347 573.885 70.1359C574.098 69.7243 574.399 69.3639 574.765 69.0794C575.146 68.7825 575.582 68.5631 576.048 68.4339C576.524 68.2969 577.022 68.2514 577.515 68.2997C580.566 68.2794 583.586 67.6761 586.411 66.5222C587.878 65.8683 589.228 65.0298 587.777 63.3781C584.424 59.5465 585.086 58.0541 590.418 56.545C591.219 56.3109 592.063 56.148 592.923 55.9823C595.141 55.5545 597.457 55.1078 599.373 53.3673C598.232 52.9243 597.009 52.5979 595.803 52.2759C592.171 51.3061 588.688 50.376 588.02 46.4168C587.937 45.9644 586.49 45.616 585.296 45.3285C585.051 45.2696 584.818 45.2133 584.608 45.1591L562.809 39.7094C560.604 39.1728 559.162 38.7284 561.442 36.582C563.22 34.9052 560.704 28.399 558.323 28.3403C552.373 28.2336 552.376 24.9375 552.379 21.6606L552.379 21.4484C552.345 19.5596 552.334 17.669 552.323 15.7787V15.7756C552.301 12.0702 552.28 8.36559 552.085 4.67987C552.085 4.4229 552.103 4.13348 552.122 3.82942C552.217 2.29815 552.335 0.395508 550.3 0.395508C548.685 0.395508 548.847 1.95605 548.991 3.33748V3.33857C549.035 3.75665 549.077 4.15849 549.067 4.49542C548.933 10.0961 548.849 15.7052 549.067 21.264C549.067 24.1398 546.912 27.2503 544.967 27.4264C539.358 27.9211 535.535 28.9356 534.202 34.1338C534.122 34.4454 533.975 34.7056 533.842 34.9401C533.514 35.5194 533.275 35.9423 534.361 36.5988C537.539 38.5523 535.493 39.3321 533.154 39.8854C529.241 40.8153 525.311 41.7104 521.382 42.6051L521.377 42.6064C519.852 42.9536 518.327 43.3009 516.804 43.65C516.383 43.7513 515.952 43.8424 515.521 43.9334C512.706 44.5272 509.895 45.1204 509.946 48.5883C509.946 49.8446 508.334 50.3021 507.036 50.6704L507.032 50.6715C506.936 50.6985 506.843 50.7251 506.752 50.7514C506.063 50.982 505.369 51.1966 504.673 51.4117C503.547 51.7597 502.416 52.1092 501.302 52.5289C501.241 52.5504 501.178 52.5718 501.115 52.5934L501.11 52.595C500.437 52.825 499.684 53.0819 499.776 53.862C499.863 54.6027 500.604 54.7396 501.292 54.8665C501.398 54.8861 501.503 54.9055 501.604 54.9268C502.817 55.2033 504.036 55.4672 505.256 55.7311L505.26 55.7319C507.478 56.2119 509.698 56.6922 511.883 57.2492C515.27 58.1128 516.561 61.0892 514.323 62.7074C510.969 65.1053 513.157 65.9856 515.513 66.8995C518.029 67.9311 520.726 68.4444 523.445 68.4087C524.054 68.2872 524.68 68.2872 525.289 68.4087C525.893 68.536 526.464 68.7872 526.966 69.1465C527.443 69.4869 527.836 69.9313 528.115 70.4461C528.387 70.9396 528.534 71.4924 528.542 72.0559C529.108 74.9442 529.712 77.8305 530.316 80.7168C530.919 83.6031 531.523 86.4894 532.089 89.3778C534.876 101.774 536.967 114.317 538.352 126.948C538.612 130.008 537.514 131.232 533.514 131.14C526.924 131.033 520.376 131.045 513.836 131.056C508.576 131.065 503.323 131.075 498.057 131.022C494.091 131.022 492.607 132.07 492.683 135.391C492.817 140.36 492.772 145.341 492.728 150.32V150.325C492.705 152.812 492.683 155.3 492.683 157.785C492.683 159.755 492.683 161.851 489.329 161.583C483.569 161.122 483.167 163.931 483.225 167.553C483.321 174.032 483.289 180.549 483.257 187.034V187.071C483.241 190.307 483.225 193.535 483.225 196.747C483.225 199.782 481.943 201.207 478.111 201.006C476.501 200.922 474.879 200.95 473.261 200.978C472.453 200.992 471.646 201.006 470.842 201.006C470.581 201.006 470.318 201.002 470.055 200.999H470.051C467.454 200.965 464.837 200.931 464.243 204.15C464.22 204.413 464.099 204.657 463.904 204.836C463.709 205.014 463.455 205.112 463.191 205.112C462.927 205.112 462.673 205.014 462.478 204.836C462.284 204.657 462.163 204.413 462.139 204.15C461.546 200.933 458.98 200.951 456.349 200.97H456.347L456.047 200.972C455.976 200.972 455.905 200.973 455.834 200.973L455.701 200.973C455.648 200.973 455.594 200.973 455.541 200.972H437.54C437.367 200.972 437.194 200.971 437.021 200.971C434.123 200.955 431.168 200.94 431.318 205.165C430.759 204.469 430.358 203.659 430.145 202.792C429.948 201.942 429.948 201.059 430.145 200.209V164.266C430.145 164.025 430.155 163.776 430.166 163.523C430.236 161.909 430.312 160.154 427.629 159.646C424.913 159.118 424.594 157.642 424.594 155.764L424.594 155.686L424.595 155.608C424.595 155.544 424.596 155.479 424.597 155.414L424.597 155.41C424.614 153.913 424.633 152.203 422.079 152.117C420.744 152.115 419.44 151.708 418.34 150.952C417.294 150.243 416.517 149.204 416.134 148.001C414.156 144.06 410.945 142.551 405.906 143.121C403.805 143.23 401.701 143.23 399.601 143.121C398.895 143.031 398.178 143.118 397.513 143.372C396.858 143.609 396.279 144.018 395.836 144.555C395.374 145.244 394.968 145.981 394.562 146.718C392.873 149.781 391.189 152.835 385.565 152.402C385.416 154.634 383.867 156.39 382.381 158.075C381.119 159.506 379.902 160.886 379.621 162.463C378.925 166.463 377.341 167.494 373.039 167.083C371.97 166.977 370.878 167.012 369.794 167.048C369.254 167.066 368.717 167.083 368.185 167.083C365.745 167.083 364.395 167.922 364.697 169.959C365.326 173.941 362.71 174.83 358.753 174.512C355.298 174.227 353.655 175.434 353.89 178.435C354.024 180.109 353.979 181.782 353.935 183.47C353.912 184.319 353.89 185.173 353.89 186.032C353.89 187.222 353.797 188.648 351.693 188.547C349.7 188.452 349.707 187.199 349.714 186.055V186.052L349.714 185.971L349.714 185.934L349.714 185.864C349.714 184.688 349.69 183.498 349.666 182.303V182.302C349.618 179.895 349.569 177.463 349.714 175.065C349.932 171.477 348.566 170.093 343.946 170.152C328.854 170.364 313.791 170.364 298.755 170.152C294.412 170.152 293.104 171.443 293.162 174.805C293.339 183.189 293.305 191.574 293.162 199.958C293.162 200.33 293.218 200.764 293.276 201.218C293.495 202.931 293.749 204.919 291.184 204.879C288.692 204.841 289.009 202.943 289.29 201.259C289.375 200.751 289.457 200.261 289.457 199.849C289.398 185.453 289.398 171.059 289.398 156.667C289.398 142.274 289.398 127.883 289.339 113.491C289.339 113.152 289.364 112.794 289.389 112.429C289.494 110.882 289.61 109.198 287.914 108.167C286.944 107.607 285.992 107.023 285.04 106.439C280.973 103.942 276.91 101.448 271.481 100.898C263.559 100.095 255.646 99.2065 247.736 98.3182C242.344 97.7127 236.954 97.1073 231.563 96.5295C225.041 95.8316 225.04 95.8912 224.91 101.35L224.906 101.501C224.906 102.082 224.994 102.716 225.082 103.359C225.333 105.179 225.593 107.066 223.908 107.982C220.907 109.573 220.948 111.674 220.989 113.829L220.989 113.832C220.994 114.084 220.999 114.336 220.999 114.589V199.446C220.999 200.23 221.1 201.049 221.201 201.87C221.461 203.975 221.722 206.092 220.286 207.655C219.163 208.878 217.249 208.723 215.32 208.567C213.824 208.447 212.318 208.325 211.164 208.845C207.324 210.522 204.683 211.117 200.365 208.988C198.292 207.971 195.257 208.233 192.266 208.491C190.965 208.603 189.671 208.714 188.468 208.719C186.909 208.719 185.282 209.147 185.324 210.639C185.453 214.391 182.575 214.339 179.504 214.285C179.376 214.283 179.248 214.28 179.12 214.278C177.807 214.278 176.475 214.261 175.134 214.243C172.423 214.208 169.674 214.172 166.971 214.278C163.357 214.438 162.133 213.264 162.192 210.338C162.298 204.91 162.263 199.486 162.227 194.063V194.058C162.209 191.349 162.192 188.639 162.192 185.931C162.038 185.07 162.183 184.183 162.603 183.416C163.044 182.618 163.716 181.972 164.531 181.563C166.99 180.145 166.525 177.855 166.089 175.702C165.98 175.169 165.874 174.644 165.814 174.143C165.56 172.018 163.558 172.074 161.76 172.125C161.423 172.135 161.093 172.144 160.783 172.139C155.585 172.027 150.403 172.027 145.239 172.139C141.768 172.139 139.294 172.139 138.598 168.215C138.028 164.66 132.654 162.438 131.128 164.409C129.126 166.995 126.614 166.981 123.964 166.965C123.23 166.961 122.485 166.957 121.738 167.008C121.377 167.031 120.959 167.02 120.529 167.009H120.528C119.128 166.972 117.598 166.931 117.495 168.073C117.089 172.346 113.912 172.239 110.703 172.13C110.135 172.111 109.565 172.092 109.01 172.097C102.035 172.189 101.196 172.935 101.85 178.67L101.868 178.843C102.017 180.274 102.16 181.637 104.433 182.024C106.223 182.338 106.237 183.599 106.25 184.784L106.252 184.925V205.718C106.252 205.846 106.257 205.982 106.263 206.123L106.263 206.124C106.299 207.082 106.344 208.239 104.81 208.275C102.832 208.275 102.979 206.959 103.097 205.907L103.097 205.906L103.107 205.812L103.118 205.718C103.123 205.664 103.129 205.611 103.133 205.559C103.275 202.842 102.814 200.872 98.5971 200.905C90.8289 200.978 83.0607 200.954 75.2876 200.93C71.3992 200.917 67.5095 200.905 63.6179 200.905C60.4068 200.905 58.8557 202.029 58.9143 204.737C58.9143 204.947 58.9253 205.168 58.9366 205.394V205.395C59.0007 206.691 59.0729 208.149 57.1536 208.485C53.8657 209.101 53.8818 210.926 53.8995 212.933L53.9005 213.054C53.9117 214.423 53.908 215.984 53.9043 217.541V217.553C53.9024 218.329 53.9005 219.104 53.9005 219.854C53.9005 219.954 53.9018 220.057 53.9031 220.161C53.9187 221.415 53.9363 222.836 51.7374 222.805C49.5918 222.775 49.6246 221.356 49.6521 220.168C49.6551 220.037 49.6581 219.909 49.6581 219.787C49.6581 217.786 49.6404 215.786 49.6227 213.786L49.6227 213.782C49.5873 209.782 49.5519 205.784 49.6581 201.794C49.6581 198.7 48.3921 197.459 44.6275 197.518C35.5474 197.635 26.484 197.652 17.4122 197.518C13.4464 197.518 11.9373 198.6 12.0379 201.937C12.1638 206.092 12.1443 210.246 12.1247 214.402C12.1103 217.441 12.096 220.481 12.1385 223.526C12.1385 226.041 11.124 227.081 7.94637 227.081C0.174149 226.972 -7.59807 226.997 -15.3619 227.081C-18.2964 227.081 -19.445 226.083 -19.3277 223.727C-19.2742 222.654 -19.3112 221.561 -19.3483 220.462C-19.3927 219.149 -19.4372 217.83 -19.3277 216.534C-18.9336 212.979 -20.9123 211.788 -24.9954 211.931C-25.4685 211.949 -25.9676 211.997 -26.4756 212.045C-28.4796 212.236 -30.6231 212.439 -31.8538 210.941C-33.7017 208.727 -36.0209 208.724 -38.535 208.721L-38.792 208.721L-38.9841 208.72L-39.1062 208.719C-42.6611 208.56 -46.2244 208.56 -49.7709 208.719C-51.3781 208.857 -53.0551 208.743 -54.7365 208.63C-58.9054 208.348 -63.1013 208.064 -66.3215 211.595C-66.6106 211.921 -67.4681 211.913 -68.2818 211.906H-68.2844C-68.5789 211.903 -68.868 211.9 -69.1218 211.914L-69.1242 211.914C-76.391 212.199 -76.4078 212.2 -76.4078 218.252L-80.0801 1294.11H-64V960H1491.14C1491.66 627.16 1492.54 162.046 1493.43 137.864ZM1396.54 202.289C1396.94 202.836 1397.49 203.253 1398.13 203.488C1398.78 203.742 1399.49 203.812 1400.19 203.689C1401.24 203.461 1401.29 202.668 1401.33 201.875C1401.35 201.501 1401.37 201.127 1401.5 200.813C1402.23 198.935 1402.11 197.35 1399.52 196.872C1398.33 196.663 1397.79 195.9 1398.43 194.952C1398.98 194.132 1399.72 194.576 1400.31 194.927L1400.4 194.983C1400.43 195.003 1400.47 195.023 1400.5 195.041C1400.52 195.054 1400.54 195.066 1400.57 195.078C1401.4 195.539 1402.35 195.88 1403.31 196.221C1406.03 197.194 1408.75 198.162 1408.5 201.895C1408.5 202.54 1408.85 203.337 1409.59 203.32C1412.17 203.243 1414.12 204.412 1416.07 205.582C1417.32 206.335 1418.58 207.089 1420.01 207.512C1420.09 207.535 1420.17 207.558 1420.25 207.582L1420.41 207.629L1420.56 207.674C1420.71 207.719 1420.86 207.766 1421.01 207.812C1422.86 208.388 1424.77 208.983 1426.37 207.847C1427.18 207.217 1428.18 206.874 1429.21 206.874C1430.23 206.874 1431.23 207.217 1432.04 207.847C1433.97 209.045 1436.06 209.997 1438.14 210.948C1441.01 212.253 1443.87 213.555 1446.29 215.486C1446.93 215.982 1447.59 216.438 1448.28 216.852V222.78C1448.21 223.501 1448.29 224.274 1448.37 225.053C1448.53 226.746 1448.71 228.467 1447.39 229.747V229.638C1446.27 230.715 1444.4 230.573 1442.53 230.431C1441.09 230.322 1439.66 230.212 1438.55 230.653C1434.82 232.086 1432.27 232.606 1428.1 230.77C1426.54 230.22 1424.88 230.009 1423.23 230.15C1421.97 229.627 1420.59 229.487 1419.26 229.747C1417.56 230.024 1415.82 229.982 1414.14 229.621C1412.48 229.266 1410.91 228.598 1409.51 227.651C1409.17 227.45 1408.84 227.239 1408.51 227.029L1408.51 227.027C1407.93 226.66 1407.35 226.294 1406.74 225.974C1404.28 224.81 1401.8 225.528 1399.53 226.184C1399.11 226.308 1398.69 226.43 1398.28 226.536C1397.19 226.828 1397.53 227.768 1397.89 228.782C1398.12 229.399 1398.35 230.043 1398.28 230.586C1398.17 231.394 1398.03 232.28 1397.9 233.175C1397.8 233.868 1397.69 234.566 1397.6 235.239H1395.92C1392.43 235.381 1391.23 234.4 1391.28 231.885V227.551C1392.17 227.653 1393 227.025 1393.83 226.385C1394.57 225.819 1395.33 225.243 1396.16 225.153C1396.37 225.142 1396.57 225.088 1396.76 224.993C1396.94 224.903 1397.09 224.77 1397.21 224.608C1397.32 224.452 1397.4 224.27 1397.42 224.079C1397.44 223.887 1397.41 223.695 1397.33 223.518C1396.69 221.564 1394.87 221.279 1393 221.371C1392.44 221.405 1391.88 221.405 1391.33 221.371V210.958C1391.21 210.193 1391.37 209.411 1391.78 208.753C1392.21 208.063 1392.85 207.528 1393.61 207.227C1395.98 206.036 1395.54 204.077 1395.12 202.235C1395.02 201.768 1394.91 201.309 1394.86 200.872C1394.83 200.688 1394.79 200.508 1394.72 200.335C1395.4 200.92 1396.01 201.575 1396.54 202.289ZM1001.76 205.131C1002.3 204.339 1002.96 204.537 1003.63 204.739C1003.91 204.821 1004.19 204.904 1004.46 204.921C1005.12 205.014 1005.79 204.98 1006.44 204.821C1007.07 204.66 1007.67 204.375 1008.2 203.982C1008.71 203.608 1009.13 203.131 1009.44 202.582C1009.72 202.067 1009.89 201.494 1009.93 200.905C1009.93 198.824 1010.31 196.795 1010.69 194.772C1011.17 192.183 1011.65 189.605 1011.33 186.946C1010.97 183.835 1013.57 182.879 1015.87 182.628C1018.67 182.309 1019.02 184.405 1018.63 186.518C1018.49 187.298 1018.51 188.077 1019.56 188.295C1020.61 188.513 1021.04 187.675 1021.24 186.979C1022.24 183.106 1023.21 179.24 1024.07 175.333C1024.09 174.893 1023.98 174.455 1023.76 174.076C1023.52 173.685 1023.18 173.364 1022.78 173.145C1021.04 171.991 1019.7 170.32 1018.96 168.366C1018.25 166.481 1018.2 164.414 1018.81 162.497C1020.11 159.136 1019.83 155.895 1019.56 152.7C1019.38 150.626 1019.21 148.572 1019.47 146.517C1019.53 145.92 1019.4 145.237 1019.28 144.556C1019.01 143.114 1018.74 141.681 1020.31 141.1C1022.62 140.242 1023.65 142.104 1024.55 143.729C1024.73 144.055 1024.9 144.372 1025.08 144.655C1025.29 144.986 1025.71 145.255 1026.13 145.528C1027.09 146.149 1028.08 146.787 1026.67 148.202C1024.63 150.239 1025.22 152.327 1026.35 154.398C1027.88 156.691 1028.66 159.405 1028.57 162.162C1028.27 165.574 1030.37 167.1 1033.66 165.926C1036.29 164.964 1036.59 166.032 1037 167.494L1037.03 167.593C1037.05 167.666 1037.07 167.739 1037.09 167.813C1037.8 170.278 1037.67 172.248 1034.12 172.675C1033.17 172.784 1031.9 173.296 1031.86 174.109C1031.7 177.413 1029.27 178.997 1026.53 180.632C1024.85 181.647 1025.03 183.474 1025.69 185.067C1025.92 185.62 1026.35 186.073 1026.88 186.35C1027.44 186.638 1028.08 186.744 1028.71 186.652C1029.53 186.602 1030.32 186.311 1030.98 185.814C1031.6 185.342 1032.05 184.675 1032.25 183.919C1032.46 183.348 1032.58 182.748 1032.6 182.141C1032.6 180.255 1033.08 179.886 1035.3 180.599C1038.73 181.68 1040.34 180.272 1040.34 176.901C1040.34 175.501 1040.91 174.193 1041.49 172.884C1042.31 171.041 1043.12 169.198 1042.32 167.1C1046.82 163.545 1045.1 159.99 1042.14 156.812C1041.32 155.938 1040.64 155 1039.97 154.081C1038.21 151.66 1036.55 149.378 1032.86 148.789C1032.21 148.68 1031.19 148.277 1031.77 147.665C1033.45 145.982 1033.24 144.107 1033.02 142.229C1032.89 141.038 1032.75 139.847 1033.1 138.702C1033.17 138.479 1033.26 138.219 1033.36 137.939C1033.85 136.609 1034.5 134.836 1032.88 134.51C1031.63 134.259 1031.35 135.315 1031.06 136.405C1030.89 137.026 1030.72 137.658 1030.37 138.065C1030.18 138.218 1029.97 138.343 1029.75 138.434C1027.98 137.529 1026.88 136.514 1028.56 134.636C1028.86 134.309 1029.08 133.919 1029.21 133.496C1029.34 133.084 1029.37 132.647 1029.29 132.221C1028.62 130.142 1030.31 129.572 1031.63 129.605C1034.99 129.698 1034.78 127.493 1033.95 126.252C1032.33 123.747 1034.03 123.375 1035.65 123.022C1035.74 123.002 1035.83 122.982 1035.92 122.962C1036.01 122.941 1036.1 122.92 1036.19 122.898C1037.56 122.645 1038.96 122.614 1040.34 122.806C1042.85 123.108 1043.56 122.185 1044.18 120.073C1044.88 117.615 1046.21 115.384 1048.04 113.6C1049.96 111.729 1052.3 110.338 1054.86 109.542C1054.14 112.495 1052.9 115.301 1051.22 117.834C1048.75 121.087 1046.35 126.143 1049.45 130.955C1049.98 132.217 1050.2 133.591 1050.07 134.955C1050.19 137.705 1053.04 138.132 1055.1 138.166C1057.5 138.166 1058.34 136.388 1057.51 134.385C1055.84 130.494 1056.16 127.283 1060.68 125.162C1060.94 125.239 1061.16 125.402 1061.31 125.623C1061.45 125.834 1061.5 126.088 1061.46 126.336C1061.46 126.426 1061.46 126.518 1061.45 126.61C1061.45 126.691 1061.44 126.771 1061.44 126.851C1061.38 127.687 1061.32 128.495 1062.67 128.641C1064.19 128.806 1064.48 127.669 1064.74 126.649L1064.75 126.612L1064.76 126.555C1064.77 126.518 1064.78 126.481 1064.79 126.445C1065.3 124.466 1065.72 122.605 1063.32 121.112C1062.77 120.747 1062.33 120.225 1062.08 119.611C1061.84 119.015 1061.81 118.36 1061.97 117.742C1062.96 113.919 1060.93 111.118 1058.21 108.184C1063.19 107.296 1067.77 104.895 1071.33 101.309C1072.13 100.488 1073.08 99.8348 1074.13 99.3886C1075.21 98.9222 1076.38 98.6661 1077.55 98.634C1078.39 98.6348 1079.2 98.4149 1079.93 97.9968C1080.61 97.6085 1081.17 97.0248 1081.52 96.3199C1082.27 94.903 1081.87 93.4944 1079.93 93.922C1078.7 94.2014 1077.41 94.2946 1076.11 94.3878C1073.53 94.5741 1070.95 94.7603 1068.83 96.4373C1068.79 96.4723 1068.74 96.5089 1068.7 96.5464C1068.65 96.5829 1068.61 96.6203 1068.56 96.6581C1067.92 97.1875 1067.18 97.8038 1066.32 97.1667C1065.41 96.5008 1066.01 95.7719 1066.57 95.1014C1066.6 95.0622 1066.63 95.0231 1066.66 94.9843L1066.72 94.9114C1066.75 94.8774 1066.77 94.8441 1066.8 94.8115L1066.82 94.7943L1066.87 94.7269C1066.91 94.6858 1066.94 94.6456 1066.97 94.6061C1067.44 94.0596 1067.78 93.6597 1067.49 92.9327C1066.99 92.7595 1066.57 92.9884 1066.13 93.2263C1065.5 93.5642 1064.84 93.9203 1063.89 93.1674C1064.44 92.2477 1065.21 91.4699 1066.12 90.8953C1067.06 90.2933 1068.13 89.8989 1069.24 89.7383C1069.82 89.6764 1070.3 89.6701 1070.7 89.6647C1071.66 89.6518 1072.21 89.6444 1072.84 88.8999C1073.3 88.2918 1073.72 87.6562 1074.11 86.9966C1075.59 85.0254 1077.72 83.6349 1080.13 83.0644C1082.6 82.4525 1085.2 82.6615 1087.55 83.6597C1090.13 84.5896 1092.61 85.6715 1095.08 86.749C1096.76 87.4785 1098.43 88.2061 1100.12 88.8831C1102.28 89.5281 1104.33 90.4706 1106.23 91.6834C1108.21 93.1255 1111.21 94.6179 1113.4 94.2993C1122.34 92.9243 1130.77 90.3168 1134.79 81.8655C1135.2 80.9968 1135.9 80.9777 1136.63 80.958C1136.82 80.9527 1137.02 80.9475 1137.21 80.9264C1147.52 80.0381 1157.87 82.2511 1166.92 87.2817C1172.44 90.0667 1178.58 91.3698 1184.75 91.063C1186.33 91.0226 1187.91 90.9683 1189.49 90.914C1196.75 90.6643 1203.99 90.4152 1211.2 91.5241C1212.13 91.8017 1213.11 91.8162 1214.05 91.566C1214.96 91.3292 1215.78 90.8275 1216.41 90.1239C1216.89 89.5292 1217.58 89.1394 1218.33 89.034C1219.1 88.9136 1219.89 89.0742 1220.55 89.4867C1222.18 90.4109 1223.87 91.2211 1225.56 92.0314C1228 93.1986 1230.44 94.3662 1232.68 95.8756C1234.4 97.0374 1236 98.4004 1237.59 99.759L1237.59 99.7603C1240.58 102.323 1243.56 104.87 1247.37 106.021C1253.32 107.82 1257.23 111.536 1261.14 115.25C1262.23 116.293 1263.33 117.337 1264.47 118.337C1265.95 119.644 1267.58 120.826 1269.22 122.009C1272.83 124.622 1276.44 127.234 1278.35 131.182C1278.46 131.395 1278.72 131.546 1278.98 131.699C1279.03 131.724 1279.07 131.749 1279.11 131.775C1279.14 131.791 1279.17 131.808 1279.2 131.825C1279.23 131.847 1279.27 131.871 1279.3 131.894C1282.36 134.082 1285.65 135.953 1288.94 137.824C1293.65 140.504 1298.36 143.183 1302.39 146.793C1303.57 147.853 1305.05 148.627 1306.53 149.406C1308.83 150.613 1311.16 151.833 1312.45 154.146C1319.81 155.052 1325.18 159.059 1330.61 163.143L1330.78 163.276C1332.81 164.8 1334.12 165.791 1332.16 168.081C1332 168.245 1331.88 168.438 1331.8 168.65C1331.72 168.862 1331.69 169.087 1331.7 169.313C1331.71 169.541 1331.77 169.762 1331.87 169.966C1331.98 170.169 1332.12 170.349 1332.29 170.496C1335.77 173.658 1339.46 176.591 1343.32 179.274C1345.6 180.777 1348.5 181.528 1351.4 182.283C1352.95 182.686 1354.51 183.089 1355.98 183.609C1358.1 184.355 1358.32 183.609 1358.36 182.007C1358.48 178.276 1354.61 176.541 1352.41 176.214C1348.3 175.607 1345.2 173.685 1342.12 171.776C1340.94 171.046 1339.77 170.318 1338.54 169.666C1337.82 169.315 1337.2 168.808 1336.7 168.182C1336.25 167.573 1335.96 166.86 1335.86 166.111C1336.36 166.102 1336.85 166.144 1337.33 166.236C1337.97 166.46 1338.57 166.776 1339.12 167.175C1343.9 171.272 1350.02 173.484 1356.32 173.397C1357.57 173.372 1358.8 173.661 1359.91 174.235C1360.97 174.791 1361.85 175.619 1362.48 176.633C1362.93 177.446 1363.57 178.135 1364.35 178.637C1365.16 179.158 1366.08 179.488 1367.04 179.601C1375.41 179.869 1380.53 184.529 1385.66 189.193L1385.66 189.194C1386.95 190.365 1388.23 191.536 1389.57 192.638C1390.11 193.019 1390.47 193.594 1390.59 194.24C1390.59 196.529 1391.96 197.971 1393.5 199.312C1392.31 199.053 1391.09 198.977 1389.88 199.086C1384.88 199.002 1379.87 199.002 1374.85 199.086C1371.5 199.086 1368.98 199.086 1368.43 195.732C1367.87 192.664 1362.7 190.777 1361.19 192.487C1359.26 194.7 1356.78 194.686 1354.24 194.673C1353.53 194.669 1352.82 194.666 1352.11 194.709H1350.43C1346.47 191.029 1342.13 187.599 1335.15 186.853C1338.04 189.215 1340.08 191.949 1342.08 194.611C1343.17 196.079 1344.26 197.526 1345.46 198.876C1343.6 199.161 1341.72 199.229 1339.85 199.078C1333.14 199.078 1332.3 199.782 1332.93 204.72L1332.95 204.873C1333.1 206.085 1333.24 207.25 1335.44 207.596C1337.19 207.856 1337.19 208.967 1337.19 210.013V210.354C1334.86 209.967 1332.59 209.317 1330.41 208.418C1326.92 207.1 1323.23 206.421 1319.51 206.414C1318.74 206.327 1317.97 206.488 1317.3 206.875C1316.67 207.235 1316.19 207.809 1315.95 208.493C1315.48 209.843 1315.24 211.545 1316.79 212.241C1318.41 212.944 1319.87 213.941 1321.33 214.936C1323.57 216.456 1325.79 217.969 1328.53 218.42C1331.54 218.984 1334.46 219.913 1337.25 221.187V227.953C1337.25 228.057 1337.25 228.169 1337.26 228.285C1337.29 229.096 1337.33 230.097 1335.86 230.141C1334.03 230.141 1334.1 229.121 1334.16 228.243L1334.16 228.181C1334.16 228.147 1334.17 228.114 1334.17 228.08L1334.17 228.047L1334.17 228.001L1334.18 227.951C1334.18 227.903 1334.18 227.856 1334.18 227.81C1334.31 225.488 1333.86 223.803 1329.79 223.82H1326.39C1326.23 223.14 1325.3 222.981 1324.4 222.981C1322.82 222.872 1321.25 223.16 1319.81 223.82H1295.76C1292.65 223.82 1291.17 224.775 1291.21 227.123V227.551C1288.43 226.459 1285.47 225.909 1282.49 225.932H1282.2V224.599C1282.2 222.327 1281.32 221.246 1278.72 221.053C1279.33 220.536 1280.06 220.181 1280.84 220.021C1280.96 219.996 1281.09 219.978 1281.23 219.961C1281.32 219.95 1281.41 219.94 1281.51 219.929C1282.35 219.838 1283.21 219.745 1283.55 218.722C1283.24 218.327 1282.84 218.013 1282.44 217.696C1281.76 217.158 1281.07 216.613 1280.78 215.653C1280.62 215.182 1280.37 214.748 1280.04 214.375C1279.71 214.002 1279.31 213.698 1278.87 213.482C1277.92 213.007 1276.84 212.882 1275.81 213.13C1274.17 213.368 1272.49 213.527 1270.81 213.686C1266.55 214.087 1262.29 214.49 1258.8 216.165C1253.36 218.782 1247.78 219.362 1242.14 219.947C1240.9 220.076 1239.65 220.205 1238.41 220.357C1236.08 220.625 1233.68 220.55 1234 217.104C1234.13 215.828 1233.81 214.525 1233.49 213.212C1233.24 212.204 1232.99 211.19 1232.94 210.178C1232.94 208.56 1232.28 208.258 1230.6 207.94C1230.1 207.842 1229.58 207.773 1229.05 207.703C1226.76 207.4 1224.41 207.089 1223.38 204.284C1223.29 203.807 1223.06 203.367 1222.72 203.018C1222.36 202.65 1221.92 202.376 1221.44 202.222C1220.93 202.06 1220.4 202.02 1219.88 202.104C1219.36 202.186 1218.88 202.393 1218.47 202.708C1217.6 203.265 1216.61 202.213 1215.93 201.478C1215.88 201.428 1215.84 201.379 1215.79 201.333C1215.28 200.815 1214.79 200.269 1214.29 199.721L1214.29 199.719C1213.74 199.106 1213.19 198.492 1212.6 197.912L1212.54 197.847L1212.43 197.74C1211.85 197.125 1211.13 196.365 1210.22 196.931C1209.5 197.378 1209.81 197.963 1210.13 198.547C1210.25 198.774 1210.37 199.001 1210.44 199.22C1211.09 201.47 1212.76 203.073 1214.42 204.669C1215.59 205.784 1216.75 206.897 1217.55 208.225C1218.38 209.601 1219.59 210.744 1220.8 211.886C1222.71 213.694 1224.61 215.497 1224.99 218.21C1224.99 218.37 1225.19 218.51 1225.36 218.639C1225.42 218.679 1225.47 218.718 1225.52 218.755L1225.64 218.854C1226.44 219.521 1227.25 220.202 1228.44 219.963C1229.63 219.726 1229.59 218.942 1229.54 218.153C1229.53 217.937 1229.51 217.72 1229.53 217.515C1229.54 217.324 1229.53 217.138 1229.52 216.961C1229.49 216.247 1229.46 215.655 1230.78 215.326C1231.14 217.237 1230.79 219.063 1230.45 220.868C1230.26 221.882 1230.07 222.89 1230 223.903C1229.98 224.185 1229.97 224.449 1229.95 224.699C1229.83 226.552 1229.77 227.545 1229.24 228.069C1228.62 228.673 1227.39 228.65 1224.73 228.6L1224.63 228.599C1224.1 228.599 1223.56 228.647 1223.03 228.696C1222.45 228.748 1221.88 228.8 1221.32 228.791C1216.29 228.791 1210.64 228.171 1208.04 224.599C1206.11 221.949 1203.62 221.385 1201.14 220.825C1200.28 220.631 1199.42 220.437 1198.59 220.156C1196.6 219.468 1196.07 221.614 1195.89 223.107C1195.89 223.903 1195.89 225.01 1197.24 225.06C1200.13 225.06 1200.31 225.06 1200.59 227.576C1200.71 229.046 1201.27 230.447 1202.2 231.592C1200.39 230.755 1198.38 230.433 1196.39 230.661C1195.24 230.661 1194.09 230.638 1192.94 230.614C1190.64 230.568 1188.34 230.521 1186.06 230.661C1184.51 230.779 1182.89 230.683 1181.27 230.588C1177.23 230.35 1173.17 230.11 1170.05 233.134C1169.77 233.406 1168.93 233.4 1168.14 233.395C1167.86 233.393 1167.58 233.392 1167.33 233.403C1163.46 233.537 1161.72 233.597 1160.94 234.493C1160.3 235.225 1160.3 236.513 1160.3 238.853V240.63C1153.06 240.63 1152.21 240.84 1151.32 245.761L1148.44 246.6C1147.42 245.837 1146.23 245.711 1145.52 246.918C1145.28 247.313 1145 247.677 1144.68 248C1143.62 248.498 1142.61 249.093 1141.66 249.777C1140.45 250.021 1139.24 250.198 1138.01 250.305C1135.2 250.683 1134.05 251.655 1134.19 253.953V254.69C1133.12 255.509 1132.41 256.711 1132.21 258.044C1131.73 260.123 1130.98 261.238 1129.91 261.473V248.922C1130.74 248.41 1131.66 248.055 1132.62 247.874C1132.7 248.16 1132.63 248.554 1132.57 248.959C1132.4 250.039 1132.21 251.196 1134.61 250.574C1136.79 250.029 1142.37 243.028 1142.35 241.024C1142.35 239.741 1142.35 238.165 1140.23 238.752C1138.19 239.318 1137.05 238.473 1135.68 237.457L1135.52 237.343C1133.01 235.566 1130.66 236.279 1130.06 239.02C1129 243.959 1127.11 244.847 1122.14 242.785V242.257C1122.24 240.925 1122.16 239.587 1121.92 238.274C1121.85 237.854 1121.66 237.46 1121.39 237.13C1121.12 236.8 1120.77 236.544 1120.38 236.386C1119.98 236.228 1119.55 236.174 1119.13 236.229C1118.7 236.283 1118.3 236.445 1117.96 236.698C1115.26 238.64 1112.38 238.485 1109.5 238.331C1108.14 238.258 1106.78 238.185 1105.45 238.333C1104.79 238.417 1104.13 238.417 1103.47 238.333C1103.05 236.317 1102.06 234.465 1100.62 233V213.155C1100.62 208.124 1100.33 207.94 1094.39 207.831H1064.56C1066.05 207.165 1067.62 206.711 1069.24 206.481C1073.9 205.525 1077.44 201.543 1075.64 198.507C1074.13 195.992 1075.03 195.33 1077.32 194.391C1079.61 193.452 1080.47 192.169 1077.68 190.836C1077.45 190.716 1077.25 190.55 1077.09 190.35C1076.94 190.158 1076.82 189.935 1076.76 189.696C1074.82 185.055 1074.08 180.002 1074.58 174.998C1074.92 172.047 1073.34 171.141 1070.27 172.156C1067.68 172.994 1066.3 172.6 1065.87 169.758C1065.27 166.404 1062.28 165.121 1060.05 167.092C1057.83 169.062 1055.86 171.284 1057 174.336C1058.14 177.387 1056.78 178.528 1053.4 178.134C1052.87 178.067 1052.35 177.985 1051.84 177.903C1050.98 177.768 1050.14 177.634 1049.27 177.572C1046.98 177.429 1045.31 178.528 1046.7 180.414C1049.84 184.55 1048.77 188.58 1047.69 192.638C1047.41 193.698 1047.12 194.759 1046.92 195.824C1046.64 197.3 1045.64 197.996 1044.4 197.283C1044.25 197.196 1044.09 197.11 1043.92 197.023C1042.27 196.128 1040.49 195.164 1041.05 192.773C1041.46 191.205 1041.7 189.597 1041.76 187.977C1041.88 187.098 1041.69 186.204 1041.2 185.462C1040.68 184.68 1039.91 184.092 1039.03 183.785C1038.1 183.457 1037.09 183.472 1036.17 183.827C1035.73 184 1035.33 184.256 1034.99 184.581C1034.65 184.891 1034.39 185.268 1034.21 185.688C1033.93 186.271 1033.5 186.77 1032.97 187.138C1032.41 187.529 1031.77 187.78 1031.1 187.868C1027.67 188.329 1024.39 190.693 1024.46 192.999C1024.58 198.438 1020.74 199.858 1016.76 201.33C1016.34 201.482 1015.93 201.636 1015.52 201.794C1015.39 201.848 1015.27 201.923 1015.14 201.998C1015.04 202.061 1014.93 202.126 1014.82 202.18C1012.09 203.655 1010.86 205.165 1013.82 207.655C1016.15 209.658 1015.49 211.008 1012.21 211.52C1008.24 212.107 1004.66 211.805 1003.19 207.629C1003.02 207.332 1002.72 207.078 1002.42 206.829C1001.83 206.34 1001.27 205.87 1001.77 205.131H1001.76ZM1393.5 199.312C1393.75 199.386 1393.99 199.514 1394.19 199.688C1394.39 199.861 1394.55 200.077 1394.65 200.318L1394.52 200.205C1394.44 200.131 1394.35 200.057 1394.26 199.983C1394.01 199.762 1393.75 199.541 1393.5 199.312ZM1347.74 196.504C1347.61 197.088 1347.32 197.626 1346.91 198.063C1346.42 197.191 1346.13 196.219 1346.07 195.221V195.112C1346.68 195.648 1347.24 196.11 1347.75 196.504H1347.74ZM924.179 197.225C925.772 194.047 931.792 193.25 934.987 195.456C935.076 195.51 935.234 195.543 935.398 195.577C935.816 195.664 936.27 195.759 935.716 196.235C934.626 197.191 934.668 197.694 936.135 197.912C937.284 198.071 938.55 197.912 938.592 196.596C938.632 195.354 939.581 194.59 940.575 193.79L940.589 193.779C940.644 193.734 940.7 193.689 940.755 193.645C941.849 192.928 942.684 191.878 943.136 190.651C943.56 189.461 943.56 188.161 943.136 186.971C942.796 186.289 942.676 185.518 942.792 184.766C942.917 184.003 943.264 183.294 943.79 182.728C945.769 180.842 946.624 179.031 944.201 176.474C948.863 177.362 951.747 176.314 952.803 172.566C953.239 171.099 955.562 170.294 955.796 170.705C956.265 171.587 957.199 172.185 958.119 172.775C959.535 173.682 960.92 174.57 960.534 176.44C959.603 180.859 962.638 181.764 966.403 182.309C966.636 182.337 966.869 182.363 967.101 182.39C971.465 182.894 975.585 183.37 978.292 187.549C979.268 188.841 980.516 189.903 981.947 190.66C983.431 191.453 985.059 191.941 986.734 192.093C985.224 193.024 984.139 192.587 983.128 192.18C982.225 191.816 981.381 191.476 980.346 192.152C982.366 193.762 982.022 195.254 979.801 196.638C978.627 197.367 978.409 198.315 979.557 199.446C980.457 200.481 981.273 201.586 981.997 202.75C977.081 205.048 971.965 204.955 966.883 204.862C964.902 204.826 962.926 204.79 960.97 204.896C954.749 205.181 953.038 207.294 955.025 212.442C955.082 212.6 955.245 212.748 955.411 212.898C955.807 213.257 956.223 213.634 955.26 214.22C954.388 214.722 953.533 215.26 952.677 215.799C948.966 218.134 945.251 220.473 940.168 219.921C939.065 219.859 937.962 220.022 936.924 220.399C936.298 220.551 935.721 220.86 935.247 221.296C934.785 221.701 934.451 222.231 934.282 222.822C934.111 223.393 934.111 224.003 934.282 224.574C934.468 225.158 934.81 225.68 935.272 226.083C935.508 226.348 935.865 226.501 936.22 226.655C936.823 226.914 937.424 227.173 937.435 227.97C937.011 227.996 936.59 228.02 936.171 228.041C935.812 228.06 935.456 228.078 935.1 228.096L935.091 228.096L935.073 228.097C933.337 228.183 931.623 228.268 929.889 228.464C928.941 228.641 927.978 228.725 927.013 228.716H926.778C926.301 228.633 925.859 228.412 925.508 228.079C925.156 227.747 924.91 227.318 924.8 226.846C924.729 226.697 924.626 226.565 924.498 226.461C924.367 226.347 924.212 226.264 924.045 226.217C923.873 226.188 923.697 226.188 923.525 226.217C923.351 226.236 923.183 226.29 923.031 226.377C922.879 226.445 922.745 226.545 922.637 226.67C922.527 226.787 922.447 226.927 922.402 227.081C922.364 227.232 922.364 227.391 922.402 227.542C922.42 227.697 922.478 227.844 922.57 227.97C922.641 228.107 922.709 228.246 922.773 228.387C922.819 228.49 922.863 228.594 922.905 228.699C922.246 228.733 921.585 228.733 920.926 228.699C920.585 228.67 920.196 228.666 919.796 228.662C918.232 228.646 916.488 228.628 916.642 227.106C916.793 225.581 916.574 224.022 916.356 222.464C915.943 219.518 915.531 216.574 917.615 213.859C917.623 214.075 917.677 214.286 917.774 214.479C918.332 215.648 919.141 215.349 919.957 215.048C920.44 214.869 920.925 214.69 921.362 214.815C922.61 215.238 923.963 215.238 925.211 214.815C926.407 214.407 927.414 213.579 928.044 212.484C929.098 210.527 927.456 208.73 926.036 207.175C925.926 207.055 925.818 206.936 925.712 206.819C925.65 206.751 925.589 206.683 925.529 206.615C924.879 205.88 923.972 205.316 923.092 204.768C921.965 204.067 920.883 203.393 920.44 202.423C919.713 200.846 920.916 200.01 922.185 199.129C922.98 198.576 923.8 198.006 924.188 197.225H924.179ZM961.489 216.559C961.359 215.706 961.033 214.895 960.539 214.19C964.129 219.068 969.114 218.727 974.184 218.38C974.398 218.365 974.611 218.35 974.825 218.336L975.08 218.319C976.329 218.227 978.711 218.051 978.786 219.829C978.876 221.293 977.15 221.728 975.825 222.062L975.699 222.094L975.611 222.116C975.533 222.136 975.456 222.156 975.382 222.176C971.477 223.157 967.39 223.157 963.485 222.176C963.104 222.143 962.733 222.035 962.395 221.858C962.065 221.686 961.778 221.443 961.556 221.145C961.346 220.865 961.208 220.536 961.155 220.189C961.103 219.843 961.137 219.488 961.255 219.158C961.545 218.324 961.629 217.432 961.498 216.559H961.489ZM914.848 204.821C918.117 203.756 919.09 204.142 920.717 207.554C920.005 207.554 919.225 207.201 918.476 206.862C917.136 206.255 915.896 205.693 915.326 207.286C914.507 209.571 917.329 210.349 919.529 210.956C919.718 211.008 919.902 211.059 920.079 211.109C920.079 211.878 919.374 212.224 918.714 212.547L918.713 212.548L918.667 212.57C918.623 212.592 918.58 212.613 918.537 212.635C918.973 212.048 918.713 211.587 918.076 211.251C916.767 210.56 915.498 209.697 914.227 208.834C912.785 207.854 911.34 206.872 909.834 206.137C910.053 206.081 910.274 206.027 910.495 205.973C910.758 205.909 911.023 205.845 911.288 205.781C912.481 205.494 913.69 205.204 914.856 204.829L914.848 204.821ZM560.629 70.3455L561.132 70.3453C567.659 70.342 567.9 70.3418 566.951 75.8791C564.964 88.1033 562.809 100.336 558.206 112.149C557.79 113.002 557.342 113.818 556.892 114.639L556.724 114.945C556.659 115.064 556.594 115.183 556.529 115.302L555.892 115.185V95.0623C555.892 93.5531 556.387 92.4632 558.491 92.2871C561.53 92.039 561.508 90.2358 561.488 88.514C561.486 88.3735 561.484 88.2335 561.484 88.095C561.484 87.9589 561.486 87.82 561.488 87.6793V87.663C561.512 85.9092 561.54 83.8912 558.189 83.7519C556.211 83.6429 555.892 82.5027 555.892 81.1863C555.892 80.4345 555.908 79.6827 555.924 78.931C555.955 77.4274 555.987 75.9238 555.892 74.4202C555.598 71.4941 556.999 70.379 560.629 70.3455ZM537.338 82.9889C537.043 79.9256 536.567 76.8824 535.912 73.8752C535.074 71.033 536.751 70.3203 539.559 70.0017C542.734 69.7557 542.723 71.4776 542.713 73.1627C542.712 73.2579 542.712 73.353 542.712 73.4476V114.598H542.276C540.599 104.061 538.939 93.5252 537.296 82.9889H537.338Z" fill="#FFF0CA"/>
</svg>
