<svg width="1440" height="1569" viewBox="0 0 1440 1569" fill="none" xmlns="http://www.w3.org/2000/svg">
<path d="M0 1569H1441V30.653L1434.82 32.196L1434.61 32.1964L1434.28 32.1978C1431.81 32.209 1429.55 32.2194 1427.78 30.0435C1426.57 28.5549 1424.5 28.7587 1422.56 28.9492C1422.08 28.9969 1421.6 29.0439 1421.15 29.0632C1417.2 29.1923 1415.3 28.0747 1415.72 24.5245C1415.85 22.1666 1415.85 19.8013 1415.72 17.4434C1415.72 15.0848 1414.73 14.1486 1411.91 14.1486H1389.38C1386.31 14.1486 1385.27 15.1919 1385.33 17.6438C1385.37 20.7141 1385.36 23.7798 1385.35 26.8439V26.8556C1385.33 30.8765 1385.32 34.8948 1385.44 38.9175C1385.44 42.1986 1384.05 43.338 1380.24 43.2749C1371.49 43.1467 1362.73 43.1467 1353.96 43.2749C1350.34 43.2749 1348.99 42.1025 1349.07 39.0575C1349.2 35.1359 1349.16 31.1959 1349.12 27.2563V27.2476L1349.11 26.3306C1349.09 24.6653 1349.07 23.0001 1349.07 21.3368C1349.07 21.2108 1349.08 21.0813 1349.08 20.9501V20.9449C1349.11 19.743 1349.14 18.4055 1347.06 18.366C1344.95 18.3256 1344.97 19.7175 1344.98 20.9453L1344.98 21.1353L1344.98 21.2599V27.9731C1344.98 30.2136 1344.98 31.8583 1341.83 32.4706C1339.83 32.8932 1339.98 34.4708 1340.09 35.7861L1340.11 35.9026C1340.11 35.9911 1340.12 36.0782 1340.13 36.1636C1340.13 38.8625 1338.69 39.9388 1335.59 39.9388C1331.83 39.9388 1328.07 39.9294 1324.31 39.9199H1324.31C1316.8 39.901 1309.3 39.8821 1301.79 39.9388C1297.72 39.9388 1297.29 38.0333 1297.41 35.3563C1297.41 35.2853 1297.41 35.2114 1297.42 35.1356C1297.42 35.0433 1297.43 34.948 1297.43 34.8511L1297.44 34.8335C1297.5 33.8184 1297.58 32.6206 1295.76 32.6765C1294.28 32.6765 1294.32 33.8451 1294.36 34.8015C1294.36 34.9421 1294.37 35.0782 1294.37 35.2053V55.658C1294.37 56.8634 1294.37 58.1978 1296.18 58.5107C1298.36 58.902 1298.51 60.2268 1298.66 61.6311L1298.68 61.8248C1299.31 67.4728 1298.5 68.1948 1291.76 68.2799C1291.49 68.2799 1291.22 68.2743 1290.94 68.2659C1290.69 68.2581 1290.43 68.2478 1290.17 68.2375H1290.17C1287.03 68.1129 1283.96 67.9912 1283.58 72.2502C1283.45 73.3923 1281.99 73.3556 1280.64 73.3219H1280.64C1280.22 73.3114 1279.82 73.3011 1279.46 73.3265C1278.77 73.3749 1278.07 73.3712 1277.37 73.3676C1274.82 73.3542 1272.34 73.3413 1270.41 75.8773C1268.92 77.824 1263.77 75.6714 1263.17 72.1322C1262.57 68.2689 1260.11 68.2689 1256.76 68.2689H1241.75C1241.53 68.2689 1241.3 68.2738 1241.06 68.2788C1239.24 68.3171 1237.11 68.3623 1236.86 66.2893C1236.85 66.1631 1236.83 66.0342 1236.81 65.9031C1236.75 65.5463 1236.67 65.1729 1236.59 64.7905C1236.15 62.7036 1235.66 60.3508 1238.11 58.983C1238.87 58.6217 1239.52 57.9939 1239.96 57.1874C1240.36 56.442 1240.51 55.5532 1240.37 54.6915C1240.37 53.2393 1240.37 51.7867 1240.36 50.334C1240.36 49.1189 1240.36 47.9037 1240.35 46.6882V46.6846C1240.33 41.343 1240.31 35.9987 1240.37 30.653C1240.37 27.77 1239.25 26.6195 1235.76 26.7815C1233.17 26.8949 1230.57 26.8573 1227.96 26.8195C1226.65 26.8005 1225.34 26.7815 1224.02 26.7815L1223.75 26.7809L1223.44 26.7793C1220.56 26.7633 1217.91 26.7485 1218.05 30.351C1218.05 31.8143 1216.51 32.2345 1214.99 32.2345C1213.78 32.2345 1212.49 32.3474 1211.2 32.4604C1208.33 32.7115 1205.46 32.9629 1203.47 31.9763C1199.34 29.8787 1196.75 30.469 1193.03 32.1165C1191.93 32.6251 1190.5 32.4976 1189.07 32.3704C1187.21 32.2043 1185.36 32.0391 1184.24 33.2888C1182.82 34.8677 1183.08 36.8749 1183.34 38.9247C1183.44 39.741 1183.54 40.564 1183.54 41.3694V124.844C1183.54 125.1 1183.55 125.355 1183.55 125.61C1183.6 127.679 1183.64 129.681 1180.72 131.299C1179.14 132.189 1179.38 134.017 1179.61 135.775C1179.7 136.442 1179.78 137.099 1179.77 137.691L1179.76 138.007C1179.65 143.223 1179.64 143.271 1173.34 142.587C1168.02 142.006 1162.69 141.397 1157.37 140.787L1157.32 140.781C1149.81 139.921 1142.3 139.061 1134.78 138.281C1129.6 137.722 1125.74 135.327 1121.84 132.902C1120.87 132.303 1119.91 131.702 1118.92 131.126C1117.29 130.174 1117.39 128.574 1117.49 127.004C1117.52 126.623 1117.54 126.244 1117.54 125.876C1117.54 97.5024 1117.54 69.1504 1117.42 40.7983C1117.42 40.4103 1117.48 39.9502 1117.55 39.469C1117.8 37.8053 1118.07 35.8907 1115.75 35.8396C1113.39 35.7876 1113.63 37.7444 1113.84 39.4333C1113.89 39.8866 1113.94 40.3206 1113.94 40.6912C1113.78 48.9448 1113.74 57.2175 1113.94 65.493C1113.94 68.7961 1112.73 70.1306 1108.51 70.0757C1093.95 69.9054 1079.4 69.9054 1064.87 70.0757C1060.39 70.0757 1059.07 68.7001 1059.29 65.235C1059.43 62.9243 1059.38 60.5381 1059.34 58.1542C1059.31 56.9631 1059.29 55.7727 1059.29 54.5927C1059.29 53.4203 1059.28 52.0309 1057.35 51.9568C1055.42 51.8827 1055.23 53.2803 1055.23 54.4526C1055.09 56.9604 1055.09 59.4763 1055.23 61.9841C1055.42 64.944 1053.84 66.1218 1050.51 65.8473C1046.53 65.537 1044.09 66.4073 1044.7 70.3337C1044.98 72.3052 1043.7 73.1646 1041.34 73.1646C1041.09 73.1646 1040.85 73.1683 1040.61 73.1743C1040.47 73.1779 1040.32 73.182 1040.18 73.1865L1039.76 73.2006C1038.71 73.2366 1037.66 73.2726 1036.61 73.1646C1032.45 72.7747 1030.92 73.7769 1030.25 77.7169C1029.98 79.3444 1028.79 80.7343 1027.56 82.1644C1026.15 83.8058 1024.69 85.5001 1024.54 87.6674C1019.1 87.2286 1017.48 90.234 1015.86 93.2349C1015.46 93.9718 1015.07 94.7084 1014.61 95.3937C1014.17 95.9294 1013.63 96.3386 1013.03 96.5881C1012.39 96.8348 1011.7 96.9117 1011.03 96.8132C1009 96.7052 1006.97 96.7052 1004.95 96.8132C1000.09 97.3843 996.906 95.8879 995.07 92.0055C994.662 90.7788 993.907 89.7472 992.926 89.0786C991.859 88.3661 990.645 87.9982 989.412 88.0133C986.937 88.0133 986.954 86.2383 986.968 84.7524C986.969 84.6432 986.97 84.5355 986.97 84.4302C986.97 82.5686 986.672 81.1161 984.051 80.5999C981.52 80.0986 981.596 78.3776 981.666 76.7959C981.677 76.5409 981.688 76.2896 981.688 76.0475V40.554C981.876 39.7137 981.876 38.8323 981.688 37.9922C981.481 37.1268 981.094 36.3325 980.561 35.6776C980.694 39.7968 977.85 39.7821 975.043 39.7676C974.877 39.7667 974.711 39.7659 974.546 39.7659H956.731C956.516 39.7659 956.301 39.7677 956.085 39.7695C953.501 39.7919 950.943 39.8138 950.354 36.6359C950.353 36.6003 950.35 36.5649 950.345 36.53C950.342 36.5107 950.339 36.4915 950.335 36.4724C950.319 36.3933 950.294 36.3168 950.26 36.2451C950.232 36.1844 950.197 36.1282 950.157 36.0771C950.118 36.0272 950.073 35.9824 950.025 35.9438C949.823 35.7554 949.57 35.6525 949.31 35.6525C949.05 35.6525 948.798 35.7554 948.596 35.9438C948.559 35.976 948.526 36.0117 948.495 36.0505C948.474 36.0771 948.455 36.1052 948.437 36.1346C948.415 36.1709 948.395 36.209 948.378 36.2489C948.363 36.2833 948.35 36.3186 948.339 36.3547C948.326 36.3989 948.316 36.4443 948.309 36.4904C948.307 36.5055 948.305 36.5208 948.303 36.536L948.301 36.5621C948.299 36.5857 948.298 36.6094 948.298 36.6331C947.785 39.7047 945.377 39.7129 942.935 39.7212C942.596 39.7223 942.256 39.7235 941.921 39.7329C941.683 39.7329 941.444 39.7341 941.205 39.7363L940.81 39.7406C940.421 39.7454 940.029 39.752 939.637 39.7585L939.621 39.7589C938.06 39.7853 936.478 39.812 934.897 39.7329C931.272 39.5353 929.954 40.9384 929.954 43.9283C930.023 50.325 930 56.7496 929.977 63.1453V63.1958C929.966 66.3699 929.954 69.5369 929.954 72.6896C929.954 76.1848 929.623 79.0156 924.065 78.5626C920.811 78.3044 920.811 80.3171 920.811 82.3077C920.811 84.7574 920.796 87.2081 920.781 89.6591C920.752 94.562 920.722 99.4662 920.811 104.367C920.811 107.593 919.47 108.669 915.625 108.669C909.938 108.61 904.231 108.61 898.518 108.61C892.806 108.61 887.088 108.61 881.381 108.551C877.503 108.551 876.455 109.693 876.714 112.714C877.621 123.884 879.814 134.908 882.009 145.939C882.26 147.202 882.511 148.465 882.761 149.728C883.332 152.802 883.968 155.88 884.604 158.957L884.606 158.967L884.607 158.972C885.145 161.576 885.683 164.18 886.182 166.782C886.632 169.193 887.845 170.56 891.092 170.42C893.719 170.369 896.332 170.875 898.801 171.914L898.887 171.949C901.117 172.86 903.143 173.688 899.944 176.068C897.8 177.66 899.22 180.628 902.31 181.447C904.289 181.971 906.448 182.446 908.617 182.924C909.007 183.01 909.398 183.096 909.787 183.182C910.614 183.365 911.438 183.55 912.249 183.739C912.358 183.767 912.472 183.792 912.588 183.817C913.248 183.962 913.967 184.12 914.062 184.816C914.166 185.574 913.407 185.842 912.749 186.074L912.67 186.102L912.597 186.128C912.062 186.303 911.536 186.469 911.015 186.634C909.769 187.027 908.552 187.412 907.322 187.882C907.119 187.957 906.902 188.029 906.682 188.102C905.514 188.488 904.242 188.909 904.242 190.032C904.242 193.436 901.542 194.026 898.87 194.611C898.449 194.703 898.028 194.795 897.619 194.898C895.254 195.467 892.874 196.019 890.491 196.571L890.46 196.578C887.588 197.244 884.712 197.91 881.853 198.61C879.592 199.148 877.622 199.914 880.679 201.836C881.733 202.487 881.506 202.898 881.192 203.469C881.064 203.701 880.922 203.958 880.845 204.269C879.561 209.365 875.864 210.364 870.449 210.859C868.65 211.031 866.435 214.087 866.506 216.926C866.602 220.601 866.57 224.284 866.538 227.964V227.966C866.522 229.804 866.506 231.641 866.506 233.475C866.506 233.785 866.546 234.15 866.587 234.531C866.736 235.912 866.909 237.511 865.315 237.511C863.414 237.511 863.501 235.748 863.574 234.272C863.592 233.925 863.608 233.593 863.598 233.305C863.448 229.797 863.415 226.29 863.383 222.786C863.364 220.775 863.345 218.765 863.305 216.756L863.305 216.572C863.307 213.288 863.309 210.071 857.527 209.966C855.238 209.966 852.806 203.489 854.523 201.842C856.732 199.733 855.321 199.294 853.199 198.766L832.123 193.385C832.005 193.354 831.88 193.322 831.749 193.29L831.462 193.219C830.318 192.937 828.919 192.593 828.828 192.149C828.187 188.202 824.817 187.3 821.306 186.36C820.145 186.05 818.968 185.735 817.869 185.304C819.725 183.588 821.97 183.148 824.122 182.726C824.952 182.563 825.767 182.403 826.541 182.174C831.699 180.634 832.318 179.214 829.078 175.439C827.684 173.814 828.992 172.984 830.403 172.339C833.163 171.203 836.071 170.613 839.003 170.596C839.464 170.652 839.931 170.616 840.382 170.489C840.82 170.367 841.235 170.152 841.604 169.854C841.955 169.571 842.248 169.204 842.464 168.778C842.668 168.385 842.792 167.944 842.826 167.487C848.889 138.652 854.676 109.751 852.832 80.3336C852.172 69.9946 850.59 59.7341 849.008 49.4791C848.242 44.5159 847.477 39.5538 846.817 34.5848C846.342 30.9315 845.809 27.2948 845.277 23.6624C844.818 20.5299 844.359 17.4006 843.939 14.2666C843.648 11.941 842.655 10.6615 839.501 10.8674C836.494 11.0558 836.551 12.6421 836.609 14.2354C836.617 14.4546 836.625 14.674 836.625 14.8899C836.625 18.6472 836.605 22.4082 836.585 26.1708V26.1788C836.545 33.7058 836.504 41.2388 836.625 48.7609C836.625 52.517 835.703 54.6146 830.719 54.0133C827.244 53.6042 825.881 55.0566 826.172 57.9067C826.28 58.2703 826.307 58.6592 826.25 59.038C826.2 59.4263 826.07 59.7953 825.871 60.1143C825.658 60.4482 825.391 60.7324 825.085 60.9517C824.755 61.172 824.395 61.3287 824.02 61.4158C822.148 62.0146 822.271 63.3802 822.388 64.6704C822.416 64.9774 822.443 65.2802 822.443 65.5673V102.593C822.443 106.972 820.63 109.295 815.673 109.929C812.378 110.341 812.054 111.673 812.054 113.911V145.019C812.054 151.884 809.193 154.207 801.074 154.207H785.589C777.132 154.207 774.869 152.282 774.869 144.964V44.472C774.869 39.9746 774.09 39.4694 769.003 39.6396C766.192 39.7494 765.144 40.7819 765.192 43.1486C765.236 44.9673 765.206 46.7814 765.176 48.5931C765.142 50.7257 765.107 52.8551 765.192 54.9854C765.373 58.1483 763.791 59.3098 760.217 58.9858H757.411C753.659 58.6288 752.461 60.0841 752.542 63.1044C752.647 67.4814 752.612 71.8622 752.577 76.241V76.2428C752.559 78.4309 752.542 80.6184 752.542 82.8047C752.542 85.9375 751.279 87.25 747.339 87.25C738.888 87.1639 730.437 87.1926 721.987 87.2213C717.762 87.2357 713.537 87.25 709.313 87.25C702.075 87.25 700.736 85.9485 700.736 79.7708V47.4923C700.736 45.0596 700.577 43.0745 696.794 42.7999C694.042 42.5924 694.102 40.8003 694.158 39.1635C694.165 38.9369 694.173 38.7134 694.173 38.4974V5.37878C694.19 4.21741 694.161 3.03125 694.08 1.90271C693.999 0.774292 693.127 0 691.636 0C690.144 0 689.208 0.527222 689.065 1.75452C688.948 3.05859 688.906 4.37024 688.939 5.68079V103.038C688.939 106.997 688.229 109.526 682.633 108.826C681.544 108.697 679.867 108.826 679.97 109.902C680.283 112.681 678.329 114.095 676.365 115.516C675.562 116.097 674.757 116.679 674.104 117.357C673.675 117.802 673.231 118.24 672.787 118.678C670.349 121.083 667.923 123.475 668.003 127.117C668.003 128.855 666.188 130.149 663.801 130.138C661.414 130.127 659.601 128.759 659.727 127.005C660.004 123.066 657.534 120.324 655.059 117.577C654.661 117.136 654.263 116.694 653.876 116.247C653.596 115.924 653.29 115.621 652.975 115.326C652.796 115.158 652.614 114.992 652.433 114.827C651.097 113.611 649.786 112.418 649.786 110.382C649.786 108.392 647.249 108.628 645.672 108.823C640.69 109.347 639.554 107.305 639.666 103.581C639.792 99.2896 639.779 95.0011 639.765 90.7136V90.7048C639.755 87.2466 639.744 83.7889 639.806 80.3308C639.806 77.4698 638.704 76.2864 635.187 76.3934C631.436 76.5015 627.68 76.4655 623.925 76.4294L623.887 76.4291C622.022 76.4113 620.158 76.3934 618.294 76.3934C615.324 76.3934 614.109 75.3171 614.197 72.8955C614.27 69.2251 614.245 65.5535 614.221 61.8757C614.209 60.0345 614.197 58.1919 614.197 56.3472C614.197 53.9254 613.408 52.5499 610.254 52.8519C606.459 53.077 605.983 51.0425 605.983 48.5466V13.5527C605.983 13.318 605.988 13.0817 605.994 12.8458C606.042 10.8672 606.089 8.92859 602.743 8.30298C601.241 8.03088 601.189 6.91443 601.138 5.83557L601.138 5.8147C601.134 5.74902 601.131 5.68347 601.128 5.61853C601.123 5.52954 601.118 5.44128 601.111 5.35413C600.985 3.90161 600.094 3.23438 598.376 3.28931C598.047 3.25488 597.716 3.29114 597.399 3.39648C597.094 3.495 596.808 3.65894 596.556 3.87964C596.32 4.09314 596.126 4.36169 595.986 4.66772C595.859 4.95264 595.797 5.27002 595.805 5.59021C595.805 6.19067 595.781 6.80981 595.756 7.41541C595.733 7.99487 595.71 8.56189 595.71 9.08826V70.5918C595.71 74.0927 595.71 77.0195 589.993 76.6323C587.572 76.4677 587.446 78.3759 587.629 79.7625C588.118 83.4005 585.816 84.3779 582.071 84.1748C580.862 84.1034 579.588 84.1273 578.32 84.1511H578.316C577.949 84.158 577.584 84.1648 577.22 84.1694C576.957 84.1727 576.695 84.1748 576.435 84.1748C571.799 84.3341 567.408 84.4741 568.197 78.6833C568.466 76.8767 566.746 76.3606 565.045 76.5336C559.928 77.0607 559.139 74.639 559.139 71.0889V42.7642C553.285 47.0144 547.086 50.6006 540.631 53.4724C539.859 53.7902 539.086 54.1112 538.313 54.4326C534.948 55.8307 531.567 57.2356 528.138 58.401C524.045 59.9354 519.732 60.5378 515.438 60.1747C513.125 59.9838 510.8 60.2531 508.565 60.9709C506.408 61.6511 504.379 62.7859 502.581 64.3179C502.489 64.3862 502.413 64.4808 502.34 64.5717C502.24 64.6962 502.146 64.8134 502.024 64.8451C499.498 65.5011 497.11 66.5941 494.723 67.6864C490.766 69.4971 486.814 71.3057 482.251 71.119C475.883 70.861 470.963 73.5929 468.598 77.8954C466.334 82.017 462.786 84.4712 459.231 86.9298C457.921 87.8354 456.611 88.7417 455.364 89.7321C449.582 94.1067 444.287 99.2815 439.598 105.141C437.233 108.413 434.475 111.279 431.407 113.653C429.465 115.05 427.561 116.501 425.656 117.953C419.064 122.978 412.457 128.014 404.159 130.868C400.292 132.255 396.665 134.407 393.438 137.227C390.888 139.537 387.797 140.916 384.562 141.186C383.636 141.167 382.723 141.439 381.92 141.972C380.221 143.726 377.997 144.723 375.776 145.717C373.855 146.577 371.937 147.436 370.366 148.784C367.527 151.225 364.204 153.039 360.885 154.85C359.143 155.8 357.402 156.75 355.734 157.79C354.415 158.526 352.98 158.944 351.516 159.018C350.053 159.092 348.591 158.821 347.222 158.221C346.153 157.794 345.028 157.484 343.918 157.178L343.915 157.177L343.914 157.176C342.445 156.771 341.003 156.374 339.756 155.725C338.248 154.926 336.612 154.397 334.98 153.87C332.603 153.102 330.234 152.337 328.28 150.741C325.907 148.795 323.787 149.097 321.903 151.505C320.335 153.363 318.4 154.755 316.264 155.563C307.356 159.264 298.299 162.361 288.122 160.942C285.488 160.566 283.127 159.649 280.767 158.732C279.609 158.282 278.451 157.832 277.261 157.446C274.003 156.315 270.831 155.011 267.666 153.709C265.953 153.005 264.241 152.301 262.519 151.626C258.412 150.183 254.064 149.901 249.843 150.802C245.612 151.524 241.464 151.189 237.326 150.78C237.333 150.777 237.34 150.774 237.347 150.771L237.364 150.766C237.381 150.761 237.397 150.756 237.412 150.747C237.724 150.582 237.984 150.307 238.153 149.962C238.229 149.737 238.309 149.514 238.391 149.29C238.439 149.157 238.488 149.025 238.538 148.892C238.595 148.74 238.652 148.588 238.709 148.435C239.594 146.088 240.478 143.74 239.675 141.085C239.555 140.694 239.344 140.303 239.132 139.909C238.502 138.742 237.861 137.556 239.565 136.307C239.782 136.173 239.437 135.179 239.089 135.349C237.899 135.936 237.048 135.418 236.192 134.897C235.709 134.604 235.223 134.309 234.675 134.21C233.462 134.177 232.664 134.814 232.831 135.986C233.381 140.547 234.05 145.11 234.737 149.66C234.84 150.027 235.045 150.345 235.32 150.566C235.326 150.577 235.332 150.581 235.338 150.583L234.857 150.535L234.855 150.535C232.913 150.339 230.993 150.146 229.005 150.146L228.815 150.145L228.682 150.144L228.443 150.142C226.585 150.126 225.258 150.115 224.023 151.897C222.194 154.51 219.435 153.289 217.05 152.234L216.779 152.114C208.282 147.841 200.231 142.478 192.777 136.126C191.694 135.328 190.507 134.735 189.261 134.372C185.809 133.735 182.593 131.626 180.077 128.331C179.159 126.989 177.767 126.111 176.338 125.209C174.96 124.34 173.547 123.449 172.494 122.101C171.192 120.437 169.467 119.126 167.727 117.803C165.339 115.988 162.921 114.15 161.521 111.344C160.431 109.136 157.84 107.891 155.355 106.697L155.353 106.696C154.769 106.416 154.192 106.139 153.641 105.852C149.041 103.557 144.652 100.739 140.538 97.4392C133.909 92.3822 126.794 88.226 119.335 85.0535C116.698 84.1047 114.276 82.4958 112.241 80.3418C111.447 79.4368 110.495 78.7358 109.449 78.2853C105.243 76.5935 101.19 74.4315 97.3492 71.8302C95.3066 70.4265 92.9736 69.6829 90.5954 69.6775C85.7483 69.6775 81.7504 67.7046 77.7258 65.7185C76.932 65.3268 76.1371 64.9346 75.3344 64.5568C71.8083 62.9755 68.2058 61.6306 64.5449 60.5288C59.7504 58.9846 55.8614 56.1971 51.972 53.4094C49.6579 51.7507 47.3437 50.092 44.8385 48.6949C40.9999 46.5464 36.9679 44.7588 32.96 42.9818L32.9584 42.9811L32.9561 42.98C32.2991 42.6886 31.6426 42.3976 30.9878 42.1052C27.6526 40.6194 24.2368 39.2937 20.8197 37.9675L20.8139 37.9653C13.6375 35.1804 6.45546 32.3932 0.0012329 28.116L0 1569Z" fill="#182E35"/>
<path d="M118.423 14.7197C118.692 15.1129 119.075 15.3802 119.502 15.472C120.968 16.1371 122.229 17.2921 123.121 18.7888C124.193 20.5077 125.724 21.774 127.481 22.3939C129.337 23.0798 131.324 23.1465 133.212 22.5861C134.63 22.1084 136.137 22.1084 137.555 22.5861C138.911 23.0189 140.111 23.9431 140.976 25.2219C141.622 26.1362 143.001 27.4487 143.687 26.6964C145.741 24.2639 147.651 21.6763 149.405 18.9508C149.456 18.8904 149.401 18.7727 149.34 18.6449C149.291 18.5402 149.238 18.4285 149.238 18.3357C148.495 15.4734 146.29 13.9198 144.084 12.366C143.014 11.6124 141.944 10.8589 141.041 9.95593C140.764 9.65381 139.645 9.45886 140.04 10.3951C140.756 12.0049 140.127 11.8634 139.372 11.6937C139.123 11.6377 138.86 11.5786 138.627 11.5786C138.056 11.5786 137.454 11.5154 136.854 11.4524C134.394 11.1937 131.975 10.9396 131.874 15.0767C131.857 15.9429 130.564 16.4457 129.621 16.8119L129.572 16.8311C129.432 16.8668 129.286 16.8668 129.146 16.8311C129.004 16.811 128.868 16.7517 128.75 16.6581C128.645 16.5751 128.562 16.4589 128.512 16.3231C128.46 16.1968 128.445 16.0537 128.472 15.9167C128.758 14.5011 128.134 13.3212 127.479 12.0826C126.964 11.109 126.43 10.099 126.304 8.90979C125.484 12.0948 123.683 12.6549 121.063 11.5483C120.756 11.4125 120.482 11.1188 120.208 10.8264C119.658 10.2386 119.112 9.65625 118.328 10.3733C117.935 10.7062 118.023 11.5558 118.11 12.4048C118.148 12.7671 118.185 13.1293 118.185 13.4512C118.138 13.6696 118.136 13.8973 118.177 14.1171C118.218 14.3369 118.302 14.543 118.423 14.7197Z" fill="#182E35"/>
<path d="M90.3214 49.9552C89.5843 50.0785 88.8319 49.9556 88.1536 49.601C87.5242 49.2705 87.0127 48.7004 86.7051 47.9866C86.6062 47.8546 86.5483 47.6884 86.5407 47.5143C86.5294 47.3436 86.568 47.1735 86.6503 47.031C86.7367 46.8728 86.8596 46.7454 87.0053 46.6631C87.1582 46.5684 87.3296 46.5201 87.5032 46.5231C88.1344 46.425 88.6647 45.9923 89.2008 45.5548C90.1963 44.7423 91.2121 43.9133 92.9324 45.1804C95.8537 47.3877 99.2962 48.49 102.745 49.5942L102.747 49.595L102.748 49.5953C104.558 50.1748 106.369 50.7549 108.108 51.4955C108.736 51.8514 109.452 51.9427 110.133 51.7537C110.466 51.668 110.782 51.5105 111.064 51.2896C111.333 51.0927 111.559 50.8279 111.726 50.5153C113.983 45.3744 118.518 45.6555 122.702 45.9149C123.281 45.9508 123.852 45.9862 124.41 46.0068C128.897 45.9912 133.278 47.5862 136.943 50.5702C138.07 51.4272 139.377 51.9176 140.726 51.9897C144.924 52.636 148.914 54.4865 152.33 57.3713C152.918 57.6821 153.381 58.24 153.624 58.9309C153.731 59.2507 153.779 59.5924 153.767 59.9347C153.755 60.2771 153.682 60.6129 153.553 60.9215C153.254 61.5864 152.759 62.1057 152.156 62.385C151.51 62.6986 150.796 62.781 150.108 62.6211C147.066 62.2155 144.044 61.6298 141.055 60.8666C139.183 60.3423 137.269 60.0244 135.359 59.7073C132.997 59.3153 130.642 58.9243 128.381 58.1456C127.436 57.8535 126.436 57.9131 125.522 58.3158C124.676 58.6788 123.975 59.3872 123.552 60.3064C122.764 61.8029 121.92 62.0609 120.288 61.3306C118.939 60.6956 117.602 61.0162 116.222 61.347C114.96 61.6499 113.662 61.9612 112.286 61.5558C111.975 61.4626 111.672 61.3832 111.383 61.3076C109.604 60.8414 108.384 60.522 109.356 58.0577C109.497 57.7797 109.551 57.4545 109.51 57.136C109.469 56.8174 109.335 56.5247 109.13 56.306C108.996 56.1743 108.829 56.0946 108.653 56.0781C108.039 55.9332 107.867 56.3223 107.696 56.7096C107.601 56.9246 107.506 57.139 107.336 57.2615C105.288 58.5895 103.767 57.7048 102.236 56.8145C101.681 56.4917 101.125 56.1682 100.542 55.9491C100.852 55.2964 101.369 55.1859 101.852 55.0824C102.165 55.0153 102.465 54.9512 102.686 54.7437C102.976 54.4976 103.173 54.1317 103.236 53.7223C103.267 53.5269 103.263 53.3263 103.226 53.1324C103.188 52.9386 103.117 52.7554 103.017 52.5938C102.69 51.7866 102.019 51.7427 101.349 52.1957C99.95 53.1199 98.8526 52.5404 97.5705 51.8629L97.566 51.8607C95.3304 50.5281 92.8374 49.8723 90.3214 49.9552Z" fill="#182E35"/>
<path d="M266.381 54.0023C266.754 54.3713 267.053 54.8303 267.256 55.3469C267.459 55.8636 267.561 56.4253 267.555 56.9924C267.793 62.4371 268.549 67.2585 273.987 70.8829C276.004 72.224 277.749 73.9384 279.509 75.6674C281.381 77.5066 283.269 79.3624 285.52 80.8031C287.147 81.6515 288.479 83.3099 289.248 85.4406C289.584 86.7894 290.078 88.0966 290.571 89.4044C291.307 91.3527 292.043 93.3024 292.26 95.3937C292.371 96.6049 292.825 97.7399 293.553 98.6227C294.354 99.59 295.371 100.283 296.493 100.624C297.801 101.064 298.432 101.852 297.486 103.109C297.265 103.342 297.115 103.651 297.06 103.99C297.005 104.324 297.049 104.67 297.186 104.971C298.644 107.991 297.596 110.803 296.398 113.578C296.105 114.101 295.988 114.729 296.067 115.344C296.161 115.97 296.439 116.539 296.855 116.956C297.474 117.708 298.242 118.273 299.094 118.603C299.99 118.971 300.945 119.109 301.891 119.007C302.818 118.913 303.714 118.578 304.512 118.026C305.267 117.509 305.888 116.766 306.308 115.877C306.366 116.826 306.843 117.607 307.335 118.411C307.796 119.164 308.269 119.938 308.421 120.89C308.432 120.951 308.443 121.013 308.455 121.076L308.485 121.231C308.654 122.103 308.836 123.04 307.973 123.6C307.197 124.21 306.213 123.963 305.648 123.021C305.629 122.997 305.61 122.974 305.589 122.952C305.456 122.8 305.295 122.684 305.118 122.614C304.941 122.544 304.753 122.521 304.567 122.547C304.381 122.574 304.203 122.649 304.046 122.767C303.939 122.847 303.844 122.945 303.764 123.058C303.727 123.111 303.692 123.167 303.661 123.227C303.119 123.722 302.676 124.346 302.363 125.057C302.05 125.768 301.875 126.549 301.848 127.345C301.923 128.091 302.681 128.04 303.385 127.992C303.554 127.98 303.721 127.969 303.873 127.969C307.192 127.625 308.295 129.251 308.295 132.274C308.343 134.695 308.525 137.109 308.84 139.503C308.886 140.138 309.142 140.728 309.555 141.151C310.011 141.624 310.586 141.917 311.197 141.988C311.45 142.089 311.718 142.129 311.985 142.106C312.258 142.102 312.526 142.029 312.771 141.892C313.001 141.781 313.205 141.608 313.364 141.387C313.515 141.185 313.622 140.945 313.679 140.687C313.865 139.769 314.112 138.824 314.361 137.87C315.317 134.213 316.31 130.416 314.041 127.507C312.475 125.499 312.905 123.641 313.317 121.859C313.658 120.387 313.987 118.966 313.167 117.554C315.515 115.892 315.522 113.626 315.528 111.352C315.532 110.166 315.535 108.977 315.871 107.87C315.952 107.205 315.884 106.527 315.673 105.901C315.448 105.245 315.091 104.658 314.632 104.191C314.529 104.085 314.409 104.004 314.278 103.951C314.148 103.899 314.009 103.878 313.872 103.888L313.841 103.891L313.812 103.894L313.794 103.897C313.749 103.904 313.704 103.915 313.66 103.929C313.596 103.949 313.534 103.976 313.475 104.01C313.392 104.057 313.315 104.116 313.246 104.186C313.212 104.221 313.18 104.258 313.15 104.298C312.712 104.694 312.428 105.275 312.361 105.912C312.336 106.223 312.365 106.537 312.447 106.835C312.529 107.132 312.662 107.408 312.838 107.645C311.783 109.703 310.454 111.556 308.898 113.136C308.259 113.191 307.559 112.889 307.559 112.351C307.492 111.826 307.339 111.31 307.187 110.802C306.799 109.496 306.424 108.235 307.559 106.972C309.86 104.501 308.243 103.293 306.075 102.217L305.946 102.149L305.856 102.101C304.681 101.483 303.307 100.76 303.885 99.4189C304.246 98.5817 304.876 98.8136 305.54 99.0576C306.005 99.229 306.487 99.4064 306.904 99.224C307.139 99.0781 307.359 98.9011 307.559 98.6968C306.175 97.1335 304.472 95.9974 302.606 95.3937C301.848 95.1027 301.084 94.5865 301.431 93.6501C301.714 93.1716 302.111 92.7985 302.575 92.5767C303.752 93.3942 305.025 93.156 306.31 92.9159C307.493 92.6947 308.685 92.4718 309.82 93.0708C310.003 93.1687 310.176 93.33 310.351 93.4932C310.831 93.9393 311.325 94.3999 312.08 93.62C312.356 93.3138 312.546 92.92 312.626 92.4888C312.686 92.0408 312.614 91.5824 312.421 91.1873C312.266 90.7397 312.115 90.2886 311.964 89.8367C310.725 86.1301 309.47 82.3743 305.562 80.1497C304.913 79.7765 304.395 79.1569 304.095 78.3951C303.732 77.2769 303.033 76.3456 302.125 75.7703C301.143 75.1268 300.022 74.8237 298.894 74.8971C297.355 74.845 295.621 74.6226 295.44 72.4672C295.422 72.2855 295.415 72.0831 295.408 71.8732C295.368 70.7753 295.321 69.469 293.753 69.8285C291.886 70.2568 292.705 71.9592 293.305 73.1536C293.945 74.4351 293.268 75.3079 292.566 76.2144C292.454 76.3586 292.341 76.5038 292.233 76.6516C292.158 76.8234 292.043 76.9685 291.902 77.0717C291.747 77.1825 291.572 77.2518 291.39 77.2749C291.264 77.2856 291.138 77.2756 291.015 77.2454C290.957 77.2312 290.9 77.2126 290.845 77.1897C290.679 77.1195 290.533 77.0001 290.421 76.8438C288.7 75.4709 288.936 70.5616 290.513 69.0021C290.756 68.7614 291.21 68.5276 291.693 68.2789C293.221 67.4921 295.041 66.5553 291.381 64.7737C291.111 64.6748 291.126 63.8798 291.138 63.245L291.138 63.2413C291.14 63.1199 291.142 63.0045 291.142 62.9011C290.985 61.1604 290.242 59.62 289.132 58.736C287.857 57.624 286.292 57.0432 284.693 57.0885H278.845C278.284 57.14 277.72 57.0287 277.206 56.7645C276.72 56.5239 276.305 56.1239 276.015 55.614C274.772 53.3809 272.548 52.4948 270.336 51.6129C269.809 51.403 269.282 51.1932 268.77 50.9656C268.238 50.7058 267.649 50.6416 267.083 50.7816C266.537 50.8972 266.04 51.2201 265.671 51.6987C264.985 52.528 265.742 53.3845 266.381 54.0023Z" fill="#182E35"/>
<path d="M860.341 164.536C860.56 167.389 859.236 168.528 855.776 168.528L855.483 168.531C848.996 168.584 848.75 168.586 849.675 163.092C851.669 151.041 853.68 139.001 858.116 127.37C858.363 126.743 858.669 126.145 858.979 125.541L858.981 125.537L858.986 125.526L858.995 125.509L859.126 125.252L859.232 125.044L859.29 124.927C859.401 124.705 859.51 124.48 859.614 124.251L860.269 124.38V144.149C860.341 144.506 860.322 144.88 860.215 145.225C860.112 145.574 859.936 145.888 859.703 146.14C859.449 146.408 859.151 146.614 858.826 146.744C858.486 146.875 858.128 146.933 857.77 146.914C854.904 147.144 854.891 148.71 854.877 150.449C854.876 150.642 854.874 150.837 854.869 151.032C854.865 151.152 854.861 151.273 854.857 151.394C854.791 153.249 854.722 155.175 858.023 155.338C859.836 155.445 860.229 156.562 860.229 157.856C860.167 160.083 860.205 162.313 860.341 164.536Z" fill="#182E35"/>
<path d="M879.518 165.011C880.276 167.806 878.682 168.556 875.988 168.83C872.928 169.105 872.935 167.388 872.943 165.716L872.943 165.618L872.943 165.472V124.94L873.394 124.877L878.122 156.013C878.404 159.047 878.87 162.053 879.518 165.011Z" fill="#182E35"/>
<path d="M324.69 112.568C324.154 113.235 324.004 114.246 324.942 114.548C325.601 114.754 325.703 114.386 325.829 113.934C325.94 113.537 326.07 113.075 326.61 112.878C326.688 114.19 327.122 115.388 327.547 116.564C328.2 118.367 328.833 120.117 328.132 122.142C327.982 122.61 328.384 122.984 328.774 123.345C328.914 123.475 329.053 123.604 329.164 123.735C332.058 126.684 334.052 130.986 334.76 135.816C334.847 136.7 335.041 137.566 335.336 138.389C335.378 138.497 335.418 138.608 335.458 138.72C335.748 139.535 336.045 140.368 337.259 140.368C337.826 140.434 338.398 140.34 338.927 140.094C339.42 139.873 339.851 139.501 340.172 139.017C340.319 138.76 340.481 138.504 340.648 138.249C340.699 138.171 340.75 138.094 340.802 138.016L340.97 137.765C342.267 135.832 343.556 133.91 340.856 131.571C340.581 131.231 340.376 130.822 340.258 130.377C340.161 129.939 340.161 129.48 340.258 129.042C340.707 126.941 340.056 125.016 339.405 123.091C338.823 121.369 338.241 119.647 338.445 117.799C338.517 117.208 338.462 116.313 337.523 116.313C334.721 116.393 334.899 115.175 335.073 113.978C335.158 113.396 335.242 112.819 334.984 112.398C335.793 112.287 336.435 112.719 337.031 113.12C337.916 113.715 338.701 114.243 339.784 112.829C339.985 112.653 340.152 112.431 340.275 112.177C340.398 111.924 340.474 111.644 340.499 111.354C340.518 111.069 340.486 110.782 340.404 110.512C340.322 110.241 340.192 109.994 340.022 109.784C339.462 109.217 339.299 109.591 339.118 110.009C338.966 110.359 338.801 110.74 338.376 110.621C338.268 109.931 338.035 109.253 337.801 108.575C337.25 106.973 336.7 105.374 337.807 103.628C340.456 99.4546 339.913 95.2455 337.807 91.083C336.418 88.3265 333.973 88.2897 331.478 88.2521H331.476C330.884 88.2432 330.29 88.2343 329.707 88.189C327.748 87.9923 327.461 88.9752 327.132 90.0968C327.03 90.4473 326.923 90.8113 326.76 91.1571C326.145 92.4728 325.996 93.8927 325.848 95.3081C325.657 97.1418 325.466 98.968 324.261 100.55C323.95 100.937 324.176 101.425 324.406 101.921C324.528 102.184 324.651 102.449 324.695 102.703C324.827 103.414 325.016 104.129 325.206 104.847C325.887 107.429 326.576 110.042 324.69 112.568Z" fill="#182E35"/>
<path d="M195.508 83.9895C195.508 83.6779 195.564 83.3696 195.674 83.0847C196.454 81.0632 195.804 79.277 195.161 77.5125L195.089 77.3129C195.055 77.2195 195.021 77.1263 194.988 77.0332L194.938 76.884L194.909 76.7981L194.848 76.6188C194.146 74.55 193.498 72.6395 196.108 71.3085C198.085 70.2322 202.485 71.3936 203.352 73.5901C204.448 76.4938 206.478 76.4008 208.809 76.2939L209.098 76.2809C212.604 75.8524 216.14 76.6351 219.259 78.5297C219.354 78.5964 219.452 78.6617 219.55 78.7261C219.707 78.8296 219.868 78.9305 220.027 79.0311C221.361 79.8721 222.655 80.6877 222.246 82.769C222.168 83.1644 222.108 83.5663 222.048 83.9684C221.729 86.0934 221.409 88.2256 218.518 89.4492C215.08 90.9045 217.856 93.8424 218.809 94.3915C221.108 95.7738 221.85 97.7031 222.612 99.6855C222.818 100.219 223.024 100.757 223.263 101.289C223.408 101.547 223.505 101.837 223.55 102.14C223.594 102.443 223.585 102.753 223.523 103.052C223.378 103.675 223.039 104.216 222.57 104.57C221.508 105.307 221.235 104.773 220.915 104.15C220.718 103.765 220.502 103.345 220.071 103.172C220 103.433 219.94 103.698 219.881 103.961C219.566 105.357 219.27 106.667 217.391 106.667C215.498 106.667 215.409 105.297 215.33 104.073C215.316 103.854 215.302 103.64 215.278 103.439C214.804 100.372 213.513 97.6506 211.652 95.811C211.175 95.2744 210.223 95.1401 209.285 95.0076C208.908 94.9543 208.532 94.9014 208.191 94.8226H207.505C205.008 93.9934 200.262 87.3982 200.262 84.5125C199.395 85.7728 198.449 87.0303 196.896 86.267C196.357 85.9973 195.922 85.5088 195.674 84.8942C195.564 84.6093 195.508 84.3011 195.508 83.9895Z" fill="#182E35"/>
<path d="M159.839 87.1841C159.806 86.7736 159.86 86.3597 159.997 85.9788C160.567 85.434 160.994 85.9542 161.334 86.3677L161.357 86.396C162.866 88.1669 164.736 89.4734 166.796 90.196C168.775 90.9349 169.431 92.6233 170.087 94.3148C170.233 94.6915 170.38 95.0684 170.541 95.4349C170.63 95.6503 170.667 95.9165 170.705 96.1859C170.798 96.8442 170.893 97.5216 171.753 97.5216C172.733 97.5216 172.713 97.011 172.69 96.4209C172.671 95.9171 172.649 95.3553 173.245 95.0038C174.496 97.1506 176.721 98.0292 178.985 98.9226L179.239 99.0232L179.551 99.1471C180.897 99.6742 182.481 100.578 182.088 102.277C181.78 103.609 180.542 103.665 179.387 103.716C179.068 103.73 178.756 103.744 178.471 103.785C178.107 103.836 177.666 103.751 177.215 103.663C176.035 103.433 174.78 103.189 174.607 105.344C178.124 104.85 179.882 106.354 179.574 109.649L179.558 109.797C179.451 110.773 179.395 111.278 180.889 111.39C181.914 111.423 182.923 111.694 183.855 112.186C184.732 112.652 185.503 113.345 186.109 114.21L186.145 114.262C186.506 114.782 186.972 115.454 186.347 115.964C185.847 116.192 185.305 116.274 184.77 116.201C183.789 116.201 183.142 115.627 182.494 115.054C182.212 114.803 181.929 114.553 181.618 114.35C181.441 114.234 181.256 114.086 181.064 113.933C180.154 113.204 179.082 112.347 177.807 114.125C177.23 114.932 176.006 114.372 175.291 113.9C175.118 113.806 174.965 113.671 174.843 113.502C174.731 113.343 174.657 113.154 174.629 112.952C174.603 112.755 174.625 112.554 174.693 112.37C174.758 112.188 174.86 112.026 174.991 111.898C176.08 110.553 175.56 109.831 174.205 109.056C172.712 108.249 173.392 108.075 174.065 107.902C174.458 107.801 174.849 107.701 174.803 107.475L174.334 107.337C170.472 106.2 166.862 105.138 165.438 100.578C165.006 99.2081 163.95 98.0956 162.873 96.9597C162.144 96.1918 161.405 95.4131 160.842 94.5371C159.982 93.6068 159.293 92.4862 158.817 91.2422C158.745 90.9215 158.519 90.6217 158.296 90.3243C157.888 89.7816 157.486 89.2467 158.029 88.6063C158.505 88.0454 159.022 88.3188 159.571 88.6093C159.992 88.8322 160.433 89.0649 160.888 88.9386C161.14 88.3743 160.754 88.1022 160.381 87.8396C160.113 87.6511 159.852 87.4674 159.839 87.1841Z" fill="#182E35"/>
<path d="M230.317 78.7603C233.525 79.6975 234.612 81.9473 235.758 84.3198L235.915 84.645C235.98 84.7783 236.045 84.9117 236.111 85.0452C236.14 85.1017 236.168 85.1594 236.196 85.2181L236.248 85.3275C236.302 85.444 236.355 85.5635 236.409 85.6841C236.874 86.7246 237.374 87.8435 238.61 87.7551C239.372 87.6824 240.087 87.3011 240.628 86.6788C240.867 86.3977 241.047 86.0582 241.157 85.6855C241.266 85.3129 241.301 84.9166 241.259 84.5262C241.397 85.3804 241.463 86.1984 241.526 86.9948C241.548 87.2645 241.569 87.5319 241.593 87.7974C241.607 87.9523 241.622 88.1066 241.638 88.2604C241.645 88.3256 241.652 88.3943 241.659 88.4655C241.722 89.0999 241.805 89.9283 242.165 90.111C242.406 90.2289 242.649 90.3423 242.892 90.4553L242.902 90.4597C244.454 91.1829 245.973 91.8905 246.722 93.609C246.839 93.7014 246.97 93.7667 247.108 93.8013C247.268 93.8217 247.43 93.8038 247.584 93.749C248.957 92.5092 250.592 92.4993 252.299 92.4889C253.317 92.4828 254.361 92.4764 255.389 92.2087C254.841 90.7504 253.776 90.5049 252.742 90.2668C252.571 90.2275 252.401 90.1884 252.235 90.1439C251.148 89.9893 250.129 89.4567 249.312 88.6173C248.604 87.662 247.592 86.9591 246.581 86.2563C244.868 85.0665 243.156 83.8768 242.917 81.462C242.866 81.2952 242.773 81.1493 242.651 81.042C242.523 80.9182 242.371 80.8333 242.207 80.7948C239.222 81.0695 236.34 79.2462 234.57 75.9514C234.316 75.5427 233.969 75.1897 233.62 74.8351C232.878 74.0797 232.129 73.3169 232.252 71.9922C232.27 71.7665 232.245 71.5391 232.18 71.3253C232.114 71.1117 232.01 70.9167 231.873 70.7538C231.564 70.3906 231.154 70.1626 230.715 70.1086C230.257 70.0547 229.795 70.1292 229.367 70.3256C228.971 70.5179 228.628 70.8301 228.373 71.2289C226.896 73.1124 227.954 78.137 230.317 78.7603Z" fill="#182E35"/>
<path d="M300.333 35.0983C299.936 35.0245 299.529 35.0536 299.142 35.1833C298.353 35.4414 297.415 35.7434 297.108 34.7111C296.852 34.0343 296.76 33.2906 296.841 32.5585C296.931 31.8212 297.186 31.1237 297.582 30.5349C299.04 28.7969 300.653 27.2424 302.396 25.8975L302.486 25.8243C303.239 25.2072 304.636 24.0638 304.864 26.5536C304.962 27.5251 305.499 27.1521 305.932 26.8523C306.06 26.7632 306.179 26.6805 306.275 26.6415C310.686 24.8917 314.088 26.8247 317.463 28.7421C318.24 29.1835 319.015 29.624 319.801 30.0187C320.426 30.3562 320.914 30.9565 321.166 31.6963C321.285 32.0439 321.334 32.4178 321.311 32.7904C321.287 33.163 321.192 33.5247 321.031 33.8489C320.394 35.021 319.215 34.6233 318.245 34.2963C318.013 34.218 317.793 34.1438 317.595 34.0961C315.766 33.7849 314.01 33.0538 312.431 31.9462C309.47 29.5127 308.306 31.8917 307.5 33.5399L307.428 33.6869L307.251 34.0525C306.322 35.978 305.855 36.9457 305.158 37.1581C304.454 37.3726 303.515 36.8167 301.628 35.6992L301.429 35.5814C301.101 35.3252 300.726 35.1598 300.333 35.0983Z" fill="#182E35"/>
<path d="M145.903 44.8125C145.833 45.2655 145.634 45.6785 145.336 45.9849C143.852 48.0612 145.346 48.306 146.969 48.5721L147.149 48.6016C147.554 48.4153 148.082 48.3557 148.615 48.2955C149.841 48.1571 151.094 48.0157 150.939 46.3198C150.755 44.2938 151.818 43.62 152.997 42.8723C153.1 42.8073 153.203 42.7417 153.307 42.6747C153.442 42.5869 153.578 42.4966 153.712 42.4017C155.278 41.3369 156.789 40.1689 158.238 38.9038C159.604 37.6908 158.906 36.5864 158.238 35.5277C158.01 35.1677 157.786 34.813 157.648 34.4612C157.198 33.3181 156.29 33.8171 155.543 34.2278L155.427 34.2913C155.373 34.3208 155.32 34.3494 155.268 34.3762C155.208 34.4072 155.15 34.4359 155.094 34.4612C154.85 34.5647 154.606 34.6676 154.361 34.7705C149.825 36.6791 145.268 38.5964 145.903 44.8125Z" fill="#182E35"/>
<path d="M363.038 117.19C362.849 116.746 362.659 116.298 362.376 116.03C362.134 115.799 361.867 115.578 361.601 115.358C360.529 114.473 359.468 113.597 360.127 112.071C361.313 109.579 362.629 107.172 364.069 104.864C364.085 104.824 364.147 104.8 364.232 104.782C364.253 104.777 364.276 104.773 364.3 104.769C364.337 104.763 364.377 104.757 364.418 104.751L364.469 104.743L364.525 104.735C364.582 104.725 364.638 104.715 364.691 104.702C365.565 105.151 366.414 105.664 367.231 106.239C368.365 107.164 369.301 108.375 369.966 109.781C370.577 111.103 370.881 112.586 370.847 114.084C370.847 116.237 368.961 116.837 367.108 117.426C366.312 117.679 365.523 117.93 364.891 118.301C363.79 118.956 363.418 118.082 363.038 117.19Z" fill="#182E35"/>
<path d="M137.036 79.8037C128.869 67.5057 128.207 66.7205 125.839 66.6023C126.126 67.2844 126.557 67.9008 126.994 68.5267C127.834 69.7274 128.698 70.9634 128.615 72.7665C128.251 72.4454 127.902 72.1102 127.557 71.7789C125.889 70.1776 124.316 68.6675 121.677 69.2931C121.906 70.4126 122.755 70.8246 123.596 71.2322C124.289 71.5684 124.976 71.9016 125.303 72.6263C126.618 75.5038 129.22 76.5574 131.82 77.6104C133.508 78.2937 135.194 78.9768 136.529 80.1578C136.709 80.0626 136.879 79.9438 137.036 79.8037Z" fill="#182E35"/>
<path d="M156.473 67.7858C155.559 67.1259 154.797 66.2217 154.251 65.1499C153.25 60.6853 158.436 56.4048 163.742 57.8655C161.182 59.3848 158.756 61.1862 156.497 63.2444C156.968 63.6178 157.538 63.8969 158.106 64.1754C159.439 64.8289 160.768 65.4803 160.823 67.3436L160.824 67.4452L160.825 67.5221L160.828 67.6672C160.845 68.4955 160.858 69.1017 159.682 69.2163C158.538 69.0012 157.445 68.514 156.473 67.7858Z" fill="#182E35"/>
<path d="M231.697 91.2312C232.25 92.7892 233.077 94.1989 234.124 95.3717L234.21 95.4559C234.988 96.224 235.886 97.1102 237.026 96.6759C237.509 96.4355 237.936 96.0667 238.272 95.5996C238.582 95.1582 238.776 94.6238 238.832 94.0593C238.924 93.8314 238.965 93.58 238.949 93.329C238.941 93.0736 238.876 92.8248 238.76 92.6068C238.641 92.3752 238.478 92.1774 238.284 92.0275C238.081 91.8602 237.855 91.7357 237.614 91.6595C236.876 91.4143 236.437 90.8903 236.008 90.3761C235.745 90.0614 235.485 89.7505 235.161 89.5096L234.975 89.3702C234.802 89.2397 234.628 89.1079 234.454 88.9755L234.448 88.9711C232.471 87.4672 230.415 85.9028 227.523 85.5916C227.603 87.266 228.679 88.1404 229.748 89.0093C230.534 89.6478 231.316 90.2833 231.697 91.2312Z" fill="#182E35"/>
<path d="M123.073 75.1991C123.073 73.9498 124.248 73.8867 124.648 74.499C126.035 76.4905 128.029 77.7421 130.018 78.9905C131.348 79.8247 132.675 80.6576 133.818 81.7091C134.368 82.2144 134.994 82.9117 134.606 83.752C134.225 84.5762 133.179 84.6843 132.337 84.7714H132.336L132.288 84.7761C129.608 84.6443 123.002 77.769 123.073 75.1991Z" fill="#182E35"/>
<path d="M502.736 47.344C504.027 47.8179 504.461 48.6807 504.877 49.5077C505.121 49.9935 505.359 50.467 505.762 50.842C505.922 50.9888 506.062 51.2083 506.208 51.4365C506.609 52.0629 507.052 52.755 508.063 52.1875C508.962 51.7164 508.703 51.0435 508.406 50.2742L508.405 50.2705C508.381 50.2103 508.358 50.1498 508.335 50.0886C508.31 50.0209 508.285 49.9526 508.261 49.8838C507.937 48.953 507.546 47.7861 509.349 47.9618C509.512 47.9781 509.689 48.02 509.868 48.0624C510.503 48.2123 511.162 48.3678 511.303 47.4127C511.484 46.1881 510.397 45.7982 509.363 45.5402C509.2 45.5026 509.034 45.4688 508.866 45.4368C508.715 45.408 508.563 45.3806 508.411 45.3533C506.853 45.073 505.293 44.7925 504.697 42.8933C504.639 42.7123 504.391 42.5887 504.191 42.4893C504.134 42.4606 504.08 42.4338 504.036 42.4083C504.025 42.4015 504.014 42.3948 504.003 42.3881C503.01 42.3881 502.688 42.9153 502.483 43.4424C502.064 44.8125 501.473 46.9541 502.736 47.344Z" fill="#182E35"/>
</svg>
