<svg width="242" height="69" viewBox="0 0 242 69" fill="none" xmlns="http://www.w3.org/2000/svg">
<path d="M156.542 15.7352C145.918 15.7826 137.264 23.888 137.312 33.9801C137.361 44.0722 146.102 52.1014 156.726 52.0561C167.35 52.0108 176.007 43.9034 175.956 33.8154C175.905 23.7274 167.166 15.692 156.538 15.7393L156.542 15.7352ZM156.689 44.6548C153.677 44.6713 150.782 43.574 148.642 41.6079C146.501 39.6417 145.315 36.9633 145.282 34.1674C145.248 31.3716 146.446 28.6849 148.564 26.6982C150.682 24.7115 153.568 23.61 156.58 23.5792C159.592 23.5483 162.486 24.66 164.627 26.6261C166.767 28.5923 167.954 31.2707 167.987 34.0666C168.018 39.6767 162.73 44.626 156.689 44.6548ZM199.584 24.2894C194.028 24.3141 189.701 28.5923 189.727 33.7495L189.816 51.0123L181.361 51.0494L181.19 16.744L189.645 16.707L189.674 22.0865C189.674 22.0865 193.267 16.6926 200.516 16.6617L202.933 16.6493L202.973 24.2709L199.584 24.2894ZM115.244 17.0364L121.645 40.5517L128.29 16.9787L136.745 16.9437L126.285 51.315L118.074 51.35L111.433 27.3899L105.032 51.4056L96.819 51.4406L85.778 17.1825L93.9889 17.1475L101.353 40.6588L107.275 17.0899L115.244 17.0364ZM227.639 32.2425C233.417 29.0802 237.498 23.2312 237.465 16.5052L229.01 16.5423C229.041 22.3727 223.988 27.1038 217.951 27.1244L216.742 27.1285L216.609 0L208.154 0.0370572L208.414 50.93L216.864 50.895L216.784 34.7542L217.749 34.7501C218.716 34.746 219.685 35.1907 219.932 35.8618L231.842 50.8291L241.745 50.7879L227.639 32.2425Z" fill="#FFDE88"/>
<path d="M66.2063 16.1303C57.0306 16.1715 50.0528 21.8063 47.4423 30.7846C43.0618 24.526 39.6439 17.3676 37.6832 11.323L28.024 11.3642L28.1438 35.1287C28.1544 37.3881 27.198 39.5591 25.4849 41.1643C23.7718 42.7695 21.4421 43.6776 19.008 43.689C16.5738 43.6989 14.235 42.8112 12.5057 41.221C10.7763 39.6309 9.79799 37.4684 9.78567 35.209L9.66368 11.4445L0 11.4857L0.119771 35.2501C0.170784 45.1117 8.65894 52.9268 19.0479 52.8794C29.4368 52.8321 37.8518 44.949 37.803 35.0854L37.7808 31.0502C39.7282 34.6263 42.1635 38.4268 44.8406 41.7806L38.9342 68.0361L48.8352 67.995L53.0937 48.9183C56.9685 51.1459 61.3001 52.4697 66.3926 52.4471C77.0211 52.3997 85.6778 44.2943 85.6224 33.9799C85.582 29.2277 83.5178 24.6833 79.8806 21.3387C76.2433 17.9941 71.3283 16.121 66.2085 16.1282L66.2063 16.1303ZM66.3438 43.2588C62.4801 43.2752 58.6098 41.7229 55.458 39.2689L56.4051 35.6804V35.4745C57.1148 31.6576 59.2485 25.1477 66.4968 25.1189C69.0526 25.115 71.5065 26.0481 73.3247 27.7154C75.1428 29.3826 76.178 31.6489 76.2049 34.021C75.9875 39.1783 71.4207 43.2341 66.346 43.2567L66.3438 43.2588Z" fill="#FFDE88"/>
</svg>
