<svg id="Layer_1" data-name="Layer 1" xmlns="http://www.w3.org/2000/svg" viewBox="0 0 6556.55 7502.76"><path d="M3946.84,813.46c11.31-1,18-3.73,14.82-13.91a236.35,236.35,0,0,1-5.86-32.77q-9.91-56.65-19.85-113.4l-1.89.23V801.23C3934.06,807.58,3933.37,814.51,3946.84,813.46Z" fill="#182e35"/><path d="M3862,812.36c14.52,0,20.08-4.15,19.16-14.54a237.91,237.91,0,0,1-.47-24.33c0-4.71-1.65-8.78-9.26-9.17-14.76-.63-13.47-8.55-13.24-15.68s-1.19-14.07,12.18-15a12.16,12.16,0,0,0,4.43-.62,10.49,10.49,0,0,0,3.68-2.2,8.17,8.17,0,0,0,2.15-3.33,7,7,0,0,0,.23-3.92v-72l-2.75-.47c-2.05,3.91-4.53,7.48-6.29,11.36-18.62,42.36-27.06,86.21-35.43,130.1C3832.45,812.87,3833.57,812.56,3862,812.36Z" fill="#182e35"/><path d="M1387.94,395.25a14.11,14.11,0,0,1,4.93,10.89c1,19.83,4.17,37.39,27,50.59,17.47,10.08,30.08,25.95,48.41,36.13,6.83,3.09,12.42,9.13,15.65,16.89,3.51,12.23,11.12,23.52,12.64,36.25a20.14,20.14,0,0,0,5.43,11.76,26.36,26.36,0,0,0,12.34,7.29c5.49,1.6,8.14,4.47,4.17,9.05a5.79,5.79,0,0,0-1.79,3.21,5.47,5.47,0,0,0,.53,3.57c6.12,11,1.72,21.24-3.31,31.35a9.34,9.34,0,0,0-1.39,6.43,10.06,10.06,0,0,0,3.31,5.87,23.08,23.08,0,0,0,9.4,6A27.37,27.37,0,0,0,1537,632a25.75,25.75,0,0,0,11-3.57,20.52,20.52,0,0,0,7.54-7.83c.47,6.7,7.55,11.09,8.87,18.26.7,3.49,2.22,7.56-1.88,9.87-3.26,2.22-7.39,1.32-9.76-2.11a3,3,0,0,0-.25-.25,5.17,5.17,0,0,0-8.09,1,20.11,20.11,0,0,0-7.61,15c.39,3.37,5.19,2.27,8.5,2.27,13.93-1.25,18.56,4.67,18.56,15.68a206.64,206.64,0,0,0,2.29,26.33,9,9,0,0,0,3,6,12.14,12.14,0,0,0,6.89,3.05,8.29,8.29,0,0,0,3.31.43,7.83,7.83,0,0,0,3.3-.78,6.53,6.53,0,0,0,2.49-1.84,6.27,6.27,0,0,0,1.32-2.55c3.77-16.14,13.53-34.64,1.52-48s3.94-24.89-3.67-36.25c15-9.21,7.24-23.51,11.35-35.27a14.31,14.31,0,0,0-.83-7.17,16.3,16.3,0,0,0-4.37-6.23,4.38,4.38,0,0,0-6.22.39,8.82,8.82,0,0,0-3.31,5.88,8.47,8.47,0,0,0,2,6.31,82.73,82.73,0,0,1-16.54,20c-2.68.2-5.62-.9-5.62-2.86-1-6.82-6.62-13.2,0-19.59,9.66-9,2.87-13.4-6.23-17.32-5.09-2.35-11.77-5-9.19-10.19s8.43.9,12.67-.71a14.48,14.48,0,0,0,2.75-1.92A48.39,48.39,0,0,0,1540,546c-3.18-1.06-6.39-2.94-4.93-6.35a10.82,10.82,0,0,1,4.8-3.91c9.49,5.72,20.48-2.75,30.41,1.8,2.87,1.33,5.16,5.88,9.49,2a8.07,8.07,0,0,0,2.29-4.12,7.36,7.36,0,0,0-.86-4.74c-6-15-10.39-31.11-28.79-40.2a13.26,13.26,0,0,1-6.16-6.39,18.19,18.19,0,0,0-8.27-9.56,24.62,24.62,0,0,0-13.56-3.18c-6.46-.19-13.74-1-14.5-8.85-.46-4.12.76-11.17-7.08-9.61s-4.4,7.76-1.88,12.11c3.11,5.41-1.2,8.82-4.5,12.74a3.9,3.9,0,0,1-1.39,1.53,5.16,5.16,0,0,1-2.15.74,5.58,5.58,0,0,1-2.29-.31,4.2,4.2,0,0,1-1.78-1.26c-7.22-5-6.23-22.88.39-28.56,4.24-3.65,23.86-6.86,3.64-15.4-1.35-.43-1-4.47-1-6.82-.66-6.34-3.78-11.95-8.44-15.17a29.67,29.67,0,0,0-18.63-6h-24.55a14.14,14.14,0,0,1-6.88-1.18,11.33,11.33,0,0,1-5-4.19c-6.46-10.07-19.23-12.62-30.41-16.93a11.8,11.8,0,0,0-7.08-.67,10.46,10.46,0,0,0-5.93,3.34C1382.08,389.88,1385.26,393,1387.94,395.25Z" fill="#182e35"/><path d="M639.81,379.22a16.35,16.35,0,0,0,9.1,1.29,62.32,62.32,0,0,1,30.41,6.94c5.39,2.47,10,4.59,15.88,1.22,2.81-1.65,5.63-1.49,7,1.45a5.4,5.4,0,0,1,.92,4.11,5.88,5.88,0,0,1-2.31,3.72c-2.35,1.92-6.85.47-9,4.39,9.2,3,16.81,11.37,28.52,4.78,2-1.25,1.52-5.13,5.53-4.31a3.53,3.53,0,0,1,2,.83,5.15,5.15,0,0,1,.95,6.38c-4.74,10.43,2.94,10.31,12.3,12.74,12.08,3.09,22.74-5.25,33.59-.82,6.85,2.66,10.39,1.72,13.7-3.73a15.47,15.47,0,0,1,8.27-7.25,19.47,19.47,0,0,1,12-.62c17.17,5.13,35.63,5.64,53.2,9.91a375.05,375.05,0,0,0,38,6.39,14.69,14.69,0,0,0,8.6-.86,11.37,11.37,0,0,0,5.86-5.33,9.14,9.14,0,0,0,.3-7.25,10.65,10.65,0,0,0-5.43-5.68,106.21,106.21,0,0,0-48.71-19.6,31.49,31.49,0,0,1-15.88-5.17A90.71,90.71,0,0,0,792,366.13c-19.29-.62-42.46-4.89-53.24,16.42a8.82,8.82,0,0,1-2.78,2.82,11.37,11.37,0,0,1-3.91,1.69,12.58,12.58,0,0,1-8.5-.94c-21.21-7.84-45-10.74-63.7-23-11.11-7.1-15.22,3.87-22.79,4.89a4.28,4.28,0,0,0-2.09.51,3.67,3.67,0,0,0-1.49,1.34,2.79,2.79,0,0,0-.46,1.76,2.85,2.85,0,0,0,.69,1.72A12.64,12.64,0,0,0,639.81,379.22Z" fill="#182e35"/><path d="M1632.7,608.55c-2.25,2.43-2.88,6.11,1.06,7.21,5.19,1.41,2.15-4.55,7-6.08.83,12.11,11.25,21.56,6.39,33.74-.86,2.32,2.58,4,4.33,5.8,12.15,10.74,20.52,26.41,23.49,44a34.83,34.83,0,0,0,2.42,9.37c1.46,3.29,2.28,7.21,8.07,7.21a14.74,14.74,0,0,0,7-1,12.11,12.11,0,0,0,5.23-3.92c5.69-8.66,16.64-16.77,2.87-27.12a11.14,11.14,0,0,1-2.51-4.35,9.76,9.76,0,0,1,0-4.86c3.57-14.5-9.43-26.69-7.61-40.95.3-2.15.07-5.41-3.87-5.41-17.47.43-7.35-9.56-10.66-14.26,8.44-1,12.54,10.19,20.15,1.57a7.71,7.71,0,0,0,3-5.37,7.54,7.54,0,0,0-2-5.72c-4.33-3.8-3,4-6.91,3.05-1.53-8.46-9-16.42-2.39-25.47,11.12-15.2,8.84-30.53,0-45.69-7.21-12.42-21.21-9.68-34-10.54-10.79-.94-9.5,5.52-12.37,10.81-5.93,11-1.53,24-10.49,34.21-2,2.16,1.29,5.18,1.82,7.84C1635.28,584.52,1642.82,596.79,1632.7,608.55Z" fill="#182e35"/><path d="M1091.14,501.17a8.13,8.13,0,0,0,0,6.59,10.08,10.08,0,0,0,5.13,5c6.52,2.78,10.49-1.8,14.13-6.39,0,10.51,19.92,34.53,30.4,37.55h2.88c5,1,11.72.86,14.53,3.6,7.81,6.7,13.23,16.61,15.22,27.78.66,4.82-.5,11.76,8.87,11.76s9.36-6.74,11.25-12.73c4.73,1.64,3.27,9.44,10.49,5.09a9.58,9.58,0,0,0,4-5.53,8.3,8.3,0,0,0-1.09-6.42c-4.73-9.13-6.45-18.73-18.7-25.12-4-2-15.65-12.7-1.22-18s13.6-15.28,15.65-24.33-6.09-11.53-12.54-15.44a74.59,74.59,0,0,0-42.65-8.19c-10.29.39-19.33,1.21-24.12-9.8-3.64-8-22.11-12.23-30.41-8.31-11.68,5.17-7.81,12.74-4.7,20.85C1091.14,486.13,1094.71,493.14,1091.14,501.17Z" fill="#182e35"/><path d="M766.87,252.18a7.52,7.52,0,0,0,4.53,2.74A33.17,33.17,0,0,1,786.59,267a35.25,35.25,0,0,0,18.3,13.13,43.38,43.38,0,0,0,24.06.7,32.49,32.49,0,0,1,18.23,0,27.53,27.53,0,0,1,14.36,9.6c2.71,3.33,8.5,8.11,11.38,5.37a278,278,0,0,0,24-28.21c.39-.4-.7-1.49-.7-2.24-4.63-15.48-22.8-20.45-34.41-30.52-1.16-1.1-5.86-1.81-4.2,1.6,4,7.8-2,4.31-5.93,4.31-12.24,0-27.82-6-28.35,12.74-.07,3.21-5.69,5.05-9.66,6.39a4.16,4.16,0,0,1-1.79,0,3.72,3.72,0,0,1-1.66-.63,2.8,2.8,0,0,1-1-1.22,2.28,2.28,0,0,1-.17-1.48c2.15-9.21-7.9-15.68-9.1-25.52-3.44,11.6-11,13.64-22,9.61-3.87-1.49-6.55-8.19-11.48-4.28-2.35,1.73-.6,7.29-.6,11.21A5.39,5.39,0,0,0,766.87,252.18Z" fill="#182e35"/><path d="M941.38,511.71a9.22,9.22,0,0,0-.66,4.39c.13,2.47,6.22,2.86,4.4,6.39-4.4,1.06-8.47-4.82-12-1.21s2.45,6.3,3.31,9.6a36.84,36.84,0,0,0,8.5,12c5.86,7.91,16.25,13.64,19.29,22,6.22,17.28,22.37,20.77,39.31,25.12.53,2.23-12.44,1.1-2.51,5.76,5.69,2.82,7.87,5.45,3.3,10.35a4.48,4.48,0,0,0-1.25,1.72,3.92,3.92,0,0,0-.27,2.12,4.26,4.26,0,0,0,.9,2,5.47,5.47,0,0,0,1.88,1.45c3,1.72,8.14,3.76,10.56.82,6.48-7.84,11.71-1.61,16,.82s7.31,6.74,13.23,6.74a13.65,13.65,0,0,0,6.62-.86c2.71-1.92.53-4.47-1-6.39a26.32,26.32,0,0,0-9.46-7.37,32,32,0,0,0-12.45-2.9c-6.58-.43-6-2.43-5.52-6.34,1.29-12-6.09-17.48-20.85-15.68,1-10.85,10.69-5,16.22-5.68s13.53.7,15.18-5.49-5-9.48-10.65-11.4c-10.29-3.57-20.78-6.62-26.47-15.09-5.43,2.78,1.36,9.17-6.26,9.17-5.09,0-3.8-4.9-5.09-7.6-3.71-7.33-5.56-15.79-15.72-19.08a54.06,54.06,0,0,1-22.83-13.84C945.65,511.71,943.83,509.68,941.38,511.71Z" fill="#182e35"/><path d="M1236.56,485.42c14.83,3.76,18.86,13.32,24.32,22.89,2.45,4.19,4.2,10.26,10.49,9.87a13.58,13.58,0,0,0,8.47-3.92,9.54,9.54,0,0,0,2.65-7.84c.89,4.78,1.06,9.25,1.59,13.6.29,2.35.53,6,2.21,6.74,7.51,3.18,15.49,5.49,19.13,12.74a4.56,4.56,0,0,0,1.62.7,4.94,4.94,0,0,0,2-.19c9.2-7.21,21.21-3,32.76-5.61-2.68-6.19-8.31-6.38-13.24-7.52a22.61,22.61,0,0,1-12.27-5.56c-8-9.37-25.25-12.07-26.84-26.06a3.33,3.33,0,0,0-1.12-1.53,4.19,4.19,0,0,0-1.86-.9c-12.53,1-24.63-5.64-32.06-17.64-3.34-4.66-10.49-7.33-9.73-14.42a5.74,5.74,0,0,0-1.59-4.51,8,8,0,0,0-4.86-2.35,12,12,0,0,0-5.66.79,10,10,0,0,0-4.17,3.29C1222.2,464.85,1226.64,483.15,1236.56,485.42Z" fill="#182e35"/><path d="M1525.46,326.71a11.41,11.41,0,0,1,5-.31,10.79,10.79,0,0,1,4.6,1.76c17.1,8.78,16.44,8.78,25.18-6.9,3.4-6,8.2-15.47,21-6.34a58,58,0,0,0,21.68,7.83c4.3.9,11.11,4.39,14.42-.9a9.09,9.09,0,0,0,.57-7.84,11.32,11.32,0,0,0-5.73-6.11c-17.63-7.68-34-20.14-56.78-12.3-1.75.62-5.39,4.27-5.92-.32-1-9.44-7.31-4.54-10.36-2.39a124.32,124.32,0,0,0-20.21,16.89,15.59,15.59,0,0,0-3.11,7.37,14.93,14.93,0,0,0,1.12,7.84C1518.21,328.75,1522.15,327.65,1525.46,326.71Z" fill="#182e35"/><path d="M882.22,361.78a7.47,7.47,0,0,1-2.38,4.27c-6.46,7.84.52,8.51,7.61,9.53,5.62-2.24,16.84.55,15.91-8.31S909.05,356.65,915,353a198.7,198.7,0,0,0,19-12.74c7.68-5.92-.19-11.13-2.48-16.18s-7.41-1.3-10.72,0C900.81,331.45,879.41,337.92,882.22,361.78Z" fill="#182e35"/><path d="M1790.89,621.16c3.58,2.94,3.64,11.84,10.56,8.27,8.83-4.5,25-4.15,25-15.36a31.56,31.56,0,0,0-3.7-15.67,38.18,38.18,0,0,0-11.48-12.9,93.49,93.49,0,0,0-10.66-5.6c-1.06.23-2.45.23-2.61.59a255,255,0,0,0-16.55,26.25C1778,613.68,1785.8,616.93,1790.89,621.16Z" fill="#182e35"/><path d="M845,489.22c-34.28-44.79-37.06-47.65-47-48.08,3.51,7.25,12.18,12.46,11.65,22.45-8.9-6.82-15.75-15.4-29.12-12.65,1.75,7.44,12.18,6.3,15.22,12.14,9.1,17.28,32.89,16.5,47.12,27.43A10.83,10.83,0,0,0,845,489.22Z" fill="#182e35"/><path d="M917.26,435.85a28.15,28.15,0,0,0,9.33,9.6,35.06,35.06,0,0,0,13.47,5.21c5.56-.47,4.79-3.21,4.79-6.82-.33-9.68-11.54-10.38-18.16-14.93a187.22,187.22,0,0,1,30.41-19.59C934.83,404,913.06,419.59,917.26,435.85Z" fill="#182e35"/><path d="M1242.35,530.84a44.55,44.55,0,0,0,10.19,15.08c3.35,2.86,7.22,6.39,12.18,4.75a14,14,0,0,0,5.23-3.92,10.85,10.85,0,0,0,2.35-5.61,5.34,5.34,0,0,0,.49-2.66,5.4,5.4,0,0,0-.79-2.63,6.6,6.6,0,0,0-2-2.11,8.86,8.86,0,0,0-2.81-1.34c-5-1.44-6.72-5.52-10.3-7.83-9.26-6-18.46-13-32.06-14.27C1225.41,520.88,1238.58,522.69,1242.35,530.84Z" fill="#182e35"/><path d="M793,469.9c-1.68-2.23-6.61-2-6.61,2.55-.3,9.36,27.43,34.4,38.68,34.88,3.57-.32,8.1-.67,9.73-3.73s-1-5.6-3.31-7.44C819.52,486.6,802.71,482,793,469.9Z" fill="#182e35"/><path d="M2380.07,371c8.6,2.74,8.14,9.05,12.7,12.74,2.52,2,3.87,7.72,9.66,4.9,4.4-2,2.19-5,.83-8.39s-3-7.64,4.57-7c3.11.27,7.44,2.46,8.2-2s-3.8-5.88-8.14-6.82c-7.67-1.53-16.57-1.3-19.59-9.64-.33-.9-2.15-1.41-2.91-1.84-4.17,0-5.52,1.92-6.38,3.84C2377.25,361.78,2374.77,369.58,2380.07,371Z" fill="#182e35"/><path d="M6301.6,3528.43h.17V9130.79H262.87V4768.4l1.91-1240,5-3227.43c40,23,86.66,34.17,130.07,50.95,19.52,7.56,39.38,14.89,58.14,24,28.19,13.64,50.62,34.13,82.72,43.1A411.75,411.75,0,0,1,586,433.69c20.45,8.35,39.7,18.65,64.06,18.65a55.57,55.57,0,0,1,28.35,7.84,286.72,286.72,0,0,0,50.79,23.51,33.2,33.2,0,0,1,11.72,7.49,78.67,78.67,0,0,0,29.78,17.16,432.71,432.71,0,0,1,89,45.11,316.25,316.25,0,0,0,55,30.64c12.17,5.49,27.43,10.07,33.08,20,10.16,17.67,33.09,24.8,46.06,39.18,9,10,24.26,13.09,31.83,22.69,10.56,12,24.06,19.68,38.55,22a50.32,50.32,0,0,1,14.76,6.39,517.91,517.91,0,0,0,100.75,58.23c10.26,3.92,22.44,9.09,30.41-.79,5.69-7.13,11.85-6.38,20.91-6.38s17.78.83,26.65,1.6c-.05,0-.1,0-.14-.07a6.43,6.43,0,0,1-2.45-3.3c-2.88-16.57-5.69-33.19-8-49.8-.7-4.27,2.65-6.59,7.74-6.47,6.39,1,10.72,7.49,18.53,4.15,1.46-.62,2.91,3,2,3.49-9.57,6.08-1.53,11.76.46,17.4,4.1,11.76-2.28,21.87-6.39,32.33a6.85,6.85,0,0,1-3.11,2.86c-.11.06-.24.07-.36.12,17.37,1.49,34.78,2.71,52.54.08a112.37,112.37,0,0,1,53.21,3c20.58,7,40.8,14.85,61.88,21.2,15.18,4.27,29.11,10.69,45.59,12.73,42.72,5.17,80.74-6.11,118.13-19.59A58.39,58.39,0,0,0,1621,750.36c7.91-8.77,16.81-9.87,26.77-2.78,13.83,9.8,32.62,11,48.17,18.15,9.2,4.15,20.91,5.48,31.34,9.09a45.15,45.15,0,0,0,35.73-1.57c20.35-11,43.25-19.24,61.42-32.8,14.22-10.58,35.2-12.89,48.5-24.81a21.46,21.46,0,0,1,11.09-2.86,68.31,68.31,0,0,0,37.26-14.42,146.47,146.47,0,0,1,45-23.16c44.9-13.4,78-40,114.38-62.7a162.83,162.83,0,0,0,34.38-31,355.28,355.28,0,0,1,66.18-56.12c19.45-13.4,42.55-22.57,55.55-43.11,9.93-15.67,30.58-25.62,57.31-24.68,30.71,1.09,54.83-16.5,83-22.85.89-.2,1.42-1.33,2.34-1.92a76,76,0,0,1,25.12-12.19,84.87,84.87,0,0,1,28.85-2.9,139.38,139.38,0,0,0,53.31-6.46c17.7-5.22,35.1-11.76,52.44-17.95a449.52,449.52,0,0,0,77.69-39V457.48c0,12.93,3.31,21.75,24.79,19.83,7.14-.63,14.36,1.25,13.23,7.83-3.31,21.09,15.12,20.58,34.58,20,7.84,0,16.05-.39,23.66,0,15.72.74,25.38-2.82,23.33-16.07-.77-5.05-.24-12,9.92-11.4,24,1.41,24-9.25,24-22v-224c0-3.92.4-8.46.4-12.74a6.91,6.91,0,0,1,.76-3.36,8.93,8.93,0,0,1,2.39-2.87,10.58,10.58,0,0,1,3.54-1.76,11.15,11.15,0,0,1,4.1-.39c7.21-.2,10.95,2.23,11.48,7.52.4,4.39-.4,9.6,6.85,10.74,15.72,2.55,13.6,11.09,13.6,19.12V375.38c0,9.09,2,16.5,17.93,15.68,13.24-1.1,16.55,3.91,16.55,12.73,0,20.14.46,40.21,0,60.27-.37,8.82,4.73,12.74,17.2,12.74,23.63,0,47.29.59,70.91,0,14.76-.39,19.39,3.92,19.39,14.34-.59,28.22.37,56.43-.59,84.68-.47,13.56,4.3,21,25.21,19.09,6.62-.71,17.27-1.57,17.27,5.68,0,10.19,10.39,14.58,17.17,21.36,11.72,11.75,25.91,22.53,24.56,39.18-.53,6.39,7.08,11.37,17.1,11.41s17.64-4.67,17.64-11c-.4-15.68,13.9-25,25.61-35.55,9.43-8.5,26.47-12.89,24.62-27.15-.43-3.92,6.61-4.39,11.18-3.92,23.49,2.55,26.47-6.66,26.47-21.08V219.26a108.28,108.28,0,0,1,.53-14.3c.6-4.47,4.53-6.39,10.79-6.39s9.92,2.82,10.26,6.93.46,8.43.39,12.66V338.78c0,6.47-2.15,14.81,11,15.67,15.88,1,16.55,8.23,16.55,17.09V489.1c0,22.5,5.62,27.24,36,27.24,53.2,0,106.41-.47,159.62,0,16.54,0,21.84-4.78,21.84-16.19,0-23.9.66-47.84,0-71.75-.34-11,4.69-16.3,20.44-15h11.78c15,1.18,21.64-3.05,20.88-14.57-.66-14.35.4-28.69,0-43.11-.2-8.62,4.2-12.38,16-12.78,21.35-.62,24.62,1.22,24.62,17.6v366c0,26.65,9.5,33.66,45,33.66h65c34.08,0,46.09-8.46,46.09-33.46V613.44c0-8.15,1.36-13,15.19-14.5,20.81-2.31,28.42-10.77,28.42-26.72V437.37c0-5.44-3.11-12.42,6.62-15.12a14.75,14.75,0,0,0,4.47-1.69,11.93,11.93,0,0,0,3.3-3.05,9,9,0,0,0,1.59-3.92,8.34,8.34,0,0,0-.33-4.12c-1.22-10.38,4.5-15.67,19.09-14.18,20.92,2.19,24.79-5.45,24.79-19.13-.76-41.1,0-82.29,0-123.36,0-6.5-2.29-13.87,12.07-14.65,13.24-.75,17.41,3.91,18.63,12.38,3.81,24.65,8.37,49.22,12.08,74,8.5,55.49,21.14,110.74,25.25,166.62,7.74,107.14-16.55,212.4-42,317.42a11,11,0,0,1-1.52,4.7,12.51,12.51,0,0,1-3.61,3.92,15.09,15.09,0,0,1-5.13,2.31,16.87,16.87,0,0,1-5.79.39,109,109,0,0,0-36.1,6.35c-5.92,2.35-11.41,5.37-5.56,11.29,13.6,13.75,11,18.92-10.65,24.53-11.68,3-25.61,2.74-36.4,11.4,18.56,6.31,42.42,5.8,46,24.93.46,1.95,8.9,3.37,13.83,4.5l88.47,19.6c8.91,1.92,14.83,3.52,5.56,11.2-7.21,6,3,29.59,12.61,29.59,24.72.39,24.25,12.54,24.25,24.73.47,20.06.24,40.16,1.23,60.27.23,5.52-2.65,15.32,7.21,15.32,8.54,0,5-9.48,5-14.7,0-20.06.6-40.2,0-60.27-.3-10.34,9-21.47,16.55-22.1,22.73-1.8,38.25-5.44,43.64-24,1.12-3.92,5.52-5.53-.7-8.86-12.83-7-4.56-9.79,4.93-11.75,22-4.67,44.24-8.94,66.18-13.52,12.61-2.75,27.8-3.37,27.8-17.72,0-4.86,7.54-6.11,12.93-7.83,7.32-2.43,14.53-4.23,22.14-6.39,2.88-.9,6.62-1.8,6.15-4.78s-4.56-3.25-7.61-3.92c-13.93-2.82-28.75-5.37-41.72-8.35s-18.93-13.79-9.93-19.59c13.6-8.78,4.7-11.76-4.8-15.13a89.94,89.94,0,0,0-32.36-5.44c-13.63.51-18.72-4.47-20.61-13.25-4.57-20.69-9.93-41.42-14.36-62.11-10.19-44.79-21.14-89.47-25.38-134.81-1.09-11,3.31-15.16,19.59-15.16,47.91.43,96,0,143.74.43,16.14,0,21.77-3.92,21.77-15.67-.56-26.77,0-53.57,0-80.34,0-7.25,0-14.58,13.66-13.64,23.33,1.65,24.72-8.66,24.72-21.39,0-34.68.43-69.83,0-104.75,0-10.89,5.53-16,20.75-15.28,9.92.43,19.85,0,29.48,0,11.55-.28,24.32,1.45,26.77-11.29a3.2,3.2,0,0,1,1.25-2.51,4.77,4.77,0,0,1,6,0A3.21,3.21,0,0,1,4259,332c2.68,12.54,15.06,11.4,26.77,11.4h74.78c12.41,0,25.84,1,25.25-14.89a20.19,20.19,0,0,1,4.73,8.43,18.66,18.66,0,0,1,0,9.33V475.54c0,6.35-2.42,14.46,9.92,16.58,11,1.88,12.25,7.17,12.25,13.95,0,5.6-.9,13.05,10.25,13.05A28.81,28.81,0,0,1,4437.7,523a21.18,21.18,0,0,1,9,10.66c7.71,14.14,21.08,19.59,41.46,17.51q12.77-.59,25.52,0a19.16,19.16,0,0,0,8.43-.82,17,17,0,0,0,6.62-4.35c9.66-12.66,13.24-30.13,41.66-28.14,1.22-14.77,21.57-23.51,24-36.24,2.81-14.35,9.2-18,26.67-16.58,6.62.59,13.24,0,19.85,0,9.93,0,15.29-3.13,14.13-10.31-2.58-14.3,7.68-17.47,24.36-16.34,14,1,20.64-3.29,19.85-14.07a209.23,209.23,0,0,1,0-27.43c0-4.27.76-9.36,8.87-9.09s8.14,5.33,8.14,9.6c0,12.9.92,26.14,0,38.76s4.63,17.63,23.42,17.63q91.53-.93,183.18,0c17.74.2,22.83-4.66,22.83-16.69-.86-30.14-.69-60.27,0-90.33,0-6.38-5-17.91,7.58-17.67s7,11.76,7,18.06c.53,103.26.53,206.52.53,309.86,0,6.86-2.74,14.81,5.76,19.12,21,10.58,39.47,23.52,66.61,26.06,54,4.86,107.93,10.58,161.83,15.68,27,2.54,26.47,2.31,27-17.83.23-7.84-5.16-18.81,4-23.28,13.76-6.62,11.84-15,11.84-23.51V349.24c0-10.3-5.39-21.39,2.91-29.43s26.21,0,36.93-4.27c15.59-6,26.47-8.15,43.81-.51,12.08,5.21,32,.94,48.34.94,6.39,0,12.84-1.53,12.84-6.86-.6-14,12.08-13,25.08-13,16.55,0,32.92.62,49.27,0,14.66-.59,19.36,3.6,19.36,14.1-.37,29.2,0,58.39,0,87.55a12.94,12.94,0,0,1-1.72,9.09,16.65,16.65,0,0,1-7.78,6.54c-12.84,6.23-6.39,18.07-5.23,26.61s12.48,7.21,20.52,7.21h63c14.06,0,24.39,0,26.9,14.07,2.52,12.89,24.16,20.73,30.41,13.64,10.32-11.76,24.39-8.47,38-9.29,6.25-.39,16.54,1.53,17.27-3.92,1.88-18.14,19.16-14.46,34.34-14.46,28.29-.31,31.7-2.94,29.06-23.51-.7-5.37-.93-10.58-10.49-12.07-7.61-1.14-7.61-6-7.61-10.39V326.79c0-3.61-1.29-9.21,5.85-9.21,9-.24,6.92,5.88,6.92,9.76-.53,9.75,1.29,16.69,18.39,16.69,47.29-.31,94.51,0,141.86,0,13,0,19.05-3.92,19.05-13.75-.43-5-2.05-11.76,7.15-13.45,13.24-2.23,13.24-8.22,13.24-16.38V276c0-4.7-.93-10.7,8.73-10.54s8.44,6.15,8.44,10.82c0,21.51.76,43.1,0,64.54-.36,11.09,5.33,15.36,20.51,15.36q55.2-.7,110.32,0c16,.23,21.81-3.92,21.81-15.87-.9-25.83,0-51.61-.47-77.48-.23-8.93,4.11-12.73,17-12.73h94.57c11.85,0,16,3.41,16,12a198.16,198.16,0,0,1,0,25.79c-1.76,12.93,6.22,17,22.8,16.53,9.49-.35,21.5-3.21,27.82,3.57,8,8.5,18.3,7.84,29.55,7.84l9,.31Z" fill="#182e35"/><polygon points="264.78 3528.43 262.87 4768.4 262.87 3528.43 264.78 3528.43" fill="#182e35"/></svg>