<svg id="Layer_1" data-name="Layer 1" xmlns="http://www.w3.org/2000/svg" viewBox="0 0 6038.91 8895.84"><path d="M3684,614.89c11.31-1,18-3.72,14.82-13.91a236.47,236.47,0,0,1-5.86-32.76q-9.91-56.67-19.85-113.41l-1.88.23V602.66C3671.2,609,3670.5,616,3684,614.89Z" fill="#182e35"/><path d="M3599.13,613.79c14.53,0,20.08-4.15,19.16-14.54a237.91,237.91,0,0,1-.47-24.33c0-4.71-1.65-8.78-9.26-9.17-14.76-.63-13.47-8.55-13.24-15.68S3594.13,536,3607.5,535a12,12,0,0,0,4.43-.62,10.49,10.49,0,0,0,3.68-2.2,8,8,0,0,0,2.15-3.33A7,7,0,0,0,3618,525v-72l-2.75-.47c-2,3.92-4.53,7.48-6.28,11.36-18.63,42.36-27.07,86.21-35.44,130.1C3569.58,614.3,3570.71,614,3599.13,613.79Z" fill="#182e35"/><path d="M1125.07,196.68a14.08,14.08,0,0,1,4.93,10.9c1,19.82,4.17,37.38,27,50.59,17.47,10.07,30.08,25.94,48.41,36.13,6.83,3.08,12.42,9.12,15.65,16.89,3.51,12.22,11.12,23.51,12.64,36.24a20.14,20.14,0,0,0,5.43,11.76,26.36,26.36,0,0,0,12.34,7.29c5.49,1.61,8.14,4.47,4.17,9a5.79,5.79,0,0,0-1.79,3.22,5.44,5.44,0,0,0,.53,3.56c6.12,11,1.72,21.24-3.31,31.35a9.41,9.41,0,0,0-1.39,6.43A10.09,10.09,0,0,0,1253,426a23.23,23.23,0,0,0,9.4,6,27.37,27.37,0,0,0,11.71,1.41,25.87,25.87,0,0,0,11-3.56,20.72,20.72,0,0,0,7.55-7.84c.46,6.7,7.54,11.09,8.86,18.26.7,3.49,2.22,7.56-1.88,9.87-3.26,2.22-7.38,1.32-9.76-2.11l-.25-.25a5.17,5.17,0,0,0-8.09,1,20.16,20.16,0,0,0-7.61,15c.4,3.37,5.19,2.27,8.5,2.27,13.93-1.25,18.56,4.67,18.56,15.68a206.64,206.64,0,0,0,2.29,26.33,8.93,8.93,0,0,0,3,6,12,12,0,0,0,6.88,3,8.48,8.48,0,0,0,3.31.44,7.92,7.92,0,0,0,3.31-.79,6.47,6.47,0,0,0,2.48-1.84,6.15,6.15,0,0,0,1.32-2.55c3.77-16.14,13.53-34.64,1.52-48s3.94-24.89-3.67-36.25c15-9.21,7.25-23.51,11.35-35.27a14.31,14.31,0,0,0-.83-7.17,16.3,16.3,0,0,0-4.37-6.23,4.38,4.38,0,0,0-6.22.39,8.77,8.77,0,0,0-3.3,5.88,8.39,8.39,0,0,0,2,6.31,83.25,83.25,0,0,1-16.55,20c-2.68.19-5.62-.91-5.62-2.87-1-6.81-6.62-13.2,0-19.59,9.66-9,2.88-13.4-6.22-17.32-5.1-2.35-11.78-5-9.2-10.19s8.44.9,12.67-.7a15.45,15.45,0,0,0,2.75-1.92,48.32,48.32,0,0,0-20.85-12c-3.18-1.05-6.38-2.93-4.93-6.34a10.77,10.77,0,0,1,4.8-3.92c9.5,5.72,20.48-2.75,30.41,1.8,2.88,1.33,5.16,5.88,9.49,2a8.07,8.07,0,0,0,2.29-4.12,7.23,7.23,0,0,0-.86-4.74c-6-15-10.39-31.11-28.79-40.2a13.2,13.2,0,0,1-6.15-6.39,18.25,18.25,0,0,0-8.28-9.56,24.62,24.62,0,0,0-13.56-3.18c-6.46-.19-13.73-1-14.5-8.85-.46-4.12.77-11.17-7.08-9.6s-4.4,7.76-1.88,12.11c3.11,5.4-1.19,8.81-4.5,12.73a3.9,3.9,0,0,1-1.39,1.53,5.16,5.16,0,0,1-2.15.74,5.6,5.6,0,0,1-2.29-.31,4.26,4.26,0,0,1-1.78-1.25c-7.22-5.06-6.22-22.89.39-28.57,4.24-3.65,23.86-6.86,3.64-15.4-1.35-.43-1-4.47-1-6.82a20.93,20.93,0,0,0-8.44-15.17,29.67,29.67,0,0,0-18.63-6h-24.55a14.14,14.14,0,0,1-6.88-1.18,11.33,11.33,0,0,1-5-4.19c-6.45-10.07-19.23-12.62-30.41-16.93a11.72,11.72,0,0,0-7.08-.66,10.33,10.33,0,0,0-5.92,3.33C1119.22,191.31,1122.39,194.45,1125.07,196.68Z" fill="#182e35"/><path d="M376.94,180.65A16.36,16.36,0,0,0,386,182a62.2,62.2,0,0,1,30.41,6.93c5.39,2.47,10,4.59,15.88,1.22,2.82-1.65,5.63-1.49,7,1.45a5.4,5.4,0,0,1,.92,4.11,5.9,5.9,0,0,1-2.31,3.73c-2.35,1.91-6.85.47-9,4.38,9.2,3,16.81,11.37,28.52,4.78,2.06-1.25,1.53-5.13,5.53-4.31a3.53,3.53,0,0,1,2,.83,5.15,5.15,0,0,1,.95,6.38c-4.73,10.43,2.94,10.31,12.31,12.74,12.07,3.1,22.73-5.25,33.58-.82,6.85,2.66,10.39,1.72,13.7-3.72a15.46,15.46,0,0,1,8.27-7.25,19.4,19.4,0,0,1,12-.63c17.17,5.13,35.63,5.64,53.2,9.91a372.74,372.74,0,0,0,38,6.39,14.6,14.6,0,0,0,8.6-.86,11.37,11.37,0,0,0,5.86-5.33,9.1,9.1,0,0,0,.3-7.25,10.65,10.65,0,0,0-5.43-5.68,106.22,106.22,0,0,0-48.7-19.6,31.49,31.49,0,0,1-15.89-5.17,90.77,90.77,0,0,0-52.67-16.61c-19.29-.63-42.46-4.9-53.24,16.41a9,9,0,0,1-2.78,2.83,11.37,11.37,0,0,1-3.91,1.68,12.45,12.45,0,0,1-8.5-.94c-21.21-7.84-45-10.74-63.69-23-11.12-7.1-15.23,3.88-22.8,4.9a4.1,4.1,0,0,0-2.09.51,3.57,3.57,0,0,0-1.49,1.33,2.93,2.93,0,0,0,.24,3.49A12.56,12.56,0,0,0,376.94,180.65Z" fill="#182e35"/><path d="M1369.83,410c-2.25,2.43-2.88,6.11,1.06,7.21,5.19,1.41,2.15-4.55,7-6.08.83,12.11,11.25,21.56,6.39,33.74-.86,2.32,2.58,4,4.33,5.8,12.15,10.74,20.52,26.41,23.5,44a34.45,34.45,0,0,0,2.41,9.37c1.46,3.29,2.28,7.21,8.07,7.21a14.72,14.72,0,0,0,7-1,12,12,0,0,0,5.23-3.92c5.69-8.66,16.64-16.77,2.88-27.12a11,11,0,0,1-2.52-4.35,9.76,9.76,0,0,1,0-4.86c3.57-14.5-9.43-26.68-7.61-41,.3-2.15.07-5.4-3.87-5.4-17.47.43-7.35-9.57-10.65-14.27,8.43-1,12.54,10.19,20.15,1.57a7.68,7.68,0,0,0,3-5.37,7.5,7.5,0,0,0-2-5.72c-4.33-3.8-3,4-6.91,3.06-1.53-8.47-9-16.43-2.39-25.48,11.12-15.2,8.84-30.52,0-45.69-7.21-12.42-21.21-9.68-34-10.54-10.78-.94-9.49,5.52-12.37,10.81-5.93,11-1.52,23.95-10.49,34.22-2,2.15,1.29,5.17,1.82,7.83C1372.41,386,1380,398.22,1369.83,410Z" fill="#182e35"/><path d="M828.27,302.6a8.21,8.21,0,0,0,0,6.59,10.07,10.07,0,0,0,5.13,5c6.52,2.79,10.49-1.8,14.13-6.38,0,10.5,19.92,34.52,30.41,37.54h2.87c5,1,11.72.86,14.53,3.6,7.81,6.71,13.24,16.61,15.22,27.79.66,4.82-.5,11.75,8.87,11.75s9.36-6.74,11.25-12.73c4.73,1.64,3.27,9.44,10.49,5.09a9.56,9.56,0,0,0,4-5.52,8.31,8.31,0,0,0-1.09-6.43c-4.73-9.13-6.45-18.73-18.7-25.12-4-2-15.65-12.7-1.22-18s13.6-15.28,15.65-24.33-6.09-11.52-12.54-15.44a74.65,74.65,0,0,0-42.65-8.19c-10.29.39-19.32,1.21-24.12-9.8-3.64-8-22.11-12.23-30.41-8.31-11.68,5.18-7.81,12.74-4.7,20.85C828.27,287.56,831.84,294.57,828.27,302.6Z" fill="#182e35"/><path d="M504,53.61a7.52,7.52,0,0,0,4.54,2.74,33.19,33.19,0,0,1,15.18,12.11A35.2,35.2,0,0,0,542,81.59a43.29,43.29,0,0,0,24.06.7,32.49,32.49,0,0,1,18.23,0,27.49,27.49,0,0,1,14.36,9.6c2.71,3.34,8.5,8.12,11.38,5.37a278,278,0,0,0,24-28.21c.39-.39-.7-1.49-.7-2.24-4.63-15.48-22.8-20.45-34.41-30.52-1.16-1.1-5.86-1.8-4.2,1.6,4,7.8-2,4.31-5.92,4.31-12.25,0-27.83-6-28.36,12.74-.07,3.21-5.69,5.06-9.66,6.39a3.87,3.87,0,0,1-1.79,0,3.64,3.64,0,0,1-1.65-.63,2.85,2.85,0,0,1-1-1.21,2.32,2.32,0,0,1-.17-1.49c2.16-9.21-7.9-15.68-9.09-25.51-3.45,11.6-11.06,13.63-22,9.6-3.87-1.49-6.55-8.19-11.48-4.27-2.35,1.72-.6,7.28-.6,11.2A5.42,5.42,0,0,0,504,53.61Z" fill="#182e35"/><path d="M678.51,313.15a9.16,9.16,0,0,0-.66,4.38c.13,2.47,6.22,2.87,4.4,6.39-4.4,1.06-8.47-4.82-12-1.21s2.45,6.31,3.31,9.6a36.73,36.73,0,0,0,8.5,12c5.86,7.92,16.25,13.64,19.29,22,6.22,17.28,22.37,20.77,39.31,25.12.53,2.24-12.44,1.1-2.51,5.76,5.69,2.82,7.87,5.45,3.31,10.35a4.4,4.4,0,0,0-1.26,1.72,4,4,0,0,0-.27,2.12,4.26,4.26,0,0,0,.9,2,5.57,5.57,0,0,0,1.88,1.45c3,1.72,8.14,3.76,10.56.82,6.48-7.84,11.71-1.61,16,.82s7.31,6.74,13.24,6.74a13.51,13.51,0,0,0,6.61-.86c2.72-1.92.53-4.47-1-6.39a26.29,26.29,0,0,0-9.46-7.36,31.65,31.65,0,0,0-12.44-2.9c-6.59-.44-6-2.43-5.53-6.35,1.29-12-6.09-17.48-20.85-15.68,1-10.85,10.69-5,16.22-5.68s13.53.71,15.19-5.49-5-9.48-10.66-11.4c-10.29-3.56-20.78-6.62-26.47-15.09-5.43,2.79,1.36,9.17-6.25,9.17-5.1,0-3.81-4.89-5.1-7.6-3.71-7.33-5.56-15.79-15.72-19.08a54.06,54.06,0,0,1-22.83-13.84C682.78,313.15,681,311.11,678.51,313.15Z" fill="#182e35"/><path d="M973.69,286.85c14.83,3.76,18.86,13.32,24.32,22.89,2.45,4.19,4.21,10.26,10.49,9.87a13.55,13.55,0,0,0,8.47-3.92,9.52,9.52,0,0,0,2.65-7.83c.89,4.78,1.06,9.24,1.59,13.59.3,2.36.53,6,2.22,6.74,7.51,3.18,15.48,5.49,19.12,12.74a4.56,4.56,0,0,0,1.62.7,4.94,4.94,0,0,0,2-.19c9.2-7.21,21.21-3,32.76-5.6-2.68-6.2-8.31-6.39-13.24-7.53a22.61,22.61,0,0,1-12.27-5.56c-8-9.37-25.25-12.07-26.84-26.06a3.38,3.38,0,0,0-1.12-1.53,4.3,4.3,0,0,0-1.86-.9c-12.53,1-24.63-5.64-32.06-17.64-3.34-4.66-10.49-7.32-9.73-14.42a5.7,5.7,0,0,0-1.59-4.5,7.94,7.94,0,0,0-4.86-2.36,12.09,12.09,0,0,0-5.66.79,10.07,10.07,0,0,0-4.17,3.29C959.33,266.28,963.77,284.58,973.69,286.85Z" fill="#182e35"/><path d="M1262.59,128.14a11.41,11.41,0,0,1,5-.31,11,11,0,0,1,4.6,1.76c17.1,8.78,16.44,8.78,25.18-6.89,3.41-6,8.2-15.48,21-6.35a57.91,57.91,0,0,0,21.67,7.83c4.3.91,11.12,4.39,14.43-.9a9.07,9.07,0,0,0,.56-7.83,11.31,11.31,0,0,0-5.73-6.12c-17.63-7.68-34-20.14-56.78-12.3-1.75.62-5.39,4.27-5.92-.32-1-9.44-7.31-4.54-10.36-2.39A125.26,125.26,0,0,0,1256,111.21a15.84,15.84,0,0,0-3.11,7.37,15,15,0,0,0,1.12,7.84C1255.34,130.18,1259.28,129.08,1262.59,128.14Z" fill="#182e35"/><path d="M619.35,163.22a7.41,7.41,0,0,1-2.38,4.27c-6.46,7.83.53,8.5,7.61,9.52,5.62-2.24,16.84.55,15.91-8.31s5.69-10.62,11.62-14.26a200.1,200.1,0,0,0,19.06-12.74c7.67-5.92-.2-11.13-2.49-16.18s-7.41-1.3-10.72,0C638,132.88,616.54,139.35,619.35,163.22Z" fill="#182e35"/><path d="M1528,422.6c3.58,2.94,3.64,11.83,10.56,8.26,8.83-4.5,25-4.15,25-15.36a31.48,31.48,0,0,0-3.7-15.67,38,38,0,0,0-11.48-12.89,92,92,0,0,0-10.66-5.61c-1.06.24-2.45.24-2.61.59a256.69,256.69,0,0,0-16.55,26.25C1515.09,415.11,1522.93,418.36,1528,422.6Z" fill="#182e35"/><path d="M582.16,290.65c-34.28-44.79-37.06-47.65-47-48.08,3.51,7.25,12.18,12.46,11.65,22.45-8.9-6.82-15.75-15.4-29.12-12.65,1.76,7.44,12.18,6.31,15.22,12.14C542,281.8,565.81,281,580,292A11.39,11.39,0,0,0,582.16,290.65Z" fill="#182e35"/><path d="M654.39,237.28a28.15,28.15,0,0,0,9.33,9.6,35.13,35.13,0,0,0,13.47,5.21c5.56-.47,4.8-3.21,4.8-6.82-.34-9.68-11.55-10.38-18.17-14.93a188.33,188.33,0,0,1,30.41-19.59C672,205.42,650.19,221,654.39,237.28Z" fill="#182e35"/><path d="M979.48,332.27a44.71,44.71,0,0,0,10.2,15.09c3.34,2.86,7.21,6.38,12.17,4.74a14,14,0,0,0,5.23-3.92,10.82,10.82,0,0,0,2.35-5.6,5.38,5.38,0,0,0,.5-2.67,5.45,5.45,0,0,0-.8-2.62,6.53,6.53,0,0,0-2-2.12,8.62,8.62,0,0,0-2.81-1.33c-5-1.45-6.72-5.53-10.29-7.84-9.27-6-18.47-13-32.07-14.26C962.54,322.32,975.71,324.12,979.48,332.27Z" fill="#182e35"/><path d="M530.18,271.33c-1.69-2.23-6.62-2-6.62,2.55-.3,9.37,27.43,34.41,38.68,34.88,3.57-.32,8.11-.67,9.73-3.73s-1-5.6-3.31-7.44C556.65,288,539.84,283.44,530.18,271.33Z" fill="#182e35"/><path d="M2117.2,172.46c8.6,2.75,8.14,9.06,12.7,12.74,2.52,2,3.87,7.72,9.66,4.9,4.41-2,2.19-5,.83-8.39s-3-7.64,4.57-7c3.11.27,7.44,2.47,8.2-2s-3.8-5.88-8.14-6.82c-7.67-1.53-16.57-1.29-19.58-9.64-.33-.9-2.15-1.41-2.92-1.84-4.16,0-5.52,1.92-6.38,3.84C2114.38,163.22,2111.9,171,2117.2,172.46Z" fill="#182e35"/><path d="M6038.73,3329.86h.17V8932.22H0V4569.83l1.91-1240,5-3227.43c40,23,86.66,34.17,130.07,50.95,19.52,7.56,39.38,14.89,58.14,24,28.19,13.64,50.62,34.13,82.72,43.1a411.75,411.75,0,0,1,45.3,14.62c20.45,8.35,39.7,18.65,64.06,18.65a55.57,55.57,0,0,1,28.35,7.84,286.72,286.72,0,0,0,50.79,23.51A33.2,33.2,0,0,1,478,292.61a78.67,78.67,0,0,0,29.78,17.16,432.71,432.71,0,0,1,89,45.11,316.25,316.25,0,0,0,55,30.64c12.17,5.49,27.43,10.07,33.08,20,10.16,17.67,33.09,24.8,46.06,39.18,9,10,24.26,13.09,31.83,22.69,10.56,12,24.06,19.68,38.55,22a50.32,50.32,0,0,1,14.76,6.39A517.91,517.91,0,0,0,916.81,554c10.26,3.92,22.44,9.09,30.41-.79,5.69-7.13,11.85-6.38,20.91-6.38s17.78.83,26.65,1.6l-.14-.07a6.43,6.43,0,0,1-2.45-3.3c-2.88-16.57-5.69-33.19-8-49.8-.7-4.27,2.65-6.59,7.74-6.47,6.39,1,10.72,7.49,18.53,4.15,1.46-.62,2.91,3,2,3.49-9.57,6.08-1.53,11.76.46,17.4,4.1,11.76-2.28,21.87-6.39,32.33a6.85,6.85,0,0,1-3.11,2.86c-.11.06-.24.07-.36.12,17.37,1.49,34.78,2.71,52.54.08a112.37,112.37,0,0,1,53.21,3c20.58,7,40.8,14.85,61.88,21.2,15.18,4.27,29.11,10.69,45.59,12.73,42.72,5.17,80.74-6.11,118.13-19.59a58.39,58.39,0,0,0,23.79-14.74c7.91-8.77,16.81-9.87,26.77-2.78,13.83,9.8,32.62,11,48.17,18.15,9.2,4.15,20.91,5.48,31.34,9.09a45.15,45.15,0,0,0,35.73-1.57c20.35-11,43.25-19.24,61.42-32.8,14.22-10.58,35.2-12.89,48.5-24.81a21.46,21.46,0,0,1,11.09-2.86,68.31,68.31,0,0,0,37.26-14.42,146.47,146.47,0,0,1,45-23.16c44.9-13.4,78-40,114.38-62.7a162.83,162.83,0,0,0,34.38-31,355.28,355.28,0,0,1,66.18-56.12c19.45-13.4,42.55-22.57,55.55-43.11,9.93-15.67,30.58-25.62,57.31-24.68,30.71,1.09,54.83-16.5,83-22.85.89-.2,1.42-1.33,2.34-1.92A76,76,0,0,1,2141.65,222a84.87,84.87,0,0,1,28.85-2.9,139.38,139.38,0,0,0,53.31-6.46c17.7-5.22,35.1-11.76,52.44-17.95a449.52,449.52,0,0,0,77.69-39V258.91c0,12.93,3.31,21.75,24.79,19.83,7.14-.63,14.36,1.25,13.23,7.83-3.31,21.09,15.12,20.58,34.58,20,7.84,0,16.05-.39,23.66,0,15.72.74,25.38-2.82,23.33-16.07-.77-5-.24-12,9.92-11.4,24,1.41,24-9.25,24-22v-224c0-3.92.4-8.46.4-12.74a6.91,6.91,0,0,1,.76-3.36,8.93,8.93,0,0,1,2.39-2.87,10.58,10.58,0,0,1,3.54-1.76,11.15,11.15,0,0,1,4.1-.39c7.21-.2,11,2.23,11.48,7.52.4,4.39-.4,9.6,6.85,10.74,15.72,2.55,13.6,11.09,13.6,19.12V176.81c0,9.09,2,16.5,17.93,15.68,13.24-1.1,16.55,3.91,16.55,12.73,0,20.14.46,40.21,0,60.27-.37,8.82,4.73,12.74,17.2,12.74,23.63,0,47.29.59,70.91,0,14.76-.39,19.39,3.92,19.39,14.34-.59,28.22.37,56.43-.59,84.68-.47,13.56,4.3,21,25.21,19.09,6.62-.71,17.27-1.57,17.27,5.68,0,10.19,10.39,14.58,17.17,21.36,11.72,11.75,25.91,22.53,24.56,39.18-.53,6.39,7.08,11.37,17.1,11.41s17.64-4.67,17.64-11c-.4-15.68,13.9-25,25.61-35.55,9.43-8.5,26.47-12.89,24.62-27.15-.43-3.92,6.61-4.39,11.18-3.92,23.49,2.55,26.47-6.66,26.47-21.08V20.69a108.28,108.28,0,0,1,.53-14.3c.6-4.47,4.53-6.39,10.79-6.39s9.92,2.82,10.26,6.93.46,8.43.39,12.66V140.21c0,6.47-2.15,14.81,11,15.67,15.88,1,16.55,8.23,16.55,17.09V290.53c0,22.5,5.62,27.24,36,27.24,53.2,0,106.41-.47,159.62,0,16.54,0,21.84-4.78,21.84-16.19,0-23.9.66-47.84,0-71.75-.34-11,4.69-16.3,20.44-15.05h11.78c15,1.18,21.64-3.05,20.88-14.57-.66-14.35.4-28.69,0-43.11-.2-8.62,4.2-12.38,16-12.78,21.35-.62,24.62,1.22,24.62,17.6v366c0,26.65,9.5,33.66,45,33.66h65c34.08,0,46.09-8.46,46.09-33.46V414.87c0-8.15,1.36-13,15.19-14.5,20.81-2.31,28.42-10.77,28.42-26.72V238.8c0-5.44-3.11-12.42,6.62-15.12a14.75,14.75,0,0,0,4.47-1.69,11.93,11.93,0,0,0,3.3-3.05,9,9,0,0,0,1.59-3.92,8.34,8.34,0,0,0-.33-4.12c-1.22-10.38,4.5-15.67,19.09-14.18,20.92,2.19,24.79-5.45,24.79-19.13-.76-41.1,0-82.29,0-123.36,0-6.5-2.29-13.87,12.07-14.65,13.24-.75,17.41,3.91,18.63,12.38,3.81,24.65,8.37,49.22,12.08,73.95,8.5,55.49,21.14,110.74,25.25,166.62,7.74,107.14-16.55,212.4-42,317.42a11,11,0,0,1-1.52,4.7,12.51,12.51,0,0,1-3.61,3.92,15.09,15.09,0,0,1-5.13,2.31,16.87,16.87,0,0,1-5.79.39,109,109,0,0,0-36.1,6.35c-5.92,2.35-11.41,5.37-5.56,11.29,13.6,13.75,11,18.92-10.65,24.53-11.68,3-25.61,2.74-36.4,11.4,18.56,6.31,42.42,5.8,46,24.93.46,2,8.9,3.37,13.83,4.5l88.47,19.6c8.91,1.92,14.83,3.52,5.56,11.2-7.21,6,3,29.59,12.61,29.59,24.72.39,24.25,12.54,24.25,24.73.47,20.06.24,40.16,1.23,60.27.23,5.52-2.65,15.32,7.21,15.32,8.54,0,5-9.48,5-14.7,0-20.06.6-40.2,0-60.27-.3-10.34,9-21.47,16.55-22.1,22.73-1.8,38.25-5.44,43.64-24,1.12-3.92,5.52-5.53-.7-8.86-12.83-7-4.56-9.79,4.93-11.75,22-4.67,44.24-8.94,66.18-13.52,12.61-2.75,27.8-3.37,27.8-17.72,0-4.86,7.54-6.11,12.93-7.83,7.32-2.43,14.53-4.23,22.14-6.39,2.88-.9,6.62-1.8,6.15-4.78s-4.56-3.25-7.61-3.92c-13.93-2.82-28.75-5.37-41.72-8.35s-18.93-13.79-9.93-19.59c13.6-8.78,4.7-11.76-4.8-15.13a89.94,89.94,0,0,0-32.36-5.44c-13.63.51-18.72-4.47-20.61-13.25-4.57-20.69-9.93-41.42-14.36-62.11-10.19-44.79-21.14-89.47-25.38-134.81-1.09-11,3.31-15.16,19.59-15.16,47.91.43,96,0,143.74.43,16.14,0,21.77-3.92,21.77-15.67-.56-26.77,0-53.57,0-80.34,0-7.25,0-14.58,13.66-13.64,23.33,1.65,24.72-8.66,24.72-21.39,0-34.68.43-69.83,0-104.75,0-10.89,5.53-16,20.75-15.28,9.92.43,19.85,0,29.48,0,11.55-.28,24.32,1.45,26.77-11.29a3.2,3.2,0,0,1,1.25-2.51,4.77,4.77,0,0,1,6,0,3.21,3.21,0,0,1,1.26,2.51c2.68,12.54,15.06,11.4,26.77,11.4h74.78c12.41,0,25.84,1,25.25-14.89a20.19,20.19,0,0,1,4.73,8.43,18.66,18.66,0,0,1,0,9.33V277c0,6.35-2.42,14.46,9.92,16.58,11,1.88,12.25,7.17,12.25,13.95,0,5.6-.9,13.05,10.25,13.05a28.81,28.81,0,0,1,14.79,3.92,21.18,21.18,0,0,1,9,10.66c7.71,14.14,21.08,19.59,41.46,17.51q12.77-.58,25.52,0a19.16,19.16,0,0,0,8.43-.82,17,17,0,0,0,6.62-4.35c9.66-12.66,13.24-30.13,41.66-28.14,1.22-14.77,21.57-23.51,24-36.24,2.81-14.35,9.2-18,26.67-16.58,6.62.59,13.24,0,19.85,0,9.93,0,15.29-3.13,14.13-10.31-2.58-14.3,7.68-17.47,24.36-16.34,14,1,20.64-3.29,19.85-14.07a209.23,209.23,0,0,1,0-27.43c0-4.27.76-9.36,8.87-9.09s8.14,5.33,8.14,9.6c0,12.9.92,26.14,0,38.76s4.63,17.63,23.42,17.63q91.53-.93,183.18,0c17.74.2,22.83-4.66,22.83-16.69-.86-30.14-.69-60.27,0-90.33,0-6.38-5-17.91,7.58-17.67s7,11.76,7,18.06c.53,103.26.53,206.52.53,309.86,0,6.86-2.74,14.81,5.76,19.12,21,10.58,39.47,23.52,66.61,26.06,54,4.86,107.93,10.58,161.83,15.68,27,2.54,26.47,2.31,27-17.83.23-7.84-5.16-18.81,4-23.28,13.76-6.62,11.84-15,11.84-23.51V150.67c0-10.3-5.39-21.39,2.91-29.43s26.21,0,36.93-4.27c15.59-6,26.47-8.15,43.81-.51,12.08,5.21,32,.94,48.34.94,6.39,0,12.84-1.53,12.84-6.86-.6-14,12.08-13,25.08-13,16.55,0,32.92.62,49.27,0,14.66-.59,19.36,3.6,19.36,14.1-.37,29.2,0,58.39,0,87.55a12.94,12.94,0,0,1-1.72,9.09,16.65,16.65,0,0,1-7.78,6.54c-12.84,6.23-6.39,18.07-5.23,26.61s12.48,7.21,20.52,7.21h63c14.06,0,24.39,0,26.9,14.07,2.52,12.89,24.16,20.73,30.41,13.64,10.32-11.76,24.39-8.47,38-9.29,6.25-.39,16.54,1.53,17.27-3.92,1.88-18.14,19.16-14.46,34.34-14.46,28.29-.31,31.7-2.94,29.06-23.51-.7-5.37-.93-10.58-10.49-12.07-7.61-1.14-7.61-6-7.61-10.39V128.22c0-3.61-1.29-9.21,5.85-9.21,9-.24,6.92,5.88,6.92,9.76-.53,9.75,1.29,16.69,18.39,16.69,47.29-.31,94.51,0,141.86,0,13,0,19.05-3.92,19.05-13.75-.43-5-2.05-11.76,7.15-13.45,13.24-2.23,13.24-8.22,13.24-16.38V77.39c0-4.7-.93-10.7,8.73-10.54s8.44,6.15,8.44,10.82c0,21.51.76,43.1,0,64.54-.36,11.09,5.33,15.36,20.51,15.36q55.2-.7,110.32,0c15.95.23,21.81-3.92,21.81-15.87-.9-25.83,0-51.61-.47-77.48-.23-8.93,4.11-12.73,17-12.73h94.57c11.85,0,16.05,3.41,16.05,12a198.16,198.16,0,0,1,0,25.79c-1.76,12.93,6.22,17,22.8,16.53,9.49-.35,21.5-3.21,27.82,3.57,8,8.5,18.3,7.84,29.55,7.84l9,.31Z" fill="#182e35"/><polygon points="1.91 3329.86 0 4569.83 0 3329.86 1.91 3329.86" fill="#182e35"/></svg>