<svg width="1310" height="273" viewBox="0 0 1310 273" fill="none" xmlns="http://www.w3.org/2000/svg">
<path d="M1 93C1 42.1898 42.1898 1 93 1H1217C1267.81 1 1309 42.1898 1309 93V180C1309 230.81 1267.81 272 1217 272H93C42.1898 272 1 230.81 1 180V93Z" stroke="#FFE9AD" stroke-width="2"/>
<path d="M72.1126 131.947C71.2239 131.947 70.7795 131.298 70.7795 129.999C70.7795 129.042 70.6599 128.563 70.4207 128.563C70.2156 128.563 69.8738 128.786 69.3953 129.23C68.7459 129.708 68.2161 129.948 67.8059 129.948C67.6008 129.948 67.447 129.862 67.3445 129.691C67.242 129.555 67.1907 128.666 67.1907 127.025C67.1907 123.163 67.4128 116.942 67.8572 108.363C68.4724 97.5283 68.78 87.3428 68.78 77.8066C68.78 75.8242 68.7629 73.9956 68.7288 72.3208L68.6775 66.271C68.6775 59.7769 68.968 56.4785 69.5491 56.376C69.8567 56.1709 70.1472 55.7437 70.4207 55.0942C70.6941 54.4448 70.8821 53.6929 70.9846 52.8384C71.1213 51.9497 71.2581 51.0439 71.3948 50.1211L72.6253 52.8896C73.1721 54.1543 73.5994 54.7866 73.907 54.7866C74.0779 54.7866 74.3513 54.1714 74.7273 52.9409C75.1716 51.437 75.4963 50.6851 75.7014 50.6851C76.2483 50.6851 76.9661 52.7358 77.8547 56.8374C78.4016 59.5718 78.7776 60.939 78.9827 60.939C79.0852 60.939 79.1365 60.4263 79.1365 59.4009V58.7344C79.2048 56.8887 79.3757 55.8633 79.6492 55.6582C79.9568 55.4189 80.1619 55.2993 80.2644 55.2993C80.6746 55.2993 81.1189 55.8291 81.5974 56.8887C82.0418 58.1875 82.469 64.186 82.8792 74.8843L83.4431 91.2905C92.3298 76.0464 99.8494 65.3823 106.002 59.2983C107.916 57.4185 109.676 55.812 111.282 54.479C113.538 52.5649 114.923 51.6079 115.435 51.6079C115.504 51.6079 115.538 51.6592 115.538 51.7617C115.538 51.8984 115.452 52.1206 115.282 52.4282L115.179 52.6846C115.179 52.7529 115.23 52.7871 115.333 52.7871C115.606 52.7871 116.17 52.5137 117.025 51.9668C118.153 51.2148 118.836 50.8389 119.075 50.8389C119.349 50.8389 119.486 51.2319 119.486 52.0181C119.486 52.4624 119.11 53.3511 118.358 54.6841C117.64 56.0171 116.734 57.4185 115.64 58.8882L111.795 64.1177C116.341 59.0591 119.161 56 120.255 54.9404C121.383 53.8809 122.049 53.3511 122.254 53.3511C122.425 53.3511 122.511 53.5049 122.511 53.8125C122.511 54.7354 121.964 56.5981 120.87 59.4009C120.22 61.1099 119.469 62.8018 118.614 64.4766C117.178 67.1426 114.034 71.8594 109.18 78.627C99.0291 92.9824 90.6892 107.03 84.1609 120.771C81.3923 126.684 79.7346 129.811 79.1878 130.153C78.9143 130.324 78.7263 130.409 78.6238 130.409C78.3503 130.409 78.094 130.238 77.8547 129.896C77.0344 128.871 76.3167 128.358 75.7014 128.358C75.052 128.358 74.488 128.957 74.0095 130.153C73.5652 131.349 72.9329 131.947 72.1126 131.947Z" stroke="#FFE9AD" stroke-width="2"/>
<path d="M124.557 132.357C123.224 132.357 122.558 132.118 122.558 131.64C122.558 131.435 122.318 131.195 121.84 130.922C121.361 130.648 120.78 130.426 120.097 130.255C118.866 129.948 118.251 129.691 118.251 129.486C118.251 129.315 118.644 129.025 119.43 128.615C120.558 128.034 121.293 127.521 121.635 127.077C121.977 126.667 122.592 126.273 123.481 125.897C123.72 125.795 123.839 125.709 123.839 125.641C123.839 125.47 123.344 125.368 122.353 125.333C120.746 125.231 119.943 124.975 119.943 124.564C119.943 124.12 120.883 123.488 122.763 122.667C124.267 122.086 125.019 121.693 125.019 121.488C125.019 121.317 124.557 121.112 123.634 120.873C122.301 120.497 121.635 120.155 121.635 119.848V119.386C121.635 118.839 122.267 118.395 123.532 118.053C124.113 117.985 124.608 117.626 125.019 116.977C125.463 116.293 125.941 115.011 126.454 113.131C126.967 111.217 127.65 108.363 128.505 104.569C132.333 87.377 134.247 76.7129 134.247 72.5771C134.247 71.21 134.093 70.3726 133.786 70.0649C133.512 69.7231 132.777 69.5522 131.581 69.5522C130.863 69.5522 130.197 69.4668 129.582 69.2959C128.966 69.0908 128.556 68.8516 128.351 68.5781C128.18 68.3047 127.856 68.0142 127.377 67.7065C126.898 67.3647 126.352 67.0742 125.736 66.835C125.155 66.5615 124.54 66.3052 123.891 66.0659C124.574 65.8608 125.224 65.6729 125.839 65.502C126.488 65.2969 127.001 65.0747 127.377 64.8354C127.753 64.562 127.941 64.3398 127.941 64.1689C127.941 63.9639 128.095 63.7588 128.402 63.5537C128.71 63.3145 129.069 63.1436 129.479 63.041C129.889 62.9043 130.094 62.8018 130.094 62.7334C130.094 62.5967 129.599 62.5112 128.607 62.4771C127.924 62.4429 127.343 62.3403 126.864 62.1694C126.386 61.9985 126.147 61.8105 126.147 61.6055C126.147 61.332 126.693 60.9731 127.787 60.5288C130.658 59.3667 133.051 58.7856 134.965 58.7856C135.478 58.7856 135.973 58.6831 136.452 58.478C137.238 58.1362 137.631 57.7944 137.631 57.4526C137.631 57.145 137.204 56.9912 136.349 56.9912C135.802 56.9912 135.067 57.0596 134.145 57.1963C133.256 57.2988 132.419 57.3501 131.632 57.3501C129.787 57.3501 128.539 57.1792 127.89 56.8374C127.514 56.6323 127.326 56.4614 127.326 56.3247C127.326 55.7437 129.24 55.2822 133.068 54.9404C136.896 54.5645 140.536 54.3765 143.988 54.3765C145.868 54.3765 147.218 54.4619 148.039 54.6328C149.577 55.0771 150.346 55.5215 150.346 55.9658C150.346 56.6152 149.098 56.9741 146.603 57.0425C144.894 57.1108 144.04 57.2646 144.04 57.5039C144.04 57.7432 144.604 57.9995 145.732 58.2729C146.859 58.5122 148.346 58.666 150.192 58.7344H150.448C152.807 58.7344 153.986 59.1958 153.986 60.1187C153.986 61.0415 153.012 61.5371 151.064 61.6055C149.936 61.6396 149.372 61.7422 149.372 61.9131C149.372 61.9473 149.491 62.0156 149.731 62.1182C150.517 62.2891 150.91 62.5967 150.91 63.041C150.91 63.1436 150.876 63.2461 150.807 63.3486C150.739 63.4512 150.705 63.5537 150.705 63.6562C150.705 63.998 151.046 64.1689 151.73 64.1689C152.653 64.1689 153.114 64.3911 153.114 64.8354C153.114 65.6216 152.277 66.3223 150.602 66.9375C149.816 67.1768 149.235 67.5015 148.859 67.9116C148.175 68.6636 147.543 71.2441 146.962 75.6533C146.039 81.6348 144.279 90.7607 141.681 103.031C140.553 108.227 139.699 111.901 139.118 114.054C139.049 114.293 139.015 114.533 139.015 114.772C139.015 115.592 139.818 116.31 141.425 116.925C143.031 117.541 143.835 118.036 143.835 118.412C143.835 118.822 142.758 119.079 140.605 119.181C138.759 119.25 137.836 119.455 137.836 119.796C137.836 120.343 139.408 120.719 142.553 120.924C145.185 121.129 146.569 121.386 146.706 121.693C146.877 122.001 146.962 122.189 146.962 122.257C146.962 122.736 145.954 123.18 143.937 123.59C142.741 123.83 142.143 124.018 142.143 124.154C142.143 124.188 142.262 124.223 142.502 124.257C143.288 124.325 143.681 124.616 143.681 125.128C143.681 125.299 143.629 125.504 143.527 125.744C143.424 125.983 143.373 126.188 143.373 126.359C143.373 126.598 143.493 126.718 143.732 126.718C143.903 126.718 144.125 126.649 144.398 126.513C144.706 126.41 144.962 126.359 145.168 126.359C145.68 126.359 145.937 126.684 145.937 127.333C145.937 127.777 145.817 128.136 145.578 128.41C145.373 128.683 144.911 128.939 144.193 129.179C143.476 129.418 142.365 129.674 140.861 129.948C139.357 130.255 137.34 130.631 134.811 131.076C130.299 131.862 127.514 132.272 126.454 132.306C125.429 132.34 124.796 132.357 124.557 132.357ZM142.707 81.9595C142.98 81.9595 143.117 81.7031 143.117 81.1904C143.117 80.8486 143.065 80.5068 142.963 80.165C142.826 79.8916 142.724 79.7549 142.655 79.7549C142.484 79.7549 142.399 80.1821 142.399 81.0366C142.399 81.6519 142.502 81.9595 142.707 81.9595ZM140.553 58.7856C141.032 58.7856 141.476 58.4951 141.886 57.9141L141.938 57.6577C141.938 57.2134 141.476 56.9912 140.553 56.9912C139.596 56.9912 139.118 57.2134 139.118 57.6577C139.118 57.9312 139.357 58.2217 139.836 58.5293C140.075 58.7002 140.314 58.7856 140.553 58.7856Z" stroke="#FFE9AD" stroke-width="2"/>
<path d="M163.672 138.817C163.569 138.817 163.467 138.783 163.364 138.715C162.988 138.339 162.766 137.553 162.698 136.356C162.698 135.468 162.646 135.023 162.544 135.023C162.441 135.023 162.253 135.417 161.98 136.203C161.706 137.023 161.484 137.433 161.313 137.433C161.108 137.433 160.784 136.989 160.339 136.1C160.066 135.553 159.827 134.733 159.621 133.639C159.451 132.545 159.365 131.452 159.365 130.358C159.365 128.82 159.263 127.777 159.057 127.23C158.852 126.718 158.459 126.461 157.878 126.461C157.161 126.461 156.802 126.393 156.802 126.256C156.802 126.12 157.161 125.795 157.878 125.282C158.835 124.53 159.314 123.932 159.314 123.488C159.314 123.351 159.245 123.283 159.109 123.283C158.938 123.283 158.664 123.385 158.288 123.59L158.032 123.693C157.998 123.693 157.981 123.676 157.981 123.642C157.981 123.505 158.22 123.146 158.699 122.565C159.656 121.232 160.596 117.848 161.518 112.414C163.159 101.989 166.15 88.9321 170.491 73.2437C172.917 64.4937 174.233 59.606 174.438 58.5806C174.814 57.0767 175.242 56.3247 175.72 56.3247C176.13 56.4956 176.369 57.521 176.438 59.4009L176.489 63.0923L177.925 59.4521C178.711 57.4014 179.241 56.3076 179.514 56.1709C179.822 56 180.01 55.9146 180.078 55.9146C180.454 55.9146 180.642 56.6494 180.642 58.1191C180.642 59.2471 180.762 59.811 181.001 59.811C181.206 59.811 181.582 59.5376 182.129 58.9907C184.863 56.7349 188.332 55.0771 192.536 54.0176C196.741 52.958 200.141 52.4282 202.739 52.4282C204.14 52.4282 205.422 52.5479 206.584 52.7871C208.191 53.2656 210.344 54.855 213.044 57.5552C214.411 58.854 215.386 59.8965 215.967 60.6826C216.582 61.4688 216.941 62.3062 217.043 63.1948C217.18 64.0493 217.248 65.3823 217.248 67.1938C217.248 70.6802 216.565 75.1235 215.198 80.5239C213.83 85.8901 212.241 90.4531 210.43 94.2129C202.944 108.671 191.272 118.549 175.412 123.847C174.49 124.12 173.789 124.428 173.31 124.77C172.832 125.111 172.456 125.658 172.182 126.41C171.909 127.162 171.619 128.273 171.311 129.743C171.037 131.247 170.661 132.648 170.183 133.947C169.739 135.246 169.294 136.186 168.85 136.767C168.235 137.587 167.842 137.997 167.671 137.997C167.534 137.997 167.466 137.809 167.466 137.433C167.466 136.989 167.517 136.271 167.619 135.28C167.756 134.323 167.825 133.622 167.825 133.178C167.825 132.904 167.807 132.75 167.773 132.716H167.722C167.517 132.716 166.799 133.844 165.569 136.1C165.193 136.784 164.902 137.348 164.697 137.792C164.39 138.476 164.048 138.817 163.672 138.817ZM168.235 131.435C168.474 131.435 168.611 131.178 168.645 130.666C168.645 130.358 168.577 130.05 168.44 129.743C168.337 129.469 168.252 129.333 168.183 129.333C168.047 129.333 167.961 129.64 167.927 130.255C167.927 131.042 168.03 131.435 168.235 131.435ZM174.438 109.696L179.001 107.235C180.369 106.483 182.18 105.185 184.436 103.339C189.597 99.1006 193.835 94.8452 197.151 90.5728C198.723 88.5562 200.022 86.4883 201.047 84.3691C203.303 79.6865 204.431 75.5337 204.431 71.9106C204.431 68.0142 203.218 66.0659 200.791 66.0659C198.603 66.0659 195.613 67.3477 191.819 69.9111C188.059 72.4404 184.829 75.3457 182.129 78.627C181.582 79.4473 180.813 81.481 179.822 84.728C178.83 87.9409 177.873 91.4785 176.951 95.3408C176.028 99.2031 175.395 102.467 175.054 105.133L174.438 109.696ZM172.49 101.647C172.729 101.647 172.866 101.391 172.9 100.878C172.9 100.57 172.832 100.263 172.695 99.9551C172.593 99.6816 172.507 99.5449 172.439 99.5449C172.302 99.5449 172.217 99.8525 172.182 100.468C172.182 101.254 172.285 101.647 172.49 101.647ZM173.362 97.3916C173.601 97.3916 173.721 97.2036 173.721 96.8276V96.4175C173.721 96.1782 173.669 95.939 173.567 95.6997C173.464 95.4263 173.379 95.2896 173.31 95.2896C173.14 95.2896 173.054 95.6997 173.054 96.52C173.054 97.1011 173.157 97.3916 173.362 97.3916ZM214.07 65.1943C214.172 65.1943 214.309 64.8184 214.48 64.0664C214.548 63.7246 214.582 63.417 214.582 63.1436C214.582 62.6309 214.497 62.2549 214.326 62.0156C214.121 61.8105 213.95 61.708 213.813 61.708C213.711 61.708 213.625 61.7422 213.557 61.8105C213.284 61.9814 213.147 62.3232 213.147 62.8359C213.147 63.2119 213.249 63.6392 213.454 64.1177C213.728 64.8354 213.933 65.1943 214.07 65.1943ZM194.023 57.4526C194.57 57.4526 196.211 57.0767 198.945 56.3247C200.859 55.812 201.816 55.4531 201.816 55.248C201.816 55.1455 201.44 55.0942 200.688 55.0942C199.287 55.0942 197.681 55.4702 195.869 56.2222C194.502 56.8374 193.818 57.2305 193.818 57.4014C193.818 57.4355 193.887 57.4526 194.023 57.4526Z" stroke="#FFE9AD" stroke-width="2"/>
<path d="M230.574 127.897H228.472C225.909 127.897 223.636 127.299 221.653 126.103C217.108 123.573 214.835 119.728 214.835 114.567C214.835 113.712 214.886 112.841 214.988 111.952C215.809 105.39 217.415 97.4087 219.808 88.0093C222.235 78.6099 224.593 71.1416 226.883 65.6045C227.703 63.6221 228.267 62.4771 228.575 62.1694C228.917 61.8618 229.19 61.708 229.395 61.708C229.703 61.708 230.028 61.8789 230.369 62.2207C230.95 62.665 231.429 62.8872 231.805 62.8872C232.078 62.8872 232.3 62.7676 232.471 62.5283C232.676 62.2549 233.018 62.0327 233.497 61.8618C233.975 61.6567 234.505 61.5542 235.086 61.5542C235.701 61.52 237.342 61.2979 240.008 60.8877C242.708 60.4775 245.819 59.9648 249.339 59.3496C255.662 58.29 261.165 57.7603 265.848 57.7603C270.53 57.7603 272.872 58.29 272.872 59.3496C272.872 59.5889 272.684 59.7939 272.308 59.9648C271.932 60.1357 271.47 60.2212 270.924 60.2212C270.411 60.2212 269.966 60.3579 269.591 60.6313C269.215 60.9048 269.027 61.2295 269.027 61.6055C269.027 61.9814 268.907 62.3574 268.668 62.7334C268.463 63.0752 268.189 63.3315 267.847 63.5024C267.676 63.5708 267.591 63.6392 267.591 63.7075C267.591 63.7417 267.659 63.7588 267.796 63.7588C268.07 63.7588 268.565 63.6904 269.283 63.5537C269.83 63.4854 270.274 63.4512 270.616 63.4512C271.436 63.4512 271.846 63.6392 271.846 64.0151C271.846 65.9292 264.327 68.0483 249.288 70.3726L238.624 72.0132C237.496 75.7729 236.778 78.2681 236.47 79.4985C236.505 79.6011 236.983 79.6523 237.906 79.6523C238.829 79.6523 239.991 79.6182 241.392 79.5498L243.392 79.4985C246.092 79.4985 247.442 79.8232 247.442 80.4727C247.442 80.917 246.451 81.3442 244.468 81.7544C241.256 82.3013 239.649 82.7798 239.649 83.1899C239.649 83.5317 240.692 83.7026 242.777 83.7026L245.596 83.6514C249.117 83.6514 250.877 83.8735 250.877 84.3179C250.877 84.9331 249.988 86.0439 248.211 87.6504C246.946 88.7783 246.314 89.4448 246.314 89.6499C246.314 89.6841 246.382 89.7012 246.519 89.7012C246.724 89.7012 247.134 89.6157 247.75 89.4448C248.194 89.3081 248.587 89.2397 248.929 89.2397C249.578 89.2397 249.903 89.4448 249.903 89.855C249.903 90.5386 249.014 91.3931 247.237 92.4185C245.494 93.4438 242.469 94.8965 238.162 96.7764C233.104 98.9297 230.489 100.639 230.318 101.903C229.6 104.979 229.241 107.304 229.241 108.876C229.241 109.833 229.378 110.534 229.652 110.978C229.925 111.388 230.438 111.593 231.19 111.593C232.249 111.593 233.753 111.149 235.701 110.26C239.085 108.927 241.99 107.953 244.417 107.338C246.844 106.723 248.553 106.415 249.544 106.415C250.194 106.415 250.518 106.518 250.518 106.723C250.518 107.064 249.783 107.646 248.314 108.466C247.152 109.081 246.57 109.508 246.57 109.748C246.57 109.918 246.827 110.004 247.34 110.004C248.126 110.038 248.519 110.243 248.519 110.619C248.519 110.756 248.45 110.944 248.314 111.183C248.211 111.388 248.16 111.542 248.16 111.645C248.16 111.781 248.245 111.85 248.416 111.85C248.587 111.85 248.861 111.781 249.236 111.645C251.287 110.756 252.432 110.312 252.672 110.312C252.774 110.312 252.825 110.363 252.825 110.465C252.825 110.944 251.868 112.191 249.954 114.208C247.733 116.566 246.622 118.002 246.622 118.515C246.622 118.617 246.673 118.668 246.776 118.668C247.493 118.668 248.04 118.361 248.416 117.746C248.826 117.096 249.681 116.413 250.98 115.695C251.697 115.285 252.142 115.08 252.313 115.08C252.415 115.08 252.466 115.131 252.466 115.233C252.466 115.438 252.278 115.866 251.903 116.515C250.877 118.361 249.151 120.172 246.724 121.95C244.298 123.693 241.768 124.992 239.136 125.846C234.796 127.179 231.942 127.863 230.574 127.897ZM218.885 120.207C219.09 120.207 219.193 120.07 219.193 119.796C219.193 119.386 218.936 118.925 218.424 118.412C218.013 118.002 217.757 117.797 217.654 117.797C217.586 117.797 217.552 117.831 217.552 117.899C217.552 118.07 217.654 118.412 217.86 118.925C218.065 119.403 218.253 119.745 218.424 119.95C218.594 120.121 218.748 120.207 218.885 120.207ZM233.394 115.695C234.044 115.695 234.368 115.575 234.368 115.336L234.317 115.182C234.146 115.045 233.89 114.96 233.548 114.926C233.206 114.926 232.864 114.994 232.523 115.131C232.181 115.268 232.01 115.37 232.01 115.438C232.01 115.609 232.471 115.695 233.394 115.695ZM229.344 68.5269C229.822 68.5269 230.198 68.1338 230.472 67.3477C230.643 66.8008 230.728 66.1172 230.728 65.2969C230.728 64.6133 230.643 64.2715 230.472 64.2715C230.301 64.2715 230.079 64.5278 229.805 65.0405C229.19 65.9976 228.882 66.8862 228.882 67.7065C228.882 68.2534 229.036 68.5269 229.344 68.5269ZM233.958 59.9136C233.206 59.9136 232.83 59.7256 232.83 59.3496C232.83 58.5635 234.539 57.7432 237.957 56.8887C240.999 56.1367 244.588 55.4531 248.724 54.8379C254.329 54.0518 259.046 53.6587 262.874 53.6587C264.993 53.6587 266.549 53.8125 267.54 54.1201C268.599 54.5303 269.129 54.9062 269.129 55.248C269.129 56 267.112 56.3931 263.079 56.4272C259.217 56.4272 254.5 56.8716 248.929 57.7603C240.418 59.1958 235.428 59.9136 233.958 59.9136Z" stroke="#FFE9AD" stroke-width="2"/>
<path d="M277.995 129.127C277.277 129.127 275.91 128.786 273.893 128.102C271.774 127.316 269.74 126.12 267.792 124.513C265.878 122.873 264.442 121.146 263.485 119.335C262.426 117.147 261.674 114.84 261.229 112.414C260.785 109.987 260.563 107.953 260.563 106.312C260.563 105.458 260.614 104.638 260.717 103.852C261.537 98.041 262.956 92.3843 264.972 86.8813C267.023 81.3442 269.245 77.106 271.637 74.1665C272.799 72.8677 273.637 72.2183 274.149 72.2183C274.457 72.2183 274.611 72.3721 274.611 72.6797C274.611 73.0898 274.354 73.7563 273.842 74.6792C273.466 75.2944 273.278 75.6533 273.278 75.7559V75.8071C273.414 75.8071 273.996 75.2261 275.021 74.064C276.696 72.0474 278.49 69.0566 280.404 65.0918C282.147 61.4688 283.942 58.5806 285.788 56.4272C287.667 54.2397 289.325 53.1118 290.761 53.0435C291.991 53.0435 293.187 52.8896 294.35 52.582C294.555 52.5137 294.777 52.4795 295.016 52.4795C296.007 52.4795 297.528 53.6074 299.579 55.8633C302.177 58.4951 303.869 61.3149 304.655 64.3228C305.441 67.2964 305.834 71.8423 305.834 77.9604C305.834 96.5884 302.997 110.243 297.323 118.925C295.648 121.488 293.871 123.402 291.991 124.667C289.735 126.205 286.967 127.299 283.685 127.948C280.814 128.734 278.917 129.127 277.995 129.127ZM291.684 122.155C291.82 122.155 292.008 122.052 292.247 121.847C292.794 121.437 293.341 120.736 293.888 119.745C294.298 119.062 294.503 118.651 294.503 118.515C294.503 118.446 294.486 118.412 294.452 118.412C294.315 118.412 293.871 118.788 293.119 119.54C291.991 120.497 291.427 121.215 291.427 121.693C291.427 122.001 291.513 122.155 291.684 122.155ZM281.942 119.13C282.489 119.13 282.763 119.044 282.763 118.874L282.66 118.72C282.523 118.583 282.318 118.515 282.045 118.515C281.771 118.515 281.498 118.566 281.225 118.668C280.951 118.771 280.814 118.856 280.814 118.925C280.814 119.062 281.19 119.13 281.942 119.13ZM268.407 116.618C268.715 116.618 268.869 116.498 268.869 116.259C268.869 115.951 268.664 115.575 268.253 115.131C267.912 114.823 267.672 114.669 267.536 114.669C267.399 114.669 267.331 114.789 267.331 115.028C267.331 115.37 267.399 115.695 267.536 116.002C267.706 116.276 267.86 116.447 267.997 116.515C268.168 116.583 268.305 116.618 268.407 116.618ZM279.174 116.002C280.233 116.002 281.413 115.661 282.711 114.977C284.352 114.088 285.976 112.738 287.582 110.927C289.188 109.115 290.436 107.184 291.325 105.133C292.213 103.048 292.965 99.8867 293.581 95.6484C294.23 91.4102 294.555 87.3599 294.555 83.4976C294.555 81.686 294.418 79.6182 294.144 77.2939C293.905 74.9697 293.615 72.9702 293.273 71.2954C292.931 69.5864 292.623 68.6978 292.35 68.6294C291.94 68.6978 291.154 69.7915 289.992 71.9106C287.497 76.2173 285.053 79.8062 282.66 82.6772C281.601 83.9419 280.917 84.5742 280.609 84.5742L280.353 84.5229C279.225 84.5229 277.345 87.3086 274.713 92.8799C273.414 95.6143 272.765 98.6733 272.765 102.057C272.833 111.354 274.97 116.002 279.174 116.002ZM269.997 98.6221C270.202 98.6221 270.304 98.2119 270.304 97.3916C270.304 96.6055 270.202 96.2124 269.997 96.2124C269.86 96.2124 269.791 96.6055 269.791 97.3916C269.791 98.2119 269.86 98.6221 269.997 98.6221ZM296.4 56.6836C296.708 56.6836 296.862 56.564 296.862 56.3247C296.862 55.9487 296.657 55.5728 296.247 55.1968C295.905 54.8892 295.665 54.7354 295.529 54.7354C295.392 54.7354 295.324 54.855 295.324 55.0942C295.324 55.436 295.409 55.7607 295.58 56.0684C295.751 56.3418 295.905 56.5127 296.041 56.5811C296.212 56.6494 296.332 56.6836 296.4 56.6836Z" stroke="#FFE9AD" stroke-width="2"/>
<path d="M70.7969 199.156H69.5156C67.9531 199.156 66.5677 198.792 65.3594 198.062C62.5885 196.521 61.2031 194.177 61.2031 191.031C61.2031 190.51 61.2344 189.979 61.2969 189.438C61.7969 185.438 62.776 180.573 64.2344 174.844C65.7135 169.115 67.151 164.562 68.5469 161.188C69.0469 159.979 69.3906 159.281 69.5781 159.094C69.7865 158.906 69.9531 158.812 70.0781 158.812C70.2656 158.812 70.4635 158.917 70.6719 159.125C71.026 159.396 71.3177 159.531 71.5469 159.531C71.7135 159.531 71.849 159.458 71.9531 159.312C72.0781 159.146 72.2865 159.01 72.5781 158.906C72.8698 158.781 73.1927 158.719 73.5469 158.719C73.9219 158.698 74.9219 158.562 76.5469 158.312C78.1927 158.062 80.0885 157.75 82.2344 157.375C86.0885 156.729 89.4427 156.406 92.2969 156.406C95.151 156.406 96.5781 156.729 96.5781 157.375C96.5781 157.521 96.4635 157.646 96.2344 157.75C96.0052 157.854 95.724 157.906 95.3906 157.906C95.0781 157.906 94.8073 157.99 94.5781 158.156C94.349 158.323 94.2344 158.521 94.2344 158.75C94.2344 158.979 94.1615 159.208 94.0156 159.438C93.8906 159.646 93.724 159.802 93.5156 159.906C93.4115 159.948 93.3594 159.99 93.3594 160.031C93.3594 160.052 93.401 160.062 93.4844 160.062C93.651 160.062 93.9531 160.021 94.3906 159.938C94.724 159.896 94.9948 159.875 95.2031 159.875C95.7031 159.875 95.9531 159.99 95.9531 160.219C95.9531 161.385 91.3698 162.677 82.2031 164.094L75.7031 165.094C75.0156 167.385 74.5781 168.906 74.3906 169.656C74.4115 169.719 74.7031 169.75 75.2656 169.75C75.8281 169.75 76.5365 169.729 77.3906 169.688L78.6094 169.656C80.2552 169.656 81.0781 169.854 81.0781 170.25C81.0781 170.521 80.474 170.781 79.2656 171.031C77.3073 171.365 76.3281 171.656 76.3281 171.906C76.3281 172.115 76.9635 172.219 78.2344 172.219L79.9531 172.188C82.099 172.188 83.1719 172.323 83.1719 172.594C83.1719 172.969 82.6302 173.646 81.5469 174.625C80.776 175.312 80.3906 175.719 80.3906 175.844C80.3906 175.865 80.4323 175.875 80.5156 175.875C80.6406 175.875 80.8906 175.823 81.2656 175.719C81.5365 175.635 81.776 175.594 81.9844 175.594C82.3802 175.594 82.5781 175.719 82.5781 175.969C82.5781 176.385 82.0365 176.906 80.9531 177.531C79.8906 178.156 78.0469 179.042 75.4219 180.188C72.3385 181.5 70.7448 182.542 70.6406 183.312C70.2031 185.188 69.9844 186.604 69.9844 187.562C69.9844 188.146 70.0677 188.573 70.2344 188.844C70.401 189.094 70.7135 189.219 71.1719 189.219C71.8177 189.219 72.7344 188.948 73.9219 188.406C75.9844 187.594 77.7552 187 79.2344 186.625C80.7135 186.25 81.7552 186.062 82.3594 186.062C82.7552 186.062 82.9531 186.125 82.9531 186.25C82.9531 186.458 82.5052 186.812 81.6094 187.312C80.901 187.688 80.5469 187.948 80.5469 188.094C80.5469 188.198 80.7031 188.25 81.0156 188.25C81.4948 188.271 81.7344 188.396 81.7344 188.625C81.7344 188.708 81.6927 188.823 81.6094 188.969C81.5469 189.094 81.5156 189.188 81.5156 189.25C81.5156 189.333 81.5677 189.375 81.6719 189.375C81.776 189.375 81.9427 189.333 82.1719 189.25C83.4219 188.708 84.1198 188.438 84.2656 188.438C84.3281 188.438 84.3594 188.469 84.3594 188.531C84.3594 188.823 83.776 189.583 82.6094 190.812C81.2552 192.25 80.5781 193.125 80.5781 193.438C80.5781 193.5 80.6094 193.531 80.6719 193.531C81.1094 193.531 81.4427 193.344 81.6719 192.969C81.9219 192.573 82.4427 192.156 83.2344 191.719C83.6719 191.469 83.9427 191.344 84.0469 191.344C84.1094 191.344 84.1406 191.375 84.1406 191.438C84.1406 191.562 84.026 191.823 83.7969 192.219C83.1719 193.344 82.1198 194.448 80.6406 195.531C79.1615 196.594 77.6198 197.385 76.0156 197.906C73.3698 198.719 71.6302 199.135 70.7969 199.156ZM63.6719 194.469C63.7969 194.469 63.8594 194.385 63.8594 194.219C63.8594 193.969 63.7031 193.688 63.3906 193.375C63.1406 193.125 62.9844 193 62.9219 193C62.8802 193 62.8594 193.021 62.8594 193.062C62.8594 193.167 62.9219 193.375 63.0469 193.688C63.1719 193.979 63.2865 194.188 63.3906 194.312C63.4948 194.417 63.5885 194.469 63.6719 194.469ZM72.5156 191.719C72.9115 191.719 73.1094 191.646 73.1094 191.5L73.0781 191.406C72.974 191.323 72.8177 191.271 72.6094 191.25C72.401 191.25 72.1927 191.292 71.9844 191.375C71.776 191.458 71.6719 191.521 71.6719 191.562C71.6719 191.667 71.9531 191.719 72.5156 191.719ZM70.0469 162.969C70.3385 162.969 70.5677 162.729 70.7344 162.25C70.8385 161.917 70.8906 161.5 70.8906 161C70.8906 160.583 70.8385 160.375 70.7344 160.375C70.6302 160.375 70.4948 160.531 70.3281 160.844C69.9531 161.427 69.7656 161.969 69.7656 162.469C69.7656 162.802 69.8594 162.969 70.0469 162.969ZM72.8594 157.719C72.401 157.719 72.1719 157.604 72.1719 157.375C72.1719 156.896 73.2135 156.396 75.2969 155.875C77.151 155.417 79.3385 155 81.8594 154.625C85.276 154.146 88.151 153.906 90.4844 153.906C91.776 153.906 92.724 154 93.3281 154.188C93.974 154.438 94.2969 154.667 94.2969 154.875C94.2969 155.333 93.0677 155.573 90.6094 155.594C88.2552 155.594 85.3802 155.865 81.9844 156.406C76.7969 157.281 73.7552 157.719 72.8594 157.719Z" stroke="#FFE9AD" stroke-width="2"/>
<path d="M101.583 205.812C101.521 205.812 101.458 205.792 101.396 205.75C101.166 205.521 101.031 205.042 100.989 204.312C100.989 203.771 100.958 203.5 100.896 203.5C100.833 203.5 100.719 203.74 100.552 204.219C100.385 204.719 100.25 204.969 100.146 204.969C100.021 204.969 99.8227 204.698 99.5519 204.156C99.3852 203.823 99.2394 203.323 99.1144 202.656C99.0102 201.99 98.9581 201.323 98.9581 200.656C98.9581 199.719 98.8956 199.083 98.7706 198.75C98.6456 198.438 98.406 198.281 98.0519 198.281C97.6144 198.281 97.3956 198.24 97.3956 198.156C97.3956 198.073 97.6144 197.875 98.0519 197.562C98.6352 197.104 98.9269 196.74 98.9269 196.469C98.9269 196.385 98.8852 196.344 98.8019 196.344C98.6977 196.344 98.531 196.406 98.3019 196.531L98.1456 196.594C98.1248 196.594 98.1144 196.583 98.1144 196.562C98.1144 196.479 98.2602 196.26 98.5519 195.906C99.1352 195.094 99.7081 193.031 100.271 189.719C101.271 183.365 103.094 175.406 105.739 165.844C107.219 160.51 108.021 157.531 108.146 156.906C108.375 155.99 108.635 155.531 108.927 155.531C109.177 155.635 109.323 156.26 109.364 157.406L109.396 159.656L110.271 157.438C110.75 156.188 111.073 155.521 111.239 155.438C111.427 155.333 111.541 155.281 111.583 155.281C111.812 155.281 111.927 155.729 111.927 156.625C111.927 157.312 112 157.656 112.146 157.656C112.271 157.656 112.5 157.49 112.833 157.156C114.5 155.781 116.614 154.771 119.177 154.125C121.739 153.479 123.812 153.156 125.396 153.156C126.25 153.156 127.031 153.229 127.739 153.375C128.719 153.667 130.031 154.635 131.677 156.281C132.51 157.073 133.104 157.708 133.458 158.188C133.833 158.667 134.052 159.177 134.114 159.719C134.198 160.24 134.239 161.052 134.239 162.156C134.239 164.281 133.823 166.99 132.989 170.281C132.156 173.552 131.187 176.333 130.083 178.625C125.521 187.438 118.406 193.458 108.739 196.688C108.177 196.854 107.75 197.042 107.458 197.25C107.166 197.458 106.937 197.792 106.771 198.25C106.604 198.708 106.427 199.385 106.239 200.281C106.073 201.198 105.844 202.052 105.552 202.844C105.281 203.635 105.01 204.208 104.739 204.562C104.364 205.062 104.125 205.312 104.021 205.312C103.937 205.312 103.896 205.198 103.896 204.969C103.896 204.698 103.927 204.26 103.989 203.656C104.073 203.073 104.114 202.646 104.114 202.375C104.114 202.208 104.104 202.115 104.083 202.094H104.052C103.927 202.094 103.489 202.781 102.739 204.156C102.51 204.573 102.333 204.917 102.208 205.188C102.021 205.604 101.812 205.812 101.583 205.812ZM104.364 201.312C104.51 201.312 104.594 201.156 104.614 200.844C104.614 200.656 104.573 200.469 104.489 200.281C104.427 200.115 104.375 200.031 104.333 200.031C104.25 200.031 104.198 200.219 104.177 200.594C104.177 201.073 104.239 201.312 104.364 201.312ZM108.146 188.062L110.927 186.562C111.76 186.104 112.864 185.312 114.239 184.188C117.385 181.604 119.969 179.01 121.989 176.406C122.948 175.177 123.739 173.917 124.364 172.625C125.739 169.771 126.427 167.24 126.427 165.031C126.427 162.656 125.687 161.469 124.208 161.469C122.875 161.469 121.052 162.25 118.739 163.812C116.448 165.354 114.479 167.125 112.833 169.125C112.5 169.625 112.031 170.865 111.427 172.844C110.823 174.802 110.239 176.958 109.677 179.312C109.114 181.667 108.729 183.656 108.521 185.281L108.146 188.062ZM106.958 183.156C107.104 183.156 107.187 183 107.208 182.688C107.208 182.5 107.166 182.312 107.083 182.125C107.021 181.958 106.969 181.875 106.927 181.875C106.844 181.875 106.791 182.062 106.771 182.438C106.771 182.917 106.833 183.156 106.958 183.156ZM107.489 180.562C107.635 180.562 107.708 180.448 107.708 180.219V179.969C107.708 179.823 107.677 179.677 107.614 179.531C107.552 179.365 107.5 179.281 107.458 179.281C107.354 179.281 107.302 179.531 107.302 180.031C107.302 180.385 107.364 180.562 107.489 180.562ZM132.302 160.938C132.364 160.938 132.448 160.708 132.552 160.25C132.594 160.042 132.614 159.854 132.614 159.688C132.614 159.375 132.562 159.146 132.458 159C132.333 158.875 132.229 158.812 132.146 158.812C132.083 158.812 132.031 158.833 131.989 158.875C131.823 158.979 131.739 159.188 131.739 159.5C131.739 159.729 131.802 159.99 131.927 160.281C132.094 160.719 132.219 160.938 132.302 160.938ZM120.083 156.219C120.416 156.219 121.416 155.99 123.083 155.531C124.25 155.219 124.833 155 124.833 154.875C124.833 154.812 124.604 154.781 124.146 154.781C123.291 154.781 122.312 155.01 121.208 155.469C120.375 155.844 119.958 156.083 119.958 156.188C119.958 156.208 120 156.219 120.083 156.219Z" stroke="#FFE9AD" stroke-width="2"/>
<path d="M146.494 201.875C145.682 201.875 145.276 201.729 145.276 201.438C145.276 201.312 145.13 201.167 144.838 201C144.546 200.833 144.192 200.698 143.776 200.594C143.026 200.406 142.651 200.25 142.651 200.125C142.651 200.021 142.89 199.844 143.369 199.594C144.057 199.24 144.505 198.927 144.713 198.656C144.921 198.406 145.296 198.167 145.838 197.938C145.984 197.875 146.057 197.823 146.057 197.781C146.057 197.677 145.755 197.615 145.151 197.594C144.171 197.531 143.682 197.375 143.682 197.125C143.682 196.854 144.255 196.469 145.401 195.969C146.317 195.615 146.776 195.375 146.776 195.25C146.776 195.146 146.494 195.021 145.932 194.875C145.119 194.646 144.713 194.438 144.713 194.25V193.969C144.713 193.635 145.099 193.365 145.869 193.156C146.224 193.115 146.526 192.896 146.776 192.5C147.046 192.083 147.338 191.302 147.651 190.156C147.963 188.99 148.38 187.25 148.901 184.938C151.234 174.458 152.401 167.958 152.401 165.438C152.401 164.604 152.307 164.094 152.119 163.906C151.953 163.698 151.505 163.594 150.776 163.594C150.338 163.594 149.932 163.542 149.557 163.438C149.182 163.312 148.932 163.167 148.807 163C148.703 162.833 148.505 162.656 148.213 162.469C147.921 162.26 147.588 162.083 147.213 161.938C146.859 161.771 146.484 161.615 146.088 161.469C146.505 161.344 146.901 161.229 147.276 161.125C147.671 161 147.984 160.865 148.213 160.719C148.442 160.552 148.557 160.417 148.557 160.312C148.557 160.188 148.651 160.062 148.838 159.938C149.026 159.792 149.244 159.688 149.494 159.625C149.744 159.542 149.869 159.479 149.869 159.438C149.869 159.354 149.567 159.302 148.963 159.281C148.546 159.26 148.192 159.198 147.901 159.094C147.609 158.99 147.463 158.875 147.463 158.75C147.463 158.583 147.796 158.365 148.463 158.094C150.213 157.385 151.671 157.031 152.838 157.031C153.151 157.031 153.453 156.969 153.744 156.844C154.224 156.635 154.463 156.427 154.463 156.219C154.463 156.031 154.203 155.938 153.682 155.938C153.349 155.938 152.901 155.979 152.338 156.062C151.796 156.125 151.286 156.156 150.807 156.156C149.682 156.156 148.921 156.052 148.526 155.844C148.296 155.719 148.182 155.615 148.182 155.531C148.182 155.177 149.349 154.896 151.682 154.688C154.015 154.458 156.234 154.344 158.338 154.344C159.484 154.344 160.307 154.396 160.807 154.5C161.744 154.771 162.213 155.042 162.213 155.312C162.213 155.708 161.453 155.927 159.932 155.969C158.89 156.01 158.369 156.104 158.369 156.25C158.369 156.396 158.713 156.552 159.401 156.719C160.088 156.865 160.994 156.958 162.119 157H162.276C163.713 157 164.432 157.281 164.432 157.844C164.432 158.406 163.838 158.708 162.651 158.75C161.963 158.771 161.619 158.833 161.619 158.938C161.619 158.958 161.692 159 161.838 159.062C162.317 159.167 162.557 159.354 162.557 159.625C162.557 159.688 162.536 159.75 162.494 159.812C162.453 159.875 162.432 159.938 162.432 160C162.432 160.208 162.64 160.312 163.057 160.312C163.619 160.312 163.901 160.448 163.901 160.719C163.901 161.198 163.39 161.625 162.369 162C161.89 162.146 161.536 162.344 161.307 162.594C160.89 163.052 160.505 164.625 160.151 167.312C159.588 170.958 158.515 176.521 156.932 184C156.244 187.167 155.724 189.406 155.369 190.719C155.328 190.865 155.307 191.01 155.307 191.156C155.307 191.656 155.796 192.094 156.776 192.469C157.755 192.844 158.244 193.146 158.244 193.375C158.244 193.625 157.588 193.781 156.276 193.844C155.151 193.885 154.588 194.01 154.588 194.219C154.588 194.552 155.546 194.781 157.463 194.906C159.067 195.031 159.911 195.188 159.994 195.375C160.099 195.562 160.151 195.677 160.151 195.719C160.151 196.01 159.536 196.281 158.307 196.531C157.578 196.677 157.213 196.792 157.213 196.875C157.213 196.896 157.286 196.917 157.432 196.938C157.911 196.979 158.151 197.156 158.151 197.469C158.151 197.573 158.119 197.698 158.057 197.844C157.994 197.99 157.963 198.115 157.963 198.219C157.963 198.365 158.036 198.438 158.182 198.438C158.286 198.438 158.421 198.396 158.588 198.312C158.776 198.25 158.932 198.219 159.057 198.219C159.369 198.219 159.526 198.417 159.526 198.812C159.526 199.083 159.453 199.302 159.307 199.469C159.182 199.635 158.901 199.792 158.463 199.938C158.026 200.083 157.349 200.24 156.432 200.406C155.515 200.594 154.286 200.823 152.744 201.094C149.994 201.573 148.296 201.823 147.651 201.844C147.026 201.865 146.64 201.875 146.494 201.875ZM157.557 171.156C157.724 171.156 157.807 171 157.807 170.688C157.807 170.479 157.776 170.271 157.713 170.062C157.63 169.896 157.567 169.812 157.526 169.812C157.421 169.812 157.369 170.073 157.369 170.594C157.369 170.969 157.432 171.156 157.557 171.156ZM156.244 157.031C156.536 157.031 156.807 156.854 157.057 156.5L157.088 156.344C157.088 156.073 156.807 155.938 156.244 155.938C155.661 155.938 155.369 156.073 155.369 156.344C155.369 156.51 155.515 156.688 155.807 156.875C155.953 156.979 156.099 157.031 156.244 157.031Z" stroke="#FFE9AD" stroke-width="2"/>
<path d="M187.093 201.812H187.031C186.968 201.812 186.843 201.552 186.656 201.031C186.218 199.948 185.906 199.208 185.718 198.812C185.531 198.438 185.416 198.25 185.374 198.25C185.354 198.25 185.343 198.292 185.343 198.375C185.343 198.521 185.395 198.865 185.499 199.406C185.624 199.969 185.687 200.344 185.687 200.531C185.687 200.635 185.656 200.688 185.593 200.688C185.489 200.688 185.229 200.469 184.812 200.031C184.229 199.594 183.937 198.396 183.937 196.438C183.937 193.417 184.822 186.656 186.593 176.156C187.51 170.552 188.031 167.229 188.156 166.188C188.26 165.333 188.312 164.719 188.312 164.344C188.312 163.865 188.27 163.615 188.187 163.594C188.104 163.552 188.041 163.531 187.999 163.531C187.895 163.531 187.781 163.562 187.656 163.625C187.531 163.667 187.416 163.698 187.312 163.719C186.187 163.969 184.947 164.167 183.593 164.312C182.26 164.438 181.093 164.5 180.093 164.5C178.676 164.5 177.968 164.406 177.968 164.219C177.968 164.01 177.895 163.844 177.749 163.719C177.583 163.594 177.385 163.531 177.156 163.531C176.593 163.531 176.312 163.406 176.312 163.156C176.312 162.823 176.697 162.396 177.468 161.875C178.072 161.458 178.812 161.125 179.687 160.875C180.562 160.625 180.999 160.469 180.999 160.406C180.999 160.323 180.291 160.271 178.874 160.25C177.437 160.208 176.718 160.083 176.718 159.875C176.718 159.458 179.01 158.833 183.593 158C187.697 157.229 189.749 156.698 189.749 156.406C189.749 156.365 189.624 156.344 189.374 156.344C188.999 156.344 188.354 156.396 187.437 156.5C183.333 157.042 180.499 157.312 178.937 157.312C177.937 157.312 177.437 157.208 177.437 157C177.437 156.771 177.624 156.573 177.999 156.406C178.354 156.24 179.072 156.062 180.156 155.875C181.218 155.667 182.77 155.427 184.812 155.156C186.249 154.969 187.333 154.792 188.062 154.625C188.812 154.458 189.354 154.26 189.687 154.031C190.02 153.781 190.301 153.438 190.531 153C190.781 152.542 191.031 152.073 191.281 151.594L192.031 154.25C193.135 152.812 193.729 152.083 193.812 152.062L193.906 152.031C194.01 152.031 194.062 152.167 194.062 152.438V152.594C194.062 152.865 194.145 153.073 194.312 153.219C194.499 153.344 194.781 153.427 195.156 153.469C195.551 153.49 195.937 153.5 196.312 153.5L198.062 153.469C199.208 153.469 200.197 153.542 201.031 153.688C202.218 153.875 202.812 154.104 202.812 154.375C202.812 154.625 201.979 154.885 200.312 155.156C199.687 155.26 199.104 155.344 198.562 155.406C198.02 155.448 197.749 155.49 197.749 155.531C197.749 155.594 198.385 155.646 199.656 155.688C203.135 155.771 204.874 156.146 204.874 156.812C204.874 157.229 204.406 157.438 203.468 157.438C202.926 157.438 202.656 157.562 202.656 157.812C202.656 157.854 202.666 157.906 202.687 157.969C202.729 158.031 202.749 158.094 202.749 158.156C202.749 158.469 202.499 158.781 201.999 159.094C201.708 159.26 201.562 159.385 201.562 159.469C201.562 159.51 201.624 159.531 201.749 159.531C201.979 159.531 202.395 159.469 202.999 159.344C203.624 159.198 204.051 159.125 204.281 159.125C204.447 159.125 204.531 159.167 204.531 159.25C204.531 159.375 204.406 159.573 204.156 159.844C203.926 160.115 203.52 160.396 202.937 160.688C202.374 160.958 201.76 161.177 201.093 161.344C199.218 161.802 197.947 162.229 197.281 162.625C196.635 163.021 196.312 163.51 196.312 164.094V164.219C196.312 165.115 195.676 169.615 194.406 177.719C193.364 184.448 192.51 190.125 191.843 194.75C191.239 199.021 190.624 201.156 189.999 201.156C189.812 201.156 189.676 200.656 189.593 199.656C189.551 198.865 189.479 198.469 189.374 198.469C189.333 198.469 189.291 198.531 189.249 198.656C189.187 198.948 189.051 199.188 188.843 199.375C188.656 199.562 188.458 199.656 188.249 199.656C188.041 199.656 187.843 199.771 187.656 200C187.468 200.25 187.343 200.552 187.281 200.906C187.197 201.49 187.135 201.792 187.093 201.812ZM189.874 193.438L189.968 193.375C190.072 193.271 190.124 193.083 190.124 192.812C190.124 192.646 190.093 192.479 190.031 192.312C189.947 192.146 189.885 192.062 189.843 192.062C189.76 192.062 189.708 192.26 189.687 192.656C189.687 193.177 189.749 193.438 189.874 193.438ZM190.968 185.656C191.135 185.656 191.229 185.49 191.249 185.156C191.249 184.948 191.208 184.74 191.124 184.531C191.041 184.365 190.979 184.281 190.937 184.281C190.854 184.281 190.812 184.552 190.812 185.094C190.812 185.469 190.864 185.656 190.968 185.656ZM191.562 182.312C191.708 182.312 191.791 182.146 191.812 181.812C191.812 181.625 191.77 181.427 191.687 181.219C191.604 181.052 191.541 180.969 191.499 180.969C191.416 180.969 191.364 181.156 191.343 181.531C191.343 182.052 191.416 182.312 191.562 182.312ZM192.093 179C192.26 179 192.343 178.865 192.343 178.594V178.375C192.343 178.208 192.312 178.042 192.249 177.875C192.166 177.708 192.104 177.625 192.062 177.625C191.979 177.625 191.926 177.823 191.906 178.219C191.906 178.74 191.968 179 192.093 179ZM192.656 175.656C192.697 175.656 192.729 175.646 192.749 175.625C192.854 175.521 192.906 175.323 192.906 175.031C192.906 174.865 192.874 174.698 192.812 174.531C192.729 174.365 192.666 174.281 192.624 174.281C192.52 174.281 192.468 174.552 192.468 175.094C192.468 175.469 192.531 175.656 192.656 175.656ZM193.218 172.312C193.385 172.312 193.468 172.146 193.468 171.812C193.468 171.625 193.437 171.427 193.374 171.219H193.343C193.281 171.052 193.229 170.969 193.187 170.969C193.083 170.969 193.031 171.229 193.031 171.75C193.031 172.125 193.093 172.312 193.218 172.312ZM194.593 156.312C194.739 156.312 194.895 156.26 195.062 156.156C195.229 156.052 195.354 155.938 195.437 155.812C195.541 155.667 195.593 155.552 195.593 155.469C195.572 155.302 195.468 155.219 195.281 155.219C195.114 155.219 194.947 155.271 194.781 155.375C194.614 155.479 194.479 155.604 194.374 155.75C194.291 155.875 194.249 155.979 194.249 156.062C194.27 156.229 194.385 156.312 194.593 156.312Z" stroke="#FFE9AD" stroke-width="2"/>
<path d="M215.254 201.875C214.442 201.875 214.036 201.729 214.036 201.438C214.036 201.312 213.89 201.167 213.598 201C213.306 200.833 212.952 200.698 212.536 200.594C211.786 200.406 211.411 200.25 211.411 200.125C211.411 200.021 211.65 199.844 212.129 199.594C212.817 199.24 213.265 198.927 213.473 198.656C213.681 198.406 214.056 198.167 214.598 197.938C214.744 197.875 214.817 197.823 214.817 197.781C214.817 197.677 214.515 197.615 213.911 197.594C212.931 197.531 212.442 197.375 212.442 197.125C212.442 196.854 213.015 196.469 214.161 195.969C215.077 195.615 215.536 195.375 215.536 195.25C215.536 195.146 215.254 195.021 214.692 194.875C213.879 194.646 213.473 194.438 213.473 194.25V193.969C213.473 193.635 213.859 193.365 214.629 193.156C214.984 193.115 215.286 192.896 215.536 192.5C215.806 192.083 216.098 191.302 216.411 190.156C216.723 188.99 217.14 187.25 217.661 184.938C219.994 174.458 221.161 167.958 221.161 165.438C221.161 164.604 221.067 164.094 220.879 163.906C220.713 163.698 220.265 163.594 219.536 163.594C219.098 163.594 218.692 163.542 218.317 163.438C217.942 163.312 217.692 163.167 217.567 163C217.463 162.833 217.265 162.656 216.973 162.469C216.681 162.26 216.348 162.083 215.973 161.938C215.619 161.771 215.244 161.615 214.848 161.469C215.265 161.344 215.661 161.229 216.036 161.125C216.431 161 216.744 160.865 216.973 160.719C217.202 160.552 217.317 160.417 217.317 160.312C217.317 160.188 217.411 160.062 217.598 159.938C217.786 159.792 218.004 159.688 218.254 159.625C218.504 159.542 218.629 159.479 218.629 159.438C218.629 159.354 218.327 159.302 217.723 159.281C217.306 159.26 216.952 159.198 216.661 159.094C216.369 158.99 216.223 158.875 216.223 158.75C216.223 158.583 216.556 158.365 217.223 158.094C218.973 157.385 220.431 157.031 221.598 157.031C221.911 157.031 222.213 156.969 222.504 156.844C222.984 156.635 223.223 156.427 223.223 156.219C223.223 156.031 222.963 155.938 222.442 155.938C222.109 155.938 221.661 155.979 221.098 156.062C220.556 156.125 220.046 156.156 219.567 156.156C218.442 156.156 217.681 156.052 217.286 155.844C217.056 155.719 216.942 155.615 216.942 155.531C216.942 155.177 218.109 154.896 220.442 154.688C222.775 154.458 224.994 154.344 227.098 154.344C228.244 154.344 229.067 154.396 229.567 154.5C230.504 154.771 230.973 155.042 230.973 155.312C230.973 155.708 230.213 155.927 228.692 155.969C227.65 156.01 227.129 156.104 227.129 156.25C227.129 156.396 227.473 156.552 228.161 156.719C228.848 156.865 229.754 156.958 230.879 157H231.036C232.473 157 233.192 157.281 233.192 157.844C233.192 158.406 232.598 158.708 231.411 158.75C230.723 158.771 230.379 158.833 230.379 158.938C230.379 158.958 230.452 159 230.598 159.062C231.077 159.167 231.317 159.354 231.317 159.625C231.317 159.688 231.296 159.75 231.254 159.812C231.213 159.875 231.192 159.938 231.192 160C231.192 160.208 231.4 160.312 231.817 160.312C232.379 160.312 232.661 160.448 232.661 160.719C232.661 161.198 232.15 161.625 231.129 162C230.65 162.146 230.296 162.344 230.067 162.594C229.65 163.052 229.265 164.625 228.911 167.312C228.348 170.958 227.275 176.521 225.692 184C225.004 187.167 224.484 189.406 224.129 190.719C224.088 190.865 224.067 191.01 224.067 191.156C224.067 191.656 224.556 192.094 225.536 192.469C226.515 192.844 227.004 193.146 227.004 193.375C227.004 193.625 226.348 193.781 225.036 193.844C223.911 193.885 223.348 194.01 223.348 194.219C223.348 194.552 224.306 194.781 226.223 194.906C227.827 195.031 228.671 195.188 228.754 195.375C228.859 195.562 228.911 195.677 228.911 195.719C228.911 196.01 228.296 196.281 227.067 196.531C226.338 196.677 225.973 196.792 225.973 196.875C225.973 196.896 226.046 196.917 226.192 196.938C226.671 196.979 226.911 197.156 226.911 197.469C226.911 197.573 226.879 197.698 226.817 197.844C226.754 197.99 226.723 198.115 226.723 198.219C226.723 198.365 226.796 198.438 226.942 198.438C227.046 198.438 227.181 198.396 227.348 198.312C227.536 198.25 227.692 198.219 227.817 198.219C228.129 198.219 228.286 198.417 228.286 198.812C228.286 199.083 228.213 199.302 228.067 199.469C227.942 199.635 227.661 199.792 227.223 199.938C226.786 200.083 226.109 200.24 225.192 200.406C224.275 200.594 223.046 200.823 221.504 201.094C218.754 201.573 217.056 201.823 216.411 201.844C215.786 201.865 215.4 201.875 215.254 201.875ZM226.317 171.156C226.484 171.156 226.567 171 226.567 170.688C226.567 170.479 226.536 170.271 226.473 170.062C226.39 169.896 226.327 169.812 226.286 169.812C226.181 169.812 226.129 170.073 226.129 170.594C226.129 170.969 226.192 171.156 226.317 171.156ZM225.004 157.031C225.296 157.031 225.567 156.854 225.817 156.5L225.848 156.344C225.848 156.073 225.567 155.938 225.004 155.938C224.421 155.938 224.129 156.073 224.129 156.344C224.129 156.51 224.275 156.688 224.567 156.875C224.713 156.979 224.859 157.031 225.004 157.031Z" stroke="#FFE9AD" stroke-width="2"/>
<path d="M261.384 204.406C261.197 204.406 261.041 204.146 260.916 203.625C260.77 203.042 260.478 202.75 260.041 202.75C259.936 202.75 259.811 202.771 259.666 202.812C259.541 202.854 259.416 202.875 259.291 202.875C259.02 202.875 258.78 202.552 258.572 201.906C258.384 201.26 257.978 198.76 257.353 194.406C256.874 191.177 256.301 187.646 255.634 183.812C254.697 178.396 254.134 175.688 253.947 175.688C253.551 175.688 253.009 177.427 252.322 180.906C251.947 182.823 251.645 184.906 251.416 187.156C250.666 193.948 250.009 197.344 249.447 197.344C249.03 197.344 248.77 195.844 248.666 192.844L247.947 196.469C247.301 195.073 246.957 194.375 246.916 194.375C246.811 194.375 246.759 194.948 246.759 196.094C246.718 197.469 246.614 198.167 246.447 198.188L246.228 198.219C245.936 198.219 245.666 197.594 245.416 196.344L245.041 194.406L243.759 197.406L243.416 196.094C243.291 195.49 243.228 194.719 243.228 193.781C243.228 192.135 243.426 189.979 243.822 187.312C244.447 183.125 245.384 178.552 246.634 173.594C247.905 168.615 249.322 164.073 250.884 159.969C251.864 157.385 252.561 155.812 252.978 155.25C253.395 154.667 253.749 154.375 254.041 154.375C254.27 154.375 254.489 154.479 254.697 154.688C254.989 154.938 255.207 155.062 255.353 155.062C255.478 155.062 255.541 154.969 255.541 154.781C255.541 154.365 255.676 154.146 255.947 154.125C256.218 154.125 256.499 154.271 256.791 154.562C257.103 154.833 257.311 155.208 257.416 155.688C257.582 156.562 257.884 157 258.322 157C258.426 157 258.541 156.979 258.666 156.938C258.791 156.896 258.905 156.875 259.009 156.875C259.468 156.875 259.759 157.396 259.884 158.438C259.968 158.979 260.134 160.073 260.384 161.719C260.655 163.344 260.936 165.146 261.228 167.125C261.957 171.688 262.364 174.062 262.447 174.25C262.551 174.25 262.916 172.969 263.541 170.406C264.291 167.156 265.134 164.042 266.072 161.062C267.364 156.938 268.301 154.875 268.884 154.875C268.947 154.875 268.978 154.969 268.978 155.156C268.978 155.365 268.853 156.521 268.603 158.625C269.52 156.5 270.103 155.24 270.353 154.844C270.624 154.427 270.801 154.219 270.884 154.219C271.009 154.219 271.072 154.833 271.072 156.062C271.072 156.771 270.947 159.177 270.697 163.281C271.634 159.406 272.155 157.354 272.259 157.125C272.384 156.896 272.478 156.781 272.541 156.781C272.624 156.781 272.707 156.958 272.791 157.312C272.874 157.646 272.916 158.083 272.916 158.625C272.916 159.458 272.822 160.562 272.634 161.938C272.364 164.188 271.936 166.458 271.353 168.75C269.77 174.958 268.561 181.958 267.728 189.75C267.103 195.708 266.593 199.5 266.197 201.125C265.801 202.75 265.447 203.562 265.134 203.562C264.947 203.562 264.749 203.292 264.541 202.75C264.353 202.208 263.999 201.938 263.478 201.938C263.02 201.938 262.791 202.177 262.791 202.656C262.791 202.844 262.718 203.073 262.572 203.344C262.426 203.615 262.228 203.854 261.978 204.062C261.728 204.292 261.53 204.406 261.384 204.406ZM265.603 189.406C265.77 189.406 265.853 189.24 265.853 188.906C265.853 188.719 265.822 188.531 265.759 188.344C265.676 188.177 265.614 188.094 265.572 188.094C265.489 188.094 265.447 188.344 265.447 188.844C265.447 189.219 265.499 189.406 265.603 189.406ZM249.541 185.75C249.686 185.75 249.759 185.635 249.759 185.406V185.156C249.759 185.01 249.728 184.865 249.666 184.719C249.603 184.552 249.551 184.469 249.509 184.469C249.426 184.469 249.374 184.656 249.353 185.031C249.353 185.51 249.416 185.75 249.541 185.75ZM266.134 185.625C266.28 185.625 266.353 185.354 266.353 184.812C266.353 184.271 266.28 184 266.134 184C266.051 184 266.009 184.271 266.009 184.812C266.009 185.354 266.051 185.625 266.134 185.625ZM266.634 182.656C266.801 182.656 266.884 182.542 266.884 182.312V182.062C266.884 181.917 266.853 181.76 266.791 181.594C266.728 181.427 266.676 181.344 266.634 181.344C266.53 181.344 266.478 181.594 266.478 182.094C266.478 182.469 266.53 182.656 266.634 182.656ZM250.572 180.062C250.718 180.062 250.801 179.906 250.822 179.594C250.822 179.406 250.78 179.208 250.697 179C250.634 178.833 250.582 178.75 250.541 178.75C250.457 178.75 250.405 178.938 250.384 179.312C250.384 179.812 250.447 180.062 250.572 180.062ZM267.166 179.531C267.311 179.531 267.395 179.375 267.416 179.062C267.416 178.875 267.384 178.688 267.322 178.5C267.239 178.333 267.176 178.25 267.134 178.25C267.051 178.25 267.009 178.5 267.009 179C267.009 179.354 267.061 179.531 267.166 179.531ZM267.697 176.938C267.843 176.938 267.916 176.823 267.916 176.594V176.344C267.916 176.198 267.884 176.052 267.822 175.906C267.759 175.74 267.707 175.656 267.666 175.656C267.582 175.656 267.53 175.844 267.509 176.219C267.509 176.698 267.572 176.938 267.697 176.938Z" stroke="#FFE9AD" stroke-width="2"/>
<path d="M303.171 204.875C303.066 204.875 302.952 204.719 302.827 204.406C302.639 203.948 302.421 203.719 302.171 203.719C302.108 203.719 302.056 203.74 302.014 203.781C301.869 203.781 301.754 203.219 301.671 202.094C301.587 200.99 301.546 197.438 301.546 191.438L298.639 194.125C297.035 195.625 295.671 196.677 294.546 197.281C293.421 197.885 291.921 198.396 290.046 198.812C288.816 199.083 288.014 199.219 287.639 199.219C287.244 199.219 286.848 199.125 286.452 198.938C286.077 198.771 284.796 197.938 282.608 196.438L282.452 192.375C282.452 187.75 283.587 182.406 285.858 176.344C288.15 170.281 290.941 165.292 294.233 161.375C295.65 159.729 297.046 158.531 298.421 157.781C299.796 157.01 301.556 156.458 303.702 156.125C305.223 155.875 306.254 155.635 306.796 155.406C307.358 155.177 307.65 154.865 307.671 154.469C307.9 153.427 308.16 152.906 308.452 152.906C308.681 152.906 308.796 153.302 308.796 154.094C308.796 155.177 308.962 155.719 309.296 155.719C309.587 155.719 309.848 155.219 310.077 154.219C310.327 153.198 310.566 152.688 310.796 152.688C310.858 152.688 310.973 152.792 311.139 153C311.306 153.188 311.389 154.104 311.389 155.75C311.389 156.625 311.441 157.365 311.546 157.969C311.65 158.573 311.775 158.875 311.921 158.875C312.066 158.875 312.181 158.781 312.264 158.594C312.369 158.385 312.421 158.146 312.421 157.875C312.421 157.208 312.535 156.604 312.764 156.062C312.994 155.521 313.244 155.25 313.514 155.25C313.827 155.25 313.983 155.875 313.983 157.125C313.983 158.708 313.848 160.479 313.577 162.438C313.035 166.438 312.369 168.969 311.577 170.031C311.285 170.427 311.035 170.625 310.827 170.625C310.66 170.625 310.577 170.469 310.577 170.156C310.577 169.927 310.723 169.188 311.014 167.938L309.921 169.094C309.171 169.885 308.796 170.469 308.796 170.844C308.796 171.198 308.712 171.375 308.546 171.375C308.15 171.375 307.796 170.885 307.483 169.906C307.316 169.26 307.181 168.938 307.077 168.938C306.994 168.938 306.921 169.073 306.858 169.344C306.796 169.615 306.691 169.844 306.546 170.031C306.421 170.198 306.296 170.281 306.171 170.281C305.796 170.281 305.608 169.521 305.608 168C305.608 167.5 305.629 166.917 305.671 166.25L305.702 165.75C305.702 164.979 305.441 164.594 304.921 164.594C302.275 164.594 298.952 168.021 294.952 174.875C293.869 176.833 292.91 178.927 292.077 181.156C290.764 184.635 290.108 187.115 290.108 188.594C290.108 189.177 290.254 189.469 290.546 189.469C290.775 189.469 291.525 188.833 292.796 187.562C294.087 186.271 295.462 184.812 296.921 183.188C298.379 181.562 299.566 180.156 300.483 178.969C301.108 178.135 301.66 177.438 302.139 176.875C302.619 176.292 302.91 175.99 303.014 175.969C303.139 175.948 303.41 175.917 303.827 175.875C304.264 175.833 304.754 175.781 305.296 175.719C305.65 175.677 305.952 175.656 306.202 175.656C306.535 175.656 306.816 175.708 307.046 175.812C307.275 175.917 307.441 176.24 307.546 176.781C307.65 177.156 307.796 177.469 307.983 177.719C308.191 177.948 308.389 178.062 308.577 178.062C308.764 178.062 308.983 178.167 309.233 178.375C309.483 178.562 309.681 178.802 309.827 179.094C310.035 179.594 310.139 180.417 310.139 181.562C310.139 182.521 310.014 184.135 309.764 186.406C309.535 188.677 309.056 191.531 308.327 194.969C307.619 198.406 306.848 201.073 306.014 202.969L305.171 204.781C305.733 201.073 306.014 199.021 306.014 198.625C306.014 198.542 306.004 198.5 305.983 198.5C305.921 198.5 305.764 198.948 305.514 199.844C305.056 201.385 304.556 202.688 304.014 203.75C303.639 204.5 303.358 204.875 303.171 204.875ZM306.452 197.031C306.473 197.031 306.504 196.979 306.546 196.875C306.629 196.667 306.671 196.448 306.671 196.219C306.671 195.99 306.629 195.771 306.546 195.562C306.504 195.458 306.473 195.406 306.452 195.406C306.348 195.406 306.296 195.677 306.296 196.219C306.296 196.74 306.348 197.01 306.452 197.031ZM296.983 193.625C297.129 193.625 297.525 193.281 298.171 192.594C298.65 192.073 298.889 191.74 298.889 191.594C298.889 191.573 298.879 191.562 298.858 191.562C298.691 191.562 298.285 191.906 297.639 192.594C297.16 193.135 296.921 193.469 296.921 193.594C296.921 193.615 296.941 193.625 296.983 193.625ZM288.264 187.312C288.41 187.312 288.494 187.156 288.514 186.844C288.514 186.656 288.483 186.469 288.421 186.281C288.337 186.115 288.275 186.031 288.233 186.031C288.15 186.031 288.108 186.281 288.108 186.781C288.108 187.135 288.16 187.312 288.264 187.312ZM308.296 181.688C308.441 181.688 308.556 181.615 308.639 181.469C308.744 181.323 308.796 181.135 308.796 180.906C308.796 180.698 308.744 180.521 308.639 180.375C308.556 180.229 308.441 180.156 308.296 180.156C308.15 180.156 308.025 180.229 307.921 180.375C307.816 180.521 307.764 180.698 307.764 180.906C307.764 181.135 307.816 181.323 307.921 181.469C308.025 181.615 308.15 181.688 308.296 181.688ZM302.233 158.688C302.525 158.688 302.994 158.646 303.639 158.562C304.285 158.458 304.848 158.354 305.327 158.25C305.806 158.146 306.087 158.073 306.171 158.031L306.202 157.938C306.202 157.854 305.962 157.812 305.483 157.812C304.712 157.812 303.91 157.896 303.077 158.062C302.244 158.208 301.827 158.385 301.827 158.594C301.827 158.656 301.962 158.688 302.233 158.688Z" stroke="#FFE9AD" stroke-width="2"/>
</svg>
